<svg xmlns="http://www.w3.org/2000/svg" viewBox="0 0 400 400">
  <rect width="400" height="400" fill="#1a1a2e"/>
  <path d="M 253.7,210.4 L 267.4,164.8 L 226.3,124.9 Z M 253.7,210.4 L 226.3,124.9 L 197.0,187.5 Z M 197.0,187.5 L 226.3,124.9 L 193.3,133.6 Z M 197.0,187.5 L 193.3,133.6 L 149.8,174.5 Z M 134.9,209.1 L 109.0,247.8 L 117.5,286.8 Z M 134.9,209.1 L 117.5,286.8 L 186.3,224.0 Z M 201.2,231.7 L 186.3,224.0 L 117.5,286.8 Z M 201.2,231.7 L 117.5,286.8 L 199.6,288.7 Z M 318.9,199.9 L 294.0,201.9 L 257.2,231.9 Z M 318.9,199.9 L 257.2,231.9 L 317.6,267.1 Z M 317.6,267.1 L 257.2,231.9 L 234.8,256.5 Z M 317.6,267.1 L 234.8,256.5 L 287.6,298.2 Z M 287.6,298.2 L 234.8,256.5 L 232.2,316.7 Z M 287.6,298.2 L 232.2,316.7 L 253.1,316.7 Z M 184.5,112.9 L 178.4,97.5 L 116.8,128.0 Z M 184.5,112.9 L 116.8,128.0 L 129.6,148.3 Z M 129.6,148.3 L 116.8,128.0 L 81.2,183.4 Z M 129.6,148.3 L 81.2,183.4 L 97.4,189.8 Z M 220.7,93.0 L 178.4,97.5 L 184.5,112.9 Z M 81.2,183.4 L 84.9,231.7 L 97.4,189.8 Z M 234.8,256.5 L 212.8,316.6 L 232.2,316.7 Z M 226.3,124.9 L 220.7,93.0 L 184.5,112.9 Z M 226.3,124.9 L 184.5,112.9 L 193.3,133.6 Z M 193.3,133.6 L 184.5,112.9 L 129.6,148.3 Z M 193.3,133.6 L 129.6,148.3 L 149.8,174.5 Z M 149.8,174.5 L 129.6,148.3 L 97.4,189.8 Z M 149.8,174.5 L 97.4,189.8 L 134.9,209.1 Z M 134.9,209.1 L 97.4,189.8 L 84.9,231.7 Z M 134.9,209.1 L 84.9,231.7 L 109.0,247.8 Z M 149.8,174.5 L 134.9,209.1 L 186.3,224.0 Z M 149.8,174.5 L 186.3,224.0 L 197.0,187.5 Z M 197.0,187.5 L 186.3,224.0 L 201.2,231.7 Z M 197.0,187.5 L 201.2,231.7 L 253.7,210.4 Z M 253.7,210.4 L 201.2,231.7 L 234.8,256.5 Z M 253.7,210.4 L 234.8,256.5 L 257.2,231.9 Z M 234.8,256.5 L 201.2,231.7 L 199.6,288.7 Z M 234.8,256.5 L 199.6,288.7 L 212.8,316.6 Z M 212.8,316.6 L 199.6,288.7 L 117.5,286.8 Z M 212.8,316.6 L 117.5,286.8 L 179.4,317.7 Z M 220.7,93.0 L 226.3,124.9 L 259.1,85.3 Z M 226.3,124.9 L 275.5,98.7 L 259.1,85.3 Z M 84.9,231.7 L 107.7,294.0 L 117.5,286.8 Z M 84.9,231.7 L 117.5,286.8 L 109.0,247.8 Z M 294.0,201.9 L 318.9,199.9 L 310.2,131.4 Z M 294.0,201.9 L 310.2,131.4 L 267.4,164.8 Z M 275.5,98.7 L 226.3,124.9 L 267.4,164.8 Z M 275.5,98.7 L 267.4,164.8 L 291.8,112.1 Z M 267.4,164.8 L 253.7,210.4 L 294.0,201.9 Z M 257.2,231.9 L 294.0,201.9 L 253.7,210.4 Z M 117.5,286.8 L 107.7,294.0 L 179.4,317.7 Z M 267.4,164.8 L 310.2,131.4 L 291.8,112.1 Z M 251.4,328.6 L 232.2,316.7 L 251.4,380.0 Z M 232.2,316.7 L 212.9,380.0 L 251.4,380.0 Z M 220.7,93.0 L 221.1,79.9 L 173.2,85.3 Z M 220.7,93.0 L 173.2,85.3 L 178.4,97.5 Z M 259.1,85.3 L 260.3,71.4 L 221.1,79.9 Z M 259.1,85.3 L 221.1,79.9 L 220.7,93.0 Z M 318.9,199.9 L 328.6,180.7 L 322.5,125.2 Z M 318.9,199.9 L 322.5,125.2 L 310.2,131.4 Z M 287.6,298.2 L 253.1,316.7 L 251.4,328.6 Z M 287.6,298.2 L 251.4,328.6 L 297.7,307.2 Z M 297.7,307.2 L 328.6,270.7 L 317.6,267.1 Z M 297.7,307.2 L 317.6,267.1 L 287.6,298.2 Z M 328.6,219.3 L 318.9,199.9 L 317.6,267.1 Z M 328.6,219.3 L 317.6,267.1 L 328.6,270.7 Z M 380.0,219.3 L 380.0,180.7 L 328.6,180.7 Z M 380.0,219.3 L 328.6,180.7 L 328.6,219.3 Z M 20.0,251.4 L 71.4,251.4 L 84.9,231.7 Z M 20.0,251.4 L 84.9,231.7 L 20.0,212.9 Z M 109.5,117.0 L 116.8,128.0 L 178.4,97.5 Z M 109.5,117.0 L 178.4,97.5 L 173.2,85.3 Z M 81.2,183.4 L 69.7,178.1 L 71.4,212.9 Z M 81.2,183.4 L 71.4,212.9 L 84.9,231.7 Z M 109.5,117.0 L 69.7,178.1 L 81.2,183.4 Z M 109.5,117.0 L 81.2,183.4 L 116.8,128.0 Z M 178.1,330.3 L 179.4,317.7 L 107.7,294.0 Z M 178.1,330.3 L 107.7,294.0 L 96.9,301.3 Z M 96.9,301.3 L 107.7,294.0 L 84.9,231.7 Z M 96.9,301.3 L 84.9,231.7 L 71.4,251.4 Z M 179.4,317.7 L 178.1,330.3 L 212.9,328.6 Z M 179.4,317.7 L 212.9,328.6 L 212.8,316.6 Z M 310.2,131.4 L 322.5,125.2 L 298.9,96.1 Z M 310.2,131.4 L 298.9,96.1 L 291.8,112.1 Z M 260.3,20.0 L 260.3,71.4 L 275.5,98.7 Z M 260.3,20.0 L 275.5,98.7 L 298.9,20.0 Z M 328.6,219.3 L 328.6,180.7 L 318.9,199.9 Z M 251.4,328.6 L 253.1,316.7 L 232.2,316.7 Z M 232.2,316.7 L 212.8,316.6 L 212.9,328.6 Z M 232.2,316.7 L 212.9,328.6 L 212.9,380.0 Z M 84.9,231.7 L 71.4,212.9 L 20.0,212.9 Z M 298.9,96.1 L 275.5,98.7 L 291.8,112.1 Z M 259.1,85.3 L 275.5,98.7 L 260.3,71.4 Z M 275.5,98.7 L 298.9,96.1 L 298.9,20.0 Z" fill="#2a2a4e" stroke="none"/>
  <path d="M 251.4,380.0 L 251.4,328.6 M 212.9,380.0 L 251.4,380.0 M 221.1,79.9 L 173.2,85.3 M 260.3,71.4 L 221.1,79.9 M 328.6,180.7 L 322.5,125.2 M 251.4,328.6 L 297.7,307.2 M 297.7,307.2 L 328.6,270.7 M 328.6,270.7 L 328.6,219.3 M 380.0,219.3 L 380.0,180.7 M 380.0,180.7 L 328.6,180.7 M 328.6,219.3 L 380.0,219.3 M 20.0,251.4 L 71.4,251.4 M 20.0,212.9 L 20.0,251.4 M 173.2,85.3 L 109.5,117.0 M 69.7,178.1 L 71.4,212.9 M 109.5,117.0 L 69.7,178.1 M 96.9,301.3 L 178.1,330.3 M 71.4,251.4 L 96.9,301.3 M 178.1,330.3 L 212.9,328.6 M 322.5,125.2 L 298.9,96.1 M 260.3,20.0 L 260.3,71.4 M 298.9,20.0 L 260.3,20.0 M 212.9,328.6 L 212.9,380.0 M 71.4,212.9 L 20.0,212.9 M 298.9,96.1 L 298.9,20.0" fill="none" stroke="white" stroke-width="2" stroke-linecap="round"/>
  <polygon points="232.52200271249066,328.9792181513314 240.52200271249066,336.9792181513314 232.52200271249066,344.9792181513314 224.52200271249066,336.9792181513314" fill="#4a9eff" stroke="white" stroke-width="1"/>
<polygon points="61.70783946629851,224.82893059190198 69.70783946629851,232.82893059190198 61.70783946629851,240.82893059190198 53.70783946629851,232.82893059190198" fill="#4a9eff" stroke="white" stroke-width="1"/>
<polygon points="279.5712726166838,51.65578542983446 287.5712726166838,59.65578542983446 279.5712726166838,67.65578542983445 271.5712726166838,59.65578542983446" fill="#4a9eff" stroke="white" stroke-width="1"/>
<polygon points="338.53486536678105,192.03524504427978 346.53486536678105,200.03524504427978 338.53486536678105,208.03524504427978 330.53486536678105,200.03524504427978" fill="#4a9eff" stroke="white" stroke-width="1"/>
</svg>