<svg xmlns="http://www.w3.org/2000/svg" viewBox="0 0 400 400">
  <rect width="400" height="400" fill="#1a1a2e"/>
  <path d="M 89.4,242.4 L 74.7,260.1 L 67.3,289.5 Z M 89.4,242.4 L 67.3,289.5 L 139.9,332.7 Z M 139.9,332.7 L 67.3,289.5 L 44.2,292.3 Z M 139.9,332.7 L 44.2,292.3 L 100.6,333.5 Z M 100.6,333.5 L 44.2,292.3 L 29.7,284.4 Z M 100.6,333.5 L 29.7,284.4 L 28.9,315.4 Z M 204.7,245.7 L 169.9,199.0 L 134.8,194.2 Z M 204.7,245.7 L 134.8,194.2 L 204.1,276.5 Z M 204.1,276.5 L 134.8,194.2 L 92.7,210.5 Z M 204.1,276.5 L 92.7,210.5 L 180.6,280.5 Z M 180.6,280.5 L 92.7,210.5 L 89.4,242.4 Z M 180.6,280.5 L 89.4,242.4 L 156.8,301.1 Z M 156.8,301.1 L 89.4,242.4 L 139.9,332.7 Z M 156.8,301.1 L 139.9,332.7 L 155.5,332.8 Z M 204.7,245.7 L 194.7,211.9 L 169.9,199.0 Z M 211.9,231.3 L 204.7,245.7 L 204.1,276.5 Z M 211.9,231.3 L 204.1,276.5 L 211.9,260.1 Z M 211.9,260.1 L 204.1,276.5 L 203.7,295.8 Z M 211.9,260.1 L 203.7,295.8 L 211.9,298.5 Z M 105.9,23.1 L 105.5,45.1 L 163.7,46.2 Z M 105.9,23.1 L 163.7,46.2 L 157.6,20.0 Z M 157.6,20.0 L 163.7,46.2 L 205.0,68.8 Z M 154.3,341.6 L 139.9,332.7 L 154.3,380.0 Z M 139.9,332.7 L 125.5,380.0 L 154.3,380.0 Z M 92.7,200.7 L 92.7,210.5 L 134.8,194.2 Z M 92.7,200.7 L 134.8,194.2 L 133.6,186.3 Z M 169.9,199.0 L 169.7,190.6 L 133.6,186.3 Z M 169.9,199.0 L 133.6,186.3 L 134.8,194.2 Z M 169.9,199.0 L 194.7,211.9 L 201.6,201.8 Z M 169.9,199.0 L 201.6,201.8 L 169.7,190.6 Z M 204.7,245.7 L 211.9,231.3 L 201.6,201.8 Z M 204.7,245.7 L 201.6,201.8 L 194.7,211.9 Z M 154.3,341.6 L 188.8,325.7 L 181.3,319.0 Z M 154.3,341.6 L 181.3,319.0 L 155.5,332.8 Z M 203.7,295.8 L 181.3,319.0 L 188.8,325.7 Z M 203.7,295.8 L 188.8,325.7 L 211.9,298.5 Z M 92.7,210.5 L 92.7,200.7 L 51.8,206.2 Z M 92.7,210.5 L 51.8,206.2 L 55.4,213.7 Z M 28.9,233.3 L 20.0,229.3 L 20.0,269.7 Z M 28.9,233.3 L 20.0,269.7 L 29.7,284.4 Z M 28.9,233.3 L 55.4,213.7 L 51.8,206.2 Z M 28.9,233.3 L 51.8,206.2 L 20.0,229.3 Z M 28.9,315.4 L 20.0,321.3 L 99.6,342.9 Z M 28.9,315.4 L 99.6,342.9 L 100.6,333.5 Z M 29.7,284.4 L 20.0,269.7 L 20.0,321.3 Z M 29.7,284.4 L 20.0,321.3 L 28.9,315.4 Z M 100.6,333.5 L 99.6,342.9 L 125.5,341.6 Z M 100.6,333.5 L 125.5,341.6 L 139.9,332.7 Z M 154.3,341.6 L 155.5,332.8 L 139.9,332.7 Z M 139.9,332.7 L 125.5,341.6 L 125.5,380.0 Z" fill="#2a2a4e" stroke="none"/>
  <path d="M 89.4,242.4 L 74.7,260.1 M 74.7,260.1 L 67.3,289.5 M 67.3,289.5 L 44.2,292.3 M 44.2,292.3 L 29.7,284.4 M 180.6,280.5 L 204.1,276.5 M 92.7,210.5 L 89.4,242.4 M 156.8,301.1 L 180.6,280.5 M 155.5,332.8 L 156.8,301.1 M 211.9,260.1 L 211.9,231.3 M 204.1,276.5 L 203.7,295.8 M 211.9,298.5 L 211.9,260.1 M 105.9,23.1 L 105.5,45.1 M 105.5,45.1 L 163.7,46.2 M 157.6,20.0 L 105.9,23.1 M 163.7,46.2 L 205.0,68.8 M 205.0,68.8 L 157.6,20.0 M 154.3,380.0 L 154.3,341.6 M 125.5,380.0 L 154.3,380.0 M 133.6,186.3 L 92.7,200.7 M 169.7,190.6 L 133.6,186.3 M 201.6,201.8 L 169.7,190.6 M 211.9,231.3 L 201.6,201.8 M 154.3,341.6 L 188.8,325.7 M 181.3,319.0 L 155.5,332.8 M 203.7,295.8 L 181.3,319.0 M 188.8,325.7 L 211.9,298.5 M 92.7,200.7 L 51.8,206.2 M 55.4,213.7 L 92.7,210.5 M 20.0,229.3 L 20.0,269.7 M 29.7,284.4 L 28.9,233.3 M 28.9,233.3 L 55.4,213.7 M 51.8,206.2 L 20.0,229.3 M 20.0,321.3 L 99.6,342.9 M 20.0,269.7 L 20.0,321.3 M 99.6,342.9 L 125.5,341.6 M 125.5,341.6 L 125.5,380.0" fill="none" stroke="white" stroke-width="2" stroke-linecap="round"/>
  <polygon points="140.0827099055299,340.51823187128934 148.0827099055299,348.51823187128934 140.0827099055299,356.51823187128934 132.0827099055299,348.51823187128934" fill="#4a9eff" stroke="white" stroke-width="1"/>
</svg>