<svg xmlns="http://www.w3.org/2000/svg" viewBox="0 0 400 400">
  <rect width="400" height="400" fill="#1a1a2e"/>
  <path d="M 279.6,36.4 L 232.5,36.2 L 255.0,128.2 Z M 279.6,36.4 L 255.0,128.2 L 301.5,113.6 Z M 301.5,113.6 L 255.0,128.2 L 266.8,169.7 Z M 301.5,113.6 L 266.8,169.7 L 315.6,162.7 Z M 121.5,69.7 L 114.0,35.7 L 93.8,50.9 Z M 114.0,35.7 L 72.3,20.0 L 93.8,50.9 Z M 328.5,216.9 L 315.6,162.7 L 298.8,205.8 Z M 315.6,162.7 L 266.8,169.7 L 298.8,205.8 Z M 211.7,96.7 L 197.0,36.0 L 150.6,35.7 Z M 211.7,96.7 L 150.6,35.7 L 160.4,74.4 Z M 114.0,35.7 L 121.5,69.7 L 160.4,74.4 Z M 114.0,35.7 L 160.4,74.4 L 150.6,35.7 Z M 255.0,128.2 L 232.5,36.2 L 197.0,36.0 Z M 255.0,128.2 L 197.0,36.0 L 211.7,96.7 Z M 83.9,131.6 L 83.9,194.3 L 141.0,174.8 Z M 83.9,131.6 L 141.0,174.8 L 111.2,142.4 Z M 279.6,36.4 L 301.5,113.6 L 315.6,97.2 Z M 279.6,36.4 L 315.6,97.2 L 315.6,64.4 Z M 159.1,220.2 L 141.0,174.8 L 83.9,264.6 Z M 159.1,220.2 L 83.9,264.6 L 119.9,264.6 Z M 315.6,97.2 L 301.5,113.6 L 315.6,162.7 Z M 315.6,64.4 L 315.6,36.5 L 307.9,36.5 Z M 119.9,264.6 L 169.5,264.6 L 159.1,220.2 Z M 141.0,174.8 L 83.9,194.3 L 83.9,264.6 Z M 315.6,64.4 L 307.9,36.5 L 279.6,36.4 Z M 328.5,231.1 L 328.5,216.9 L 298.8,205.8 Z M 328.5,231.1 L 298.8,205.8 L 289.9,218.2 Z M 289.9,218.2 L 298.8,205.8 L 266.8,169.7 Z M 289.9,218.2 L 266.8,169.7 L 253.8,178.1 Z M 255.0,128.2 L 211.7,96.7 L 205.4,106.3 Z M 255.0,128.2 L 205.4,106.3 L 244.3,136.2 Z M 244.3,136.2 L 205.4,106.3 L 190.9,121.7 Z M 244.3,136.2 L 190.9,121.7 L 226.4,143.5 Z M 226.4,143.5 L 190.9,121.7 L 173.0,133.4 Z M 226.4,143.5 L 173.0,133.4 L 200.2,160.2 Z M 200.2,160.2 L 173.0,133.4 L 142.3,154.8 Z M 200.2,160.2 L 142.3,154.8 L 162.4,183.1 Z M 71.0,105.1 L 83.9,131.6 L 111.2,142.4 Z M 71.0,105.1 L 111.2,142.4 L 119.0,131.2 Z M 119.0,131.2 L 111.2,142.4 L 141.0,174.8 Z M 119.0,131.2 L 141.0,174.8 L 142.3,154.8 Z M 159.1,220.2 L 174.3,216.0 L 141.0,174.8 Z M 174.3,216.0 L 162.4,183.1 L 141.0,174.8 Z M 255.0,128.2 L 244.3,136.2 L 253.8,178.1 Z M 255.0,128.2 L 253.8,178.1 L 266.8,169.7 Z M 205.4,106.3 L 211.7,96.7 L 160.4,74.4 Z M 205.4,106.3 L 160.4,74.4 L 164.9,90.2 Z M 93.8,50.9 L 82.0,60.1 L 125.4,85.6 Z M 93.8,50.9 L 125.4,85.6 L 121.5,69.7 Z M 328.5,20.0 L 303.3,20.0 L 307.9,36.5 Z M 328.5,20.0 L 307.9,36.5 L 315.6,36.5 Z M 315.6,97.2 L 315.6,162.7 L 328.5,216.9 Z M 315.6,97.2 L 328.5,216.9 L 328.5,116.6 Z M 145.4,20.0 L 150.6,35.7 L 197.0,36.0 Z M 145.4,20.0 L 197.0,36.0 L 191.3,20.0 Z M 191.3,20.0 L 197.0,36.0 L 232.5,36.2 Z M 191.3,20.0 L 232.5,36.2 L 227.7,20.0 Z M 125.4,85.6 L 164.9,90.2 L 160.4,74.4 Z M 125.4,85.6 L 160.4,74.4 L 121.5,69.7 Z M 109.4,20.0 L 114.0,35.7 L 150.6,35.7 Z M 109.4,20.0 L 150.6,35.7 L 145.4,20.0 Z M 328.5,77.9 L 328.5,116.6 L 380.0,116.6 Z M 328.5,77.9 L 380.0,116.6 L 380.0,77.9 Z M 315.6,64.4 L 328.5,77.9 L 328.5,20.0 Z M 315.6,64.4 L 328.5,20.0 L 315.6,36.5 Z M 227.7,20.0 L 232.5,36.2 L 279.6,36.4 Z M 227.7,20.0 L 279.6,36.4 L 274.1,20.0 Z M 274.1,20.0 L 279.6,36.4 L 307.9,36.5 Z M 274.1,20.0 L 307.9,36.5 L 303.3,20.0 Z M 174.3,216.0 L 159.1,220.2 L 169.5,264.6 Z M 174.3,216.0 L 169.5,264.6 L 185.6,276.3 Z M 100.6,276.6 L 119.9,264.6 L 83.9,264.6 Z M 100.6,276.6 L 83.9,264.6 L 71.7,276.7 Z M 71.0,105.1 L 71.4,174.5 L 83.9,194.3 Z M 71.0,105.1 L 83.9,194.3 L 83.9,131.6 Z M 142.3,154.8 L 141.0,174.8 L 162.4,183.1 Z M 142.3,154.8 L 162.4,183.1 L 162.4,183.1 Z M 71.7,276.7 L 83.9,264.6 L 83.9,194.3 Z M 71.7,276.7 L 83.9,194.3 L 71.5,213.1 Z M 139.3,276.6 L 100.6,276.6 L 100.6,328.1 Z M 139.3,276.6 L 100.6,328.1 L 139.3,328.1 Z M 185.6,276.3 L 169.5,264.6 L 119.9,264.6 Z M 185.6,276.3 L 119.9,264.6 L 139.3,276.6 Z M 20.0,174.5 L 20.0,213.1 L 83.9,194.3 Z M 20.0,174.5 L 83.9,194.3 L 71.4,174.5 Z M 72.3,20.0 L 82.0,60.1 L 93.8,50.9 Z M 114.0,35.7 L 109.4,20.0 L 72.3,20.0 Z M 328.5,116.6 L 328.5,77.9 L 315.6,97.2 Z M 20.0,213.1 L 71.5,213.1 L 83.9,194.3 Z M 100.6,276.6 L 139.3,276.6 L 119.9,264.6 Z M 315.6,64.4 L 315.6,97.2 L 328.5,77.9 Z M 174.3,216.0 L 162.4,183.1 L 162.4,183.1 Z" fill="#2a2a4e" stroke="none"/>
  <path d="M 328.5,231.1 L 328.5,216.9 M 289.9,218.2 L 328.5,231.1 M 253.8,178.1 L 289.9,218.2 M 205.4,106.3 L 190.9,121.7 M 226.4,143.5 L 244.3,136.2 M 190.9,121.7 L 173.0,133.4 M 200.2,160.2 L 226.4,143.5 M 173.0,133.4 L 142.3,154.8 M 162.4,183.1 L 200.2,160.2 M 119.0,131.2 L 71.0,105.1 M 142.3,154.8 L 119.0,131.2 M 244.3,136.2 L 253.8,178.1 M 164.9,90.2 L 205.4,106.3 M 82.0,60.1 L 125.4,85.6 M 328.5,20.0 L 303.3,20.0 M 328.5,216.9 L 328.5,116.6 M 191.3,20.0 L 145.4,20.0 M 227.7,20.0 L 191.3,20.0 M 125.4,85.6 L 164.9,90.2 M 145.4,20.0 L 109.4,20.0 M 328.5,116.6 L 380.0,116.6 M 380.0,116.6 L 380.0,77.9 M 380.0,77.9 L 328.5,77.9 M 328.5,77.9 L 328.5,20.0 M 274.1,20.0 L 227.7,20.0 M 303.3,20.0 L 274.1,20.0 M 185.6,276.3 L 174.3,216.0 M 71.7,276.7 L 100.6,276.6 M 71.0,105.1 L 71.4,174.5 M 71.5,213.1 L 71.7,276.7 M 100.6,276.6 L 100.6,328.1 M 100.6,328.1 L 139.3,328.1 M 139.3,328.1 L 139.3,276.6 M 139.3,276.6 L 185.6,276.3 M 20.0,174.5 L 20.0,213.1 M 71.4,174.5 L 20.0,174.5 M 72.3,20.0 L 82.0,60.1 M 109.4,20.0 L 72.3,20.0 M 20.0,213.1 L 71.5,213.1" fill="none" stroke="white" stroke-width="2" stroke-linecap="round"/>
  <polygon points="337.23476950438,89.30411501932893 345.23476950438,97.30411501932893 337.23476950438,105.30411501932893 329.23476950438,97.30411501932893" fill="#4a9eff" stroke="white" stroke-width="1"/>
<polygon points="119.28892684608005,277.7664281534853 127.28892684608005,285.7664281534853 119.28892684608005,293.7664281534853 111.28892684608005,285.7664281534853" fill="#4a9eff" stroke="white" stroke-width="1"/>
<polygon points="63.53166352104926,186.1450059378414 71.53166352104927,194.1450059378414 63.53166352104926,202.1450059378414 55.53166352104926,194.1450059378414" fill="#4a9eff" stroke="white" stroke-width="1"/>
</svg>