<svg xmlns="http://www.w3.org/2000/svg" viewBox="0 0 400 400">
  <rect width="400" height="400" fill="#1a1a2e"/>
  <path d="M 152.9,228.1 L 107.9,286.7 L 132.2,306.8 Z M 152.9,228.1 L 132.2,306.8 L 192.8,218.0 Z M 192.8,218.0 L 132.2,306.8 L 138.9,333.5 Z M 192.8,218.0 L 138.9,333.5 L 163.9,332.7 Z M 112.2,213.6 L 65.6,233.3 L 68.4,269.4 Z M 112.2,213.6 L 68.4,269.4 L 152.9,228.1 Z M 152.9,228.1 L 68.4,269.4 L 75.2,287.8 Z M 152.9,228.1 L 75.2,287.8 L 107.9,286.7 Z M 243.0,245.7 L 205.6,194.3 L 192.8,218.0 Z M 243.0,245.7 L 192.8,218.0 L 242.1,295.8 Z M 242.1,295.8 L 192.8,218.0 L 193.9,332.8 Z M 242.1,295.8 L 193.9,332.8 L 219.7,319.0 Z M 163.9,332.7 L 178.3,332.7 L 193.9,332.8 Z M 163.9,332.7 L 193.9,332.8 L 192.8,218.0 Z M 112.2,213.6 L 99.8,191.8 L 65.6,233.3 Z M 243.0,245.7 L 236.4,202.5 L 205.6,194.3 Z M 144.3,23.1 L 143.8,45.1 L 202.1,46.2 Z M 144.3,23.1 L 202.1,46.2 L 196.0,20.0 Z M 196.0,20.0 L 202.1,46.2 L 243.4,68.8 Z M 192.7,341.6 L 178.3,332.7 L 192.7,380.0 Z M 178.3,332.7 L 163.9,380.0 L 192.7,380.0 Z M 183.0,174.6 L 186.7,165.6 L 154.3,158.2 Z M 183.0,174.6 L 154.3,158.2 L 154.3,168.0 Z M 186.7,165.6 L 183.0,174.6 L 205.6,194.3 Z M 186.7,165.6 L 205.6,194.3 L 211.2,188.7 Z M 242.7,197.1 L 211.2,188.7 L 205.6,194.3 Z M 242.7,197.1 L 205.6,194.3 L 236.4,202.5 Z M 242.7,197.1 L 236.4,202.5 L 243.0,245.7 Z M 242.7,197.1 L 243.0,245.7 L 250.2,231.3 Z M 219.7,319.0 L 193.9,332.8 L 192.7,341.6 Z M 219.7,319.0 L 192.7,341.6 L 227.2,325.7 Z M 227.2,325.7 L 250.2,298.5 L 242.1,295.8 Z M 227.2,325.7 L 242.1,295.8 L 219.7,319.0 Z M 250.2,260.1 L 243.0,245.7 L 242.1,295.8 Z M 250.2,260.1 L 242.1,295.8 L 250.2,298.5 Z M 288.6,260.1 L 288.6,231.3 L 250.2,231.3 Z M 288.6,260.1 L 250.2,231.3 L 250.2,260.1 Z M 20.0,284.1 L 58.4,284.1 L 68.4,269.4 Z M 20.0,284.1 L 68.4,269.4 L 20.0,255.3 Z M 86.8,183.7 L 99.8,191.8 L 154.3,168.0 Z M 86.8,183.7 L 154.3,168.0 L 154.3,158.2 Z M 65.6,233.3 L 57.1,229.3 L 58.4,255.3 Z M 65.6,233.3 L 58.4,255.3 L 68.4,269.4 Z M 86.8,183.7 L 57.1,229.3 L 65.6,233.3 Z M 86.8,183.7 L 65.6,233.3 L 99.8,191.8 Z M 137.9,342.9 L 138.9,333.5 L 85.5,315.8 Z M 137.9,342.9 L 85.5,315.8 L 77.4,321.3 Z M 138.9,333.5 L 137.9,342.9 L 163.9,341.6 Z M 138.9,333.5 L 163.9,341.6 L 163.9,332.7 Z M 77.4,321.3 L 85.5,315.8 L 75.2,287.8 Z M 77.4,321.3 L 75.2,287.8 L 58.4,284.1 Z M 250.2,260.1 L 250.2,231.3 L 243.0,245.7 Z M 68.4,269.4 L 58.4,284.1 L 75.2,287.8 Z M 192.7,341.6 L 193.9,332.8 L 178.3,332.7 Z M 178.3,332.7 L 163.9,332.7 L 163.9,341.6 Z M 178.3,332.7 L 163.9,341.6 L 163.9,380.0 Z M 68.4,269.4 L 58.4,255.3 L 20.0,255.3 Z" fill="#2a2a4e" stroke="none"/>
  <path d="M 107.9,286.7 L 132.2,306.8 M 192.8,218.0 L 152.9,228.1 M 132.2,306.8 L 138.9,333.5 M 152.9,228.1 L 112.2,213.6 M 75.2,287.8 L 107.9,286.7 M 205.6,194.3 L 192.8,218.0 M 112.2,213.6 L 99.8,191.8 M 144.3,23.1 L 143.8,45.1 M 143.8,45.1 L 202.1,46.2 M 196.0,20.0 L 144.3,23.1 M 202.1,46.2 L 243.4,68.8 M 243.4,68.8 L 196.0,20.0 M 192.7,380.0 L 192.7,341.6 M 163.9,380.0 L 192.7,380.0 M 186.7,165.6 L 154.3,158.2 M 154.3,168.0 L 183.0,174.6 M 183.0,174.6 L 205.6,194.3 M 211.2,188.7 L 186.7,165.6 M 242.7,197.1 L 211.2,188.7 M 250.2,231.3 L 242.7,197.1 M 192.7,341.6 L 227.2,325.7 M 227.2,325.7 L 250.2,298.5 M 250.2,298.5 L 250.2,260.1 M 288.6,260.1 L 288.6,231.3 M 288.6,231.3 L 250.2,231.3 M 250.2,260.1 L 288.6,260.1 M 20.0,284.1 L 58.4,284.1 M 20.0,255.3 L 20.0,284.1 M 99.8,191.8 L 154.3,168.0 M 154.3,158.2 L 86.8,183.7 M 57.1,229.3 L 58.4,255.3 M 86.8,183.7 L 57.1,229.3 M 138.9,333.5 L 85.5,315.8 M 77.4,321.3 L 137.9,342.9 M 137.9,342.9 L 163.9,341.6 M 85.5,315.8 L 75.2,287.8 M 58.4,284.1 L 77.4,321.3 M 163.9,341.6 L 163.9,380.0 M 58.4,255.3 L 20.0,255.3" fill="none" stroke="white" stroke-width="2" stroke-linecap="round"/>
  <polygon points="180.47588417008112,335.2904595636942 188.47588417008112,343.2904595636942 180.47588417008112,351.2904595636942 172.47588417008112,343.2904595636942" fill="#4a9eff" stroke="white" stroke-width="1"/>
<polygon points="61.38174148929969,261.2930086289791 69.38174148929969,269.2930086289791 61.38174148929969,277.2930086289791 53.38174148929969,269.2930086289791" fill="#4a9eff" stroke="white" stroke-width="1"/>
<polygon points="255.58380611303983,236.98814827704655 263.5838061130398,244.98814827704655 255.58380611303983,252.98814827704655 247.58380611303983,244.98814827704655" fill="#4a9eff" stroke="white" stroke-width="1"/>
</svg>