<svg xmlns="http://www.w3.org/2000/svg" viewBox="0 0 400 400">
  <rect width="400" height="400" fill="#1a1a2e"/>
  <path d="M 173.9,189.7 L 136.7,210.3 L 135.5,235.6 Z M 136.7,210.3 L 116.8,226.7 L 135.5,235.6 Z M 154.0,311.9 L 144.4,285.5 L 92.8,310.4 Z M 144.4,285.5 L 132.5,277.0 L 92.8,310.4 Z M 92.8,310.4 L 132.5,277.0 L 123.3,268.6 Z M 135.5,235.6 L 194.4,253.5 L 204.6,219.5 Z M 135.5,235.6 L 204.6,219.5 L 173.9,189.7 Z M 92.8,310.4 L 123.3,268.6 L 105.7,252.5 Z M 92.8,310.4 L 105.7,252.5 L 86.4,281.4 Z M 204.6,219.5 L 205.6,194.3 L 183.0,174.6 Z M 204.6,219.5 L 183.0,174.6 L 173.9,189.7 Z M 173.9,189.7 L 183.0,174.6 L 154.3,177.8 Z M 173.9,189.7 L 154.3,177.8 L 136.7,210.3 Z M 136.7,210.3 L 154.3,177.8 L 101.8,207.1 Z M 136.7,210.3 L 101.8,207.1 L 116.8,226.7 Z M 116.8,226.7 L 101.8,207.1 L 77.0,239.0 Z M 116.8,226.7 L 77.0,239.0 L 105.7,252.5 Z M 105.7,252.5 L 77.0,239.0 L 68.4,269.4 Z M 105.7,252.5 L 68.4,269.4 L 86.4,281.4 Z M 154.0,311.9 L 163.9,332.7 L 193.2,288.0 Z M 154.0,311.9 L 193.2,288.0 L 144.4,285.5 Z M 144.4,285.5 L 193.2,288.0 L 203.0,279.3 Z M 144.4,285.5 L 203.0,279.3 L 194.4,253.5 Z M 205.6,194.3 L 204.6,219.5 L 224.4,247.1 Z M 204.6,219.5 L 194.4,253.5 L 224.4,247.1 Z M 194.4,253.5 L 135.5,235.6 L 144.4,285.5 Z M 135.5,235.6 L 132.5,277.0 L 144.4,285.5 Z M 85.5,315.8 L 138.9,333.5 L 92.8,310.4 Z M 138.9,333.5 L 154.0,311.9 L 92.8,310.4 Z M 92.8,310.4 L 86.4,281.4 L 68.4,269.4 Z M 92.8,310.4 L 68.4,269.4 L 85.5,315.8 Z M 135.5,235.6 L 116.8,226.7 L 123.3,268.6 Z M 135.5,235.6 L 123.3,268.6 L 132.5,277.0 Z M 203.0,279.3 L 224.4,247.1 L 194.4,253.5 Z M 116.8,226.7 L 105.7,252.5 L 123.3,268.6 Z M 138.9,333.5 L 163.9,332.7 L 154.0,311.9 Z M 243.0,245.7 L 224.4,247.1 L 203.0,279.3 Z M 243.0,245.7 L 203.0,279.3 L 242.1,295.8 Z M 242.1,295.8 L 203.0,279.3 L 193.2,288.0 Z M 242.1,295.8 L 193.2,288.0 L 219.7,319.0 Z M 219.7,319.0 L 193.2,288.0 L 178.3,332.7 Z M 219.7,319.0 L 178.3,332.7 L 193.9,332.8 Z M 236.4,202.5 L 205.6,194.3 L 224.4,247.1 Z M 236.4,202.5 L 224.4,247.1 L 243.0,245.7 Z M 154.3,177.8 L 154.3,168.0 L 92.2,192.0 Z M 154.3,177.8 L 92.2,192.0 L 101.8,207.1 Z M 65.6,233.3 L 77.0,239.0 L 101.8,207.1 Z M 65.6,233.3 L 101.8,207.1 L 92.2,192.0 Z M 183.0,174.6 L 154.3,168.0 L 154.3,177.8 Z M 65.6,233.3 L 68.4,269.4 L 77.0,239.0 Z M 193.2,288.0 L 163.9,332.7 L 178.3,332.7 Z M 135.6,284.6 L 134.5,293.7 L 132.9,294.5 Z M 144.3,23.1 L 143.8,45.1 L 202.1,46.2 Z M 144.3,23.1 L 202.1,46.2 L 196.0,20.0 Z M 196.0,20.0 L 202.1,46.2 L 243.4,68.8 Z M 154.3,158.2 L 154.3,168.0 L 183.0,174.6 Z M 154.3,158.2 L 183.0,174.6 L 186.7,165.6 Z M 205.6,194.3 L 211.2,188.7 L 186.7,165.6 Z M 205.6,194.3 L 186.7,165.6 L 183.0,174.6 Z M 205.6,194.3 L 236.4,202.5 L 242.7,197.1 Z M 205.6,194.3 L 242.7,197.1 L 211.2,188.7 Z M 243.0,245.7 L 250.2,231.3 L 242.7,197.1 Z M 243.0,245.7 L 242.7,197.1 L 236.4,202.5 Z M 192.7,341.6 L 227.2,325.7 L 219.7,319.0 Z M 192.7,341.6 L 219.7,319.0 L 193.9,332.8 Z M 242.1,295.8 L 219.7,319.0 L 227.2,325.7 Z M 242.1,295.8 L 227.2,325.7 L 250.2,298.5 Z M 242.1,295.8 L 250.2,298.5 L 250.2,260.1 Z M 242.1,295.8 L 250.2,260.1 L 243.0,245.7 Z M 250.2,231.3 L 250.2,260.1 L 288.6,260.1 Z M 250.2,231.3 L 288.6,260.1 L 288.6,231.3 Z M 68.4,269.4 L 20.0,255.3 L 20.0,284.1 Z M 68.4,269.4 L 20.0,284.1 L 58.4,284.1 Z M 154.3,168.0 L 154.3,158.2 L 86.8,183.7 Z M 154.3,168.0 L 86.8,183.7 L 92.2,192.0 Z M 58.4,255.3 L 68.4,269.4 L 65.6,233.3 Z M 58.4,255.3 L 65.6,233.3 L 57.1,229.3 Z M 65.6,233.3 L 92.2,192.0 L 86.8,183.7 Z M 65.6,233.3 L 86.8,183.7 L 57.1,229.3 Z M 85.5,315.8 L 77.4,321.3 L 137.9,342.9 Z M 85.5,315.8 L 137.9,342.9 L 138.9,333.5 Z M 68.4,269.4 L 58.4,284.1 L 77.4,321.3 Z M 68.4,269.4 L 77.4,321.3 L 85.5,315.8 Z M 163.9,341.6 L 163.9,332.7 L 138.9,333.5 Z M 163.9,341.6 L 138.9,333.5 L 137.9,342.9 Z M 163.9,341.6 L 163.9,380.0 L 192.7,380.0 Z M 163.9,341.6 L 192.7,380.0 L 178.3,332.7 Z M 250.2,260.1 L 250.2,231.3 L 243.0,245.7 Z M 192.7,341.6 L 178.3,332.7 L 192.7,380.0 Z M 192.7,341.6 L 193.9,332.8 L 178.3,332.7 Z M 178.3,332.7 L 163.9,332.7 L 163.9,341.6 Z M 68.4,269.4 L 58.4,255.3 L 20.0,255.3 Z" fill="#2a2a4e" stroke="none"/>
  <path d="M 135.6,284.6 L 134.5,293.7 M 134.5,293.7 L 132.9,294.5 M 132.9,294.5 L 135.6,284.6 M 144.3,23.1 L 143.8,45.1 M 143.8,45.1 L 202.1,46.2 M 196.0,20.0 L 144.3,23.1 M 202.1,46.2 L 243.4,68.8 M 243.4,68.8 L 196.0,20.0 M 186.7,165.6 L 154.3,158.2 M 211.2,188.7 L 186.7,165.6 M 242.7,197.1 L 211.2,188.7 M 250.2,231.3 L 242.7,197.1 M 192.7,341.6 L 227.2,325.7 M 227.2,325.7 L 250.2,298.5 M 250.2,298.5 L 250.2,260.1 M 250.2,260.1 L 288.6,260.1 M 288.6,260.1 L 288.6,231.3 M 288.6,231.3 L 250.2,231.3 M 20.0,255.3 L 20.0,284.1 M 20.0,284.1 L 58.4,284.1 M 154.3,158.2 L 86.8,183.7 M 57.1,229.3 L 58.4,255.3 M 86.8,183.7 L 57.1,229.3 M 77.4,321.3 L 137.9,342.9 M 58.4,284.1 L 77.4,321.3 M 137.9,342.9 L 163.9,341.6 M 163.9,341.6 L 163.9,380.0 M 163.9,380.0 L 192.7,380.0 M 192.7,380.0 L 192.7,341.6 M 58.4,255.3 L 20.0,255.3" fill="none" stroke="white" stroke-width="2" stroke-linecap="round"/>
  <polygon points="257.202390454859,236.8878978622424 265.202390454859,244.8878978622424 257.202390454859,252.8878978622424 249.20239045485903,244.8878978622424" fill="#4a9eff" stroke="white" stroke-width="1"/>
<polygon points="178.1123625768944,338.6580736100447 186.1123625768944,346.6580736100447 178.1123625768944,354.6580736100447 170.1123625768944,346.6580736100447" fill="#4a9eff" stroke="white" stroke-width="1"/>
<polygon points="52.46130169633103,262.23727744751005 60.46130169633103,270.23727744751005 52.46130169633103,278.23727744751005 44.46130169633103,270.23727744751005" fill="#4a9eff" stroke="white" stroke-width="1"/>
</svg>