<svg xmlns="http://www.w3.org/2000/svg" viewBox="0 0 400 400">
  <rect width="400" height="400" fill="#1a1a2e"/>
  <path d="M 191.3,125.6 L 223.5,137.6 L 246.8,113.6 Z M 191.3,125.6 L 246.8,113.6 L 192.0,95.8 Z M 192.0,95.8 L 246.8,113.6 L 242.7,98.3 Z M 192.0,95.8 L 242.7,98.3 L 222.5,83.0 Z M 174.9,44.9 L 157.5,57.6 L 165.0,81.1 Z M 174.9,44.9 L 165.0,81.1 L 203.3,62.2 Z M 203.3,62.2 L 165.0,81.1 L 185.6,92.0 Z M 203.3,62.2 L 185.6,92.0 L 197.8,84.7 Z M 202.9,167.8 L 201.8,153.2 L 184.2,131.6 Z M 202.9,167.8 L 184.2,131.6 L 163.6,167.0 Z M 163.6,167.0 L 184.2,131.6 L 169.8,118.5 Z M 163.6,167.0 L 169.8,118.5 L 147.1,153.0 Z M 146.0,74.7 L 147.9,107.0 L 169.8,118.5 Z M 147.9,107.0 L 142.5,121.9 L 169.8,118.5 Z M 169.8,118.5 L 142.5,121.9 L 147.1,153.0 Z M 201.8,153.2 L 202.9,167.8 L 236.8,162.6 Z M 201.8,153.2 L 236.8,162.6 L 243.2,138.4 Z M 237.9,68.0 L 231.6,72.0 L 256.2,98.1 Z M 237.9,68.0 L 256.2,98.1 L 263.9,98.1 Z M 231.6,72.0 L 237.9,68.0 L 212.9,30.3 Z M 231.6,72.0 L 212.9,30.3 L 209.8,38.3 Z M 258.7,120.7 L 263.9,98.1 L 256.2,98.1 Z M 212.9,30.3 L 178.9,29.6 L 209.8,38.3 Z M 223.5,137.6 L 243.2,138.4 L 258.7,120.7 Z M 223.5,137.6 L 258.7,120.7 L 246.8,113.6 Z M 246.8,113.6 L 258.7,120.7 L 256.2,98.1 Z M 246.8,113.6 L 256.2,98.1 L 242.7,98.3 Z M 242.7,98.3 L 256.2,98.1 L 231.6,72.0 Z M 242.7,98.3 L 231.6,72.0 L 222.5,83.0 Z M 222.5,83.0 L 231.6,72.0 L 209.8,38.3 Z M 222.5,83.0 L 209.8,38.3 L 203.3,62.2 Z M 203.3,62.2 L 209.8,38.3 L 178.9,29.6 Z M 203.3,62.2 L 178.9,29.6 L 174.9,44.9 Z M 169.8,118.5 L 185.6,92.0 L 165.0,81.1 Z M 169.8,118.5 L 165.0,81.1 L 146.0,74.7 Z M 146.0,74.7 L 165.0,81.1 L 157.5,57.6 Z M 146.0,74.7 L 157.5,57.6 L 137.4,55.2 Z M 223.5,137.6 L 191.3,125.6 L 184.2,131.6 Z M 223.5,137.6 L 184.2,131.6 L 201.8,153.2 Z M 178.9,29.6 L 145.5,42.3 L 157.5,57.6 Z M 178.9,29.6 L 157.5,57.6 L 174.9,44.9 Z M 185.6,92.0 L 192.0,95.8 L 222.5,83.0 Z M 185.6,92.0 L 222.5,83.0 L 197.8,84.7 Z M 192.0,95.8 L 185.6,92.0 L 169.8,118.5 Z M 192.0,95.8 L 169.8,118.5 L 191.3,125.6 Z M 243.2,138.4 L 223.5,137.6 L 201.8,153.2 Z M 191.3,125.6 L 169.8,118.5 L 184.2,131.6 Z M 222.5,83.0 L 203.3,62.2 L 197.8,84.7 Z M 137.4,55.2 L 157.5,57.6 L 145.5,42.3 Z M 20.0,134.9 L 46.6,129.4 L 51.7,96.0 Z M 20.0,134.9 L 51.7,96.0 L 20.7,90.0 Z M 20.7,90.0 L 51.7,96.0 L 57.2,69.7 Z M 20.7,90.0 L 57.2,69.7 L 31.9,58.5 Z M 46.6,129.4 L 20.0,134.9 L 45.0,196.8 Z M 46.6,129.4 L 45.0,196.8 L 72.1,179.7 Z M 116.7,198.0 L 72.1,179.7 L 45.0,196.8 Z M 116.7,198.0 L 45.0,196.8 L 113.3,239.1 Z M 53.7,20.0 L 31.9,58.5 L 57.2,69.7 Z M 53.7,20.0 L 57.2,69.7 L 79.8,35.2 Z M 127.1,54.2 L 140.2,33.1 L 94.6,45.1 Z M 377.5,90.3 L 360.3,89.9 L 359.4,135.6 Z M 377.5,90.3 L 359.4,135.6 L 380.0,130.8 Z M 380.0,130.8 L 359.4,135.6 L 341.7,168.0 Z M 214.2,173.4 L 202.9,167.8 L 214.2,203.5 Z M 202.9,167.8 L 191.6,203.5 L 214.2,203.5 Z M 258.7,120.7 L 265.8,123.5 L 271.6,98.1 Z M 258.7,120.7 L 271.6,98.1 L 263.9,98.1 Z M 265.8,123.5 L 258.7,120.7 L 243.2,138.4 Z M 265.8,123.5 L 243.2,138.4 L 247.6,142.8 Z M 241.1,167.5 L 247.6,142.8 L 243.2,138.4 Z M 241.1,167.5 L 243.2,138.4 L 236.8,162.6 Z M 241.1,167.5 L 236.8,162.6 L 202.9,167.8 Z M 241.1,167.5 L 202.9,167.8 L 214.2,173.4 Z M 147.1,153.0 L 142.5,121.9 L 135.0,122.7 Z M 147.1,153.0 L 135.0,122.7 L 139.7,155.8 Z M 139.7,155.8 L 161.5,173.4 L 163.6,167.0 Z M 139.7,155.8 L 163.6,167.0 L 147.1,153.0 Z M 191.6,173.4 L 202.9,167.8 L 163.6,167.0 Z M 191.6,173.4 L 163.6,167.0 L 161.5,173.4 Z M 243.2,64.4 L 237.9,68.0 L 263.9,98.1 Z M 243.2,64.4 L 263.9,98.1 L 271.6,98.1 Z M 212.9,30.3 L 215.7,21.9 L 178.5,21.2 Z M 212.9,30.3 L 178.5,21.2 L 178.9,29.6 Z M 243.2,64.4 L 215.7,21.9 L 212.9,30.3 Z M 243.2,64.4 L 212.9,30.3 L 237.9,68.0 Z M 127.1,54.2 L 137.4,55.2 L 145.5,42.3 Z M 127.1,54.2 L 145.5,42.3 L 140.2,33.1 Z M 140.2,33.1 L 145.5,42.3 L 178.9,29.6 Z M 140.2,33.1 L 178.9,29.6 L 178.5,21.2 Z M 135.0,122.7 L 142.5,121.9 L 147.9,107.0 Z M 135.0,122.7 L 147.9,107.0 L 139.4,106.1 Z M 137.4,55.2 L 127.1,54.2 L 138.4,75.1 Z M 137.4,55.2 L 138.4,75.1 L 146.0,74.7 Z M 139.4,106.1 L 147.9,107.0 L 146.0,74.7 Z M 139.4,106.1 L 146.0,74.7 L 138.4,75.1 Z M 202.9,167.8 L 191.6,173.4 L 191.6,203.5 Z" fill="#2a2a4e" stroke="none"/>
  <path d="M 46.6,129.4 L 51.7,96.0 M 20.7,90.0 L 20.0,134.9 M 51.7,96.0 L 57.2,69.7 M 31.9,58.5 L 20.7,90.0 M 20.0,134.9 L 45.0,196.8 M 72.1,179.7 L 46.6,129.4 M 116.7,198.0 L 72.1,179.7 M 45.0,196.8 L 113.3,239.1 M 113.3,239.1 L 116.7,198.0 M 53.7,20.0 L 31.9,58.5 M 57.2,69.7 L 79.8,35.2 M 79.8,35.2 L 53.7,20.0 M 140.2,33.1 L 94.6,45.1 M 94.6,45.1 L 127.1,54.2 M 377.5,90.3 L 360.3,89.9 M 360.3,89.9 L 359.4,135.6 M 380.0,130.8 L 377.5,90.3 M 359.4,135.6 L 341.7,168.0 M 341.7,168.0 L 380.0,130.8 M 214.2,203.5 L 214.2,173.4 M 191.6,203.5 L 214.2,203.5 M 265.8,123.5 L 271.6,98.1 M 247.6,142.8 L 265.8,123.5 M 241.1,167.5 L 247.6,142.8 M 214.2,173.4 L 241.1,167.5 M 135.0,122.7 L 139.7,155.8 M 139.7,155.8 L 161.5,173.4 M 161.5,173.4 L 191.6,173.4 M 271.6,98.1 L 243.2,64.4 M 215.7,21.9 L 178.5,21.2 M 243.2,64.4 L 215.7,21.9 M 178.5,21.2 L 140.2,33.1 M 139.4,106.1 L 135.0,122.7 M 127.1,54.2 L 138.4,75.1 M 138.4,75.1 L 139.4,106.1 M 191.6,173.4 L 191.6,203.5" fill="none" stroke="white" stroke-width="2" stroke-linecap="round"/>
  <polygon points="202.3216557764488,169.31663296004263 210.3216557764488,177.31663296004263 202.3216557764488,185.31663296004263 194.3216557764488,177.31663296004263" fill="#4a9eff" stroke="white" stroke-width="1"/>
</svg>