<svg xmlns="http://www.w3.org/2000/svg" viewBox="0 0 400 400">
  <rect width="400" height="400" fill="#1a1a2e"/>
  <path d="M 129.5,240.9 L 128.6,266.1 L 150.9,266.2 Z M 128.6,266.1 L 127.7,380.0 L 150.9,266.2 Z M 172.4,241.2 L 151.0,241.1 L 150.9,266.2 Z M 151.0,241.1 L 129.5,240.9 L 150.9,266.2 Z M 172.5,266.3 L 150.9,266.2 L 127.7,380.0 Z M 172.5,266.3 L 127.7,380.0 L 171.5,380.0 Z M 150.9,266.2 L 172.5,266.3 L 172.4,241.2 Z M 167.0,140.5 L 183.4,114.8 L 137.1,78.8 Z M 167.0,140.5 L 137.1,78.8 L 150.1,127.7 Z M 150.1,127.7 L 137.1,78.8 L 78.7,86.0 Z M 150.1,127.7 L 78.7,86.0 L 67.8,159.6 Z M 189.1,143.2 L 188.0,186.6 L 238.8,202.4 Z M 189.1,143.2 L 238.8,202.4 L 237.5,122.1 Z M 67.8,159.6 L 136.6,188.1 L 167.0,140.5 Z M 67.8,159.6 L 167.0,140.5 L 150.1,127.7 Z M 237.5,122.1 L 183.4,114.8 L 189.1,143.2 Z M 67.8,159.6 L 101.5,198.2 L 136.6,188.1 Z M 78.7,328.4 L 89.7,328.4 L 95.1,319.0 Z M 78.7,328.4 L 95.1,319.0 L 73.2,319.0 Z M 73.2,319.0 L 95.1,319.0 L 89.7,309.5 Z M 73.2,319.0 L 89.7,309.5 L 78.7,309.5 Z M 210.2,328.4 L 221.1,328.4 L 226.6,319.0 Z M 210.2,328.4 L 226.6,319.0 L 204.7,319.0 Z M 204.7,319.0 L 226.6,319.0 L 221.1,309.5 Z M 204.7,319.0 L 221.1,309.5 L 210.2,309.5 Z M 67.8,159.6 L 33.7,207.1 L 93.9,215.8 Z M 67.8,159.6 L 93.9,215.8 L 101.5,198.2 Z M 101.5,198.2 L 93.9,215.8 L 128.6,266.1 Z M 101.5,198.2 L 128.6,266.1 L 129.5,240.9 Z M 172.5,266.3 L 238.8,202.4 L 188.0,186.6 Z M 172.5,266.3 L 188.0,186.6 L 172.4,241.2 Z M 172.4,241.2 L 188.0,186.6 L 136.6,188.1 Z M 172.4,241.2 L 136.6,188.1 L 151.0,241.1 Z M 151.0,241.1 L 136.6,188.1 L 101.5,198.2 Z M 151.0,241.1 L 101.5,198.2 L 129.5,240.9 Z M 238.8,202.4 L 266.1,207.1 L 266.1,92.7 Z M 238.8,202.4 L 266.1,92.7 L 237.5,122.1 Z M 237.5,122.1 L 266.1,92.7 L 231.4,83.7 Z M 237.5,122.1 L 231.4,83.7 L 183.4,114.8 Z M 78.7,86.0 L 137.1,78.8 L 207.1,33.7 Z M 78.7,86.0 L 207.1,33.7 L 92.7,33.7 Z M 33.7,207.1 L 67.8,159.6 L 78.7,86.0 Z M 33.7,207.1 L 78.7,86.0 L 33.7,92.7 Z M 207.1,33.7 L 207.1,33.7 L 183.4,114.8 Z M 207.1,33.7 L 183.4,114.8 L 231.4,83.7 Z M 136.6,188.1 L 188.0,186.6 L 189.1,143.2 Z M 136.6,188.1 L 189.1,143.2 L 167.0,140.5 Z M 189.1,143.2 L 183.4,114.8 L 167.0,140.5 Z M 78.7,86.0 L 92.7,33.7 L 33.7,92.7 Z M 137.1,78.8 L 183.4,114.8 L 207.1,33.7 Z M 266.1,92.7 L 207.1,33.7 L 231.4,83.7 Z M 266.1,207.1 L 238.8,202.4 L 172.5,266.3 Z M 266.1,207.1 L 172.5,266.3 L 207.1,266.1 Z M 33.7,207.1 L 92.7,266.1 L 128.6,266.1 Z M 33.7,207.1 L 128.6,266.1 L 93.9,215.8 Z M 116.1,279.8 L 128.6,266.1 L 92.7,266.1 Z M 116.1,279.8 L 92.7,266.1 L 87.0,279.8 Z M 87.0,279.8 L 92.7,266.1 L 33.7,207.1 Z M 87.0,279.8 L 33.7,207.1 L 20.0,212.8 Z M 20.0,212.8 L 33.7,207.1 L 33.7,92.7 Z M 20.0,212.8 L 33.7,92.7 L 20.0,87.0 Z M 20.0,87.0 L 33.7,92.7 L 92.7,33.7 Z M 20.0,87.0 L 92.7,33.7 L 87.0,20.0 Z M 87.0,20.0 L 92.7,33.7 L 207.1,33.7 Z M 87.0,20.0 L 207.1,33.7 L 212.8,20.0 Z M 279.8,87.0 L 266.1,92.7 L 266.1,207.1 Z M 279.8,87.0 L 266.1,207.1 L 279.8,212.8 Z M 279.8,212.8 L 266.1,207.1 L 207.1,266.1 Z M 279.8,212.8 L 207.1,266.1 L 212.8,279.8 Z M 212.8,279.8 L 207.1,266.1 L 172.5,266.3 Z M 212.8,279.8 L 172.5,266.3 L 182.8,280.0 Z M 182.8,380.0 L 182.8,280.0 L 172.5,266.3 Z M 182.8,380.0 L 172.5,266.3 L 171.5,380.0 Z M 117.0,380.0 L 127.7,380.0 L 128.6,266.1 Z M 117.0,380.0 L 128.6,266.1 L 116.1,279.8 Z M 279.8,87.0 L 212.8,20.0 L 207.1,33.7 Z M 279.8,87.0 L 207.1,33.7 L 207.1,33.7 Z M 279.8,87.0 L 207.1,33.7 L 266.1,92.7 Z M 244.5,73.2 L 174.2,122.4 L 167.9,113.4 Z M 244.5,73.2 L 167.9,113.4 L 240.4,62.6 Z" fill="#2a2a4e" stroke="none"/>
  <path d="M 127.7,380.0 L 171.5,380.0 M 78.7,328.4 L 89.7,328.4 M 89.7,328.4 L 95.1,319.0 M 73.2,319.0 L 78.7,328.4 M 95.1,319.0 L 89.7,309.5 M 89.7,309.5 L 78.7,309.5 M 78.7,309.5 L 73.2,319.0 M 210.2,328.4 L 221.1,328.4 M 221.1,328.4 L 226.6,319.0 M 204.7,319.0 L 210.2,328.4 M 226.6,319.0 L 221.1,309.5 M 221.1,309.5 L 210.2,309.5 M 210.2,309.5 L 204.7,319.0 M 87.0,279.8 L 116.1,279.8 M 20.0,212.8 L 87.0,279.8 M 20.0,87.0 L 20.0,212.8 M 87.0,20.0 L 20.0,87.0 M 212.8,20.0 L 87.0,20.0 M 279.8,212.8 L 279.8,87.0 M 212.8,279.8 L 279.8,212.8 M 182.8,280.0 L 212.8,279.8 M 182.8,380.0 L 182.8,280.0 M 171.5,380.0 L 182.8,380.0 M 117.0,380.0 L 127.7,380.0 M 116.1,279.8 L 117.0,380.0 M 279.8,87.0 L 212.8,20.0 M 244.5,73.2 L 174.2,122.4 M 174.2,122.4 L 167.9,113.4 M 167.9,113.4 L 240.4,62.6 M 240.4,62.6 L 244.5,73.2" fill="none" stroke="white" stroke-width="2" stroke-linecap="round"/>
  <polygon points="152.19604924599776,259.6354038452507 160.19604924599776,267.6354038452507 152.19604924599776,275.6354038452507 144.19604924599776,267.6354038452507" fill="#4a9eff" stroke="white" stroke-width="1"/>
</svg>