<svg xmlns="http://www.w3.org/2000/svg" viewBox="0 0 400 400">
  <rect width="400" height="400" fill="#1a1a2e"/>
  <path d="M 233.3,243.0 L 269.4,240.2 L 269.5,217.2 Z M 233.3,243.0 L 269.5,217.2 L 211.3,211.7 Z M 211.3,211.7 L 269.5,217.2 L 286.5,204.0 Z M 211.3,211.7 L 286.5,204.0 L 224.6,171.6 Z M 224.6,171.6 L 286.5,204.0 L 300.0,177.7 Z M 224.6,171.6 L 300.0,177.7 L 221.2,133.1 Z M 221.2,133.1 L 300.0,177.7 L 333.5,169.7 Z M 221.2,133.1 L 333.5,169.7 L 332.7,144.7 Z M 235.7,95.9 L 332.7,144.7 L 332.7,130.3 Z M 235.7,95.9 L 332.7,130.3 L 232.4,67.6 Z M 232.4,67.6 L 332.7,130.3 L 332.8,114.7 Z M 232.4,67.6 L 332.8,114.7 L 245.7,65.6 Z M 245.7,65.6 L 332.8,114.7 L 319.0,88.9 Z M 245.7,65.6 L 319.0,88.9 L 295.8,66.5 Z M 235.7,95.9 L 221.2,133.1 L 332.7,144.7 Z M 23.1,164.3 L 45.1,164.7 L 46.2,106.5 Z M 23.1,164.3 L 46.2,106.5 L 20.0,112.6 Z M 20.0,112.6 L 46.2,106.5 L 68.8,65.2 Z M 341.6,115.9 L 332.7,130.3 L 380.0,115.9 Z M 332.7,130.3 L 380.0,144.7 L 380.0,115.9 Z M 221.2,133.1 L 213.3,134.3 L 214.8,171.6 Z M 221.2,133.1 L 214.8,171.6 L 224.6,171.6 Z M 213.3,134.3 L 221.2,133.1 L 197.2,97.2 Z M 213.3,134.3 L 197.2,97.2 L 188.7,97.4 Z M 197.1,65.9 L 188.7,97.4 L 197.2,97.2 Z M 197.1,65.9 L 197.2,97.2 L 202.5,72.2 Z M 197.1,65.9 L 202.5,72.2 L 232.4,67.6 Z M 197.1,65.9 L 232.4,67.6 L 231.3,58.4 Z M 319.0,88.9 L 332.8,114.7 L 341.6,115.9 Z M 319.0,88.9 L 341.6,115.9 L 325.7,81.4 Z M 325.7,81.4 L 298.5,58.4 L 295.8,66.5 Z M 325.7,81.4 L 295.8,66.5 L 319.0,88.9 Z M 260.1,58.4 L 245.7,65.6 L 295.8,66.5 Z M 260.1,58.4 L 295.8,66.5 L 298.5,58.4 Z M 260.1,20.0 L 231.3,20.0 L 231.3,58.4 Z M 260.1,20.0 L 231.3,58.4 L 260.1,58.4 Z M 203.1,217.1 L 211.3,211.7 L 224.6,171.6 Z M 203.1,217.1 L 224.6,171.6 L 214.8,171.6 Z M 233.3,243.0 L 229.3,250.2 L 269.7,250.2 Z M 233.3,243.0 L 269.7,250.2 L 269.4,240.2 Z M 203.1,217.1 L 229.3,250.2 L 233.3,243.0 Z M 203.1,217.1 L 233.3,243.0 L 211.3,211.7 Z M 342.9,170.7 L 333.5,169.7 L 315.4,241.3 Z M 342.9,170.7 L 315.4,241.3 L 321.3,250.2 Z M 321.3,250.2 L 315.4,241.3 L 269.4,240.2 Z M 321.3,250.2 L 269.4,240.2 L 269.7,250.2 Z M 333.5,169.7 L 342.9,170.7 L 341.6,144.7 Z M 333.5,169.7 L 341.6,144.7 L 332.7,144.7 Z M 260.1,58.4 L 231.3,58.4 L 245.7,65.6 Z M 341.6,115.9 L 332.8,114.7 L 332.7,130.3 Z M 332.7,130.3 L 332.7,144.7 L 341.6,144.7 Z M 332.7,130.3 L 341.6,144.7 L 380.0,144.7 Z M 232.4,67.6 L 245.7,65.6 L 231.3,58.4 Z" fill="#2a2a4e" stroke="none"/>
  <path d="M 269.4,240.2 L 269.5,217.2 M 269.5,217.2 L 286.5,204.0 M 286.5,204.0 L 300.0,177.7 M 300.0,177.7 L 333.5,169.7 M 232.4,67.6 L 235.7,95.9 M 235.7,95.9 L 221.2,133.1 M 23.1,164.3 L 45.1,164.7 M 45.1,164.7 L 46.2,106.5 M 20.0,112.6 L 23.1,164.3 M 46.2,106.5 L 68.8,65.2 M 68.8,65.2 L 20.0,112.6 M 380.0,115.9 L 341.6,115.9 M 380.0,144.7 L 380.0,115.9 M 213.3,134.3 L 214.8,171.6 M 221.2,133.1 L 197.2,97.2 M 188.7,97.4 L 213.3,134.3 M 197.1,65.9 L 188.7,97.4 M 197.2,97.2 L 202.5,72.2 M 202.5,72.2 L 232.4,67.6 M 231.3,58.4 L 197.1,65.9 M 341.6,115.9 L 325.7,81.4 M 325.7,81.4 L 298.5,58.4 M 298.5,58.4 L 260.1,58.4 M 260.1,20.0 L 231.3,20.0 M 231.3,20.0 L 231.3,58.4 M 260.1,58.4 L 260.1,20.0 M 214.8,171.6 L 203.1,217.1 M 229.3,250.2 L 269.7,250.2 M 203.1,217.1 L 229.3,250.2 M 333.5,169.7 L 315.4,241.3 M 321.3,250.2 L 342.9,170.7 M 315.4,241.3 L 269.4,240.2 M 269.7,250.2 L 321.3,250.2 M 342.9,170.7 L 341.6,144.7 M 341.6,144.7 L 380.0,144.7" fill="none" stroke="white" stroke-width="2" stroke-linecap="round"/>
  <polygon points="349.9918138427371,122.35328156704225 357.9918138427371,130.35328156704225 349.9918138427371,138.35328156704225 341.9918138427371,130.35328156704225" fill="#4a9eff" stroke="white" stroke-width="1"/>
<polygon points="245.06835402723271,39.369600087944 253.06835402723271,47.369600087944 245.06835402723271,55.369600087944 237.06835402723271,47.369600087944" fill="#4a9eff" stroke="white" stroke-width="1"/>
</svg>