<svg xmlns="http://www.w3.org/2000/svg" viewBox="0 0 400 400">
  <rect width="400" height="400" fill="#1a1a2e"/>
  <path d="M 58.4,140.8 L 67.7,144.6 L 99.3,144.3 Z M 58.4,140.8 L 99.3,144.3 L 100.9,136.5 Z M 100.9,136.5 L 99.3,144.3 L 138.9,159.5 Z M 100.9,136.5 L 138.9,159.5 L 220.6,127.3 Z M 31.4,108.8 L 31.6,129.9 L 108.1,100.8 Z M 31.6,129.9 L 58.4,140.8 L 108.1,100.8 Z M 108.1,100.8 L 58.4,140.8 L 100.9,136.5 Z M 108.1,100.8 L 110.3,90.0 L 31.2,89.3 Z M 108.1,100.8 L 31.2,89.3 L 31.4,108.8 Z M 308.1,242.0 L 256.5,328.2 L 251.1,367.1 Z M 308.1,242.0 L 251.1,367.1 L 308.6,366.2 Z M 309.1,92.4 L 206.5,227.1 L 240.2,269.2 Z M 309.1,92.4 L 240.2,269.2 L 308.1,242.0 Z M 162.3,198.0 L 181.3,212.7 L 309.1,92.4 Z M 162.3,198.0 L 309.1,92.4 L 220.6,127.3 Z M 309.1,92.4 L 108.1,100.8 L 100.9,136.5 Z M 309.1,92.4 L 100.9,136.5 L 220.6,127.3 Z M 29.5,332.5 L 29.6,370.7 L 172.2,349.0 Z M 29.5,332.5 L 172.2,349.0 L 151.6,310.0 Z M 112.3,258.6 L 56.9,231.4 L 29.8,237.6 Z M 112.3,258.6 L 29.8,237.6 L 29.6,295.9 Z M 151.6,310.0 L 128.0,276.0 L 29.6,295.9 Z M 151.6,310.0 L 29.6,295.9 L 29.5,332.5 Z M 256.5,328.2 L 308.1,242.0 L 240.2,269.2 Z M 128.0,276.0 L 112.3,258.6 L 29.6,295.9 Z M 309.1,92.4 L 110.3,90.0 L 108.1,100.8 Z M 29.6,370.7 L 173.8,367.9 L 172.2,349.0 Z M 220.6,127.3 L 138.9,159.5 L 162.3,198.0 Z M 181.3,212.7 L 206.5,227.1 L 309.1,92.4 Z M 118.2,252.5 L 154.0,289.1 L 172.3,260.6 Z M 118.2,252.5 L 172.3,260.6 L 141.8,232.5 Z M 141.8,232.5 L 172.3,260.6 L 197.2,234.8 Z M 141.8,232.5 L 197.2,234.8 L 157.3,204.0 Z M 134.0,20.0 L 89.0,20.0 L 89.0,80.1 Z M 134.0,20.0 L 89.0,80.1 L 110.3,90.0 Z M 379.4,265.6 L 379.4,220.6 L 319.9,220.6 Z M 379.4,265.6 L 319.9,220.6 L 308.1,242.0 Z M 134.0,80.1 L 110.3,90.0 L 309.1,92.4 Z M 134.0,80.1 L 309.1,92.4 L 320.2,80.1 Z M 231.8,280.3 L 240.2,269.2 L 206.5,227.1 Z M 231.8,280.3 L 206.5,227.1 L 197.2,234.8 Z M 172.2,349.0 L 173.8,367.9 L 187.5,380.0 Z M 172.2,349.0 L 187.5,380.0 L 183.5,345.3 Z M 240.2,269.2 L 231.8,280.3 L 246.9,329.7 Z M 240.2,269.2 L 246.9,329.7 L 256.5,328.2 Z M 320.2,379.7 L 319.9,265.6 L 308.1,242.0 Z M 320.2,379.7 L 308.1,242.0 L 308.6,366.2 Z M 246.9,329.7 L 238.4,380.0 L 251.1,367.1 Z M 246.9,329.7 L 251.1,367.1 L 256.5,328.2 Z M 238.4,380.0 L 320.2,379.7 L 308.6,366.2 Z M 238.4,380.0 L 308.6,366.2 L 251.1,367.1 Z M 320.2,80.1 L 309.1,92.4 L 308.1,242.0 Z M 320.2,80.1 L 308.1,242.0 L 319.9,220.6 Z M 20.4,80.1 L 20.5,110.0 L 31.4,108.8 Z M 20.4,80.1 L 31.4,108.8 L 31.2,89.3 Z M 99.3,144.3 L 67.7,144.6 L 67.8,154.1 Z M 99.3,144.3 L 67.8,154.1 L 97.6,152.7 Z M 58.4,140.8 L 31.6,129.9 L 20.4,135.5 Z M 58.4,140.8 L 20.4,135.5 L 39.0,142.8 Z M 31.2,89.3 L 110.3,90.0 L 89.0,80.1 Z M 31.2,89.3 L 89.0,80.1 L 20.4,80.1 Z M 133.4,167.3 L 138.9,159.5 L 99.3,144.3 Z M 133.4,167.3 L 99.3,144.3 L 97.6,152.7 Z M 29.6,370.7 L 20.4,380.0 L 187.5,380.0 Z M 29.6,370.7 L 187.5,380.0 L 173.8,367.9 Z M 56.9,231.4 L 59.3,220.8 L 20.0,221.3 Z M 56.9,231.4 L 20.0,221.3 L 29.8,237.6 Z M 20.3,335.1 L 20.4,380.0 L 29.6,370.7 Z M 20.3,335.1 L 29.6,370.7 L 29.5,332.5 Z M 29.5,332.5 L 29.6,295.9 L 20.2,298.2 Z M 29.5,332.5 L 20.2,298.2 L 20.3,335.1 Z M 20.0,240.1 L 20.2,298.2 L 29.6,295.9 Z M 20.0,240.1 L 29.6,295.9 L 29.8,237.6 Z M 31.4,108.8 L 20.5,110.0 L 20.4,135.5 Z M 31.4,108.8 L 20.4,135.5 L 31.6,129.9 Z M 72.5,227.9 L 56.9,231.4 L 112.3,258.6 Z M 72.5,227.9 L 112.3,258.6 L 118.2,252.5 Z M 172.2,349.0 L 183.5,345.3 L 154.0,289.1 Z M 172.2,349.0 L 154.0,289.1 L 151.6,310.0 Z M 39.0,142.8 L 67.8,154.1 L 67.7,144.6 Z M 39.0,142.8 L 67.7,144.6 L 58.4,140.8 Z M 138.9,159.5 L 133.4,167.3 L 157.3,204.0 Z M 138.9,159.5 L 157.3,204.0 L 162.3,198.0 Z M 110.3,90.0 L 134.0,80.1 L 134.0,20.0 Z M 308.1,242.0 L 319.9,265.6 L 379.4,265.6 Z M 56.9,231.4 L 72.5,227.9 L 59.3,220.8 Z M 197.2,234.8 L 181.3,212.7 L 157.3,204.0 Z M 29.8,237.6 L 20.0,221.3 L 20.0,240.1 Z M 128.0,276.0 L 154.0,289.1 L 118.2,252.5 Z M 112.3,258.6 L 128.0,276.0 L 118.2,252.5 Z M 154.0,289.1 L 128.0,276.0 L 151.6,310.0 Z M 181.3,212.7 L 162.3,198.0 L 157.3,204.0 Z M 206.5,227.1 L 181.3,212.7 L 197.2,234.8 Z" fill="#2a2a4e" stroke="none"/>
  <path d="M 154.0,289.1 L 172.3,260.6 M 141.8,232.5 L 118.2,252.5 M 172.3,260.6 L 197.2,234.8 M 157.3,204.0 L 141.8,232.5 M 134.0,20.0 L 89.0,20.0 M 89.0,20.0 L 89.0,80.1 M 379.4,265.6 L 379.4,220.6 M 379.4,220.6 L 319.9,220.6 M 320.2,80.1 L 134.0,80.1 M 197.2,234.8 L 231.8,280.3 M 187.5,380.0 L 183.5,345.3 M 231.8,280.3 L 246.9,329.7 M 320.2,379.7 L 319.9,265.6 M 246.9,329.7 L 238.4,380.0 M 238.4,380.0 L 320.2,379.7 M 319.9,220.6 L 320.2,80.1 M 20.4,80.1 L 20.5,110.0 M 67.8,154.1 L 97.6,152.7 M 20.4,135.5 L 39.0,142.8 M 89.0,80.1 L 20.4,80.1 M 97.6,152.7 L 133.4,167.3 M 20.4,380.0 L 187.5,380.0 M 59.3,220.8 L 20.0,221.3 M 20.3,335.1 L 20.4,380.0 M 20.2,298.2 L 20.3,335.1 M 20.0,240.1 L 20.2,298.2 M 20.5,110.0 L 20.4,135.5 M 118.2,252.5 L 72.5,227.9 M 183.5,345.3 L 154.0,289.1 M 39.0,142.8 L 67.8,154.1 M 133.4,167.3 L 157.3,204.0 M 134.0,80.1 L 134.0,20.0 M 319.9,265.6 L 379.4,265.6 M 72.5,227.9 L 59.3,220.8 M 20.0,221.3 L 20.0,240.1" fill="none" stroke="white" stroke-width="2" stroke-linecap="round"/>
  <polygon points="114.4351620076639,58.01289741215918 122.4351620076639,66.01289741215918 114.4351620076639,74.01289741215918 106.4351620076639,66.01289741215918" fill="#4a9eff" stroke="white" stroke-width="1"/>
<polygon points="334.1212854701131,232.89954354960267 342.1212854701131,240.89954354960267 334.1212854701131,248.89954354960267 326.1212854701131,240.89954354960267" fill="#4a9eff" stroke="white" stroke-width="1"/>
</svg>