<svg xmlns="http://www.w3.org/2000/svg" viewBox="0 0 400 400">
  <rect width="400" height="400" fill="#1a1a2e"/>
  <path d="M 50.9,98.4 L 33.5,126.1 L 43.9,155.6 Z M 50.9,98.4 L 43.9,155.6 L 117.3,79.8 Z M 117.3,79.8 L 43.9,155.6 L 68.4,180.1 Z M 117.3,79.8 L 68.4,180.1 L 104.5,199.6 Z M 112.6,317.1 L 151.3,322.9 L 184.7,303.5 Z M 112.6,317.1 L 184.7,303.5 L 96.1,294.7 Z M 96.1,294.7 L 184.7,303.5 L 187.1,274.0 Z M 96.1,294.7 L 187.1,274.0 L 111.2,265.7 Z M 111.2,265.7 L 187.1,274.0 L 157.1,239.5 Z M 111.2,265.7 L 157.1,239.5 L 116.3,236.1 Z M 116.3,236.1 L 157.1,239.5 L 161.4,191.5 Z M 116.3,236.1 L 161.4,191.5 L 104.5,199.6 Z M 104.5,199.6 L 161.4,191.5 L 206.5,143.8 Z M 104.5,199.6 L 206.5,143.8 L 117.3,79.8 Z M 117.3,79.8 L 206.5,143.8 L 194.0,109.3 Z M 117.3,79.8 L 194.0,109.3 L 167.6,80.4 Z M 172.2,69.7 L 167.6,80.4 L 194.0,109.3 Z M 172.2,69.7 L 194.0,109.3 L 202.6,101.4 Z M 202.6,101.4 L 194.0,109.3 L 206.5,143.8 Z M 202.6,101.4 L 206.5,143.8 L 219.0,142.3 Z M 169.5,328.6 L 151.3,322.9 L 169.5,380.0 Z M 151.3,322.9 L 130.9,380.0 L 169.5,380.0 Z M 98.8,71.4 L 117.3,79.8 L 98.8,20.0 Z M 117.3,79.8 L 137.4,20.0 L 98.8,20.0 Z M 157.1,239.5 L 168.7,236.9 L 174.5,191.5 Z M 157.1,239.5 L 174.5,191.5 L 161.4,191.5 Z M 168.7,236.9 L 157.1,239.5 L 187.1,274.0 Z M 168.7,236.9 L 187.1,274.0 L 198.7,271.0 Z M 200.7,311.7 L 198.7,271.0 L 187.1,274.0 Z M 200.7,311.7 L 187.1,274.0 L 184.7,303.5 Z M 200.7,311.7 L 184.7,303.5 L 151.3,322.9 Z M 200.7,311.7 L 151.3,322.9 L 169.5,328.6 Z M 98.8,264.0 L 111.2,265.7 L 116.3,236.1 Z M 98.8,264.0 L 116.3,236.1 L 104.1,235.4 Z M 81.3,297.1 L 104.1,328.6 L 112.6,317.1 Z M 81.3,297.1 L 112.6,317.1 L 96.1,294.7 Z M 130.9,328.6 L 151.3,322.9 L 112.6,317.1 Z M 130.9,328.6 L 112.6,317.1 L 104.1,328.6 Z M 219.0,142.3 L 206.5,143.8 L 161.4,191.5 Z M 219.0,142.3 L 161.4,191.5 L 174.5,191.5 Z M 167.6,80.4 L 172.2,69.7 L 137.4,71.4 Z M 167.6,80.4 L 137.4,71.4 L 117.3,79.8 Z M 20.0,115.6 L 33.5,126.1 L 50.9,98.4 Z M 20.0,115.6 L 50.9,98.4 L 43.0,88.8 Z M 43.0,88.8 L 50.9,98.4 L 117.3,79.8 Z M 43.0,88.8 L 117.3,79.8 L 98.8,71.4 Z M 104.1,235.4 L 116.3,236.1 L 104.5,199.6 Z M 104.1,235.4 L 104.5,199.6 L 90.4,202.4 Z M 33.5,126.1 L 20.0,115.6 L 30.6,160.5 Z M 33.5,126.1 L 30.6,160.5 L 43.9,155.6 Z M 58.8,186.2 L 90.4,202.4 L 104.5,199.6 Z M 58.8,186.2 L 104.5,199.6 L 68.4,180.1 Z M 30.6,160.5 L 58.8,186.2 L 68.4,180.1 Z M 30.6,160.5 L 68.4,180.1 L 43.9,155.6 Z M 81.3,297.1 L 96.1,294.7 L 111.2,265.7 Z M 81.3,297.1 L 111.2,265.7 L 98.8,264.0 Z M 117.3,79.8 L 137.4,71.4 L 137.4,20.0 Z M 151.3,322.9 L 130.9,328.6 L 130.9,380.0 Z" fill="#2a2a4e" stroke="none"/>
  <path d="M 202.6,101.4 L 172.2,69.7 M 219.0,142.3 L 202.6,101.4 M 169.5,380.0 L 169.5,328.6 M 130.9,380.0 L 169.5,380.0 M 98.8,20.0 L 98.8,71.4 M 137.4,20.0 L 98.8,20.0 M 168.7,236.9 L 174.5,191.5 M 198.7,271.0 L 168.7,236.9 M 200.7,311.7 L 198.7,271.0 M 169.5,328.6 L 200.7,311.7 M 104.1,235.4 L 98.8,264.0 M 81.3,297.1 L 104.1,328.6 M 104.1,328.6 L 130.9,328.6 M 174.5,191.5 L 219.0,142.3 M 172.2,69.7 L 137.4,71.4 M 43.0,88.8 L 20.0,115.6 M 98.8,71.4 L 43.0,88.8 M 90.4,202.4 L 104.1,235.4 M 20.0,115.6 L 30.6,160.5 M 58.8,186.2 L 90.4,202.4 M 30.6,160.5 L 58.8,186.2 M 98.8,264.0 L 81.3,297.1 M 137.4,71.4 L 137.4,20.0 M 130.9,328.6 L 130.9,380.0" fill="none" stroke="white" stroke-width="2" stroke-linecap="round"/>
  <polygon points="149.2285011039731,323.45437524652027 157.2285011039731,331.45437524652027 149.2285011039731,339.45437524652027 141.2285011039731,331.45437524652027" fill="#4a9eff" stroke="white" stroke-width="1"/>
<polygon points="117.84136277826603,64.15344722445455 125.84136277826603,72.15344722445455 117.84136277826603,80.15344722445455 109.84136277826603,72.15344722445455" fill="#4a9eff" stroke="white" stroke-width="1"/>
</svg>