<svg xmlns="http://www.w3.org/2000/svg" viewBox="0 0 400 400">
  <rect width="400" height="400" fill="#1a1a2e"/>
  <path d="M 191.3,169.8 L 223.5,181.8 L 246.8,157.7 Z M 191.3,169.8 L 246.8,157.7 L 192.0,140.0 Z M 192.0,140.0 L 246.8,157.7 L 242.7,142.4 Z M 192.0,140.0 L 242.7,142.4 L 222.5,127.1 Z M 174.9,89.0 L 157.5,101.7 L 165.0,125.3 Z M 174.9,89.0 L 165.0,125.3 L 203.3,106.4 Z M 203.3,106.4 L 165.0,125.3 L 185.6,136.1 Z M 203.3,106.4 L 185.6,136.1 L 197.8,128.8 Z M 202.9,211.9 L 201.8,197.3 L 184.2,175.8 Z M 202.9,211.9 L 184.2,175.8 L 163.6,211.2 Z M 163.6,211.2 L 184.2,175.8 L 169.8,162.7 Z M 163.6,211.2 L 169.8,162.7 L 147.1,197.1 Z M 146.0,118.9 L 151.2,151.1 L 169.8,162.7 Z M 151.2,151.1 L 151.0,165.8 L 169.8,162.7 Z M 169.8,162.7 L 151.0,165.8 L 147.1,197.1 Z M 236.8,206.7 L 243.2,182.6 L 201.8,197.3 Z M 236.8,206.7 L 201.8,197.3 L 202.9,211.9 Z M 256.2,142.3 L 263.9,142.3 L 237.9,112.2 Z M 256.2,142.3 L 237.9,112.2 L 231.6,116.2 Z M 212.9,74.5 L 209.8,82.4 L 231.6,116.2 Z M 212.9,74.5 L 231.6,116.2 L 237.9,112.2 Z M 258.7,164.9 L 263.9,142.3 L 256.2,142.3 Z M 212.9,74.5 L 184.3,74.9 L 209.8,82.4 Z M 223.5,181.8 L 243.2,182.6 L 258.7,164.9 Z M 223.5,181.8 L 258.7,164.9 L 246.8,157.7 Z M 246.8,157.7 L 258.7,164.9 L 256.2,142.3 Z M 246.8,157.7 L 256.2,142.3 L 242.7,142.4 Z M 242.7,142.4 L 256.2,142.3 L 231.6,116.2 Z M 242.7,142.4 L 231.6,116.2 L 222.5,127.1 Z M 222.5,127.1 L 231.6,116.2 L 209.8,82.4 Z M 222.5,127.1 L 209.8,82.4 L 203.3,106.4 Z M 203.3,106.4 L 209.8,82.4 L 184.3,74.9 Z M 203.3,106.4 L 184.3,74.9 L 174.9,89.0 Z M 169.8,162.7 L 185.6,136.1 L 165.0,125.3 Z M 169.8,162.7 L 165.0,125.3 L 146.0,118.9 Z M 146.0,118.9 L 165.0,125.3 L 157.5,101.7 Z M 146.0,118.9 L 157.5,101.7 L 137.4,99.4 Z M 192.0,140.0 L 185.6,136.1 L 169.8,162.7 Z M 192.0,140.0 L 169.8,162.7 L 191.3,169.8 Z M 184.2,175.8 L 201.8,197.3 L 223.5,181.8 Z M 184.2,175.8 L 223.5,181.8 L 191.3,169.8 Z M 157.5,101.7 L 174.9,89.0 L 184.3,74.9 Z M 157.5,101.7 L 184.3,74.9 L 145.5,86.4 Z M 222.5,127.1 L 197.8,128.8 L 185.6,136.1 Z M 222.5,127.1 L 185.6,136.1 L 192.0,140.0 Z M 243.2,182.6 L 223.5,181.8 L 201.8,197.3 Z M 222.5,127.1 L 203.3,106.4 L 197.8,128.8 Z M 137.4,99.4 L 157.5,101.7 L 145.5,86.4 Z M 169.8,162.7 L 184.2,175.8 L 191.3,169.8 Z M 113.3,283.3 L 116.7,242.2 L 72.1,223.8 Z M 113.3,283.3 L 72.1,223.8 L 45.0,240.9 Z M 45.0,240.9 L 72.1,223.8 L 46.6,173.6 Z M 45.0,240.9 L 46.6,173.6 L 20.0,179.1 Z M 20.0,179.1 L 46.6,173.6 L 51.7,140.1 Z M 20.0,179.1 L 51.7,140.1 L 20.7,134.1 Z M 20.7,134.1 L 51.7,140.1 L 65.2,106.7 Z M 20.7,134.1 L 65.2,106.7 L 35.1,91.9 Z M 35.1,91.9 L 65.2,106.7 L 103.8,47.9 Z M 35.1,91.9 L 103.8,47.9 L 80.5,20.0 Z M 127.1,98.4 L 140.2,77.2 L 94.6,89.3 Z M 377.5,134.4 L 360.3,134.1 L 359.4,179.8 Z M 377.5,134.4 L 359.4,179.8 L 380.0,175.0 Z M 380.0,175.0 L 359.4,179.8 L 341.7,212.2 Z M 377.5,134.4 L 349.9,99.3 L 360.3,134.1 Z M 214.2,217.6 L 202.9,211.9 L 214.2,247.7 Z M 202.9,211.9 L 191.6,247.7 L 214.2,247.7 Z M 172.8,67.0 L 184.3,74.9 L 172.8,36.9 Z M 184.3,74.9 L 195.4,36.9 L 172.8,36.9 Z M 271.6,142.3 L 263.9,142.3 L 258.7,164.9 Z M 271.6,142.3 L 258.7,164.9 L 265.8,167.7 Z M 243.2,182.6 L 247.6,187.0 L 265.8,167.7 Z M 243.2,182.6 L 265.8,167.7 L 258.7,164.9 Z M 243.2,182.6 L 236.8,206.7 L 241.1,211.6 Z M 243.2,182.6 L 241.1,211.6 L 247.6,187.0 Z M 202.9,211.9 L 214.2,217.6 L 241.1,211.6 Z M 202.9,211.9 L 241.1,211.6 L 236.8,206.7 Z M 143.5,166.5 L 139.7,199.9 L 147.1,197.1 Z M 143.5,166.5 L 147.1,197.1 L 151.0,165.8 Z M 163.6,211.2 L 147.1,197.1 L 139.7,199.9 Z M 163.6,211.2 L 139.7,199.9 L 161.5,217.6 Z M 163.6,211.2 L 161.5,217.6 L 191.6,217.6 Z M 163.6,211.2 L 191.6,217.6 L 202.9,211.9 Z M 263.9,142.3 L 271.6,142.3 L 243.2,108.6 Z M 263.9,142.3 L 243.2,108.6 L 237.9,112.2 Z M 195.4,67.0 L 184.3,74.9 L 212.9,74.5 Z M 195.4,67.0 L 212.9,74.5 L 215.7,66.1 Z M 212.9,74.5 L 237.9,112.2 L 243.2,108.6 Z M 212.9,74.5 L 243.2,108.6 L 215.7,66.1 Z M 145.5,86.4 L 140.2,77.2 L 127.1,98.4 Z M 145.5,86.4 L 127.1,98.4 L 137.4,99.4 Z M 184.3,74.9 L 172.8,67.0 L 140.2,77.2 Z M 184.3,74.9 L 140.2,77.2 L 145.5,86.4 Z M 151.2,151.1 L 143.6,150.2 L 143.5,166.5 Z M 151.2,151.1 L 143.5,166.5 L 151.0,165.8 Z M 138.4,119.2 L 146.0,118.9 L 137.4,99.4 Z M 138.4,119.2 L 137.4,99.4 L 127.1,98.4 Z M 146.0,118.9 L 138.4,119.2 L 143.6,150.2 Z M 146.0,118.9 L 143.6,150.2 L 151.2,151.1 Z M 184.3,74.9 L 195.4,67.0 L 195.4,36.9 Z M 202.9,211.9 L 191.6,217.6 L 191.6,247.7 Z" fill="#2a2a4e" stroke="none"/>
  <path d="M 113.3,283.3 L 116.7,242.2 M 116.7,242.2 L 72.1,223.8 M 45.0,240.9 L 113.3,283.3 M 72.1,223.8 L 46.6,173.6 M 20.0,179.1 L 45.0,240.9 M 46.6,173.6 L 51.7,140.1 M 20.7,134.1 L 20.0,179.1 M 51.7,140.1 L 65.2,106.7 M 35.1,91.9 L 20.7,134.1 M 65.2,106.7 L 103.8,47.9 M 103.8,47.9 L 80.5,20.0 M 80.5,20.0 L 35.1,91.9 M 140.2,77.2 L 94.6,89.3 M 94.6,89.3 L 127.1,98.4 M 360.3,134.1 L 359.4,179.8 M 380.0,175.0 L 377.5,134.4 M 359.4,179.8 L 341.7,212.2 M 341.7,212.2 L 380.0,175.0 M 377.5,134.4 L 349.9,99.3 M 349.9,99.3 L 360.3,134.1 M 214.2,247.7 L 214.2,217.6 M 191.6,247.7 L 214.2,247.7 M 172.8,36.9 L 172.8,67.0 M 195.4,36.9 L 172.8,36.9 M 265.8,167.7 L 271.6,142.3 M 247.6,187.0 L 265.8,167.7 M 241.1,211.6 L 247.6,187.0 M 214.2,217.6 L 241.1,211.6 M 143.5,166.5 L 139.7,199.9 M 139.7,199.9 L 161.5,217.6 M 161.5,217.6 L 191.6,217.6 M 271.6,142.3 L 243.2,108.6 M 215.7,66.1 L 195.4,67.0 M 243.2,108.6 L 215.7,66.1 M 172.8,67.0 L 140.2,77.2 M 143.6,150.2 L 143.5,166.5 M 127.1,98.4 L 138.4,119.2 M 138.4,119.2 L 143.6,150.2 M 195.4,67.0 L 195.4,36.9 M 191.6,217.6 L 191.6,247.7" fill="none" stroke="white" stroke-width="2" stroke-linecap="round"/>
  <polygon points="202.9912569570761,213.18330163876533 210.9912569570761,221.18330163876533 202.9912569570761,229.18330163876533 194.9912569570761,221.18330163876533" fill="#4a9eff" stroke="white" stroke-width="1"/>
<polygon points="183.68370485197596,56.27428095835222 191.68370485197596,64.27428095835222 183.68370485197596,72.27428095835222 175.68370485197596,64.27428095835222" fill="#4a9eff" stroke="white" stroke-width="1"/>
</svg>