<svg xmlns="http://www.w3.org/2000/svg" viewBox="0 0 400 400">
  <rect width="400" height="400" fill="#1a1a2e"/>
  <path d="M 154.0,311.9 L 155.2,269.3 L 86.4,281.4 Z M 154.0,311.9 L 86.4,281.4 L 92.8,310.4 Z M 194.4,253.5 L 116.8,226.7 L 105.7,252.5 Z M 194.4,253.5 L 105.7,252.5 L 155.2,269.3 Z M 204.6,219.5 L 173.9,189.7 L 136.7,210.3 Z M 204.6,219.5 L 136.7,210.3 L 194.4,253.5 Z M 136.7,210.3 L 116.8,226.7 L 194.4,253.5 Z M 155.2,269.3 L 105.7,252.5 L 86.4,281.4 Z M 204.6,219.5 L 205.6,194.3 L 183.0,174.6 Z M 204.6,219.5 L 183.0,174.6 L 173.9,189.7 Z M 173.9,189.7 L 183.0,174.6 L 154.3,177.8 Z M 173.9,189.7 L 154.3,177.8 L 136.7,210.3 Z M 136.7,210.3 L 154.3,177.8 L 101.8,207.1 Z M 136.7,210.3 L 101.8,207.1 L 116.8,226.7 Z M 116.8,226.7 L 101.8,207.1 L 77.0,239.0 Z M 116.8,226.7 L 77.0,239.0 L 105.7,252.5 Z M 105.7,252.5 L 77.0,239.0 L 68.4,269.4 Z M 105.7,252.5 L 68.4,269.4 L 86.4,281.4 Z M 92.8,310.4 L 138.9,333.5 L 163.9,332.7 Z M 92.8,310.4 L 163.9,332.7 L 154.0,311.9 Z M 154.0,311.9 L 163.9,332.7 L 193.2,288.0 Z M 154.0,311.9 L 193.2,288.0 L 155.2,269.3 Z M 155.2,269.3 L 193.2,288.0 L 203.0,279.3 Z M 155.2,269.3 L 203.0,279.3 L 194.4,253.5 Z M 205.6,194.3 L 204.6,219.5 L 224.4,247.1 Z M 204.6,219.5 L 194.4,253.5 L 224.4,247.1 Z M 68.4,269.4 L 85.5,315.8 L 92.8,310.4 Z M 68.4,269.4 L 92.8,310.4 L 86.4,281.4 Z M 203.0,279.3 L 224.4,247.1 L 194.4,253.5 Z M 92.8,310.4 L 85.5,315.8 L 138.9,333.5 Z M 243.0,245.7 L 224.4,247.1 L 203.0,279.3 Z M 243.0,245.7 L 203.0,279.3 L 242.1,295.8 Z M 242.1,295.8 L 203.0,279.3 L 193.2,288.0 Z M 242.1,295.8 L 193.2,288.0 L 219.7,319.0 Z M 219.7,319.0 L 193.2,288.0 L 178.3,332.7 Z M 219.7,319.0 L 178.3,332.7 L 193.9,332.8 Z M 224.4,247.1 L 243.0,245.7 L 236.4,202.5 Z M 224.4,247.1 L 236.4,202.5 L 205.6,194.3 Z M 92.2,192.0 L 101.8,207.1 L 154.3,177.8 Z M 92.2,192.0 L 154.3,177.8 L 154.3,168.0 Z M 101.8,207.1 L 92.2,192.0 L 65.6,233.3 Z M 101.8,207.1 L 65.6,233.3 L 77.0,239.0 Z M 183.0,174.6 L 154.3,168.0 L 154.3,177.8 Z M 65.6,233.3 L 68.4,269.4 L 77.0,239.0 Z M 193.2,288.0 L 163.9,332.7 L 178.3,332.7 Z M 128.4,212.3 L 135.8,217.8 L 135.7,219.5 Z M 144.3,23.1 L 143.8,45.1 L 202.1,46.2 Z M 144.3,23.1 L 202.1,46.2 L 196.0,20.0 Z M 196.0,20.0 L 202.1,46.2 L 243.4,68.8 Z M 183.0,174.6 L 186.7,165.6 L 154.3,158.2 Z M 183.0,174.6 L 154.3,158.2 L 154.3,168.0 Z M 186.7,165.6 L 183.0,174.6 L 205.6,194.3 Z M 186.7,165.6 L 205.6,194.3 L 211.2,188.7 Z M 242.7,197.1 L 211.2,188.7 L 205.6,194.3 Z M 242.7,197.1 L 205.6,194.3 L 236.4,202.5 Z M 242.7,197.1 L 236.4,202.5 L 243.0,245.7 Z M 242.7,197.1 L 243.0,245.7 L 250.2,231.3 Z M 219.7,319.0 L 193.9,332.8 L 192.7,341.6 Z M 219.7,319.0 L 192.7,341.6 L 227.2,325.7 Z M 227.2,325.7 L 250.2,298.5 L 242.1,295.8 Z M 227.2,325.7 L 242.1,295.8 L 219.7,319.0 Z M 250.2,260.1 L 243.0,245.7 L 242.1,295.8 Z M 250.2,260.1 L 242.1,295.8 L 250.2,298.5 Z M 288.6,260.1 L 288.6,231.3 L 250.2,231.3 Z M 288.6,260.1 L 250.2,231.3 L 250.2,260.1 Z M 20.0,284.1 L 58.4,284.1 L 68.4,269.4 Z M 20.0,284.1 L 68.4,269.4 L 20.0,255.3 Z M 86.8,183.7 L 92.2,192.0 L 154.3,168.0 Z M 86.8,183.7 L 154.3,168.0 L 154.3,158.2 Z M 65.6,233.3 L 57.1,229.3 L 58.4,255.3 Z M 65.6,233.3 L 58.4,255.3 L 68.4,269.4 Z M 86.8,183.7 L 57.1,229.3 L 65.6,233.3 Z M 86.8,183.7 L 65.6,233.3 L 92.2,192.0 Z M 137.9,342.9 L 138.9,333.5 L 85.5,315.8 Z M 137.9,342.9 L 85.5,315.8 L 77.4,321.3 Z M 77.4,321.3 L 85.5,315.8 L 68.4,269.4 Z M 77.4,321.3 L 68.4,269.4 L 58.4,284.1 Z M 138.9,333.5 L 137.9,342.9 L 163.9,341.6 Z M 138.9,333.5 L 163.9,341.6 L 163.9,332.7 Z M 192.7,380.0 L 178.3,332.7 L 163.9,341.6 Z M 192.7,380.0 L 163.9,341.6 L 163.9,380.0 Z M 250.2,260.1 L 250.2,231.3 L 243.0,245.7 Z M 192.7,341.6 L 178.3,332.7 L 192.7,380.0 Z M 192.7,341.6 L 193.9,332.8 L 178.3,332.7 Z M 178.3,332.7 L 163.9,332.7 L 163.9,341.6 Z M 68.4,269.4 L 58.4,255.3 L 20.0,255.3 Z" fill="#2a2a4e" stroke="none"/>
  <path d="M 128.4,212.3 L 135.8,217.8 M 135.8,217.8 L 135.7,219.5 M 135.7,219.5 L 128.4,212.3 M 144.3,23.1 L 143.8,45.1 M 143.8,45.1 L 202.1,46.2 M 196.0,20.0 L 144.3,23.1 M 202.1,46.2 L 243.4,68.8 M 243.4,68.8 L 196.0,20.0 M 186.7,165.6 L 154.3,158.2 M 211.2,188.7 L 186.7,165.6 M 242.7,197.1 L 211.2,188.7 M 250.2,231.3 L 242.7,197.1 M 192.7,341.6 L 227.2,325.7 M 227.2,325.7 L 250.2,298.5 M 250.2,298.5 L 250.2,260.1 M 288.6,260.1 L 288.6,231.3 M 288.6,231.3 L 250.2,231.3 M 250.2,260.1 L 288.6,260.1 M 20.0,284.1 L 58.4,284.1 M 20.0,255.3 L 20.0,284.1 M 154.3,158.2 L 86.8,183.7 M 57.1,229.3 L 58.4,255.3 M 86.8,183.7 L 57.1,229.3 M 77.4,321.3 L 137.9,342.9 M 58.4,284.1 L 77.4,321.3 M 137.9,342.9 L 163.9,341.6 M 163.9,341.6 L 163.9,380.0 M 163.9,380.0 L 192.7,380.0 M 192.7,380.0 L 192.7,341.6 M 58.4,255.3 L 20.0,255.3" fill="none" stroke="white" stroke-width="2" stroke-linecap="round"/>
  <polygon points="178.41541993959453,338.5833588433831 186.41541993959453,346.5833588433831 178.41541993959453,354.5833588433831 170.41541993959453,346.5833588433831" fill="#4a9eff" stroke="white" stroke-width="1"/>
<polygon points="55.79920240356432,263.0636779398942 63.79920240356432,271.0636779398942 55.79920240356432,279.0636779398942 47.79920240356432,271.0636779398942" fill="#4a9eff" stroke="white" stroke-width="1"/>
<polygon points="255.66037263106654,237.5112195237969 263.66037263106654,245.5112195237969 255.66037263106654,253.5112195237969 247.66037263106654,245.5112195237969" fill="#4a9eff" stroke="white" stroke-width="1"/>
</svg>