<svg xmlns="http://www.w3.org/2000/svg" viewBox="0 0 400 400">
  <rect width="400" height="400" fill="#1a1a2e"/>
  <path d="M 259.5,58.5 L 255.8,67.7 L 256.1,99.4 Z M 259.5,58.5 L 256.1,99.4 L 263.9,101.0 Z M 263.9,101.0 L 256.1,99.4 L 240.9,139.1 Z M 263.9,101.0 L 240.9,139.1 L 273.1,221.0 Z M 273.1,221.0 L 240.9,139.1 L 202.3,162.5 Z M 273.1,221.0 L 202.3,162.5 L 171.4,202.5 Z M 291.6,31.4 L 270.5,31.6 L 299.7,108.3 Z M 270.5,31.6 L 259.5,58.5 L 299.7,108.3 Z M 299.7,108.3 L 259.5,58.5 L 263.9,101.0 Z M 311.2,31.2 L 291.6,31.4 L 299.7,108.3 Z M 311.2,31.2 L 299.7,108.3 L 310.4,110.5 Z M 33.0,251.5 L 31.1,309.0 L 158.2,308.6 Z M 33.0,251.5 L 158.2,308.6 L 71.9,256.9 Z M 124.7,241.9 L 158.2,308.6 L 308.1,309.6 Z M 124.7,241.9 L 308.1,309.6 L 171.4,202.5 Z M 263.9,101.0 L 273.1,221.0 L 308.1,309.6 Z M 263.9,101.0 L 308.1,309.6 L 299.7,108.3 Z M 51.0,172.4 L 90.1,154.3 L 67.5,29.6 Z M 51.0,172.4 L 67.5,29.6 L 32.0,29.5 Z M 162.6,29.8 L 104.2,29.6 L 141.6,112.4 Z M 162.6,29.8 L 141.6,112.4 L 168.8,57.0 Z M 104.2,29.6 L 67.5,29.6 L 90.1,154.3 Z M 104.2,29.6 L 90.1,154.3 L 124.2,128.1 Z M 71.9,256.9 L 158.2,308.6 L 124.7,241.9 Z M 124.2,128.1 L 141.6,112.4 L 104.2,29.6 Z M 308.1,309.6 L 310.4,110.5 L 299.7,108.3 Z M 171.4,202.5 L 308.1,309.6 L 273.1,221.0 Z M 32.0,29.5 L 31.8,174.5 L 51.0,172.4 Z M 308.1,309.6 L 320.3,320.7 L 320.4,111.6 Z M 308.1,309.6 L 320.4,111.6 L 310.4,110.5 Z M 310.4,110.5 L 320.4,111.6 L 320.4,20.4 Z M 310.4,110.5 L 320.4,20.4 L 311.2,31.2 Z M 171.4,202.5 L 202.3,162.5 L 196.3,157.5 Z M 171.4,202.5 L 196.3,157.5 L 165.5,197.5 Z M 165.5,197.5 L 196.3,157.5 L 167.8,142.0 Z M 165.5,197.5 L 167.8,142.0 L 139.6,172.5 Z M 139.6,172.5 L 167.8,142.0 L 147.7,118.4 Z M 139.6,172.5 L 147.7,118.4 L 108.6,158.1 Z M 264.8,20.4 L 270.5,31.6 L 290.4,20.5 Z M 270.5,31.6 L 291.6,31.4 L 290.4,20.5 Z M 134.6,380.0 L 179.7,380.0 L 179.7,320.3 Z M 134.6,380.0 L 179.7,320.3 L 158.2,308.6 Z M 119.8,232.1 L 124.7,241.9 L 171.4,202.5 Z M 119.8,232.1 L 171.4,202.5 L 165.5,197.5 Z M 20.0,187.8 L 54.8,183.8 L 51.0,172.4 Z M 20.0,187.8 L 51.0,172.4 L 31.8,174.5 Z M 70.4,247.3 L 71.9,256.9 L 124.7,241.9 Z M 70.4,247.3 L 124.7,241.9 L 119.8,232.1 Z M 158.2,308.6 L 31.1,309.0 L 20.3,320.7 Z M 158.2,308.6 L 20.3,320.7 L 134.6,320.4 Z M 33.0,251.5 L 71.9,256.9 L 70.4,247.3 Z M 33.0,251.5 L 70.4,247.3 L 20.0,238.8 Z M 31.1,309.0 L 33.0,251.5 L 20.0,238.8 Z M 31.1,309.0 L 20.0,238.8 L 20.3,320.7 Z M 158.2,308.6 L 179.7,320.3 L 320.3,320.7 Z M 158.2,308.6 L 320.3,320.7 L 308.1,309.6 Z M 291.6,31.4 L 311.2,31.2 L 320.4,20.4 Z M 291.6,31.4 L 320.4,20.4 L 290.4,20.5 Z M 246.3,67.9 L 247.7,97.7 L 256.1,99.4 Z M 246.3,67.9 L 256.1,99.4 L 255.8,67.7 Z M 264.8,20.4 L 257.6,39.1 L 259.5,58.5 Z M 264.8,20.4 L 259.5,58.5 L 270.5,31.6 Z M 256.1,99.4 L 247.7,97.7 L 233.1,133.5 Z M 256.1,99.4 L 233.1,133.5 L 240.9,139.1 Z M 20.0,187.8 L 31.8,174.5 L 32.0,29.5 Z M 20.0,187.8 L 32.0,29.5 L 20.0,20.4 Z M 178.9,20.0 L 162.6,29.8 L 168.8,57.0 Z M 178.9,20.0 L 168.8,57.0 L 179.4,59.3 Z M 240.9,139.1 L 233.1,133.5 L 196.3,157.5 Z M 240.9,139.1 L 196.3,157.5 L 202.3,162.5 Z M 32.0,29.5 L 67.5,29.6 L 65.0,20.3 Z M 32.0,29.5 L 65.0,20.3 L 20.0,20.4 Z M 101.9,20.2 L 65.0,20.3 L 67.5,29.6 Z M 101.9,20.2 L 67.5,29.6 L 104.2,29.6 Z M 104.2,29.6 L 162.6,29.8 L 160.1,20.0 Z M 104.2,29.6 L 160.1,20.0 L 101.9,20.2 Z M 141.6,112.4 L 147.7,118.4 L 172.3,72.6 Z M 141.6,112.4 L 172.3,72.6 L 168.8,57.0 Z M 255.8,67.7 L 259.5,58.5 L 257.6,39.1 Z M 255.8,67.7 L 257.6,39.1 L 246.3,67.9 Z M 51.0,172.4 L 54.8,183.8 L 108.6,158.1 Z M 51.0,172.4 L 108.6,158.1 L 90.1,154.3 Z M 158.2,308.6 L 134.6,320.4 L 134.6,380.0 Z M 168.8,57.0 L 172.3,72.6 L 179.4,59.3 Z M 162.6,29.8 L 178.9,20.0 L 160.1,20.0 Z M 124.2,128.1 L 108.6,158.1 L 147.7,118.4 Z M 124.2,128.1 L 90.1,154.3 L 108.6,158.1 Z M 141.6,112.4 L 124.2,128.1 L 147.7,118.4 Z" fill="#2a2a4e" stroke="none"/>
  <path d="M 320.3,320.7 L 320.4,111.6 M 320.4,111.6 L 320.4,20.4 M 196.3,157.5 L 167.8,142.0 M 139.6,172.5 L 165.5,197.5 M 167.8,142.0 L 147.7,118.4 M 108.6,158.1 L 139.6,172.5 M 290.4,20.5 L 264.8,20.4 M 134.6,380.0 L 179.7,380.0 M 179.7,380.0 L 179.7,320.3 M 165.5,197.5 L 119.8,232.1 M 20.0,187.8 L 54.8,183.8 M 119.8,232.1 L 70.4,247.3 M 20.3,320.7 L 134.6,320.4 M 70.4,247.3 L 20.0,238.8 M 20.0,238.8 L 20.3,320.7 M 179.7,320.3 L 320.3,320.7 M 320.4,20.4 L 290.4,20.5 M 246.3,67.9 L 247.7,97.7 M 264.8,20.4 L 257.6,39.1 M 247.7,97.7 L 233.1,133.5 M 20.0,20.4 L 20.0,187.8 M 179.4,59.3 L 178.9,20.0 M 233.1,133.5 L 196.3,157.5 M 65.0,20.3 L 20.0,20.4 M 101.9,20.2 L 65.0,20.3 M 160.1,20.0 L 101.9,20.2 M 147.7,118.4 L 172.3,72.6 M 257.6,39.1 L 246.3,67.9 M 54.8,183.8 L 108.6,158.1 M 134.6,320.4 L 134.6,380.0 M 172.3,72.6 L 179.4,59.3 M 178.9,20.0 L 160.1,20.0" fill="none" stroke="white" stroke-width="2" stroke-linecap="round"/>
  <polygon points="155.38825447267953,329.7975619097844 163.38825447267953,337.7975619097844 155.38825447267953,345.7975619097844 147.38825447267953,337.7975619097844" fill="#4a9eff" stroke="white" stroke-width="1"/>
</svg>