<svg xmlns="http://www.w3.org/2000/svg" viewBox="0 0 400 400">
  <rect width="400" height="400" fill="#1a1a2e"/>
  <path d="M 177.5,89.6 L 116.2,88.1 L 115.6,117.8 Z M 177.5,89.6 L 115.6,117.8 L 183.8,118.6 Z M 183.8,118.6 L 115.6,117.8 L 115.0,140.8 Z M 183.8,118.6 L 115.0,140.8 L 153.4,173.3 Z M 153.4,173.3 L 115.0,140.8 L 85.2,163.7 Z M 153.4,173.3 L 85.2,163.7 L 115.1,171.2 Z M 115.8,205.0 L 104.3,194.6 L 96.3,210.3 Z M 104.3,194.6 L 85.1,189.1 L 96.3,210.3 Z M 85.2,163.7 L 85.1,189.1 L 104.3,194.6 Z M 85.2,163.7 L 104.3,194.6 L 115.1,171.2 Z M 153.4,173.3 L 115.1,171.2 L 104.3,194.6 Z M 153.4,173.3 L 104.3,194.6 L 115.8,205.0 Z M 55.4,181.3 L 52.3,154.5 L 29.0,149.0 Z M 55.4,181.3 L 29.0,149.0 L 29.3,175.0 Z M 178.0,208.0 L 168.4,192.9 L 115.9,222.2 Z M 178.0,208.0 L 115.9,222.2 L 115.9,232.0 Z M 168.4,192.9 L 178.0,208.0 L 204.6,166.7 Z M 168.4,192.9 L 204.6,166.7 L 192.5,161.9 Z M 50.5,81.0 L 89.9,108.6 L 91.9,67.3 Z M 50.5,81.0 L 91.9,67.3 L 76.3,67.2 Z M 73.3,127.8 L 28.8,115.8 L 29.0,149.0 Z M 73.3,127.8 L 29.0,149.0 L 52.3,154.5 Z M 89.9,108.6 L 37.4,93.8 L 28.1,104.2 Z M 89.9,108.6 L 28.1,104.2 L 73.3,127.8 Z M 29.3,175.0 L 33.8,199.1 L 64.6,205.7 Z M 29.3,175.0 L 64.6,205.7 L 55.4,181.3 Z M 87.2,225.4 L 115.9,232.0 L 115.9,222.2 Z M 89.9,108.6 L 50.5,81.0 L 37.4,93.8 Z M 73.3,127.8 L 28.1,104.2 L 28.8,115.8 Z M 204.6,166.7 L 201.8,130.6 L 192.5,161.9 Z M 89.9,108.6 L 106.4,67.3 L 91.9,67.3 Z M 85.1,189.1 L 64.6,205.7 L 87.2,225.4 Z M 85.1,189.1 L 87.2,225.4 L 96.3,210.3 Z M 96.3,210.3 L 87.2,225.4 L 115.9,222.2 Z M 96.3,210.3 L 115.9,222.2 L 115.8,205.0 Z M 115.8,205.0 L 115.9,222.2 L 168.4,192.9 Z M 115.8,205.0 L 168.4,192.9 L 153.4,173.3 Z M 153.4,173.3 L 168.4,192.9 L 192.5,161.9 Z M 153.4,173.3 L 192.5,161.9 L 183.8,118.6 Z M 106.4,67.3 L 89.9,108.6 L 116.2,88.1 Z M 89.9,108.6 L 115.6,117.8 L 116.2,88.1 Z M 55.4,181.3 L 85.1,189.1 L 85.2,163.7 Z M 55.4,181.3 L 85.2,163.7 L 52.3,154.5 Z M 52.3,154.5 L 85.2,163.7 L 115.0,140.8 Z M 52.3,154.5 L 115.0,140.8 L 73.3,127.8 Z M 201.8,130.6 L 184.8,84.2 L 177.5,89.6 Z M 201.8,130.6 L 177.5,89.6 L 183.8,118.6 Z M 177.5,89.6 L 131.3,66.5 L 106.4,67.3 Z M 177.5,89.6 L 106.4,67.3 L 116.2,88.1 Z M 115.6,117.8 L 89.9,108.6 L 73.3,127.8 Z M 115.6,117.8 L 73.3,127.8 L 115.0,140.8 Z M 177.5,89.6 L 184.8,84.2 L 131.3,66.5 Z M 55.4,181.3 L 64.6,205.7 L 85.1,189.1 Z M 192.5,161.9 L 201.8,130.6 L 183.8,118.6 Z M 125.9,376.9 L 126.4,354.9 L 68.1,353.8 Z M 125.9,376.9 L 68.1,353.8 L 74.3,380.0 Z M 74.3,380.0 L 68.1,353.8 L 26.9,331.2 Z M 211.9,144.7 L 201.8,130.6 L 204.6,166.7 Z M 211.9,144.7 L 204.6,166.7 L 213.1,170.7 Z M 213.1,170.7 L 204.6,166.7 L 178.0,208.0 Z M 213.1,170.7 L 178.0,208.0 L 183.5,216.3 Z M 192.8,78.7 L 184.8,84.2 L 211.9,115.9 Z M 184.8,84.2 L 201.8,130.6 L 211.9,115.9 Z M 87.2,225.4 L 83.6,234.4 L 115.9,241.8 Z M 87.2,225.4 L 115.9,241.8 L 115.9,232.0 Z M 83.6,234.4 L 87.2,225.4 L 64.6,205.7 Z M 83.6,234.4 L 64.6,205.7 L 59.0,211.3 Z M 20.0,204.4 L 59.0,211.3 L 64.6,205.7 Z M 20.0,204.4 L 64.6,205.7 L 33.8,199.1 Z M 20.0,147.2 L 20.0,173.3 L 29.3,175.0 Z M 20.0,147.2 L 29.3,175.0 L 29.0,149.0 Z M 50.5,81.0 L 76.3,67.2 L 77.6,58.4 Z M 50.5,81.0 L 77.6,58.4 L 43.0,74.3 Z M 50.5,81.0 L 43.0,74.3 L 28.4,91.7 Z M 50.5,81.0 L 28.4,91.7 L 37.4,93.8 Z M 20.0,101.5 L 20.0,113.4 L 28.8,115.8 Z M 20.0,101.5 L 28.8,115.8 L 28.1,104.2 Z M 183.5,216.3 L 178.0,208.0 L 115.9,232.0 Z M 183.5,216.3 L 115.9,232.0 L 115.9,241.8 Z M 132.3,57.1 L 131.3,66.5 L 184.8,84.2 Z M 132.3,57.1 L 184.8,84.2 L 192.8,78.7 Z M 131.3,66.5 L 132.3,57.1 L 106.3,58.4 Z M 131.3,66.5 L 106.3,58.4 L 106.4,67.3 Z M 77.6,20.0 L 91.9,67.3 L 106.3,58.4 Z M 77.6,20.0 L 106.3,58.4 L 106.3,20.0 Z M 20.0,113.4 L 20.0,147.2 L 29.0,149.0 Z M 20.0,113.4 L 29.0,149.0 L 28.8,115.8 Z M 37.4,93.8 L 28.4,91.7 L 20.0,101.5 Z M 37.4,93.8 L 20.0,101.5 L 28.1,104.2 Z M 29.3,175.0 L 20.0,173.3 L 20.0,204.4 Z M 29.3,175.0 L 20.0,204.4 L 33.8,199.1 Z M 250.2,144.7 L 250.2,115.9 L 201.8,130.6 Z M 250.2,144.7 L 201.8,130.6 L 211.9,144.7 Z M 211.9,115.9 L 201.8,130.6 L 250.2,115.9 Z M 77.6,58.4 L 91.9,67.3 L 77.6,20.0 Z M 77.6,58.4 L 76.3,67.2 L 91.9,67.3 Z M 91.9,67.3 L 106.4,67.3 L 106.3,58.4 Z" fill="#2a2a4e" stroke="none"/>
  <path d="M 125.9,376.9 L 126.4,354.9 M 126.4,354.9 L 68.1,353.8 M 74.3,380.0 L 125.9,376.9 M 68.1,353.8 L 26.9,331.2 M 26.9,331.2 L 74.3,380.0 M 213.1,170.7 L 211.9,144.7 M 183.5,216.3 L 213.1,170.7 M 211.9,115.9 L 192.8,78.7 M 83.6,234.4 L 115.9,241.8 M 59.0,211.3 L 83.6,234.4 M 20.0,204.4 L 59.0,211.3 M 20.0,147.2 L 20.0,173.3 M 77.6,58.4 L 43.0,74.3 M 43.0,74.3 L 28.4,91.7 M 20.0,101.5 L 20.0,113.4 M 115.9,241.8 L 183.5,216.3 M 192.8,78.7 L 132.3,57.1 M 132.3,57.1 L 106.3,58.4 M 106.3,58.4 L 106.3,20.0 M 106.3,20.0 L 77.6,20.0 M 20.0,113.4 L 20.0,147.2 M 28.4,91.7 L 20.0,101.5 M 20.0,173.3 L 20.0,204.4 M 250.2,144.7 L 250.2,115.9 M 211.9,144.7 L 250.2,144.7 M 250.2,115.9 L 211.9,115.9 M 77.6,20.0 L 77.6,58.4" fill="none" stroke="white" stroke-width="2" stroke-linecap="round"/>
  <polygon points="90.91001767191563,45.250420462211004 98.91001767191563,53.250420462211004 90.91001767191563,61.250420462211004 82.91001767191563,53.250420462211004" fill="#4a9eff" stroke="white" stroke-width="1"/>
<polygon points="213.9239837235103,122.20462301337517 221.9239837235103,130.20462301337517 213.9239837235103,138.20462301337517 205.9239837235103,130.20462301337517" fill="#4a9eff" stroke="white" stroke-width="1"/>
</svg>