<svg xmlns="http://www.w3.org/2000/svg" viewBox="0 0 400 400">
  <rect width="400" height="400" fill="#1a1a2e"/>
  <path d="M 161.4,290.8 L 158.5,319.0 L 195.7,318.8 Z M 161.4,290.8 L 195.7,318.8 L 186.6,240.4 Z M 186.6,240.4 L 195.7,318.8 L 269.1,318.2 Z M 186.6,240.4 L 269.1,318.2 L 237.3,212.7 Z M 237.3,212.7 L 269.1,318.2 L 268.6,212.1 Z M 237.3,212.7 L 268.6,212.1 L 246.1,152.6 Z M 246.1,152.6 L 268.6,212.1 L 268.1,81.5 Z M 246.1,152.6 L 268.1,81.5 L 237.0,113.8 Z M 237.0,113.8 L 268.1,81.5 L 104.7,83.2 Z M 237.0,113.8 L 104.7,83.2 L 172.8,101.2 Z M 29.7,256.5 L 29.7,261.3 L 56.5,266.8 Z M 29.7,256.5 L 56.5,266.8 L 85.2,246.7 Z M 30.5,174.5 L 30.2,207.0 L 90.4,195.1 Z M 30.5,174.5 L 90.4,195.1 L 112.1,158.5 Z M 31.2,95.4 L 104.7,83.2 L 97.3,80.1 Z M 31.2,95.4 L 97.3,80.1 L 31.3,79.6 Z M 29.7,256.5 L 85.2,246.7 L 90.4,195.1 Z M 29.7,256.5 L 90.4,195.1 L 30.2,207.0 Z M 172.8,101.2 L 30.9,125.7 L 30.5,174.5 Z M 172.8,101.2 L 30.5,174.5 L 112.1,158.5 Z M 31.2,95.4 L 30.9,125.7 L 172.8,101.2 Z M 31.2,95.4 L 172.8,101.2 L 104.7,83.2 Z M 269.1,318.2 L 277.5,328.7 L 277.5,213.4 Z M 269.1,318.2 L 277.5,213.4 L 268.6,212.1 Z M 268.6,212.1 L 277.5,213.4 L 277.5,71.7 Z M 268.6,212.1 L 277.5,71.7 L 268.1,81.5 Z M 214.1,380.0 L 214.1,328.5 L 175.5,380.0 Z M 214.1,328.5 L 195.7,318.8 L 175.5,380.0 Z M 175.5,380.0 L 195.7,318.8 L 175.5,328.6 Z M 228.5,206.3 L 178.7,233.0 L 186.6,240.4 Z M 228.5,206.3 L 186.6,240.4 L 237.3,212.7 Z M 112.1,158.5 L 128.2,153.6 L 176.6,111.9 Z M 112.1,158.5 L 176.6,111.9 L 172.8,101.2 Z M 97.3,245.3 L 85.2,246.7 L 56.5,266.8 Z M 97.3,245.3 L 56.5,266.8 L 58.5,277.0 Z M 90.4,195.1 L 103.1,192.7 L 128.2,153.6 Z M 90.4,195.1 L 128.2,153.6 L 112.1,158.5 Z M 195.7,318.8 L 158.5,319.0 L 147.5,329.0 Z M 195.7,318.8 L 147.5,329.0 L 175.5,328.6 Z M 161.4,290.8 L 186.6,240.4 L 178.7,233.0 Z M 161.4,290.8 L 178.7,233.0 L 151.9,287.9 Z M 236.7,154.1 L 246.1,152.6 L 237.0,113.8 Z M 236.7,154.1 L 237.0,113.8 L 228.9,122.3 Z M 237.3,212.7 L 246.1,152.6 L 236.7,154.1 Z M 237.3,212.7 L 236.7,154.1 L 228.5,206.3 Z M 20.0,71.7 L 20.2,97.3 L 31.2,95.4 Z M 20.0,71.7 L 31.2,95.4 L 31.3,79.6 Z M 20.1,273.0 L 58.5,277.0 L 56.5,266.8 Z M 20.1,273.0 L 56.5,266.8 L 29.7,261.3 Z M 20.1,273.0 L 29.7,261.3 L 29.7,256.5 Z M 20.1,273.0 L 29.7,256.5 L 20.0,258.9 Z M 161.4,290.8 L 151.9,287.9 L 147.5,329.0 Z M 161.4,290.8 L 147.5,329.0 L 158.5,319.0 Z M 20.0,258.9 L 29.7,256.5 L 30.2,207.0 Z M 20.0,258.9 L 30.2,207.0 L 20.0,209.0 Z M 20.0,209.0 L 30.2,207.0 L 30.5,174.5 Z M 20.0,209.0 L 30.5,174.5 L 20.0,176.5 Z M 20.0,176.5 L 30.5,174.5 L 30.9,125.7 Z M 20.0,176.5 L 30.9,125.7 L 20.0,128.1 Z M 20.0,128.1 L 30.9,125.7 L 31.2,95.4 Z M 20.0,128.1 L 31.2,95.4 L 20.2,97.3 Z M 97.3,80.1 L 78.9,71.7 L 20.0,71.7 Z M 97.3,80.1 L 20.0,71.7 L 31.3,79.6 Z M 277.5,328.7 L 269.1,318.2 L 195.7,318.8 Z M 277.5,328.7 L 195.7,318.8 L 214.1,328.5 Z M 103.1,192.7 L 90.4,195.1 L 85.2,246.7 Z M 103.1,192.7 L 85.2,246.7 L 97.3,245.3 Z M 172.8,101.2 L 176.6,111.9 L 228.9,122.3 Z M 172.8,101.2 L 228.9,122.3 L 237.0,113.8 Z M 78.9,20.0 L 97.3,80.1 L 117.6,71.7 Z M 78.9,20.0 L 117.6,71.7 L 117.6,20.0 Z M 104.7,83.2 L 268.1,81.5 L 277.5,71.7 Z M 104.7,83.2 L 277.5,71.7 L 117.6,71.7 Z M 78.9,71.7 L 97.3,80.1 L 78.9,20.0 Z M 97.3,80.1 L 104.7,83.2 L 117.6,71.7 Z" fill="#2a2a4e" stroke="none"/>
  <path d="M 277.5,328.7 L 277.5,213.4 M 277.5,213.4 L 277.5,71.7 M 214.1,380.0 L 214.1,328.5 M 175.5,380.0 L 214.1,380.0 M 175.5,328.6 L 175.5,380.0 M 228.5,206.3 L 178.7,233.0 M 128.2,153.6 L 176.6,111.9 M 58.5,277.0 L 97.3,245.3 M 103.1,192.7 L 128.2,153.6 M 147.5,329.0 L 175.5,328.6 M 178.7,233.0 L 151.9,287.9 M 228.9,122.3 L 236.7,154.1 M 236.7,154.1 L 228.5,206.3 M 20.0,71.7 L 20.2,97.3 M 20.1,273.0 L 58.5,277.0 M 20.0,258.9 L 20.1,273.0 M 151.9,287.9 L 147.5,329.0 M 20.0,209.0 L 20.0,258.9 M 20.0,176.5 L 20.0,209.0 M 20.0,128.1 L 20.0,176.5 M 20.2,97.3 L 20.0,128.1 M 78.9,71.7 L 20.0,71.7 M 214.1,328.5 L 277.5,328.7 M 97.3,245.3 L 103.1,192.7 M 176.6,111.9 L 228.9,122.3 M 117.6,71.7 L 117.6,20.0 M 117.6,20.0 L 78.9,20.0 M 277.5,71.7 L 117.6,71.7 M 78.9,20.0 L 78.9,71.7" fill="none" stroke="white" stroke-width="2" stroke-linecap="round"/>
  <polygon points="194.76568030795434,325.7528921415648 202.76568030795434,333.7528921415648 194.76568030795434,341.7528921415648 186.76568030795434,333.7528921415648" fill="#4a9eff" stroke="white" stroke-width="1"/>
<polygon points="98.37664134858646,53.1823237679643 106.37664134858646,61.1823237679643 98.37664134858646,69.1823237679643 90.37664134858646,61.1823237679643" fill="#4a9eff" stroke="white" stroke-width="1"/>
</svg>