<svg xmlns="http://www.w3.org/2000/svg" viewBox="0 0 400 400">
  <rect width="400" height="400" fill="#1a1a2e"/>
  <path d="M 190.0,192.3 L 110.7,196.8 L 110.4,220.4 Z M 190.0,192.3 L 110.4,220.4 L 156.7,226.6 Z M 148.7,128.4 L 110.9,171.2 L 190.0,192.3 Z M 148.7,128.4 L 190.0,192.3 L 184.1,170.5 Z M 54.9,101.4 L 117.7,134.3 L 127.9,119.1 Z M 54.9,101.4 L 127.9,119.1 L 87.4,94.3 Z M 53.3,170.0 L 107.3,158.9 L 117.7,134.3 Z M 53.3,170.0 L 117.7,134.3 L 53.0,145.4 Z M 190.0,192.3 L 110.9,171.2 L 110.7,196.8 Z M 53.3,170.0 L 100.9,171.3 L 107.3,158.9 Z M 54.9,101.4 L 53.0,145.4 L 117.7,134.3 Z M 127.4,269.6 L 125.8,248.8 L 100.7,222.3 Z M 127.4,269.6 L 100.7,222.3 L 71.3,268.6 Z M 71.3,268.6 L 100.7,222.3 L 35.5,237.7 Z M 71.3,268.6 L 35.5,237.7 L 42.6,253.4 Z M 80.2,203.6 L 29.9,214.6 L 35.5,237.7 Z M 80.2,203.6 L 35.5,237.7 L 100.7,222.3 Z M 175.7,262.3 L 184.9,227.8 L 125.8,248.8 Z M 175.7,262.3 L 125.8,248.8 L 127.4,269.6 Z M 203.4,170.3 L 214.4,170.3 L 188.2,103.7 Z M 203.4,170.3 L 188.2,103.7 L 170.6,111.5 Z M 146.6,71.7 L 139.5,92.3 L 170.6,111.5 Z M 146.6,71.7 L 170.6,111.5 L 188.2,103.7 Z M 207.0,202.5 L 214.4,170.3 L 203.4,170.3 Z M 146.6,71.7 L 100.9,74.2 L 139.5,92.3 Z M 80.2,203.6 L 33.5,173.3 L 29.9,214.6 Z M 156.7,226.6 L 184.9,227.8 L 207.0,202.5 Z M 156.7,226.6 L 207.0,202.5 L 190.0,192.3 Z M 190.0,192.3 L 207.0,202.5 L 203.4,170.3 Z M 190.0,192.3 L 203.4,170.3 L 184.1,170.5 Z M 184.1,170.5 L 203.4,170.3 L 170.6,111.5 Z M 184.1,170.5 L 170.6,111.5 L 148.7,128.4 Z M 148.7,128.4 L 170.6,111.5 L 139.5,92.3 Z M 148.7,128.4 L 139.5,92.3 L 127.9,119.1 Z M 127.9,119.1 L 139.5,92.3 L 100.9,74.2 Z M 127.9,119.1 L 100.9,74.2 L 87.4,94.3 Z M 80.2,203.6 L 110.7,196.8 L 110.9,171.2 Z M 80.2,203.6 L 110.9,171.2 L 100.9,171.3 Z M 100.9,171.3 L 110.9,171.2 L 148.7,128.4 Z M 100.9,171.3 L 148.7,128.4 L 107.3,158.9 Z M 107.3,158.9 L 148.7,128.4 L 127.9,119.1 Z M 107.3,158.9 L 127.9,119.1 L 117.7,134.3 Z M 184.9,227.8 L 156.7,226.6 L 125.8,248.8 Z M 156.7,226.6 L 110.4,220.4 L 125.8,248.8 Z M 110.7,196.8 L 80.2,203.6 L 100.7,222.3 Z M 110.7,196.8 L 100.7,222.3 L 110.4,220.4 Z M 54.9,101.4 L 87.4,94.3 L 100.9,74.2 Z M 54.9,101.4 L 100.9,74.2 L 45.5,90.6 Z M 33.5,173.3 L 53.3,170.0 L 53.0,145.4 Z M 33.5,173.3 L 53.0,145.4 L 32.8,149.7 Z M 53.0,145.4 L 54.9,101.4 L 32.6,106.7 Z M 53.0,145.4 L 32.6,106.7 L 32.8,149.7 Z M 80.2,203.6 L 100.9,171.3 L 53.3,170.0 Z M 80.2,203.6 L 53.3,170.0 L 33.5,173.3 Z M 100.7,222.3 L 125.8,248.8 L 110.4,220.4 Z M 54.9,101.4 L 45.5,90.6 L 32.6,106.7 Z M 376.5,159.1 L 351.9,158.6 L 350.7,223.8 Z M 376.5,159.1 L 350.7,223.8 L 380.0,217.0 Z M 380.0,217.0 L 350.7,223.8 L 325.4,270.0 Z M 225.4,170.3 L 214.4,170.3 L 207.0,202.5 Z M 225.4,170.3 L 207.0,202.5 L 217.1,206.6 Z M 184.9,227.8 L 191.2,234.0 L 217.1,206.6 Z M 184.9,227.8 L 217.1,206.6 L 207.0,202.5 Z M 184.9,227.8 L 175.7,262.3 L 181.8,269.2 Z M 184.9,227.8 L 181.8,269.2 L 191.2,234.0 Z M 127.4,269.6 L 143.5,277.7 L 181.8,269.2 Z M 127.4,269.6 L 181.8,269.2 L 175.7,262.3 Z M 35.5,237.7 L 29.9,214.6 L 20.0,217.6 Z M 35.5,237.7 L 20.0,217.6 L 26.3,240.4 Z M 71.3,268.6 L 42.6,253.4 L 35.2,261.9 Z M 71.3,268.6 L 35.2,261.9 L 68.3,277.7 Z M 71.3,268.6 L 68.3,277.7 L 111.3,277.7 Z M 71.3,268.6 L 111.3,277.7 L 127.4,269.6 Z M 35.2,261.9 L 42.6,253.4 L 35.5,237.7 Z M 35.2,261.9 L 35.5,237.7 L 26.3,240.4 Z M 143.5,277.7 L 111.3,277.7 L 111.3,320.6 Z M 143.5,277.7 L 111.3,320.6 L 143.5,320.6 Z M 214.4,170.3 L 225.4,170.3 L 196.7,94.7 Z M 214.4,170.3 L 196.7,94.7 L 188.2,103.7 Z M 116.6,62.9 L 100.9,74.2 L 146.6,71.7 Z M 116.6,62.9 L 146.6,71.7 L 145.7,61.5 Z M 146.6,71.7 L 188.2,103.7 L 196.7,94.7 Z M 146.6,71.7 L 196.7,94.7 L 145.7,61.5 Z M 45.5,90.6 L 37.8,77.5 L 20.6,109.8 Z M 45.5,90.6 L 20.6,109.8 L 32.6,106.7 Z M 100.9,74.2 L 84.4,62.9 L 37.8,77.5 Z M 100.9,74.2 L 37.8,77.5 L 45.5,90.6 Z M 20.0,217.6 L 29.9,214.6 L 33.5,173.3 Z M 20.0,217.6 L 33.5,173.3 L 20.0,176.9 Z M 20.0,176.9 L 33.5,173.3 L 32.8,149.7 Z M 20.0,176.9 L 32.8,149.7 L 20.0,152.0 Z M 20.0,152.0 L 32.8,149.7 L 32.6,106.7 Z M 20.0,152.0 L 32.6,106.7 L 20.6,109.8 Z M 84.4,20.0 L 84.4,62.9 L 116.6,62.9 Z M 84.4,20.0 L 116.6,62.9 L 116.6,20.0 Z M 111.3,277.7 L 143.5,277.7 L 127.4,269.6 Z M 84.4,62.9 L 100.9,74.2 L 116.6,62.9 Z" fill="#2a2a4e" stroke="none"/>
  <path d="M 376.5,159.1 L 351.9,158.6 M 351.9,158.6 L 350.7,223.8 M 380.0,217.0 L 376.5,159.1 M 350.7,223.8 L 325.4,270.0 M 325.4,270.0 L 380.0,217.0 M 217.1,206.6 L 225.4,170.3 M 191.2,234.0 L 217.1,206.6 M 181.8,269.2 L 191.2,234.0 M 143.5,277.7 L 181.8,269.2 M 20.0,217.6 L 26.3,240.4 M 35.2,261.9 L 68.3,277.7 M 68.3,277.7 L 111.3,277.7 M 26.3,240.4 L 35.2,261.9 M 111.3,277.7 L 111.3,320.6 M 111.3,320.6 L 143.5,320.6 M 143.5,320.6 L 143.5,277.7 M 225.4,170.3 L 196.7,94.7 M 145.7,61.5 L 116.6,62.9 M 196.7,94.7 L 145.7,61.5 M 37.8,77.5 L 20.6,109.8 M 84.4,62.9 L 37.8,77.5 M 20.0,176.9 L 20.0,217.6 M 20.0,152.0 L 20.0,176.9 M 20.6,109.8 L 20.0,152.0 M 84.4,20.0 L 84.4,62.9 M 116.6,62.9 L 116.6,20.0 M 116.6,20.0 L 84.4,20.0" fill="none" stroke="white" stroke-width="2" stroke-linecap="round"/>
  <polygon points="128.07363649566793,278.62170260834773 136.07363649566793,286.62170260834773 128.07363649566793,294.62170260834773 120.07363649566793,286.62170260834773" fill="#4a9eff" stroke="white" stroke-width="1"/>
<polygon points="99.91636401757673,47.895131476629835 107.91636401757673,55.895131476629835 99.91636401757673,63.895131476629835 91.91636401757673,55.895131476629835" fill="#4a9eff" stroke="white" stroke-width="1"/>
</svg>