<svg xmlns="http://www.w3.org/2000/svg" viewBox="0 0 400 400">
  <rect width="400" height="400" fill="#1a1a2e"/>
  <path d="M 36.4,120.4 L 36.2,167.5 L 128.2,145.0 Z M 36.4,120.4 L 128.2,145.0 L 113.6,98.5 Z M 113.6,98.5 L 128.2,145.0 L 169.7,133.2 Z M 113.6,98.5 L 169.7,133.2 L 162.7,84.4 Z M 162.7,84.4 L 97.2,84.4 L 113.6,98.5 Z M 97.2,84.4 L 64.4,84.4 L 113.6,98.5 Z M 113.6,98.5 L 64.4,84.4 L 36.4,120.4 Z M 64.4,84.4 L 36.5,92.1 L 36.4,120.4 Z M 69.7,278.5 L 35.7,286.0 L 50.9,306.2 Z M 35.7,286.0 L 20.0,327.7 L 50.9,306.2 Z M 216.9,71.5 L 162.7,84.4 L 205.8,101.2 Z M 162.7,84.4 L 169.7,133.2 L 205.8,101.2 Z M 35.7,249.4 L 74.4,239.6 L 99.2,183.4 Z M 35.7,249.4 L 99.2,183.4 L 36.0,203.0 Z M 74.4,239.6 L 35.7,249.4 L 35.7,286.0 Z M 74.4,239.6 L 35.7,286.0 L 69.7,278.5 Z M 36.0,203.0 L 99.2,183.4 L 128.2,145.0 Z M 36.0,203.0 L 128.2,145.0 L 36.2,167.5 Z M 174.0,253.0 L 139.3,286.5 L 124.2,317.9 Z M 174.0,253.0 L 124.2,317.9 L 194.3,316.1 Z M 264.6,316.1 L 264.6,280.1 L 218.5,235.9 Z M 264.6,316.1 L 218.5,235.9 L 174.0,253.0 Z M 64.4,84.4 L 36.5,84.4 L 36.5,92.1 Z M 264.6,280.1 L 264.6,230.5 L 218.5,235.9 Z M 174.0,253.0 L 194.3,316.1 L 264.6,316.1 Z M 128.2,145.0 L 99.2,183.4 L 106.3,194.6 Z M 128.2,145.0 L 106.3,194.6 L 136.2,155.7 Z M 136.2,155.7 L 106.3,194.6 L 121.7,209.1 Z M 136.2,155.7 L 121.7,209.1 L 143.5,173.6 Z M 264.6,316.1 L 276.7,328.3 L 276.6,280.1 Z M 264.6,316.1 L 276.6,280.1 L 264.6,280.1 Z M 264.6,280.1 L 276.6,280.1 L 276.3,214.4 Z M 264.6,280.1 L 276.3,214.4 L 264.6,230.5 Z M 133.4,227.0 L 154.8,257.7 L 160.2,199.8 Z M 154.8,257.7 L 174.0,253.0 L 160.2,199.8 Z M 160.2,199.8 L 174.0,253.0 L 183.1,237.6 Z M 174.0,253.0 L 183.1,237.6 L 183.1,237.6 Z M 183.1,237.6 L 183.1,237.6 L 216.0,225.7 Z M 183.1,237.6 L 174.0,253.0 L 216.0,225.7 Z M 216.0,225.7 L 174.0,253.0 L 218.5,235.9 Z M 231.1,71.5 L 216.9,71.5 L 205.8,101.2 Z M 231.1,71.5 L 205.8,101.2 L 218.2,110.1 Z M 178.1,146.2 L 218.2,110.1 L 205.8,101.2 Z M 178.1,146.2 L 205.8,101.2 L 169.7,133.2 Z M 178.1,146.2 L 169.7,133.2 L 128.2,145.0 Z M 178.1,146.2 L 128.2,145.0 L 136.2,155.7 Z M 74.4,239.6 L 90.2,235.1 L 106.3,194.6 Z M 74.4,239.6 L 106.3,194.6 L 99.2,183.4 Z M 85.6,274.6 L 69.7,278.5 L 50.9,306.2 Z M 85.6,274.6 L 50.9,306.2 L 60.1,318.0 Z M 36.5,92.1 L 36.5,84.4 L 20.0,71.5 Z M 36.5,92.1 L 20.0,71.5 L 20.0,96.7 Z M 216.9,71.5 L 116.6,71.5 L 97.2,84.4 Z M 216.9,71.5 L 97.2,84.4 L 162.7,84.4 Z M 36.0,203.0 L 20.0,208.7 L 20.0,254.6 Z M 36.0,203.0 L 20.0,254.6 L 35.7,249.4 Z M 36.2,167.5 L 20.0,172.3 L 20.0,208.7 Z M 36.2,167.5 L 20.0,208.7 L 36.0,203.0 Z M 74.4,239.6 L 69.7,278.5 L 85.6,274.6 Z M 74.4,239.6 L 85.6,274.6 L 90.2,235.1 Z M 35.7,249.4 L 20.0,254.6 L 20.0,290.6 Z M 35.7,249.4 L 20.0,290.6 L 35.7,286.0 Z M 116.6,20.0 L 77.9,20.0 L 77.9,71.5 Z M 116.6,20.0 L 77.9,71.5 L 116.6,71.5 Z M 133.4,227.0 L 160.2,199.8 L 143.5,173.6 Z M 133.4,227.0 L 143.5,173.6 L 121.7,209.1 Z M 20.0,71.5 L 36.5,84.4 L 64.4,84.4 Z M 20.0,71.5 L 64.4,84.4 L 77.9,71.5 Z M 36.4,120.4 L 20.0,125.9 L 20.0,172.3 Z M 36.4,120.4 L 20.0,172.3 L 36.2,167.5 Z M 36.5,92.1 L 20.0,96.7 L 20.0,125.9 Z M 36.5,92.1 L 20.0,125.9 L 36.4,120.4 Z M 264.6,230.5 L 276.3,214.4 L 216.0,225.7 Z M 264.6,230.5 L 216.0,225.7 L 218.5,235.9 Z M 194.3,316.1 L 124.2,317.9 L 105.1,329.0 Z M 194.3,316.1 L 105.1,329.0 L 174.5,328.6 Z M 139.3,286.5 L 131.2,281.0 L 105.1,329.0 Z M 139.3,286.5 L 105.1,329.0 L 124.2,317.9 Z M 174.0,253.0 L 154.8,257.7 L 131.2,281.0 Z M 174.0,253.0 L 131.2,281.0 L 139.3,286.5 Z M 194.3,316.1 L 213.1,328.5 L 276.7,328.3 Z M 194.3,316.1 L 276.7,328.3 L 264.6,316.1 Z M 194.3,316.1 L 174.5,328.6 L 174.5,380.0 Z M 194.3,316.1 L 174.5,380.0 L 213.1,380.0 Z M 20.0,327.7 L 60.1,318.0 L 50.9,306.2 Z M 35.7,286.0 L 20.0,290.6 L 20.0,327.7 Z M 116.6,71.5 L 77.9,71.5 L 97.2,84.4 Z M 213.1,380.0 L 213.1,328.5 L 194.3,316.1 Z M 64.4,84.4 L 97.2,84.4 L 77.9,71.5 Z" fill="#2a2a4e" stroke="none"/>
  <path d="M 106.3,194.6 L 121.7,209.1 M 143.5,173.6 L 136.2,155.7 M 276.7,328.3 L 276.6,280.1 M 276.6,280.1 L 276.3,214.4 M 133.4,227.0 L 154.8,257.7 M 183.1,237.6 L 160.2,199.8 M 231.1,71.5 L 216.9,71.5 M 218.2,110.1 L 231.1,71.5 M 178.1,146.2 L 218.2,110.1 M 136.2,155.7 L 178.1,146.2 M 90.2,235.1 L 106.3,194.6 M 60.1,318.0 L 85.6,274.6 M 20.0,71.5 L 20.0,96.7 M 216.9,71.5 L 116.6,71.5 M 20.0,208.7 L 20.0,254.6 M 20.0,172.3 L 20.0,208.7 M 85.6,274.6 L 90.2,235.1 M 20.0,254.6 L 20.0,290.6 M 116.6,20.0 L 77.9,20.0 M 77.9,20.0 L 77.9,71.5 M 116.6,71.5 L 116.6,20.0 M 160.2,199.8 L 143.5,173.6 M 121.7,209.1 L 133.4,227.0 M 77.9,71.5 L 20.0,71.5 M 20.0,125.9 L 20.0,172.3 M 20.0,96.7 L 20.0,125.9 M 276.3,214.4 L 216.0,225.7 M 105.1,329.0 L 174.5,328.6 M 131.2,281.0 L 105.1,329.0 M 154.8,257.7 L 131.2,281.0 M 213.1,328.5 L 276.7,328.3 M 174.5,328.6 L 174.5,380.0 M 174.5,380.0 L 213.1,380.0 M 20.0,327.7 L 60.1,318.0 M 20.0,290.6 L 20.0,327.7 M 213.1,380.0 L 213.1,328.5" fill="none" stroke="white" stroke-width="2" stroke-linecap="round"/>
  <polygon points="195.22112543856582,332.3543415266873 203.22112543856582,340.3543415266873 195.22112543856582,348.3543415266873 187.22112543856582,340.3543415266873" fill="#4a9eff" stroke="white" stroke-width="1"/>
<polygon points="97.11316798670221,51.06666595107694 105.11316798670221,59.06666595107694 97.11316798670221,67.06666595107694 89.11316798670221,59.06666595107694" fill="#4a9eff" stroke="white" stroke-width="1"/>
</svg>