<svg xmlns="http://www.w3.org/2000/svg" viewBox="0 0 400 400">
  <rect width="400" height="400" fill="#1a1a2e"/>
  <path d="M 169.6,326.4 L 181.4,368.4 L 224.7,368.1 Z M 169.6,326.4 L 224.7,368.1 L 198.8,269.9 Z M 198.8,269.9 L 224.7,368.1 L 310.3,367.4 Z M 198.8,269.9 L 310.3,367.4 L 231.9,240.5 Z M 231.9,240.5 L 310.3,367.4 L 307.9,242.2 Z M 231.9,240.5 L 307.9,242.2 L 247.9,198.9 Z M 247.9,198.9 L 307.9,242.2 L 309.0,91.6 Z M 247.9,198.9 L 309.0,91.6 L 237.7,158.5 Z M 237.7,158.5 L 309.0,91.6 L 159.6,120.2 Z M 237.7,158.5 L 159.6,120.2 L 186.8,136.4 Z M 62.5,307.5 L 96.0,284.2 L 31.3,295.6 Z M 62.5,307.5 L 31.3,295.6 L 31.3,301.2 Z M 32.2,200.1 L 31.8,237.9 L 102.0,224.0 Z M 32.2,200.1 L 102.0,224.0 L 103.4,211.8 Z M 102.0,224.0 L 31.8,237.9 L 31.3,295.6 Z M 102.0,224.0 L 31.3,295.6 L 96.0,284.2 Z M 32.2,200.1 L 127.3,181.4 L 139.8,166.5 Z M 32.2,200.1 L 139.8,166.5 L 32.7,143.2 Z M 159.6,120.2 L 118.7,93.6 L 33.0,107.8 Z M 159.6,120.2 L 33.0,107.8 L 32.7,143.2 Z M 118.7,93.6 L 33.2,89.4 L 33.0,107.8 Z M 159.6,120.2 L 309.0,91.6 L 118.7,93.6 Z M 139.8,166.5 L 186.8,136.4 L 32.7,143.2 Z M 103.4,211.8 L 127.3,181.4 L 32.2,200.1 Z M 32.7,143.2 L 186.8,136.4 L 159.6,120.2 Z M 88.7,20.0 L 88.7,80.0 L 118.7,93.6 Z M 88.7,20.0 L 118.7,93.6 L 133.7,20.0 Z M 198.8,269.9 L 231.9,240.5 L 221.6,233.1 Z M 198.8,269.9 L 221.6,233.1 L 187.9,265.8 Z M 62.5,307.5 L 64.8,319.5 L 110.1,282.5 Z M 62.5,307.5 L 110.1,282.5 L 96.0,284.2 Z M 117.8,214.2 L 103.4,211.8 L 102.0,224.0 Z M 117.8,214.2 L 102.0,224.0 L 116.8,221.2 Z M 168.3,380.0 L 223.7,379.5 L 224.7,368.1 Z M 168.3,380.0 L 224.7,368.1 L 181.4,368.4 Z M 187.9,265.8 L 158.5,323.1 L 169.6,326.4 Z M 187.9,265.8 L 169.6,326.4 L 198.8,269.9 Z M 237.7,158.5 L 228.2,168.4 L 236.8,200.6 Z M 237.7,158.5 L 236.8,200.6 L 247.9,198.9 Z M 236.8,200.6 L 221.6,233.1 L 231.9,240.5 Z M 236.8,200.6 L 231.9,240.5 L 247.9,198.9 Z M 320.0,379.7 L 319.4,265.7 L 307.9,242.2 Z M 320.0,379.7 L 307.9,242.2 L 310.3,367.4 Z M 133.7,80.0 L 118.7,93.6 L 309.0,91.6 Z M 133.7,80.0 L 309.0,91.6 L 320.0,80.2 Z M 33.0,107.8 L 33.2,89.4 L 20.0,80.0 Z M 33.0,107.8 L 20.0,80.0 L 20.2,110.0 Z M 62.5,307.5 L 31.3,301.2 L 20.1,314.8 Z M 62.5,307.5 L 20.1,314.8 L 64.8,319.5 Z M 31.3,295.6 L 20.0,298.4 L 20.1,314.8 Z M 31.3,295.6 L 20.1,314.8 L 31.3,301.2 Z M 168.3,380.0 L 181.4,368.4 L 169.6,326.4 Z M 168.3,380.0 L 169.6,326.4 L 158.5,323.1 Z M 31.8,237.9 L 20.0,240.2 L 20.0,298.4 Z M 31.8,237.9 L 20.0,298.4 L 31.3,295.6 Z M 32.2,200.1 L 20.0,202.4 L 20.0,240.2 Z M 32.2,200.1 L 20.0,240.2 L 31.8,237.9 Z M 32.7,143.2 L 20.0,145.9 L 20.0,202.4 Z M 32.7,143.2 L 20.0,202.4 L 32.2,200.1 Z M 33.0,107.8 L 20.2,110.0 L 20.0,145.9 Z M 33.0,107.8 L 20.0,145.9 L 32.7,143.2 Z M 20.0,80.0 L 33.2,89.4 L 118.7,93.6 Z M 20.0,80.0 L 118.7,93.6 L 88.7,80.0 Z M 224.7,368.1 L 223.7,379.5 L 320.0,379.7 Z M 224.7,368.1 L 320.0,379.7 L 310.3,367.4 Z M 96.0,284.2 L 110.1,282.5 L 116.8,221.2 Z M 96.0,284.2 L 116.8,221.2 L 102.0,224.0 Z M 103.4,211.8 L 117.8,214.2 L 146.1,175.7 Z M 103.4,211.8 L 146.1,175.7 L 127.3,181.4 Z M 139.8,166.5 L 146.1,175.7 L 186.1,149.5 Z M 139.8,166.5 L 186.1,149.5 L 186.8,136.4 Z M 228.2,168.4 L 237.7,158.5 L 186.8,136.4 Z M 228.2,168.4 L 186.8,136.4 L 186.1,149.5 Z M 320.0,80.2 L 309.0,91.6 L 307.9,242.2 Z M 320.0,80.2 L 307.9,242.2 L 319.3,220.7 Z M 379.3,220.7 L 319.3,220.7 L 307.9,242.2 Z M 379.3,220.7 L 307.9,242.2 L 379.3,265.7 Z M 146.1,175.7 L 139.8,166.5 L 127.3,181.4 Z M 118.7,93.6 L 133.7,80.0 L 133.7,20.0 Z M 307.9,242.2 L 319.4,265.7 L 379.3,265.7 Z" fill="#2a2a4e" stroke="none"/>
  <path d="M 88.7,20.0 L 88.7,80.0 M 133.7,20.0 L 88.7,20.0 M 221.6,233.1 L 187.9,265.8 M 64.8,319.5 L 110.1,282.5 M 116.8,221.2 L 117.8,214.2 M 168.3,380.0 L 223.7,379.5 M 187.9,265.8 L 158.5,323.1 M 228.2,168.4 L 236.8,200.6 M 236.8,200.6 L 221.6,233.1 M 320.0,379.7 L 319.4,265.7 M 320.0,80.2 L 133.7,80.0 M 20.0,80.0 L 20.2,110.0 M 20.1,314.8 L 64.8,319.5 M 20.0,298.4 L 20.1,314.8 M 158.5,323.1 L 168.3,380.0 M 20.0,240.2 L 20.0,298.4 M 20.0,202.4 L 20.0,240.2 M 20.0,145.9 L 20.0,202.4 M 20.2,110.0 L 20.0,145.9 M 88.7,80.0 L 20.0,80.0 M 223.7,379.5 L 320.0,379.7 M 110.1,282.5 L 116.8,221.2 M 117.8,214.2 L 146.1,175.7 M 146.1,175.7 L 186.1,149.5 M 186.1,149.5 L 228.2,168.4 M 319.3,220.7 L 320.0,80.2 M 379.3,220.7 L 319.3,220.7 M 379.3,265.7 L 379.3,220.7 M 133.7,80.0 L 133.7,20.0 M 319.4,265.7 L 379.3,265.7" fill="none" stroke="white" stroke-width="2" stroke-linecap="round"/>
  <polygon points="110.9797898896017,62.07326599353648 118.9797898896017,70.07326599353648 110.9797898896017,78.07326599353648 102.9797898896017,70.07326599353648" fill="#4a9eff" stroke="white" stroke-width="1"/>
<polygon points="330.65261968791236,234.9233647012006 338.65261968791236,242.9233647012006 330.65261968791236,250.9233647012006 322.65261968791236,242.9233647012006" fill="#4a9eff" stroke="white" stroke-width="1"/>
</svg>