<svg xmlns="http://www.w3.org/2000/svg" viewBox="0 0 400 400">
  <rect width="400" height="400" fill="#1a1a2e"/>
  <path d="M 136.5,194.1 L 117.5,149.9 L 83.7,163.0 Z M 136.5,194.1 L 83.7,163.0 L 91.9,216.2 Z M 200.0,287.5 L 219.7,257.0 L 189.2,237.4 Z M 200.0,287.5 L 189.2,237.4 L 169.6,267.9 Z M 252.3,130.0 L 208.7,111.2 L 185.2,162.4 Z M 252.3,130.0 L 185.2,162.4 L 228.8,181.2 Z M 132.0,154.3 L 151.6,123.9 L 121.2,104.2 Z M 132.0,154.3 L 121.2,104.2 L 101.5,134.7 Z M 277.0,119.6 L 277.0,95.5 L 253.0,95.5 Z M 277.0,119.6 L 253.0,95.5 L 253.0,119.6 Z M 253.0,119.6 L 253.0,95.5 L 229.7,95.7 Z M 253.0,119.6 L 229.7,95.7 L 229.7,119.9 Z M 253.0,95.5 L 253.0,71.4 L 228.9,71.4 Z M 253.0,95.5 L 228.9,71.4 L 229.7,95.7 Z M 207.3,95.6 L 207.1,71.4 L 183.9,71.4 Z M 207.3,95.6 L 183.9,71.4 L 183.9,95.5 Z M 253.0,304.5 L 277.0,304.5 L 277.0,280.4 Z M 253.0,304.5 L 277.0,280.4 L 253.0,280.4 Z M 228.9,304.5 L 253.0,304.5 L 253.0,280.4 Z M 228.9,304.5 L 253.0,280.4 L 228.9,280.4 Z M 228.9,328.6 L 253.0,328.6 L 253.0,304.5 Z M 228.9,328.6 L 253.0,304.5 L 228.9,304.5 Z M 20.1,280.4 L 20.0,304.5 L 44.0,304.5 Z M 20.1,280.4 L 44.0,304.5 L 44.0,280.4 Z M 44.0,280.4 L 44.0,304.5 L 68.2,304.5 Z M 44.0,280.4 L 68.2,304.5 L 68.2,280.4 Z M 44.0,304.5 L 44.0,328.6 L 68.2,328.6 Z M 44.0,304.5 L 68.2,328.6 L 68.2,304.5 Z M 20.1,119.6 L 20.1,142.1 L 44.0,142.1 Z M 20.1,119.6 L 44.0,142.1 L 44.0,119.6 Z M 183.9,189.3 L 206.7,189.3 L 206.7,164.6 Z M 183.9,189.3 L 206.7,164.6 L 183.9,164.6 Z M 253.0,257.9 L 253.0,280.4 L 277.0,280.4 Z M 253.0,257.9 L 277.0,280.4 L 276.9,257.9 Z M 206.7,257.9 L 183.2,257.9 L 182.6,280.4 Z M 206.7,257.9 L 182.6,280.4 L 206.7,280.4 Z M 183.9,304.5 L 161.4,304.5 L 167.8,328.6 Z M 183.9,304.5 L 167.8,328.6 L 183.9,328.6 Z M 113.2,328.6 L 129.2,328.6 L 135.7,304.5 Z M 113.2,328.6 L 135.7,304.5 L 113.2,304.5 Z M 183.9,119.3 L 183.9,142.0 L 207.8,142.0 Z M 183.9,119.3 L 207.8,142.0 L 207.6,119.2 Z M 44.0,142.1 L 90.7,142.1 L 44.0,119.6 Z M 90.7,142.1 L 113.2,119.6 L 44.0,119.6 Z M 183.9,119.3 L 113.2,119.6 L 183.9,142.0 Z M 113.2,119.6 L 90.7,142.1 L 183.9,142.0 Z M 161.4,304.5 L 161.4,380.0 L 167.8,380.0 Z M 161.4,304.5 L 167.8,380.0 L 167.8,328.6 Z M 253.0,257.9 L 206.7,257.9 L 206.7,280.4 Z M 253.0,257.9 L 206.7,280.4 L 228.9,280.4 Z M 277.0,119.6 L 253.0,119.6 L 253.0,164.6 Z M 277.0,119.6 L 253.0,164.6 L 276.8,164.6 Z M 228.9,304.5 L 183.9,304.5 L 183.9,328.6 Z M 228.9,304.5 L 183.9,328.6 L 228.9,328.6 Z M 20.1,142.1 L 20.2,164.6 L 44.0,164.6 Z M 20.1,142.1 L 44.0,164.6 L 44.0,142.1 Z M 68.2,328.6 L 113.2,328.6 L 113.2,304.5 Z M 68.2,328.6 L 113.2,304.5 L 68.2,304.5 Z M 20.1,280.4 L 44.0,280.4 L 44.0,235.4 Z M 20.1,280.4 L 44.0,235.4 L 20.2,235.4 Z M 183.9,189.3 L 183.2,257.9 L 206.7,257.9 Z M 183.9,189.3 L 206.7,257.9 L 206.7,189.3 Z M 206.7,189.3 L 236.2,189.3 L 253.0,164.6 Z M 206.7,189.3 L 253.0,164.6 L 206.7,164.6 Z M 129.2,380.0 L 135.7,380.0 L 135.7,304.5 Z M 129.2,380.0 L 135.7,304.5 L 129.2,328.6 Z M 207.1,71.4 L 207.3,95.6 L 229.7,95.7 Z M 207.1,71.4 L 229.7,95.7 L 228.9,71.4 Z M 207.6,119.2 L 207.3,95.6 L 183.9,95.5 Z M 207.6,119.2 L 183.9,95.5 L 183.9,119.3 Z M 228.9,280.4 L 253.0,280.4 L 253.0,257.9 Z M 44.0,235.4 L 44.0,280.4 L 68.2,280.4 Z M 44.0,235.4 L 68.2,280.4 L 60.8,210.7 Z M 60.8,210.7 L 68.2,280.4 L 121.5,240.0 Z M 60.8,210.7 L 121.5,240.0 L 60.8,189.3 Z M 253.0,164.6 L 253.0,119.6 L 229.7,119.9 Z M 253.0,164.6 L 229.7,119.9 L 206.7,164.6 Z M 206.7,164.6 L 229.7,119.9 L 207.6,119.2 Z M 206.7,164.6 L 207.6,119.2 L 229.7,119.9 Z M 228.9,304.5 L 228.9,280.4 L 206.7,280.4 Z M 228.9,304.5 L 206.7,280.4 L 183.9,304.5 Z M 183.9,304.5 L 206.7,280.4 L 182.6,280.4 Z M 183.9,304.5 L 182.6,280.4 L 161.4,304.5 Z M 161.4,304.5 L 182.6,280.4 L 183.2,257.9 Z M 161.4,304.5 L 183.2,257.9 L 135.7,304.5 Z M 135.7,304.5 L 183.2,257.9 L 121.5,240.0 Z M 135.7,304.5 L 121.5,240.0 L 113.2,304.5 Z M 113.2,304.5 L 121.5,240.0 L 68.2,280.4 Z M 113.2,304.5 L 68.2,280.4 L 68.2,304.5 Z M 229.7,95.7 L 207.3,95.6 L 229.7,119.9 Z M 207.3,95.6 L 207.6,119.2 L 229.7,119.9 Z M 206.7,164.6 L 229.7,119.9 L 207.8,142.0 Z M 229.7,119.9 L 207.6,119.2 L 207.8,142.0 Z M 44.0,142.1 L 44.0,164.6 L 60.8,189.3 Z M 44.0,142.1 L 60.8,189.3 L 90.7,142.1 Z M 161.4,304.5 L 135.7,304.5 L 135.7,380.0 Z M 161.4,304.5 L 135.7,380.0 L 161.4,380.0 Z M 183.9,164.6 L 206.7,164.6 L 207.8,142.0 Z M 183.9,164.6 L 207.8,142.0 L 183.9,142.0 Z M 90.7,142.1 L 121.5,240.0 L 183.9,189.3 Z M 90.7,142.1 L 183.9,189.3 L 183.9,164.6 Z M 90.7,142.1 L 60.8,189.3 L 121.5,240.0 Z M 183.2,257.9 L 183.9,189.3 L 121.5,240.0 Z M 183.9,164.6 L 183.9,142.0 L 90.7,142.1 Z M 276.9,257.9 L 276.8,235.4 L 253.0,235.4 Z M 276.9,257.9 L 253.0,235.4 L 253.0,257.9 Z M 253.0,257.9 L 253.0,235.4 L 236.2,210.7 Z M 253.0,257.9 L 236.2,210.7 L 206.7,257.9 Z M 206.7,257.9 L 236.2,210.7 L 236.2,189.3 Z M 206.7,257.9 L 236.2,189.3 L 206.7,189.3 Z M 167.8,20.0 L 129.2,20.0 L 129.2,71.4 Z M 167.8,20.0 L 129.2,71.4 L 167.8,71.4 Z M 167.8,71.4 L 129.2,71.4 L 183.9,95.5 Z M 167.8,71.4 L 183.9,95.5 L 183.9,71.4 Z M 44.0,71.4 L 44.0,95.5 L 129.2,71.4 Z M 44.0,95.5 L 44.0,119.6 L 129.2,71.4 Z M 129.2,71.4 L 44.0,119.6 L 183.9,95.5 Z M 44.0,119.6 L 183.9,119.3 L 183.9,95.5 Z M 44.0,95.5 L 20.0,95.5 L 20.1,119.6 Z M 44.0,95.5 L 20.1,119.6 L 44.0,119.6 Z M 44.0,119.6 L 113.2,119.6 L 183.9,119.3 Z" fill="#2a2a4e" stroke="none"/>
  <path d="M 136.5,194.1 L 117.5,149.9 M 117.5,149.9 L 83.7,163.0 M 83.7,163.0 L 91.9,216.2 M 91.9,216.2 L 136.5,194.1 M 200.0,287.5 L 219.7,257.0 M 219.7,257.0 L 189.2,237.4 M 189.2,237.4 L 169.6,267.9 M 169.6,267.9 L 200.0,287.5 M 252.3,130.0 L 208.7,111.2 M 208.7,111.2 L 185.2,162.4 M 185.2,162.4 L 228.8,181.2 M 228.8,181.2 L 252.3,130.0 M 132.0,154.3 L 151.6,123.9 M 151.6,123.9 L 121.2,104.2 M 121.2,104.2 L 101.5,134.7 M 101.5,134.7 L 132.0,154.3 M 277.0,119.6 L 277.0,95.5 M 277.0,95.5 L 253.0,95.5 M 253.0,95.5 L 253.0,71.4 M 253.0,71.4 L 228.9,71.4 M 207.1,71.4 L 183.9,71.4 M 253.0,304.5 L 277.0,304.5 M 277.0,304.5 L 277.0,280.4 M 228.9,328.6 L 253.0,328.6 M 253.0,328.6 L 253.0,304.5 M 20.1,280.4 L 20.0,304.5 M 20.0,304.5 L 44.0,304.5 M 44.0,304.5 L 44.0,328.6 M 44.0,328.6 L 68.2,328.6 M 20.1,119.6 L 20.1,142.1 M 277.0,280.4 L 276.9,257.9 M 167.8,328.6 L 183.9,328.6 M 113.2,328.6 L 129.2,328.6 M 161.4,380.0 L 167.8,380.0 M 167.8,380.0 L 167.8,328.6 M 253.0,164.6 L 276.8,164.6 M 276.8,164.6 L 277.0,119.6 M 183.9,328.6 L 228.9,328.6 M 20.1,142.1 L 20.2,164.6 M 20.2,164.6 L 44.0,164.6 M 68.2,328.6 L 113.2,328.6 M 44.0,235.4 L 20.2,235.4 M 20.2,235.4 L 20.1,280.4 M 236.2,189.3 L 253.0,164.6 M 129.2,380.0 L 135.7,380.0 M 129.2,328.6 L 129.2,380.0 M 228.9,71.4 L 207.1,71.4 M 60.8,210.7 L 44.0,235.4 M 60.8,189.3 L 60.8,210.7 M 44.0,164.6 L 60.8,189.3 M 135.7,380.0 L 161.4,380.0 M 276.9,257.9 L 276.8,235.4 M 276.8,235.4 L 253.0,235.4 M 253.0,235.4 L 236.2,210.7 M 236.2,210.7 L 236.2,189.3 M 167.8,20.0 L 129.2,20.0 M 129.2,20.0 L 129.2,71.4 M 167.8,71.4 L 167.8,20.0 M 183.9,71.4 L 167.8,71.4 M 44.0,71.4 L 44.0,95.5 M 129.2,71.4 L 44.0,71.4 M 44.0,95.5 L 20.0,95.5 M 20.0,95.5 L 20.1,119.6" fill="none" stroke="white" stroke-width="2" stroke-linecap="round"/>
  <polygon points="146.88181545285528,325.22247795603494 154.88181545285528,333.22247795603494 146.88181545285528,341.22247795603494 138.88181545285528,333.22247795603494" fill="#4a9eff" stroke="white" stroke-width="1"/>
<polygon points="148.38432012860528,59.726475152385035 156.38432012860528,67.72647515238504 148.38432012860528,75.72647515238504 140.38432012860528,67.72647515238504" fill="#4a9eff" stroke="white" stroke-width="1"/>
</svg>