<svg xmlns="http://www.w3.org/2000/svg" viewBox="0 0 400 400">
  <rect width="400" height="400" fill="#1a1a2e"/>
  <path d="M 161.6,200.0 L 161.6,273.0 L 233.1,273.0 Z M 161.6,200.0 L 233.1,273.0 L 234.0,200.0 Z M 233.9,41.0 L 161.3,41.0 L 161.3,114.1 Z M 233.9,41.0 L 161.3,114.1 L 232.9,114.1 Z M 247.9,297.2 L 233.1,273.0 L 161.6,273.0 Z M 247.9,297.2 L 161.6,273.0 L 216.3,297.2 Z M 216.3,297.2 L 161.6,273.0 L 136.4,297.2 Z M 216.3,297.2 L 136.4,297.2 L 178.8,297.2 Z M 150.8,112.2 L 161.3,114.1 L 161.3,41.0 Z M 150.8,112.2 L 161.3,41.0 L 150.8,30.8 Z M 150.8,30.8 L 161.3,41.0 L 233.9,41.0 Z M 150.8,30.8 L 233.9,41.0 L 244.4,30.8 Z M 244.4,30.8 L 233.9,41.0 L 232.9,114.1 Z M 244.4,30.8 L 232.9,114.1 L 244.4,124.4 Z M 244.4,124.4 L 232.9,114.1 L 178.8,124.4 Z M 244.4,124.4 L 178.8,124.4 L 216.3,124.4 Z M 136.4,174.8 L 136.4,297.2 L 161.6,273.0 Z M 136.4,174.8 L 161.6,273.0 L 161.6,200.0 Z M 160.8,124.4 L 178.8,124.4 L 232.9,114.1 Z M 160.8,124.4 L 232.9,114.1 L 161.3,114.1 Z M 216.3,174.8 L 178.8,174.8 L 161.6,200.0 Z M 216.3,174.8 L 161.6,200.0 L 234.0,200.0 Z M 234.0,200.0 L 233.1,273.0 L 258.8,289.9 Z M 234.0,200.0 L 258.8,289.9 L 258.8,174.8 Z M 161.3,114.1 L 150.8,112.2 L 160.8,124.4 Z M 258.8,174.8 L 216.3,174.8 L 234.0,200.0 Z M 161.6,200.0 L 178.8,174.8 L 136.4,174.8 Z M 247.9,297.2 L 258.8,289.9 L 233.1,273.0 Z M 333.7,105.8 L 329.8,146.3 L 370.3,150.1 Z M 333.7,105.8 L 370.3,150.1 L 374.1,109.7 Z M 23.8,109.4 L 20.0,149.8 L 60.4,153.6 Z M 23.8,109.4 L 60.4,153.6 L 64.3,113.2 Z M 164.3,24.3 L 142.2,58.5 L 176.4,80.5 Z M 164.3,24.3 L 176.4,80.5 L 198.4,46.4 Z M 159.2,173.6 L 130.8,202.7 L 159.8,231.1 Z M 159.2,173.6 L 159.8,231.1 L 188.2,202.1 Z M 254.0,241.5 L 214.7,232.0 L 205.1,271.3 Z M 254.0,241.5 L 205.1,271.3 L 244.5,280.8 Z M 171.5,135.2 L 160.8,124.4 L 140.0,114.6 Z M 171.5,135.2 L 140.0,114.6 L 158.0,135.2 Z M 140.0,104.2 L 140.0,114.6 L 160.8,124.4 Z M 140.0,104.2 L 160.8,124.4 L 150.8,112.2 Z M 269.6,293.8 L 269.6,286.2 L 258.8,289.9 Z M 269.6,293.8 L 258.8,289.9 L 258.8,297.2 Z M 233.9,308.0 L 249.8,308.0 L 258.8,297.2 Z M 233.9,308.0 L 258.8,297.2 L 247.9,297.2 Z M 247.9,297.2 L 258.8,297.2 L 258.8,289.9 Z M 140.0,20.0 L 150.8,30.8 L 244.4,30.8 Z M 140.0,20.0 L 244.4,30.8 L 255.2,20.0 Z M 255.2,20.0 L 244.4,30.8 L 244.4,124.4 Z M 255.2,20.0 L 244.4,124.4 L 255.2,119.6 Z M 219.2,164.0 L 216.3,174.8 L 258.8,174.8 Z M 219.2,164.0 L 258.8,174.8 L 241.2,164.0 Z M 125.6,164.0 L 136.4,174.8 L 178.8,174.8 Z M 125.6,164.0 L 178.8,174.8 L 176.0,164.0 Z M 219.2,308.0 L 233.9,308.0 L 247.9,297.2 Z M 219.2,308.0 L 247.9,297.2 L 216.3,297.2 Z M 258.8,174.8 L 258.8,289.9 L 269.6,286.2 Z M 258.8,174.8 L 269.6,286.2 L 269.6,196.4 Z M 216.3,297.2 L 216.3,380.0 L 219.2,380.0 Z M 216.3,297.2 L 219.2,380.0 L 219.2,308.0 Z M 176.0,380.0 L 178.8,380.0 L 178.8,297.2 Z M 176.0,380.0 L 178.8,297.2 L 176.0,308.0 Z M 219.2,135.2 L 216.3,124.4 L 216.3,174.8 Z M 219.2,135.2 L 216.3,174.8 L 219.2,164.0 Z M 176.0,135.2 L 176.0,164.0 L 178.8,174.8 Z M 176.0,135.2 L 178.8,174.8 L 178.8,124.4 Z M 176.0,135.2 L 178.8,124.4 L 160.8,124.4 Z M 176.0,135.2 L 160.8,124.4 L 171.5,135.2 Z M 140.0,20.0 L 140.0,104.2 L 150.8,112.2 Z M 140.0,20.0 L 150.8,112.2 L 150.8,30.8 Z M 216.3,124.4 L 219.2,135.2 L 237.2,135.2 Z M 216.3,124.4 L 237.2,135.2 L 244.4,124.4 Z M 176.0,308.0 L 178.8,297.2 L 136.4,297.2 Z M 176.0,308.0 L 136.4,297.2 L 142.8,308.0 Z M 125.6,289.9 L 136.4,297.2 L 136.4,174.8 Z M 125.6,289.9 L 136.4,174.8 L 125.6,164.0 Z M 216.3,297.2 L 178.8,297.2 L 178.8,380.0 Z M 216.3,297.2 L 178.8,380.0 L 216.3,380.0 Z M 216.3,124.4 L 178.8,124.4 L 178.8,174.8 Z M 216.3,124.4 L 178.8,174.8 L 216.3,174.8 Z" fill="#2a2a4e" stroke="none"/>
  <path d="M 333.7,105.8 L 329.8,146.3 M 329.8,146.3 L 370.3,150.1 M 370.3,150.1 L 374.1,109.7 M 374.1,109.7 L 333.7,105.8 M 23.8,109.4 L 20.0,149.8 M 20.0,149.8 L 60.4,153.6 M 60.4,153.6 L 64.3,113.2 M 64.3,113.2 L 23.8,109.4 M 164.3,24.3 L 142.2,58.5 M 142.2,58.5 L 176.4,80.5 M 176.4,80.5 L 198.4,46.4 M 198.4,46.4 L 164.3,24.3 M 159.2,173.6 L 130.8,202.7 M 130.8,202.7 L 159.8,231.1 M 159.8,231.1 L 188.2,202.1 M 188.2,202.1 L 159.2,173.6 M 254.0,241.5 L 214.7,232.0 M 214.7,232.0 L 205.1,271.3 M 205.1,271.3 L 244.5,280.8 M 244.5,280.8 L 254.0,241.5 M 140.0,114.6 L 158.0,135.2 M 158.0,135.2 L 171.5,135.2 M 140.0,104.2 L 140.0,114.6 M 269.6,293.8 L 269.6,286.2 M 258.8,297.2 L 269.6,293.8 M 233.9,308.0 L 249.8,308.0 M 249.8,308.0 L 258.8,297.2 M 255.2,20.0 L 140.0,20.0 M 244.4,124.4 L 255.2,119.6 M 255.2,119.6 L 255.2,20.0 M 258.8,174.8 L 241.2,164.0 M 241.2,164.0 L 219.2,164.0 M 176.0,164.0 L 125.6,164.0 M 219.2,308.0 L 233.9,308.0 M 269.6,286.2 L 269.6,196.4 M 269.6,196.4 L 258.8,174.8 M 216.3,380.0 L 219.2,380.0 M 219.2,380.0 L 219.2,308.0 M 176.0,380.0 L 178.8,380.0 M 176.0,308.0 L 176.0,380.0 M 219.2,164.0 L 219.2,135.2 M 176.0,135.2 L 176.0,164.0 M 171.5,135.2 L 176.0,135.2 M 140.0,20.0 L 140.0,104.2 M 219.2,135.2 L 237.2,135.2 M 237.2,135.2 L 244.4,124.4 M 136.4,297.2 L 142.8,308.0 M 142.8,308.0 L 176.0,308.0 M 125.6,289.9 L 136.4,297.2 M 125.6,164.0 L 125.6,289.9 M 178.8,380.0 L 216.3,380.0" fill="none" stroke="white" stroke-width="2" stroke-linecap="round"/>
  <polygon points="196.51579520257542,380.4189372743937 204.51579520257542,388.4189372743937 196.51579520257542,396.4189372743937 188.51579520257542,388.4189372743937" fill="#4a9eff" stroke="white" stroke-width="1"/>
</svg>