<svg xmlns="http://www.w3.org/2000/svg" viewBox="0 0 400 400">
  <rect width="400" height="400" fill="#1a1a2e"/>
  <path d="M 287.8,262.5 L 278.2,200.3 L 226.2,226.2 Z M 287.8,262.5 L 226.2,226.2 L 248.3,277.7 Z M 122.4,186.4 L 145.4,150.8 L 109.8,127.9 Z M 122.4,186.4 L 109.8,127.9 L 86.9,163.5 Z M 250.7,220.9 L 273.6,185.3 L 238.1,162.4 Z M 250.7,220.9 L 238.1,162.4 L 215.1,197.9 Z M 108.4,291.0 L 131.4,255.4 L 95.8,232.5 Z M 108.4,291.0 L 95.8,232.5 L 72.9,268.1 Z M 20.1,136.3 L 48.1,136.3 L 48.1,108.1 Z M 20.1,136.3 L 48.1,108.1 L 20.0,108.1 Z M 48.1,136.3 L 76.2,136.3 L 76.2,108.1 Z M 48.1,136.3 L 76.2,108.1 L 48.1,108.1 Z M 48.1,108.1 L 76.2,108.1 L 76.2,80.0 Z M 48.1,108.1 L 76.2,80.0 L 48.1,80.0 Z M 291.8,108.1 L 291.8,136.3 L 319.9,136.3 Z M 291.8,108.1 L 319.9,136.3 L 319.9,108.1 Z M 263.7,108.1 L 263.7,136.3 L 291.8,136.3 Z M 263.7,108.1 L 291.8,136.3 L 291.8,108.1 Z M 263.7,80.0 L 263.7,108.1 L 291.8,108.1 Z M 263.7,80.0 L 291.8,108.1 L 291.8,80.0 Z M 211.2,379.9 L 237.4,380.0 L 237.4,351.9 Z M 211.2,379.9 L 237.4,351.9 L 211.2,351.9 Z M 211.2,297.5 L 211.2,323.8 L 237.4,323.8 Z M 211.2,297.5 L 237.4,323.8 L 237.4,297.5 Z M 102.0,271.3 L 128.7,271.3 L 128.7,242.5 Z M 102.0,271.3 L 128.7,242.5 L 102.0,242.5 Z M 20.1,136.3 L 20.1,162.5 L 48.1,162.5 Z M 20.1,136.3 L 48.1,162.5 L 48.1,136.3 Z M 130.2,136.3 L 102.0,136.3 L 102.0,162.5 Z M 130.2,136.3 L 102.0,162.5 L 129.4,162.5 Z M 291.8,323.8 L 319.9,323.8 L 319.9,297.1 Z M 291.8,323.8 L 319.9,297.1 L 291.8,297.5 Z M 147.4,80.0 L 128.7,80.0 L 128.7,108.1 Z M 147.4,80.0 L 128.7,108.1 L 154.9,108.1 Z M 184.9,108.1 L 211.2,108.1 L 211.2,80.0 Z M 184.9,108.1 L 211.2,80.0 L 192.4,80.0 Z M 319.9,207.5 L 319.8,188.8 L 291.8,188.8 Z M 319.9,207.5 L 291.8,188.8 L 291.8,215.0 Z M 291.8,245.0 L 291.8,271.3 L 319.9,271.3 Z M 291.8,245.0 L 319.9,271.3 L 319.9,252.5 Z M 20.2,271.3 L 20.1,297.2 L 48.1,297.4 Z M 20.2,271.3 L 48.1,297.4 L 48.1,271.3 Z M 102.0,136.3 L 76.2,136.3 L 48.1,162.5 Z M 102.0,136.3 L 48.1,162.5 L 102.0,162.5 Z M 128.7,80.0 L 76.2,80.0 L 76.2,108.1 Z M 128.7,80.0 L 76.2,108.1 L 128.7,108.1 Z M 237.4,323.8 L 211.2,323.8 L 211.2,351.9 Z M 237.4,323.8 L 211.2,351.9 L 237.4,351.9 Z M 211.2,108.1 L 263.7,108.1 L 263.7,80.0 Z M 211.2,108.1 L 263.7,80.0 L 211.2,80.0 Z M 291.8,188.8 L 319.8,188.8 L 319.9,136.3 Z M 291.8,188.8 L 319.9,136.3 L 291.8,136.3 Z M 291.8,297.5 L 237.4,297.5 L 237.4,323.8 Z M 291.8,297.5 L 237.4,323.8 L 291.8,323.8 Z M 128.7,208.3 L 129.4,162.5 L 102.0,162.5 Z M 128.7,208.3 L 102.0,162.5 L 102.0,242.5 Z M 48.1,271.3 L 102.0,271.3 L 102.0,242.5 Z M 48.1,271.3 L 102.0,242.5 L 67.6,242.5 Z M 291.8,271.3 L 291.8,297.5 L 319.9,297.1 Z M 291.8,271.3 L 319.9,297.1 L 319.9,271.3 Z M 147.4,20.0 L 147.4,80.0 L 154.9,108.1 Z M 147.4,20.0 L 154.9,108.1 L 154.9,20.0 Z M 184.9,108.1 L 192.4,80.0 L 192.4,20.0 Z M 184.9,108.1 L 192.4,20.0 L 184.9,20.0 Z M 379.9,207.5 L 319.9,207.5 L 291.8,215.0 Z M 379.9,207.5 L 291.8,215.0 L 379.9,215.0 Z M 291.8,245.0 L 319.9,252.5 L 379.9,252.5 Z M 291.8,245.0 L 379.9,252.5 L 379.9,245.0 Z M 48.1,271.3 L 48.1,297.4 L 128.7,297.8 Z M 48.1,271.3 L 128.7,297.8 L 102.0,271.3 Z M 76.2,136.3 L 48.1,136.3 L 48.1,162.5 Z M 102.0,242.5 L 128.7,242.5 L 128.7,208.3 Z M 128.7,297.8 L 128.7,271.3 L 102.0,271.3 Z M 76.2,108.1 L 76.2,136.3 L 102.0,136.3 Z M 76.2,108.1 L 102.0,136.3 L 128.7,108.1 Z M 128.7,108.1 L 102.0,136.3 L 130.2,136.3 Z M 128.7,108.1 L 130.2,136.3 L 154.9,108.1 Z M 154.9,108.1 L 130.2,136.3 L 129.4,162.5 Z M 154.9,108.1 L 129.4,162.5 L 184.9,108.1 Z M 184.9,108.1 L 129.4,162.5 L 201.5,185.3 Z M 184.9,108.1 L 201.5,185.3 L 211.2,108.1 Z M 211.2,108.1 L 201.5,185.3 L 263.7,136.3 Z M 211.2,108.1 L 263.7,136.3 L 263.7,108.1 Z M 291.8,215.0 L 291.8,188.8 L 263.7,136.3 Z M 291.8,188.8 L 291.8,136.3 L 263.7,136.3 Z M 291.8,297.5 L 291.8,271.3 L 237.4,297.5 Z M 291.8,271.3 L 291.8,245.0 L 237.4,297.5 Z M 182.4,188.8 L 211.2,208.3 L 201.5,185.3 Z M 211.2,208.3 L 291.8,245.0 L 201.5,185.3 Z M 291.8,245.0 L 291.8,215.0 L 263.7,136.3 Z M 291.8,245.0 L 263.7,136.3 L 201.5,185.3 Z M 184.9,20.0 L 154.9,20.0 L 154.9,108.1 Z M 184.9,20.0 L 154.9,108.1 L 184.9,108.1 Z M 379.9,245.0 L 379.9,215.0 L 291.8,215.0 Z M 379.9,245.0 L 291.8,215.0 L 291.8,245.0 Z M 129.4,162.5 L 157.4,188.8 L 182.4,188.8 Z M 129.4,162.5 L 182.4,188.8 L 201.5,185.3 Z M 211.2,208.3 L 211.2,297.5 L 237.4,297.5 Z M 211.2,208.3 L 237.4,297.5 L 291.8,245.0 Z M 129.4,162.5 L 128.7,208.3 L 157.4,188.8 Z M 20.1,162.5 L 20.2,188.8 L 48.1,188.8 Z M 20.1,162.5 L 48.1,188.8 L 48.1,162.5 Z M 48.1,162.5 L 48.1,188.8 L 67.6,217.5 Z M 48.1,162.5 L 67.6,217.5 L 102.0,162.5 Z M 102.0,162.5 L 67.6,217.5 L 67.6,242.5 Z M 102.0,162.5 L 67.6,242.5 L 102.0,242.5 Z M 237.4,380.0 L 291.8,380.0 L 291.8,351.9 Z M 237.4,380.0 L 291.8,351.9 L 237.4,351.9 Z M 237.4,351.9 L 291.8,351.9 L 291.8,323.8 Z M 237.4,351.9 L 291.8,323.8 L 237.4,323.8 Z M 319.9,323.8 L 291.8,323.8 L 291.8,351.9 Z M 319.9,323.8 L 291.8,351.9 L 319.9,351.9 Z M 20.0,351.9 L 48.1,351.9 L 48.1,297.4 Z M 20.0,351.9 L 48.1,297.4 L 20.1,297.2 Z M 48.1,380.0 L 128.7,379.9 L 128.7,297.8 Z M 48.1,380.0 L 128.7,297.8 L 48.1,351.9 Z M 48.1,351.9 L 128.7,297.8 L 48.1,297.4 Z M 319.9,323.8 L 319.9,271.3 L 319.9,297.1 Z" fill="#2a2a4e" stroke="none"/>
  <path d="M 287.8,262.5 L 278.2,200.3 M 278.2,200.3 L 226.2,226.2 M 226.2,226.2 L 248.3,277.7 M 248.3,277.7 L 287.8,262.5 M 122.4,186.4 L 145.4,150.8 M 145.4,150.8 L 109.8,127.9 M 109.8,127.9 L 86.9,163.5 M 86.9,163.5 L 122.4,186.4 M 250.7,220.9 L 273.6,185.3 M 273.6,185.3 L 238.1,162.4 M 238.1,162.4 L 215.1,197.9 M 215.1,197.9 L 250.7,220.9 M 108.4,291.0 L 131.4,255.4 M 131.4,255.4 L 95.8,232.5 M 95.8,232.5 L 72.9,268.1 M 72.9,268.1 L 108.4,291.0 M 48.1,108.1 L 20.0,108.1 M 20.0,108.1 L 20.1,136.3 M 76.2,80.0 L 48.1,80.0 M 48.1,80.0 L 48.1,108.1 M 319.9,136.3 L 319.9,108.1 M 319.9,108.1 L 291.8,108.1 M 291.8,108.1 L 291.8,80.0 M 291.8,80.0 L 263.7,80.0 M 211.2,379.9 L 237.4,380.0 M 211.2,351.9 L 211.2,379.9 M 211.2,297.5 L 211.2,323.8 M 128.7,271.3 L 128.7,242.5 M 20.1,136.3 L 20.1,162.5 M 147.4,80.0 L 128.7,80.0 M 211.2,80.0 L 192.4,80.0 M 319.9,207.5 L 319.8,188.8 M 319.9,271.3 L 319.9,252.5 M 20.2,271.3 L 20.1,297.2 M 48.1,271.3 L 20.2,271.3 M 128.7,80.0 L 76.2,80.0 M 211.2,323.8 L 211.2,351.9 M 263.7,80.0 L 211.2,80.0 M 319.8,188.8 L 319.9,136.3 M 67.6,242.5 L 48.1,271.3 M 147.4,20.0 L 147.4,80.0 M 154.9,20.0 L 147.4,20.0 M 192.4,80.0 L 192.4,20.0 M 192.4,20.0 L 184.9,20.0 M 379.9,207.5 L 319.9,207.5 M 379.9,215.0 L 379.9,207.5 M 319.9,252.5 L 379.9,252.5 M 379.9,252.5 L 379.9,245.0 M 128.7,242.5 L 128.7,208.3 M 128.7,297.8 L 128.7,271.3 M 182.4,188.8 L 211.2,208.3 M 184.9,20.0 L 154.9,20.0 M 379.9,245.0 L 379.9,215.0 M 157.4,188.8 L 182.4,188.8 M 211.2,208.3 L 211.2,297.5 M 128.7,208.3 L 157.4,188.8 M 20.1,162.5 L 20.2,188.8 M 20.2,188.8 L 48.1,188.8 M 48.1,188.8 L 67.6,217.5 M 67.6,217.5 L 67.6,242.5 M 237.4,380.0 L 291.8,380.0 M 291.8,380.0 L 291.8,351.9 M 291.8,351.9 L 319.9,351.9 M 319.9,351.9 L 319.9,323.8 M 20.0,351.9 L 48.1,351.9 M 20.1,297.2 L 20.0,351.9 M 48.1,380.0 L 128.7,379.9 M 128.7,379.9 L 128.7,297.8 M 48.1,351.9 L 48.1,380.0 M 319.9,323.8 L 319.9,271.3" fill="none" stroke="white" stroke-width="2" stroke-linecap="round"/>
  <polygon points="171.953016030005,58.70010437609689 179.953016030005,66.70010437609689 171.953016030005,74.70010437609689 163.953016030005,66.70010437609689" fill="#4a9eff" stroke="white" stroke-width="1"/>
<polygon points="329.4754645980489,222.97881288798868 337.4754645980489,230.97881288798868 329.4754645980489,238.97881288798868 321.4754645980489,230.97881288798868" fill="#4a9eff" stroke="white" stroke-width="1"/>
</svg>