<svg xmlns="http://www.w3.org/2000/svg" viewBox="0 0 400 400">
  <rect width="400" height="400" fill="#1a1a2e"/>
  <path d="M 185.2,162.4 L 228.8,181.2 L 252.3,130.0 Z M 185.2,162.4 L 252.3,130.0 L 208.7,111.2 Z M 152.5,247.0 L 160.8,300.3 L 205.3,278.1 Z M 152.5,247.0 L 205.3,278.1 L 186.4,233.9 Z M 159.7,279.6 L 140.0,310.1 L 170.5,329.7 Z M 159.7,279.6 L 170.5,329.7 L 190.2,299.3 Z M 86.0,240.8 L 66.3,271.3 L 96.8,291.0 Z M 86.0,240.8 L 96.8,291.0 L 116.4,260.5 Z M 206.7,280.4 L 228.9,280.4 L 253.0,257.9 Z M 206.7,280.4 L 253.0,257.9 L 206.7,257.9 Z M 229.7,95.7 L 228.9,71.4 L 183.9,71.4 Z M 229.7,95.7 L 183.9,71.4 L 184.7,95.7 Z M 253.0,164.6 L 276.8,164.6 L 277.0,119.6 Z M 253.0,164.6 L 277.0,119.6 L 253.0,119.6 Z M 183.9,328.6 L 228.9,328.6 L 228.9,304.5 Z M 183.9,328.6 L 228.9,304.5 L 183.9,304.5 Z M 90.7,119.6 L 113.2,119.6 L 113.2,95.5 Z M 90.7,119.6 L 113.2,95.5 L 90.7,95.5 Z M 44.2,164.6 L 44.0,142.1 L 20.1,142.1 Z M 44.2,164.6 L 20.1,142.1 L 20.2,164.6 Z M 113.2,304.5 L 68.2,304.5 L 68.2,328.6 Z M 113.2,304.5 L 68.2,328.6 L 113.2,328.6 Z M 44.0,235.4 L 20.2,235.4 L 20.1,280.4 Z M 44.0,235.4 L 20.1,280.4 L 44.0,280.4 Z M 44.0,142.1 L 90.7,142.1 L 90.7,119.6 Z M 44.0,142.1 L 90.7,119.6 L 44.0,119.6 Z M 205.4,189.3 L 205.4,210.7 L 236.2,210.7 Z M 205.4,189.3 L 236.2,210.7 L 236.2,189.3 Z M 182.8,258.1 L 206.7,257.9 L 188.7,235.4 Z M 182.8,258.1 L 188.7,235.4 L 182.9,235.3 Z M 167.8,380.0 L 167.8,328.6 L 161.4,304.5 Z M 167.8,380.0 L 161.4,304.5 L 161.4,380.0 Z M 135.7,304.5 L 129.2,328.6 L 129.2,380.0 Z M 135.7,304.5 L 129.2,380.0 L 135.7,380.0 Z M 129.2,20.0 L 129.2,71.4 L 135.7,95.5 Z M 129.2,20.0 L 135.7,95.5 L 135.7,20.0 Z M 162.2,95.7 L 167.8,71.4 L 167.8,20.0 Z M 162.2,95.7 L 167.8,20.0 L 161.4,20.0 Z M 228.9,280.4 L 253.0,280.4 L 253.0,257.9 Z M 206.7,257.9 L 205.4,210.7 L 188.7,235.4 Z M 228.9,304.5 L 228.9,280.4 L 206.7,280.4 Z M 228.9,304.5 L 206.7,280.4 L 183.9,304.5 Z M 183.9,304.5 L 206.7,280.4 L 182.6,280.4 Z M 183.9,304.5 L 182.6,280.4 L 161.4,304.5 Z M 161.4,304.5 L 182.6,280.4 L 182.8,258.1 Z M 161.4,304.5 L 182.8,258.1 L 135.7,304.5 Z M 135.7,304.5 L 182.8,258.1 L 182.9,235.3 Z M 135.7,304.5 L 182.9,235.3 L 44.0,235.4 Z M 229.7,119.9 L 229.7,95.7 L 184.7,95.7 Z M 229.7,119.9 L 184.7,95.7 L 188.7,164.6 Z M 188.7,164.6 L 184.7,95.7 L 162.2,95.7 Z M 188.7,164.6 L 162.2,95.7 L 135.7,95.5 Z M 205.4,189.3 L 236.2,189.3 L 253.0,164.6 Z M 205.4,189.3 L 253.0,164.6 L 188.7,164.6 Z M 188.7,164.6 L 253.0,164.6 L 253.0,119.6 Z M 188.7,164.6 L 253.0,119.6 L 229.7,119.9 Z M 90.7,142.1 L 44.2,164.6 L 188.7,164.6 Z M 90.7,142.1 L 188.7,164.6 L 113.2,142.1 Z M 113.2,142.1 L 188.7,164.6 L 135.7,95.5 Z M 113.2,142.1 L 135.7,95.5 L 113.2,119.6 Z M 135.7,304.5 L 44.0,235.4 L 68.2,280.4 Z M 135.7,304.5 L 68.2,280.4 L 113.2,304.5 Z M 135.7,380.0 L 161.4,380.0 L 161.4,304.5 Z M 135.7,380.0 L 161.4,304.5 L 135.7,304.5 Z M 161.4,20.0 L 135.7,20.0 L 135.7,95.5 Z M 161.4,20.0 L 135.7,95.5 L 162.2,95.7 Z M 44.0,235.4 L 44.0,280.4 L 68.2,280.4 Z M 135.7,95.5 L 113.2,95.5 L 113.2,119.6 Z M 68.2,280.4 L 68.2,304.5 L 113.2,304.5 Z M 90.7,142.1 L 44.0,142.1 L 44.2,164.6 Z M 253.0,95.5 L 253.0,119.6 L 277.0,119.6 Z M 253.0,95.5 L 277.0,119.6 L 277.0,95.5 Z M 229.7,95.7 L 229.7,119.9 L 253.0,119.6 Z M 229.7,95.7 L 253.0,119.6 L 253.0,95.5 Z M 228.9,71.4 L 229.7,95.7 L 253.0,95.5 Z M 228.9,71.4 L 253.0,95.5 L 253.0,71.4 Z M 277.0,280.4 L 253.0,280.4 L 253.0,304.5 Z M 277.0,280.4 L 253.0,304.5 L 277.0,304.5 Z M 253.0,280.4 L 228.9,280.4 L 228.9,304.5 Z M 253.0,280.4 L 228.9,304.5 L 253.0,304.5 Z M 253.0,304.5 L 228.9,304.5 L 228.9,328.6 Z M 253.0,304.5 L 228.9,328.6 L 253.0,328.6 Z M 44.0,304.5 L 44.0,280.4 L 20.1,280.4 Z M 44.0,304.5 L 20.1,280.4 L 20.0,304.5 Z M 68.2,304.5 L 68.2,280.4 L 44.0,280.4 Z M 68.2,304.5 L 44.0,280.4 L 44.0,304.5 Z M 68.2,328.6 L 68.2,304.5 L 44.0,304.5 Z M 68.2,328.6 L 44.0,304.5 L 44.0,328.6 Z M 44.0,142.1 L 44.0,119.6 L 20.1,119.6 Z M 44.0,142.1 L 20.1,119.6 L 20.1,142.1 Z M 113.2,71.4 L 90.7,71.4 L 90.7,95.5 Z M 113.2,71.4 L 90.7,95.5 L 113.2,95.5 Z M 113.2,142.1 L 113.2,119.6 L 90.7,119.6 Z M 113.2,142.1 L 90.7,119.6 L 90.7,142.1 Z M 277.0,280.4 L 276.9,257.9 L 253.0,257.9 Z M 277.0,280.4 L 253.0,257.9 L 253.0,280.4 Z M 206.7,257.9 L 182.8,258.1 L 182.6,280.4 Z M 206.7,257.9 L 182.6,280.4 L 206.7,280.4 Z M 167.8,328.6 L 183.9,328.6 L 183.9,304.5 Z M 167.8,328.6 L 183.9,304.5 L 161.4,304.5 Z M 135.7,304.5 L 113.2,304.5 L 113.2,328.6 Z M 135.7,304.5 L 113.2,328.6 L 129.2,328.6 Z M 129.2,71.4 L 113.2,71.4 L 113.2,95.5 Z M 129.2,71.4 L 113.2,95.5 L 135.7,95.5 Z M 162.2,95.7 L 184.7,95.7 L 183.9,71.4 Z M 162.2,95.7 L 183.9,71.4 L 167.8,71.4 Z M 276.9,257.9 L 276.8,235.4 L 253.0,235.4 Z M 276.9,257.9 L 253.0,235.4 L 253.0,257.9 Z M 253.0,257.9 L 253.0,235.4 L 236.2,210.7 Z M 253.0,257.9 L 236.2,210.7 L 206.7,257.9 Z M 20.0,95.5 L 20.1,119.6 L 44.0,119.6 Z M 20.0,95.5 L 44.0,119.6 L 44.0,95.5 Z M 44.0,95.5 L 44.0,119.6 L 90.7,119.6 Z M 44.0,95.5 L 90.7,119.6 L 90.7,95.5 Z M 90.7,71.4 L 44.0,71.4 L 44.0,95.5 Z M 90.7,71.4 L 44.0,95.5 L 90.7,95.5 Z M 206.7,257.9 L 236.2,210.7 L 205.4,210.7 Z" fill="#2a2a4e" stroke="none"/>
  <path d="M 185.2,162.4 L 228.8,181.2 M 228.8,181.2 L 252.3,130.0 M 252.3,130.0 L 208.7,111.2 M 208.7,111.2 L 185.2,162.4 M 152.5,247.0 L 160.8,300.3 M 160.8,300.3 L 205.3,278.1 M 205.3,278.1 L 186.4,233.9 M 186.4,233.9 L 152.5,247.0 M 159.7,279.6 L 140.0,310.1 M 140.0,310.1 L 170.5,329.7 M 170.5,329.7 L 190.2,299.3 M 190.2,299.3 L 159.7,279.6 M 86.0,240.8 L 66.3,271.3 M 66.3,271.3 L 96.8,291.0 M 96.8,291.0 L 116.4,260.5 M 116.4,260.5 L 86.0,240.8 M 228.9,71.4 L 183.9,71.4 M 253.0,164.6 L 276.8,164.6 M 276.8,164.6 L 277.0,119.6 M 183.9,328.6 L 228.9,328.6 M 20.1,142.1 L 20.2,164.6 M 20.2,164.6 L 44.2,164.6 M 68.2,328.6 L 113.2,328.6 M 44.0,235.4 L 20.2,235.4 M 20.2,235.4 L 20.1,280.4 M 205.4,189.3 L 205.4,210.7 M 236.2,210.7 L 236.2,189.3 M 188.7,235.4 L 182.9,235.3 M 167.8,380.0 L 167.8,328.6 M 161.4,380.0 L 167.8,380.0 M 129.2,328.6 L 129.2,380.0 M 129.2,380.0 L 135.7,380.0 M 129.2,20.0 L 129.2,71.4 M 135.7,20.0 L 129.2,20.0 M 167.8,71.4 L 167.8,20.0 M 167.8,20.0 L 161.4,20.0 M 205.4,210.7 L 188.7,235.4 M 182.9,235.3 L 44.0,235.4 M 236.2,189.3 L 253.0,164.6 M 188.7,164.6 L 205.4,189.3 M 44.2,164.6 L 188.7,164.6 M 135.7,380.0 L 161.4,380.0 M 161.4,20.0 L 135.7,20.0 M 277.0,119.6 L 277.0,95.5 M 277.0,95.5 L 253.0,95.5 M 253.0,95.5 L 253.0,71.4 M 253.0,71.4 L 228.9,71.4 M 253.0,304.5 L 277.0,304.5 M 277.0,304.5 L 277.0,280.4 M 228.9,328.6 L 253.0,328.6 M 253.0,328.6 L 253.0,304.5 M 20.1,280.4 L 20.0,304.5 M 20.0,304.5 L 44.0,304.5 M 44.0,304.5 L 44.0,328.6 M 44.0,328.6 L 68.2,328.6 M 20.1,119.6 L 20.1,142.1 M 113.2,71.4 L 90.7,71.4 M 277.0,280.4 L 276.9,257.9 M 167.8,328.6 L 183.9,328.6 M 113.2,328.6 L 129.2,328.6 M 129.2,71.4 L 113.2,71.4 M 183.9,71.4 L 167.8,71.4 M 276.9,257.9 L 276.8,235.4 M 276.8,235.4 L 253.0,235.4 M 253.0,235.4 L 236.2,210.7 M 20.0,95.5 L 20.1,119.6 M 44.0,95.5 L 20.0,95.5 M 90.7,71.4 L 44.0,71.4 M 44.0,71.4 L 44.0,95.5" fill="none" stroke="white" stroke-width="2" stroke-linecap="round"/>
  <polygon points="148.5973686234355,56.883047559583886 156.5973686234355,64.88304755958389 148.5973686234355,72.88304755958389 140.5973686234355,64.88304755958389" fill="#4a9eff" stroke="white" stroke-width="1"/>
<polygon points="147.6877430070814,328.5197621487575 155.6877430070814,336.5197621487575 147.6877430070814,344.5197621487575 139.6877430070814,336.5197621487575" fill="#4a9eff" stroke="white" stroke-width="1"/>
</svg>