<svg xmlns="http://www.w3.org/2000/svg" viewBox="0 0 400 400">
  <rect width="400" height="400" fill="#1a1a2e"/>
  <path d="M 106.3,242.1 L 190.7,242.1 L 190.8,157.9 Z M 106.3,242.1 L 190.8,157.9 L 106.2,157.9 Z M 189.2,237.4 L 169.6,267.9 L 200.0,287.5 Z M 189.2,237.4 L 200.0,287.5 L 219.7,257.0 Z M 83.7,163.0 L 91.9,216.2 L 136.5,194.1 Z M 83.7,163.0 L 136.5,194.1 L 117.5,149.9 Z M 185.2,162.4 L 228.8,181.2 L 252.3,130.0 Z M 185.2,162.4 L 252.3,130.0 L 208.7,111.2 Z M 115.5,198.6 L 95.8,229.1 L 126.3,248.8 Z M 115.5,198.6 L 126.3,248.8 L 146.0,218.3 Z M 167.8,380.0 L 167.8,328.6 L 161.4,304.5 Z M 167.8,380.0 L 161.4,304.5 L 161.4,380.0 Z M 183.9,71.4 L 183.9,95.5 L 229.7,95.7 Z M 183.9,71.4 L 229.7,95.7 L 228.9,71.4 Z M 276.8,164.6 L 277.0,119.6 L 253.0,119.6 Z M 276.8,164.6 L 253.0,119.6 L 253.0,164.6 Z M 228.9,328.6 L 228.9,304.5 L 183.9,304.5 Z M 228.9,328.6 L 183.9,304.5 L 183.9,328.6 Z M 253.0,280.4 L 277.0,280.4 L 276.8,235.4 Z M 253.0,280.4 L 276.8,235.4 L 253.0,235.4 Z M 20.1,119.6 L 20.2,164.6 L 44.0,164.6 Z M 20.1,119.6 L 44.0,164.6 L 44.0,119.6 Z M 68.2,304.5 L 68.2,328.6 L 113.2,328.6 Z M 68.2,304.5 L 113.2,328.6 L 113.2,304.5 Z M 20.2,235.4 L 20.1,280.4 L 44.0,280.4 Z M 20.2,235.4 L 44.0,280.4 L 44.0,235.4 Z M 113.2,71.4 L 67.3,71.4 L 67.3,95.5 Z M 113.2,71.4 L 67.3,95.5 L 113.2,95.5 Z M 135.7,304.5 L 129.2,328.6 L 129.2,380.0 Z M 135.7,304.5 L 129.2,380.0 L 135.7,380.0 Z M 129.2,20.0 L 129.2,71.4 L 136.3,95.8 Z M 129.2,20.0 L 136.3,95.8 L 135.7,20.0 Z M 161.4,95.5 L 167.8,71.4 L 167.8,20.0 Z M 161.4,95.5 L 167.8,20.0 L 161.4,20.0 Z M 90.5,234.7 L 106.3,242.1 L 106.2,157.9 Z M 90.5,234.7 L 106.2,157.9 L 90.4,165.3 Z M 190.8,157.9 L 190.7,242.1 L 206.5,234.7 Z M 190.8,157.9 L 206.5,234.7 L 206.6,165.3 Z M 190.7,242.1 L 106.3,242.1 L 113.7,257.9 Z M 190.7,242.1 L 113.7,257.9 L 183.3,257.9 Z M 190.8,157.9 L 183.4,142.1 L 113.6,142.1 Z M 190.8,157.9 L 113.6,142.1 L 106.2,157.9 Z M 67.3,71.4 L 44.0,71.4 L 44.0,95.5 Z M 67.3,71.4 L 44.0,95.5 L 67.3,95.5 Z M 67.3,95.5 L 44.0,95.5 L 44.0,119.6 Z M 67.3,95.5 L 44.0,119.6 L 67.3,119.6 Z M 253.0,95.5 L 253.0,119.6 L 277.0,119.6 Z M 253.0,95.5 L 277.0,119.6 L 277.0,95.5 Z M 229.7,95.7 L 229.7,119.9 L 253.0,119.6 Z M 229.7,95.7 L 253.0,119.6 L 253.0,95.5 Z M 228.9,71.4 L 229.7,95.7 L 253.0,95.5 Z M 228.9,71.4 L 253.0,95.5 L 253.0,71.4 Z M 277.0,280.4 L 253.0,280.4 L 253.0,304.5 Z M 277.0,280.4 L 253.0,304.5 L 277.0,304.5 Z M 253.0,280.4 L 228.9,280.4 L 228.9,304.5 Z M 253.0,280.4 L 228.9,304.5 L 253.0,304.5 Z M 253.0,304.5 L 228.9,304.5 L 228.9,328.6 Z M 253.0,304.5 L 228.9,328.6 L 253.0,328.6 Z M 20.1,119.6 L 44.0,119.6 L 44.0,95.5 Z M 20.1,119.6 L 44.0,95.5 L 20.0,95.5 Z M 44.0,304.5 L 44.0,280.4 L 20.1,280.4 Z M 44.0,304.5 L 20.1,280.4 L 20.0,304.5 Z M 68.2,304.5 L 68.2,280.4 L 44.0,280.4 Z M 68.2,304.5 L 44.0,280.4 L 44.0,304.5 Z M 68.2,328.6 L 68.2,304.5 L 44.0,304.5 Z M 68.2,328.6 L 44.0,304.5 L 44.0,328.6 Z M 167.8,328.6 L 183.9,328.6 L 183.9,304.5 Z M 167.8,328.6 L 183.9,304.5 L 161.4,304.5 Z M 135.7,304.5 L 113.2,304.5 L 113.2,328.6 Z M 135.7,304.5 L 113.2,328.6 L 129.2,328.6 Z M 129.2,71.4 L 113.2,71.4 L 113.2,95.5 Z M 129.2,71.4 L 113.2,95.5 L 136.3,95.8 Z M 161.4,95.5 L 183.9,95.5 L 183.9,71.4 Z M 161.4,95.5 L 183.9,71.4 L 167.8,71.4 Z M 90.5,234.7 L 90.6,257.9 L 113.7,257.9 Z M 90.5,234.7 L 113.7,257.9 L 106.3,242.1 Z M 90.4,165.3 L 106.2,157.9 L 113.6,142.1 Z M 90.4,165.3 L 113.6,142.1 L 90.3,142.1 Z M 206.6,165.3 L 206.7,142.1 L 183.4,142.1 Z M 206.6,165.3 L 183.4,142.1 L 190.8,157.9 Z M 206.5,234.7 L 190.7,242.1 L 183.3,257.9 Z M 206.5,234.7 L 183.3,257.9 L 206.5,257.9 Z M 206.7,142.1 L 183.9,95.5 L 161.4,95.5 Z M 206.7,142.1 L 161.4,95.5 L 183.4,142.1 Z M 183.4,142.1 L 161.4,95.5 L 136.3,95.8 Z M 183.4,142.1 L 136.3,95.8 L 113.6,142.1 Z M 113.6,142.1 L 136.3,95.8 L 113.2,95.5 Z M 113.6,142.1 L 113.2,95.5 L 90.3,142.1 Z M 90.3,142.1 L 113.2,95.5 L 67.3,95.5 Z M 90.3,142.1 L 67.3,95.5 L 67.3,119.6 Z M 44.0,280.4 L 68.2,280.4 L 90.6,257.9 Z M 44.0,280.4 L 90.6,257.9 L 44.0,235.4 Z M 44.0,235.4 L 90.6,257.9 L 90.5,234.7 Z M 44.0,235.4 L 90.5,234.7 L 60.8,210.7 Z M 60.8,210.7 L 90.5,234.7 L 90.4,165.3 Z M 60.8,210.7 L 90.4,165.3 L 60.8,189.3 Z M 60.8,189.3 L 90.4,165.3 L 90.3,142.1 Z M 60.8,189.3 L 90.3,142.1 L 44.0,164.6 Z M 44.0,164.6 L 90.3,142.1 L 67.3,119.6 Z M 44.0,164.6 L 67.3,119.6 L 44.0,119.6 Z M 228.9,304.5 L 228.9,280.4 L 206.5,257.9 Z M 228.9,304.5 L 206.5,257.9 L 183.9,304.5 Z M 183.9,304.5 L 206.5,257.9 L 183.3,257.9 Z M 183.9,304.5 L 183.3,257.9 L 161.4,304.5 Z M 161.4,304.5 L 183.3,257.9 L 113.7,257.9 Z M 161.4,304.5 L 113.7,257.9 L 135.7,304.5 Z M 135.7,304.5 L 113.7,257.9 L 90.6,257.9 Z M 135.7,304.5 L 90.6,257.9 L 113.2,304.5 Z M 113.2,304.5 L 90.6,257.9 L 68.2,280.4 Z M 113.2,304.5 L 68.2,280.4 L 68.2,304.5 Z M 253.0,164.6 L 206.7,142.1 L 206.6,165.3 Z M 253.0,164.6 L 206.6,165.3 L 236.2,189.3 Z M 236.2,189.3 L 206.6,165.3 L 206.5,234.7 Z M 236.2,189.3 L 206.5,234.7 L 236.2,210.7 Z M 236.2,210.7 L 206.5,234.7 L 206.5,257.9 Z M 236.2,210.7 L 206.5,257.9 L 253.0,235.4 Z M 253.0,235.4 L 206.5,257.9 L 228.9,280.4 Z M 253.0,235.4 L 228.9,280.4 L 253.0,280.4 Z M 229.7,95.7 L 183.9,95.5 L 206.7,142.1 Z M 229.7,95.7 L 206.7,142.1 L 229.7,119.9 Z M 229.7,119.9 L 206.7,142.1 L 253.0,164.6 Z M 229.7,119.9 L 253.0,164.6 L 253.0,119.6 Z M 135.7,380.0 L 161.4,380.0 L 161.4,304.5 Z M 135.7,380.0 L 161.4,304.5 L 135.7,304.5 Z M 161.4,20.0 L 135.7,20.0 L 136.3,95.8 Z M 161.4,20.0 L 136.3,95.8 L 161.4,95.5 Z" fill="#2a2a4e" stroke="none"/>
  <path d="M 189.2,237.4 L 169.6,267.9 M 169.6,267.9 L 200.0,287.5 M 200.0,287.5 L 219.7,257.0 M 219.7,257.0 L 189.2,237.4 M 83.7,163.0 L 91.9,216.2 M 91.9,216.2 L 136.5,194.1 M 136.5,194.1 L 117.5,149.9 M 117.5,149.9 L 83.7,163.0 M 185.2,162.4 L 228.8,181.2 M 228.8,181.2 L 252.3,130.0 M 252.3,130.0 L 208.7,111.2 M 208.7,111.2 L 185.2,162.4 M 115.5,198.6 L 95.8,229.1 M 95.8,229.1 L 126.3,248.8 M 126.3,248.8 L 146.0,218.3 M 146.0,218.3 L 115.5,198.6 M 167.8,380.0 L 167.8,328.6 M 161.4,380.0 L 167.8,380.0 M 228.9,71.4 L 183.9,71.4 M 276.8,164.6 L 277.0,119.6 M 253.0,164.6 L 276.8,164.6 M 183.9,328.6 L 228.9,328.6 M 277.0,280.4 L 276.8,235.4 M 276.8,235.4 L 253.0,235.4 M 20.1,119.6 L 20.2,164.6 M 20.2,164.6 L 44.0,164.6 M 68.2,328.6 L 113.2,328.6 M 20.2,235.4 L 20.1,280.4 M 44.0,235.4 L 20.2,235.4 M 113.2,71.4 L 67.3,71.4 M 129.2,328.6 L 129.2,380.0 M 129.2,380.0 L 135.7,380.0 M 129.2,20.0 L 129.2,71.4 M 135.7,20.0 L 129.2,20.0 M 167.8,71.4 L 167.8,20.0 M 167.8,20.0 L 161.4,20.0 M 67.3,71.4 L 44.0,71.4 M 44.0,71.4 L 44.0,95.5 M 277.0,119.6 L 277.0,95.5 M 277.0,95.5 L 253.0,95.5 M 253.0,95.5 L 253.0,71.4 M 253.0,71.4 L 228.9,71.4 M 253.0,304.5 L 277.0,304.5 M 277.0,304.5 L 277.0,280.4 M 228.9,328.6 L 253.0,328.6 M 253.0,328.6 L 253.0,304.5 M 44.0,95.5 L 20.0,95.5 M 20.0,95.5 L 20.1,119.6 M 20.1,280.4 L 20.0,304.5 M 20.0,304.5 L 44.0,304.5 M 44.0,304.5 L 44.0,328.6 M 44.0,328.6 L 68.2,328.6 M 167.8,328.6 L 183.9,328.6 M 113.2,328.6 L 129.2,328.6 M 129.2,71.4 L 113.2,71.4 M 183.9,71.4 L 167.8,71.4 M 60.8,210.7 L 44.0,235.4 M 60.8,189.3 L 60.8,210.7 M 44.0,164.6 L 60.8,189.3 M 236.2,189.3 L 253.0,164.6 M 236.2,210.7 L 236.2,189.3 M 253.0,235.4 L 236.2,210.7 M 135.7,380.0 L 161.4,380.0 M 161.4,20.0 L 135.7,20.0" fill="none" stroke="white" stroke-width="2" stroke-linecap="round"/>
  <polygon points="148.34058188069096,328.93824906569154 156.34058188069096,336.93824906569154 148.34058188069096,344.93824906569154 140.34058188069096,336.93824906569154" fill="#4a9eff" stroke="white" stroke-width="1"/>
<polygon points="148.05526050493378,57.43188462068814 156.05526050493378,65.43188462068814 148.05526050493378,73.43188462068814 140.05526050493378,65.43188462068814" fill="#4a9eff" stroke="white" stroke-width="1"/>
</svg>