<svg xmlns="http://www.w3.org/2000/svg" viewBox="0 0 400 400">
  <rect width="400" height="400" fill="#1a1a2e"/>
  <path d="M 212.7,126.1 L 263.5,148.0 L 291.0,88.4 Z M 212.7,126.1 L 291.0,88.4 L 240.2,66.4 Z M 59.8,176.0 L 69.4,238.2 L 121.5,212.3 Z M 59.8,176.0 L 121.5,212.3 L 99.3,160.8 Z M 183.0,262.9 L 160.0,298.4 L 195.6,321.3 Z M 183.0,262.9 L 195.6,321.3 L 218.5,285.8 Z M 96.9,217.7 L 74.0,253.2 L 109.6,276.1 Z M 96.9,217.7 L 109.6,276.1 L 132.5,240.6 Z M 236.4,182.5 L 216.8,211.3 L 237.8,237.5 Z M 216.8,211.3 L 209.9,237.8 L 237.8,237.5 Z M 237.8,263.8 L 263.7,263.8 L 291.8,237.5 Z M 237.8,263.8 L 291.8,237.5 L 237.8,237.5 Z M 264.6,48.4 L 263.7,20.0 L 211.2,20.1 Z M 264.6,48.4 L 211.2,20.1 L 211.2,48.1 Z M 291.8,128.8 L 319.6,128.8 L 319.8,76.3 Z M 291.8,128.8 L 319.8,76.3 L 291.8,76.3 Z M 211.2,320.0 L 263.7,320.0 L 263.7,291.9 Z M 211.2,320.0 L 263.7,291.9 L 211.2,291.9 Z M 102.4,76.3 L 128.7,76.3 L 128.7,48.1 Z M 102.4,76.3 L 128.7,48.1 L 102.4,48.1 Z M 48.1,128.8 L 48.1,102.5 L 20.1,102.5 Z M 48.1,128.8 L 20.1,102.5 L 20.2,128.8 Z M 128.7,291.9 L 76.2,291.9 L 76.2,320.0 Z M 128.7,291.9 L 76.2,320.0 L 128.7,320.0 Z M 48.1,211.3 L 20.2,211.3 L 20.1,263.8 Z M 48.1,211.3 L 20.1,263.8 L 48.1,263.8 Z M 48.1,102.5 L 102.4,102.5 L 102.4,76.3 Z M 48.1,102.5 L 102.4,76.3 L 48.1,76.3 Z M 236.4,157.5 L 236.4,182.5 L 272.2,182.5 Z M 236.4,157.5 L 272.2,182.5 L 272.2,157.5 Z M 192.4,380.0 L 192.4,320.0 L 184.9,291.9 Z M 192.4,380.0 L 184.9,291.9 L 184.9,380.0 Z M 154.9,291.9 L 147.4,320.0 L 147.4,380.0 Z M 154.9,291.9 L 147.4,380.0 L 154.9,380.0 Z M 263.7,263.8 L 291.8,263.8 L 291.8,237.5 Z M 291.8,48.1 L 291.8,76.3 L 319.8,76.3 Z M 291.8,48.1 L 319.8,76.3 L 319.9,48.1 Z M 264.6,48.4 L 264.6,76.5 L 291.8,76.3 Z M 264.6,48.4 L 291.8,76.3 L 291.8,48.1 Z M 263.7,20.0 L 264.6,48.4 L 291.8,48.1 Z M 263.7,20.0 L 291.8,48.1 L 291.8,20.0 Z M 319.8,263.8 L 291.8,263.8 L 291.8,291.9 Z M 319.8,263.8 L 291.8,291.9 L 319.9,291.9 Z M 291.8,263.8 L 263.7,263.8 L 263.7,291.9 Z M 291.8,263.8 L 263.7,291.9 L 291.8,291.9 Z M 291.8,291.9 L 263.7,291.9 L 263.7,320.0 Z M 291.8,291.9 L 263.7,320.0 L 291.8,320.0 Z M 48.1,291.9 L 48.1,263.8 L 20.1,263.8 Z M 48.1,291.9 L 20.1,263.8 L 20.0,291.9 Z M 76.2,291.9 L 76.2,263.8 L 48.1,263.8 Z M 76.2,291.9 L 48.1,263.8 L 48.1,291.9 Z M 76.2,320.0 L 76.2,291.9 L 48.1,291.9 Z M 76.2,320.0 L 48.1,291.9 L 48.1,320.0 Z M 48.1,102.5 L 48.1,76.3 L 20.1,76.3 Z M 48.1,102.5 L 20.1,76.3 L 20.1,102.5 Z M 128.7,20.1 L 102.4,20.0 L 102.4,48.1 Z M 128.7,20.1 L 102.4,48.1 L 128.7,48.1 Z M 128.7,102.5 L 128.7,76.3 L 102.4,76.3 Z M 128.7,102.5 L 102.4,76.3 L 102.4,102.5 Z M 319.8,263.8 L 319.7,237.5 L 291.8,237.5 Z M 319.8,263.8 L 291.8,237.5 L 291.8,263.8 Z M 237.8,237.5 L 209.9,237.8 L 209.7,263.8 Z M 237.8,237.5 L 209.7,263.8 L 237.8,263.8 Z M 192.4,320.0 L 211.2,320.0 L 211.2,291.9 Z M 192.4,320.0 L 211.2,291.9 L 184.9,291.9 Z M 154.9,291.9 L 128.7,291.9 L 128.7,320.0 Z M 154.9,291.9 L 128.7,320.0 L 147.4,320.0 Z M 48.1,211.3 L 48.1,263.8 L 76.2,263.8 Z M 48.1,211.3 L 76.2,263.8 L 67.6,182.5 Z M 67.6,182.5 L 76.2,263.8 L 123.1,211.3 Z M 67.6,182.5 L 123.1,211.3 L 103.5,182.5 Z M 48.1,102.5 L 48.1,128.8 L 67.6,157.5 Z M 48.1,102.5 L 67.6,157.5 L 102.4,102.5 Z M 102.4,102.5 L 67.6,157.5 L 103.5,157.5 Z M 102.4,102.5 L 103.5,157.5 L 123.1,128.8 Z M 209.7,263.8 L 184.9,291.9 L 211.2,291.9 Z M 209.7,263.8 L 211.2,291.9 L 237.8,263.8 Z M 237.8,263.8 L 211.2,291.9 L 263.7,291.9 Z M 237.8,263.8 L 263.7,291.9 L 263.7,263.8 Z M 264.6,48.4 L 211.2,48.1 L 216.8,128.8 Z M 264.6,48.4 L 216.8,128.8 L 264.6,76.5 Z M 264.6,76.5 L 216.8,128.8 L 291.8,128.8 Z M 264.6,76.5 L 291.8,128.8 L 291.8,76.3 Z M 216.8,211.3 L 123.1,211.3 L 154.9,291.9 Z M 216.8,211.3 L 154.9,291.9 L 209.9,237.8 Z M 209.9,237.8 L 154.9,291.9 L 184.9,291.9 Z M 209.9,237.8 L 184.9,291.9 L 209.7,263.8 Z M 102.4,102.5 L 123.1,128.8 L 216.8,128.8 Z M 102.4,102.5 L 216.8,128.8 L 128.7,102.5 Z M 128.7,102.5 L 216.8,128.8 L 157.4,67.7 Z M 128.7,102.5 L 157.4,67.7 L 128.7,76.3 Z M 76.2,291.9 L 128.7,291.9 L 76.2,263.8 Z M 128.7,291.9 L 123.1,211.3 L 76.2,263.8 Z M 211.2,48.1 L 182.4,67.7 L 216.8,128.8 Z M 182.4,67.7 L 157.4,67.7 L 216.8,128.8 Z M 216.8,128.8 L 236.4,157.5 L 272.2,157.5 Z M 216.8,128.8 L 272.2,157.5 L 291.8,128.8 Z M 154.9,380.0 L 184.9,380.0 L 184.9,291.9 Z M 154.9,380.0 L 184.9,291.9 L 154.9,291.9 Z M 67.6,157.5 L 67.6,182.5 L 103.5,182.5 Z M 67.6,157.5 L 103.5,182.5 L 103.5,157.5 Z M 128.7,291.9 L 154.9,291.9 L 123.1,211.3 Z M 157.4,67.7 L 128.7,48.1 L 128.7,76.3 Z M 319.7,237.5 L 319.6,211.3 L 291.8,211.3 Z M 319.7,237.5 L 291.8,211.3 L 291.8,237.5 Z M 291.8,237.5 L 291.8,211.3 L 272.2,182.5 Z M 291.8,237.5 L 272.2,182.5 L 237.8,237.5 Z M 20.0,48.1 L 20.1,76.3 L 48.1,76.3 Z M 20.0,48.1 L 48.1,76.3 L 48.1,48.1 Z M 48.1,48.1 L 48.1,76.3 L 102.4,76.3 Z M 48.1,48.1 L 102.4,76.3 L 102.4,48.1 Z M 102.4,20.0 L 48.1,20.0 L 48.1,48.1 Z M 102.4,20.0 L 48.1,48.1 L 102.4,48.1 Z M 237.8,237.5 L 272.2,182.5 L 236.4,182.5 Z" fill="#2a2a4e" stroke="none"/>
  <path d="M 212.7,126.1 L 263.5,148.0 M 263.5,148.0 L 291.0,88.4 M 291.0,88.4 L 240.2,66.4 M 240.2,66.4 L 212.7,126.1 M 59.8,176.0 L 69.4,238.2 M 69.4,238.2 L 121.5,212.3 M 121.5,212.3 L 99.3,160.8 M 99.3,160.8 L 59.8,176.0 M 183.0,262.9 L 160.0,298.4 M 160.0,298.4 L 195.6,321.3 M 195.6,321.3 L 218.5,285.8 M 218.5,285.8 L 183.0,262.9 M 96.9,217.7 L 74.0,253.2 M 74.0,253.2 L 109.6,276.1 M 109.6,276.1 L 132.5,240.6 M 132.5,240.6 L 96.9,217.7 M 236.4,182.5 L 216.8,211.3 M 263.7,20.0 L 211.2,20.1 M 211.2,20.1 L 211.2,48.1 M 291.8,128.8 L 319.6,128.8 M 319.6,128.8 L 319.8,76.3 M 211.2,320.0 L 263.7,320.0 M 20.1,102.5 L 20.2,128.8 M 20.2,128.8 L 48.1,128.8 M 76.2,320.0 L 128.7,320.0 M 48.1,211.3 L 20.2,211.3 M 20.2,211.3 L 20.1,263.8 M 236.4,157.5 L 236.4,182.5 M 272.2,182.5 L 272.2,157.5 M 192.4,380.0 L 192.4,320.0 M 184.9,380.0 L 192.4,380.0 M 147.4,320.0 L 147.4,380.0 M 147.4,380.0 L 154.9,380.0 M 319.8,76.3 L 319.9,48.1 M 319.9,48.1 L 291.8,48.1 M 291.8,48.1 L 291.8,20.0 M 291.8,20.0 L 263.7,20.0 M 291.8,291.9 L 319.9,291.9 M 319.9,291.9 L 319.8,263.8 M 263.7,320.0 L 291.8,320.0 M 291.8,320.0 L 291.8,291.9 M 20.1,263.8 L 20.0,291.9 M 20.0,291.9 L 48.1,291.9 M 48.1,291.9 L 48.1,320.0 M 48.1,320.0 L 76.2,320.0 M 20.1,76.3 L 20.1,102.5 M 128.7,20.1 L 102.4,20.0 M 128.7,48.1 L 128.7,20.1 M 319.8,263.8 L 319.7,237.5 M 192.4,320.0 L 211.2,320.0 M 128.7,320.0 L 147.4,320.0 M 67.6,182.5 L 48.1,211.3 M 123.1,211.3 L 103.5,182.5 M 48.1,128.8 L 67.6,157.5 M 103.5,157.5 L 123.1,128.8 M 216.8,211.3 L 123.1,211.3 M 123.1,128.8 L 216.8,128.8 M 211.2,48.1 L 182.4,67.7 M 182.4,67.7 L 157.4,67.7 M 216.8,128.8 L 236.4,157.5 M 272.2,157.5 L 291.8,128.8 M 154.9,380.0 L 184.9,380.0 M 67.6,157.5 L 67.6,182.5 M 103.5,182.5 L 103.5,157.5 M 157.4,67.7 L 128.7,48.1 M 319.7,237.5 L 319.6,211.3 M 319.6,211.3 L 291.8,211.3 M 291.8,211.3 L 272.2,182.5 M 20.0,48.1 L 20.1,76.3 M 48.1,48.1 L 20.0,48.1 M 102.4,20.0 L 48.1,20.0 M 48.1,20.0 L 48.1,48.1" fill="none" stroke="white" stroke-width="2" stroke-linecap="round"/>
  <polygon points="167.24021312960016,317.82705362315215 175.24021312960016,325.82705362315215 167.24021312960016,333.82705362315215 159.24021312960016,325.82705362315215" fill="#4a9eff" stroke="white" stroke-width="1"/>
</svg>