<svg xmlns="http://www.w3.org/2000/svg" viewBox="0 0 400 400">
  <rect width="400" height="400" fill="#1a1a2e"/>
  <path d="M 239.7,345.0 L 242.6,272.0 L 170.1,272.0 Z M 239.7,345.0 L 170.1,272.0 L 168.1,345.0 Z M 149.7,345.0 L 152.6,272.0 L 80.1,272.0 Z M 149.7,345.0 L 80.1,272.0 L 80.1,345.0 Z M 240.5,113.0 L 167.9,113.0 L 167.9,186.1 Z M 240.5,113.0 L 167.9,186.1 L 239.5,186.1 Z M 212.6,95.8 L 208.8,136.2 L 249.2,140.1 Z M 212.6,95.8 L 249.2,140.1 L 253.1,99.6 Z M 30.4,181.4 L 26.6,221.8 L 67.0,225.6 Z M 30.4,181.4 L 67.0,225.6 L 70.8,185.2 Z M 170.1,138.0 L 148.1,172.1 L 182.3,194.1 Z M 170.1,138.0 L 182.3,194.1 L 204.3,160.0 Z M 153.1,238.7 L 124.7,267.8 L 153.7,296.2 Z M 153.1,238.7 L 153.7,296.2 L 182.1,267.1 Z M 260.6,313.5 L 221.2,304.0 L 211.7,343.3 Z M 260.6,313.5 L 211.7,343.3 L 251.1,352.8 Z M 20.0,334.4 L 47.9,363.9 L 77.4,336.1 Z M 20.0,334.4 L 77.4,336.1 L 49.6,306.5 Z M 53.6,124.7 L 20.5,148.2 L 44.0,181.3 Z M 53.6,124.7 L 44.0,181.3 L 77.1,157.8 Z M 120.5,315.5 L 81.1,306.0 L 71.6,345.4 Z M 120.5,315.5 L 71.6,345.4 L 111.0,354.9 Z M 239.7,345.0 L 265.3,294.3 L 265.3,256.9 Z M 239.7,345.0 L 265.3,256.9 L 242.6,272.0 Z M 242.6,272.0 L 265.3,256.9 L 265.3,246.8 Z M 242.6,272.0 L 265.3,246.8 L 223.0,246.8 Z M 152.6,272.0 L 185.6,246.8 L 87.3,248.4 Z M 152.6,272.0 L 87.3,248.4 L 80.1,272.0 Z M 80.1,272.0 L 87.3,248.4 L 87.3,185.9 Z M 80.1,272.0 L 87.3,185.9 L 24.1,102.8 Z M 80.1,272.0 L 24.1,102.8 L 24.1,369.2 Z M 80.1,272.0 L 24.1,369.2 L 80.1,345.0 Z M 80.1,345.0 L 24.1,369.2 L 133.2,369.2 Z M 80.1,345.0 L 133.2,369.2 L 149.7,345.0 Z M 149.7,345.0 L 133.2,369.2 L 146.3,369.2 Z M 149.7,345.0 L 146.3,369.2 L 185.4,369.2 Z M 250.9,102.8 L 240.5,113.0 L 239.5,186.1 Z M 250.9,102.8 L 239.5,186.1 L 250.9,196.4 Z M 250.9,196.4 L 239.5,186.1 L 185.4,196.4 Z M 250.9,196.4 L 185.4,196.4 L 222.9,196.4 Z M 87.3,185.9 L 87.3,168.9 L 24.1,102.8 Z M 87.3,168.9 L 87.3,102.8 L 24.1,102.8 Z M 265.3,369.2 L 239.7,345.0 L 168.1,345.0 Z M 265.3,369.2 L 168.1,345.0 L 185.4,369.2 Z M 170.1,272.0 L 242.6,272.0 L 223.0,246.8 Z M 170.1,272.0 L 223.0,246.8 L 185.6,246.8 Z M 149.7,345.0 L 168.1,345.0 L 170.1,272.0 Z M 149.7,345.0 L 170.1,272.0 L 152.6,272.0 Z M 167.9,113.0 L 157.3,102.8 L 157.3,184.2 Z M 167.9,113.0 L 157.3,184.2 L 167.9,186.1 Z M 185.4,102.8 L 167.9,113.0 L 240.5,113.0 Z M 185.4,102.8 L 240.5,113.0 L 222.9,102.8 Z M 167.4,196.4 L 185.4,196.4 L 239.5,186.1 Z M 167.4,196.4 L 239.5,186.1 L 167.9,186.1 Z M 265.3,369.2 L 265.3,294.3 L 239.7,345.0 Z M 152.6,272.0 L 170.1,272.0 L 185.6,246.8 Z M 240.5,113.0 L 250.9,102.8 L 222.9,102.8 Z M 167.9,186.1 L 157.3,184.2 L 167.4,196.4 Z M 185.4,102.8 L 157.3,102.8 L 167.9,113.0 Z M 168.1,345.0 L 149.7,345.0 L 185.4,369.2 Z M 178.1,207.2 L 167.4,196.4 L 146.5,186.6 Z M 178.1,207.2 L 146.5,186.6 L 164.6,207.2 Z M 146.5,176.2 L 146.5,186.6 L 167.4,196.4 Z M 146.5,176.2 L 167.4,196.4 L 157.3,184.2 Z M 265.3,294.3 L 348.1,294.3 L 348.1,256.9 Z M 265.3,294.3 L 348.1,256.9 L 265.3,256.9 Z M 185.4,102.8 L 222.9,102.8 L 222.9,20.0 Z M 185.4,102.8 L 222.9,20.0 L 185.4,20.0 Z M 222.9,196.4 L 185.4,196.4 L 185.6,246.8 Z M 222.9,196.4 L 185.6,246.8 L 223.0,246.8 Z M 185.4,369.2 L 182.5,380.0 L 276.1,380.0 Z M 185.4,369.2 L 276.1,380.0 L 265.3,369.2 Z M 265.3,369.2 L 276.1,380.0 L 276.1,297.2 Z M 265.3,369.2 L 276.1,297.2 L 265.3,294.3 Z M 225.7,92.0 L 222.9,102.8 L 250.9,102.8 Z M 225.7,92.0 L 250.9,102.8 L 261.7,92.0 Z M 261.7,92.0 L 250.9,102.8 L 250.9,196.4 Z M 261.7,92.0 L 250.9,196.4 L 261.7,191.6 Z M 185.4,102.8 L 182.5,92.0 L 146.5,92.0 Z M 185.4,102.8 L 146.5,92.0 L 157.3,102.8 Z M 157.3,102.8 L 146.5,92.0 L 146.5,176.2 Z M 157.3,102.8 L 146.5,176.2 L 157.3,184.2 Z M 265.3,246.8 L 247.8,236.0 L 225.7,236.0 Z M 265.3,246.8 L 225.7,236.0 L 223.0,246.8 Z M 185.6,246.8 L 182.5,236.0 L 96.1,236.0 Z M 185.6,246.8 L 96.1,236.0 L 87.3,248.4 Z M 133.2,369.2 L 24.1,369.2 L 24.1,380.0 Z M 133.2,369.2 L 24.1,380.0 L 116.7,380.0 Z M 82.3,92.0 L 24.1,92.0 L 24.1,102.8 Z M 82.3,92.0 L 24.1,102.8 L 87.3,102.8 Z M 96.1,236.0 L 96.1,209.4 L 87.3,185.9 Z M 96.1,236.0 L 87.3,185.9 L 87.3,248.4 Z M 348.1,297.2 L 348.1,294.3 L 265.3,294.3 Z M 348.1,297.2 L 265.3,294.3 L 276.1,297.2 Z M 265.3,256.9 L 348.1,256.9 L 348.1,254.0 Z M 265.3,256.9 L 348.1,254.0 L 276.1,254.0 Z M 185.4,102.8 L 185.4,20.0 L 182.5,20.0 Z M 185.4,102.8 L 182.5,20.0 L 182.5,92.0 Z M 225.7,20.0 L 222.9,20.0 L 222.9,102.8 Z M 225.7,20.0 L 222.9,102.8 L 225.7,92.0 Z M 225.7,207.2 L 222.9,196.4 L 223.0,246.8 Z M 225.7,207.2 L 223.0,246.8 L 225.7,236.0 Z M 182.5,207.2 L 182.5,236.0 L 185.6,246.8 Z M 182.5,207.2 L 185.6,246.8 L 185.4,196.4 Z M 182.5,207.2 L 185.4,196.4 L 167.4,196.4 Z M 182.5,207.2 L 167.4,196.4 L 178.1,207.2 Z M 222.9,196.4 L 225.7,207.2 L 243.8,207.2 Z M 222.9,196.4 L 243.8,207.2 L 250.9,196.4 Z M 182.5,380.0 L 185.4,369.2 L 146.3,369.2 Z M 182.5,380.0 L 146.3,369.2 L 167.5,380.0 Z M 87.3,102.8 L 87.3,168.9 L 96.1,157.1 Z M 87.3,102.8 L 96.1,157.1 L 96.5,111.3 Z M 276.1,254.0 L 265.3,246.8 L 265.3,256.9 Z" fill="#2a2a4e" stroke="none"/>
  <path d="M 212.6,95.8 L 208.8,136.2 M 208.8,136.2 L 249.2,140.1 M 249.2,140.1 L 253.1,99.6 M 253.1,99.6 L 212.6,95.8 M 30.4,181.4 L 26.6,221.8 M 26.6,221.8 L 67.0,225.6 M 67.0,225.6 L 70.8,185.2 M 70.8,185.2 L 30.4,181.4 M 170.1,138.0 L 148.1,172.1 M 148.1,172.1 L 182.3,194.1 M 182.3,194.1 L 204.3,160.0 M 204.3,160.0 L 170.1,138.0 M 153.1,238.7 L 124.7,267.8 M 124.7,267.8 L 153.7,296.2 M 153.7,296.2 L 182.1,267.1 M 182.1,267.1 L 153.1,238.7 M 260.6,313.5 L 221.2,304.0 M 221.2,304.0 L 211.7,343.3 M 211.7,343.3 L 251.1,352.8 M 251.1,352.8 L 260.6,313.5 M 20.0,334.4 L 47.9,363.9 M 47.9,363.9 L 77.4,336.1 M 77.4,336.1 L 49.6,306.5 M 49.6,306.5 L 20.0,334.4 M 53.6,124.7 L 20.5,148.2 M 20.5,148.2 L 44.0,181.3 M 44.0,181.3 L 77.1,157.8 M 77.1,157.8 L 53.6,124.7 M 120.5,315.5 L 81.1,306.0 M 81.1,306.0 L 71.6,345.4 M 71.6,345.4 L 111.0,354.9 M 111.0,354.9 L 120.5,315.5 M 24.1,102.8 L 24.1,369.2 M 133.2,369.2 L 146.3,369.2 M 87.3,185.9 L 87.3,168.9 M 146.5,186.6 L 164.6,207.2 M 164.6,207.2 L 178.1,207.2 M 146.5,176.2 L 146.5,186.6 M 348.1,294.3 L 348.1,256.9 M 222.9,20.0 L 185.4,20.0 M 182.5,380.0 L 276.1,380.0 M 276.1,380.0 L 276.1,297.2 M 261.7,92.0 L 225.7,92.0 M 250.9,196.4 L 261.7,191.6 M 261.7,191.6 L 261.7,92.0 M 182.5,92.0 L 146.5,92.0 M 146.5,92.0 L 146.5,176.2 M 265.3,246.8 L 247.8,236.0 M 247.8,236.0 L 225.7,236.0 M 182.5,236.0 L 96.1,236.0 M 24.1,369.2 L 24.1,380.0 M 24.1,380.0 L 116.7,380.0 M 116.7,380.0 L 133.2,369.2 M 82.3,92.0 L 24.1,92.0 M 24.1,92.0 L 24.1,102.8 M 87.3,102.8 L 82.3,92.0 M 96.1,236.0 L 96.1,209.4 M 96.1,209.4 L 87.3,185.9 M 348.1,297.2 L 348.1,294.3 M 276.1,297.2 L 348.1,297.2 M 348.1,256.9 L 348.1,254.0 M 348.1,254.0 L 276.1,254.0 M 185.4,20.0 L 182.5,20.0 M 182.5,20.0 L 182.5,92.0 M 225.7,20.0 L 222.9,20.0 M 225.7,92.0 L 225.7,20.0 M 225.7,236.0 L 225.7,207.2 M 182.5,207.2 L 182.5,236.0 M 178.1,207.2 L 182.5,207.2 M 225.7,207.2 L 243.8,207.2 M 243.8,207.2 L 250.9,196.4 M 146.3,369.2 L 167.5,380.0 M 167.5,380.0 L 182.5,380.0 M 87.3,168.9 L 96.1,157.1 M 96.1,157.1 L 96.5,111.3 M 96.5,111.3 L 87.3,102.8 M 276.1,254.0 L 265.3,246.8" fill="none" stroke="white" stroke-width="2" stroke-linecap="round"/>
  <polygon points="203.75486348491302,82.57664302310516 211.75486348491302,90.57664302310516 203.75486348491302,98.57664302310516 195.75486348491302,90.57664302310516" fill="#4a9eff" stroke="white" stroke-width="1"/>
<polygon points="275.1701418791729,267.4419311588657 283.1701418791729,275.4419311588657 275.1701418791729,283.4419311588657 267.1701418791729,275.4419311588657" fill="#4a9eff" stroke="white" stroke-width="1"/>
</svg>