<svg xmlns="http://www.w3.org/2000/svg" viewBox="0 0 400 400">
  <rect width="400" height="400" fill="#1a1a2e"/>
  <path d="M 254.3,280.4 L 186.7,279.6 L 186.7,346.7 Z M 254.3,280.4 L 186.7,346.7 L 254.3,346.7 Z M 107.2,346.9 L 107.2,280.6 L 39.5,279.7 Z M 107.2,346.9 L 39.5,279.7 L 39.5,346.9 Z M 187.6,113.8 L 120.0,112.9 L 120.0,180.0 Z M 187.6,113.8 L 120.0,180.0 L 187.6,180.0 Z M 266.2,109.1 L 266.2,175.4 L 333.9,176.3 Z M 266.2,109.1 L 333.9,176.3 L 333.9,109.1 Z M 157.5,184.7 L 195.0,188.2 L 198.5,150.8 Z M 157.5,184.7 L 198.5,150.8 L 161.1,147.2 Z M 119.9,139.9 L 157.3,143.5 L 160.8,106.0 Z M 119.9,139.9 L 160.8,106.0 L 123.4,102.5 Z M 62.6,334.9 L 94.2,355.3 L 114.6,323.7 Z M 62.6,334.9 L 114.6,323.7 L 83.0,303.3 Z M 155.9,293.9 L 182.7,320.2 L 209.0,293.3 Z M 155.9,293.9 L 209.0,293.3 L 182.1,267.0 Z M 229.8,317.3 L 221.0,353.7 L 257.4,362.5 Z M 229.8,317.3 L 257.4,362.5 L 266.2,326.1 Z M 310.8,121.1 L 279.2,100.7 L 258.8,132.3 Z M 310.8,121.1 L 258.8,132.3 L 290.4,152.7 Z M 186.7,346.7 L 163.3,370.0 L 276.7,370.0 Z M 186.7,346.7 L 276.7,370.0 L 254.3,346.7 Z M 254.3,346.7 L 276.7,370.0 L 276.7,330.7 Z M 254.3,346.7 L 276.7,330.7 L 276.7,296.0 Z M 254.3,280.4 L 207.3,256.7 L 172.7,256.7 Z M 254.3,280.4 L 172.7,256.7 L 186.7,279.6 Z M 186.7,279.6 L 172.7,256.7 L 163.3,256.7 Z M 186.7,279.6 L 163.3,256.7 L 163.3,296.0 Z M 105.3,356.7 L 107.2,346.9 L 39.5,346.9 Z M 105.3,356.7 L 39.5,346.9 L 30.0,356.7 Z M 30.0,356.7 L 39.5,346.9 L 39.5,279.7 Z M 30.0,356.7 L 39.5,279.7 L 30.0,270.0 Z M 30.0,270.0 L 39.5,279.7 L 107.2,280.6 Z M 30.0,270.0 L 107.2,280.6 L 116.7,270.0 Z M 116.7,270.0 L 107.2,280.6 L 116.7,330.7 Z M 116.7,270.0 L 116.7,330.7 L 116.7,296.0 Z M 268.0,99.3 L 266.2,109.1 L 333.9,109.1 Z M 268.0,99.3 L 333.9,109.1 L 343.3,99.3 Z M 343.3,99.3 L 333.9,109.1 L 333.9,176.3 Z M 343.3,99.3 L 333.9,176.3 L 343.3,186.0 Z M 343.3,186.0 L 333.9,176.3 L 266.2,175.4 Z M 343.3,186.0 L 266.2,175.4 L 256.7,186.0 Z M 256.7,186.0 L 266.2,175.4 L 256.7,125.3 Z M 256.7,186.0 L 256.7,125.3 L 256.7,160.0 Z M 96.7,164.0 L 96.7,203.3 L 120.0,180.0 Z M 96.7,203.3 L 172.7,203.3 L 120.0,180.0 Z M 170.7,90.2 L 120.0,112.9 L 210.0,90.0 Z M 120.0,112.9 L 187.6,113.8 L 210.0,90.0 Z M 210.0,90.0 L 187.6,113.8 L 210.0,125.3 Z M 96.7,90.7 L 120.0,112.9 L 136.0,90.3 Z M 120.0,112.9 L 170.7,90.2 L 136.0,90.3 Z M 107.2,280.6 L 107.2,346.9 L 116.7,347.3 Z M 107.2,280.6 L 116.7,347.3 L 116.7,330.7 Z M 186.7,346.7 L 186.7,279.6 L 163.3,296.0 Z M 186.7,346.7 L 163.3,296.0 L 163.3,330.7 Z M 254.3,346.7 L 276.7,296.0 L 276.7,256.7 Z M 254.3,346.7 L 276.7,256.7 L 254.3,280.4 Z M 96.7,90.7 L 96.7,164.0 L 120.0,180.0 Z M 96.7,90.7 L 120.0,180.0 L 120.0,112.9 Z M 172.7,203.3 L 207.3,203.3 L 187.6,180.0 Z M 172.7,203.3 L 187.6,180.0 L 120.0,180.0 Z M 210.0,125.3 L 187.6,113.8 L 187.6,180.0 Z M 210.0,125.3 L 187.6,180.0 L 210.0,160.0 Z M 266.2,175.4 L 266.2,109.1 L 256.7,108.6 Z M 266.2,175.4 L 256.7,108.6 L 256.7,125.3 Z M 107.2,346.9 L 105.3,356.7 L 116.7,347.3 Z M 276.7,256.7 L 207.3,256.7 L 254.3,280.4 Z M 186.7,346.7 L 163.3,330.7 L 163.3,370.0 Z M 207.3,203.3 L 210.0,203.3 L 187.6,180.0 Z M 187.6,180.0 L 210.0,203.3 L 210.0,160.0 Z M 266.2,109.1 L 268.0,99.3 L 256.7,108.6 Z M 107.6,366.7 L 126.7,350.0 L 126.7,337.4 Z M 107.6,366.7 L 126.7,337.4 L 116.7,347.3 Z M 116.7,347.3 L 105.3,356.7 L 98.0,366.7 Z M 116.7,347.3 L 98.0,366.7 L 107.6,366.7 Z M 265.8,89.3 L 246.7,106.0 L 246.7,118.6 Z M 265.8,89.3 L 246.7,118.6 L 256.7,108.6 Z M 256.7,108.6 L 268.0,99.3 L 275.3,89.3 Z M 256.7,108.6 L 275.3,89.3 L 265.8,89.3 Z M 380.0,330.7 L 380.0,296.0 L 276.7,296.0 Z M 380.0,330.7 L 276.7,296.0 L 276.7,330.7 Z M 207.3,256.7 L 207.3,203.3 L 172.7,203.3 Z M 207.3,256.7 L 172.7,203.3 L 172.7,256.7 Z M 163.3,330.7 L 163.3,296.0 L 116.7,296.0 Z M 163.3,330.7 L 116.7,296.0 L 116.7,330.7 Z M 136.0,90.3 L 170.7,90.2 L 170.7,20.0 Z M 136.0,90.3 L 170.7,20.0 L 136.0,20.0 Z M 210.0,125.3 L 210.0,160.0 L 256.7,160.0 Z M 210.0,125.3 L 256.7,160.0 L 256.7,125.3 Z M 276.7,296.0 L 286.7,293.3 L 286.7,246.7 Z M 276.7,296.0 L 286.7,246.7 L 276.7,256.7 Z M 276.7,256.7 L 286.7,246.7 L 210.0,246.7 Z M 276.7,256.7 L 210.0,246.7 L 207.3,256.7 Z M 86.7,195.3 L 96.7,203.3 L 96.7,164.0 Z M 86.7,195.3 L 96.7,164.0 L 86.7,166.7 Z M 86.7,166.7 L 96.7,164.0 L 96.7,90.7 Z M 86.7,166.7 L 96.7,90.7 L 86.7,80.1 Z M 163.3,256.7 L 153.3,272.9 L 153.3,293.3 Z M 163.3,256.7 L 153.3,293.3 L 163.3,296.0 Z M 163.3,330.7 L 153.3,333.3 L 153.3,380.0 Z M 163.3,330.7 L 153.3,380.0 L 163.3,370.0 Z M 286.7,380.0 L 276.7,370.0 L 163.3,370.0 Z M 286.7,380.0 L 163.3,370.0 L 153.3,380.0 Z M 286.7,333.3 L 276.7,330.7 L 276.7,370.0 Z M 286.7,333.3 L 276.7,370.0 L 286.7,380.0 Z M 380.0,293.3 L 286.7,293.3 L 276.7,296.0 Z M 380.0,293.3 L 276.7,296.0 L 380.0,296.0 Z M 276.7,330.7 L 286.7,333.3 L 380.0,333.3 Z M 276.7,330.7 L 380.0,333.3 L 380.0,330.7 Z M 210.0,213.3 L 207.3,203.3 L 207.3,256.7 Z M 210.0,213.3 L 207.3,256.7 L 210.0,246.7 Z M 172.7,256.7 L 172.7,203.3 L 170.0,213.3 Z M 172.7,256.7 L 170.0,213.3 L 170.0,246.7 Z M 210.0,125.3 L 220.0,122.7 L 220.0,80.1 Z M 210.0,125.3 L 220.0,80.1 L 210.0,90.0 Z M 207.3,203.3 L 210.0,213.3 L 220.0,213.3 Z M 207.3,203.3 L 220.0,213.3 L 210.0,203.3 Z M 172.7,203.3 L 96.7,203.3 L 98.3,213.3 Z M 172.7,203.3 L 98.3,213.3 L 170.0,213.3 Z M 20.0,366.7 L 30.0,356.7 L 30.0,270.0 Z M 20.0,366.7 L 30.0,270.0 L 20.0,260.0 Z M 163.3,296.0 L 153.3,293.3 L 126.7,293.3 Z M 163.3,296.0 L 126.7,293.3 L 116.7,296.0 Z M 163.3,330.7 L 116.7,330.7 L 126.7,333.3 Z M 163.3,330.7 L 126.7,333.3 L 153.3,333.3 Z M 20.0,260.0 L 30.0,270.0 L 116.7,270.0 Z M 20.0,260.0 L 116.7,270.0 L 112.2,260.0 Z M 116.7,347.3 L 126.7,337.4 L 126.7,333.3 Z M 116.7,347.3 L 126.7,333.3 L 116.7,330.7 Z M 105.3,356.7 L 30.0,356.7 L 20.0,366.7 Z M 105.3,356.7 L 20.0,366.7 L 98.0,366.7 Z M 126.7,276.6 L 116.7,270.0 L 116.7,296.0 Z M 126.7,276.6 L 116.7,296.0 L 126.7,293.3 Z M 220.0,80.1 L 173.3,80.1 L 170.7,90.2 Z M 220.0,80.1 L 170.7,90.2 L 210.0,90.0 Z M 136.0,90.3 L 133.3,80.1 L 86.7,80.1 Z M 136.0,90.3 L 86.7,80.1 L 96.7,90.7 Z M 136.0,90.3 L 136.0,20.0 L 133.3,20.0 Z M 136.0,90.3 L 133.3,20.0 L 133.3,80.1 Z M 173.3,20.0 L 170.7,20.0 L 170.7,90.2 Z M 173.3,20.0 L 170.7,90.2 L 173.3,80.1 Z M 210.0,160.0 L 210.0,203.3 L 220.0,213.3 Z M 210.0,160.0 L 220.0,213.3 L 220.0,162.7 Z M 353.3,89.3 L 343.3,99.3 L 343.3,186.0 Z M 353.3,89.3 L 343.3,186.0 L 353.3,196.0 Z M 210.0,160.0 L 220.0,162.7 L 246.7,162.7 Z M 210.0,160.0 L 246.7,162.7 L 256.7,160.0 Z M 210.0,125.3 L 256.7,125.3 L 246.7,122.7 Z M 210.0,125.3 L 246.7,122.7 L 220.0,122.7 Z M 353.3,196.0 L 343.3,186.0 L 256.7,186.0 Z M 353.3,196.0 L 256.7,186.0 L 261.1,196.0 Z M 256.7,108.6 L 246.7,118.6 L 246.7,122.7 Z M 256.7,108.6 L 246.7,122.7 L 256.7,125.3 Z M 268.0,99.3 L 343.3,99.3 L 353.3,89.3 Z M 268.0,99.3 L 353.3,89.3 L 275.3,89.3 Z M 246.7,179.4 L 256.7,186.0 L 256.7,160.0 Z M 246.7,179.4 L 256.7,160.0 L 246.7,162.7 Z M 170.0,246.7 L 163.3,256.7 L 172.7,256.7 Z" fill="#2a2a4e" stroke="none"/>
  <path d="M 157.5,184.7 L 195.0,188.2 M 195.0,188.2 L 198.5,150.8 M 198.5,150.8 L 161.1,147.2 M 161.1,147.2 L 157.5,184.7 M 119.9,139.9 L 157.3,143.5 M 157.3,143.5 L 160.8,106.0 M 160.8,106.0 L 123.4,102.5 M 123.4,102.5 L 119.9,139.9 M 62.6,334.9 L 94.2,355.3 M 94.2,355.3 L 114.6,323.7 M 114.6,323.7 L 83.0,303.3 M 83.0,303.3 L 62.6,334.9 M 155.9,293.9 L 182.7,320.2 M 182.7,320.2 L 209.0,293.3 M 209.0,293.3 L 182.1,267.0 M 182.1,267.0 L 155.9,293.9 M 229.8,317.3 L 221.0,353.7 M 221.0,353.7 L 257.4,362.5 M 257.4,362.5 L 266.2,326.1 M 266.2,326.1 L 229.8,317.3 M 310.8,121.1 L 279.2,100.7 M 279.2,100.7 L 258.8,132.3 M 258.8,132.3 L 290.4,152.7 M 290.4,152.7 L 310.8,121.1 M 107.6,366.7 L 126.7,350.0 M 126.7,350.0 L 126.7,337.4 M 98.0,366.7 L 107.6,366.7 M 265.8,89.3 L 246.7,106.0 M 246.7,106.0 L 246.7,118.6 M 275.3,89.3 L 265.8,89.3 M 380.0,330.7 L 380.0,296.0 M 170.7,20.0 L 136.0,20.0 M 286.7,293.3 L 286.7,246.7 M 286.7,246.7 L 210.0,246.7 M 86.7,195.3 L 96.7,203.3 M 86.7,166.7 L 86.7,195.3 M 86.7,80.1 L 86.7,166.7 M 163.3,256.7 L 153.3,272.9 M 153.3,272.9 L 153.3,293.3 M 153.3,333.3 L 153.3,380.0 M 153.3,380.0 L 286.7,380.0 M 286.7,380.0 L 286.7,333.3 M 380.0,293.3 L 286.7,293.3 M 380.0,296.0 L 380.0,293.3 M 286.7,333.3 L 380.0,333.3 M 380.0,333.3 L 380.0,330.7 M 210.0,246.7 L 210.0,213.3 M 170.0,213.3 L 170.0,246.7 M 220.0,122.7 L 220.0,80.1 M 210.0,213.3 L 220.0,213.3 M 96.7,203.3 L 98.3,213.3 M 98.3,213.3 L 170.0,213.3 M 20.0,260.0 L 20.0,366.7 M 153.3,293.3 L 126.7,293.3 M 126.7,333.3 L 153.3,333.3 M 116.7,270.0 L 112.2,260.0 M 112.2,260.0 L 20.0,260.0 M 126.7,337.4 L 126.7,333.3 M 20.0,366.7 L 98.0,366.7 M 126.7,276.6 L 116.7,270.0 M 126.7,293.3 L 126.7,276.6 M 220.0,80.1 L 173.3,80.1 M 133.3,80.1 L 86.7,80.1 M 136.0,20.0 L 133.3,20.0 M 133.3,20.0 L 133.3,80.1 M 173.3,20.0 L 170.7,20.0 M 173.3,80.1 L 173.3,20.0 M 220.0,213.3 L 220.0,162.7 M 353.3,196.0 L 353.3,89.3 M 220.0,162.7 L 246.7,162.7 M 246.7,122.7 L 220.0,122.7 M 256.7,186.0 L 261.1,196.0 M 261.1,196.0 L 353.3,196.0 M 246.7,118.6 L 246.7,122.7 M 353.3,89.3 L 275.3,89.3 M 246.7,179.4 L 256.7,186.0 M 246.7,162.7 L 246.7,179.4 M 170.0,246.7 L 163.3,256.7" fill="none" stroke="white" stroke-width="2" stroke-linecap="round"/>
  <polygon points="152.50432658546123,72.59273446191195 160.50432658546123,80.59273446191195 152.50432658546123,88.59273446191195 144.50432658546123,80.59273446191195" fill="#4a9eff" stroke="white" stroke-width="1"/>
<polygon points="285.87902734501074,305.18720124506734 293.87902734501074,313.18720124506734 285.87902734501074,321.18720124506734 277.87902734501074,313.18720124506734" fill="#4a9eff" stroke="white" stroke-width="1"/>
</svg>