<svg xmlns="http://www.w3.org/2000/svg" viewBox="0 0 400 400">
  <rect width="400" height="400" fill="#1a1a2e"/>
  <path d="M 260.0,170.0 L 260.0,109.1 L 200.3,109.1 Z M 260.0,170.0 L 200.3,109.1 L 199.6,170.0 Z M 199.7,302.5 L 260.2,302.5 L 260.2,241.6 Z M 199.7,302.5 L 260.2,241.6 L 200.5,241.6 Z M 110.0,230.0 L 110.0,169.1 L 50.3,169.1 Z M 110.0,230.0 L 50.3,169.1 L 49.6,230.0 Z M 83.7,159.3 L 80.5,193.0 L 114.2,196.2 Z M 83.7,159.3 L 114.2,196.2 L 117.3,162.5 Z M 239.3,234.9 L 220.9,263.3 L 249.4,281.7 Z M 239.3,234.9 L 249.4,281.7 L 267.7,253.2 Z M 212.0,149.9 L 188.3,174.1 L 212.5,197.7 Z M 212.0,149.9 L 212.5,197.7 L 236.2,173.5 Z M 276.4,101.7 L 243.6,93.8 L 235.7,126.6 Z M 276.4,101.7 L 235.7,126.6 L 268.5,134.5 Z M 260.0,170.0 L 281.0,191.0 L 281.0,89.0 Z M 260.0,170.0 L 281.0,89.0 L 260.0,109.1 Z M 260.0,109.1 L 281.0,89.0 L 245.6,89.0 Z M 260.0,109.1 L 245.6,89.0 L 214.4,89.0 Z M 200.3,109.1 L 179.0,151.4 L 179.0,182.6 Z M 200.3,109.1 L 179.0,182.6 L 199.6,170.0 Z M 199.6,170.0 L 179.0,182.6 L 179.0,191.0 Z M 199.6,170.0 L 179.0,191.0 L 214.4,191.0 Z M 214.4,233.0 L 191.0,233.0 L 200.5,241.6 Z M 214.4,233.0 L 200.5,241.6 L 245.6,233.0 Z M 245.6,233.0 L 200.5,241.6 L 260.2,241.6 Z M 245.6,233.0 L 260.2,241.6 L 260.6,233.0 Z M 269.0,243.2 L 260.2,241.6 L 260.2,302.5 Z M 269.0,243.2 L 260.2,302.5 L 269.0,311.0 Z M 269.0,311.0 L 260.2,302.5 L 199.7,302.5 Z M 269.0,311.0 L 199.7,302.5 L 191.0,311.0 Z M 29.5,251.0 L 49.6,230.0 L 50.3,169.1 Z M 29.5,251.0 L 50.3,169.1 L 29.0,149.0 Z M 29.0,149.0 L 50.3,169.1 L 110.0,169.1 Z M 29.0,149.0 L 110.0,169.1 L 131.0,149.0 Z M 95.6,251.0 L 131.0,251.0 L 110.0,230.0 Z M 131.0,251.0 L 131.0,182.6 L 110.0,230.0 Z M 200.5,241.6 L 191.0,233.0 L 191.0,311.0 Z M 200.5,241.6 L 191.0,311.0 L 199.7,302.5 Z M 214.4,191.0 L 245.6,191.0 L 260.0,170.0 Z M 214.4,191.0 L 260.0,170.0 L 199.6,170.0 Z M 179.0,89.0 L 200.3,109.1 L 260.0,109.1 Z M 179.0,89.0 L 260.0,109.1 L 214.4,89.0 Z M 49.6,230.0 L 64.4,251.0 L 95.6,251.0 Z M 49.6,230.0 L 95.6,251.0 L 110.0,230.0 Z M 110.0,169.1 L 110.0,230.0 L 131.0,182.6 Z M 110.0,169.1 L 131.0,182.6 L 131.0,151.4 Z M 260.2,241.6 L 269.0,243.2 L 260.6,233.0 Z M 179.0,89.0 L 179.0,151.4 L 200.3,109.1 Z M 260.0,170.0 L 245.6,191.0 L 281.0,191.0 Z M 131.0,151.4 L 131.0,149.0 L 110.0,169.1 Z M 49.6,230.0 L 29.5,251.0 L 64.4,251.0 Z M 251.6,224.0 L 260.6,233.0 L 278.0,241.2 Z M 251.6,224.0 L 278.0,241.2 L 262.9,224.0 Z M 278.0,249.8 L 278.0,241.2 L 260.6,233.0 Z M 278.0,249.8 L 260.6,233.0 L 269.0,243.2 Z M 281.0,191.0 L 290.0,200.0 L 290.0,80.0 Z M 281.0,191.0 L 290.0,80.0 L 281.0,89.0 Z M 281.0,89.0 L 290.0,80.0 L 248.0,80.0 Z M 281.0,89.0 L 248.0,80.0 L 245.6,89.0 Z M 214.4,89.0 L 212.0,80.0 L 170.0,80.0 Z M 214.4,89.0 L 170.0,80.0 L 179.0,89.0 Z M 179.0,89.0 L 170.0,80.0 L 170.0,149.0 Z M 179.0,89.0 L 170.0,149.0 L 179.0,151.4 Z M 212.0,200.0 L 214.4,191.0 L 179.0,191.0 Z M 212.0,200.0 L 179.0,191.0 L 193.6,200.0 Z M 290.0,200.0 L 281.0,191.0 L 245.6,191.0 Z M 290.0,200.0 L 245.6,191.0 L 248.0,200.0 Z M 214.4,89.0 L 214.4,20.0 L 212.0,20.0 Z M 214.4,89.0 L 212.0,20.0 L 212.0,80.0 Z M 248.0,20.0 L 245.6,20.0 L 245.6,89.0 Z M 248.0,20.0 L 245.6,89.0 L 248.0,80.0 Z M 179.0,151.4 L 170.0,149.0 L 140.0,149.0 Z M 179.0,151.4 L 140.0,149.0 L 131.0,151.4 Z M 140.0,185.0 L 170.0,185.0 L 179.0,182.6 Z M 140.0,185.0 L 179.0,182.6 L 131.0,182.6 Z M 29.0,149.0 L 131.0,149.0 L 140.0,140.0 Z M 29.0,149.0 L 140.0,140.0 L 20.0,140.0 Z M 140.0,140.0 L 131.0,149.0 L 131.0,151.4 Z M 140.0,140.0 L 131.0,151.4 L 140.0,149.0 Z M 98.0,260.0 L 123.7,260.0 L 131.0,251.0 Z M 98.0,260.0 L 131.0,251.0 L 95.6,251.0 Z M 140.0,249.5 L 140.0,185.0 L 131.0,182.6 Z M 140.0,249.5 L 131.0,182.6 L 131.0,251.0 Z M 191.0,311.0 L 182.0,320.0 L 278.0,320.0 Z M 191.0,311.0 L 278.0,320.0 L 269.0,311.0 Z M 212.0,224.0 L 214.4,233.0 L 214.4,191.0 Z M 212.0,224.0 L 214.4,191.0 L 212.0,200.0 Z M 248.0,224.0 L 248.0,200.0 L 245.6,191.0 Z M 248.0,224.0 L 245.6,191.0 L 245.6,233.0 Z M 191.0,233.0 L 182.0,237.0 L 182.0,320.0 Z M 191.0,233.0 L 182.0,320.0 L 191.0,311.0 Z M 248.0,224.0 L 245.6,233.0 L 260.6,233.0 Z M 248.0,224.0 L 260.6,233.0 L 251.6,224.0 Z M 278.0,320.0 L 278.0,249.8 L 269.0,243.2 Z M 278.0,320.0 L 269.0,243.2 L 269.0,311.0 Z M 214.4,233.0 L 212.0,224.0 L 196.9,224.0 Z M 214.4,233.0 L 196.9,224.0 L 191.0,233.0 Z M 29.0,149.0 L 20.0,140.0 L 20.0,260.0 Z M 29.0,149.0 L 20.0,260.0 L 29.5,251.0 Z M 64.4,251.0 L 29.5,251.0 L 20.0,260.0 Z M 64.4,251.0 L 20.0,260.0 L 62.0,260.0 Z M 98.0,380.0 L 98.0,260.0 L 95.6,251.0 Z M 98.0,380.0 L 95.6,251.0 L 95.6,380.0 Z M 64.4,251.0 L 62.0,260.0 L 62.0,380.0 Z M 64.4,251.0 L 62.0,380.0 L 64.4,380.0 Z M 170.0,185.0 L 179.0,191.0 L 179.0,182.6 Z M 214.4,89.0 L 245.6,89.0 L 245.6,20.0 Z M 214.4,89.0 L 245.6,20.0 L 214.4,20.0 Z M 131.0,182.6 L 179.0,182.6 L 179.0,151.4 Z M 131.0,182.6 L 179.0,151.4 L 131.0,151.4 Z M 214.4,233.0 L 245.6,233.0 L 245.6,191.0 Z M 214.4,233.0 L 245.6,191.0 L 214.4,191.0 Z M 64.4,380.0 L 95.6,380.0 L 95.6,251.0 Z M 64.4,380.0 L 95.6,251.0 L 64.4,251.0 Z" fill="#2a2a4e" stroke="none"/>
  <path d="M 83.7,159.3 L 80.5,193.0 M 80.5,193.0 L 114.2,196.2 M 114.2,196.2 L 117.3,162.5 M 117.3,162.5 L 83.7,159.3 M 239.3,234.9 L 220.9,263.3 M 220.9,263.3 L 249.4,281.7 M 249.4,281.7 L 267.7,253.2 M 267.7,253.2 L 239.3,234.9 M 212.0,149.9 L 188.3,174.1 M 188.3,174.1 L 212.5,197.7 M 212.5,197.7 L 236.2,173.5 M 236.2,173.5 L 212.0,149.9 M 276.4,101.7 L 243.6,93.8 M 243.6,93.8 L 235.7,126.6 M 235.7,126.6 L 268.5,134.5 M 268.5,134.5 L 276.4,101.7 M 278.0,241.2 L 262.9,224.0 M 262.9,224.0 L 251.6,224.0 M 278.0,249.8 L 278.0,241.2 M 290.0,200.0 L 290.0,80.0 M 290.0,80.0 L 248.0,80.0 M 212.0,80.0 L 170.0,80.0 M 170.0,80.0 L 170.0,149.0 M 179.0,191.0 L 193.6,200.0 M 193.6,200.0 L 212.0,200.0 M 248.0,200.0 L 290.0,200.0 M 214.4,20.0 L 212.0,20.0 M 212.0,20.0 L 212.0,80.0 M 248.0,20.0 L 245.6,20.0 M 248.0,80.0 L 248.0,20.0 M 170.0,149.0 L 140.0,149.0 M 140.0,185.0 L 170.0,185.0 M 140.0,140.0 L 20.0,140.0 M 140.0,149.0 L 140.0,140.0 M 98.0,260.0 L 123.7,260.0 M 123.7,260.0 L 131.0,251.0 M 140.0,249.5 L 140.0,185.0 M 131.0,251.0 L 140.0,249.5 M 182.0,320.0 L 278.0,320.0 M 212.0,200.0 L 212.0,224.0 M 248.0,224.0 L 248.0,200.0 M 191.0,233.0 L 182.0,237.0 M 182.0,237.0 L 182.0,320.0 M 251.6,224.0 L 248.0,224.0 M 278.0,320.0 L 278.0,249.8 M 212.0,224.0 L 196.9,224.0 M 196.9,224.0 L 191.0,233.0 M 20.0,140.0 L 20.0,260.0 M 20.0,260.0 L 62.0,260.0 M 98.0,380.0 L 98.0,260.0 M 95.6,380.0 L 98.0,380.0 M 62.0,260.0 L 62.0,380.0 M 62.0,380.0 L 64.4,380.0 M 170.0,185.0 L 179.0,191.0 M 245.6,20.0 L 214.4,20.0 M 64.4,380.0 L 95.6,380.0" fill="none" stroke="white" stroke-width="2" stroke-linecap="round"/>
  <polygon points="230.1911043484023,72.71193670575214 238.1911043484023,80.71193670575214 230.1911043484023,88.71193670575214 222.1911043484023,80.71193670575214" fill="#4a9eff" stroke="white" stroke-width="1"/>
<polygon points="79.20859511051857,326.12738357120253 87.20859511051857,334.12738357120253 79.20859511051857,342.12738357120253 71.20859511051857,334.12738357120253" fill="#4a9eff" stroke="white" stroke-width="1"/>
</svg>