<svg xmlns="http://www.w3.org/2000/svg" viewBox="0 0 400 400">
  <rect width="400" height="400" fill="#1a1a2e"/>
  <path d="M 170.0,50.0 L 109.1,50.0 L 109.1,109.6 Z M 170.0,50.0 L 109.1,109.6 L 170.0,110.4 Z M 302.5,110.3 L 302.5,49.8 L 241.6,49.8 Z M 302.5,110.3 L 241.6,49.8 L 241.6,109.4 Z M 230.0,200.0 L 169.1,200.0 L 169.1,259.6 Z M 230.0,200.0 L 169.1,259.6 L 230.0,260.4 Z M 159.3,226.3 L 193.0,229.5 L 196.2,195.8 Z M 159.3,226.3 L 196.2,195.8 L 162.5,192.6 Z M 199.7,264.1 L 233.4,267.3 L 236.6,233.6 Z M 199.7,264.1 L 236.6,233.6 L 202.9,230.4 Z M 234.9,70.7 L 263.3,89.0 L 281.7,60.6 Z M 234.9,70.7 L 281.7,60.6 L 253.2,42.2 Z M 149.9,98.0 L 174.1,121.7 L 197.7,97.5 Z M 149.9,98.0 L 197.7,97.5 L 173.5,73.8 Z M 106.3,35.7 L 98.4,68.5 L 131.2,76.5 Z M 106.3,35.7 L 131.2,76.5 L 139.1,43.7 Z M 170.0,50.0 L 191.0,29.0 L 89.0,29.0 Z M 170.0,50.0 L 89.0,29.0 L 109.1,50.0 Z M 109.1,50.0 L 89.0,29.0 L 89.0,64.4 Z M 109.1,50.0 L 89.0,64.4 L 89.0,95.6 Z M 109.1,109.6 L 151.4,131.0 L 182.6,131.0 Z M 109.1,109.6 L 182.6,131.0 L 170.0,110.4 Z M 170.0,110.4 L 182.6,131.0 L 191.0,131.0 Z M 170.0,110.4 L 191.0,131.0 L 191.0,95.6 Z M 243.2,41.0 L 241.6,49.8 L 302.5,49.8 Z M 243.2,41.0 L 302.5,49.8 L 311.0,41.0 Z M 311.0,41.0 L 302.5,49.8 L 302.5,110.3 Z M 311.0,41.0 L 302.5,110.3 L 311.0,119.0 Z M 311.0,119.0 L 302.5,110.3 L 241.6,109.4 Z M 311.0,119.0 L 241.6,109.4 L 233.0,119.0 Z M 233.0,119.0 L 241.6,109.4 L 233.0,64.4 Z M 233.0,119.0 L 233.0,64.4 L 233.0,95.6 Z M 251.0,214.4 L 251.0,179.0 L 230.0,200.0 Z M 251.0,179.0 L 182.6,179.0 L 230.0,200.0 Z M 169.1,259.6 L 149.0,281.0 L 230.0,260.4 Z M 149.0,281.0 L 184.4,280.8 L 230.0,260.4 Z M 230.0,260.4 L 184.4,280.8 L 215.6,280.8 Z M 215.6,280.8 L 251.0,280.4 L 230.0,260.4 Z M 251.0,280.4 L 251.0,245.6 L 230.0,260.4 Z M 233.0,49.4 L 233.0,64.4 L 241.6,109.4 Z M 233.0,49.4 L 241.6,109.4 L 241.6,49.8 Z M 191.0,95.6 L 191.0,64.4 L 170.0,50.0 Z M 191.0,95.6 L 170.0,50.0 L 170.0,110.4 Z M 89.0,131.0 L 109.1,109.6 L 109.1,50.0 Z M 89.0,131.0 L 109.1,50.0 L 89.0,95.6 Z M 149.0,179.0 L 149.0,281.0 L 169.1,259.6 Z M 149.0,179.0 L 169.1,259.6 L 169.1,200.0 Z M 230.0,260.4 L 251.0,245.6 L 251.0,214.4 Z M 230.0,260.4 L 251.0,214.4 L 230.0,200.0 Z M 169.1,200.0 L 230.0,200.0 L 182.6,179.0 Z M 169.1,200.0 L 182.6,179.0 L 151.4,179.0 Z M 241.6,49.8 L 243.2,41.0 L 233.0,49.4 Z M 89.0,131.0 L 151.4,131.0 L 109.1,109.6 Z M 170.0,50.0 L 191.0,64.4 L 191.0,29.0 Z M 151.4,179.0 L 149.0,179.0 L 169.1,200.0 Z M 224.0,58.3 L 233.0,49.4 L 241.2,32.0 Z M 224.0,58.3 L 241.2,32.0 L 224.0,47.0 Z M 249.8,32.0 L 241.2,32.0 L 233.0,49.4 Z M 249.8,32.0 L 233.0,49.4 L 243.2,41.0 Z M 89.0,95.6 L 80.0,98.0 L 80.0,140.0 Z M 89.0,95.6 L 80.0,140.0 L 89.0,131.0 Z M 89.0,131.0 L 80.0,140.0 L 149.0,140.0 Z M 89.0,131.0 L 149.0,140.0 L 151.4,131.0 Z M 200.0,98.0 L 191.0,95.6 L 191.0,131.0 Z M 200.0,98.0 L 191.0,131.0 L 200.0,116.4 Z M 200.0,20.0 L 191.0,29.0 L 191.0,64.4 Z M 200.0,20.0 L 191.0,64.4 L 200.0,62.0 Z M 191.0,29.0 L 200.0,20.0 L 80.0,20.0 Z M 191.0,29.0 L 80.0,20.0 L 89.0,29.0 Z M 89.0,29.0 L 80.0,20.0 L 80.0,62.0 Z M 89.0,29.0 L 80.0,62.0 L 89.0,64.4 Z M 89.0,95.6 L 20.0,95.6 L 20.0,98.0 Z M 89.0,95.6 L 20.0,98.0 L 80.0,98.0 Z M 20.0,62.0 L 20.0,64.4 L 89.0,64.4 Z M 20.0,62.0 L 89.0,64.4 L 80.0,62.0 Z M 151.4,131.0 L 149.0,140.0 L 149.0,170.0 Z M 151.4,131.0 L 149.0,170.0 L 151.4,179.0 Z M 185.0,170.0 L 185.0,140.0 L 182.6,131.0 Z M 185.0,170.0 L 182.6,131.0 L 182.6,179.0 Z M 149.0,281.0 L 149.0,179.0 L 140.0,170.0 Z M 149.0,281.0 L 140.0,170.0 L 140.0,289.9 Z M 140.0,170.0 L 149.0,179.0 L 151.4,179.0 Z M 140.0,170.0 L 151.4,179.0 L 149.0,170.0 Z M 260.0,212.0 L 260.0,186.2 L 251.0,179.0 Z M 260.0,212.0 L 251.0,179.0 L 251.0,214.4 Z M 249.5,170.0 L 185.0,170.0 L 182.6,179.0 Z M 249.5,170.0 L 182.6,179.0 L 251.0,179.0 Z M 311.0,119.0 L 320.0,128.0 L 320.0,32.0 Z M 311.0,119.0 L 320.0,32.0 L 311.0,41.0 Z M 224.0,98.0 L 233.0,95.6 L 191.0,95.6 Z M 224.0,98.0 L 191.0,95.6 L 200.0,98.0 Z M 224.0,62.0 L 200.0,62.0 L 191.0,64.4 Z M 224.0,62.0 L 191.0,64.4 L 233.0,64.4 Z M 233.0,119.0 L 237.0,128.0 L 320.0,128.0 Z M 233.0,119.0 L 320.0,128.0 L 311.0,119.0 Z M 224.0,62.0 L 233.0,64.4 L 233.0,49.4 Z M 224.0,62.0 L 233.0,49.4 L 224.0,58.3 Z M 320.0,32.0 L 249.8,32.0 L 243.2,41.0 Z M 320.0,32.0 L 243.2,41.0 L 311.0,41.0 Z M 233.0,95.6 L 224.0,98.0 L 224.0,113.0 Z M 233.0,95.6 L 224.0,113.0 L 233.0,119.0 Z M 184.4,280.8 L 149.0,281.0 L 140.0,289.9 Z M 184.4,280.8 L 140.0,289.9 L 182.0,289.9 Z M 251.0,245.6 L 251.0,280.4 L 260.0,290.0 Z M 251.0,245.6 L 260.0,290.0 L 260.0,248.0 Z M 260.0,290.0 L 251.0,280.4 L 215.6,280.8 Z M 260.0,290.0 L 215.6,280.8 L 218.0,289.9 Z M 218.0,344.0 L 218.0,289.9 L 215.6,280.8 Z M 218.0,344.0 L 215.6,280.8 L 215.6,344.0 Z M 184.4,280.8 L 182.0,289.9 L 182.0,344.0 Z M 184.4,280.8 L 182.0,344.0 L 184.4,344.0 Z M 380.0,212.0 L 260.0,212.0 L 251.0,214.4 Z M 380.0,212.0 L 251.0,214.4 L 380.0,214.4 Z M 251.0,245.6 L 260.0,248.0 L 380.0,248.0 Z M 251.0,245.6 L 380.0,248.0 L 380.0,245.6 Z M 185.0,140.0 L 191.0,131.0 L 182.6,131.0 Z M 89.0,95.6 L 89.0,64.4 L 20.0,64.4 Z M 89.0,95.6 L 20.0,64.4 L 20.0,95.6 Z M 182.6,179.0 L 182.6,131.0 L 151.4,131.0 Z M 182.6,179.0 L 151.4,131.0 L 151.4,179.0 Z M 233.0,95.6 L 233.0,64.4 L 191.0,64.4 Z M 233.0,95.6 L 191.0,64.4 L 191.0,95.6 Z M 184.4,344.0 L 215.6,344.0 L 215.6,280.8 Z M 184.4,344.0 L 215.6,280.8 L 184.4,280.8 Z M 380.0,245.6 L 380.0,214.4 L 251.0,214.4 Z M 380.0,245.6 L 251.0,214.4 L 251.0,245.6 Z" fill="#2a2a4e" stroke="none"/>
  <path d="M 159.3,226.3 L 193.0,229.5 M 193.0,229.5 L 196.2,195.8 M 196.2,195.8 L 162.5,192.6 M 162.5,192.6 L 159.3,226.3 M 199.7,264.1 L 233.4,267.3 M 233.4,267.3 L 236.6,233.6 M 236.6,233.6 L 202.9,230.4 M 202.9,230.4 L 199.7,264.1 M 234.9,70.7 L 263.3,89.0 M 263.3,89.0 L 281.7,60.6 M 281.7,60.6 L 253.2,42.2 M 253.2,42.2 L 234.9,70.7 M 149.9,98.0 L 174.1,121.7 M 174.1,121.7 L 197.7,97.5 M 197.7,97.5 L 173.5,73.8 M 173.5,73.8 L 149.9,98.0 M 106.3,35.7 L 98.4,68.5 M 98.4,68.5 L 131.2,76.5 M 131.2,76.5 L 139.1,43.7 M 139.1,43.7 L 106.3,35.7 M 241.2,32.0 L 224.0,47.0 M 224.0,47.0 L 224.0,58.3 M 249.8,32.0 L 241.2,32.0 M 80.0,98.0 L 80.0,140.0 M 80.0,140.0 L 149.0,140.0 M 191.0,131.0 L 200.0,116.4 M 200.0,116.4 L 200.0,98.0 M 200.0,62.0 L 200.0,20.0 M 200.0,20.0 L 80.0,20.0 M 80.0,20.0 L 80.0,62.0 M 20.0,95.6 L 20.0,98.0 M 20.0,98.0 L 80.0,98.0 M 20.0,62.0 L 20.0,64.4 M 80.0,62.0 L 20.0,62.0 M 149.0,140.0 L 149.0,170.0 M 185.0,170.0 L 185.0,140.0 M 140.0,170.0 L 140.0,289.9 M 149.0,170.0 L 140.0,170.0 M 260.0,212.0 L 260.0,186.2 M 260.0,186.2 L 251.0,179.0 M 249.5,170.0 L 185.0,170.0 M 251.0,179.0 L 249.5,170.0 M 320.0,128.0 L 320.0,32.0 M 200.0,98.0 L 224.0,98.0 M 224.0,62.0 L 200.0,62.0 M 233.0,119.0 L 237.0,128.0 M 237.0,128.0 L 320.0,128.0 M 224.0,58.3 L 224.0,62.0 M 320.0,32.0 L 249.8,32.0 M 224.0,98.0 L 224.0,113.0 M 224.0,113.0 L 233.0,119.0 M 140.0,289.9 L 182.0,289.9 M 260.0,290.0 L 260.0,248.0 M 218.0,289.9 L 260.0,290.0 M 218.0,344.0 L 218.0,289.9 M 215.6,344.0 L 218.0,344.0 M 182.0,289.9 L 182.0,344.0 M 182.0,344.0 L 184.4,344.0 M 380.0,212.0 L 260.0,212.0 M 380.0,214.4 L 380.0,212.0 M 260.0,248.0 L 380.0,248.0 M 380.0,248.0 L 380.0,245.6 M 185.0,140.0 L 191.0,131.0 M 20.0,64.4 L 20.0,95.6 M 184.4,344.0 L 215.6,344.0 M 380.0,245.6 L 380.0,214.4" fill="none" stroke="white" stroke-width="2" stroke-linecap="round"/>
  <polygon points="336.7264678532839,221.7610959757773 344.7264678532839,229.7610959757773 336.7264678532839,237.7610959757773 328.7264678532839,229.7610959757773" fill="#4a9eff" stroke="white" stroke-width="1"/>
<polygon points="201.20924598678545,285.9712172397693 209.20924598678545,293.9712172397693 201.20924598678545,301.9712172397693 193.20924598678545,293.9712172397693" fill="#4a9eff" stroke="white" stroke-width="1"/>
<polygon points="77.66830631196584,73.35346448513441 85.66830631196584,81.35346448513441 77.66830631196584,89.35346448513441 69.66830631196584,81.35346448513441" fill="#4a9eff" stroke="white" stroke-width="1"/>
</svg>