<svg xmlns="http://www.w3.org/2000/svg" viewBox="0 0 400 400">
  <rect width="400" height="400" fill="#1a1a2e"/>
  <path d="M 53.7,155.1 L 53.7,222.6 L 87.4,222.6 Z M 53.7,155.1 L 87.4,222.6 L 162.2,166.1 Z M 162.2,166.1 L 87.4,222.6 L 87.4,256.4 Z M 162.2,166.1 L 87.4,256.4 L 150.5,256.4 Z M 312.6,256.4 L 312.6,222.6 L 281.5,222.6 Z M 312.6,256.4 L 281.5,222.6 L 249.5,256.4 Z M 249.5,256.4 L 281.5,222.6 L 247.7,222.6 Z M 249.5,256.4 L 247.7,222.6 L 218.0,256.4 Z M 218.0,256.4 L 247.7,222.6 L 248.6,191.1 Z M 218.0,256.4 L 248.6,191.1 L 182.0,256.4 Z M 182.0,256.4 L 248.6,191.1 L 162.2,166.1 Z M 182.0,256.4 L 162.2,166.1 L 150.5,256.4 Z M 248.2,53.9 L 150.5,53.8 L 150.5,87.5 Z M 248.2,53.9 L 150.5,87.5 L 248.6,191.1 Z M 248.6,191.1 L 150.5,87.5 L 150.5,119.0 Z M 248.6,191.1 L 150.5,119.0 L 162.2,166.1 Z M 162.2,166.1 L 150.5,119.0 L 119.0,119.0 Z M 162.2,166.1 L 119.0,119.0 L 53.7,155.1 Z M 218.0,256.4 L 182.0,256.4 L 182.0,362.2 Z M 218.0,256.4 L 182.0,362.2 L 218.0,362.2 Z M 53.7,155.1 L 119.0,119.0 L 53.7,119.0 Z M 346.3,191.1 L 281.5,191.1 L 281.5,222.6 Z M 346.3,191.1 L 281.5,222.6 L 312.6,222.6 Z M 150.5,20.0 L 150.5,53.8 L 248.2,53.9 Z M 150.5,20.0 L 248.2,53.9 L 247.6,20.0 Z M 312.6,256.4 L 249.5,256.4 L 249.5,290.1 Z M 312.6,256.4 L 249.5,290.1 L 312.6,290.1 Z M 150.5,53.8 L 119.0,53.8 L 119.0,87.5 Z M 150.5,53.8 L 119.0,87.5 L 150.5,87.5 Z M 20.2,119.0 L 20.3,155.1 L 53.7,155.1 Z M 20.2,119.0 L 53.7,155.1 L 53.7,119.0 Z M 87.4,290.1 L 150.5,290.1 L 150.5,256.4 Z M 87.4,290.1 L 150.5,256.4 L 87.4,256.4 Z M 20.1,222.6 L 53.7,222.6 L 53.7,155.1 Z M 20.1,222.6 L 53.7,155.1 L 20.3,155.1 Z M 119.0,87.5 L 53.7,87.5 L 53.7,119.0 Z M 119.0,87.5 L 53.7,119.0 L 119.0,119.0 Z M 281.5,191.1 L 281.4,54.0 L 248.2,53.9 Z M 281.5,191.1 L 248.2,53.9 L 248.6,191.1 Z M 218.0,256.4 L 218.0,362.2 L 227.0,362.2 Z M 218.0,256.4 L 227.0,362.2 L 227.0,290.1 Z M 173.0,362.2 L 182.0,362.2 L 182.0,256.4 Z M 173.0,362.2 L 182.0,256.4 L 173.0,290.1 Z M 312.6,222.6 L 346.3,222.6 L 346.3,191.1 Z M 346.3,256.4 L 380.0,256.4 L 379.9,222.6 Z M 346.3,256.4 L 379.9,222.6 L 346.3,222.6 Z M 312.6,256.4 L 346.3,256.4 L 346.3,222.6 Z M 312.6,256.4 L 346.3,222.6 L 312.6,222.6 Z M 312.6,290.1 L 346.3,290.1 L 346.3,256.4 Z M 312.6,290.1 L 346.3,256.4 L 312.6,256.4 Z M 20.1,222.6 L 20.0,256.4 L 53.7,256.4 Z M 20.1,222.6 L 53.7,256.4 L 53.7,222.6 Z M 53.7,222.6 L 53.7,256.4 L 87.4,256.4 Z M 53.7,222.6 L 87.4,256.4 L 87.4,222.6 Z M 53.7,256.4 L 53.7,290.1 L 87.4,290.1 Z M 53.7,256.4 L 87.4,290.1 L 87.4,256.4 Z M 20.1,87.5 L 20.2,119.0 L 53.7,119.0 Z M 20.1,87.5 L 53.7,119.0 L 53.7,87.5 Z M 119.0,53.8 L 150.5,53.8 L 150.5,20.0 Z M 119.0,53.8 L 150.5,20.0 L 119.0,20.0 Z M 119.0,87.5 L 119.0,119.0 L 150.5,119.0 Z M 119.0,87.5 L 150.5,119.0 L 150.5,87.5 Z M 346.3,191.1 L 346.3,222.6 L 379.9,222.6 Z M 346.3,191.1 L 379.9,222.6 L 379.8,191.1 Z M 281.5,191.1 L 248.6,191.1 L 247.7,222.6 Z M 281.5,191.1 L 247.7,222.6 L 281.5,222.6 Z M 281.4,54.0 L 281.3,20.0 L 247.6,20.0 Z M 281.4,54.0 L 247.6,20.0 L 248.2,53.9 Z M 249.5,256.4 L 218.0,256.4 L 227.0,290.1 Z M 249.5,256.4 L 227.0,290.1 L 249.5,290.1 Z M 150.5,290.1 L 173.0,290.1 L 182.0,256.4 Z M 150.5,290.1 L 182.0,256.4 L 150.5,256.4 Z M 20.0,53.8 L 20.1,87.5 L 53.7,87.5 Z M 20.0,53.8 L 53.7,87.5 L 53.7,53.8 Z M 53.7,53.8 L 53.7,87.5 L 119.0,87.5 Z M 53.7,53.8 L 119.0,87.5 L 119.0,53.8 Z M 346.3,191.1 L 346.3,53.8 L 346.3,155.1 Z M 346.3,53.8 L 281.5,191.1 L 346.3,155.1 Z M 346.3,155.1 L 281.5,191.1 L 346.3,191.1 Z M 380.0,53.8 L 346.3,53.8 L 379.8,191.1 Z M 346.3,53.8 L 346.3,191.1 L 379.8,191.1 Z M 281.3,20.0 L 281.4,54.0 L 346.3,53.8 Z M 281.3,20.0 L 346.3,53.8 L 346.3,20.0 Z M 53.7,53.8 L 119.0,53.8 L 119.0,20.0 Z M 53.7,53.8 L 119.0,20.0 L 53.7,20.0 Z M 281.5,191.1 L 346.3,53.8 L 281.4,54.0 Z" fill="#2a2a4e" stroke="none"/>
  <path d="M 182.0,362.2 L 218.0,362.2 M 247.6,20.0 L 150.5,20.0 M 249.5,290.1 L 312.6,290.1 M 20.2,119.0 L 20.3,155.1 M 87.4,290.1 L 150.5,290.1 M 20.3,155.1 L 20.1,222.6 M 218.0,362.2 L 227.0,362.2 M 227.0,362.2 L 227.0,290.1 M 173.0,362.2 L 182.0,362.2 M 173.0,290.1 L 173.0,362.2 M 346.3,256.4 L 380.0,256.4 M 380.0,256.4 L 379.9,222.6 M 312.6,290.1 L 346.3,290.1 M 346.3,290.1 L 346.3,256.4 M 20.1,222.6 L 20.0,256.4 M 20.0,256.4 L 53.7,256.4 M 53.7,256.4 L 53.7,290.1 M 53.7,290.1 L 87.4,290.1 M 20.1,87.5 L 20.2,119.0 M 150.5,20.0 L 119.0,20.0 M 379.9,222.6 L 379.8,191.1 M 281.3,20.0 L 247.6,20.0 M 227.0,290.1 L 249.5,290.1 M 150.5,290.1 L 173.0,290.1 M 20.0,53.8 L 20.1,87.5 M 53.7,53.8 L 20.0,53.8 M 380.0,53.8 L 346.3,53.8 M 379.8,191.1 L 380.0,53.8 M 346.3,53.8 L 346.3,20.0 M 346.3,20.0 L 281.3,20.0 M 119.0,20.0 L 53.7,20.0 M 53.7,20.0 L 53.7,53.8" fill="none" stroke="white" stroke-width="2" stroke-linecap="round"/>
  <polygon points="196.91550408496087,289.31766520669186 204.91550408496087,297.31766520669186 196.91550408496087,305.31766520669186 188.91550408496087,297.31766520669186" fill="#4a9eff" stroke="white" stroke-width="1"/>
</svg>