<svg xmlns="http://www.w3.org/2000/svg" viewBox="0 0 400 400">
  <rect width="400" height="400" fill="#1a1a2e"/>
  <path d="M 163.0,264.8 L 216.2,256.6 L 194.1,212.0 Z M 163.0,264.8 L 194.1,212.0 L 149.9,231.0 Z M 237.4,159.3 L 267.9,178.9 L 287.5,148.5 Z M 237.4,159.3 L 287.5,148.5 L 257.0,128.8 Z M 299.2,306.8 L 318.0,263.2 L 266.9,239.7 Z M 299.2,306.8 L 266.9,239.7 L 248.1,283.2 Z M 140.3,158.1 L 170.7,177.7 L 190.4,147.3 Z M 140.3,158.1 L 190.4,147.3 L 159.9,127.6 Z M 280.4,141.8 L 280.4,119.6 L 257.9,95.5 Z M 280.4,141.8 L 257.9,95.5 L 257.9,141.8 Z M 95.7,118.8 L 71.4,119.6 L 71.4,164.6 Z M 95.7,118.8 L 71.4,164.6 L 95.7,163.8 Z M 328.6,164.6 L 328.6,119.6 L 304.5,119.6 Z M 328.6,164.6 L 304.5,119.6 L 304.5,164.6 Z M 119.6,257.9 L 119.6,235.4 L 95.5,235.4 Z M 119.6,257.9 L 95.5,235.4 L 95.5,257.9 Z M 304.5,235.4 L 304.5,280.4 L 328.6,280.4 Z M 304.5,235.4 L 328.6,280.4 L 328.6,235.4 Z M 235.4,304.5 L 235.4,328.4 L 280.4,328.5 Z M 235.4,304.5 L 280.4,328.5 L 280.4,304.5 Z M 142.1,304.5 L 142.1,257.9 L 119.6,257.9 Z M 142.1,304.5 L 119.6,257.9 L 119.6,304.5 Z M 164.6,164.6 L 257.9,165.3 L 257.9,141.8 Z M 164.6,164.6 L 257.9,141.8 L 164.6,141.8 Z M 164.6,304.5 L 142.1,304.5 L 142.5,328.6 Z M 164.6,304.5 L 142.5,328.6 L 164.6,328.6 Z M 20.0,219.3 L 71.4,219.3 L 95.5,212.9 Z M 20.0,219.3 L 95.5,212.9 L 20.0,212.9 Z M 95.7,186.3 L 71.4,180.7 L 20.0,180.7 Z M 95.7,186.3 L 20.0,180.7 L 20.0,187.1 Z M 380.0,180.7 L 328.6,180.7 L 304.5,187.1 Z M 380.0,180.7 L 304.5,187.1 L 380.0,187.1 Z M 304.5,212.9 L 328.6,219.3 L 380.0,219.3 Z M 304.5,212.9 L 380.0,219.3 L 380.0,212.9 Z M 219.3,380.0 L 219.3,328.6 L 212.9,304.5 Z M 219.3,380.0 L 212.9,304.5 L 212.9,380.0 Z M 187.1,304.5 L 180.7,328.6 L 180.7,380.0 Z M 187.1,304.5 L 180.7,380.0 L 187.1,380.0 Z M 119.6,95.5 L 142.1,95.5 L 142.1,71.6 Z M 119.6,95.5 L 142.1,71.6 L 119.6,71.6 Z M 142.1,95.5 L 142.1,141.7 L 164.6,141.8 Z M 142.1,95.5 L 164.6,141.8 L 164.6,95.5 Z M 280.4,119.6 L 280.4,95.5 L 257.9,95.5 Z M 235.4,304.5 L 280.4,304.5 L 280.4,280.4 Z M 235.4,304.5 L 280.4,280.4 L 212.9,304.5 Z M 212.9,304.5 L 280.4,280.4 L 240.0,227.0 Z M 212.9,304.5 L 240.0,227.0 L 187.1,304.5 Z M 187.1,304.5 L 240.0,227.0 L 142.1,235.4 Z M 187.1,304.5 L 142.1,235.4 L 142.1,257.9 Z M 304.5,119.6 L 280.4,119.6 L 280.4,141.8 Z M 304.5,119.6 L 280.4,141.8 L 304.5,164.6 Z M 304.5,164.6 L 280.4,141.8 L 280.4,165.9 Z M 304.5,164.6 L 280.4,165.9 L 304.5,187.1 Z M 304.5,187.1 L 280.4,165.9 L 257.9,165.3 Z M 304.5,187.1 L 257.9,165.3 L 304.5,212.9 Z M 304.5,212.9 L 257.9,165.3 L 240.0,227.0 Z M 304.5,212.9 L 240.0,227.0 L 304.5,235.4 Z M 304.5,235.4 L 240.0,227.0 L 280.4,280.4 Z M 304.5,235.4 L 280.4,280.4 L 304.5,280.4 Z M 142.1,95.5 L 119.6,95.5 L 119.9,118.8 Z M 142.1,95.5 L 119.9,118.8 L 142.1,141.7 Z M 142.1,141.7 L 119.9,118.8 L 95.7,118.8 Z M 142.1,141.7 L 95.7,118.8 L 95.7,163.8 Z M 142.1,165.3 L 95.7,186.3 L 164.6,164.6 Z M 95.7,186.3 L 95.5,212.9 L 164.6,164.6 Z M 119.6,235.4 L 142.1,235.4 L 164.6,164.6 Z M 142.1,235.4 L 240.0,227.0 L 164.6,164.6 Z M 164.6,164.6 L 240.0,227.0 L 257.9,165.3 Z M 187.1,304.5 L 142.1,257.9 L 142.1,304.5 Z M 187.1,304.5 L 142.1,304.5 L 164.6,304.5 Z M 95.5,235.4 L 119.6,235.4 L 164.6,164.6 Z M 95.5,235.4 L 164.6,164.6 L 95.5,212.9 Z M 20.0,187.1 L 20.0,212.9 L 95.5,212.9 Z M 20.0,187.1 L 95.5,212.9 L 95.7,186.3 Z M 380.0,212.9 L 380.0,187.1 L 304.5,187.1 Z M 380.0,212.9 L 304.5,187.1 L 304.5,212.9 Z M 187.1,380.0 L 212.9,380.0 L 212.9,304.5 Z M 187.1,380.0 L 212.9,304.5 L 187.1,304.5 Z M 95.7,186.3 L 142.1,165.3 L 142.1,141.7 Z M 95.7,186.3 L 142.1,141.7 L 95.7,163.8 Z M 95.5,95.5 L 119.6,95.5 L 119.6,71.6 Z M 95.5,95.5 L 119.6,71.6 L 95.5,71.5 Z M 95.7,118.8 L 119.9,118.8 L 119.6,95.5 Z M 95.7,118.8 L 119.6,95.5 L 95.5,95.5 Z M 71.4,119.6 L 95.7,118.8 L 95.5,95.5 Z M 71.4,119.6 L 95.5,95.5 L 71.4,95.5 Z M 142.1,95.5 L 164.6,95.5 L 164.6,71.6 Z M 142.1,95.5 L 164.6,71.6 L 142.1,71.6 Z M 164.6,141.8 L 142.1,141.7 L 142.1,165.3 Z M 164.6,141.8 L 142.1,165.3 L 164.6,164.6 Z M 280.4,71.6 L 280.4,95.5 L 304.5,95.5 Z M 280.4,71.6 L 304.5,95.5 L 304.5,71.5 Z M 280.4,95.5 L 280.4,119.6 L 304.5,119.6 Z M 280.4,95.5 L 304.5,119.6 L 304.5,95.5 Z M 304.5,95.5 L 304.5,119.6 L 328.6,119.6 Z M 304.5,95.5 L 328.6,119.6 L 328.6,95.5 Z M 304.5,304.5 L 280.4,304.5 L 280.4,328.5 Z M 304.5,304.5 L 280.4,328.5 L 304.5,328.5 Z M 304.5,280.4 L 280.4,280.4 L 280.4,304.5 Z M 304.5,280.4 L 280.4,304.5 L 304.5,304.5 Z M 328.6,280.4 L 304.5,280.4 L 304.5,304.5 Z M 328.6,280.4 L 304.5,304.5 L 328.6,304.5 Z M 71.4,235.4 L 71.4,257.9 L 95.5,257.9 Z M 71.4,235.4 L 95.5,257.9 L 95.5,235.4 Z M 142.1,235.4 L 119.6,235.4 L 119.6,257.9 Z M 142.1,235.4 L 119.6,257.9 L 142.1,257.9 Z M 280.4,71.6 L 257.9,71.6 L 257.9,95.5 Z M 280.4,71.6 L 257.9,95.5 L 280.4,95.5 Z M 280.4,165.9 L 280.4,141.8 L 257.9,141.8 Z M 280.4,165.9 L 257.9,141.8 L 257.9,165.3 Z M 119.6,304.5 L 119.6,328.6 L 142.5,328.6 Z M 119.6,304.5 L 142.5,328.6 L 142.1,304.5 Z M 71.4,219.3 L 71.4,235.4 L 95.5,235.4 Z M 71.4,219.3 L 95.5,235.4 L 95.5,212.9 Z M 95.7,186.3 L 95.7,163.8 L 71.4,164.6 Z M 95.7,186.3 L 71.4,164.6 L 71.4,180.7 Z M 328.6,180.7 L 328.6,164.6 L 304.5,164.6 Z M 328.6,180.7 L 304.5,164.6 L 304.5,187.1 Z M 304.5,212.9 L 304.5,235.4 L 328.6,235.4 Z M 304.5,212.9 L 328.6,235.4 L 328.6,219.3 Z M 219.3,328.6 L 235.4,328.4 L 235.4,304.5 Z M 219.3,328.6 L 235.4,304.5 L 212.9,304.5 Z M 187.1,304.5 L 164.6,304.5 L 164.6,328.6 Z M 187.1,304.5 L 164.6,328.6 L 180.7,328.6 Z M 180.7,71.4 L 164.6,95.5 L 164.6,141.8 Z M 180.7,71.4 L 164.6,141.8 L 219.3,71.4 Z M 219.3,71.4 L 164.6,141.8 L 257.9,95.5 Z M 219.3,71.4 L 257.9,95.5 L 257.9,71.6 Z M 71.4,257.9 L 71.4,304.5 L 95.5,304.5 Z M 71.4,257.9 L 95.5,304.5 L 95.5,257.9 Z M 95.5,257.9 L 95.5,304.5 L 119.6,304.5 Z M 95.5,257.9 L 119.6,304.5 L 119.6,257.9 Z M 119.6,328.6 L 119.6,304.5 L 95.5,304.5 Z M 119.6,328.6 L 95.5,304.5 L 95.5,328.5 Z M 219.3,20.0 L 180.7,20.0 L 180.7,71.4 Z M 219.3,20.0 L 180.7,71.4 L 219.3,71.4 Z M 180.7,71.4 L 164.6,71.6 L 164.6,95.5 Z M 164.6,141.8 L 257.9,141.8 L 257.9,95.5 Z M 119.6,328.6 L 164.6,328.6 L 142.5,328.6 Z" fill="#2a2a4e" stroke="none"/>
  <path d="M 163.0,264.8 L 216.2,256.6 M 216.2,256.6 L 194.1,212.0 M 194.1,212.0 L 149.9,231.0 M 149.9,231.0 L 163.0,264.8 M 237.4,159.3 L 267.9,178.9 M 267.9,178.9 L 287.5,148.5 M 287.5,148.5 L 257.0,128.8 M 257.0,128.8 L 237.4,159.3 M 299.2,306.8 L 318.0,263.2 M 318.0,263.2 L 266.9,239.7 M 266.9,239.7 L 248.1,283.2 M 248.1,283.2 L 299.2,306.8 M 140.3,158.1 L 170.7,177.7 M 170.7,177.7 L 190.4,147.3 M 190.4,147.3 L 159.9,127.6 M 159.9,127.6 L 140.3,158.1 M 71.4,119.6 L 71.4,164.6 M 328.6,164.6 L 328.6,119.6 M 328.6,280.4 L 328.6,235.4 M 235.4,328.4 L 280.4,328.5 M 20.0,219.3 L 71.4,219.3 M 20.0,212.9 L 20.0,219.3 M 71.4,180.7 L 20.0,180.7 M 20.0,180.7 L 20.0,187.1 M 380.0,180.7 L 328.6,180.7 M 380.0,187.1 L 380.0,180.7 M 328.6,219.3 L 380.0,219.3 M 380.0,219.3 L 380.0,212.9 M 219.3,380.0 L 219.3,328.6 M 212.9,380.0 L 219.3,380.0 M 180.7,328.6 L 180.7,380.0 M 180.7,380.0 L 187.1,380.0 M 142.1,71.6 L 119.6,71.6 M 20.0,187.1 L 20.0,212.9 M 380.0,212.9 L 380.0,187.1 M 187.1,380.0 L 212.9,380.0 M 119.6,71.6 L 95.5,71.5 M 95.5,71.5 L 95.5,95.5 M 95.5,95.5 L 71.4,95.5 M 71.4,95.5 L 71.4,119.6 M 164.6,71.6 L 142.1,71.6 M 304.5,95.5 L 304.5,71.5 M 304.5,71.5 L 280.4,71.6 M 328.6,119.6 L 328.6,95.5 M 328.6,95.5 L 304.5,95.5 M 280.4,328.5 L 304.5,328.5 M 304.5,328.5 L 304.5,304.5 M 304.5,304.5 L 328.6,304.5 M 328.6,304.5 L 328.6,280.4 M 71.4,235.4 L 71.4,257.9 M 280.4,71.6 L 257.9,71.6 M 71.4,219.3 L 71.4,235.4 M 71.4,164.6 L 71.4,180.7 M 328.6,180.7 L 328.6,164.6 M 328.6,235.4 L 328.6,219.3 M 219.3,328.6 L 235.4,328.4 M 164.6,328.6 L 180.7,328.6 M 257.9,71.6 L 219.3,71.4 M 71.4,257.9 L 71.4,304.5 M 71.4,304.5 L 95.5,304.5 M 95.5,304.5 L 95.5,328.5 M 95.5,328.5 L 119.6,328.6 M 219.3,20.0 L 180.7,20.0 M 180.7,20.0 L 180.7,71.4 M 219.3,71.4 L 219.3,20.0 M 180.7,71.4 L 164.6,71.6 M 119.6,328.6 L 164.6,328.6" fill="none" stroke="white" stroke-width="2" stroke-linecap="round"/>
  <polygon points="199.51960714567124,327.32091867411464 207.51960714567124,335.32091867411464 199.51960714567124,343.32091867411464 191.51960714567124,335.32091867411464" fill="#4a9eff" stroke="white" stroke-width="1"/>
<polygon points="63.78327701278945,192.29763974395715 71.78327701278945,200.29763974395715 63.78327701278945,208.29763974395715 55.78327701278945,200.29763974395715" fill="#4a9eff" stroke="white" stroke-width="1"/>
<polygon points="200.44991734708185,57.160371226665816 208.44991734708185,65.16037122666582 200.44991734708185,73.16037122666582 192.44991734708185,65.16037122666582" fill="#4a9eff" stroke="white" stroke-width="1"/>
<polygon points="334.1213000201152,194.1445393019838 342.1213000201152,202.1445393019838 334.1213000201152,210.1445393019838 326.1213000201152,202.1445393019838" fill="#4a9eff" stroke="white" stroke-width="1"/>
</svg>