<svg xmlns="http://www.w3.org/2000/svg" viewBox="0 0 400 400">
  <rect width="400" height="400" fill="#1a1a2e"/>
  <path d="M 163.0,213.3 L 216.2,205.1 L 194.1,160.5 Z M 163.0,213.3 L 194.1,160.5 L 149.9,179.5 Z M 237.4,107.8 L 267.9,127.5 L 287.5,97.0 Z M 237.4,107.8 L 287.5,97.0 L 257.0,77.3 Z M 162.4,111.8 L 181.2,68.3 L 130.0,44.7 Z M 162.4,111.8 L 130.0,44.7 L 111.2,88.3 Z M 198.6,181.5 L 229.1,201.2 L 248.8,170.7 Z M 198.6,181.5 L 248.8,170.7 L 218.3,151.1 Z M 280.4,90.3 L 280.4,68.2 L 257.9,44.0 Z M 280.4,90.3 L 257.9,44.0 L 257.9,90.3 Z M 95.7,67.3 L 71.4,68.2 L 71.4,113.2 Z M 95.7,67.3 L 71.4,113.2 L 95.7,112.3 Z M 164.6,44.0 L 164.6,20.2 L 119.6,20.1 Z M 164.6,44.0 L 119.6,20.1 L 119.6,44.0 Z M 328.6,113.2 L 328.6,68.2 L 304.5,68.2 Z M 328.6,113.2 L 304.5,68.2 L 304.5,113.2 Z M 119.6,206.4 L 119.6,183.9 L 95.5,183.9 Z M 119.6,206.4 L 95.5,183.9 L 95.5,206.4 Z M 304.5,183.9 L 304.5,228.9 L 328.6,228.9 Z M 304.5,183.9 L 328.6,228.9 L 328.6,183.9 Z M 235.4,253.0 L 235.4,277.0 L 280.4,277.0 Z M 235.4,253.0 L 280.4,277.0 L 280.4,253.0 Z M 142.1,253.0 L 142.1,206.4 L 119.6,206.4 Z M 142.1,253.0 L 119.6,206.4 L 119.6,253.0 Z M 257.9,90.3 L 189.3,90.3 L 189.3,113.2 Z M 257.9,90.3 L 189.3,113.2 L 257.9,113.8 Z M 164.6,44.0 L 164.6,90.3 L 189.3,90.3 Z M 164.6,44.0 L 189.3,90.3 L 189.3,60.8 Z M 164.6,253.0 L 142.1,253.0 L 142.5,277.1 Z M 164.6,253.0 L 142.5,277.1 L 164.6,277.1 Z M 20.0,167.8 L 71.4,167.8 L 95.5,161.4 Z M 20.0,167.8 L 95.5,161.4 L 20.0,161.4 Z M 95.7,134.8 L 71.4,129.2 L 20.0,129.2 Z M 95.7,134.8 L 20.0,129.2 L 20.0,135.7 Z M 380.0,129.2 L 328.6,129.2 L 304.5,135.7 Z M 380.0,129.2 L 304.5,135.7 L 380.0,135.7 Z M 304.5,161.4 L 328.6,167.8 L 380.0,167.8 Z M 304.5,161.4 L 380.0,167.8 L 380.0,161.4 Z M 219.3,328.5 L 219.3,277.1 L 212.9,253.0 Z M 219.3,328.5 L 212.9,253.0 L 212.9,328.5 Z M 187.1,253.0 L 180.7,277.1 L 180.7,328.5 Z M 187.1,253.0 L 180.7,328.5 L 187.1,328.5 Z M 280.4,68.2 L 280.4,44.0 L 257.9,44.0 Z M 164.6,90.3 L 95.7,112.3 L 95.7,134.8 Z M 164.6,90.3 L 95.7,134.8 L 164.6,113.2 Z M 164.6,113.2 L 95.7,134.8 L 95.5,161.4 Z M 164.6,113.2 L 95.5,161.4 L 189.3,113.2 Z M 189.3,113.2 L 95.5,161.4 L 95.5,183.9 Z M 189.3,113.2 L 95.5,183.9 L 119.6,183.9 Z M 235.4,253.0 L 280.4,253.0 L 280.4,228.9 Z M 235.4,253.0 L 280.4,228.9 L 212.9,253.0 Z M 212.9,253.0 L 280.4,228.9 L 240.0,175.5 Z M 212.9,253.0 L 240.0,175.5 L 187.1,253.0 Z M 187.1,253.0 L 240.0,175.5 L 142.1,183.9 Z M 187.1,253.0 L 142.1,183.9 L 142.1,206.4 Z M 164.6,44.0 L 119.6,44.0 L 119.9,67.3 Z M 164.6,44.0 L 119.9,67.3 L 164.6,90.3 Z M 164.6,90.3 L 119.9,67.3 L 95.7,67.3 Z M 164.6,90.3 L 95.7,67.3 L 95.7,112.3 Z M 304.5,68.2 L 280.4,68.2 L 280.4,90.3 Z M 304.5,68.2 L 280.4,90.3 L 304.5,113.2 Z M 304.5,113.2 L 280.4,90.3 L 280.4,114.4 Z M 304.5,113.2 L 280.4,114.4 L 304.5,135.7 Z M 304.5,135.7 L 280.4,114.4 L 257.9,113.8 Z M 304.5,135.7 L 257.9,113.8 L 304.5,161.4 Z M 304.5,161.4 L 257.9,113.8 L 240.0,175.5 Z M 304.5,161.4 L 240.0,175.5 L 304.5,183.9 Z M 304.5,183.9 L 240.0,175.5 L 280.4,228.9 Z M 304.5,183.9 L 280.4,228.9 L 304.5,228.9 Z M 187.1,253.0 L 142.1,206.4 L 142.1,253.0 Z M 187.1,253.0 L 142.1,253.0 L 164.6,253.0 Z M 119.6,183.9 L 142.1,183.9 L 240.0,175.5 Z M 119.6,183.9 L 240.0,175.5 L 189.3,113.2 Z M 20.0,135.7 L 20.0,161.4 L 95.5,161.4 Z M 20.0,135.7 L 95.5,161.4 L 95.7,134.8 Z M 380.0,161.4 L 380.0,135.7 L 304.5,135.7 Z M 380.0,161.4 L 304.5,135.7 L 304.5,161.4 Z M 187.1,328.5 L 212.9,328.5 L 212.9,253.0 Z M 187.1,328.5 L 212.9,253.0 L 187.1,253.0 Z M 257.9,113.8 L 189.3,113.2 L 240.0,175.5 Z M 95.5,44.0 L 119.6,44.0 L 119.6,20.1 Z M 95.5,44.0 L 119.6,20.1 L 95.5,20.0 Z M 95.7,67.3 L 119.9,67.3 L 119.6,44.0 Z M 95.7,67.3 L 119.6,44.0 L 95.5,44.0 Z M 71.4,68.2 L 95.7,67.3 L 95.5,44.0 Z M 71.4,68.2 L 95.5,44.0 L 71.4,44.0 Z M 280.4,20.1 L 280.4,44.0 L 304.5,44.0 Z M 280.4,20.1 L 304.5,44.0 L 304.5,20.0 Z M 280.4,44.0 L 280.4,68.2 L 304.5,68.2 Z M 280.4,44.0 L 304.5,68.2 L 304.5,44.0 Z M 304.5,44.0 L 304.5,68.2 L 328.6,68.2 Z M 304.5,44.0 L 328.6,68.2 L 328.6,44.0 Z M 304.5,253.0 L 280.4,253.0 L 280.4,277.0 Z M 304.5,253.0 L 280.4,277.0 L 304.5,277.0 Z M 304.5,228.9 L 280.4,228.9 L 280.4,253.0 Z M 304.5,228.9 L 280.4,253.0 L 304.5,253.0 Z M 328.6,228.9 L 304.5,228.9 L 304.5,253.0 Z M 328.6,228.9 L 304.5,253.0 L 328.6,253.0 Z M 71.4,183.9 L 71.4,206.4 L 95.5,206.4 Z M 71.4,183.9 L 95.5,206.4 L 95.5,183.9 Z M 142.1,183.9 L 119.6,183.9 L 119.6,206.4 Z M 142.1,183.9 L 119.6,206.4 L 142.1,206.4 Z M 164.6,90.3 L 164.6,113.2 L 189.3,113.2 Z M 164.6,90.3 L 189.3,113.2 L 189.3,90.3 Z M 280.4,20.1 L 257.9,20.1 L 257.9,44.0 Z M 280.4,20.1 L 257.9,44.0 L 280.4,44.0 Z M 280.4,114.4 L 280.4,90.3 L 257.9,90.3 Z M 280.4,114.4 L 257.9,90.3 L 257.9,113.8 Z M 119.6,253.0 L 119.6,277.1 L 142.5,277.1 Z M 119.6,253.0 L 142.5,277.1 L 142.1,253.0 Z M 71.4,167.8 L 71.4,183.9 L 95.5,183.9 Z M 71.4,167.8 L 95.5,183.9 L 95.5,161.4 Z M 95.7,134.8 L 95.7,112.3 L 71.4,113.2 Z M 95.7,134.8 L 71.4,113.2 L 71.4,129.2 Z M 328.6,129.2 L 328.6,113.2 L 304.5,113.2 Z M 328.6,129.2 L 304.5,113.2 L 304.5,135.7 Z M 304.5,161.4 L 304.5,183.9 L 328.6,183.9 Z M 304.5,161.4 L 328.6,183.9 L 328.6,167.8 Z M 219.3,277.1 L 235.4,277.0 L 235.4,253.0 Z M 219.3,277.1 L 235.4,253.0 L 212.9,253.0 Z M 187.1,253.0 L 164.6,253.0 L 164.6,277.1 Z M 187.1,253.0 L 164.6,277.1 L 180.7,277.1 Z M 257.9,20.1 L 235.4,20.2 L 235.4,44.0 Z M 257.9,20.1 L 235.4,44.0 L 257.9,44.0 Z M 257.9,44.0 L 235.4,44.0 L 210.7,60.8 Z M 257.9,44.0 L 210.7,60.8 L 257.9,90.3 Z M 257.9,90.3 L 210.7,60.8 L 189.3,60.8 Z M 257.9,90.3 L 189.3,60.8 L 189.3,90.3 Z M 71.4,206.4 L 71.4,253.0 L 95.5,253.0 Z M 71.4,206.4 L 95.5,253.0 L 95.5,206.4 Z M 95.5,206.4 L 95.5,253.0 L 119.6,253.0 Z M 95.5,206.4 L 119.6,253.0 L 119.6,206.4 Z M 119.6,277.1 L 119.6,253.0 L 95.5,253.0 Z M 119.6,277.1 L 95.5,253.0 L 95.5,277.0 Z M 253.6,204.4 L 252.0,216.7 L 250.0,217.6 Z M 119.6,277.1 L 164.6,277.1 L 142.5,277.1 Z" fill="#2a2a4e" stroke="none"/>
  <path d="M 163.0,213.3 L 216.2,205.1 M 216.2,205.1 L 194.1,160.5 M 194.1,160.5 L 149.9,179.5 M 149.9,179.5 L 163.0,213.3 M 237.4,107.8 L 267.9,127.5 M 267.9,127.5 L 287.5,97.0 M 287.5,97.0 L 257.0,77.3 M 257.0,77.3 L 237.4,107.8 M 162.4,111.8 L 181.2,68.3 M 181.2,68.3 L 130.0,44.7 M 130.0,44.7 L 111.2,88.3 M 111.2,88.3 L 162.4,111.8 M 198.6,181.5 L 229.1,201.2 M 229.1,201.2 L 248.8,170.7 M 248.8,170.7 L 218.3,151.1 M 218.3,151.1 L 198.6,181.5 M 71.4,68.2 L 71.4,113.2 M 164.6,44.0 L 164.6,20.2 M 164.6,20.2 L 119.6,20.1 M 328.6,113.2 L 328.6,68.2 M 328.6,228.9 L 328.6,183.9 M 235.4,277.0 L 280.4,277.0 M 189.3,60.8 L 164.6,44.0 M 20.0,167.8 L 71.4,167.8 M 20.0,161.4 L 20.0,167.8 M 71.4,129.2 L 20.0,129.2 M 20.0,129.2 L 20.0,135.7 M 380.0,129.2 L 328.6,129.2 M 380.0,135.7 L 380.0,129.2 M 328.6,167.8 L 380.0,167.8 M 380.0,167.8 L 380.0,161.4 M 219.3,328.5 L 219.3,277.1 M 212.9,328.5 L 219.3,328.5 M 180.7,277.1 L 180.7,328.5 M 180.7,328.5 L 187.1,328.5 M 20.0,135.7 L 20.0,161.4 M 380.0,161.4 L 380.0,135.7 M 187.1,328.5 L 212.9,328.5 M 119.6,20.1 L 95.5,20.0 M 95.5,20.0 L 95.5,44.0 M 95.5,44.0 L 71.4,44.0 M 71.4,44.0 L 71.4,68.2 M 304.5,44.0 L 304.5,20.0 M 304.5,20.0 L 280.4,20.1 M 328.6,68.2 L 328.6,44.0 M 328.6,44.0 L 304.5,44.0 M 280.4,277.0 L 304.5,277.0 M 304.5,277.0 L 304.5,253.0 M 304.5,253.0 L 328.6,253.0 M 328.6,253.0 L 328.6,228.9 M 71.4,183.9 L 71.4,206.4 M 280.4,20.1 L 257.9,20.1 M 71.4,167.8 L 71.4,183.9 M 71.4,113.2 L 71.4,129.2 M 328.6,129.2 L 328.6,113.2 M 328.6,183.9 L 328.6,167.8 M 219.3,277.1 L 235.4,277.0 M 164.6,277.1 L 180.7,277.1 M 257.9,20.1 L 235.4,20.2 M 235.4,20.2 L 235.4,44.0 M 235.4,44.0 L 210.7,60.8 M 210.7,60.8 L 189.3,60.8 M 71.4,206.4 L 71.4,253.0 M 71.4,253.0 L 95.5,253.0 M 95.5,253.0 L 95.5,277.0 M 95.5,277.0 L 119.6,277.1 M 253.6,204.4 L 252.0,216.7 M 252.0,216.7 L 250.0,217.6 M 250.0,217.6 L 253.6,204.4 M 119.6,277.1 L 164.6,277.1" fill="none" stroke="white" stroke-width="2" stroke-linecap="round"/>
  <polygon points="65.58929384394779,139.30614474234778 73.58929384394779,147.30614474234778 65.58929384394779,155.30614474234778 57.589293843947786,147.30614474234778" fill="#4a9eff" stroke="white" stroke-width="1"/>
<polygon points="332.102853744207,140.2209034018208 340.102853744207,148.2209034018208 332.102853744207,156.2209034018208 324.102853744207,148.2209034018208" fill="#4a9eff" stroke="white" stroke-width="1"/>
<polygon points="199.27344009747958,273.25971745051385 207.27344009747958,281.25971745051385 199.27344009747958,289.25971745051385 191.27344009747958,281.25971745051385" fill="#4a9eff" stroke="white" stroke-width="1"/>
</svg>