<svg xmlns="http://www.w3.org/2000/svg" viewBox="0 0 400 400">
  <rect width="400" height="400" fill="#1a1a2e"/>
  <path d="M 200.0,170.0 L 200.0,109.1 L 140.3,109.1 Z M 200.0,170.0 L 140.3,109.1 L 139.6,170.0 Z M 139.7,302.5 L 200.2,302.5 L 200.2,241.6 Z M 139.7,302.5 L 200.2,241.6 L 140.5,241.6 Z M 56.5,248.5 L 59.7,214.8 L 26.0,211.6 Z M 56.5,248.5 L 26.0,211.6 L 22.8,245.3 Z M 314.7,245.5 L 317.9,211.8 L 284.2,208.6 Z M 314.7,245.5 L 284.2,208.6 L 281.0,242.3 Z M 198.3,281.7 L 216.6,253.2 L 188.2,234.9 Z M 198.3,281.7 L 188.2,234.9 L 169.8,263.3 Z M 212.5,197.7 L 236.2,173.5 L 212.0,149.9 Z M 212.5,197.7 L 212.0,149.9 L 188.3,174.1 Z M 122.9,135.4 L 155.7,143.4 L 163.6,110.6 Z M 122.9,135.4 L 163.6,110.6 L 130.8,102.6 Z M 200.0,170.0 L 221.0,151.4 L 221.0,89.0 Z M 200.0,170.0 L 221.0,89.0 L 200.0,109.1 Z M 200.0,109.1 L 221.0,89.0 L 185.6,89.0 Z M 200.0,109.1 L 185.6,89.0 L 154.4,89.0 Z M 140.3,109.1 L 119.0,151.4 L 119.0,182.6 Z M 140.3,109.1 L 119.0,182.6 L 139.6,170.0 Z M 139.6,170.0 L 119.0,182.6 L 119.0,191.0 Z M 139.6,170.0 L 119.0,191.0 L 154.4,191.0 Z M 131.0,311.0 L 139.7,302.5 L 140.5,241.6 Z M 131.0,311.0 L 140.5,241.6 L 131.0,233.0 Z M 131.0,233.0 L 140.5,241.6 L 185.6,233.0 Z M 131.0,233.0 L 185.6,233.0 L 154.4,233.0 Z M 221.0,191.0 L 221.0,182.6 L 200.0,170.0 Z M 221.0,191.0 L 200.0,170.0 L 185.6,191.0 Z M 185.6,191.0 L 200.0,170.0 L 139.6,170.0 Z M 185.6,191.0 L 139.6,170.0 L 154.4,191.0 Z M 320.0,149.0 L 269.0,151.4 L 269.0,182.6 Z M 320.0,149.0 L 269.0,182.6 L 320.0,251.0 Z M 71.0,182.6 L 71.0,151.4 L 20.0,149.0 Z M 71.0,182.6 L 20.0,149.0 L 20.0,251.0 Z M 200.2,302.5 L 209.0,311.0 L 209.0,243.2 Z M 200.2,302.5 L 209.0,243.2 L 200.2,241.6 Z M 185.6,311.0 L 200.2,302.5 L 139.7,302.5 Z M 185.6,311.0 L 139.7,302.5 L 154.4,311.0 Z M 200.6,233.0 L 185.6,233.0 L 140.5,241.6 Z M 200.6,233.0 L 140.5,241.6 L 200.2,241.6 Z M 119.0,89.0 L 140.3,109.1 L 200.0,109.1 Z M 119.0,89.0 L 200.0,109.1 L 154.4,89.0 Z M 269.0,149.0 L 269.0,151.4 L 320.0,149.0 Z M 269.0,182.6 L 269.0,251.0 L 320.0,251.0 Z M 221.0,182.6 L 221.0,151.4 L 200.0,170.0 Z M 71.0,149.0 L 20.0,149.0 L 71.0,151.4 Z M 71.0,182.6 L 20.0,251.0 L 71.0,251.0 Z M 139.7,302.5 L 131.0,311.0 L 154.4,311.0 Z M 200.2,241.6 L 209.0,243.2 L 200.6,233.0 Z M 185.6,311.0 L 209.0,311.0 L 200.2,302.5 Z M 119.0,89.0 L 119.0,151.4 L 140.3,109.1 Z M 191.6,224.0 L 200.6,233.0 L 218.0,241.2 Z M 191.6,224.0 L 218.0,241.2 L 202.9,224.0 Z M 218.0,249.8 L 218.0,241.2 L 200.6,233.0 Z M 218.0,249.8 L 200.6,233.0 L 209.0,243.2 Z M 154.4,89.0 L 152.0,80.0 L 110.0,80.0 Z M 154.4,89.0 L 110.0,80.0 L 119.0,89.0 Z M 119.0,89.0 L 110.0,80.0 L 110.0,149.0 Z M 119.0,89.0 L 110.0,149.0 L 119.0,151.4 Z M 320.0,149.0 L 320.0,140.0 L 260.0,140.0 Z M 320.0,149.0 L 260.0,140.0 L 269.0,149.0 Z M 269.0,149.0 L 260.0,140.0 L 260.0,149.0 Z M 269.0,149.0 L 260.0,149.0 L 269.0,151.4 Z M 320.0,260.0 L 320.0,251.0 L 269.0,251.0 Z M 320.0,260.0 L 269.0,251.0 L 260.0,260.0 Z M 260.0,260.0 L 269.0,251.0 L 269.0,182.6 Z M 260.0,260.0 L 269.0,182.6 L 260.0,185.0 Z M 20.0,140.0 L 20.0,149.0 L 71.0,149.0 Z M 20.0,140.0 L 71.0,149.0 L 80.0,140.0 Z M 80.0,140.0 L 71.0,149.0 L 71.0,151.4 Z M 80.0,140.0 L 71.0,151.4 L 80.0,149.0 Z M 152.0,320.0 L 154.4,311.0 L 131.0,311.0 Z M 152.0,320.0 L 131.0,311.0 L 122.0,320.0 Z M 122.0,320.0 L 131.0,311.0 L 131.0,233.0 Z M 122.0,320.0 L 131.0,233.0 L 122.0,237.0 Z M 185.6,311.0 L 188.0,320.0 L 218.0,320.0 Z M 185.6,311.0 L 218.0,320.0 L 209.0,311.0 Z M 209.0,311.0 L 218.0,320.0 L 218.0,249.8 Z M 209.0,311.0 L 218.0,249.8 L 209.0,243.2 Z M 152.0,200.0 L 154.4,191.0 L 119.0,191.0 Z M 152.0,200.0 L 119.0,191.0 L 133.6,200.0 Z M 230.0,200.0 L 221.0,191.0 L 185.6,191.0 Z M 230.0,200.0 L 185.6,191.0 L 188.0,200.0 Z M 221.0,191.0 L 230.0,200.0 L 230.0,185.0 Z M 221.0,191.0 L 230.0,185.0 L 221.0,182.6 Z M 221.0,89.0 L 230.0,80.0 L 188.0,80.0 Z M 221.0,89.0 L 188.0,80.0 L 185.6,89.0 Z M 154.4,89.0 L 154.4,20.0 L 152.0,20.0 Z M 154.4,89.0 L 152.0,20.0 L 152.0,80.0 Z M 188.0,20.0 L 185.6,20.0 L 185.6,89.0 Z M 188.0,20.0 L 185.6,89.0 L 188.0,80.0 Z M 221.0,151.4 L 269.0,151.4 L 260.0,149.0 Z M 221.0,151.4 L 260.0,149.0 L 230.0,149.0 Z M 221.0,182.6 L 230.0,185.0 L 260.0,185.0 Z M 221.0,182.6 L 260.0,185.0 L 269.0,182.6 Z M 230.0,80.0 L 221.0,89.0 L 221.0,151.4 Z M 230.0,80.0 L 221.0,151.4 L 230.0,149.0 Z M 119.0,151.4 L 110.0,149.0 L 80.0,149.0 Z M 119.0,151.4 L 80.0,149.0 L 71.0,151.4 Z M 80.0,185.0 L 110.0,185.0 L 119.0,182.6 Z M 80.0,185.0 L 119.0,182.6 L 71.0,182.6 Z M 71.0,251.0 L 20.0,251.0 L 20.0,260.0 Z M 71.0,251.0 L 20.0,260.0 L 63.7,260.0 Z M 80.0,249.5 L 80.0,185.0 L 71.0,182.6 Z M 80.0,249.5 L 71.0,182.6 L 71.0,251.0 Z M 185.6,311.0 L 185.6,380.0 L 188.0,380.0 Z M 185.6,311.0 L 188.0,380.0 L 188.0,320.0 Z M 152.0,380.0 L 154.4,380.0 L 154.4,311.0 Z M 152.0,380.0 L 154.4,311.0 L 152.0,320.0 Z M 152.0,224.0 L 154.4,233.0 L 154.4,191.0 Z M 152.0,224.0 L 154.4,191.0 L 152.0,200.0 Z M 188.0,224.0 L 188.0,200.0 L 185.6,191.0 Z M 188.0,224.0 L 185.6,191.0 L 185.6,233.0 Z M 188.0,224.0 L 185.6,233.0 L 200.6,233.0 Z M 188.0,224.0 L 200.6,233.0 L 191.6,224.0 Z M 154.4,233.0 L 152.0,224.0 L 136.9,224.0 Z M 154.4,233.0 L 136.9,224.0 L 131.0,233.0 Z M 110.0,185.0 L 119.0,191.0 L 119.0,182.6 Z M 154.4,89.0 L 185.6,89.0 L 185.6,20.0 Z M 154.4,89.0 L 185.6,20.0 L 154.4,20.0 Z M 221.0,151.4 L 221.0,182.6 L 269.0,182.6 Z M 221.0,151.4 L 269.0,182.6 L 269.0,151.4 Z M 71.0,182.6 L 119.0,182.6 L 119.0,151.4 Z M 71.0,182.6 L 119.0,151.4 L 71.0,151.4 Z M 185.6,311.0 L 154.4,311.0 L 154.4,380.0 Z M 185.6,311.0 L 154.4,380.0 L 185.6,380.0 Z M 154.4,233.0 L 185.6,233.0 L 185.6,191.0 Z M 154.4,233.0 L 185.6,191.0 L 154.4,191.0 Z" fill="#2a2a4e" stroke="none"/>
  <path d="M 56.5,248.5 L 59.7,214.8 M 59.7,214.8 L 26.0,211.6 M 26.0,211.6 L 22.8,245.3 M 22.8,245.3 L 56.5,248.5 M 314.7,245.5 L 317.9,211.8 M 317.9,211.8 L 284.2,208.6 M 284.2,208.6 L 281.0,242.3 M 281.0,242.3 L 314.7,245.5 M 198.3,281.7 L 216.6,253.2 M 216.6,253.2 L 188.2,234.9 M 188.2,234.9 L 169.8,263.3 M 169.8,263.3 L 198.3,281.7 M 212.5,197.7 L 236.2,173.5 M 236.2,173.5 L 212.0,149.9 M 212.0,149.9 L 188.3,174.1 M 188.3,174.1 L 212.5,197.7 M 122.9,135.4 L 155.7,143.4 M 155.7,143.4 L 163.6,110.6 M 163.6,110.6 L 130.8,102.6 M 130.8,102.6 L 122.9,135.4 M 320.0,251.0 L 320.0,149.0 M 20.0,149.0 L 20.0,251.0 M 218.0,241.2 L 202.9,224.0 M 202.9,224.0 L 191.6,224.0 M 218.0,249.8 L 218.0,241.2 M 152.0,80.0 L 110.0,80.0 M 110.0,80.0 L 110.0,149.0 M 320.0,149.0 L 320.0,140.0 M 320.0,140.0 L 260.0,140.0 M 260.0,140.0 L 260.0,149.0 M 320.0,260.0 L 320.0,251.0 M 260.0,260.0 L 320.0,260.0 M 260.0,185.0 L 260.0,260.0 M 20.0,140.0 L 20.0,149.0 M 80.0,140.0 L 20.0,140.0 M 80.0,149.0 L 80.0,140.0 M 122.0,320.0 L 152.0,320.0 M 131.0,233.0 L 122.0,237.0 M 122.0,237.0 L 122.0,320.0 M 188.0,320.0 L 218.0,320.0 M 218.0,320.0 L 218.0,249.8 M 119.0,191.0 L 133.6,200.0 M 133.6,200.0 L 152.0,200.0 M 188.0,200.0 L 230.0,200.0 M 230.0,200.0 L 230.0,185.0 M 230.0,80.0 L 188.0,80.0 M 154.4,20.0 L 152.0,20.0 M 152.0,20.0 L 152.0,80.0 M 188.0,20.0 L 185.6,20.0 M 188.0,80.0 L 188.0,20.0 M 260.0,149.0 L 230.0,149.0 M 230.0,185.0 L 260.0,185.0 M 230.0,149.0 L 230.0,80.0 M 110.0,149.0 L 80.0,149.0 M 80.0,185.0 L 110.0,185.0 M 20.0,251.0 L 20.0,260.0 M 20.0,260.0 L 63.7,260.0 M 63.7,260.0 L 71.0,251.0 M 80.0,249.5 L 80.0,185.0 M 71.0,251.0 L 80.0,249.5 M 185.6,380.0 L 188.0,380.0 M 188.0,380.0 L 188.0,320.0 M 152.0,380.0 L 154.4,380.0 M 152.0,320.0 L 152.0,380.0 M 152.0,200.0 L 152.0,224.0 M 188.0,224.0 L 188.0,200.0 M 191.6,224.0 L 188.0,224.0 M 152.0,224.0 L 136.9,224.0 M 136.9,224.0 L 131.0,233.0 M 110.0,185.0 L 119.0,191.0 M 185.6,20.0 L 154.4,20.0 M 154.4,380.0 L 185.6,380.0" fill="none" stroke="white" stroke-width="2" stroke-linecap="round"/>
  <polygon points="168.7207558627598,70.98605847520405 176.7207558627598,78.98605847520405 168.7207558627598,86.98605847520405 160.7207558627598,78.98605847520405" fill="#4a9eff" stroke="white" stroke-width="1"/>
<polygon points="170.6916560195021,313.2521228491321 178.6916560195021,321.2521228491321 170.6916560195021,329.2521228491321 162.6916560195021,321.2521228491321" fill="#4a9eff" stroke="white" stroke-width="1"/>
</svg>