<svg xmlns="http://www.w3.org/2000/svg" viewBox="0 0 400 400">
  <rect width="400" height="400" fill="#1a1a2e"/>
  <path d="M 165.4,54.2 L 162.6,125.5 L 233.4,125.5 Z M 165.4,54.2 L 233.4,125.5 L 235.3,54.2 Z M 253.3,54.2 L 250.5,125.5 L 321.3,125.5 Z M 253.3,54.2 L 321.3,125.5 L 321.3,54.2 Z M 164.6,280.8 L 235.6,280.8 L 235.5,209.4 Z M 164.6,280.8 L 235.5,209.4 L 165.6,209.4 Z M 369.8,214.0 L 373.6,174.5 L 334.1,170.8 Z M 369.8,214.0 L 334.1,170.8 L 330.3,210.3 Z M 233.3,256.4 L 254.8,223.1 L 221.5,201.6 Z M 233.3,256.4 L 221.5,201.6 L 200.0,234.9 Z M 250.0,158.0 L 277.7,129.7 L 249.4,101.9 Z M 250.0,158.0 L 249.4,101.9 L 221.6,130.3 Z M 145.0,85.0 L 183.4,94.3 L 192.7,55.8 Z M 145.0,85.0 L 192.7,55.8 L 154.3,46.5 Z M 380.0,64.6 L 352.8,35.7 L 323.9,62.9 Z M 380.0,64.6 L 323.9,62.9 L 351.1,91.8 Z M 347.2,269.4 L 379.5,246.5 L 356.6,214.1 Z M 347.2,269.4 L 356.6,214.1 L 324.2,237.1 Z M 20.0,155.9 L 58.4,165.2 L 67.7,126.8 Z M 20.0,155.9 L 67.7,126.8 L 29.3,117.5 Z M 165.4,54.2 L 140.3,103.7 L 140.3,140.3 Z M 165.4,54.2 L 140.3,140.3 L 162.6,125.5 Z M 162.6,125.5 L 140.3,140.3 L 140.3,150.1 Z M 162.6,125.5 L 140.3,150.1 L 181.7,150.1 Z M 140.3,30.6 L 165.4,54.2 L 235.3,54.2 Z M 140.3,30.6 L 235.3,54.2 L 181.8,30.6 Z M 181.8,30.6 L 235.3,54.2 L 253.3,54.2 Z M 181.8,30.6 L 253.3,54.2 L 218.4,30.6 Z M 218.4,30.6 L 253.3,54.2 L 269.4,30.6 Z M 218.4,30.6 L 269.4,30.6 L 256.7,30.6 Z M 321.3,125.5 L 376.0,290.8 L 376.0,30.6 Z M 321.3,125.5 L 376.0,30.6 L 321.3,54.2 Z M 321.3,54.2 L 376.0,30.6 L 269.4,30.6 Z M 321.3,54.2 L 269.4,30.6 L 253.3,54.2 Z M 154.4,290.8 L 164.6,280.8 L 165.6,209.4 Z M 154.4,290.8 L 165.6,209.4 L 154.4,199.4 Z M 154.4,199.4 L 165.6,209.4 L 218.4,199.4 Z M 154.4,199.4 L 218.4,199.4 L 181.8,199.4 Z M 321.3,125.5 L 314.3,148.5 L 376.0,290.8 Z M 314.3,148.5 L 314.3,209.6 L 376.0,290.8 Z M 376.0,290.8 L 314.3,209.6 L 314.3,226.2 Z M 24.4,100.9 L 24.4,167.7 L 84.1,140.3 Z M 24.4,100.9 L 84.1,140.3 L 84.1,103.7 Z M 321.3,125.5 L 250.5,125.5 L 218.2,150.1 Z M 321.3,125.5 L 218.2,150.1 L 314.3,148.5 Z M 233.4,125.5 L 162.6,125.5 L 181.7,150.1 Z M 233.4,125.5 L 181.7,150.1 L 218.2,150.1 Z M 253.3,54.2 L 235.3,54.2 L 233.4,125.5 Z M 253.3,54.2 L 233.4,125.5 L 250.5,125.5 Z M 235.6,280.8 L 245.8,290.8 L 245.8,211.3 Z M 235.6,280.8 L 245.8,211.3 L 235.5,209.4 Z M 218.4,290.8 L 235.6,280.8 L 164.6,280.8 Z M 218.4,290.8 L 164.6,280.8 L 181.8,290.8 Z M 236.0,199.4 L 218.4,199.4 L 165.6,209.4 Z M 236.0,199.4 L 165.6,209.4 L 235.5,209.4 Z M 84.1,100.9 L 24.4,100.9 L 84.1,103.7 Z M 84.1,140.3 L 24.4,167.7 L 84.1,167.7 Z M 140.3,30.6 L 140.3,103.7 L 165.4,54.2 Z M 376.0,290.8 L 314.3,226.2 L 314.3,290.8 Z M 250.5,125.5 L 233.4,125.5 L 218.2,150.1 Z M 164.6,280.8 L 154.4,290.8 L 181.8,290.8 Z M 235.5,209.4 L 245.8,211.3 L 236.0,199.4 Z M 218.4,290.8 L 245.8,290.8 L 235.6,280.8 Z M 225.5,188.8 L 236.0,199.4 L 256.4,209.0 Z M 225.5,188.8 L 256.4,209.0 L 238.8,188.8 Z M 256.4,219.0 L 256.4,209.0 L 236.0,199.4 Z M 256.4,219.0 L 236.0,199.4 L 245.8,211.3 Z M 140.3,103.7 L 84.1,103.7 L 84.1,140.3 Z M 140.3,103.7 L 84.1,140.3 L 140.3,140.3 Z M 218.4,290.8 L 181.8,290.8 L 181.8,371.7 Z M 218.4,290.8 L 181.8,371.7 L 218.4,371.7 Z M 181.8,199.4 L 218.4,199.4 L 218.2,150.1 Z M 181.8,199.4 L 218.2,150.1 L 181.7,150.1 Z M 181.8,30.6 L 179.0,20.0 L 129.8,20.0 Z M 181.8,30.6 L 129.8,20.0 L 140.3,30.6 Z M 140.3,30.6 L 129.8,20.0 L 129.8,100.9 Z M 140.3,30.6 L 129.8,100.9 L 140.3,103.7 Z M 24.4,90.3 L 24.4,100.9 L 84.1,100.9 Z M 24.4,90.3 L 84.1,100.9 L 94.6,90.3 Z M 94.6,90.3 L 84.1,100.9 L 84.1,103.7 Z M 94.6,90.3 L 84.1,103.7 L 94.6,100.9 Z M 179.0,301.3 L 181.8,290.8 L 154.4,290.8 Z M 179.0,301.3 L 154.4,290.8 L 143.9,301.3 Z M 143.9,301.3 L 154.4,290.8 L 154.4,199.4 Z M 143.9,301.3 L 154.4,199.4 L 143.9,204.1 Z M 218.4,290.8 L 221.2,301.3 L 256.4,301.3 Z M 218.4,290.8 L 256.4,301.3 L 245.8,290.8 Z M 245.8,290.8 L 256.4,301.3 L 256.4,219.0 Z M 245.8,290.8 L 256.4,219.0 L 245.8,211.3 Z M 376.0,301.3 L 376.0,290.8 L 319.1,301.3 Z M 376.0,290.8 L 314.3,290.8 L 319.1,301.3 Z M 314.3,290.8 L 314.3,226.2 L 305.3,282.5 Z M 314.3,226.2 L 305.6,237.8 L 305.3,282.5 Z M 140.3,150.1 L 157.5,160.7 L 179.0,160.7 Z M 140.3,150.1 L 179.0,160.7 L 181.7,150.1 Z M 218.2,150.1 L 221.2,160.7 L 305.6,160.7 Z M 218.2,150.1 L 305.6,160.7 L 314.3,148.5 Z M 269.4,30.6 L 376.0,30.6 L 376.0,20.0 Z M 269.4,30.6 L 376.0,20.0 L 285.5,20.0 Z M 305.6,160.7 L 305.6,186.6 L 314.3,209.6 Z M 305.6,160.7 L 314.3,209.6 L 314.3,148.5 Z M 94.6,100.9 L 84.1,103.7 L 140.3,103.7 Z M 94.6,100.9 L 140.3,103.7 L 129.8,100.9 Z M 140.3,140.3 L 84.1,140.3 L 94.6,143.1 Z M 140.3,140.3 L 94.6,143.1 L 129.8,143.1 Z M 24.3,178.3 L 75.6,178.3 L 84.1,167.7 Z M 24.3,178.3 L 84.1,167.7 L 24.4,167.7 Z M 84.1,140.3 L 84.1,167.7 L 94.6,166.0 Z M 84.1,140.3 L 94.6,166.0 L 94.6,143.1 Z M 218.4,290.8 L 218.4,371.7 L 221.2,371.7 Z M 218.4,290.8 L 221.2,371.7 L 221.2,301.3 Z M 179.0,371.7 L 181.8,371.7 L 181.8,290.8 Z M 179.0,371.7 L 181.8,290.8 L 179.0,301.3 Z M 179.0,188.8 L 181.8,199.4 L 181.7,150.1 Z M 179.0,188.8 L 181.7,150.1 L 179.0,160.7 Z M 221.2,188.8 L 221.2,160.7 L 218.2,150.1 Z M 221.2,188.8 L 218.2,150.1 L 218.4,199.4 Z M 221.2,188.8 L 218.4,199.4 L 236.0,199.4 Z M 221.2,188.8 L 236.0,199.4 L 225.5,188.8 Z M 181.8,199.4 L 179.0,188.8 L 161.4,188.8 Z M 181.8,199.4 L 161.4,188.8 L 154.4,199.4 Z M 221.2,20.0 L 218.4,30.6 L 256.7,30.6 Z M 221.2,20.0 L 256.7,30.6 L 235.9,20.0 Z M 221.2,20.0 L 179.0,20.0 L 181.8,30.6 Z M 221.2,20.0 L 181.8,30.6 L 218.4,30.6 Z M 129.8,143.1 L 140.3,150.1 L 140.3,140.3 Z M 319.1,301.3 L 314.3,290.8 L 316.2,290.8 Z M 305.3,282.5 L 316.2,290.8 L 314.3,290.8 Z" fill="#2a2a4e" stroke="none"/>
  <path d="M 369.8,214.0 L 373.6,174.5 M 373.6,174.5 L 334.1,170.8 M 334.1,170.8 L 330.3,210.3 M 330.3,210.3 L 369.8,214.0 M 233.3,256.4 L 254.8,223.1 M 254.8,223.1 L 221.5,201.6 M 221.5,201.6 L 200.0,234.9 M 200.0,234.9 L 233.3,256.4 M 250.0,158.0 L 277.7,129.7 M 277.7,129.7 L 249.4,101.9 M 249.4,101.9 L 221.6,130.3 M 221.6,130.3 L 250.0,158.0 M 145.0,85.0 L 183.4,94.3 M 183.4,94.3 L 192.7,55.8 M 192.7,55.8 L 154.3,46.5 M 154.3,46.5 L 145.0,85.0 M 380.0,64.6 L 352.8,35.7 M 352.8,35.7 L 323.9,62.9 M 323.9,62.9 L 351.1,91.8 M 351.1,91.8 L 380.0,64.6 M 347.2,269.4 L 379.5,246.5 M 379.5,246.5 L 356.6,214.1 M 356.6,214.1 L 324.2,237.1 M 324.2,237.1 L 347.2,269.4 M 20.0,155.9 L 58.4,165.2 M 58.4,165.2 L 67.7,126.8 M 67.7,126.8 L 29.3,117.5 M 29.3,117.5 L 20.0,155.9 M 269.4,30.6 L 256.7,30.6 M 376.0,290.8 L 376.0,30.6 M 314.3,209.6 L 314.3,226.2 M 24.4,100.9 L 24.4,167.7 M 256.4,209.0 L 238.8,188.8 M 238.8,188.8 L 225.5,188.8 M 256.4,219.0 L 256.4,209.0 M 181.8,371.7 L 218.4,371.7 M 179.0,20.0 L 129.8,20.0 M 129.8,20.0 L 129.8,100.9 M 24.4,90.3 L 24.4,100.9 M 94.6,90.3 L 24.4,90.3 M 94.6,100.9 L 94.6,90.3 M 143.9,301.3 L 179.0,301.3 M 154.4,199.4 L 143.9,204.1 M 143.9,204.1 L 143.9,301.3 M 221.2,301.3 L 256.4,301.3 M 256.4,301.3 L 256.4,219.0 M 376.0,301.3 L 376.0,290.8 M 319.1,301.3 L 376.0,301.3 M 314.3,226.2 L 305.6,237.8 M 305.6,237.8 L 305.3,282.5 M 140.3,150.1 L 157.5,160.7 M 157.5,160.7 L 179.0,160.7 M 221.2,160.7 L 305.6,160.7 M 376.0,30.6 L 376.0,20.0 M 376.0,20.0 L 285.5,20.0 M 285.5,20.0 L 269.4,30.6 M 305.6,160.7 L 305.6,186.6 M 305.6,186.6 L 314.3,209.6 M 129.8,100.9 L 94.6,100.9 M 94.6,143.1 L 129.8,143.1 M 24.3,178.3 L 75.6,178.3 M 75.6,178.3 L 84.1,167.7 M 24.4,167.7 L 24.3,178.3 M 84.1,167.7 L 94.6,166.0 M 94.6,166.0 L 94.6,143.1 M 218.4,371.7 L 221.2,371.7 M 221.2,371.7 L 221.2,301.3 M 179.0,371.7 L 181.8,371.7 M 179.0,301.3 L 179.0,371.7 M 179.0,160.7 L 179.0,188.8 M 221.2,188.8 L 221.2,160.7 M 225.5,188.8 L 221.2,188.8 M 179.0,188.8 L 161.4,188.8 M 161.4,188.8 L 154.4,199.4 M 256.7,30.6 L 235.9,20.0 M 235.9,20.0 L 221.2,20.0 M 221.2,20.0 L 179.0,20.0 M 129.8,143.1 L 140.3,150.1 M 316.2,290.8 L 319.1,301.3 M 305.3,282.5 L 316.2,290.8" fill="none" stroke="white" stroke-width="2" stroke-linecap="round"/>
  <polygon points="201.76951743775632,296.498857509669 209.76951743775632,304.498857509669 201.76951743775632,312.498857509669 193.76951743775632,304.498857509669" fill="#4a9eff" stroke="white" stroke-width="1"/>
</svg>