<svg xmlns="http://www.w3.org/2000/svg" viewBox="0 0 400 400">
  <rect width="400" height="400" fill="#1a1a2e"/>
  <path d="M 78.5,256.1 L 39.9,256.1 L 59.2,275.4 Z M 39.9,256.1 L 39.9,294.7 L 59.2,275.4 Z M 59.2,275.4 L 39.9,294.7 L 78.5,294.7 Z M 262.9,192.5 L 224.3,192.5 L 243.6,211.8 Z M 224.3,192.5 L 224.3,231.1 L 243.6,211.8 Z M 243.6,211.8 L 224.3,231.1 L 262.9,231.1 Z M 233.5,255.1 L 194.9,255.1 L 194.9,293.6 Z M 233.5,255.1 L 194.9,293.6 L 233.5,293.6 Z M 231.8,117.7 L 193.2,117.7 L 193.2,156.3 Z M 231.8,117.7 L 193.2,156.3 L 231.8,156.3 Z M 72.5,215.5 L 72.5,176.9 L 33.9,176.9 Z M 72.5,215.5 L 33.9,176.9 L 33.9,215.5 Z M 67.9,127.0 L 106.5,127.0 L 106.5,88.5 Z M 67.9,127.0 L 106.5,88.5 L 67.9,88.5 Z M 59.2,275.4 L 78.5,294.7 L 78.5,256.1 Z M 243.6,211.8 L 262.9,231.1 L 262.9,192.5 Z M 161.4,45.7 L 135.7,45.7 L 135.7,71.4 Z M 161.4,45.7 L 135.7,71.4 L 161.4,71.4 Z M 161.4,71.4 L 135.7,71.4 L 129.3,97.7 Z M 161.4,71.4 L 129.3,97.7 L 167.9,97.7 Z M 167.9,97.7 L 129.3,97.7 L 122.3,100.8 Z M 167.9,97.7 L 122.3,100.8 L 163.6,112.9 Z M 163.6,112.9 L 122.3,100.8 L 116.4,119.3 Z M 163.6,112.9 L 116.4,119.3 L 131.6,125.7 Z M 160.0,295.8 L 143.4,286.3 L 129.3,303.5 Z M 160.0,295.8 L 129.3,303.5 L 167.9,303.5 Z M 167.9,303.5 L 129.3,303.5 L 135.7,328.6 Z M 167.9,303.5 L 135.7,328.6 L 161.4,328.6 Z M 172.8,145.9 L 115.7,143.6 L 114.8,167.5 Z M 172.8,145.9 L 114.8,167.5 L 185.9,160.8 Z M 185.9,160.8 L 114.8,167.5 L 100.5,185.3 Z M 185.9,160.8 L 100.5,185.3 L 188.3,179.4 Z M 188.3,179.4 L 100.5,185.3 L 100.5,228.9 Z M 188.3,179.4 L 100.5,228.9 L 199.0,209.9 Z M 199.0,209.9 L 100.5,228.9 L 146.2,246.6 Z M 199.0,209.9 L 146.2,246.6 L 187.6,241.0 Z M 161.4,71.4 L 167.9,97.7 L 167.9,71.4 Z M 167.9,97.7 L 185.3,95.7 L 167.9,71.4 Z M 161.4,328.6 L 135.7,328.6 L 135.7,354.3 Z M 161.4,328.6 L 135.7,354.3 L 161.4,354.3 Z M 167.9,97.7 L 163.6,112.9 L 184.8,109.4 Z M 167.9,97.7 L 184.8,109.4 L 185.3,95.7 Z M 129.3,303.5 L 129.3,328.6 L 135.7,328.6 Z M 199.0,209.9 L 211.4,194.2 L 188.3,179.4 Z M 161.4,328.6 L 167.9,328.6 L 167.9,303.5 Z M 135.7,71.4 L 129.3,71.4 L 129.3,97.7 Z M 203.7,92.9 L 185.3,95.7 L 184.8,109.4 Z M 203.7,92.9 L 184.8,109.4 L 193.2,117.7 Z M 193.2,117.7 L 184.8,109.4 L 163.6,112.9 Z M 193.2,117.7 L 163.6,112.9 L 165.4,117.3 Z M 165.4,117.3 L 163.6,112.9 L 131.6,125.7 Z M 165.4,117.3 L 131.6,125.7 L 131.2,134.9 Z M 131.2,134.9 L 131.6,125.7 L 116.4,119.3 Z M 131.2,134.9 L 116.4,119.3 L 106.5,127.0 Z M 106.5,127.0 L 116.4,119.3 L 122.3,100.8 Z M 106.5,127.0 L 122.3,100.8 L 113.7,99.0 Z M 113.7,99.0 L 122.3,100.8 L 129.3,97.7 Z M 113.7,99.0 L 129.3,97.7 L 129.3,71.4 Z M 140.7,268.2 L 130.8,282.8 L 143.4,286.3 Z M 140.7,268.2 L 143.4,286.3 L 171.6,280.4 Z M 171.6,280.4 L 143.4,286.3 L 160.0,295.8 Z M 171.6,280.4 L 160.0,295.8 L 177.5,292.1 Z M 177.5,292.1 L 160.0,295.8 L 167.9,303.5 Z M 177.5,292.1 L 167.9,303.5 L 176.0,310.1 Z M 115.7,143.6 L 112.2,139.5 L 95.4,158.7 Z M 115.7,143.6 L 95.4,158.7 L 114.8,167.5 Z M 114.8,167.5 L 95.4,158.7 L 92.1,184.2 Z M 114.8,167.5 L 92.1,184.2 L 100.5,185.3 Z M 100.5,185.3 L 92.1,184.2 L 93.4,235.9 Z M 100.5,185.3 L 93.4,235.9 L 100.5,228.9 Z M 100.5,228.9 L 93.4,235.9 L 140.7,268.2 Z M 100.5,228.9 L 140.7,268.2 L 146.2,246.6 Z M 146.2,246.6 L 140.7,268.2 L 194.9,255.1 Z M 146.2,246.6 L 194.9,255.1 L 187.6,241.0 Z M 187.6,241.0 L 194.9,255.1 L 224.3,231.1 Z M 187.6,241.0 L 224.3,231.1 L 199.0,209.9 Z M 199.0,209.9 L 224.3,231.1 L 224.3,192.5 Z M 199.0,209.9 L 224.3,192.5 L 211.4,194.2 Z M 211.4,194.2 L 224.3,192.5 L 198.8,171.3 Z M 211.4,194.2 L 198.8,171.3 L 188.3,179.4 Z M 188.3,179.4 L 198.8,171.3 L 193.2,156.3 Z M 188.3,179.4 L 193.2,156.3 L 185.9,160.8 Z M 185.9,160.8 L 193.2,156.3 L 174.3,136.2 Z M 185.9,160.8 L 174.3,136.2 L 172.8,145.9 Z M 172.8,145.9 L 174.3,136.2 L 131.2,134.9 Z M 172.8,145.9 L 131.2,134.9 L 115.7,143.6 Z M 129.3,328.6 L 129.3,303.5 L 123.7,312.3 Z M 129.3,303.5 L 130.8,282.8 L 123.7,312.3 Z M 131.2,134.9 L 112.2,139.5 L 115.7,143.6 Z M 176.0,310.1 L 167.9,303.5 L 167.9,328.6 Z M 167.9,71.4 L 185.3,95.7 L 203.7,92.9 Z M 106.5,88.5 L 113.7,99.0 L 129.3,71.4 Z M 129.3,303.5 L 143.4,286.3 L 130.8,282.8 Z M 39.9,294.7 L 20.1,293.9 L 48.4,326.3 Z M 39.9,294.7 L 48.4,326.3 L 58.3,311.8 Z M 58.3,311.8 L 48.4,326.3 L 89.6,319.1 Z M 58.3,311.8 L 89.6,319.1 L 96.6,304.6 Z M 96.6,304.6 L 89.6,319.1 L 129.3,328.6 Z M 96.6,304.6 L 129.3,328.6 L 123.7,312.3 Z M 258.8,298.2 L 275.7,304.3 L 277.1,231.7 Z M 258.8,298.2 L 277.1,231.7 L 262.9,231.1 Z M 262.9,231.1 L 277.1,231.7 L 277.1,187.8 Z M 262.9,231.1 L 277.1,187.8 L 262.9,192.5 Z M 262.9,192.5 L 277.1,187.8 L 265.9,140.2 Z M 262.9,192.5 L 265.9,140.2 L 248.4,143.2 Z M 248.4,143.2 L 265.9,140.2 L 276.6,98.4 Z M 248.4,143.2 L 276.6,98.4 L 258.5,106.7 Z M 106.5,88.5 L 129.3,71.4 L 64.0,74.5 Z M 106.5,88.5 L 64.0,74.5 L 67.9,88.5 Z M 67.9,88.5 L 64.0,74.5 L 23.1,106.6 Z M 67.9,88.5 L 23.1,106.6 L 37.9,114.1 Z M 37.9,114.1 L 23.1,106.6 L 28.9,140.0 Z M 37.9,114.1 L 28.9,140.0 L 41.0,143.4 Z M 41.0,143.4 L 28.9,140.0 L 20.0,174.3 Z M 41.0,143.4 L 20.0,174.3 L 33.9,176.9 Z M 33.9,176.9 L 20.0,174.3 L 25.9,219.7 Z M 33.9,176.9 L 25.9,219.7 L 33.9,215.5 Z M 33.9,215.5 L 25.9,219.7 L 20.1,293.9 Z M 33.9,215.5 L 20.1,293.9 L 39.9,256.1 Z M 275.7,304.3 L 258.8,298.2 L 234.8,313.0 Z M 275.7,304.3 L 234.8,313.0 L 238.8,328.6 Z M 238.8,328.6 L 234.8,313.0 L 190.6,304.6 Z M 238.8,328.6 L 190.6,304.6 L 195.7,318.6 Z M 195.7,318.6 L 190.6,304.6 L 176.0,310.1 Z M 195.7,318.6 L 176.0,310.1 L 167.9,328.6 Z M 203.7,92.9 L 236.2,87.6 L 247.0,72.0 Z M 203.7,92.9 L 247.0,72.0 L 167.9,71.4 Z M 258.5,106.7 L 276.6,98.4 L 247.0,72.0 Z M 258.5,106.7 L 247.0,72.0 L 236.2,87.6 Z M 39.9,256.1 L 20.1,293.9 L 39.9,294.7 Z M 167.9,20.0 L 129.3,20.0 L 135.7,45.7 Z M 167.9,20.0 L 135.7,45.7 L 161.4,45.7 Z M 129.3,380.0 L 167.9,380.0 L 161.4,354.3 Z M 129.3,380.0 L 161.4,354.3 L 135.7,354.3 Z M 129.3,71.4 L 135.7,71.4 L 135.7,45.7 Z M 129.3,71.4 L 135.7,45.7 L 129.3,45.7 Z M 167.9,45.7 L 161.4,45.7 L 161.4,71.4 Z M 167.9,45.7 L 161.4,71.4 L 167.9,71.4 Z M 135.7,328.6 L 129.3,328.6 L 129.3,354.3 Z M 135.7,328.6 L 129.3,354.3 L 135.7,354.3 Z M 161.4,354.3 L 167.9,354.3 L 167.9,328.6 Z M 161.4,354.3 L 167.9,328.6 L 161.4,328.6 Z M 129.3,20.0 L 129.3,45.7 L 135.7,45.7 Z M 167.9,354.3 L 161.4,354.3 L 167.9,380.0 Z M 161.4,45.7 L 167.9,45.7 L 167.9,20.0 Z M 135.7,354.3 L 129.3,354.3 L 129.3,380.0 Z M 39.9,294.7 L 58.3,311.8 L 96.6,304.6 Z M 39.9,294.7 L 96.6,304.6 L 78.5,294.7 Z M 78.5,294.7 L 96.6,304.6 L 93.4,235.9 Z M 78.5,294.7 L 93.4,235.9 L 78.5,256.1 Z M 234.8,313.0 L 233.5,293.6 L 194.9,293.6 Z M 234.8,313.0 L 194.9,293.6 L 190.6,304.6 Z M 190.6,304.6 L 194.9,293.6 L 177.5,292.1 Z M 190.6,304.6 L 177.5,292.1 L 176.0,310.1 Z M 224.3,231.1 L 194.9,255.1 L 233.5,255.1 Z M 224.3,231.1 L 233.5,255.1 L 262.9,231.1 Z M 262.9,231.1 L 233.5,255.1 L 233.5,293.6 Z M 262.9,231.1 L 233.5,293.6 L 258.8,298.2 Z M 193.2,156.3 L 198.8,171.3 L 224.3,192.5 Z M 193.2,156.3 L 224.3,192.5 L 231.8,156.3 Z M 231.8,156.3 L 224.3,192.5 L 262.9,192.5 Z M 231.8,156.3 L 262.9,192.5 L 248.4,143.2 Z M 67.9,88.5 L 37.9,114.1 L 41.0,143.4 Z M 67.9,88.5 L 41.0,143.4 L 67.9,127.0 Z M 67.9,127.0 L 41.0,143.4 L 33.9,176.9 Z M 67.9,127.0 L 33.9,176.9 L 72.5,176.9 Z M 72.5,215.5 L 93.4,235.9 L 92.1,184.2 Z M 72.5,215.5 L 92.1,184.2 L 72.5,176.9 Z M 72.5,176.9 L 92.1,184.2 L 95.4,158.7 Z M 72.5,176.9 L 95.4,158.7 L 67.9,127.0 Z M 67.9,127.0 L 95.4,158.7 L 112.2,139.5 Z M 67.9,127.0 L 112.2,139.5 L 106.5,127.0 Z M 236.2,87.6 L 203.7,92.9 L 193.2,117.7 Z M 236.2,87.6 L 193.2,117.7 L 231.8,117.7 Z M 231.8,156.3 L 248.4,143.2 L 258.5,106.7 Z M 231.8,156.3 L 258.5,106.7 L 231.8,117.7 Z M 194.9,293.6 L 194.9,255.1 L 171.6,280.4 Z M 194.9,293.6 L 171.6,280.4 L 177.5,292.1 Z M 78.5,256.1 L 72.5,215.5 L 33.9,215.5 Z M 78.5,256.1 L 33.9,215.5 L 39.9,256.1 Z M 165.4,117.3 L 174.3,136.2 L 193.2,156.3 Z M 165.4,117.3 L 193.2,156.3 L 193.2,117.7 Z M 93.4,235.9 L 96.6,304.6 L 130.8,282.8 Z M 93.4,235.9 L 130.8,282.8 L 140.7,268.2 Z M 233.5,293.6 L 234.8,313.0 L 258.8,298.2 Z M 131.2,134.9 L 174.3,136.2 L 165.4,117.3 Z M 93.4,235.9 L 72.5,215.5 L 78.5,256.1 Z M 112.2,139.5 L 131.2,134.9 L 106.5,127.0 Z M 258.5,106.7 L 236.2,87.6 L 231.8,117.7 Z M 106.5,88.5 L 106.5,127.0 L 113.7,99.0 Z M 194.9,255.1 L 140.7,268.2 L 171.6,280.4 Z M 130.8,282.8 L 96.6,304.6 L 123.7,312.3 Z" fill="#2a2a4e" stroke="none"/>
  <path d="M 20.1,293.9 L 48.4,326.3 M 48.4,326.3 L 89.6,319.1 M 89.6,319.1 L 129.3,328.6 M 275.7,304.3 L 277.1,231.7 M 277.1,231.7 L 277.1,187.8 M 277.1,187.8 L 265.9,140.2 M 265.9,140.2 L 276.6,98.4 M 129.3,71.4 L 64.0,74.5 M 64.0,74.5 L 23.1,106.6 M 23.1,106.6 L 28.9,140.0 M 28.9,140.0 L 20.0,174.3 M 20.0,174.3 L 25.9,219.7 M 25.9,219.7 L 20.1,293.9 M 238.8,328.6 L 275.7,304.3 M 195.7,318.6 L 238.8,328.6 M 167.9,328.6 L 195.7,318.6 M 247.0,72.0 L 167.9,71.4 M 276.6,98.4 L 247.0,72.0 M 167.9,20.0 L 129.3,20.0 M 129.3,380.0 L 167.9,380.0 M 129.3,45.7 L 129.3,71.4 M 167.9,71.4 L 167.9,45.7 M 129.3,328.6 L 129.3,354.3 M 167.9,354.3 L 167.9,328.6 M 129.3,20.0 L 129.3,45.7 M 167.9,380.0 L 167.9,354.3 M 167.9,45.7 L 167.9,20.0 M 129.3,354.3 L 129.3,380.0" fill="none" stroke="white" stroke-width="2" stroke-linecap="round"/>
  <polygon points="148.2435839697563,63.350832873270065 156.2435839697563,71.35083287327006 148.2435839697563,79.35083287327006 140.2435839697563,71.35083287327006" fill="#4a9eff" stroke="white" stroke-width="1"/>
<polygon points="148.43228140050704,320.2831510345789 156.43228140050704,328.2831510345789 148.43228140050704,336.2831510345789 140.43228140050704,328.2831510345789" fill="#4a9eff" stroke="white" stroke-width="1"/>
</svg>