<svg xmlns="http://www.w3.org/2000/svg" viewBox="0 0 400 400">
  <rect width="400" height="400" fill="#1a1a2e"/>
  <path d="M 173.8,141.3 L 141.3,173.8 L 141.3,226.2 Z M 173.8,141.3 L 141.3,226.2 L 200.0,200.0 Z M 200.0,200.0 L 141.3,226.2 L 173.8,258.7 Z M 200.0,200.0 L 173.8,258.7 L 226.2,258.7 Z M 226.2,258.7 L 258.7,226.2 L 258.7,173.8 Z M 226.2,258.7 L 258.7,173.8 L 200.0,200.0 Z M 200.0,200.0 L 258.7,173.8 L 226.2,141.3 Z M 200.0,200.0 L 226.2,141.3 L 173.8,141.3 Z M 49.3,259.4 L 115.9,233.9 L 115.9,166.1 Z M 49.3,259.4 L 115.9,166.1 L 49.3,140.6 Z M 259.4,350.7 L 233.9,284.1 L 166.1,284.1 Z M 259.4,350.7 L 166.1,284.1 L 140.6,350.7 Z M 350.7,259.4 L 284.1,233.9 L 233.9,284.1 Z M 350.7,259.4 L 233.9,284.1 L 259.4,350.7 Z M 350.7,140.6 L 284.1,166.1 L 284.1,233.9 Z M 350.7,140.6 L 284.1,233.9 L 350.7,259.4 Z M 259.4,49.3 L 233.9,115.9 L 284.1,166.1 Z M 259.4,49.3 L 284.1,166.1 L 350.7,140.6 Z M 140.6,49.3 L 166.1,115.9 L 233.9,115.9 Z M 140.6,49.3 L 233.9,115.9 L 259.4,49.3 Z M 49.3,140.6 L 115.9,166.1 L 166.1,115.9 Z M 49.3,140.6 L 166.1,115.9 L 140.6,49.3 Z M 115.9,233.9 L 49.3,259.4 L 140.6,350.7 Z M 115.9,233.9 L 140.6,350.7 L 166.1,284.1 Z M 20.0,270.4 L 129.6,380.0 L 49.3,259.4 Z M 129.6,380.0 L 140.6,350.7 L 49.3,259.4 Z M 380.0,270.4 L 380.0,129.6 L 350.7,140.6 Z M 380.0,129.6 L 270.4,20.0 L 350.7,140.6 Z M 350.7,140.6 L 270.4,20.0 L 259.4,49.3 Z M 270.4,20.0 L 140.6,49.3 L 259.4,49.3 Z M 270.4,20.0 L 129.6,20.0 L 140.6,49.3 Z M 129.6,20.0 L 20.0,129.6 L 140.6,49.3 Z M 140.6,49.3 L 20.0,129.6 L 49.3,140.6 Z M 20.0,270.4 L 49.3,259.4 L 20.0,129.6 Z M 49.3,259.4 L 49.3,140.6 L 20.0,129.6 Z M 259.4,350.7 L 380.0,270.4 L 350.7,259.4 Z M 380.0,270.4 L 350.7,140.6 L 350.7,259.4 Z M 140.6,350.7 L 129.6,380.0 L 259.4,350.7 Z M 129.6,380.0 L 270.4,380.0 L 259.4,350.7 Z M 259.4,350.7 L 270.4,380.0 L 380.0,270.4 Z M 141.3,173.8 L 114.4,165.5 L 114.4,234.5 Z M 141.3,173.8 L 114.4,234.5 L 141.3,226.2 Z M 173.8,258.7 L 166.1,284.1 L 233.9,284.1 Z M 173.8,258.7 L 233.9,284.1 L 226.2,258.7 Z M 285.6,234.5 L 258.7,226.2 L 226.2,258.7 Z M 285.6,234.5 L 226.2,258.7 L 233.9,284.1 Z M 258.7,226.2 L 285.6,234.5 L 285.6,165.5 Z M 258.7,226.2 L 285.6,165.5 L 258.7,173.8 Z M 234.5,114.4 L 226.2,141.3 L 258.7,173.8 Z M 234.5,114.4 L 258.7,173.8 L 285.6,165.5 Z M 226.2,141.3 L 234.5,114.4 L 165.5,114.4 Z M 226.2,141.3 L 165.5,114.4 L 173.8,141.3 Z M 114.4,165.5 L 141.3,173.8 L 173.8,141.3 Z M 114.4,165.5 L 173.8,141.3 L 165.5,114.4 Z M 166.1,284.1 L 173.8,258.7 L 141.3,226.2 Z M 166.1,284.1 L 141.3,226.2 L 114.4,234.5 Z" fill="#2a2a4e" stroke="none"/>
  <path d="M 115.9,233.9 L 115.9,166.1 M 284.1,233.9 L 233.9,284.1 M 284.1,166.1 L 284.1,233.9 M 233.9,115.9 L 284.1,166.1 M 166.1,115.9 L 233.9,115.9 M 115.9,166.1 L 166.1,115.9 M 166.1,284.1 L 115.9,233.9 M 20.0,270.4 L 129.6,380.0 M 380.0,270.4 L 380.0,129.6 M 380.0,129.6 L 270.4,20.0 M 270.4,20.0 L 129.6,20.0 M 129.6,20.0 L 20.0,129.6 M 20.0,129.6 L 20.0,270.4 M 129.6,380.0 L 270.4,380.0 M 270.4,380.0 L 380.0,270.4 M 114.4,165.5 L 114.4,234.5 M 233.9,284.1 L 285.6,234.5 M 285.6,234.5 L 285.6,165.5 M 285.6,165.5 L 234.5,114.4 M 234.5,114.4 L 165.5,114.4 M 165.5,114.4 L 114.4,165.5 M 114.4,234.5 L 166.1,284.1" fill="none" stroke="white" stroke-width="2" stroke-linecap="round"/>
  
</svg>