<svg xmlns="http://www.w3.org/2000/svg" viewBox="0 0 400 400" data-rotation="270" data-scale="5.015101" data-offset-x="176.40" data-offset-y="125.65" data-center-x="200.0" data-center-y="200.0">
  <rect width="400" height="400" fill="#1a1a2e"/>
  <g transform="rotate(270, 200.0, 200.0)">
  <path d="M 175.3,216.6 L 175.3,178.7 L 123.5,178.8 Z M 175.3,216.6 L 123.5,178.8 L 162.1,226.9 Z M 162.1,226.9 L 123.5,178.8 L 123.4,221.0 Z M 162.1,226.9 L 123.4,221.0 L 139.6,226.9 Z M 227.0,82.5 L 175.3,82.3 L 175.3,130.9 Z M 227.0,82.5 L 175.3,130.9 L 227.0,131.0 Z M 123.8,82.0 L 175.3,82.3 L 177.3,44.0 Z M 123.8,82.0 L 177.3,44.0 L 123.9,36.2 Z M 278.4,148.9 L 227.0,131.0 L 227.0,178.6 Z M 278.4,148.9 L 227.0,178.6 L 265.1,180.9 Z M 227.0,131.0 L 278.4,148.9 L 275.1,131.1 Z M 240.7,73.4 L 245.7,78.7 L 250.0,74.7 Z M 240.7,73.4 L 250.0,74.7 L 243.6,70.7 Z M 147.5,63.8 L 152.5,69.1 L 156.8,65.0 Z M 147.5,63.8 L 156.8,65.0 L 150.4,61.1 Z M 97.7,126.5 L 104.9,125.4 L 104.0,119.5 Z M 97.7,126.5 L 104.0,119.5 L 97.2,122.5 Z M 105.9,130.4 L 109.3,126.3 L 106.0,123.5 Z M 105.9,130.4 L 106.0,123.5 L 103.7,128.5 Z M 168.9,174.5 L 176.0,173.5 L 175.2,167.6 Z M 168.9,174.5 L 175.2,167.6 L 168.3,170.6 Z M 177.0,178.4 L 180.5,174.4 L 177.1,171.6 Z M 177.0,178.4 L 177.1,171.6 L 174.8,176.6 Z M 187.4,121.4 L 194.6,120.3 L 193.7,114.5 Z M 187.4,121.4 L 193.7,114.5 L 186.9,117.5 Z M 196.7,124.1 L 199.5,130.8 L 204.9,128.5 Z M 196.7,124.1 L 204.9,128.5 L 200.3,122.6 Z M 227.0,131.0 L 275.1,131.1 L 274.3,82.7 Z M 227.0,131.0 L 274.3,82.7 L 227.0,82.5 Z M 227.0,82.5 L 274.3,82.7 L 256.7,54.5 Z M 227.0,82.5 L 256.7,54.5 L 206.1,32.4 Z M 243.3,200.0 L 265.1,180.9 L 227.0,178.6 Z M 243.3,200.0 L 227.0,178.6 L 204.8,200.0 Z M 204.8,200.0 L 227.0,178.6 L 227.0,131.0 Z M 204.8,200.0 L 227.0,131.0 L 175.3,178.7 Z M 175.3,178.7 L 227.0,131.0 L 175.3,130.9 Z M 175.3,178.7 L 175.3,130.9 L 123.5,178.8 Z M 123.5,178.8 L 175.3,130.9 L 175.3,82.3 Z M 123.5,178.8 L 175.3,82.3 L 97.5,148.6 Z M 97.5,148.6 L 175.3,82.3 L 123.8,82.0 Z M 97.5,148.6 L 123.8,82.0 L 76.1,118.7 Z M 76.1,118.7 L 123.8,82.0 L 72.2,63.1 Z M 123.8,82.0 L 100.4,38.9 L 72.2,63.1 Z M 123.4,221.0 L 123.5,178.8 L 97.5,148.6 Z M 123.4,221.0 L 97.5,148.6 L 96.3,184.1 Z M 227.0,82.5 L 206.1,32.4 L 177.3,44.0 Z M 227.0,82.5 L 177.3,44.0 L 175.3,82.3 Z M 123.8,82.0 L 123.9,36.2 L 100.4,38.9 Z M 175.3,178.7 L 175.3,216.6 L 204.8,200.0 Z M 90.8,71.2 L 100.0,50.7 L 72.8,64.5 Z M 100.0,50.7 L 85.6,35.5 L 72.8,64.5 Z M 121.0,42.7 L 121.6,21.8 L 100.0,50.7 Z M 121.6,21.8 L 85.6,35.5 L 100.0,50.7 Z M 121.0,42.7 L 141.5,49.4 L 121.6,21.8 Z M 141.5,49.4 L 157.1,34.0 L 121.6,21.8 Z M 176.6,61.3 L 212.5,51.3 L 177.2,40.4 Z M 212.5,51.3 L 207.0,32.2 L 177.2,40.4 Z M 176.6,61.3 L 177.2,40.4 L 141.5,49.4 Z M 177.2,40.4 L 157.1,34.0 L 141.5,49.4 Z M 259.1,155.5 L 259.1,177.9 L 278.5,147.5 Z M 259.1,177.9 L 278.5,185.9 L 278.5,147.5 Z M 259.1,177.9 L 243.3,193.8 L 278.5,185.9 Z M 243.3,193.8 L 251.3,213.1 L 278.5,185.9 Z M 251.3,213.1 L 243.3,193.8 L 215.2,213.1 Z M 243.3,193.8 L 211.6,193.8 L 215.2,213.1 Z M 215.2,213.1 L 211.6,193.8 L 179.1,213.1 Z M 211.6,193.8 L 179.9,193.8 L 179.1,213.1 Z M 89.7,121.1 L 89.7,91.0 L 20.0,91.0 Z M 89.7,121.1 L 20.0,91.0 L 20.0,121.1 Z M 259.0,81.9 L 258.9,112.0 L 328.6,112.0 Z M 259.0,81.9 L 328.6,112.0 L 328.6,81.9 Z M 89.7,121.1 L 89.7,91.0 L 20.0,91.0 Z M 89.7,121.1 L 20.0,91.0 L 20.0,121.1 Z M 259.0,81.9 L 258.9,112.0 L 328.6,112.0 Z M 259.0,81.9 L 328.6,112.0 L 328.6,81.9 Z M 328.6,112.0 L 380.0,71.0 L 380.0,50.9 Z M 328.6,112.0 L 380.0,50.9 L 328.6,81.9 Z M 278.5,147.5 L 259.1,155.5 L 259.1,177.9 Z M 278.5,147.5 L 259.1,177.9 L 278.5,185.9 Z M 165.9,221.2 L 135.9,221.2 L 135.9,290.8 Z M 165.9,221.2 L 135.9,290.8 L 165.9,290.9 Z M 165.9,221.2 L 135.9,221.2 L 135.9,290.8 Z M 165.9,221.2 L 135.9,290.8 L 165.9,290.9 Z M 312.5,81.5 L 316.8,81.4 L 314.6,78.0 Z M 277.9,81.7 L 282.1,81.7 L 280.0,78.3 Z M 322.2,112.0 L 324.4,115.4 L 326.5,112.0 Z M 280.8,154.8 L 284.6,152.8 L 281.1,150.8 Z M 275.5,188.9 L 279.6,189.9 L 278.4,186.1 Z M 251.4,212.8 L 255.6,213.8 L 254.4,210.0 Z M 193.3,213.0 L 195.4,216.7 L 197.3,213.1 Z M 32.1,121.3 L 34.2,124.8 L 36.3,121.3 Z M 29.4,91.1 L 33.6,91.1 L 31.5,87.7 Z M 86.1,35.3 L 90.1,33.7 L 86.8,31.3 Z M 116.3,24.0 L 120.3,22.4 L 117.0,20.0 Z M 177.3,40.2 L 181.4,39.1 L 178.5,36.4 Z M 201.9,33.1 L 206.0,32.0 L 203.1,29.3 Z M 135.7,246.9 L 135.7,242.6 L 132.3,244.7 Z M 166.2,278.8 L 169.6,276.6 L 166.2,274.5 Z M 67.7,121.3 L 69.8,124.8 L 71.9,121.3 Z M 166.2,237.6 L 169.6,235.4 L 166.2,233.3 Z" fill="#2a2a4e" stroke="none"/>
  <path d="M 162.1,226.9 L 175.3,216.6 M 123.4,221.0 L 139.6,226.9 M 139.6,226.9 L 162.1,226.9 M 177.3,44.0 L 123.9,36.2 M 265.1,180.9 L 278.4,148.9 M 278.4,148.9 L 275.1,131.1 M 240.7,73.4 L 245.7,78.7 M 245.7,78.7 L 250.0,74.7 M 250.0,74.7 L 243.6,70.7 M 243.6,70.7 L 240.7,73.4 M 147.5,63.8 L 152.5,69.1 M 152.5,69.1 L 156.8,65.0 M 156.8,65.0 L 150.4,61.1 M 150.4,61.1 L 147.5,63.8 M 97.7,126.5 L 104.9,125.4 M 104.9,125.4 L 104.0,119.5 M 104.0,119.5 L 97.2,122.5 M 97.2,122.5 L 97.7,126.5 M 105.9,130.4 L 109.3,126.3 M 109.3,126.3 L 106.0,123.5 M 106.0,123.5 L 103.7,128.5 M 103.7,128.5 L 105.9,130.4 M 168.9,174.5 L 176.0,173.5 M 176.0,173.5 L 175.2,167.6 M 175.2,167.6 L 168.3,170.6 M 168.3,170.6 L 168.9,174.5 M 177.0,178.4 L 180.5,174.4 M 180.5,174.4 L 177.1,171.6 M 177.1,171.6 L 174.8,176.6 M 174.8,176.6 L 177.0,178.4 M 187.4,121.4 L 194.6,120.3 M 194.6,120.3 L 193.7,114.5 M 193.7,114.5 L 186.9,117.5 M 186.9,117.5 L 187.4,121.4 M 196.7,124.1 L 199.5,130.8 M 199.5,130.8 L 204.9,128.5 M 204.9,128.5 L 200.3,122.6 M 200.3,122.6 L 196.7,124.1 M 275.1,131.1 L 274.3,82.7 M 274.3,82.7 L 256.7,54.5 M 256.7,54.5 L 206.1,32.4 M 243.3,200.0 L 265.1,180.9 M 204.8,200.0 L 243.3,200.0 M 76.1,118.7 L 97.5,148.6 M 72.2,63.1 L 76.1,118.7 M 100.4,38.9 L 72.2,63.1 M 97.5,148.6 L 96.3,184.1 M 96.3,184.1 L 123.4,221.0 M 206.1,32.4 L 177.3,44.0 M 123.9,36.2 L 100.4,38.9 M 175.3,216.6 L 204.8,200.0 M 90.8,71.2 L 100.0,50.7 M 72.8,64.5 L 90.8,71.2 M 85.6,35.5 L 72.8,64.5 M 100.0,50.7 L 121.0,42.7 M 121.6,21.8 L 85.6,35.5 M 121.0,42.7 L 141.5,49.4 M 157.1,34.0 L 121.6,21.8 M 176.6,61.3 L 212.5,51.3 M 212.5,51.3 L 207.0,32.2 M 207.0,32.2 L 177.2,40.4 M 141.5,49.4 L 176.6,61.3 M 177.2,40.4 L 157.1,34.0 M 259.1,177.9 L 243.3,193.8 M 251.3,213.1 L 278.5,185.9 M 215.2,213.1 L 251.3,213.1 M 243.3,193.8 L 211.6,193.8 M 179.1,213.1 L 215.2,213.1 M 211.6,193.8 L 179.9,193.8 M 179.9,193.8 L 179.1,213.1 M 328.6,112.0 L 380.0,71.0 M 380.0,71.0 L 380.0,50.9 M 380.0,50.9 L 328.6,81.9 M 312.5,81.5 L 316.8,81.4 M 316.8,81.4 L 314.6,78.0 M 314.6,78.0 L 312.5,81.5 M 277.9,81.7 L 282.1,81.7 M 282.1,81.7 L 280.0,78.3 M 280.0,78.3 L 277.9,81.7 M 322.2,112.0 L 324.4,115.4 M 324.4,115.4 L 326.5,112.0 M 326.5,112.0 L 322.2,112.0 M 280.8,154.8 L 284.6,152.8 M 284.6,152.8 L 281.1,150.8 M 281.1,150.8 L 280.8,154.8 M 275.5,188.9 L 279.6,189.9 M 279.6,189.9 L 278.4,186.1 M 278.4,186.1 L 275.5,188.9 M 251.4,212.8 L 255.6,213.8 M 255.6,213.8 L 254.4,210.0 M 254.4,210.0 L 251.4,212.8 M 193.3,213.0 L 195.4,216.7 M 195.4,216.7 L 197.3,213.1 M 197.3,213.1 L 193.3,213.0 M 32.1,121.3 L 34.2,124.8 M 34.2,124.8 L 36.3,121.3 M 36.3,121.3 L 32.1,121.3 M 29.4,91.1 L 33.6,91.1 M 33.6,91.1 L 31.5,87.7 M 31.5,87.7 L 29.4,91.1 M 86.1,35.3 L 90.1,33.7 M 90.1,33.7 L 86.8,31.3 M 86.8,31.3 L 86.1,35.3 M 116.3,24.0 L 120.3,22.4 M 120.3,22.4 L 117.0,20.0 M 117.0,20.0 L 116.3,24.0 M 177.3,40.2 L 181.4,39.1 M 181.4,39.1 L 178.5,36.4 M 178.5,36.4 L 177.3,40.2 M 201.9,33.1 L 206.0,32.0 M 206.0,32.0 L 203.1,29.3 M 203.1,29.3 L 201.9,33.1 M 135.7,246.9 L 135.7,242.6 M 135.7,242.6 L 132.3,244.7 M 132.3,244.7 L 135.7,246.9 M 166.2,278.8 L 169.6,276.6 M 169.6,276.6 L 166.2,274.5 M 166.2,274.5 L 166.2,278.8 M 67.7,121.3 L 69.8,124.8 M 69.8,124.8 L 71.9,121.3 M 71.9,121.3 L 67.7,121.3 M 166.2,237.6 L 169.6,235.4 M 169.6,235.4 L 166.2,233.3 M 166.2,233.3 L 166.2,237.6" fill="none" stroke="white" stroke-width="2" stroke-linecap="round"/>
  <rect x="127.4" y="222.8" width="48" height="8" fill="#ff4444" stroke="white" stroke-width="1" data-gate="true" data-gate-dir="east"/>
<text x="151.4" y="250.8" text-anchor="middle" font-size="10" fill="#ffaaaa" font-family="sans-serif" transform="rotate(-270, 151.4, 250.8)">E</text>
<rect x="65.7" y="86.3" width="8" height="48" fill="#ff4444" stroke="white" stroke-width="1" data-gate="true" data-gate-dir="south"/>
<text x="49.7" y="110.3" text-anchor="end" font-size="10" fill="#ffaaaa" font-family="sans-serif" transform="rotate(-270, 49.7, 110.3)">S</text>
<rect x="271.9" y="74.8" width="8" height="48" fill="#ff4444" stroke="white" stroke-width="1" data-gate="true" data-gate-dir="north"/>
<text x="295.9" y="98.8" text-anchor="start" font-size="10" fill="#ffaaaa" font-family="sans-serif" transform="rotate(-270, 295.9, 98.8)">N</text>
  <circle cx="176.4" cy="125.7" r="0" data-origin="true" fill="none"/>
  </g>
</svg>