<svg xmlns="http://www.w3.org/2000/svg" viewBox="0 0 400 400">
  <rect width="400" height="400" fill="#1a1a2e"/>
  <path d="M 116.0,234.0 L 106.0,250.0 L 136.0,250.0 Z M 116.0,234.0 L 136.0,250.0 L 146.0,234.0 Z M 146.0,234.0 L 136.0,250.0 L 146.0,260.0 Z M 146.0,234.0 L 146.0,260.0 L 162.0,250.0 Z M 162.0,250.0 L 146.0,260.0 L 146.0,380.0 Z M 162.0,250.0 L 146.0,380.0 L 162.0,380.0 Z M 106.0,250.0 L 116.0,234.0 L 106.0,224.0 Z M 106.0,250.0 L 106.0,224.0 L 90.0,234.0 Z M 90.0,234.0 L 106.0,224.0 L 106.0,206.0 Z M 90.0,234.0 L 106.0,206.0 L 90.0,214.0 Z M 90.0,214.0 L 106.0,206.0 L 94.0,194.0 Z M 90.0,214.0 L 94.0,194.0 L 78.0,202.0 Z M 78.0,202.0 L 94.0,194.0 L 94.0,176.0 Z M 78.0,202.0 L 94.0,176.0 L 78.0,168.0 Z M 78.0,168.0 L 94.0,176.0 L 106.0,164.0 Z M 78.0,168.0 L 106.0,164.0 L 90.0,156.0 Z M 90.0,156.0 L 106.0,164.0 L 106.0,146.0 Z M 90.0,156.0 L 106.0,146.0 L 90.0,136.0 Z M 90.0,136.0 L 106.0,146.0 L 116.0,136.0 Z M 90.0,136.0 L 116.0,136.0 L 106.0,120.0 Z M 106.0,120.0 L 116.0,136.0 L 140.0,136.0 Z M 106.0,120.0 L 140.0,136.0 L 132.0,120.0 Z M 132.0,120.0 L 140.0,136.0 L 158.0,124.0 Z M 132.0,120.0 L 158.0,124.0 L 150.0,108.0 Z M 150.0,108.0 L 158.0,124.0 L 182.0,124.0 Z M 150.0,108.0 L 182.0,124.0 L 190.0,108.0 Z M 190.0,108.0 L 182.0,124.0 L 200.0,136.0 Z M 190.0,108.0 L 200.0,136.0 L 208.0,120.0 Z M 208.0,120.0 L 200.0,136.0 L 224.0,136.0 Z M 208.0,120.0 L 224.0,136.0 L 234.0,120.0 Z M 178.0,380.0 L 194.0,380.0 L 194.0,260.0 Z M 178.0,380.0 L 194.0,260.0 L 178.0,250.0 Z M 178.0,250.0 L 194.0,260.0 L 204.0,250.0 Z M 178.0,250.0 L 204.0,250.0 L 194.0,234.0 Z M 194.0,234.0 L 204.0,250.0 L 234.0,250.0 Z M 194.0,234.0 L 234.0,250.0 L 224.0,234.0 Z M 224.0,234.0 L 234.0,250.0 L 250.0,234.0 Z M 224.0,234.0 L 250.0,234.0 L 234.0,224.0 Z M 234.0,224.0 L 250.0,234.0 L 250.0,214.0 Z M 234.0,224.0 L 250.0,214.0 L 234.0,206.0 Z M 234.0,206.0 L 250.0,214.0 L 262.0,202.0 Z M 234.0,206.0 L 262.0,202.0 L 246.0,194.0 Z M 246.0,194.0 L 262.0,202.0 L 262.0,168.0 Z M 246.0,194.0 L 262.0,168.0 L 246.0,176.0 Z M 246.0,176.0 L 262.0,168.0 L 250.0,156.0 Z M 246.0,176.0 L 250.0,156.0 L 234.0,164.0 Z M 234.0,164.0 L 250.0,156.0 L 250.0,136.0 Z M 234.0,164.0 L 250.0,136.0 L 234.0,146.0 Z M 234.0,146.0 L 250.0,136.0 L 234.0,120.0 Z M 234.0,146.0 L 234.0,120.0 L 224.0,136.0 Z M 170.0,188.0 L 185.7,194.4 L 185.7,181.6 Z M 170.0,188.0 L 154.3,181.6 L 154.3,194.4 Z M 176.4,203.7 L 170.0,188.0 L 163.6,203.7 Z M 163.6,172.3 L 170.0,188.0 L 176.4,172.3 Z M 154.3,181.6 L 170.0,188.0 L 163.6,172.3 Z M 163.6,203.7 L 170.0,188.0 L 154.3,194.4 Z M 185.7,194.4 L 170.0,188.0 L 176.4,203.7 Z M 176.4,172.3 L 170.0,188.0 L 185.7,181.6 Z M 146.0,260.0 L 136.0,250.0 L 106.0,250.0 Z M 146.0,260.0 L 106.0,250.0 L 146.0,380.0 Z M 146.0,380.0 L 106.0,250.0 L 90.0,234.0 Z M 146.0,380.0 L 90.0,234.0 L 20.0,380.0 Z M 20.0,380.0 L 90.0,234.0 L 90.0,214.0 Z M 20.0,380.0 L 90.0,214.0 L 78.0,202.0 Z M 106.0,120.0 L 132.0,120.0 L 150.0,108.0 Z M 106.0,120.0 L 150.0,108.0 L 20.0,20.0 Z M 20.0,20.0 L 150.0,108.0 L 190.0,108.0 Z M 20.0,20.0 L 190.0,108.0 L 320.0,20.0 Z M 320.0,20.0 L 190.0,108.0 L 208.0,120.0 Z M 320.0,20.0 L 208.0,120.0 L 234.0,120.0 Z M 262.0,202.0 L 250.0,214.0 L 250.0,234.0 Z M 262.0,202.0 L 250.0,234.0 L 320.0,380.0 Z M 320.0,380.0 L 250.0,234.0 L 234.0,250.0 Z M 320.0,380.0 L 234.0,250.0 L 194.0,380.0 Z M 194.0,380.0 L 234.0,250.0 L 204.0,250.0 Z M 194.0,380.0 L 204.0,250.0 L 194.0,260.0 Z M 20.0,380.0 L 78.0,202.0 L 78.0,168.0 Z M 20.0,380.0 L 78.0,168.0 L 20.0,20.0 Z M 20.0,20.0 L 78.0,168.0 L 90.0,156.0 Z M 20.0,20.0 L 90.0,156.0 L 90.0,136.0 Z M 162.0,380.0 L 178.0,380.0 L 178.0,250.0 Z M 162.0,380.0 L 178.0,250.0 L 162.0,250.0 Z M 162.0,250.0 L 178.0,250.0 L 194.0,234.0 Z M 162.0,250.0 L 194.0,234.0 L 146.0,234.0 Z M 146.0,234.0 L 194.0,234.0 L 183.0,220.0 Z M 146.0,234.0 L 183.0,220.0 L 157.0,220.0 Z M 157.0,220.0 L 183.0,220.0 L 179.7,211.7 Z M 157.0,220.0 L 179.7,211.7 L 160.3,211.7 Z M 146.3,178.3 L 160.3,164.3 L 157.0,156.0 Z M 146.3,178.3 L 157.0,156.0 L 138.0,175.0 Z M 138.0,175.0 L 157.0,156.0 L 140.0,136.0 Z M 138.0,175.0 L 140.0,136.0 L 116.0,136.0 Z M 160.3,211.7 L 146.3,197.7 L 138.0,201.0 Z M 160.3,211.7 L 138.0,201.0 L 157.0,220.0 Z M 157.0,220.0 L 138.0,201.0 L 116.0,234.0 Z M 157.0,220.0 L 116.0,234.0 L 146.0,234.0 Z M 182.0,124.0 L 158.0,124.0 L 140.0,136.0 Z M 182.0,124.0 L 140.0,136.0 L 200.0,136.0 Z M 200.0,136.0 L 140.0,136.0 L 157.0,156.0 Z M 200.0,136.0 L 157.0,156.0 L 183.0,156.0 Z M 183.0,156.0 L 157.0,156.0 L 160.3,164.3 Z M 183.0,156.0 L 160.3,164.3 L 179.7,164.3 Z M 94.0,176.0 L 94.0,194.0 L 106.0,206.0 Z M 94.0,176.0 L 106.0,206.0 L 106.0,164.0 Z M 106.0,164.0 L 106.0,206.0 L 138.0,201.0 Z M 106.0,164.0 L 138.0,201.0 L 138.0,175.0 Z M 138.0,175.0 L 138.0,201.0 L 146.3,197.7 Z M 138.0,175.0 L 146.3,197.7 L 146.3,178.3 Z M 234.0,164.0 L 234.0,146.0 L 224.0,136.0 Z M 234.0,164.0 L 224.0,136.0 L 202.0,175.0 Z M 202.0,175.0 L 224.0,136.0 L 200.0,136.0 Z M 202.0,175.0 L 200.0,136.0 L 183.0,156.0 Z M 246.0,194.0 L 246.0,176.0 L 234.0,164.0 Z M 246.0,194.0 L 234.0,164.0 L 234.0,206.0 Z M 234.0,206.0 L 234.0,164.0 L 202.0,175.0 Z M 234.0,206.0 L 202.0,175.0 L 202.0,201.0 Z M 202.0,201.0 L 202.0,175.0 L 193.7,178.3 Z M 202.0,201.0 L 193.7,178.3 L 193.7,197.7 Z M 262.0,202.0 L 320.0,380.0 L 262.0,168.0 Z M 320.0,380.0 L 320.0,220.0 L 262.0,168.0 Z M 262.0,168.0 L 320.0,220.0 L 320.0,180.0 Z M 224.0,234.0 L 234.0,224.0 L 202.0,201.0 Z M 234.0,224.0 L 234.0,206.0 L 202.0,201.0 Z M 193.7,197.7 L 179.7,211.7 L 202.0,201.0 Z M 179.7,211.7 L 183.0,220.0 L 202.0,201.0 Z M 183.0,220.0 L 194.0,234.0 L 202.0,201.0 Z M 194.0,234.0 L 224.0,234.0 L 202.0,201.0 Z M 262.0,168.0 L 320.0,20.0 L 250.0,136.0 Z M 262.0,168.0 L 250.0,136.0 L 250.0,156.0 Z M 138.0,175.0 L 116.0,136.0 L 106.0,146.0 Z M 138.0,175.0 L 106.0,146.0 L 106.0,164.0 Z M 202.0,175.0 L 183.0,156.0 L 179.7,164.3 Z M 202.0,175.0 L 179.7,164.3 L 193.7,178.3 Z M 224.0,234.0 L 202.0,201.0 L 183.0,220.0 Z M 224.0,234.0 L 183.0,220.0 L 202.0,201.0 Z M 106.0,206.0 L 106.0,224.0 L 116.0,234.0 Z M 106.0,206.0 L 116.0,234.0 L 138.0,201.0 Z M 234.0,120.0 L 250.0,136.0 L 320.0,20.0 Z M 20.0,20.0 L 90.0,136.0 L 106.0,120.0 Z M 262.0,168.0 L 320.0,180.0 L 320.0,20.0 Z" fill="#2a2a4e" stroke="none"/>
  <path d="M 146.0,380.0 L 162.0,380.0 M 178.0,380.0 L 194.0,380.0 M 185.7,194.4 L 185.7,181.6 M 154.3,181.6 L 154.3,194.4 M 163.6,203.7 L 176.4,203.7 M 176.4,172.3 L 163.6,172.3 M 163.6,172.3 L 154.3,181.6 M 154.3,194.4 L 163.6,203.7 M 176.4,203.7 L 185.7,194.4 M 185.7,181.6 L 176.4,172.3 M 20.0,380.0 L 146.0,380.0 M 320.0,20.0 L 20.0,20.0 M 194.0,380.0 L 320.0,380.0 M 20.0,20.0 L 20.0,380.0 M 162.0,380.0 L 178.0,380.0 M 179.7,211.7 L 160.3,211.7 M 146.3,178.3 L 160.3,164.3 M 160.3,211.7 L 146.3,197.7 M 160.3,164.3 L 179.7,164.3 M 146.3,197.7 L 146.3,178.3 M 193.7,178.3 L 193.7,197.7 M 320.0,380.0 L 320.0,220.0 M 320.0,220.0 L 320.0,180.0 M 193.7,197.7 L 179.7,211.7 M 179.7,164.3 L 193.7,178.3 M 320.0,180.0 L 320.0,20.0" fill="none" stroke="white" stroke-width="2" stroke-linecap="round"/>
  <polygon points="170.10766138153673,272.3322922557836 178.10766138153673,280.3322922557836 170.10766138153673,288.3322922557836 162.10766138153673,280.3322922557836" fill="#4a9eff" stroke="white" stroke-width="1"/>
</svg>