<svg xmlns="http://www.w3.org/2000/svg" viewBox="0 0 400 400">
  <rect width="400" height="400" fill="#1a1a2e"/>
  <path d="M 174.0,204.0 L 174.0,196.0 L 166.0,196.0 Z M 174.0,204.0 L 166.0,196.0 L 166.0,204.0 Z M 146.0,380.0 L 162.0,380.0 L 162.0,250.0 Z M 146.0,380.0 L 162.0,250.0 L 146.0,260.0 Z M 146.0,260.0 L 162.0,250.0 L 146.0,234.0 Z M 146.0,260.0 L 146.0,234.0 L 136.0,250.0 Z M 136.0,250.0 L 146.0,234.0 L 116.0,234.0 Z M 136.0,250.0 L 116.0,234.0 L 106.0,250.0 Z M 106.0,250.0 L 116.0,234.0 L 106.0,224.0 Z M 106.0,250.0 L 106.0,224.0 L 90.0,234.0 Z M 90.0,234.0 L 106.0,224.0 L 106.0,214.0 Z M 90.0,234.0 L 106.0,214.0 L 90.0,222.0 Z M 90.0,222.0 L 106.0,214.0 L 86.0,194.0 Z M 90.0,222.0 L 86.0,194.0 L 70.0,202.0 Z M 70.0,202.0 L 86.0,194.0 L 86.0,148.0 Z M 70.0,202.0 L 86.0,148.0 L 70.0,148.0 Z M 70.0,148.0 L 86.0,148.0 L 86.0,114.0 Z M 70.0,148.0 L 86.0,114.0 L 70.0,114.0 Z M 162.0,20.0 L 146.0,20.0 L 146.0,140.0 Z M 162.0,20.0 L 146.0,140.0 L 162.0,150.0 Z M 162.0,150.0 L 146.0,140.0 L 136.0,150.0 Z M 162.0,150.0 L 136.0,150.0 L 146.0,166.0 Z M 146.0,166.0 L 136.0,150.0 L 112.0,150.0 Z M 146.0,166.0 L 112.0,150.0 L 102.0,166.0 Z M 102.0,166.0 L 112.0,150.0 L 102.0,140.0 Z M 102.0,166.0 L 102.0,140.0 L 86.0,148.0 Z M 86.0,148.0 L 102.0,140.0 L 102.0,114.0 Z M 86.0,148.0 L 102.0,114.0 L 86.0,114.0 Z M 178.0,380.0 L 194.0,380.0 L 194.0,260.0 Z M 178.0,380.0 L 194.0,260.0 L 178.0,250.0 Z M 178.0,250.0 L 194.0,260.0 L 204.0,250.0 Z M 178.0,250.0 L 204.0,250.0 L 194.0,234.0 Z M 194.0,234.0 L 204.0,250.0 L 234.0,250.0 Z M 194.0,234.0 L 234.0,250.0 L 224.0,234.0 Z M 224.0,234.0 L 234.0,250.0 L 250.0,234.0 Z M 224.0,234.0 L 250.0,234.0 L 234.0,224.0 Z M 234.0,224.0 L 250.0,234.0 L 250.0,222.0 Z M 234.0,224.0 L 250.0,222.0 L 234.0,214.0 Z M 234.0,214.0 L 250.0,222.0 L 270.0,202.0 Z M 234.0,214.0 L 270.0,202.0 L 254.0,194.0 Z M 254.0,194.0 L 270.0,202.0 L 270.0,148.0 Z M 254.0,194.0 L 270.0,148.0 L 254.0,148.0 Z M 254.0,148.0 L 270.0,148.0 L 270.0,114.0 Z M 254.0,148.0 L 270.0,114.0 L 254.0,114.0 Z M 194.0,20.0 L 178.0,20.0 L 178.0,150.0 Z M 194.0,20.0 L 178.0,150.0 L 194.0,140.0 Z M 194.0,140.0 L 178.0,150.0 L 194.0,166.0 Z M 194.0,140.0 L 194.0,166.0 L 204.0,150.0 Z M 204.0,150.0 L 194.0,166.0 L 238.0,166.0 Z M 204.0,150.0 L 238.0,166.0 L 228.0,150.0 Z M 228.0,150.0 L 238.0,166.0 L 254.0,148.0 Z M 228.0,150.0 L 254.0,148.0 L 238.0,140.0 Z M 238.0,140.0 L 254.0,148.0 L 254.0,114.0 Z M 238.0,140.0 L 254.0,114.0 L 238.0,114.0 Z M 70.0,114.0 L 86.0,114.0 L 78.0,100.0 Z M 86.0,114.0 L 94.0,100.0 L 78.0,100.0 Z M 270.0,114.0 L 262.0,100.0 L 254.0,114.0 Z M 262.0,100.0 L 246.0,100.0 L 254.0,114.0 Z M 254.0,114.0 L 246.0,100.0 L 238.0,114.0 Z M 170.0,200.0 L 185.7,206.4 L 185.7,193.6 Z M 170.0,200.0 L 154.3,193.6 L 154.3,206.4 Z M 176.4,215.7 L 170.0,200.0 L 163.6,215.7 Z M 163.6,184.3 L 170.0,200.0 L 176.4,184.3 Z M 154.3,193.6 L 170.0,200.0 L 163.6,184.3 Z M 163.6,215.7 L 170.0,200.0 L 154.3,206.4 Z M 185.7,206.4 L 170.0,200.0 L 176.4,215.7 Z M 176.4,184.3 L 170.0,200.0 L 185.7,193.6 Z M 86.0,114.0 L 102.0,114.0 L 94.0,100.0 Z M 162.0,380.0 L 178.0,380.0 L 178.0,250.0 Z M 162.0,380.0 L 178.0,250.0 L 162.0,250.0 Z M 162.0,250.0 L 178.0,250.0 L 194.0,234.0 Z M 162.0,250.0 L 194.0,234.0 L 146.0,234.0 Z M 146.0,234.0 L 194.0,234.0 L 176.4,215.7 Z M 146.0,234.0 L 176.4,215.7 L 163.6,215.7 Z M 146.0,234.0 L 163.6,215.7 L 154.3,206.4 Z M 146.0,234.0 L 154.3,206.4 L 138.0,213.0 Z M 138.0,213.0 L 154.3,206.4 L 154.3,193.6 Z M 138.0,213.0 L 154.3,193.6 L 138.0,187.0 Z M 176.4,215.7 L 194.0,234.0 L 202.0,213.0 Z M 176.4,215.7 L 202.0,213.0 L 185.7,206.4 Z M 185.7,206.4 L 202.0,213.0 L 202.0,187.0 Z M 185.7,206.4 L 202.0,187.0 L 185.7,193.6 Z M 116.0,234.0 L 146.0,234.0 L 138.0,213.0 Z M 116.0,234.0 L 138.0,213.0 L 106.0,224.0 Z M 106.0,224.0 L 138.0,213.0 L 138.0,187.0 Z M 106.0,224.0 L 138.0,187.0 L 106.0,214.0 Z M 86.0,148.0 L 86.0,194.0 L 106.0,214.0 Z M 86.0,148.0 L 106.0,214.0 L 102.0,166.0 Z M 102.0,166.0 L 106.0,214.0 L 138.0,187.0 Z M 102.0,166.0 L 138.0,187.0 L 146.0,166.0 Z M 146.0,166.0 L 138.0,187.0 L 154.3,193.6 Z M 146.0,166.0 L 154.3,193.6 L 163.6,184.3 Z M 178.0,20.0 L 162.0,20.0 L 162.0,150.0 Z M 178.0,20.0 L 162.0,150.0 L 178.0,150.0 Z M 178.0,150.0 L 162.0,150.0 L 146.0,166.0 Z M 178.0,150.0 L 146.0,166.0 L 194.0,166.0 Z M 194.0,166.0 L 146.0,166.0 L 163.6,184.3 Z M 194.0,166.0 L 163.6,184.3 L 176.4,184.3 Z M 194.0,234.0 L 224.0,234.0 L 234.0,224.0 Z M 194.0,234.0 L 234.0,224.0 L 202.0,213.0 Z M 202.0,213.0 L 234.0,224.0 L 234.0,214.0 Z M 202.0,213.0 L 234.0,214.0 L 202.0,187.0 Z M 254.0,194.0 L 254.0,148.0 L 238.0,166.0 Z M 254.0,194.0 L 238.0,166.0 L 234.0,214.0 Z M 234.0,214.0 L 238.0,166.0 L 194.0,166.0 Z M 234.0,214.0 L 194.0,166.0 L 202.0,187.0 Z M 202.0,187.0 L 194.0,166.0 L 176.4,184.3 Z M 202.0,187.0 L 176.4,184.3 L 185.7,193.6 Z M 146.0,260.0 L 136.0,250.0 L 106.0,250.0 Z M 146.0,260.0 L 106.0,250.0 L 146.0,380.0 Z M 146.0,380.0 L 106.0,250.0 L 90.0,234.0 Z M 146.0,380.0 L 90.0,234.0 L 20.0,380.0 Z M 20.0,380.0 L 90.0,234.0 L 90.0,222.0 Z M 20.0,380.0 L 90.0,222.0 L 70.0,202.0 Z M 238.0,114.0 L 194.0,20.0 L 194.0,140.0 Z M 238.0,114.0 L 194.0,140.0 L 238.0,140.0 Z M 238.0,140.0 L 194.0,140.0 L 204.0,150.0 Z M 238.0,140.0 L 204.0,150.0 L 228.0,150.0 Z M 320.0,20.0 L 270.0,148.0 L 270.0,202.0 Z M 320.0,20.0 L 270.0,202.0 L 320.0,380.0 Z M 320.0,380.0 L 270.0,202.0 L 250.0,222.0 Z M 320.0,380.0 L 250.0,222.0 L 250.0,234.0 Z M 204.0,250.0 L 194.0,260.0 L 194.0,380.0 Z M 204.0,250.0 L 194.0,380.0 L 234.0,250.0 Z M 234.0,250.0 L 194.0,380.0 L 320.0,380.0 Z M 234.0,250.0 L 320.0,380.0 L 250.0,234.0 Z M 112.0,150.0 L 136.0,150.0 L 146.0,140.0 Z M 112.0,150.0 L 146.0,140.0 L 102.0,140.0 Z M 102.0,140.0 L 146.0,140.0 L 146.0,20.0 Z M 102.0,140.0 L 146.0,20.0 L 102.0,114.0 Z M 270.0,148.0 L 320.0,20.0 L 270.0,114.0 Z M 320.0,20.0 L 262.0,100.0 L 270.0,114.0 Z M 78.0,100.0 L 20.0,20.0 L 70.0,114.0 Z M 20.0,20.0 L 70.0,148.0 L 70.0,114.0 Z M 94.0,100.0 L 146.0,20.0 L 20.0,20.0 Z M 94.0,100.0 L 20.0,20.0 L 78.0,100.0 Z M 194.0,20.0 L 246.0,100.0 L 262.0,100.0 Z M 194.0,20.0 L 262.0,100.0 L 320.0,20.0 Z M 70.0,148.0 L 20.0,20.0 L 20.0,380.0 Z M 70.0,148.0 L 20.0,380.0 L 70.0,202.0 Z M 238.0,114.0 L 246.0,100.0 L 194.0,20.0 Z M 146.0,20.0 L 94.0,100.0 L 102.0,114.0 Z" fill="#2a2a4e" stroke="none"/>
  <path d="M 174.0,204.0 L 174.0,196.0 M 174.0,196.0 L 166.0,196.0 M 166.0,196.0 L 166.0,204.0 M 166.0,204.0 L 174.0,204.0 M 146.0,380.0 L 162.0,380.0 M 162.0,20.0 L 146.0,20.0 M 178.0,380.0 L 194.0,380.0 M 194.0,20.0 L 178.0,20.0 M 162.0,380.0 L 178.0,380.0 M 178.0,20.0 L 162.0,20.0 M 20.0,380.0 L 146.0,380.0 M 320.0,380.0 L 320.0,20.0 M 194.0,380.0 L 320.0,380.0 M 146.0,20.0 L 20.0,20.0 M 320.0,20.0 L 194.0,20.0 M 20.0,20.0 L 20.0,380.0" fill="none" stroke="white" stroke-width="2" stroke-linecap="round"/>
  <polygon points="169.78404738132588,271.71790866203696 177.78404738132588,279.71790866203696 169.78404738132588,287.71790866203696 161.78404738132588,279.71790866203696" fill="#4a9eff" stroke="white" stroke-width="1"/>
<polygon points="170.17929672726777,112.05744950817875 178.17929672726777,120.05744950817875 170.17929672726777,128.05744950817876 162.17929672726777,120.05744950817875" fill="#4a9eff" stroke="white" stroke-width="1"/>
</svg>