<svg xmlns="http://www.w3.org/2000/svg" viewBox="0 0 400 400">
  <rect width="400" height="400" fill="#1a1a2e"/>
  <path d="M 171.2,233.6 L 190.4,221.6 L 171.2,202.4 Z M 171.2,233.6 L 171.2,202.4 L 159.2,221.6 Z M 159.2,221.6 L 171.2,202.4 L 147.2,202.4 Z M 159.2,221.6 L 147.2,202.4 L 135.2,221.6 Z M 135.2,221.6 L 147.2,202.4 L 135.2,190.4 Z M 135.2,221.6 L 135.2,190.4 L 116.0,202.4 Z M 116.0,202.4 L 135.2,190.4 L 135.2,171.2 Z M 116.0,202.4 L 135.2,171.2 L 116.0,185.6 Z M 116.0,185.6 L 135.2,171.2 L 118.4,154.4 Z M 116.0,185.6 L 118.4,154.4 L 104.0,173.6 Z M 231.2,20.0 L 219.2,39.2 L 228.8,48.8 Z M 231.2,20.0 L 228.8,48.8 L 240.8,29.6 Z M 240.8,29.6 L 228.8,48.8 L 252.8,48.8 Z M 240.8,29.6 L 252.8,48.8 L 264.8,29.6 Z M 264.8,29.6 L 252.8,48.8 L 264.8,60.8 Z M 264.8,29.6 L 264.8,60.8 L 284.0,48.8 Z M 284.0,48.8 L 264.8,60.8 L 264.8,128.0 Z M 284.0,48.8 L 264.8,128.0 L 284.0,113.6 Z M 284.0,113.6 L 264.8,128.0 L 281.6,144.8 Z M 284.0,113.6 L 281.6,144.8 L 296.0,125.6 Z M 209.6,221.6 L 228.8,233.6 L 240.8,221.6 Z M 209.6,221.6 L 240.8,221.6 L 228.8,202.4 Z M 228.8,202.4 L 240.8,221.6 L 284.0,221.6 Z M 228.8,202.4 L 284.0,221.6 L 264.8,202.4 Z M 264.8,202.4 L 284.0,221.6 L 284.0,185.6 Z M 264.8,202.4 L 284.0,185.6 L 264.8,171.2 Z M 264.8,171.2 L 284.0,185.6 L 296.0,173.6 Z M 264.8,171.2 L 296.0,173.6 L 281.6,154.4 Z M 281.6,154.4 L 296.0,173.6 L 380.0,173.6 Z M 281.6,154.4 L 380.0,173.6 L 380.0,154.4 Z M 20.0,125.6 L 20.0,144.8 L 118.4,144.8 Z M 20.0,125.6 L 118.4,144.8 L 104.0,125.6 Z M 104.0,125.6 L 118.4,144.8 L 135.2,128.0 Z M 104.0,125.6 L 135.2,128.0 L 116.0,113.6 Z M 116.0,113.6 L 135.2,128.0 L 135.2,48.8 Z M 116.0,113.6 L 135.2,48.8 L 116.0,29.6 Z M 116.0,29.6 L 135.2,48.8 L 147.2,48.8 Z M 116.0,29.6 L 147.2,48.8 L 135.2,29.6 Z M 135.2,29.6 L 147.2,48.8 L 156.8,39.2 Z M 135.2,29.6 L 156.8,39.2 L 144.8,20.0 Z M 144.8,20.0 L 156.8,39.2 L 219.2,39.2 Z M 144.8,20.0 L 219.2,39.2 L 231.2,20.0 Z M 190.4,221.6 L 171.2,233.6 L 171.2,365.6 Z M 190.4,221.6 L 171.2,365.6 L 190.4,365.6 Z M 228.8,365.6 L 228.8,233.6 L 209.6,221.6 Z M 296.0,125.6 L 281.6,144.8 L 380.0,144.8 Z M 104.0,173.6 L 118.4,154.4 L 20.0,154.4 Z M 104.0,173.6 L 20.0,154.4 L 20.0,173.6 Z M 190.4,365.6 L 209.6,365.6 L 209.6,221.6 Z M 190.4,365.6 L 209.6,221.6 L 190.4,221.6 Z M 190.4,221.6 L 209.6,221.6 L 228.8,202.4 Z M 190.4,221.6 L 228.8,202.4 L 171.2,202.4 Z M 171.2,202.4 L 228.8,202.4 L 250.4,188.0 Z M 171.2,202.4 L 250.4,188.0 L 149.6,188.0 Z M 149.6,188.0 L 250.4,188.0 L 233.6,164.0 Z M 149.6,188.0 L 233.6,164.0 L 147.2,164.0 Z M 147.2,164.0 L 233.6,164.0 L 233.6,130.4 Z M 147.2,164.0 L 233.6,130.4 L 147.2,130.4 Z M 147.2,130.4 L 233.6,130.4 L 250.4,108.8 Z M 147.2,130.4 L 250.4,108.8 L 147.2,108.8 Z M 147.2,202.4 L 171.2,202.4 L 149.6,188.0 Z M 147.2,202.4 L 149.6,188.0 L 135.2,190.4 Z M 135.2,190.4 L 149.6,188.0 L 147.2,164.0 Z M 135.2,190.4 L 147.2,164.0 L 135.2,171.2 Z M 219.2,39.2 L 156.8,39.2 L 147.2,48.8 Z M 219.2,39.2 L 147.2,48.8 L 228.8,48.8 Z M 228.8,48.8 L 147.2,48.8 L 178.4,77.6 Z M 228.8,48.8 L 178.4,77.6 L 250.4,77.6 Z M 250.4,108.8 L 264.8,128.0 L 264.8,60.8 Z M 250.4,108.8 L 264.8,60.8 L 250.4,77.6 Z M 250.4,77.6 L 264.8,60.8 L 252.8,48.8 Z M 250.4,77.6 L 252.8,48.8 L 228.8,48.8 Z M 135.2,171.2 L 135.2,128.0 L 118.4,144.8 Z M 135.2,171.2 L 118.4,144.8 L 118.4,154.4 Z M 118.4,154.4 L 118.4,144.8 L 20.0,144.8 Z M 118.4,154.4 L 20.0,144.8 L 20.0,154.4 Z M 380.0,154.4 L 380.0,144.8 L 281.6,144.8 Z M 380.0,154.4 L 281.6,144.8 L 281.6,154.4 Z M 281.6,154.4 L 281.6,144.8 L 264.8,128.0 Z M 281.6,154.4 L 264.8,128.0 L 264.8,171.2 Z M 264.8,171.2 L 264.8,128.0 L 250.4,108.8 Z M 264.8,171.2 L 250.4,108.8 L 250.4,188.0 Z M 250.4,188.0 L 250.4,108.8 L 233.6,130.4 Z M 250.4,188.0 L 233.6,130.4 L 233.6,164.0 Z M 264.8,29.6 L 231.2,20.0 L 240.8,29.6 Z M 116.0,29.6 L 135.2,29.6 L 144.8,20.0 Z M 135.2,48.8 L 135.2,128.0 L 147.2,48.8 Z M 135.2,128.0 L 147.2,108.8 L 147.2,48.8 Z M 147.2,48.8 L 147.2,108.8 L 178.4,77.6 Z M 135.2,128.0 L 135.2,171.2 L 147.2,130.4 Z M 135.2,171.2 L 147.2,164.0 L 147.2,130.4 Z M 264.8,171.2 L 250.4,188.0 L 264.8,202.4 Z M 250.4,188.0 L 228.8,202.4 L 264.8,202.4 Z M 250.4,108.8 L 250.4,77.6 L 147.2,108.8 Z M 250.4,77.6 L 178.4,77.6 L 147.2,108.8 Z M 147.2,108.8 L 135.2,128.0 L 147.2,130.4 Z M 147.2,108.8 L 147.2,130.4 L 147.2,108.8 Z M 147.2,108.8 L 178.4,77.6 L 147.2,108.8 Z" fill="#2a2a4e" stroke="none"/>
  <path d="M 159.2,221.6 L 171.2,233.6 M 135.2,221.6 L 159.2,221.6 M 116.0,202.4 L 135.2,221.6 M 116.0,185.6 L 116.0,202.4 M 104.0,173.6 L 116.0,185.6 M 284.0,48.8 L 264.8,29.6 M 284.0,113.6 L 284.0,48.8 M 296.0,125.6 L 284.0,113.6 M 228.8,233.6 L 240.8,221.6 M 240.8,221.6 L 284.0,221.6 M 284.0,221.6 L 284.0,185.6 M 284.0,185.6 L 296.0,173.6 M 296.0,173.6 L 380.0,173.6 M 380.0,173.6 L 380.0,154.4 M 20.0,125.6 L 20.0,144.8 M 104.0,125.6 L 20.0,125.6 M 116.0,113.6 L 104.0,125.6 M 116.0,29.6 L 116.0,113.6 M 231.2,20.0 L 144.8,20.0 M 171.2,233.6 L 171.2,365.6 M 171.2,365.6 L 190.4,365.6 M 228.8,365.6 L 228.8,233.6 M 209.6,221.6 L 228.8,365.6 M 380.0,144.8 L 296.0,125.6 M 20.0,154.4 L 20.0,173.6 M 20.0,173.6 L 104.0,173.6 M 190.4,365.6 L 209.6,365.6 M 209.6,365.6 L 209.6,221.6 M 20.0,144.8 L 20.0,154.4 M 380.0,154.4 L 380.0,144.8 M 264.8,29.6 L 231.2,20.0 M 144.8,20.0 L 116.0,29.6" fill="none" stroke="white" stroke-width="2" stroke-linecap="round"/>
  <polygon points="104.4418276869557,141.67977893321668 112.4418276869557,149.67977893321668 104.4418276869557,157.67977893321668 96.4418276869557,149.67977893321668" fill="#4a9eff" stroke="white" stroke-width="1"/>
<polygon points="295.83170544449274,143.3512160465989 303.83170544449274,151.3512160465989 295.83170544449274,159.3512160465989 287.83170544449274,151.3512160465989" fill="#4a9eff" stroke="white" stroke-width="1"/>
<polygon points="199.41183047405403,237.1249486613051 207.41183047405403,245.1249486613051 199.41183047405403,253.1249486613051 191.41183047405403,245.1249486613051" fill="#4a9eff" stroke="white" stroke-width="1"/>
</svg>