<svg xmlns="http://www.w3.org/2000/svg" viewBox="0 0 400 400">
  <rect width="400" height="400" fill="#1a1a2e"/>
  <path d="M 53.2,124.2 L 91.1,143.2 L 114.7,143.2 Z M 53.2,124.2 L 114.7,143.2 L 114.7,124.2 Z M 114.7,124.2 L 114.7,143.2 L 124.2,133.7 Z M 114.7,124.2 L 124.2,133.7 L 124.2,114.7 Z M 34.2,185.8 L 34.2,214.2 L 43.7,223.7 Z M 34.2,185.8 L 43.7,223.7 L 43.7,176.3 Z M 43.7,176.3 L 43.7,223.7 L 69.3,230.7 Z M 43.7,176.3 L 69.3,230.7 L 91.1,190.5 Z M 91.1,190.5 L 69.3,230.7 L 91.1,230.8 Z M 91.1,190.5 L 91.1,230.8 L 100.5,216.6 Z M 204.7,266.3 L 204.7,230.8 L 185.8,230.8 Z M 204.7,266.3 L 185.8,230.8 L 178.7,262.4 Z M 178.7,262.4 L 185.8,230.8 L 157.4,230.8 Z M 178.7,262.4 L 157.4,230.8 L 152.6,266.3 Z M 147.9,245.0 L 100.5,245.0 L 95.8,266.3 Z M 147.9,245.0 L 95.8,266.3 L 152.6,266.3 Z M 152.6,266.3 L 95.8,266.3 L 114.7,275.8 Z M 152.6,266.3 L 114.7,275.8 L 133.7,275.8 Z M 91.1,190.5 L 100.5,216.6 L 147.9,216.6 Z M 91.1,190.5 L 147.9,216.6 L 140.8,190.5 Z M 140.8,190.5 L 147.9,216.6 L 157.4,230.8 Z M 140.8,190.5 L 157.4,230.8 L 166.6,197.8 Z M 166.6,197.8 L 157.4,230.8 L 185.8,230.8 Z M 166.6,197.8 L 185.8,230.8 L 192.9,190.5 Z M 192.9,190.5 L 185.8,230.8 L 204.7,230.8 Z M 192.9,190.5 L 204.7,230.8 L 204.7,202.4 Z M 95.8,266.3 L 91.1,230.8 L 69.3,230.7 Z M 95.8,266.3 L 69.3,230.7 L 69.6,263.2 Z M 69.6,263.2 L 69.3,230.7 L 43.7,223.7 Z M 69.6,263.2 L 43.7,223.7 L 43.7,266.3 Z M 133.7,275.8 L 162.1,275.8 L 152.6,266.3 Z M 162.1,275.8 L 178.7,262.4 L 152.6,266.3 Z M 114.7,275.8 L 95.8,266.3 L 86.3,275.8 Z M 95.8,266.3 L 69.6,263.2 L 86.3,275.8 Z M 86.3,275.8 L 69.6,263.2 L 53.2,275.8 Z M 69.6,263.2 L 43.7,266.3 L 53.2,275.8 Z M 204.7,266.3 L 178.7,262.4 L 195.3,275.8 Z M 178.7,262.4 L 162.1,275.8 L 195.3,275.8 Z M 140.8,190.5 L 166.6,197.8 L 150.3,181.1 Z M 166.6,197.8 L 183.4,181.1 L 150.3,181.1 Z M 91.1,143.2 L 43.7,133.7 L 43.7,176.3 Z M 91.1,143.2 L 43.7,176.3 L 91.1,190.5 Z M 124.2,285.3 L 133.7,275.8 L 114.7,275.8 Z M 91.1,143.2 L 53.2,124.2 L 43.7,133.7 Z M 152.6,266.3 L 157.4,230.8 L 147.9,245.0 Z M 183.4,181.1 L 166.6,197.8 L 192.9,190.5 Z M 91.1,230.8 L 95.8,266.3 L 100.5,245.0 Z M 124.2,20.0 L 110.0,20.0 L 110.0,100.5 Z M 124.2,20.0 L 110.0,100.5 L 124.2,114.7 Z M 124.2,114.7 L 110.0,100.5 L 100.5,110.0 Z M 124.2,114.7 L 100.5,110.0 L 114.7,124.2 Z M 114.7,124.2 L 100.5,110.0 L 38.9,110.0 Z M 114.7,124.2 L 38.9,110.0 L 53.2,124.2 Z M 53.2,124.2 L 38.9,110.0 L 29.5,119.5 Z M 53.2,124.2 L 29.5,119.5 L 43.7,133.7 Z M 43.7,133.7 L 29.5,119.5 L 29.5,162.1 Z M 43.7,133.7 L 29.5,162.1 L 43.7,176.3 Z M 43.7,266.3 L 29.5,280.5 L 38.9,290.0 Z M 43.7,266.3 L 38.9,290.0 L 53.2,275.8 Z M 53.2,275.8 L 38.9,290.0 L 86.3,290.0 Z M 53.2,275.8 L 86.3,290.0 L 86.3,275.8 Z M 86.3,275.8 L 86.3,290.0 L 100.5,290.0 Z M 86.3,275.8 L 100.5,290.0 L 114.7,275.8 Z M 114.7,275.8 L 100.5,290.0 L 110.0,299.5 Z M 114.7,275.8 L 110.0,299.5 L 124.2,285.3 Z M 124.2,285.3 L 110.0,299.5 L 110.0,380.0 Z M 124.2,285.3 L 110.0,380.0 L 124.2,380.0 Z M 204.7,266.3 L 218.9,280.5 L 218.9,230.8 Z M 204.7,266.3 L 218.9,230.8 L 204.7,230.8 Z M 204.7,230.8 L 218.9,230.8 L 218.9,188.2 Z M 204.7,230.8 L 218.9,188.2 L 204.7,202.4 Z M 204.7,202.4 L 218.9,188.2 L 207.1,176.3 Z M 204.7,202.4 L 207.1,176.3 L 192.9,190.5 Z M 192.9,190.5 L 207.1,176.3 L 197.6,166.8 Z M 192.9,190.5 L 197.6,166.8 L 183.4,181.1 Z M 183.4,181.1 L 197.6,166.8 L 136.1,166.8 Z M 183.4,181.1 L 136.1,166.8 L 150.3,181.1 Z M 150.3,181.1 L 136.1,166.8 L 126.6,176.3 Z M 150.3,181.1 L 126.6,176.3 L 140.8,190.5 Z M 140.8,190.5 L 126.6,176.3 L 105.3,176.3 Z M 140.8,190.5 L 105.3,176.3 L 91.1,190.5 Z M 218.9,280.5 L 204.7,266.3 L 195.3,275.8 Z M 218.9,280.5 L 195.3,275.8 L 209.5,290.0 Z M 209.5,290.0 L 195.3,275.8 L 162.1,275.8 Z M 209.5,290.0 L 162.1,275.8 L 162.1,290.0 Z M 162.1,290.0 L 162.1,275.8 L 133.7,275.8 Z M 162.1,290.0 L 133.7,275.8 L 147.9,290.0 Z M 147.9,290.0 L 133.7,275.8 L 124.2,285.3 Z M 147.9,290.0 L 124.2,285.3 L 138.4,299.5 Z M 138.4,299.5 L 124.2,285.3 L 124.2,380.0 Z M 138.4,299.5 L 124.2,380.0 L 138.4,380.0 Z M 91.1,190.5 L 105.3,176.3 L 105.3,157.4 Z M 91.1,190.5 L 105.3,157.4 L 91.1,143.2 Z M 91.1,143.2 L 105.3,157.4 L 128.9,157.4 Z M 91.1,143.2 L 128.9,157.4 L 114.7,143.2 Z M 114.7,143.2 L 128.9,157.4 L 138.4,147.9 Z M 114.7,143.2 L 138.4,147.9 L 124.2,133.7 Z M 124.2,133.7 L 138.4,147.9 L 138.4,114.7 Z M 124.2,133.7 L 138.4,114.7 L 124.2,114.7 Z M 124.2,114.7 L 138.4,114.7 L 138.4,20.0 Z M 124.2,114.7 L 138.4,20.0 L 124.2,20.0 Z M 29.5,280.5 L 43.7,266.3 L 43.7,223.7 Z M 29.5,280.5 L 43.7,223.7 L 29.5,237.9 Z M 29.5,237.9 L 43.7,223.7 L 34.2,214.2 Z M 29.5,237.9 L 34.2,214.2 L 20.0,228.4 Z M 20.0,228.4 L 34.2,214.2 L 34.2,185.8 Z M 20.0,228.4 L 34.2,185.8 L 20.0,171.6 Z M 20.0,171.6 L 34.2,185.8 L 43.7,176.3 Z M 20.0,171.6 L 43.7,176.3 L 29.5,162.1 Z M 105.3,230.8 L 143.2,230.8 L 147.9,216.6 Z M 105.3,230.8 L 147.9,216.6 L 100.5,216.6 Z M 105.3,230.8 L 100.5,245.0 L 147.9,245.0 Z M 105.3,230.8 L 147.9,245.0 L 143.2,230.8 Z M 157.4,230.8 L 143.2,230.8 L 147.9,245.0 Z M 91.1,230.8 L 105.3,230.8 L 100.5,216.6 Z M 147.9,216.6 L 143.2,230.8 L 157.4,230.8 Z M 100.5,245.0 L 105.3,230.8 L 91.1,230.8 Z" fill="#2a2a4e" stroke="none"/>
  <path d="M 124.2,20.0 L 110.0,20.0 M 110.0,20.0 L 110.0,100.5 M 110.0,100.5 L 100.5,110.0 M 100.5,110.0 L 38.9,110.0 M 38.9,110.0 L 29.5,119.5 M 29.5,119.5 L 29.5,162.1 M 29.5,280.5 L 38.9,290.0 M 38.9,290.0 L 86.3,290.0 M 86.3,290.0 L 100.5,290.0 M 100.5,290.0 L 110.0,299.5 M 110.0,299.5 L 110.0,380.0 M 110.0,380.0 L 124.2,380.0 M 218.9,280.5 L 218.9,230.8 M 218.9,230.8 L 218.9,188.2 M 218.9,188.2 L 207.1,176.3 M 207.1,176.3 L 197.6,166.8 M 197.6,166.8 L 136.1,166.8 M 136.1,166.8 L 126.6,176.3 M 126.6,176.3 L 105.3,176.3 M 209.5,290.0 L 218.9,280.5 M 162.1,290.0 L 209.5,290.0 M 147.9,290.0 L 162.1,290.0 M 138.4,299.5 L 147.9,290.0 M 124.2,380.0 L 138.4,380.0 M 138.4,380.0 L 138.4,299.5 M 105.3,176.3 L 105.3,157.4 M 105.3,157.4 L 128.9,157.4 M 128.9,157.4 L 138.4,147.9 M 138.4,147.9 L 138.4,114.7 M 138.4,114.7 L 138.4,20.0 M 138.4,20.0 L 124.2,20.0 M 29.5,237.9 L 29.5,280.5 M 20.0,228.4 L 29.5,237.9 M 20.0,171.6 L 20.0,228.4 M 29.5,162.1 L 20.0,171.6" fill="none" stroke="white" stroke-width="2" stroke-linecap="round"/>
  <polygon points="125.59686070585165,94.82564608249892 133.59686070585167,102.82564608249892 125.59686070585165,110.82564608249892 117.59686070585165,102.82564608249892" fill="#4a9eff" stroke="white" stroke-width="1"/>
<polygon points="123.10696149414278,288.4231640426609 131.10696149414278,296.4231640426609 123.10696149414278,304.4231640426609 115.10696149414278,296.4231640426609" fill="#4a9eff" stroke="white" stroke-width="1"/>
</svg>