<svg xmlns="http://www.w3.org/2000/svg" viewBox="0 0 400 400">
  <rect width="400" height="400" fill="#1a1a2e"/>
  <path d="M 212.0,290.0 L 236.0,338.0 L 236.0,260.0 Z M 212.0,290.0 L 236.0,260.0 L 212.0,260.0 Z M 212.0,260.0 L 236.0,260.0 L 248.0,248.0 Z M 212.0,260.0 L 248.0,248.0 L 224.0,248.0 Z M 122.0,362.0 L 158.0,362.0 L 170.0,350.0 Z M 122.0,362.0 L 170.0,350.0 L 110.0,350.0 Z M 110.0,350.0 L 170.0,350.0 L 152.0,290.0 Z M 110.0,350.0 L 152.0,290.0 L 101.1,317.5 Z M 101.1,317.5 L 152.0,290.0 L 119.0,284.0 Z M 101.1,317.5 L 119.0,284.0 L 101.0,296.0 Z M 128.0,158.0 L 50.0,158.0 L 54.9,191.0 Z M 128.0,158.0 L 54.9,191.0 L 101.0,188.0 Z M 101.0,188.0 L 54.9,191.0 L 50.0,224.0 Z M 101.0,188.0 L 50.0,224.0 L 101.0,212.0 Z M 119.0,284.0 L 152.0,290.0 L 152.0,242.0 Z M 119.0,284.0 L 152.0,242.0 L 119.0,224.0 Z M 119.0,224.0 L 152.0,242.0 L 142.8,209.3 Z M 119.0,224.0 L 142.8,209.3 L 101.0,212.0 Z M 101.0,212.0 L 142.8,209.3 L 152.0,176.0 Z M 101.0,212.0 L 152.0,176.0 L 101.0,188.0 Z M 101.0,188.0 L 152.0,176.0 L 152.0,158.0 Z M 101.0,188.0 L 152.0,158.0 L 128.0,158.0 Z M 101.0,296.0 L 50.0,284.0 L 53.9,317.2 Z M 101.0,296.0 L 53.9,317.2 L 101.1,317.5 Z M 101.1,317.5 L 53.9,317.2 L 50.0,350.0 Z M 101.1,317.5 L 50.0,350.0 L 110.0,350.0 Z M 50.0,158.0 L 38.0,170.0 L 54.9,191.0 Z M 38.0,170.0 L 38.0,212.0 L 54.9,191.0 Z M 54.9,191.0 L 38.0,212.0 L 50.0,224.0 Z M 50.0,284.0 L 38.0,296.0 L 53.9,317.2 Z M 38.0,296.0 L 38.0,338.0 L 53.9,317.2 Z M 53.9,317.2 L 38.0,338.0 L 50.0,350.0 Z M 152.0,242.0 L 164.0,230.0 L 142.8,209.3 Z M 164.0,230.0 L 164.0,188.0 L 142.8,209.3 Z M 142.8,209.3 L 164.0,188.0 L 152.0,176.0 Z M 83.0,284.0 L 83.0,224.0 L 50.0,224.0 Z M 83.0,284.0 L 50.0,224.0 L 50.0,284.0 Z M 170.0,350.0 L 224.0,350.0 L 212.0,290.0 Z M 170.0,350.0 L 212.0,290.0 L 152.0,290.0 Z M 212.0,290.0 L 224.0,350.0 L 236.0,338.0 Z M 152.0,158.0 L 140.0,146.0 L 128.0,158.0 Z M 50.0,224.0 L 83.0,224.0 L 101.0,212.0 Z M 101.0,296.0 L 83.0,284.0 L 50.0,284.0 Z M 368.0,266.0 L 368.0,248.0 L 248.0,248.0 Z M 368.0,266.0 L 248.0,248.0 L 266.0,266.0 Z M 266.0,266.0 L 248.0,248.0 L 236.0,260.0 Z M 266.0,266.0 L 236.0,260.0 L 254.0,278.0 Z M 254.0,278.0 L 236.0,260.0 L 236.0,338.0 Z M 254.0,278.0 L 236.0,338.0 L 254.0,356.0 Z M 254.0,356.0 L 236.0,338.0 L 224.0,350.0 Z M 254.0,356.0 L 224.0,350.0 L 242.0,368.0 Z M 242.0,368.0 L 224.0,350.0 L 170.0,350.0 Z M 242.0,368.0 L 170.0,350.0 L 188.0,368.0 Z M 188.0,368.0 L 170.0,350.0 L 158.0,362.0 Z M 188.0,368.0 L 158.0,362.0 L 176.0,380.0 Z M 176.0,380.0 L 158.0,362.0 L 122.0,362.0 Z M 176.0,380.0 L 122.0,362.0 L 104.0,380.0 Z M 104.0,380.0 L 122.0,362.0 L 110.0,350.0 Z M 104.0,380.0 L 110.0,350.0 L 92.0,368.0 Z M 92.0,368.0 L 110.0,350.0 L 50.0,350.0 Z M 92.0,368.0 L 50.0,350.0 L 32.0,368.0 Z M 32.0,368.0 L 50.0,350.0 L 38.0,338.0 Z M 32.0,368.0 L 38.0,338.0 L 20.0,356.0 Z M 20.0,356.0 L 38.0,338.0 L 38.0,296.0 Z M 20.0,356.0 L 38.0,296.0 L 20.0,278.0 Z M 20.0,278.0 L 38.0,296.0 L 50.0,284.0 Z M 20.0,278.0 L 50.0,284.0 L 32.0,266.0 Z M 32.0,266.0 L 50.0,284.0 L 50.0,224.0 Z M 32.0,266.0 L 50.0,224.0 L 32.0,242.0 Z M 140.0,20.0 L 122.0,20.0 L 122.0,128.0 Z M 140.0,20.0 L 122.0,128.0 L 140.0,146.0 Z M 140.0,146.0 L 122.0,128.0 L 110.0,140.0 Z M 140.0,146.0 L 110.0,140.0 L 128.0,158.0 Z M 128.0,158.0 L 110.0,140.0 L 32.0,140.0 Z M 128.0,158.0 L 32.0,140.0 L 50.0,158.0 Z M 50.0,158.0 L 32.0,140.0 L 20.0,152.0 Z M 50.0,158.0 L 20.0,152.0 L 38.0,170.0 Z M 38.0,170.0 L 20.0,152.0 L 20.0,230.0 Z M 38.0,170.0 L 20.0,230.0 L 38.0,212.0 Z M 38.0,212.0 L 20.0,230.0 L 32.0,242.0 Z M 38.0,212.0 L 32.0,242.0 L 50.0,224.0 Z M 158.0,20.0 L 140.0,20.0 L 140.0,146.0 Z M 158.0,20.0 L 140.0,146.0 L 158.0,128.0 Z M 158.0,128.0 L 140.0,146.0 L 152.0,158.0 Z M 158.0,128.0 L 152.0,158.0 L 170.0,140.0 Z M 170.0,140.0 L 152.0,158.0 L 152.0,176.0 Z M 170.0,140.0 L 152.0,176.0 L 170.0,158.0 Z M 170.0,158.0 L 152.0,176.0 L 164.0,188.0 Z M 170.0,158.0 L 164.0,188.0 L 182.0,170.0 Z M 182.0,170.0 L 164.0,188.0 L 164.0,230.0 Z M 182.0,170.0 L 164.0,230.0 L 182.0,248.0 Z M 182.0,248.0 L 164.0,230.0 L 152.0,242.0 Z M 182.0,248.0 L 152.0,242.0 L 170.0,260.0 Z M 170.0,260.0 L 152.0,242.0 L 152.0,290.0 Z M 170.0,260.0 L 152.0,290.0 L 170.0,272.0 Z M 170.0,272.0 L 152.0,290.0 L 212.0,290.0 Z M 170.0,272.0 L 212.0,290.0 L 194.0,272.0 Z M 194.0,272.0 L 212.0,290.0 L 212.0,260.0 Z M 194.0,272.0 L 212.0,260.0 L 194.0,242.0 Z M 194.0,242.0 L 212.0,260.0 L 224.0,248.0 Z M 194.0,242.0 L 224.0,248.0 L 206.0,230.0 Z M 206.0,230.0 L 224.0,248.0 L 248.0,248.0 Z M 206.0,230.0 L 248.0,248.0 L 248.0,230.0 Z M 248.0,230.0 L 248.0,248.0 L 368.0,248.0 Z M 248.0,230.0 L 368.0,248.0 L 368.0,230.0 Z M 119.0,224.0 L 101.0,230.0 L 101.0,278.0 Z M 119.0,224.0 L 101.0,278.0 L 119.0,284.0 Z M 83.0,224.0 L 83.0,284.0 L 101.0,278.0 Z M 83.0,224.0 L 101.0,278.0 L 101.0,230.0 Z M 101.0,212.0 L 83.0,224.0 L 101.0,230.0 Z M 101.0,296.0 L 119.0,284.0 L 101.0,278.0 Z M 119.0,224.0 L 101.0,212.0 L 101.0,230.0 Z M 83.0,284.0 L 101.0,296.0 L 101.0,278.0 Z" fill="#2a2a4e" stroke="none"/>
  <path d="M 368.0,266.0 L 368.0,248.0 M 266.0,266.0 L 368.0,266.0 M 254.0,278.0 L 266.0,266.0 M 254.0,356.0 L 254.0,278.0 M 242.0,368.0 L 254.0,356.0 M 188.0,368.0 L 242.0,368.0 M 176.0,380.0 L 188.0,368.0 M 104.0,380.0 L 176.0,380.0 M 92.0,368.0 L 104.0,380.0 M 32.0,368.0 L 92.0,368.0 M 20.0,356.0 L 32.0,368.0 M 20.0,278.0 L 20.0,356.0 M 32.0,266.0 L 20.0,278.0 M 32.0,242.0 L 32.0,266.0 M 140.0,20.0 L 122.0,20.0 M 122.0,20.0 L 122.0,128.0 M 122.0,128.0 L 110.0,140.0 M 110.0,140.0 L 32.0,140.0 M 32.0,140.0 L 20.0,152.0 M 20.0,152.0 L 20.0,230.0 M 20.0,230.0 L 32.0,242.0 M 158.0,20.0 L 140.0,20.0 M 158.0,128.0 L 158.0,20.0 M 170.0,140.0 L 158.0,128.0 M 170.0,158.0 L 170.0,140.0 M 182.0,170.0 L 170.0,158.0 M 182.0,248.0 L 182.0,170.0 M 170.0,260.0 L 182.0,248.0 M 170.0,272.0 L 170.0,260.0 M 194.0,272.0 L 170.0,272.0 M 194.0,242.0 L 194.0,272.0 M 206.0,230.0 L 194.0,242.0 M 248.0,230.0 L 206.0,230.0 M 368.0,248.0 L 368.0,230.0 M 368.0,230.0 L 248.0,230.0" fill="none" stroke="white" stroke-width="2" stroke-linecap="round"/>
  <polygon points="267.8625709188346,239.680640531053 275.8625709188346,247.680640531053 267.8625709188346,255.680640531053 259.8625709188346,247.680640531053" fill="#4a9eff" stroke="white" stroke-width="1"/>
<polygon points="139.9259165478824,118.26482148001115 147.9259165478824,126.26482148001115 139.9259165478824,134.26482148001116 131.9259165478824,126.26482148001115" fill="#4a9eff" stroke="white" stroke-width="1"/>
</svg>