<svg xmlns="http://www.w3.org/2000/svg" viewBox="0 0 400 400">
  <rect width="400" height="400" fill="#1a1a2e"/>
  <path d="M 150.5,20.0 L 138.5,20.0 L 138.5,110.0 Z M 150.5,20.0 L 138.5,110.0 L 150.5,102.5 Z M 150.5,102.5 L 138.5,110.0 L 158.0,129.5 Z M 150.5,102.5 L 158.0,129.5 L 167.8,119.8 Z M 126.5,20.0 L 114.5,20.0 L 114.5,102.5 Z M 126.5,20.0 L 114.5,102.5 L 126.5,110.0 Z M 126.5,110.0 L 114.5,102.5 L 97.3,119.8 Z M 126.5,110.0 L 97.3,119.8 L 107.0,129.5 Z M 114.5,290.0 L 126.5,290.0 L 126.5,200.0 Z M 114.5,290.0 L 126.5,200.0 L 114.5,207.5 Z M 114.5,207.5 L 126.5,200.0 L 107.0,180.5 Z M 114.5,207.5 L 107.0,180.5 L 97.3,190.3 Z M 138.5,290.0 L 150.5,290.0 L 150.5,207.5 Z M 138.5,290.0 L 150.5,207.5 L 138.5,200.0 Z M 138.5,200.0 L 150.5,207.5 L 167.8,190.3 Z M 138.5,200.0 L 167.8,190.3 L 158.0,180.5 Z M 138.5,380.0 L 150.5,372.5 L 150.5,290.0 Z M 138.5,380.0 L 150.5,290.0 L 138.5,290.0 Z M 114.5,290.0 L 114.5,372.5 L 126.5,380.0 Z M 114.5,290.0 L 126.5,380.0 L 126.5,290.0 Z M 138.5,110.0 L 132.5,155.0 L 158.0,129.5 Z M 132.5,155.0 L 158.0,180.5 L 158.0,129.5 Z M 107.0,129.5 L 107.0,180.5 L 132.5,155.0 Z M 107.0,180.5 L 126.5,200.0 L 132.5,155.0 Z M 132.5,155.0 L 126.5,200.0 L 138.5,200.0 Z M 107.0,129.5 L 132.5,155.0 L 126.5,110.0 Z M 132.5,155.0 L 138.5,110.0 L 126.5,110.0 Z M 126.5,20.0 L 126.5,110.0 L 138.5,110.0 Z M 126.5,20.0 L 138.5,110.0 L 138.5,20.0 Z M 138.5,290.0 L 138.5,200.0 L 126.5,200.0 Z M 138.5,290.0 L 126.5,200.0 L 126.5,290.0 Z M 126.5,290.0 L 126.5,380.0 L 138.5,380.0 Z M 126.5,290.0 L 138.5,380.0 L 138.5,290.0 Z M 97.3,119.8 L 114.5,102.5 L 114.5,102.5 Z M 138.5,200.0 L 158.0,180.5 L 132.5,155.0 Z M 114.5,350.0 L 114.5,350.0 L 20.0,290.0 Z" fill="#2a2a4e" stroke="none"/>
  <path d="M 150.5,20.0 L 138.5,20.0 M 150.5,102.5 L 150.5,20.0 M 158.0,129.5 L 167.8,119.8 M 167.8,119.8 L 150.5,102.5 M 126.5,20.0 L 114.5,20.0 M 114.5,20.0 L 114.5,102.5 M 97.3,119.8 L 107.0,129.5 M 114.5,207.5 L 114.5,290.0 M 107.0,180.5 L 97.3,190.3 M 97.3,190.3 L 114.5,207.5 M 150.5,290.0 L 150.5,207.5 M 150.5,207.5 L 167.8,190.3 M 167.8,190.3 L 158.0,180.5 M 138.5,380.0 L 150.5,372.5 M 150.5,372.5 L 150.5,290.0 M 114.5,290.0 L 114.5,372.5 M 114.5,372.5 L 126.5,380.0 M 158.0,180.5 L 158.0,129.5 M 107.0,129.5 L 107.0,180.5 M 138.5,20.0 L 126.5,20.0 M 126.5,380.0 L 138.5,380.0 M 114.5,102.5 L 114.5,102.5 M 114.5,350.0 L 114.5,350.0" fill="none" stroke="white" stroke-width="2" stroke-linecap="round"/>
  <polygon points="132.13137585932216,207.2067286365797 140.13137585932216,215.2067286365797 132.13137585932216,223.2067286365797 124.13137585932216,215.2067286365797" fill="#4a9eff" stroke="white" stroke-width="1"/>
</svg>