<svg xmlns="http://www.w3.org/2000/svg" viewBox="0 0 400 400">
  <rect width="400" height="400" fill="#1a1a2e"/>
  <path d="M 96.0,244.0 L 86.0,260.0 L 136.0,260.0 Z M 96.0,244.0 L 136.0,260.0 L 146.0,244.0 Z M 146.0,244.0 L 136.0,260.0 L 146.0,270.0 Z M 146.0,244.0 L 146.0,270.0 L 162.0,260.0 Z M 162.0,260.0 L 146.0,270.0 L 146.0,380.0 Z M 162.0,260.0 L 146.0,380.0 L 162.0,380.0 Z M 86.0,260.0 L 96.0,244.0 L 86.0,234.0 Z M 86.0,260.0 L 86.0,234.0 L 70.0,244.0 Z M 70.0,244.0 L 86.0,234.0 L 86.0,218.0 Z M 70.0,244.0 L 86.0,218.0 L 70.0,226.0 Z M 70.0,226.0 L 86.0,218.0 L 78.0,210.0 Z M 70.0,226.0 L 78.0,210.0 L 62.0,218.0 Z M 62.0,218.0 L 78.0,210.0 L 78.0,190.0 Z M 62.0,218.0 L 78.0,190.0 L 62.0,182.0 Z M 62.0,182.0 L 78.0,190.0 L 86.0,182.0 Z M 62.0,182.0 L 86.0,182.0 L 70.0,174.0 Z M 70.0,174.0 L 86.0,182.0 L 86.0,166.0 Z M 70.0,174.0 L 86.0,166.0 L 70.0,156.0 Z M 70.0,156.0 L 86.0,166.0 L 96.0,156.0 Z M 70.0,156.0 L 96.0,156.0 L 86.0,140.0 Z M 244.0,156.0 L 254.0,140.0 L 204.0,140.0 Z M 244.0,156.0 L 204.0,140.0 L 194.0,156.0 Z M 194.0,156.0 L 204.0,140.0 L 194.0,130.0 Z M 194.0,156.0 L 194.0,130.0 L 178.0,140.0 Z M 178.0,140.0 L 194.0,130.0 L 194.0,20.0 Z M 178.0,140.0 L 194.0,20.0 L 178.0,20.0 Z M 254.0,140.0 L 244.0,156.0 L 254.0,166.0 Z M 254.0,140.0 L 254.0,166.0 L 270.0,156.0 Z M 270.0,156.0 L 254.0,166.0 L 254.0,182.0 Z M 270.0,156.0 L 254.0,182.0 L 270.0,174.0 Z M 270.0,174.0 L 254.0,182.0 L 262.0,190.0 Z M 270.0,174.0 L 262.0,190.0 L 278.0,182.0 Z M 278.0,182.0 L 262.0,190.0 L 262.0,210.0 Z M 278.0,182.0 L 262.0,210.0 L 278.0,218.0 Z M 278.0,218.0 L 262.0,210.0 L 254.0,218.0 Z M 278.0,218.0 L 254.0,218.0 L 270.0,226.0 Z M 270.0,226.0 L 254.0,218.0 L 254.0,234.0 Z M 270.0,226.0 L 254.0,234.0 L 270.0,244.0 Z M 270.0,244.0 L 254.0,234.0 L 244.0,244.0 Z M 270.0,244.0 L 244.0,244.0 L 254.0,260.0 Z M 178.0,380.0 L 194.0,380.0 L 194.0,270.0 Z M 178.0,380.0 L 194.0,270.0 L 178.0,260.0 Z M 178.0,260.0 L 194.0,270.0 L 204.0,260.0 Z M 178.0,260.0 L 204.0,260.0 L 194.0,244.0 Z M 162.0,20.0 L 146.0,20.0 L 146.0,130.0 Z M 162.0,20.0 L 146.0,130.0 L 162.0,140.0 Z M 162.0,140.0 L 146.0,130.0 L 136.0,140.0 Z M 162.0,140.0 L 136.0,140.0 L 146.0,156.0 Z M 86.0,140.0 L 96.0,156.0 L 146.0,156.0 Z M 86.0,140.0 L 146.0,156.0 L 136.0,140.0 Z M 254.0,260.0 L 244.0,244.0 L 194.0,244.0 Z M 254.0,260.0 L 194.0,244.0 L 204.0,260.0 Z M 170.0,200.0 L 213.7,209.7 L 213.7,190.3 Z M 170.0,200.0 L 126.3,190.3 L 126.3,209.7 Z M 199.7,223.7 L 170.0,200.0 L 140.3,223.7 Z M 140.3,176.3 L 170.0,200.0 L 199.7,176.3 Z M 126.3,190.3 L 170.0,200.0 L 140.3,176.3 Z M 140.3,223.7 L 170.0,200.0 L 126.3,209.7 Z M 213.7,209.7 L 170.0,200.0 L 199.7,223.7 Z M 199.7,176.3 L 170.0,200.0 L 213.7,190.3 Z M 162.0,380.0 L 178.0,380.0 L 178.0,260.0 Z M 162.0,380.0 L 178.0,260.0 L 162.0,260.0 Z M 162.0,260.0 L 178.0,260.0 L 194.0,244.0 Z M 162.0,260.0 L 194.0,244.0 L 146.0,244.0 Z M 146.0,244.0 L 194.0,244.0 L 199.7,223.7 Z M 146.0,244.0 L 199.7,223.7 L 140.3,223.7 Z M 140.3,176.3 L 146.0,156.0 L 114.0,187.0 Z M 140.3,176.3 L 114.0,187.0 L 126.3,190.3 Z M 126.3,190.3 L 114.0,187.0 L 114.0,213.0 Z M 126.3,190.3 L 114.0,213.0 L 126.3,209.7 Z M 126.3,209.7 L 114.0,213.0 L 146.0,244.0 Z M 126.3,209.7 L 146.0,244.0 L 140.3,223.7 Z M 178.0,20.0 L 162.0,20.0 L 162.0,140.0 Z M 178.0,20.0 L 162.0,140.0 L 178.0,140.0 Z M 178.0,140.0 L 162.0,140.0 L 146.0,156.0 Z M 178.0,140.0 L 146.0,156.0 L 194.0,156.0 Z M 194.0,156.0 L 146.0,156.0 L 140.3,176.3 Z M 194.0,156.0 L 140.3,176.3 L 199.7,176.3 Z M 199.7,223.7 L 194.0,244.0 L 226.0,213.0 Z M 199.7,223.7 L 226.0,213.0 L 213.7,209.7 Z M 213.7,209.7 L 226.0,213.0 L 226.0,187.0 Z M 213.7,209.7 L 226.0,187.0 L 213.7,190.3 Z M 213.7,190.3 L 226.0,187.0 L 194.0,156.0 Z M 213.7,190.3 L 194.0,156.0 L 199.7,176.3 Z M 254.0,166.0 L 244.0,156.0 L 194.0,156.0 Z M 254.0,166.0 L 194.0,156.0 L 254.0,182.0 Z M 254.0,182.0 L 194.0,156.0 L 226.0,187.0 Z M 254.0,182.0 L 226.0,187.0 L 262.0,190.0 Z M 262.0,190.0 L 226.0,187.0 L 226.0,213.0 Z M 262.0,190.0 L 226.0,213.0 L 262.0,210.0 Z M 262.0,210.0 L 226.0,213.0 L 194.0,244.0 Z M 262.0,210.0 L 194.0,244.0 L 254.0,218.0 Z M 254.0,218.0 L 194.0,244.0 L 244.0,244.0 Z M 254.0,218.0 L 244.0,244.0 L 254.0,234.0 Z M 86.0,234.0 L 96.0,244.0 L 146.0,244.0 Z M 86.0,234.0 L 146.0,244.0 L 86.0,218.0 Z M 86.0,218.0 L 146.0,244.0 L 114.0,213.0 Z M 86.0,218.0 L 114.0,213.0 L 78.0,210.0 Z M 78.0,210.0 L 114.0,213.0 L 114.0,187.0 Z M 78.0,210.0 L 114.0,187.0 L 78.0,190.0 Z M 78.0,190.0 L 114.0,187.0 L 146.0,156.0 Z M 78.0,190.0 L 146.0,156.0 L 86.0,182.0 Z M 86.0,182.0 L 146.0,156.0 L 96.0,156.0 Z M 86.0,182.0 L 96.0,156.0 L 86.0,166.0 Z M 146.0,270.0 L 136.0,260.0 L 86.0,260.0 Z M 146.0,270.0 L 86.0,260.0 L 146.0,380.0 Z M 146.0,380.0 L 86.0,260.0 L 70.0,244.0 Z M 146.0,380.0 L 70.0,244.0 L 20.0,380.0 Z M 20.0,380.0 L 70.0,244.0 L 70.0,226.0 Z M 20.0,380.0 L 70.0,226.0 L 62.0,218.0 Z M 20.0,380.0 L 62.0,218.0 L 62.0,182.0 Z M 20.0,380.0 L 62.0,182.0 L 20.0,20.0 Z M 20.0,20.0 L 62.0,182.0 L 70.0,174.0 Z M 20.0,20.0 L 70.0,174.0 L 70.0,156.0 Z M 20.0,20.0 L 70.0,156.0 L 86.0,140.0 Z M 20.0,20.0 L 86.0,140.0 L 146.0,20.0 Z M 146.0,20.0 L 86.0,140.0 L 136.0,140.0 Z M 146.0,20.0 L 136.0,140.0 L 146.0,130.0 Z M 204.0,260.0 L 194.0,270.0 L 194.0,380.0 Z M 204.0,260.0 L 194.0,380.0 L 254.0,260.0 Z M 254.0,260.0 L 194.0,380.0 L 320.0,380.0 Z M 254.0,260.0 L 320.0,380.0 L 270.0,244.0 Z M 270.0,244.0 L 320.0,380.0 L 278.0,218.0 Z M 270.0,244.0 L 278.0,218.0 L 270.0,226.0 Z M 194.0,130.0 L 204.0,140.0 L 254.0,140.0 Z M 194.0,130.0 L 254.0,140.0 L 194.0,20.0 Z M 194.0,20.0 L 254.0,140.0 L 270.0,156.0 Z M 194.0,20.0 L 270.0,156.0 L 320.0,20.0 Z M 320.0,20.0 L 270.0,156.0 L 270.0,174.0 Z M 320.0,20.0 L 270.0,174.0 L 278.0,182.0 Z M 278.0,182.0 L 278.0,218.0 L 320.0,380.0 Z M 278.0,182.0 L 320.0,380.0 L 320.0,20.0 Z" fill="#2a2a4e" stroke="none"/>
  <path d="M 146.0,380.0 L 162.0,380.0 M 194.0,20.0 L 178.0,20.0 M 178.0,380.0 L 194.0,380.0 M 162.0,20.0 L 146.0,20.0 M 162.0,380.0 L 178.0,380.0 M 178.0,20.0 L 162.0,20.0 M 20.0,380.0 L 146.0,380.0 M 20.0,20.0 L 20.0,380.0 M 146.0,20.0 L 20.0,20.0 M 194.0,380.0 L 320.0,380.0 M 320.0,20.0 L 194.0,20.0 M 320.0,380.0 L 320.0,20.0" fill="none" stroke="white" stroke-width="2" stroke-linecap="round"/>
  <polygon points="170.13635880236455,112.63414695210126 178.13635880236455,120.63414695210126 170.13635880236455,128.63414695210128 162.13635880236455,120.63414695210126" fill="#4a9eff" stroke="white" stroke-width="1"/>
<polygon points="169.78939320940967,272.0466291137404 177.78939320940967,280.0466291137404 169.78939320940967,288.0466291137404 161.78939320940967,280.0466291137404" fill="#4a9eff" stroke="white" stroke-width="1"/>
</svg>