<svg xmlns="http://www.w3.org/2000/svg" viewBox="0 0 400 400">
  <rect width="400" height="400" fill="#1a1a2e"/>
  <path d="M 156.6,361.4 L 200.0,361.4 L 212.4,349.0 Z M 156.6,361.4 L 212.4,349.0 L 178.3,336.6 Z M 178.3,336.6 L 212.4,349.0 L 231.0,349.0 Z M 178.3,336.6 L 231.0,349.0 L 200.0,305.5 Z M 243.4,268.3 L 243.4,243.4 L 175.2,259.0 Z M 243.4,268.3 L 175.2,259.0 L 200.0,305.5 Z M 200.0,305.5 L 175.2,259.0 L 144.1,255.9 Z M 200.0,305.5 L 144.1,255.9 L 144.1,314.8 Z M 38.6,169.0 L 38.6,212.4 L 51.0,224.8 Z M 38.6,169.0 L 51.0,224.8 L 55.1,190.5 Z M 55.1,190.5 L 51.0,224.8 L 94.5,224.8 Z M 55.1,190.5 L 94.5,224.8 L 94.6,190.1 Z M 94.6,190.1 L 94.5,224.8 L 144.1,255.9 Z M 94.6,190.1 L 144.1,255.9 L 144.1,196.9 Z M 144.1,196.9 L 144.1,255.9 L 175.2,259.0 Z M 144.1,196.9 L 175.2,259.0 L 175.2,227.9 Z M 175.2,227.9 L 175.2,259.0 L 243.4,243.4 Z M 175.2,227.9 L 243.4,243.4 L 243.4,227.9 Z M 51.0,224.8 L 51.0,286.9 L 69.7,283.8 Z M 51.0,224.8 L 69.7,283.8 L 94.5,224.8 Z M 94.5,224.8 L 69.7,283.8 L 113.1,283.8 Z M 94.5,224.8 L 113.1,283.8 L 144.1,255.9 Z M 94.6,190.1 L 144.1,196.9 L 131.7,156.6 Z M 144.1,196.9 L 144.1,144.1 L 131.7,156.6 Z M 69.7,283.8 L 56.1,321.0 L 69.7,355.2 Z M 56.1,321.0 L 51.0,355.2 L 69.7,355.2 Z M 38.6,299.3 L 56.1,321.0 L 51.0,286.9 Z M 56.1,321.0 L 69.7,283.8 L 51.0,286.9 Z M 243.4,268.3 L 200.0,305.5 L 243.4,336.6 Z M 200.0,305.5 L 231.0,349.0 L 243.4,336.6 Z M 38.6,299.3 L 38.6,342.8 L 51.0,355.2 Z M 38.6,299.3 L 51.0,355.2 L 56.1,321.0 Z M 55.1,190.5 L 94.6,190.1 L 131.7,156.6 Z M 55.1,190.5 L 131.7,156.6 L 51.0,156.6 Z M 200.0,305.5 L 144.1,314.8 L 144.1,349.0 Z M 200.0,305.5 L 144.1,349.0 L 178.3,336.6 Z M 178.3,336.6 L 144.1,349.0 L 156.6,361.4 Z M 38.6,169.0 L 55.1,190.5 L 51.0,156.6 Z M 144.1,255.9 L 113.1,283.8 L 144.1,314.8 Z M 243.4,243.4 L 243.4,268.3 L 255.9,255.9 Z M 144.1,20.0 L 125.5,20.0 L 125.5,125.5 Z M 144.1,20.0 L 125.5,125.5 L 144.1,144.1 Z M 144.1,144.1 L 125.5,125.5 L 113.1,137.9 Z M 144.1,144.1 L 113.1,137.9 L 131.7,156.6 Z M 131.7,156.6 L 113.1,137.9 L 32.4,137.9 Z M 131.7,156.6 L 32.4,137.9 L 51.0,156.6 Z M 162.8,20.0 L 144.1,20.0 L 144.1,144.1 Z M 162.8,20.0 L 144.1,144.1 L 162.8,144.1 Z M 162.8,144.1 L 144.1,144.1 L 144.1,196.9 Z M 162.8,144.1 L 144.1,196.9 L 162.8,178.3 Z M 162.8,178.3 L 144.1,196.9 L 175.2,227.9 Z M 162.8,178.3 L 175.2,227.9 L 193.8,209.3 Z M 193.8,209.3 L 175.2,227.9 L 243.4,227.9 Z M 193.8,209.3 L 243.4,227.9 L 224.8,209.3 Z M 224.8,209.3 L 243.4,227.9 L 243.4,147.2 Z M 224.8,209.3 L 243.4,147.2 L 224.8,147.2 Z M 125.5,367.6 L 144.1,349.0 L 144.1,314.8 Z M 125.5,367.6 L 144.1,314.8 L 125.5,333.4 Z M 125.5,333.4 L 144.1,314.8 L 113.1,283.8 Z M 125.5,333.4 L 113.1,283.8 L 94.5,302.4 Z M 94.5,302.4 L 113.1,283.8 L 69.7,283.8 Z M 94.5,302.4 L 69.7,283.8 L 88.3,302.4 Z M 88.3,302.4 L 69.7,283.8 L 69.7,355.2 Z M 88.3,302.4 L 69.7,355.2 L 88.3,373.8 Z M 88.3,373.8 L 69.7,355.2 L 51.0,355.2 Z M 88.3,373.8 L 51.0,355.2 L 32.4,373.8 Z M 144.1,349.0 L 125.5,367.6 L 137.9,380.0 Z M 144.1,349.0 L 137.9,380.0 L 156.6,361.4 Z M 156.6,361.4 L 137.9,380.0 L 218.6,380.0 Z M 156.6,361.4 L 218.6,380.0 L 200.0,361.4 Z M 200.0,361.4 L 218.6,380.0 L 231.0,367.6 Z M 200.0,361.4 L 231.0,367.6 L 212.4,349.0 Z M 212.4,349.0 L 231.0,367.6 L 249.7,367.6 Z M 212.4,349.0 L 249.7,367.6 L 231.0,349.0 Z M 231.0,349.0 L 249.7,367.6 L 262.1,355.2 Z M 231.0,349.0 L 262.1,355.2 L 243.4,336.6 Z M 243.4,336.6 L 262.1,355.2 L 262.1,286.9 Z M 243.4,336.6 L 262.1,286.9 L 243.4,268.3 Z M 262.1,147.2 L 243.4,147.2 L 243.4,227.9 Z M 262.1,147.2 L 243.4,227.9 L 262.1,209.3 Z M 262.1,209.3 L 243.4,227.9 L 243.4,243.4 Z M 262.1,209.3 L 243.4,243.4 L 262.1,224.8 Z M 262.1,224.8 L 243.4,243.4 L 255.9,255.9 Z M 262.1,224.8 L 255.9,255.9 L 274.5,237.2 Z M 274.5,237.2 L 255.9,255.9 L 380.0,255.9 Z M 274.5,237.2 L 380.0,255.9 L 380.0,237.2 Z M 51.0,156.6 L 32.4,137.9 L 20.0,150.3 Z M 51.0,156.6 L 20.0,150.3 L 38.6,169.0 Z M 38.6,169.0 L 20.0,150.3 L 20.0,231.0 Z M 38.6,169.0 L 20.0,231.0 L 38.6,212.4 Z M 38.6,212.4 L 20.0,231.0 L 32.4,243.4 Z M 38.6,212.4 L 32.4,243.4 L 51.0,224.8 Z M 51.0,224.8 L 32.4,243.4 L 32.4,268.3 Z M 51.0,224.8 L 32.4,268.3 L 51.0,286.9 Z M 51.0,286.9 L 32.4,268.3 L 20.0,280.7 Z M 51.0,286.9 L 20.0,280.7 L 38.6,299.3 Z M 38.6,299.3 L 20.0,280.7 L 20.0,361.4 Z M 38.6,299.3 L 20.0,361.4 L 38.6,342.8 Z M 38.6,342.8 L 20.0,361.4 L 32.4,373.8 Z M 38.6,342.8 L 32.4,373.8 L 51.0,355.2 Z M 380.0,274.5 L 380.0,255.9 L 255.9,255.9 Z M 380.0,274.5 L 255.9,255.9 L 274.5,274.5 Z M 274.5,274.5 L 255.9,255.9 L 243.4,268.3 Z M 274.5,274.5 L 243.4,268.3 L 262.1,286.9 Z M 224.8,147.2 L 243.4,147.2 L 234.1,131.7 Z M 243.4,147.2 L 252.8,131.7 L 234.1,131.7 Z M 252.8,131.7 L 243.4,147.2 L 262.1,147.2 Z" fill="#2a2a4e" stroke="none"/>
  <path d="M 144.1,20.0 L 125.5,20.0 M 125.5,20.0 L 125.5,125.5 M 125.5,125.5 L 113.1,137.9 M 113.1,137.9 L 32.4,137.9 M 162.8,20.0 L 144.1,20.0 M 162.8,144.1 L 162.8,20.0 M 162.8,178.3 L 162.8,144.1 M 193.8,209.3 L 162.8,178.3 M 224.8,209.3 L 193.8,209.3 M 224.8,147.2 L 224.8,209.3 M 125.5,333.4 L 125.5,367.6 M 94.5,302.4 L 125.5,333.4 M 88.3,302.4 L 94.5,302.4 M 88.3,373.8 L 88.3,302.4 M 32.4,373.8 L 88.3,373.8 M 125.5,367.6 L 137.9,380.0 M 137.9,380.0 L 218.6,380.0 M 218.6,380.0 L 231.0,367.6 M 231.0,367.6 L 249.7,367.6 M 249.7,367.6 L 262.1,355.2 M 262.1,355.2 L 262.1,286.9 M 262.1,209.3 L 262.1,147.2 M 262.1,224.8 L 262.1,209.3 M 274.5,237.2 L 262.1,224.8 M 380.0,255.9 L 380.0,237.2 M 380.0,237.2 L 274.5,237.2 M 32.4,137.9 L 20.0,150.3 M 20.0,150.3 L 20.0,231.0 M 20.0,231.0 L 32.4,243.4 M 32.4,243.4 L 32.4,268.3 M 32.4,268.3 L 20.0,280.7 M 20.0,280.7 L 20.0,361.4 M 20.0,361.4 L 32.4,373.8 M 380.0,274.5 L 380.0,255.9 M 274.5,274.5 L 380.0,274.5 M 262.1,286.9 L 274.5,274.5 M 234.1,131.7 L 224.8,147.2 M 252.8,131.7 L 234.1,131.7 M 262.1,147.2 L 252.8,131.7" fill="none" stroke="white" stroke-width="2" stroke-linecap="round"/>
  <polygon points="143.86446339927113,117.21073245569251 151.86446339927113,125.21073245569251 143.86446339927113,133.2107324556925 135.86446339927113,125.21073245569251" fill="#4a9eff" stroke="white" stroke-width="1"/>
<polygon points="277.62969003227204,247.49388594836563 285.62969003227204,255.49388594836563 277.62969003227204,263.49388594836563 269.62969003227204,255.49388594836563" fill="#4a9eff" stroke="white" stroke-width="1"/>
</svg>