<svg xmlns="http://www.w3.org/2000/svg" viewBox="0 0 400 400">
  <rect width="400" height="400" fill="#1a1a2e"/>
  <path d="M 53.2,275.8 L 114.7,275.8 L 83.9,252.1 Z M 53.2,275.8 L 83.9,252.1 L 43.7,266.3 Z M 43.7,266.3 L 83.9,252.1 L 83.9,230.8 Z M 43.7,266.3 L 83.9,230.8 L 43.7,230.8 Z M 43.7,230.8 L 83.9,230.8 L 100.5,204.7 Z M 43.7,230.8 L 100.5,204.7 L 50.8,204.7 Z M 50.8,204.7 L 100.5,204.7 L 100.5,178.7 Z M 50.8,204.7 L 100.5,178.7 L 43.7,178.7 Z M 124.2,155.0 L 100.5,178.7 L 100.5,204.7 Z M 124.2,155.0 L 100.5,204.7 L 124.2,200.0 Z M 124.2,200.0 L 100.5,204.7 L 83.9,230.8 Z M 124.2,200.0 L 83.9,230.8 L 124.2,245.0 Z M 124.2,245.0 L 83.9,230.8 L 83.9,252.1 Z M 124.2,245.0 L 83.9,252.1 L 114.7,275.8 Z M 195.3,124.2 L 133.7,124.2 L 162.0,149.8 Z M 195.3,124.2 L 162.0,149.8 L 192.2,150.1 Z M 192.2,150.1 L 162.0,149.8 L 162.1,176.3 Z M 192.2,150.1 L 162.1,176.3 L 195.3,176.3 Z M 195.3,176.3 L 162.1,176.3 L 181.1,221.3 Z M 195.3,176.3 L 181.1,221.3 L 195.3,223.7 Z M 147.9,221.3 L 181.1,221.3 L 162.1,176.3 Z M 147.9,221.3 L 162.1,176.3 L 124.2,200.0 Z M 124.2,200.0 L 162.1,176.3 L 162.0,149.8 Z M 124.2,200.0 L 162.0,149.8 L 124.2,155.0 Z M 162.0,149.8 L 133.7,124.2 L 124.2,155.0 Z M 133.7,124.2 L 124.2,114.7 L 124.2,155.0 Z M 43.7,178.7 L 34.2,188.2 L 50.8,204.7 Z M 34.2,188.2 L 34.2,221.3 L 50.8,204.7 Z M 50.8,204.7 L 34.2,221.3 L 43.7,230.8 Z M 181.1,221.3 L 181.1,275.8 L 191.4,249.7 Z M 181.1,275.8 L 195.3,275.8 L 191.4,249.7 Z M 191.4,249.7 L 195.3,275.8 L 204.7,266.3 Z M 195.3,176.3 L 204.7,166.8 L 192.2,150.1 Z M 204.7,166.8 L 204.7,133.7 L 192.2,150.1 Z M 192.2,150.1 L 204.7,133.7 L 195.3,124.2 Z M 204.7,266.3 L 204.7,233.2 L 191.4,249.7 Z M 204.7,233.2 L 195.3,223.7 L 191.4,249.7 Z M 191.4,249.7 L 195.3,223.7 L 181.1,221.3 Z M 124.2,245.0 L 114.7,275.8 L 124.2,285.3 Z M 124.2,200.0 L 124.2,245.0 L 147.9,221.3 Z M 138.4,20.0 L 124.2,20.0 L 124.2,114.7 Z M 138.4,20.0 L 124.2,114.7 L 138.4,100.5 Z M 138.4,100.5 L 124.2,114.7 L 133.7,124.2 Z M 138.4,100.5 L 133.7,124.2 L 147.9,110.0 Z M 147.9,110.0 L 133.7,124.2 L 195.3,124.2 Z M 147.9,110.0 L 195.3,124.2 L 209.5,110.0 Z M 124.2,20.0 L 110.0,20.0 L 110.0,114.7 Z M 124.2,20.0 L 110.0,114.7 L 124.2,114.7 Z M 124.2,114.7 L 110.0,114.7 L 110.0,140.8 Z M 124.2,114.7 L 110.0,140.8 L 124.2,155.0 Z M 124.2,155.0 L 110.0,140.8 L 86.3,164.5 Z M 124.2,155.0 L 86.3,164.5 L 100.5,178.7 Z M 100.5,178.7 L 86.3,164.5 L 57.9,164.5 Z M 100.5,178.7 L 57.9,164.5 L 43.7,178.7 Z M 43.7,178.7 L 57.9,164.5 L 57.9,117.1 Z M 43.7,178.7 L 57.9,117.1 L 43.7,117.1 Z M 110.0,380.0 L 124.2,380.0 L 124.2,285.3 Z M 110.0,380.0 L 124.2,285.3 L 110.0,299.5 Z M 110.0,299.5 L 124.2,285.3 L 114.7,275.8 Z M 110.0,299.5 L 114.7,275.8 L 100.5,290.0 Z M 100.5,290.0 L 114.7,275.8 L 53.2,275.8 Z M 100.5,290.0 L 53.2,275.8 L 38.9,290.0 Z M 124.2,380.0 L 138.4,380.0 L 138.4,285.3 Z M 124.2,380.0 L 138.4,285.3 L 124.2,285.3 Z M 124.2,285.3 L 138.4,285.3 L 138.4,259.2 Z M 124.2,285.3 L 138.4,259.2 L 124.2,245.0 Z M 124.2,245.0 L 138.4,259.2 L 162.1,235.5 Z M 124.2,245.0 L 162.1,235.5 L 147.9,221.3 Z M 147.9,221.3 L 162.1,235.5 L 166.8,235.5 Z M 147.9,221.3 L 166.8,235.5 L 181.1,221.3 Z M 181.1,221.3 L 166.8,235.5 L 166.8,290.0 Z M 181.1,221.3 L 166.8,290.0 L 181.1,275.8 Z M 181.1,275.8 L 166.8,290.0 L 209.5,290.0 Z M 181.1,275.8 L 209.5,290.0 L 195.3,275.8 Z M 38.9,290.0 L 53.2,275.8 L 43.7,266.3 Z M 38.9,290.0 L 43.7,266.3 L 29.5,280.5 Z M 29.5,280.5 L 43.7,266.3 L 43.7,230.8 Z M 29.5,280.5 L 43.7,230.8 L 29.5,245.0 Z M 29.5,245.0 L 43.7,230.8 L 34.2,221.3 Z M 29.5,245.0 L 34.2,221.3 L 20.0,235.5 Z M 20.0,235.5 L 34.2,221.3 L 34.2,188.2 Z M 20.0,235.5 L 34.2,188.2 L 20.0,173.9 Z M 20.0,173.9 L 34.2,188.2 L 43.7,178.7 Z M 20.0,173.9 L 43.7,178.7 L 29.5,164.5 Z M 29.5,164.5 L 43.7,178.7 L 43.7,117.1 Z M 29.5,164.5 L 43.7,117.1 L 29.5,117.1 Z M 209.5,110.0 L 195.3,124.2 L 204.7,133.7 Z M 209.5,110.0 L 204.7,133.7 L 218.9,119.5 Z M 218.9,119.5 L 204.7,133.7 L 204.7,166.8 Z M 218.9,119.5 L 204.7,166.8 L 218.9,181.1 Z M 218.9,181.1 L 204.7,166.8 L 195.3,176.3 Z M 218.9,181.1 L 195.3,176.3 L 209.5,190.5 Z M 209.5,190.5 L 195.3,176.3 L 195.3,223.7 Z M 209.5,190.5 L 195.3,223.7 L 209.5,209.5 Z M 209.5,209.5 L 195.3,223.7 L 204.7,233.2 Z M 209.5,209.5 L 204.7,233.2 L 218.9,218.9 Z M 218.9,218.9 L 204.7,233.2 L 204.7,266.3 Z M 218.9,218.9 L 204.7,266.3 L 218.9,280.5 Z M 218.9,280.5 L 204.7,266.3 L 195.3,275.8 Z M 218.9,280.5 L 195.3,275.8 L 209.5,290.0 Z M 57.9,117.1 L 50.8,105.3 L 43.7,117.1 Z M 50.8,105.3 L 36.6,105.3 L 43.7,117.1 Z M 43.7,117.1 L 36.6,105.3 L 29.5,117.1 Z" fill="#2a2a4e" stroke="none"/>
  <path d="M 138.4,20.0 L 124.2,20.0 M 138.4,100.5 L 138.4,20.0 M 147.9,110.0 L 138.4,100.5 M 209.5,110.0 L 147.9,110.0 M 124.2,20.0 L 110.0,20.0 M 110.0,20.0 L 110.0,114.7 M 110.0,114.7 L 110.0,140.8 M 110.0,140.8 L 86.3,164.5 M 86.3,164.5 L 57.9,164.5 M 57.9,164.5 L 57.9,117.1 M 110.0,380.0 L 124.2,380.0 M 110.0,299.5 L 110.0,380.0 M 100.5,290.0 L 110.0,299.5 M 38.9,290.0 L 100.5,290.0 M 124.2,380.0 L 138.4,380.0 M 138.4,380.0 L 138.4,285.3 M 138.4,285.3 L 138.4,259.2 M 138.4,259.2 L 162.1,235.5 M 162.1,235.5 L 166.8,235.5 M 166.8,235.5 L 166.8,290.0 M 166.8,290.0 L 209.5,290.0 M 29.5,280.5 L 38.9,290.0 M 29.5,245.0 L 29.5,280.5 M 20.0,235.5 L 29.5,245.0 M 20.0,173.9 L 20.0,235.5 M 29.5,164.5 L 20.0,173.9 M 29.5,117.1 L 29.5,164.5 M 218.9,119.5 L 209.5,110.0 M 218.9,181.1 L 218.9,119.5 M 209.5,190.5 L 218.9,181.1 M 209.5,209.5 L 209.5,190.5 M 218.9,218.9 L 209.5,209.5 M 218.9,280.5 L 218.9,218.9 M 209.5,290.0 L 218.9,280.5 M 57.9,117.1 L 50.8,105.3 M 50.8,105.3 L 36.6,105.3 M 36.6,105.3 L 29.5,117.1" fill="none" stroke="white" stroke-width="2" stroke-linecap="round"/>
  <polygon points="123.65817075443852,95.79757963837305 131.65817075443852,103.79757963837305 123.65817075443852,111.79757963837305 115.65817075443852,103.79757963837305" fill="#4a9eff" stroke="white" stroke-width="1"/>
<polygon points="124.29802144199279,285.9277081509124 132.29802144199277,293.9277081509124 124.29802144199279,301.9277081509124 116.29802144199279,293.9277081509124" fill="#4a9eff" stroke="white" stroke-width="1"/>
</svg>