<svg xmlns="http://www.w3.org/2000/svg" viewBox="0 0 400 400">
  <rect width="400" height="400" fill="#1a1a2e"/>
  <path d="M 158.2,116.4 L 145.4,103.6 L 126.1,103.6 Z M 158.2,116.4 L 126.1,103.6 L 138.9,129.3 Z M 138.9,129.3 L 126.1,103.6 L 113.2,103.6 Z M 138.9,129.3 L 113.2,103.6 L 113.2,129.3 Z M 113.2,129.3 L 113.2,103.6 L 100.4,103.6 Z M 113.2,129.3 L 100.4,103.6 L 87.5,129.3 Z M 87.5,129.3 L 100.4,103.6 L 81.1,103.6 Z M 87.5,129.3 L 81.1,103.6 L 68.2,116.4 Z M 39.3,283.6 L 52.1,296.4 L 71.4,264.3 Z M 39.3,283.6 L 71.4,264.3 L 39.3,264.3 Z M 39.3,264.3 L 71.4,264.3 L 84.3,251.4 Z M 39.3,264.3 L 84.3,251.4 L 84.3,219.3 Z M 84.3,219.3 L 84.3,251.4 L 113.2,251.4 Z M 84.3,219.3 L 113.2,251.4 L 113.2,219.3 Z M 113.2,219.3 L 113.2,251.4 L 142.1,251.4 Z M 113.2,219.3 L 142.1,251.4 L 142.1,219.3 Z M 142.1,219.3 L 142.1,251.4 L 155.0,264.3 Z M 142.1,219.3 L 155.0,264.3 L 187.1,264.3 Z M 187.1,264.3 L 155.0,264.3 L 174.3,296.4 Z M 187.1,264.3 L 174.3,296.4 L 187.1,283.6 Z M 155.0,264.3 L 142.1,251.4 L 113.2,251.4 Z M 155.0,264.3 L 113.2,251.4 L 126.1,296.4 Z M 126.1,296.4 L 113.2,251.4 L 100.4,296.4 Z M 126.1,296.4 L 100.4,296.4 L 113.2,309.3 Z M 158.2,148.6 L 138.9,129.3 L 113.2,148.6 Z M 138.9,129.3 L 113.2,129.3 L 113.2,148.6 Z M 113.2,148.6 L 113.2,129.3 L 87.5,129.3 Z M 68.2,116.4 L 68.2,148.6 L 87.5,129.3 Z M 68.2,148.6 L 113.2,148.6 L 87.5,129.3 Z M 126.1,103.6 L 113.2,90.7 L 113.2,103.6 Z M 113.2,90.7 L 100.4,103.6 L 113.2,103.6 Z M 113.2,251.4 L 84.3,251.4 L 71.4,264.3 Z M 113.2,251.4 L 71.4,264.3 L 100.4,296.4 Z M 158.2,148.6 L 158.2,116.4 L 138.9,129.3 Z M 71.4,264.3 L 52.1,296.4 L 100.4,296.4 Z M 126.1,296.4 L 174.3,296.4 L 155.0,264.3 Z M 113.2,219.3 L 132.5,200.0 L 132.5,183.9 Z M 113.2,219.3 L 132.5,183.9 L 113.2,183.9 Z M 113.2,183.9 L 132.5,183.9 L 132.5,167.9 Z M 113.2,183.9 L 132.5,167.9 L 113.2,148.6 Z M 113.2,148.6 L 132.5,167.9 L 177.5,167.9 Z M 113.2,148.6 L 177.5,167.9 L 158.2,148.6 Z M 158.2,148.6 L 177.5,167.9 L 177.5,97.1 Z M 158.2,148.6 L 177.5,97.1 L 158.2,116.4 Z M 158.2,116.4 L 177.5,97.1 L 164.6,84.3 Z M 158.2,116.4 L 164.6,84.3 L 145.4,103.6 Z M 145.4,103.6 L 164.6,84.3 L 145.4,84.3 Z M 145.4,103.6 L 145.4,84.3 L 126.1,103.6 Z M 126.1,103.6 L 145.4,84.3 L 132.5,71.4 Z M 126.1,103.6 L 132.5,71.4 L 113.2,90.7 Z M 113.2,90.7 L 93.9,71.4 L 81.1,84.3 Z M 113.2,90.7 L 81.1,84.3 L 100.4,103.6 Z M 100.4,103.6 L 81.1,84.3 L 61.8,84.3 Z M 100.4,103.6 L 61.8,84.3 L 81.1,103.6 Z M 81.1,103.6 L 61.8,84.3 L 48.9,97.1 Z M 81.1,103.6 L 48.9,97.1 L 68.2,116.4 Z M 68.2,116.4 L 48.9,97.1 L 48.9,167.9 Z M 68.2,116.4 L 48.9,167.9 L 68.2,148.6 Z M 68.2,148.6 L 48.9,167.9 L 93.9,167.9 Z M 68.2,148.6 L 93.9,167.9 L 113.2,148.6 Z M 113.2,148.6 L 93.9,167.9 L 93.9,183.9 Z M 113.2,148.6 L 93.9,183.9 L 113.2,183.9 Z M 113.2,183.9 L 93.9,183.9 L 93.9,200.0 Z M 113.2,183.9 L 93.9,200.0 L 113.2,219.3 Z M 113.2,219.3 L 93.9,200.0 L 65.0,200.0 Z M 113.2,219.3 L 65.0,200.0 L 84.3,219.3 Z M 84.3,219.3 L 65.0,200.0 L 20.0,245.0 Z M 84.3,219.3 L 20.0,245.0 L 39.3,264.3 Z M 39.3,264.3 L 20.0,245.0 L 20.0,302.9 Z M 39.3,264.3 L 20.0,302.9 L 39.3,283.6 Z M 39.3,283.6 L 20.0,302.9 L 32.9,315.7 Z M 39.3,283.6 L 32.9,315.7 L 52.1,296.4 Z M 52.1,296.4 L 32.9,315.7 L 81.1,315.7 Z M 52.1,296.4 L 81.1,315.7 L 100.4,296.4 Z M 100.4,296.4 L 81.1,315.7 L 93.9,328.6 Z M 100.4,296.4 L 93.9,328.6 L 113.2,309.3 Z M 132.5,200.0 L 113.2,219.3 L 142.1,219.3 Z M 132.5,200.0 L 142.1,219.3 L 161.4,200.0 Z M 161.4,200.0 L 142.1,219.3 L 187.1,264.3 Z M 161.4,200.0 L 187.1,264.3 L 206.4,245.0 Z M 206.4,245.0 L 187.1,264.3 L 187.1,283.6 Z M 206.4,245.0 L 187.1,283.6 L 206.4,302.9 Z M 206.4,302.9 L 187.1,283.6 L 174.3,296.4 Z M 206.4,302.9 L 174.3,296.4 L 193.6,315.7 Z M 193.6,315.7 L 174.3,296.4 L 126.1,296.4 Z M 193.6,315.7 L 126.1,296.4 L 145.4,315.7 Z M 145.4,315.7 L 126.1,296.4 L 113.2,309.3 Z M 145.4,315.7 L 113.2,309.3 L 132.5,328.6 Z M 132.5,380.0 L 132.5,328.6 L 113.2,309.3 Z M 132.5,380.0 L 113.2,309.3 L 113.2,380.0 Z M 93.9,380.0 L 113.2,380.0 L 113.2,309.3 Z M 93.9,380.0 L 113.2,309.3 L 93.9,328.6 Z M 93.9,20.0 L 93.9,71.4 L 113.2,90.7 Z M 93.9,20.0 L 113.2,90.7 L 113.2,20.0 Z M 132.5,20.0 L 113.2,20.0 L 113.2,90.7 Z M 132.5,20.0 L 113.2,90.7 L 132.5,71.4 Z" fill="#2a2a4e" stroke="none"/>
  <path d="M 132.5,200.0 L 132.5,183.9 M 132.5,183.9 L 132.5,167.9 M 132.5,167.9 L 177.5,167.9 M 177.5,167.9 L 177.5,97.1 M 177.5,97.1 L 164.6,84.3 M 164.6,84.3 L 145.4,84.3 M 145.4,84.3 L 132.5,71.4 M 93.9,71.4 L 81.1,84.3 M 81.1,84.3 L 61.8,84.3 M 61.8,84.3 L 48.9,97.1 M 48.9,97.1 L 48.9,167.9 M 48.9,167.9 L 93.9,167.9 M 93.9,167.9 L 93.9,183.9 M 93.9,183.9 L 93.9,200.0 M 93.9,200.0 L 65.0,200.0 M 65.0,200.0 L 20.0,245.0 M 20.0,245.0 L 20.0,302.9 M 20.0,302.9 L 32.9,315.7 M 32.9,315.7 L 81.1,315.7 M 81.1,315.7 L 93.9,328.6 M 161.4,200.0 L 132.5,200.0 M 206.4,245.0 L 161.4,200.0 M 206.4,302.9 L 206.4,245.0 M 193.6,315.7 L 206.4,302.9 M 145.4,315.7 L 193.6,315.7 M 132.5,328.6 L 145.4,315.7 M 132.5,380.0 L 132.5,328.6 M 113.2,380.0 L 132.5,380.0 M 93.9,380.0 L 113.2,380.0 M 93.9,328.6 L 93.9,380.0 M 93.9,20.0 L 93.9,71.4 M 113.2,20.0 L 93.9,20.0 M 132.5,20.0 L 113.2,20.0 M 132.5,71.4 L 132.5,20.0" fill="none" stroke="white" stroke-width="2" stroke-linecap="round"/>
  <polygon points="113.45651347310321,63.38548023796281 121.45651347310321,71.38548023796281 113.45651347310321,79.38548023796281 105.45651347310321,71.38548023796281" fill="#4a9eff" stroke="white" stroke-width="1"/>
<polygon points="115.07755792396021,320.5487307456417 123.07755792396021,328.5487307456417 115.07755792396021,336.5487307456417 107.07755792396021,328.5487307456417" fill="#4a9eff" stroke="white" stroke-width="1"/>
</svg>