<svg xmlns="http://www.w3.org/2000/svg" viewBox="0 0 400 400">
  <rect width="400" height="400" fill="#1a1a2e"/>
  <path d="M 166.8,171.6 L 128.9,190.5 L 190.5,190.5 Z M 166.8,171.6 L 190.5,190.5 L 190.5,171.6 Z M 190.5,171.6 L 190.5,190.5 L 200.0,200.0 Z M 190.5,171.6 L 200.0,200.0 L 200.0,181.1 Z M 271.1,124.2 L 271.1,105.3 L 247.4,83.9 Z M 271.1,124.2 L 247.4,83.9 L 256.8,124.2 Z M 256.8,124.2 L 247.4,83.9 L 228.4,100.5 Z M 256.8,124.2 L 228.4,100.5 L 230.5,116.9 Z M 218.9,43.7 L 228.4,67.4 L 247.4,83.9 Z M 218.9,43.7 L 247.4,83.9 L 245.0,47.6 Z M 245.0,47.6 L 247.4,83.9 L 271.1,105.3 Z M 245.0,47.6 L 271.1,105.3 L 271.1,43.7 Z M 119.5,166.8 L 119.5,181.1 L 166.8,171.6 Z M 119.5,166.8 L 166.8,171.6 L 128.9,157.4 Z M 128.9,157.4 L 166.8,171.6 L 166.8,124.2 Z M 128.9,157.4 L 166.8,124.2 L 128.9,124.2 Z M 128.9,124.2 L 166.8,124.2 L 147.9,98.2 Z M 128.9,124.2 L 147.9,98.2 L 128.9,105.3 Z M 128.9,105.3 L 147.9,98.2 L 147.9,67.4 Z M 128.9,105.3 L 147.9,67.4 L 128.9,72.1 Z M 271.1,43.7 L 261.6,34.2 L 245.0,47.6 Z M 261.6,34.2 L 228.4,34.2 L 245.0,47.6 Z M 245.0,47.6 L 228.4,34.2 L 218.9,43.7 Z M 162.1,34.2 L 145.5,48.4 L 171.6,43.7 Z M 145.5,48.4 L 147.9,67.4 L 171.6,43.7 Z M 214.2,133.7 L 230.5,116.9 L 204.7,124.2 Z M 230.5,116.9 L 228.4,100.5 L 204.7,124.2 Z M 256.8,124.2 L 230.5,116.9 L 247.4,133.7 Z M 230.5,116.9 L 214.2,133.7 L 247.4,133.7 Z M 119.5,43.7 L 145.5,48.4 L 128.9,34.2 Z M 145.5,48.4 L 162.1,34.2 L 128.9,34.2 Z M 119.5,62.6 L 147.9,67.4 L 145.5,48.4 Z M 119.5,62.6 L 145.5,48.4 L 119.5,43.7 Z M 128.9,105.3 L 119.5,114.7 L 128.9,124.2 Z M 166.8,171.6 L 119.5,181.1 L 128.9,190.5 Z M 128.9,72.1 L 147.9,67.4 L 119.5,62.6 Z M 271.1,124.2 L 280.5,114.7 L 271.1,105.3 Z M 247.4,83.9 L 228.4,67.4 L 228.4,100.5 Z M 228.4,67.4 L 218.9,43.7 L 204.7,43.7 Z M 20.0,114.7 L 20.0,128.9 L 105.3,128.9 Z M 20.0,114.7 L 105.3,128.9 L 119.5,114.7 Z M 119.5,114.7 L 105.3,128.9 L 114.7,138.4 Z M 119.5,114.7 L 114.7,138.4 L 128.9,124.2 Z M 128.9,124.2 L 114.7,138.4 L 114.7,143.2 Z M 128.9,124.2 L 114.7,143.2 L 128.9,157.4 Z M 128.9,157.4 L 114.7,143.2 L 105.3,152.6 Z M 128.9,157.4 L 105.3,152.6 L 119.5,166.8 Z M 20.0,100.5 L 20.0,114.7 L 119.5,114.7 Z M 20.0,100.5 L 119.5,114.7 L 105.3,100.5 Z M 105.3,100.5 L 119.5,114.7 L 128.9,105.3 Z M 105.3,100.5 L 128.9,105.3 L 114.7,91.1 Z M 114.7,91.1 L 128.9,105.3 L 128.9,72.1 Z M 114.7,91.1 L 128.9,72.1 L 114.7,86.3 Z M 114.7,86.3 L 128.9,72.1 L 119.5,62.6 Z M 114.7,86.3 L 119.5,62.6 L 105.3,76.8 Z M 105.3,76.8 L 119.5,62.6 L 119.5,43.7 Z M 105.3,76.8 L 119.5,43.7 L 105.3,29.5 Z M 185.8,294.7 L 200.0,294.7 L 200.0,200.0 Z M 185.8,294.7 L 200.0,200.0 L 185.8,214.2 Z M 185.8,214.2 L 200.0,200.0 L 190.5,190.5 Z M 185.8,214.2 L 190.5,190.5 L 176.3,204.7 Z M 176.3,204.7 L 190.5,190.5 L 128.9,190.5 Z M 176.3,204.7 L 128.9,190.5 L 114.7,204.7 Z M 114.7,204.7 L 128.9,190.5 L 119.5,181.1 Z M 114.7,204.7 L 119.5,181.1 L 105.3,195.3 Z M 105.3,195.3 L 119.5,181.1 L 119.5,166.8 Z M 105.3,195.3 L 119.5,166.8 L 105.3,152.6 Z M 380.0,114.7 L 380.0,100.5 L 294.7,100.5 Z M 380.0,114.7 L 294.7,100.5 L 280.5,114.7 Z M 280.5,114.7 L 294.7,100.5 L 285.3,91.1 Z M 280.5,114.7 L 285.3,91.1 L 271.1,105.3 Z M 271.1,105.3 L 285.3,91.1 L 285.3,29.5 Z M 271.1,105.3 L 285.3,29.5 L 271.1,43.7 Z M 271.1,43.7 L 285.3,29.5 L 275.8,20.0 Z M 271.1,43.7 L 275.8,20.0 L 261.6,34.2 Z M 261.6,34.2 L 275.8,20.0 L 214.2,20.0 Z M 261.6,34.2 L 214.2,20.0 L 228.4,34.2 Z M 228.4,34.2 L 214.2,20.0 L 204.7,29.5 Z M 228.4,34.2 L 204.7,29.5 L 218.9,43.7 Z M 380.0,128.9 L 380.0,114.7 L 280.5,114.7 Z M 380.0,128.9 L 280.5,114.7 L 294.7,128.9 Z M 294.7,128.9 L 280.5,114.7 L 271.1,124.2 Z M 294.7,128.9 L 271.1,124.2 L 285.3,138.4 Z M 285.3,138.4 L 271.1,124.2 L 256.8,124.2 Z M 285.3,138.4 L 256.8,124.2 L 271.1,138.4 Z M 271.1,138.4 L 256.8,124.2 L 247.4,133.7 Z M 271.1,138.4 L 247.4,133.7 L 261.6,147.9 Z M 261.6,147.9 L 247.4,133.7 L 214.2,133.7 Z M 261.6,147.9 L 214.2,133.7 L 200.0,147.9 Z M 200.0,147.9 L 214.2,133.7 L 204.7,124.2 Z M 200.0,147.9 L 204.7,124.2 L 190.5,138.4 Z M 190.5,138.4 L 204.7,124.2 L 166.8,124.2 Z M 190.5,138.4 L 166.8,124.2 L 181.1,138.4 Z M 105.3,29.5 L 119.5,43.7 L 128.9,34.2 Z M 105.3,29.5 L 128.9,34.2 L 114.7,20.0 Z M 114.7,20.0 L 128.9,34.2 L 162.1,34.2 Z M 114.7,20.0 L 162.1,34.2 L 176.3,20.0 Z M 176.3,20.0 L 162.1,34.2 L 171.6,43.7 Z M 176.3,20.0 L 171.6,43.7 L 185.8,29.5 Z M 185.8,29.5 L 171.6,43.7 L 204.7,43.7 Z M 185.8,29.5 L 204.7,43.7 L 204.7,29.5 Z M 181.1,138.4 L 166.8,124.2 L 166.8,171.6 Z M 181.1,138.4 L 166.8,171.6 L 181.1,157.4 Z M 181.1,157.4 L 166.8,171.6 L 190.5,171.6 Z M 181.1,157.4 L 190.5,171.6 L 204.7,157.4 Z M 204.7,157.4 L 190.5,171.6 L 200.0,181.1 Z M 204.7,157.4 L 200.0,181.1 L 214.2,166.8 Z M 214.2,166.8 L 200.0,181.1 L 200.0,200.0 Z M 214.2,166.8 L 200.0,200.0 L 214.2,200.0 Z M 214.2,200.0 L 200.0,200.0 L 200.0,294.7 Z M 214.2,200.0 L 200.0,294.7 L 214.2,294.7 Z M 200.0,57.9 L 204.7,43.7 L 171.6,43.7 Z M 200.0,57.9 L 171.6,43.7 L 176.3,57.9 Z M 176.3,57.9 L 171.6,43.7 L 147.9,67.4 Z M 176.3,57.9 L 147.9,67.4 L 162.1,72.1 Z M 162.1,72.1 L 147.9,67.4 L 147.9,98.2 Z M 162.1,72.1 L 147.9,98.2 L 162.1,95.8 Z M 162.1,95.8 L 147.9,98.2 L 166.8,124.2 Z M 162.1,95.8 L 166.8,124.2 L 171.6,110.0 Z M 171.6,110.0 L 166.8,124.2 L 204.7,124.2 Z M 171.6,110.0 L 204.7,124.2 L 200.0,110.0 Z M 200.0,110.0 L 204.7,124.2 L 228.4,100.5 Z M 200.0,110.0 L 228.4,100.5 L 214.2,95.8 Z M 214.2,95.8 L 228.4,100.5 L 228.4,67.4 Z M 214.2,95.8 L 228.4,67.4 L 214.2,72.1 Z M 214.2,72.1 L 228.4,67.4 L 204.7,43.7 Z M 214.2,72.1 L 204.7,43.7 L 200.0,57.9 Z M 204.7,43.7 L 218.9,43.7 L 204.7,29.5 Z" fill="#2a2a4e" stroke="none"/>
  <path d="M 20.0,114.7 L 20.0,128.9 M 20.0,128.9 L 105.3,128.9 M 105.3,128.9 L 114.7,138.4 M 114.7,138.4 L 114.7,143.2 M 114.7,143.2 L 105.3,152.6 M 20.0,100.5 L 20.0,114.7 M 105.3,100.5 L 20.0,100.5 M 114.7,91.1 L 105.3,100.5 M 114.7,86.3 L 114.7,91.1 M 105.3,76.8 L 114.7,86.3 M 105.3,29.5 L 105.3,76.8 M 185.8,294.7 L 200.0,294.7 M 185.8,214.2 L 185.8,294.7 M 176.3,204.7 L 185.8,214.2 M 114.7,204.7 L 176.3,204.7 M 105.3,195.3 L 114.7,204.7 M 105.3,152.6 L 105.3,195.3 M 380.0,114.7 L 380.0,100.5 M 380.0,100.5 L 294.7,100.5 M 294.7,100.5 L 285.3,91.1 M 285.3,91.1 L 285.3,29.5 M 285.3,29.5 L 275.8,20.0 M 275.8,20.0 L 214.2,20.0 M 214.2,20.0 L 204.7,29.5 M 380.0,128.9 L 380.0,114.7 M 294.7,128.9 L 380.0,128.9 M 285.3,138.4 L 294.7,128.9 M 271.1,138.4 L 285.3,138.4 M 261.6,147.9 L 271.1,138.4 M 200.0,147.9 L 261.6,147.9 M 190.5,138.4 L 200.0,147.9 M 181.1,138.4 L 190.5,138.4 M 114.7,20.0 L 105.3,29.5 M 176.3,20.0 L 114.7,20.0 M 185.8,29.5 L 176.3,20.0 M 204.7,29.5 L 185.8,29.5 M 181.1,157.4 L 181.1,138.4 M 204.7,157.4 L 181.1,157.4 M 214.2,166.8 L 204.7,157.4 M 214.2,200.0 L 214.2,166.8 M 200.0,294.7 L 214.2,294.7 M 214.2,294.7 L 214.2,200.0 M 176.3,57.9 L 200.0,57.9 M 162.1,72.1 L 176.3,57.9 M 162.1,95.8 L 162.1,72.1 M 171.6,110.0 L 162.1,95.8 M 200.0,110.0 L 171.6,110.0 M 214.2,95.8 L 200.0,110.0 M 214.2,72.1 L 214.2,95.8 M 200.0,57.9 L 214.2,72.1" fill="none" stroke="white" stroke-width="2" stroke-linecap="round"/>
  <polygon points="292.51199521246315,105.63451279741038 300.51199521246315,113.63451279741038 292.51199521246315,121.63451279741038 284.51199521246315,113.63451279741038" fill="#4a9eff" stroke="white" stroke-width="1"/>
<polygon points="105.71785123261174,106.05146000447438 113.71785123261174,114.05146000447438 105.71785123261174,122.05146000447438 97.71785123261174,114.05146000447438" fill="#4a9eff" stroke="white" stroke-width="1"/>
<polygon points="199.1665682675688,206.93423534203276 207.1665682675688,214.93423534203276 199.1665682675688,222.93423534203276 191.1665682675688,214.93423534203276" fill="#4a9eff" stroke="white" stroke-width="1"/>
</svg>