<svg xmlns="http://www.w3.org/2000/svg" viewBox="0 0 400 400">
  <rect width="400" height="400" fill="#1a1a2e"/>
  <path d="M 174.0,204.0 L 174.0,196.0 L 166.0,196.0 Z M 174.0,204.0 L 166.0,196.0 L 166.0,204.0 Z M 178.0,260.0 L 194.0,260.0 L 199.0,241.0 Z M 178.0,260.0 L 199.0,241.0 L 183.0,232.0 Z M 183.0,232.0 L 199.0,241.0 L 215.0,225.0 Z M 183.0,232.0 L 215.0,225.0 L 206.0,209.0 Z M 206.0,209.0 L 215.0,225.0 L 234.0,220.0 Z M 206.0,209.0 L 234.0,220.0 L 234.0,204.0 Z M 320.0,196.0 L 320.0,180.0 L 250.0,180.0 Z M 320.0,196.0 L 250.0,180.0 L 238.0,196.0 Z M 238.0,196.0 L 250.0,180.0 L 240.0,170.0 Z M 238.0,196.0 L 240.0,170.0 L 224.0,182.0 Z M 224.0,182.0 L 240.0,170.0 L 240.0,136.0 Z M 224.0,182.0 L 240.0,136.0 L 224.0,146.0 Z M 224.0,146.0 L 240.0,136.0 L 224.0,120.0 Z M 224.0,146.0 L 224.0,120.0 L 214.0,136.0 Z M 214.0,136.0 L 224.0,120.0 L 206.0,120.0 Z M 214.0,136.0 L 206.0,120.0 L 198.0,136.0 Z M 198.0,136.0 L 206.0,120.0 L 188.0,108.0 Z M 198.0,136.0 L 188.0,108.0 L 180.0,124.0 Z M 180.0,124.0 L 188.0,108.0 L 152.0,108.0 Z M 180.0,124.0 L 152.0,108.0 L 160.0,124.0 Z M 160.0,124.0 L 152.0,108.0 L 134.0,120.0 Z M 160.0,124.0 L 134.0,120.0 L 142.0,136.0 Z M 142.0,136.0 L 134.0,120.0 L 116.0,120.0 Z M 142.0,136.0 L 116.0,120.0 L 126.0,136.0 Z M 146.0,260.0 L 162.0,260.0 L 157.0,232.0 Z M 146.0,260.0 L 157.0,232.0 L 141.0,241.0 Z M 141.0,241.0 L 157.0,232.0 L 134.0,209.0 Z M 141.0,241.0 L 134.0,209.0 L 125.0,225.0 Z M 125.0,225.0 L 134.0,209.0 L 106.0,204.0 Z M 125.0,225.0 L 106.0,204.0 L 106.0,220.0 Z M 20.0,180.0 L 20.0,196.0 L 102.0,196.0 Z M 20.0,180.0 L 102.0,196.0 L 90.0,180.0 Z M 90.0,180.0 L 102.0,196.0 L 116.0,182.0 Z M 90.0,180.0 L 116.0,182.0 L 100.0,170.0 Z M 100.0,170.0 L 116.0,182.0 L 116.0,146.0 Z M 100.0,170.0 L 116.0,146.0 L 100.0,136.0 Z M 100.0,136.0 L 116.0,146.0 L 126.0,136.0 Z M 100.0,136.0 L 126.0,136.0 L 116.0,120.0 Z M 146.0,380.0 L 162.0,380.0 L 162.0,260.0 Z M 146.0,380.0 L 162.0,260.0 L 146.0,260.0 Z M 194.0,260.0 L 178.0,260.0 L 178.0,380.0 Z M 194.0,260.0 L 178.0,380.0 L 194.0,380.0 Z M 320.0,220.0 L 320.0,204.0 L 234.0,204.0 Z M 320.0,220.0 L 234.0,204.0 L 234.0,220.0 Z M 106.0,204.0 L 20.0,204.0 L 20.0,220.0 Z M 106.0,204.0 L 20.0,220.0 L 106.0,220.0 Z M 170.0,200.0 L 185.7,206.4 L 185.7,193.6 Z M 170.0,200.0 L 154.3,193.6 L 154.3,206.4 Z M 176.4,215.7 L 170.0,200.0 L 163.6,215.7 Z M 163.6,184.3 L 170.0,200.0 L 176.4,184.3 Z M 154.3,193.6 L 170.0,200.0 L 163.6,184.3 Z M 163.6,215.7 L 170.0,200.0 L 154.3,206.4 Z M 185.7,206.4 L 170.0,200.0 L 176.4,215.7 Z M 176.4,184.3 L 170.0,200.0 L 185.7,193.6 Z M 320.0,204.0 L 320.0,196.0 L 238.0,196.0 Z M 320.0,204.0 L 238.0,196.0 L 234.0,204.0 Z M 234.0,204.0 L 238.0,196.0 L 224.0,182.0 Z M 234.0,204.0 L 224.0,182.0 L 206.0,209.0 Z M 206.0,209.0 L 224.0,182.0 L 185.7,193.6 Z M 206.0,209.0 L 185.7,193.6 L 185.7,206.4 Z M 162.0,380.0 L 178.0,380.0 L 178.0,260.0 Z M 162.0,380.0 L 178.0,260.0 L 162.0,260.0 Z M 162.0,260.0 L 178.0,260.0 L 183.0,232.0 Z M 162.0,260.0 L 183.0,232.0 L 157.0,232.0 Z M 157.0,232.0 L 183.0,232.0 L 176.4,215.7 Z M 157.0,232.0 L 176.4,215.7 L 163.6,215.7 Z M 157.0,232.0 L 163.6,215.7 L 154.3,206.4 Z M 157.0,232.0 L 154.3,206.4 L 134.0,209.0 Z M 134.0,209.0 L 154.3,206.4 L 154.3,193.6 Z M 134.0,209.0 L 154.3,193.6 L 116.0,182.0 Z M 116.0,182.0 L 154.3,193.6 L 163.6,184.3 Z M 116.0,182.0 L 163.6,184.3 L 157.0,168.0 Z M 157.0,168.0 L 163.6,184.3 L 176.4,184.3 Z M 157.0,168.0 L 176.4,184.3 L 183.0,168.0 Z M 183.0,168.0 L 176.4,184.3 L 185.7,193.6 Z M 183.0,168.0 L 185.7,193.6 L 224.0,182.0 Z M 180.0,124.0 L 160.0,124.0 L 142.0,136.0 Z M 180.0,124.0 L 142.0,136.0 L 198.0,136.0 Z M 198.0,136.0 L 142.0,136.0 L 157.0,168.0 Z M 198.0,136.0 L 157.0,168.0 L 183.0,168.0 Z M 134.0,209.0 L 116.0,182.0 L 102.0,196.0 Z M 134.0,209.0 L 102.0,196.0 L 106.0,204.0 Z M 106.0,204.0 L 102.0,196.0 L 20.0,196.0 Z M 106.0,204.0 L 20.0,196.0 L 20.0,204.0 Z M 320.0,380.0 L 320.0,220.0 L 234.0,220.0 Z M 320.0,380.0 L 234.0,220.0 L 194.0,260.0 Z M 194.0,260.0 L 234.0,220.0 L 215.0,225.0 Z M 194.0,260.0 L 215.0,225.0 L 199.0,241.0 Z M 206.0,120.0 L 224.0,120.0 L 320.0,20.0 Z M 206.0,120.0 L 320.0,20.0 L 188.0,108.0 Z M 188.0,108.0 L 320.0,20.0 L 20.0,20.0 Z M 188.0,108.0 L 20.0,20.0 L 152.0,108.0 Z M 152.0,108.0 L 20.0,20.0 L 116.0,120.0 Z M 152.0,108.0 L 116.0,120.0 L 134.0,120.0 Z M 20.0,220.0 L 20.0,380.0 L 146.0,260.0 Z M 20.0,220.0 L 146.0,260.0 L 106.0,220.0 Z M 106.0,220.0 L 146.0,260.0 L 141.0,241.0 Z M 106.0,220.0 L 141.0,241.0 L 125.0,225.0 Z M 240.0,170.0 L 320.0,20.0 L 240.0,136.0 Z M 320.0,20.0 L 224.0,120.0 L 240.0,136.0 Z M 100.0,170.0 L 100.0,136.0 L 20.0,20.0 Z M 100.0,136.0 L 116.0,120.0 L 20.0,20.0 Z M 206.0,209.0 L 185.7,206.4 L 176.4,215.7 Z M 206.0,209.0 L 176.4,215.7 L 183.0,232.0 Z M 224.0,146.0 L 214.0,136.0 L 183.0,168.0 Z M 224.0,146.0 L 183.0,168.0 L 224.0,182.0 Z M 157.0,168.0 L 126.0,136.0 L 116.0,146.0 Z M 157.0,168.0 L 116.0,146.0 L 116.0,182.0 Z M 320.0,180.0 L 320.0,20.0 L 240.0,170.0 Z M 320.0,180.0 L 240.0,170.0 L 250.0,180.0 Z M 100.0,170.0 L 20.0,20.0 L 20.0,180.0 Z M 100.0,170.0 L 20.0,180.0 L 90.0,180.0 Z M 183.0,168.0 L 214.0,136.0 L 198.0,136.0 Z M 157.0,168.0 L 142.0,136.0 L 126.0,136.0 Z M 194.0,260.0 L 194.0,380.0 L 320.0,380.0 Z M 146.0,260.0 L 20.0,380.0 L 146.0,380.0 Z" fill="#2a2a4e" stroke="none"/>
  <path d="M 174.0,204.0 L 174.0,196.0 M 174.0,196.0 L 166.0,196.0 M 166.0,196.0 L 166.0,204.0 M 166.0,204.0 L 174.0,204.0 M 320.0,196.0 L 320.0,180.0 M 20.0,180.0 L 20.0,196.0 M 146.0,380.0 L 162.0,380.0 M 178.0,380.0 L 194.0,380.0 M 320.0,220.0 L 320.0,204.0 M 20.0,204.0 L 20.0,220.0 M 320.0,204.0 L 320.0,196.0 M 162.0,380.0 L 178.0,380.0 M 20.0,196.0 L 20.0,204.0 M 320.0,380.0 L 320.0,220.0 M 320.0,20.0 L 20.0,20.0 M 20.0,220.0 L 20.0,380.0 M 320.0,180.0 L 320.0,20.0 M 20.0,20.0 L 20.0,180.0 M 194.0,380.0 L 320.0,380.0 M 20.0,380.0 L 146.0,380.0" fill="none" stroke="white" stroke-width="2" stroke-linecap="round"/>
  <polygon points="249.42874338448104,192.02605951369836 257.42874338448104,200.02605951369836 249.42874338448104,208.02605951369836 241.42874338448104,200.02605951369836" fill="#4a9eff" stroke="white" stroke-width="1"/>
<polygon points="90.0584931680835,191.67835602142875 98.0584931680835,199.67835602142875 90.0584931680835,207.67835602142875 82.0584931680835,199.67835602142875" fill="#4a9eff" stroke="white" stroke-width="1"/>
<polygon points="170.2061559766397,271.6614875771306 178.2061559766397,279.6614875771306 170.2061559766397,287.6614875771306 162.2061559766397,279.6614875771306" fill="#4a9eff" stroke="white" stroke-width="1"/>
</svg>