<svg xmlns="http://www.w3.org/2000/svg" viewBox="0 0 400 400">
  <rect width="400" height="400" fill="#1a1a2e"/>
  <path d="M 153.7,207.7 L 143.4,207.7 L 143.4,218.0 Z M 153.7,207.7 L 143.4,218.0 L 153.7,218.0 Z M 380.0,243.7 L 380.0,223.1 L 212.9,223.1 Z M 380.0,243.7 L 212.9,223.1 L 225.7,243.7 Z M 225.7,243.7 L 212.9,223.1 L 192.3,243.7 Z M 225.7,243.7 L 192.3,243.7 L 212.9,256.6 Z M 212.9,256.6 L 192.3,243.7 L 192.3,282.3 Z M 212.9,256.6 L 192.3,282.3 L 212.9,295.1 Z M 212.9,295.1 L 192.3,282.3 L 179.4,295.1 Z M 212.9,295.1 L 179.4,295.1 L 192.3,315.7 Z M 225.7,202.6 L 225.7,182.0 L 201.3,175.6 Z M 225.7,202.6 L 201.3,175.6 L 189.7,196.1 Z M 189.7,196.1 L 201.3,175.6 L 180.7,155.0 Z M 189.7,196.1 L 180.7,155.0 L 160.1,166.6 Z M 160.1,166.6 L 180.7,155.0 L 174.3,130.6 Z M 160.1,166.6 L 174.3,130.6 L 153.7,130.6 Z M 143.4,125.4 L 122.9,110.0 L 110.0,122.9 Z M 143.4,125.4 L 110.0,122.9 L 125.4,143.4 Z M 125.4,143.4 L 110.0,122.9 L 92.0,122.9 Z M 125.4,143.4 L 92.0,122.9 L 104.9,143.4 Z M 104.9,143.4 L 92.0,122.9 L 71.4,143.4 Z M 104.9,143.4 L 71.4,143.4 L 92.0,156.3 Z M 92.0,156.3 L 71.4,143.4 L 71.4,259.1 Z M 92.0,156.3 L 71.4,259.1 L 92.0,268.1 Z M 92.0,268.1 L 71.4,259.1 L 66.3,264.3 Z M 92.0,268.1 L 66.3,264.3 L 66.3,290.0 Z M 40.6,125.4 L 20.0,125.4 L 20.0,269.4 Z M 40.6,125.4 L 20.0,269.4 L 40.6,269.4 Z M 40.6,269.4 L 20.0,269.4 L 20.0,295.1 Z M 40.6,269.4 L 20.0,295.1 L 40.6,282.3 Z M 40.6,282.3 L 20.0,295.1 L 40.6,315.7 Z M 40.6,282.3 L 40.6,315.7 L 53.4,295.1 Z M 53.4,295.1 L 40.6,315.7 L 92.0,315.7 Z M 53.4,295.1 L 92.0,315.7 L 102.3,295.1 Z M 102.3,295.1 L 92.0,315.7 L 107.4,331.1 Z M 102.3,295.1 L 107.4,331.1 L 117.7,310.6 Z M 117.7,310.6 L 107.4,331.1 L 151.1,331.1 Z M 117.7,310.6 L 151.1,331.1 L 140.9,310.6 Z M 140.9,310.6 L 151.1,331.1 L 166.6,315.7 Z M 140.9,310.6 L 166.6,315.7 L 156.3,295.1 Z M 156.3,295.1 L 166.6,315.7 L 192.3,315.7 Z M 156.3,295.1 L 192.3,315.7 L 179.4,295.1 Z M 61.1,125.4 L 40.6,125.4 L 40.6,269.4 Z M 61.1,125.4 L 40.6,269.4 L 61.1,259.1 Z M 61.1,259.1 L 40.6,269.4 L 66.3,290.0 Z M 61.1,259.1 L 66.3,290.0 L 66.3,264.3 Z M 380.0,202.6 L 380.0,182.0 L 225.7,182.0 Z M 380.0,202.6 L 225.7,182.0 L 225.7,202.6 Z M 153.7,130.6 L 174.3,130.6 L 174.3,20.0 Z M 153.7,130.6 L 174.3,20.0 L 153.7,20.0 Z M 143.4,20.0 L 122.9,20.0 L 122.9,110.0 Z M 143.4,20.0 L 122.9,110.0 L 143.4,125.4 Z M 148.6,212.9 L 156.8,192.7 L 140.4,192.7 Z M 148.6,212.9 L 140.4,233.0 L 156.8,233.0 Z M 168.7,204.7 L 148.6,212.9 L 168.7,221.1 Z M 128.4,221.1 L 148.6,212.9 L 128.4,204.7 Z M 140.4,233.0 L 148.6,212.9 L 128.4,221.1 Z M 168.7,221.1 L 148.6,212.9 L 156.8,233.0 Z M 156.8,192.7 L 148.6,212.9 L 168.7,204.7 Z M 128.4,204.7 L 148.6,212.9 L 140.4,192.7 Z M 30.3,110.0 L 20.0,125.4 L 40.6,125.4 Z M 61.1,125.4 L 48.3,110.0 L 40.6,125.4 Z M 48.3,110.0 L 30.3,110.0 L 40.6,125.4 Z M 153.7,20.0 L 143.4,20.0 L 143.4,125.4 Z M 153.7,20.0 L 143.4,125.4 L 153.7,130.6 Z M 153.7,130.6 L 143.4,125.4 L 125.4,143.4 Z M 153.7,130.6 L 125.4,143.4 L 160.1,166.6 Z M 160.1,166.6 L 125.4,143.4 L 140.4,192.7 Z M 160.1,166.6 L 140.4,192.7 L 156.8,192.7 Z M 380.0,223.1 L 380.0,202.6 L 225.7,202.6 Z M 380.0,223.1 L 225.7,202.6 L 212.9,223.1 Z M 212.9,223.1 L 225.7,202.6 L 189.7,196.1 Z M 212.9,223.1 L 189.7,196.1 L 192.3,243.7 Z M 192.3,243.7 L 189.7,196.1 L 168.7,204.7 Z M 192.3,243.7 L 168.7,204.7 L 168.7,221.1 Z M 131.9,254.0 L 140.4,233.0 L 128.4,221.1 Z M 131.9,254.0 L 128.4,221.1 L 107.4,229.6 Z M 107.4,229.6 L 128.4,221.1 L 128.4,204.7 Z M 107.4,229.6 L 128.4,204.7 L 107.4,196.1 Z M 107.4,196.1 L 128.4,204.7 L 140.4,192.7 Z M 107.4,196.1 L 140.4,192.7 L 125.4,143.4 Z M 179.4,295.1 L 192.3,282.3 L 192.3,243.7 Z M 179.4,295.1 L 192.3,243.7 L 165.3,254.0 Z M 165.3,254.0 L 192.3,243.7 L 168.7,221.1 Z M 165.3,254.0 L 168.7,221.1 L 156.8,233.0 Z M 125.4,143.4 L 104.9,143.4 L 92.0,156.3 Z M 125.4,143.4 L 92.0,156.3 L 107.4,196.1 Z M 107.4,196.1 L 92.0,156.3 L 92.0,268.1 Z M 107.4,196.1 L 92.0,268.1 L 107.4,229.6 Z M 107.4,229.6 L 92.0,268.1 L 102.3,295.1 Z M 107.4,229.6 L 102.3,295.1 L 131.9,254.0 Z M 117.7,310.6 L 140.9,310.6 L 156.3,295.1 Z M 117.7,310.6 L 156.3,295.1 L 102.3,295.1 Z M 102.3,295.1 L 156.3,295.1 L 165.3,254.0 Z M 102.3,295.1 L 165.3,254.0 L 131.9,254.0 Z M 131.9,254.0 L 165.3,254.0 L 156.8,233.0 Z M 131.9,254.0 L 156.8,233.0 L 140.4,233.0 Z M 92.0,268.1 L 66.3,290.0 L 102.3,295.1 Z M 66.3,290.0 L 53.4,295.1 L 102.3,295.1 Z M 168.7,204.7 L 189.7,196.1 L 160.1,166.6 Z M 168.7,204.7 L 160.1,166.6 L 156.8,192.7 Z M 53.4,295.1 L 66.3,290.0 L 40.6,269.4 Z M 53.4,295.1 L 40.6,269.4 L 40.6,282.3 Z M 156.3,295.1 L 179.4,295.1 L 165.3,254.0 Z M 71.4,259.1 L 61.1,259.1 L 66.3,264.3 Z" fill="#2a2a4e" stroke="none"/>
  <path d="M 153.7,207.7 L 143.4,207.7 M 143.4,207.7 L 143.4,218.0 M 143.4,218.0 L 153.7,218.0 M 153.7,218.0 L 153.7,207.7 M 380.0,243.7 L 380.0,223.1 M 225.7,243.7 L 380.0,243.7 M 212.9,256.6 L 225.7,243.7 M 212.9,295.1 L 212.9,256.6 M 192.3,315.7 L 212.9,295.1 M 225.7,182.0 L 201.3,175.6 M 201.3,175.6 L 180.7,155.0 M 180.7,155.0 L 174.3,130.6 M 122.9,110.0 L 110.0,122.9 M 110.0,122.9 L 92.0,122.9 M 92.0,122.9 L 71.4,143.4 M 71.4,143.4 L 71.4,259.1 M 20.0,125.4 L 20.0,269.4 M 20.0,269.4 L 20.0,295.1 M 20.0,295.1 L 40.6,315.7 M 40.6,315.7 L 92.0,315.7 M 92.0,315.7 L 107.4,331.1 M 107.4,331.1 L 151.1,331.1 M 151.1,331.1 L 166.6,315.7 M 166.6,315.7 L 192.3,315.7 M 61.1,259.1 L 61.1,125.4 M 380.0,202.6 L 380.0,182.0 M 380.0,182.0 L 225.7,182.0 M 174.3,130.6 L 174.3,20.0 M 174.3,20.0 L 153.7,20.0 M 143.4,20.0 L 122.9,20.0 M 122.9,20.0 L 122.9,110.0 M 30.3,110.0 L 20.0,125.4 M 61.1,125.4 L 48.3,110.0 M 48.3,110.0 L 30.3,110.0 M 153.7,20.0 L 143.4,20.0 M 380.0,223.1 L 380.0,202.6 M 71.4,259.1 L 61.1,259.1" fill="none" stroke="white" stroke-width="2" stroke-linecap="round"/>
  <polygon points="149.22585727029485,102.7482151273658 157.22585727029485,110.7482151273658 149.22585727029485,118.7482151273658 141.22585727029485,110.7482151273658" fill="#4a9eff" stroke="white" stroke-width="1"/>
<polygon points="250.2690530582519,204.73979210738102 258.26905305825187,212.73979210738102 250.2690530582519,220.73979210738102 242.2690530582519,212.73979210738102" fill="#4a9eff" stroke="white" stroke-width="1"/>
</svg>