<svg xmlns="http://www.w3.org/2000/svg" viewBox="0 0 400 400">
  <rect width="400" height="400" fill="#1a1a2e"/>
  <path d="M 249.7,156.6 L 237.2,144.1 L 224.8,178.3 Z M 249.7,156.6 L 224.8,178.3 L 249.7,200.0 Z M 249.7,200.0 L 224.8,178.3 L 193.8,200.0 Z M 249.7,200.0 L 193.8,200.0 L 206.2,243.4 Z M 206.2,243.4 L 193.8,200.0 L 144.1,206.2 Z M 206.2,243.4 L 144.1,206.2 L 156.6,243.4 Z M 181.4,75.9 L 243.4,75.9 L 243.4,51.0 Z M 181.4,75.9 L 243.4,51.0 L 209.3,56.1 Z M 209.3,56.1 L 243.4,51.0 L 231.0,38.6 Z M 209.3,56.1 L 231.0,38.6 L 187.6,38.6 Z M 181.4,75.9 L 144.1,75.9 L 144.1,113.1 Z M 181.4,75.9 L 144.1,113.1 L 181.4,113.1 Z M 181.4,113.1 L 144.1,113.1 L 144.1,206.2 Z M 181.4,113.1 L 144.1,206.2 L 193.8,200.0 Z M 144.1,255.9 L 156.6,243.4 L 144.1,206.2 Z M 144.1,255.9 L 144.1,206.2 L 131.7,243.4 Z M 131.7,243.4 L 144.1,206.2 L 94.5,200.0 Z M 131.7,243.4 L 94.5,200.0 L 82.1,243.4 Z M 82.1,243.4 L 94.5,200.0 L 63.4,178.3 Z M 82.1,243.4 L 63.4,178.3 L 38.6,200.0 Z M 38.6,200.0 L 63.4,178.3 L 51.0,144.1 Z M 38.6,200.0 L 51.0,144.1 L 38.6,156.6 Z M 94.5,200.0 L 144.1,206.2 L 144.1,113.1 Z M 94.5,200.0 L 144.1,113.1 L 106.9,113.1 Z M 106.9,113.1 L 144.1,113.1 L 144.1,75.9 Z M 106.9,113.1 L 144.1,75.9 L 106.9,75.9 Z M 44.8,75.9 L 106.9,75.9 L 79.0,56.1 Z M 44.8,75.9 L 79.0,56.1 L 44.8,51.0 Z M 44.8,51.0 L 79.0,56.1 L 100.7,38.6 Z M 44.8,51.0 L 100.7,38.6 L 57.2,38.6 Z M 181.4,75.9 L 175.2,51.0 L 144.1,75.9 Z M 175.2,51.0 L 113.1,51.0 L 144.1,75.9 Z M 144.1,75.9 L 113.1,51.0 L 106.9,75.9 Z M 181.4,75.9 L 209.3,56.1 L 187.6,38.6 Z M 181.4,75.9 L 187.6,38.6 L 175.2,51.0 Z M 237.2,144.1 L 212.4,144.1 L 193.8,200.0 Z M 237.2,144.1 L 193.8,200.0 L 224.8,178.3 Z M 106.9,75.9 L 113.1,51.0 L 100.7,38.6 Z M 106.9,75.9 L 100.7,38.6 L 79.0,56.1 Z M 94.5,200.0 L 75.9,144.1 L 51.0,144.1 Z M 94.5,200.0 L 51.0,144.1 L 63.4,178.3 Z M 193.8,200.0 L 212.4,144.1 L 181.4,113.1 Z M 106.9,113.1 L 75.9,144.1 L 94.5,200.0 Z M 200.0,94.5 L 181.4,113.1 L 212.4,144.1 Z M 200.0,94.5 L 212.4,144.1 L 231.0,125.5 Z M 231.0,125.5 L 212.4,144.1 L 237.2,144.1 Z M 231.0,125.5 L 237.2,144.1 L 255.9,125.5 Z M 255.9,125.5 L 237.2,144.1 L 249.7,156.6 Z M 255.9,125.5 L 249.7,156.6 L 268.3,137.9 Z M 268.3,137.9 L 249.7,156.6 L 249.7,200.0 Z M 268.3,137.9 L 249.7,200.0 L 268.3,218.6 Z M 268.3,218.6 L 249.7,200.0 L 206.2,243.4 Z M 268.3,218.6 L 206.2,243.4 L 224.8,262.1 Z M 224.8,262.1 L 206.2,243.4 L 156.6,243.4 Z M 224.8,262.1 L 156.6,243.4 L 175.2,262.1 Z M 175.2,262.1 L 156.6,243.4 L 144.1,255.9 Z M 175.2,262.1 L 144.1,255.9 L 162.8,274.5 Z M 162.8,274.5 L 144.1,255.9 L 144.1,380.0 Z M 162.8,274.5 L 144.1,380.0 L 162.8,380.0 Z M 181.4,75.9 L 200.0,94.5 L 262.1,94.5 Z M 181.4,75.9 L 262.1,94.5 L 243.4,75.9 Z M 243.4,75.9 L 262.1,94.5 L 262.1,32.4 Z M 243.4,75.9 L 262.1,32.4 L 243.4,51.0 Z M 243.4,51.0 L 262.1,32.4 L 249.7,20.0 Z M 243.4,51.0 L 249.7,20.0 L 231.0,38.6 Z M 231.0,38.6 L 249.7,20.0 L 169.0,20.0 Z M 231.0,38.6 L 169.0,20.0 L 187.6,38.6 Z M 131.7,32.4 L 113.1,51.0 L 175.2,51.0 Z M 131.7,32.4 L 175.2,51.0 L 156.6,32.4 Z M 156.6,32.4 L 175.2,51.0 L 187.6,38.6 Z M 156.6,32.4 L 187.6,38.6 L 169.0,20.0 Z M 106.9,113.1 L 88.3,94.5 L 57.2,125.5 Z M 106.9,113.1 L 57.2,125.5 L 75.9,144.1 Z M 75.9,144.1 L 57.2,125.5 L 32.4,125.5 Z M 75.9,144.1 L 32.4,125.5 L 51.0,144.1 Z M 51.0,144.1 L 32.4,125.5 L 20.0,137.9 Z M 51.0,144.1 L 20.0,137.9 L 38.6,156.6 Z M 38.6,156.6 L 20.0,137.9 L 20.0,218.6 Z M 38.6,156.6 L 20.0,218.6 L 38.6,200.0 Z M 38.6,200.0 L 20.0,218.6 L 63.4,262.1 Z M 38.6,200.0 L 63.4,262.1 L 82.1,243.4 Z M 82.1,243.4 L 63.4,262.1 L 113.1,262.1 Z M 82.1,243.4 L 113.1,262.1 L 131.7,243.4 Z M 131.7,243.4 L 113.1,262.1 L 125.5,274.5 Z M 131.7,243.4 L 125.5,274.5 L 144.1,255.9 Z M 144.1,255.9 L 125.5,274.5 L 125.5,380.0 Z M 144.1,255.9 L 125.5,380.0 L 144.1,380.0 Z M 88.3,94.5 L 106.9,75.9 L 44.8,75.9 Z M 88.3,94.5 L 44.8,75.9 L 26.2,94.5 Z M 26.2,94.5 L 44.8,75.9 L 44.8,51.0 Z M 26.2,94.5 L 44.8,51.0 L 26.2,32.4 Z M 26.2,32.4 L 44.8,51.0 L 57.2,38.6 Z M 26.2,32.4 L 57.2,38.6 L 38.6,20.0 Z M 38.6,20.0 L 57.2,38.6 L 100.7,38.6 Z M 38.6,20.0 L 100.7,38.6 L 119.3,20.0 Z M 131.7,32.4 L 119.3,20.0 L 100.7,38.6 Z M 131.7,32.4 L 100.7,38.6 L 113.1,51.0 Z M 181.4,75.9 L 181.4,113.1 L 200.0,94.5 Z M 106.9,75.9 L 88.3,94.5 L 106.9,113.1 Z" fill="#2a2a4e" stroke="none"/>
  <path d="M 231.0,125.5 L 200.0,94.5 M 255.9,125.5 L 231.0,125.5 M 268.3,137.9 L 255.9,125.5 M 268.3,218.6 L 268.3,137.9 M 224.8,262.1 L 268.3,218.6 M 175.2,262.1 L 224.8,262.1 M 162.8,274.5 L 175.2,262.1 M 144.1,380.0 L 162.8,380.0 M 162.8,380.0 L 162.8,274.5 M 200.0,94.5 L 262.1,94.5 M 262.1,94.5 L 262.1,32.4 M 262.1,32.4 L 249.7,20.0 M 249.7,20.0 L 169.0,20.0 M 156.6,32.4 L 131.7,32.4 M 169.0,20.0 L 156.6,32.4 M 88.3,94.5 L 57.2,125.5 M 57.2,125.5 L 32.4,125.5 M 32.4,125.5 L 20.0,137.9 M 20.0,137.9 L 20.0,218.6 M 20.0,218.6 L 63.4,262.1 M 63.4,262.1 L 113.1,262.1 M 113.1,262.1 L 125.5,274.5 M 125.5,274.5 L 125.5,380.0 M 125.5,380.0 L 144.1,380.0 M 26.2,94.5 L 88.3,94.5 M 26.2,32.4 L 26.2,94.5 M 38.6,20.0 L 26.2,32.4 M 119.3,20.0 L 38.6,20.0 M 131.7,32.4 L 119.3,20.0" fill="none" stroke="white" stroke-width="2" stroke-linecap="round"/>
  <polygon points="145.80640761463502,265.3850761069723 153.80640761463502,273.3850761069723 145.80640761463502,281.3850761069723 137.80640761463502,273.3850761069723" fill="#4a9eff" stroke="white" stroke-width="1"/>
</svg>