<svg xmlns="http://www.w3.org/2000/svg" viewBox="0 0 400 400">
  <rect width="400" height="400" fill="#1a1a2e"/>
  <path d="M 147.1,213.2 L 136.5,213.2 L 136.5,223.8 Z M 147.1,213.2 L 136.5,223.8 L 147.1,223.8 Z M 380.0,250.3 L 380.0,229.1 L 207.9,229.1 Z M 380.0,250.3 L 207.9,229.1 L 221.2,250.3 Z M 221.2,250.3 L 207.9,229.1 L 186.8,250.3 Z M 221.2,250.3 L 186.8,250.3 L 207.9,263.5 Z M 207.9,263.5 L 186.8,250.3 L 186.8,290.0 Z M 207.9,263.5 L 186.8,290.0 L 207.9,303.2 Z M 207.9,303.2 L 186.8,290.0 L 173.5,303.2 Z M 207.9,303.2 L 173.5,303.2 L 186.8,324.4 Z M 221.2,207.9 L 221.2,186.8 L 196.0,180.1 Z M 221.2,207.9 L 196.0,180.1 L 184.1,201.3 Z M 184.1,201.3 L 196.0,180.1 L 174.9,159.0 Z M 184.1,201.3 L 174.9,159.0 L 153.7,170.9 Z M 153.7,170.9 L 174.9,159.0 L 168.2,133.8 Z M 153.7,170.9 L 168.2,133.8 L 147.1,133.8 Z M 136.5,20.0 L 115.3,20.0 L 115.3,112.6 Z M 136.5,20.0 L 115.3,112.6 L 136.5,128.5 Z M 136.5,128.5 L 115.3,112.6 L 102.1,125.9 Z M 136.5,128.5 L 102.1,125.9 L 117.9,147.1 Z M 117.9,147.1 L 102.1,125.9 L 57.1,125.9 Z M 117.9,147.1 L 57.1,125.9 L 70.3,147.1 Z M 70.3,147.1 L 57.1,125.9 L 35.9,147.1 Z M 70.3,147.1 L 35.9,147.1 L 57.1,160.3 Z M 57.1,160.3 L 35.9,147.1 L 35.9,177.5 Z M 57.1,160.3 L 35.9,177.5 L 57.1,188.1 Z M 57.1,188.1 L 35.9,177.5 L 20.0,201.3 Z M 57.1,188.1 L 20.0,201.3 L 41.2,211.9 Z M 41.2,211.9 L 20.0,201.3 L 20.0,249.0 Z M 41.2,211.9 L 20.0,249.0 L 41.2,238.4 Z M 41.2,238.4 L 20.0,249.0 L 35.9,272.8 Z M 41.2,238.4 L 35.9,272.8 L 57.1,262.2 Z M 57.1,262.2 L 35.9,272.8 L 35.9,303.2 Z M 57.1,262.2 L 35.9,303.2 L 57.1,290.0 Z M 57.1,290.0 L 35.9,303.2 L 57.1,324.4 Z M 57.1,290.0 L 57.1,324.4 L 70.3,303.2 Z M 70.3,303.2 L 57.1,324.4 L 83.5,324.4 Z M 70.3,303.2 L 83.5,324.4 L 94.1,303.2 Z M 94.1,303.2 L 83.5,324.4 L 99.4,340.3 Z M 94.1,303.2 L 99.4,340.3 L 110.0,319.1 Z M 110.0,319.1 L 99.4,340.3 L 144.4,340.3 Z M 110.0,319.1 L 144.4,340.3 L 133.8,319.1 Z M 133.8,319.1 L 144.4,340.3 L 160.3,324.4 Z M 133.8,319.1 L 160.3,324.4 L 149.7,303.2 Z M 149.7,303.2 L 160.3,324.4 L 186.8,324.4 Z M 149.7,303.2 L 186.8,324.4 L 173.5,303.2 Z M 380.0,207.9 L 380.0,186.8 L 221.2,186.8 Z M 380.0,207.9 L 221.2,186.8 L 221.2,207.9 Z M 147.1,133.8 L 168.2,133.8 L 168.2,20.0 Z M 147.1,133.8 L 168.2,20.0 L 147.1,20.0 Z M 141.8,218.5 L 150.2,197.8 L 133.3,197.8 Z M 141.8,218.5 L 133.3,239.3 L 150.2,239.3 Z M 162.5,210.1 L 141.8,218.5 L 162.5,227.0 Z M 121.0,227.0 L 141.8,218.5 L 121.0,210.1 Z M 133.3,239.3 L 141.8,218.5 L 121.0,227.0 Z M 162.5,227.0 L 141.8,218.5 L 150.2,239.3 Z M 150.2,197.8 L 141.8,218.5 L 162.5,210.1 Z M 121.0,210.1 L 141.8,218.5 L 133.3,197.8 Z M 147.1,20.0 L 136.5,20.0 L 136.5,128.5 Z M 147.1,20.0 L 136.5,128.5 L 147.1,133.8 Z M 147.1,133.8 L 136.5,128.5 L 117.9,147.1 Z M 147.1,133.8 L 117.9,147.1 L 153.7,170.9 Z M 153.7,170.9 L 117.9,147.1 L 133.3,197.8 Z M 153.7,170.9 L 133.3,197.8 L 150.2,197.8 Z M 380.0,229.1 L 380.0,207.9 L 221.2,207.9 Z M 380.0,229.1 L 221.2,207.9 L 207.9,229.1 Z M 207.9,229.1 L 221.2,207.9 L 184.1,201.3 Z M 207.9,229.1 L 184.1,201.3 L 186.8,250.3 Z M 186.8,250.3 L 184.1,201.3 L 162.5,210.1 Z M 186.8,250.3 L 162.5,210.1 L 162.5,227.0 Z M 133.3,239.3 L 121.0,227.0 L 99.4,235.7 Z M 133.3,239.3 L 99.4,235.7 L 124.6,260.9 Z M 124.6,260.9 L 99.4,235.7 L 57.1,262.2 Z M 124.6,260.9 L 57.1,262.2 L 57.1,290.0 Z M 173.5,303.2 L 186.8,290.0 L 186.8,250.3 Z M 173.5,303.2 L 186.8,250.3 L 159.0,260.9 Z M 159.0,260.9 L 186.8,250.3 L 162.5,227.0 Z M 159.0,260.9 L 162.5,227.0 L 150.2,239.3 Z M 70.3,147.1 L 57.1,160.3 L 99.4,201.3 Z M 70.3,147.1 L 99.4,201.3 L 117.9,147.1 Z M 117.9,147.1 L 99.4,201.3 L 121.0,210.1 Z M 117.9,147.1 L 121.0,210.1 L 133.3,197.8 Z M 41.2,211.9 L 41.2,238.4 L 57.1,262.2 Z M 41.2,211.9 L 57.1,262.2 L 57.1,188.1 Z M 57.1,188.1 L 57.1,262.2 L 99.4,235.7 Z M 57.1,188.1 L 99.4,235.7 L 99.4,201.3 Z M 99.4,201.3 L 99.4,235.7 L 121.0,227.0 Z M 99.4,201.3 L 121.0,227.0 L 121.0,210.1 Z M 110.0,319.1 L 133.8,319.1 L 149.7,303.2 Z M 110.0,319.1 L 149.7,303.2 L 94.1,303.2 Z M 94.1,303.2 L 149.7,303.2 L 159.0,260.9 Z M 94.1,303.2 L 159.0,260.9 L 124.6,260.9 Z M 124.6,260.9 L 159.0,260.9 L 150.2,239.3 Z M 124.6,260.9 L 150.2,239.3 L 133.3,239.3 Z M 35.9,303.2 L 35.9,272.8 L 20.0,249.0 Z M 162.5,210.1 L 184.1,201.3 L 153.7,170.9 Z M 162.5,210.1 L 153.7,170.9 L 150.2,197.8 Z M 124.6,260.9 L 57.1,290.0 L 70.3,303.2 Z M 124.6,260.9 L 70.3,303.2 L 94.1,303.2 Z M 99.4,201.3 L 57.1,160.3 L 57.1,188.1 Z M 149.7,303.2 L 173.5,303.2 L 159.0,260.9 Z" fill="#2a2a4e" stroke="none"/>
  <path d="M 147.1,213.2 L 136.5,213.2 M 136.5,213.2 L 136.5,223.8 M 136.5,223.8 L 147.1,223.8 M 147.1,223.8 L 147.1,213.2 M 380.0,250.3 L 380.0,229.1 M 221.2,250.3 L 380.0,250.3 M 207.9,263.5 L 221.2,250.3 M 207.9,303.2 L 207.9,263.5 M 186.8,324.4 L 207.9,303.2 M 221.2,186.8 L 196.0,180.1 M 196.0,180.1 L 174.9,159.0 M 174.9,159.0 L 168.2,133.8 M 136.5,20.0 L 115.3,20.0 M 115.3,20.0 L 115.3,112.6 M 115.3,112.6 L 102.1,125.9 M 102.1,125.9 L 57.1,125.9 M 57.1,125.9 L 35.9,147.1 M 35.9,147.1 L 35.9,177.5 M 35.9,177.5 L 20.0,201.3 M 20.0,201.3 L 20.0,249.0 M 35.9,303.2 L 57.1,324.4 M 57.1,324.4 L 83.5,324.4 M 83.5,324.4 L 99.4,340.3 M 99.4,340.3 L 144.4,340.3 M 144.4,340.3 L 160.3,324.4 M 160.3,324.4 L 186.8,324.4 M 380.0,207.9 L 380.0,186.8 M 380.0,186.8 L 221.2,186.8 M 168.2,133.8 L 168.2,20.0 M 168.2,20.0 L 147.1,20.0 M 147.1,20.0 L 136.5,20.0 M 380.0,229.1 L 380.0,207.9 M 20.0,249.0 L 35.9,303.2" fill="none" stroke="white" stroke-width="2" stroke-linecap="round"/>
  <polygon points="247.32879944651694,210.42297977688023 255.32879944651694,218.42297977688023 247.32879944651694,226.42297977688023 239.32879944651694,218.42297977688023" fill="#4a9eff" stroke="white" stroke-width="1"/>
<polygon points="142.22031322978017,104.47534403290558 150.22031322978017,112.47534403290558 142.22031322978017,120.47534403290558 134.22031322978017,112.47534403290558" fill="#4a9eff" stroke="white" stroke-width="1"/>
</svg>