<svg xmlns="http://www.w3.org/2000/svg" viewBox="0 0 400 400">
  <rect width="400" height="400" fill="#1a1a2e"/>
  <path d="M 146.0,270.0 L 162.0,260.0 L 146.0,244.0 Z M 146.0,270.0 L 146.0,244.0 L 136.0,260.0 Z M 136.0,260.0 L 146.0,244.0 L 126.0,244.0 Z M 136.0,260.0 L 126.0,244.0 L 116.0,260.0 Z M 116.0,260.0 L 126.0,244.0 L 116.0,234.0 Z M 116.0,260.0 L 116.0,234.0 L 100.0,244.0 Z M 100.0,244.0 L 116.0,234.0 L 116.0,218.0 Z M 100.0,244.0 L 116.0,218.0 L 100.0,230.0 Z M 100.0,230.0 L 116.0,218.0 L 102.0,204.0 Z M 100.0,230.0 L 102.0,204.0 L 90.0,220.0 Z M 196.0,92.0 L 186.0,108.0 L 194.0,116.0 Z M 196.0,92.0 L 194.0,116.0 L 204.0,100.0 Z M 204.0,100.0 L 194.0,116.0 L 214.0,116.0 Z M 204.0,100.0 L 214.0,116.0 L 224.0,100.0 Z M 224.0,100.0 L 214.0,116.0 L 224.0,126.0 Z M 224.0,100.0 L 224.0,126.0 L 240.0,116.0 Z M 240.0,116.0 L 224.0,126.0 L 224.0,182.0 Z M 240.0,116.0 L 224.0,182.0 L 240.0,170.0 Z M 240.0,170.0 L 224.0,182.0 L 238.0,196.0 Z M 240.0,170.0 L 238.0,196.0 L 250.0,180.0 Z M 178.0,260.0 L 194.0,270.0 L 204.0,260.0 Z M 178.0,260.0 L 204.0,260.0 L 194.0,244.0 Z M 194.0,244.0 L 204.0,260.0 L 212.0,260.0 Z M 194.0,244.0 L 212.0,260.0 L 212.0,244.0 Z M 212.0,244.0 L 212.0,260.0 L 240.0,260.0 Z M 212.0,244.0 L 240.0,260.0 L 224.0,244.0 Z M 224.0,244.0 L 240.0,260.0 L 240.0,230.0 Z M 224.0,244.0 L 240.0,230.0 L 224.0,218.0 Z M 224.0,218.0 L 240.0,230.0 L 250.0,220.0 Z M 224.0,218.0 L 250.0,220.0 L 238.0,204.0 Z M 238.0,204.0 L 250.0,220.0 L 320.0,220.0 Z M 238.0,204.0 L 320.0,220.0 L 320.0,204.0 Z M 20.0,180.0 L 20.0,196.0 L 102.0,196.0 Z M 20.0,180.0 L 102.0,196.0 L 90.0,180.0 Z M 90.0,180.0 L 102.0,196.0 L 116.0,182.0 Z M 90.0,180.0 L 116.0,182.0 L 100.0,170.0 Z M 100.0,170.0 L 116.0,182.0 L 116.0,116.0 Z M 100.0,170.0 L 116.0,116.0 L 100.0,100.0 Z M 100.0,100.0 L 116.0,116.0 L 126.0,116.0 Z M 100.0,100.0 L 126.0,116.0 L 116.0,100.0 Z M 116.0,100.0 L 126.0,116.0 L 134.0,108.0 Z M 116.0,100.0 L 134.0,108.0 L 124.0,92.0 Z M 124.0,92.0 L 134.0,108.0 L 186.0,108.0 Z M 124.0,92.0 L 186.0,108.0 L 196.0,92.0 Z M 146.0,380.0 L 162.0,380.0 L 162.0,260.0 Z M 146.0,380.0 L 162.0,260.0 L 146.0,270.0 Z M 194.0,380.0 L 194.0,270.0 L 178.0,260.0 Z M 194.0,380.0 L 178.0,260.0 L 178.0,380.0 Z M 250.0,180.0 L 238.0,196.0 L 320.0,196.0 Z M 250.0,180.0 L 320.0,196.0 L 320.0,180.0 Z M 90.0,220.0 L 102.0,204.0 L 20.0,204.0 Z M 90.0,220.0 L 20.0,204.0 L 20.0,220.0 Z M 162.0,380.0 L 178.0,380.0 L 178.0,260.0 Z M 162.0,380.0 L 178.0,260.0 L 162.0,260.0 Z M 162.0,260.0 L 178.0,260.0 L 194.0,244.0 Z M 162.0,260.0 L 194.0,244.0 L 170.0,244.0 Z M 170.0,244.0 L 194.0,244.0 L 194.0,186.0 Z M 170.0,244.0 L 194.0,186.0 L 170.0,186.0 Z M 170.0,186.0 L 194.0,186.0 L 212.0,166.0 Z M 170.0,186.0 L 212.0,166.0 L 184.0,166.0 Z M 184.0,166.0 L 212.0,166.0 L 222.0,154.0 Z M 184.0,166.0 L 222.0,154.0 L 184.0,140.0 Z M 116.0,234.0 L 126.0,244.0 L 146.0,244.0 Z M 116.0,234.0 L 146.0,244.0 L 116.0,218.0 Z M 116.0,218.0 L 146.0,244.0 L 146.0,186.0 Z M 116.0,218.0 L 146.0,186.0 L 116.0,197.6 Z M 116.0,197.6 L 146.0,186.0 L 156.0,166.0 Z M 116.0,197.6 L 156.0,166.0 L 116.0,182.0 Z M 186.0,108.0 L 134.0,108.0 L 126.0,116.0 Z M 186.0,108.0 L 126.0,116.0 L 194.0,116.0 Z M 194.0,116.0 L 126.0,116.0 L 156.0,140.0 Z M 194.0,116.0 L 156.0,140.0 L 184.0,140.0 Z M 320.0,204.0 L 320.0,196.0 L 238.0,196.0 Z M 320.0,204.0 L 238.0,196.0 L 238.0,204.0 Z M 238.0,204.0 L 238.0,196.0 L 224.0,182.0 Z M 238.0,204.0 L 224.0,182.0 L 224.0,218.0 Z M 224.0,218.0 L 224.0,182.0 L 212.0,166.0 Z M 224.0,218.0 L 212.0,166.0 L 212.0,244.0 Z M 212.0,244.0 L 212.0,166.0 L 194.0,186.0 Z M 212.0,244.0 L 194.0,186.0 L 194.0,244.0 Z M 20.0,196.0 L 20.0,204.0 L 102.0,204.0 Z M 20.0,196.0 L 102.0,204.0 L 102.0,196.0 Z M 102.0,196.0 L 102.0,204.0 L 116.0,197.6 Z M 102.0,196.0 L 116.0,197.6 L 116.0,182.0 Z M 146.0,244.0 L 170.0,244.0 L 170.0,186.0 Z M 146.0,244.0 L 170.0,186.0 L 146.0,186.0 Z M 146.0,186.0 L 170.0,186.0 L 184.0,166.0 Z M 146.0,186.0 L 184.0,166.0 L 156.0,166.0 Z M 146.0,270.0 L 136.0,260.0 L 116.0,260.0 Z M 146.0,270.0 L 116.0,260.0 L 146.0,380.0 Z M 146.0,380.0 L 116.0,260.0 L 100.0,244.0 Z M 146.0,380.0 L 100.0,244.0 L 20.0,380.0 Z M 20.0,380.0 L 100.0,244.0 L 100.0,230.0 Z M 20.0,380.0 L 100.0,230.0 L 90.0,220.0 Z M 240.0,170.0 L 250.0,180.0 L 320.0,20.0 Z M 240.0,170.0 L 320.0,20.0 L 240.0,116.0 Z M 240.0,116.0 L 320.0,20.0 L 194.0,20.0 Z M 240.0,116.0 L 194.0,20.0 L 224.0,100.0 Z M 224.0,100.0 L 194.0,20.0 L 196.0,92.0 Z M 224.0,100.0 L 196.0,92.0 L 204.0,100.0 Z M 100.0,100.0 L 116.0,100.0 L 124.0,92.0 Z M 100.0,100.0 L 124.0,92.0 L 146.0,20.0 Z M 146.0,20.0 L 124.0,92.0 L 196.0,92.0 Z M 146.0,20.0 L 196.0,92.0 L 194.0,20.0 Z M 250.0,220.0 L 240.0,230.0 L 240.0,260.0 Z M 250.0,220.0 L 240.0,260.0 L 320.0,220.0 Z M 320.0,220.0 L 240.0,260.0 L 194.0,380.0 Z M 320.0,220.0 L 194.0,380.0 L 320.0,380.0 Z M 90.0,180.0 L 100.0,170.0 L 100.0,100.0 Z M 90.0,180.0 L 100.0,100.0 L 20.0,180.0 Z M 20.0,180.0 L 100.0,100.0 L 146.0,20.0 Z M 20.0,180.0 L 146.0,20.0 L 20.0,20.0 Z M 224.0,126.0 L 222.0,154.0 L 224.0,182.0 Z M 222.0,154.0 L 212.0,166.0 L 224.0,182.0 Z M 126.0,116.0 L 126.0,166.0 L 156.0,140.0 Z M 126.0,166.0 L 156.0,166.0 L 156.0,140.0 Z M 156.0,140.0 L 156.0,166.0 L 184.0,140.0 Z M 156.0,166.0 L 184.0,166.0 L 184.0,140.0 Z M 126.0,166.0 L 126.0,116.0 L 116.0,116.0 Z M 126.0,166.0 L 116.0,116.0 L 116.0,182.0 Z M 224.0,126.0 L 214.0,116.0 L 194.0,116.0 Z M 224.0,126.0 L 194.0,116.0 L 222.0,154.0 Z M 204.0,260.0 L 194.0,270.0 L 194.0,380.0 Z M 204.0,260.0 L 194.0,380.0 L 212.0,260.0 Z M 224.0,244.0 L 224.0,218.0 L 212.0,244.0 Z M 102.0,204.0 L 116.0,218.0 L 116.0,197.6 Z M 184.0,140.0 L 222.0,154.0 L 194.0,116.0 Z M 170.0,244.0 L 146.0,244.0 L 162.0,260.0 Z M 156.0,166.0 L 126.0,166.0 L 116.0,182.0 Z M 90.0,220.0 L 20.0,220.0 L 20.0,380.0 Z M 320.0,180.0 L 320.0,20.0 L 250.0,180.0 Z M 194.0,380.0 L 240.0,260.0 L 212.0,260.0 Z" fill="#2a2a4e" stroke="none"/>
  <path d="M 320.0,220.0 L 320.0,204.0 M 20.0,180.0 L 20.0,196.0 M 146.0,380.0 L 162.0,380.0 M 178.0,380.0 L 194.0,380.0 M 320.0,196.0 L 320.0,180.0 M 20.0,204.0 L 20.0,220.0 M 162.0,380.0 L 178.0,380.0 M 320.0,204.0 L 320.0,196.0 M 20.0,196.0 L 20.0,204.0 M 20.0,380.0 L 146.0,380.0 M 320.0,20.0 L 194.0,20.0 M 194.0,20.0 L 146.0,20.0 M 194.0,380.0 L 320.0,380.0 M 320.0,380.0 L 320.0,220.0 M 146.0,20.0 L 20.0,20.0 M 20.0,20.0 L 20.0,180.0 M 20.0,220.0 L 20.0,380.0 M 320.0,180.0 L 320.0,20.0" fill="none" stroke="white" stroke-width="2" stroke-linecap="round"/>
  <polygon points="249.5440478337876,192.65044597484348 257.5440478337876,200.65044597484348 249.5440478337876,208.65044597484348 241.5440478337876,200.65044597484348" fill="#4a9eff" stroke="white" stroke-width="1"/>
<polygon points="89.88104650718932,191.26562107925974 97.88104650718932,199.26562107925974 89.88104650718932,207.26562107925974 81.88104650718932,199.26562107925974" fill="#4a9eff" stroke="white" stroke-width="1"/>
<polygon points="169.511154423428,271.44436794609356 177.511154423428,279.44436794609356 169.511154423428,287.44436794609356 161.511154423428,279.44436794609356" fill="#4a9eff" stroke="white" stroke-width="1"/>
</svg>