<svg xmlns="http://www.w3.org/2000/svg" viewBox="0 0 400 400">
  <rect width="400" height="400" fill="#1a1a2e"/>
  <path d="M 104.0,244.0 L 94.0,260.0 L 136.0,260.0 Z M 104.0,244.0 L 136.0,260.0 L 146.0,244.0 Z M 146.0,244.0 L 136.0,260.0 L 146.0,270.0 Z M 146.0,244.0 L 146.0,270.0 L 162.0,260.0 Z M 162.0,260.0 L 146.0,270.0 L 146.0,380.0 Z M 162.0,260.0 L 146.0,380.0 L 162.0,380.0 Z M 94.0,260.0 L 104.0,244.0 L 94.0,234.0 Z M 94.0,260.0 L 94.0,234.0 L 78.0,244.0 Z M 78.0,244.0 L 94.0,234.0 L 94.0,198.0 Z M 78.0,244.0 L 94.0,198.0 L 78.0,206.0 Z M 78.0,206.0 L 94.0,198.0 L 86.0,190.0 Z M 78.0,206.0 L 86.0,190.0 L 70.0,198.0 Z M 70.0,198.0 L 86.0,190.0 L 86.0,170.0 Z M 70.0,198.0 L 86.0,170.0 L 70.0,162.0 Z M 70.0,162.0 L 86.0,170.0 L 94.0,162.0 Z M 70.0,162.0 L 94.0,162.0 L 78.0,154.0 Z M 78.0,154.0 L 94.0,162.0 L 94.0,134.0 Z M 78.0,154.0 L 94.0,134.0 L 78.0,124.0 Z M 78.0,124.0 L 94.0,134.0 L 104.0,124.0 Z M 78.0,124.0 L 104.0,124.0 L 94.0,108.0 Z M 236.0,124.0 L 246.0,108.0 L 204.0,108.0 Z M 236.0,124.0 L 204.0,108.0 L 196.0,124.0 Z M 196.0,124.0 L 204.0,108.0 L 196.0,100.0 Z M 196.0,124.0 L 196.0,100.0 L 188.0,116.0 Z M 188.0,116.0 L 196.0,100.0 L 144.0,100.0 Z M 188.0,116.0 L 144.0,100.0 L 152.0,116.0 Z M 152.0,116.0 L 144.0,100.0 L 136.0,108.0 Z M 152.0,116.0 L 136.0,108.0 L 144.0,124.0 Z M 246.0,108.0 L 236.0,124.0 L 246.0,134.0 Z M 246.0,108.0 L 246.0,134.0 L 262.0,124.0 Z M 262.0,124.0 L 246.0,134.0 L 246.0,162.0 Z M 262.0,124.0 L 246.0,162.0 L 262.0,154.0 Z M 262.0,154.0 L 246.0,162.0 L 254.0,170.0 Z M 262.0,154.0 L 254.0,170.0 L 270.0,162.0 Z M 270.0,162.0 L 254.0,170.0 L 254.0,190.0 Z M 270.0,162.0 L 254.0,190.0 L 270.0,198.0 Z M 270.0,198.0 L 254.0,190.0 L 246.0,198.0 Z M 270.0,198.0 L 246.0,198.0 L 262.0,206.0 Z M 262.0,206.0 L 246.0,198.0 L 246.0,234.0 Z M 262.0,206.0 L 246.0,234.0 L 262.0,244.0 Z M 262.0,244.0 L 246.0,234.0 L 236.0,244.0 Z M 262.0,244.0 L 236.0,244.0 L 246.0,260.0 Z M 178.0,380.0 L 194.0,380.0 L 194.0,270.0 Z M 178.0,380.0 L 194.0,270.0 L 178.0,260.0 Z M 178.0,260.0 L 194.0,270.0 L 204.0,260.0 Z M 178.0,260.0 L 204.0,260.0 L 194.0,244.0 Z M 94.0,108.0 L 104.0,124.0 L 144.0,124.0 Z M 94.0,108.0 L 144.0,124.0 L 136.0,108.0 Z M 246.0,260.0 L 236.0,244.0 L 194.0,244.0 Z M 246.0,260.0 L 194.0,244.0 L 204.0,260.0 Z M 194.0,244.0 L 146.0,244.0 L 162.0,260.0 Z M 194.0,244.0 L 162.0,260.0 L 178.0,260.0 Z M 178.0,260.0 L 162.0,260.0 L 162.0,380.0 Z M 178.0,260.0 L 162.0,380.0 L 178.0,380.0 Z M 94.0,162.0 L 112.0,148.0 L 130.0,130.0 Z M 94.0,162.0 L 130.0,130.0 L 94.0,134.0 Z M 94.0,134.0 L 130.0,130.0 L 144.0,124.0 Z M 94.0,134.0 L 144.0,124.0 L 104.0,124.0 Z M 194.0,244.0 L 210.0,230.0 L 192.0,212.0 Z M 194.0,244.0 L 192.0,212.0 L 170.0,212.0 Z M 170.0,212.0 L 192.0,212.0 L 192.0,148.0 Z M 170.0,212.0 L 192.0,148.0 L 170.0,148.0 Z M 170.0,148.0 L 192.0,148.0 L 210.0,130.0 Z M 170.0,148.0 L 210.0,130.0 L 196.0,124.0 Z M 196.0,124.0 L 210.0,130.0 L 246.0,134.0 Z M 196.0,124.0 L 246.0,134.0 L 236.0,124.0 Z M 254.0,190.0 L 254.0,170.0 L 246.0,162.0 Z M 254.0,190.0 L 246.0,162.0 L 246.0,198.0 Z M 246.0,198.0 L 246.0,162.0 L 228.0,148.0 Z M 246.0,198.0 L 228.0,148.0 L 228.0,212.0 Z M 86.0,170.0 L 86.0,190.0 L 94.0,198.0 Z M 86.0,170.0 L 94.0,198.0 L 94.0,162.0 Z M 94.0,162.0 L 94.0,198.0 L 112.0,212.0 Z M 94.0,162.0 L 112.0,212.0 L 112.0,148.0 Z M 144.0,124.0 L 130.0,130.0 L 148.0,148.0 Z M 144.0,124.0 L 148.0,148.0 L 170.0,148.0 Z M 170.0,148.0 L 148.0,148.0 L 148.0,212.0 Z M 170.0,148.0 L 148.0,212.0 L 170.0,212.0 Z M 170.0,212.0 L 148.0,212.0 L 130.0,229.8 Z M 170.0,212.0 L 130.0,229.8 L 146.0,244.0 Z M 146.0,244.0 L 130.0,229.8 L 94.0,234.0 Z M 146.0,244.0 L 94.0,234.0 L 104.0,244.0 Z M 246.0,198.0 L 228.0,212.0 L 210.0,230.0 Z M 246.0,198.0 L 210.0,230.0 L 246.0,234.0 Z M 246.0,234.0 L 210.0,230.0 L 194.0,244.0 Z M 246.0,234.0 L 194.0,244.0 L 236.0,244.0 Z M 146.0,270.0 L 136.0,260.0 L 94.0,260.0 Z M 146.0,270.0 L 94.0,260.0 L 146.0,380.0 Z M 146.0,380.0 L 94.0,260.0 L 78.0,244.0 Z M 146.0,380.0 L 78.0,244.0 L 20.0,380.0 Z M 20.0,380.0 L 78.0,244.0 L 78.0,206.0 Z M 20.0,380.0 L 78.0,206.0 L 70.0,198.0 Z M 262.0,124.0 L 262.0,154.0 L 270.0,162.0 Z M 262.0,124.0 L 270.0,162.0 L 320.0,20.0 Z M 320.0,20.0 L 270.0,162.0 L 270.0,198.0 Z M 320.0,20.0 L 270.0,198.0 L 320.0,380.0 Z M 320.0,380.0 L 270.0,198.0 L 262.0,206.0 Z M 320.0,380.0 L 262.0,206.0 L 262.0,244.0 Z M 20.0,380.0 L 70.0,198.0 L 70.0,162.0 Z M 20.0,380.0 L 70.0,162.0 L 20.0,20.0 Z M 20.0,20.0 L 70.0,162.0 L 78.0,154.0 Z M 20.0,20.0 L 78.0,154.0 L 78.0,124.0 Z M 320.0,380.0 L 262.0,244.0 L 246.0,260.0 Z M 320.0,380.0 L 246.0,260.0 L 194.0,380.0 Z M 194.0,380.0 L 246.0,260.0 L 204.0,260.0 Z M 194.0,380.0 L 204.0,260.0 L 194.0,270.0 Z M 94.0,108.0 L 136.0,108.0 L 144.0,100.0 Z M 94.0,108.0 L 144.0,100.0 L 20.0,20.0 Z M 20.0,20.0 L 144.0,100.0 L 196.0,100.0 Z M 20.0,20.0 L 196.0,100.0 L 320.0,20.0 Z M 320.0,20.0 L 196.0,100.0 L 204.0,108.0 Z M 320.0,20.0 L 204.0,108.0 L 246.0,108.0 Z M 196.0,124.0 L 188.0,116.0 L 152.0,116.0 Z M 196.0,124.0 L 152.0,116.0 L 144.0,124.0 Z M 130.0,229.8 L 112.0,212.0 L 94.0,198.0 Z M 130.0,229.8 L 94.0,198.0 L 94.0,234.0 Z M 210.0,130.0 L 228.0,148.0 L 246.0,162.0 Z M 210.0,130.0 L 246.0,162.0 L 246.0,134.0 Z M 146.0,244.0 L 194.0,244.0 L 170.0,212.0 Z M 144.0,124.0 L 170.0,148.0 L 196.0,124.0 Z M 20.0,20.0 L 78.0,124.0 L 94.0,108.0 Z M 246.0,108.0 L 262.0,124.0 L 320.0,20.0 Z" fill="#2a2a4e" stroke="none"/>
  <path d="M 146.0,380.0 L 162.0,380.0 M 178.0,380.0 L 194.0,380.0 M 162.0,380.0 L 178.0,380.0 M 112.0,148.0 L 130.0,130.0 M 210.0,230.0 L 192.0,212.0 M 192.0,212.0 L 192.0,148.0 M 192.0,148.0 L 210.0,130.0 M 228.0,148.0 L 228.0,212.0 M 112.0,212.0 L 112.0,148.0 M 130.0,130.0 L 148.0,148.0 M 148.0,148.0 L 148.0,212.0 M 148.0,212.0 L 130.0,229.8 M 228.0,212.0 L 210.0,230.0 M 20.0,380.0 L 146.0,380.0 M 320.0,380.0 L 320.0,20.0 M 20.0,20.0 L 20.0,380.0 M 194.0,380.0 L 320.0,380.0 M 320.0,20.0 L 20.0,20.0 M 130.0,229.8 L 112.0,212.0 M 210.0,130.0 L 228.0,148.0" fill="none" stroke="white" stroke-width="2" stroke-linecap="round"/>
  <polygon points="169.79829717201568,272.22210500171275 177.79829717201568,280.22210500171275 169.79829717201568,288.22210500171275 161.79829717201568,280.22210500171275" fill="#4a9eff" stroke="white" stroke-width="1"/>
</svg>