<svg xmlns="http://www.w3.org/2000/svg" viewBox="0 0 400 400">
  <rect width="400" height="400" fill="#1a1a2e"/>
  <path d="M 146.0,270.0 L 162.0,260.0 L 146.0,244.0 Z M 146.0,270.0 L 146.0,244.0 L 136.0,260.0 Z M 136.0,260.0 L 146.0,244.0 L 126.0,244.0 Z M 136.0,260.0 L 126.0,244.0 L 116.0,260.0 Z M 116.0,260.0 L 126.0,244.0 L 116.0,234.0 Z M 116.0,260.0 L 116.0,234.0 L 100.0,244.0 Z M 100.0,244.0 L 116.0,234.0 L 116.0,218.0 Z M 100.0,244.0 L 116.0,218.0 L 100.0,230.0 Z M 100.0,230.0 L 116.0,218.0 L 102.0,204.0 Z M 100.0,230.0 L 102.0,204.0 L 90.0,220.0 Z M 194.0,130.0 L 178.0,140.0 L 194.0,156.0 Z M 194.0,130.0 L 194.0,156.0 L 204.0,140.0 Z M 204.0,140.0 L 194.0,156.0 L 214.0,156.0 Z M 204.0,140.0 L 214.0,156.0 L 224.0,140.0 Z M 224.0,140.0 L 214.0,156.0 L 224.0,166.0 Z M 224.0,140.0 L 224.0,166.0 L 240.0,156.0 Z M 240.0,156.0 L 224.0,166.0 L 224.0,182.0 Z M 240.0,156.0 L 224.0,182.0 L 240.0,170.0 Z M 240.0,170.0 L 224.0,182.0 L 238.0,196.0 Z M 240.0,170.0 L 238.0,196.0 L 250.0,180.0 Z M 178.0,260.0 L 194.0,270.0 L 204.0,260.0 Z M 178.0,260.0 L 204.0,260.0 L 194.0,244.0 Z M 194.0,244.0 L 204.0,260.0 L 240.0,260.0 Z M 194.0,244.0 L 240.0,260.0 L 224.0,244.0 Z M 224.0,244.0 L 240.0,260.0 L 240.0,230.0 Z M 224.0,244.0 L 240.0,230.0 L 224.0,218.0 Z M 224.0,218.0 L 240.0,230.0 L 250.0,220.0 Z M 224.0,218.0 L 250.0,220.0 L 238.0,204.0 Z M 238.0,204.0 L 250.0,220.0 L 320.0,220.0 Z M 238.0,204.0 L 320.0,220.0 L 320.0,204.0 Z M 162.0,140.0 L 146.0,130.0 L 136.0,140.0 Z M 162.0,140.0 L 136.0,140.0 L 146.0,156.0 Z M 146.0,156.0 L 136.0,140.0 L 100.0,140.0 Z M 146.0,156.0 L 100.0,140.0 L 116.0,156.0 Z M 116.0,156.0 L 100.0,140.0 L 100.0,170.0 Z M 116.0,156.0 L 100.0,170.0 L 116.0,182.0 Z M 116.0,182.0 L 100.0,170.0 L 90.0,180.0 Z M 116.0,182.0 L 90.0,180.0 L 102.0,196.0 Z M 146.0,380.0 L 162.0,380.0 L 162.0,260.0 Z M 146.0,380.0 L 162.0,260.0 L 146.0,270.0 Z M 194.0,20.0 L 178.0,20.0 L 178.0,140.0 Z M 194.0,20.0 L 178.0,140.0 L 194.0,130.0 Z M 178.0,260.0 L 178.0,380.0 L 194.0,380.0 Z M 178.0,260.0 L 194.0,380.0 L 194.0,270.0 Z M 162.0,140.0 L 162.0,20.0 L 146.0,20.0 Z M 162.0,140.0 L 146.0,20.0 L 146.0,130.0 Z M 320.0,196.0 L 320.0,180.0 L 250.0,180.0 Z M 320.0,196.0 L 250.0,180.0 L 238.0,196.0 Z M 102.0,196.0 L 90.0,180.0 L 20.0,180.0 Z M 102.0,196.0 L 20.0,180.0 L 20.0,196.0 Z M 20.0,204.0 L 20.0,220.0 L 90.0,220.0 Z M 20.0,204.0 L 90.0,220.0 L 102.0,204.0 Z M 196.4,215.7 L 205.7,206.4 L 205.7,193.6 Z M 196.4,215.7 L 205.7,193.6 L 170.0,200.0 Z M 143.6,184.3 L 134.3,193.6 L 134.3,206.4 Z M 143.6,184.3 L 134.3,206.4 L 170.0,200.0 Z M 196.4,215.7 L 170.0,200.0 L 143.6,215.7 Z M 143.6,184.3 L 170.0,200.0 L 196.4,184.3 Z M 143.6,215.7 L 170.0,200.0 L 134.3,206.4 Z M 196.4,184.3 L 170.0,200.0 L 205.7,193.6 Z M 162.0,380.0 L 178.0,380.0 L 178.0,260.0 Z M 162.0,380.0 L 178.0,260.0 L 162.0,260.0 Z M 162.0,260.0 L 178.0,260.0 L 194.0,244.0 Z M 162.0,260.0 L 194.0,244.0 L 146.0,244.0 Z M 146.0,244.0 L 194.0,244.0 L 199.7,223.7 Z M 146.0,244.0 L 199.7,223.7 L 140.3,223.7 Z M 140.3,223.7 L 126.3,209.7 L 116.0,218.0 Z M 140.3,223.7 L 116.0,218.0 L 146.0,244.0 Z M 146.0,244.0 L 116.0,218.0 L 116.0,234.0 Z M 146.0,244.0 L 116.0,234.0 L 126.0,244.0 Z M 178.0,20.0 L 162.0,20.0 L 162.0,140.0 Z M 178.0,20.0 L 162.0,140.0 L 178.0,140.0 Z M 178.0,140.0 L 162.0,140.0 L 146.0,156.0 Z M 178.0,140.0 L 146.0,156.0 L 194.0,156.0 Z M 194.0,156.0 L 146.0,156.0 L 140.3,176.3 Z M 194.0,156.0 L 140.3,176.3 L 199.7,176.3 Z M 224.0,166.0 L 214.0,156.0 L 194.0,156.0 Z M 224.0,166.0 L 194.0,156.0 L 224.0,182.0 Z M 224.0,182.0 L 194.0,156.0 L 199.7,176.3 Z M 224.0,182.0 L 199.7,176.3 L 213.7,190.3 Z M 199.7,223.7 L 194.0,244.0 L 224.0,218.0 Z M 199.7,223.7 L 224.0,218.0 L 213.7,209.7 Z M 213.7,209.7 L 224.0,218.0 L 224.0,182.0 Z M 213.7,209.7 L 224.0,182.0 L 213.7,190.3 Z M 224.0,182.0 L 224.0,218.0 L 238.0,204.0 Z M 224.0,182.0 L 238.0,204.0 L 238.0,196.0 Z M 238.0,196.0 L 238.0,204.0 L 320.0,204.0 Z M 238.0,196.0 L 320.0,204.0 L 320.0,196.0 Z M 20.0,196.0 L 20.0,204.0 L 102.0,204.0 Z M 20.0,196.0 L 102.0,204.0 L 102.0,196.0 Z M 102.0,196.0 L 102.0,204.0 L 116.0,218.0 Z M 102.0,196.0 L 116.0,218.0 L 116.0,182.0 Z M 116.0,182.0 L 116.0,218.0 L 126.3,209.7 Z M 116.0,182.0 L 126.3,209.7 L 126.3,190.3 Z M 146.0,270.0 L 136.0,260.0 L 116.0,260.0 Z M 146.0,270.0 L 116.0,260.0 L 146.0,380.0 Z M 146.0,380.0 L 116.0,260.0 L 100.0,244.0 Z M 146.0,380.0 L 100.0,244.0 L 20.0,380.0 Z M 20.0,380.0 L 100.0,244.0 L 100.0,230.0 Z M 20.0,380.0 L 100.0,230.0 L 90.0,220.0 Z M 240.0,170.0 L 250.0,180.0 L 320.0,20.0 Z M 240.0,170.0 L 320.0,20.0 L 240.0,156.0 Z M 240.0,156.0 L 320.0,20.0 L 194.0,20.0 Z M 240.0,156.0 L 194.0,20.0 L 224.0,140.0 Z M 224.0,140.0 L 194.0,20.0 L 194.0,130.0 Z M 224.0,140.0 L 194.0,130.0 L 204.0,140.0 Z M 204.0,260.0 L 194.0,270.0 L 194.0,380.0 Z M 204.0,260.0 L 194.0,380.0 L 240.0,260.0 Z M 240.0,260.0 L 194.0,380.0 L 320.0,380.0 Z M 240.0,260.0 L 320.0,380.0 L 320.0,220.0 Z M 136.0,140.0 L 146.0,130.0 L 146.0,20.0 Z M 136.0,140.0 L 146.0,20.0 L 100.0,140.0 Z M 100.0,140.0 L 146.0,20.0 L 20.0,20.0 Z M 100.0,140.0 L 20.0,20.0 L 20.0,180.0 Z M 126.3,190.3 L 140.3,176.3 L 146.0,156.0 Z M 126.3,190.3 L 146.0,156.0 L 116.0,182.0 Z M 240.0,230.0 L 240.0,260.0 L 320.0,220.0 Z M 240.0,230.0 L 320.0,220.0 L 250.0,220.0 Z M 100.0,170.0 L 100.0,140.0 L 20.0,180.0 Z M 100.0,170.0 L 20.0,180.0 L 90.0,180.0 Z M 146.0,156.0 L 116.0,156.0 L 116.0,182.0 Z M 194.0,244.0 L 224.0,244.0 L 224.0,218.0 Z M 90.0,220.0 L 20.0,220.0 L 20.0,380.0 Z M 320.0,180.0 L 320.0,20.0 L 250.0,180.0 Z" fill="#2a2a4e" stroke="none"/>
  <path d="M 320.0,220.0 L 320.0,204.0 M 146.0,380.0 L 162.0,380.0 M 194.0,20.0 L 178.0,20.0 M 178.0,380.0 L 194.0,380.0 M 162.0,20.0 L 146.0,20.0 M 320.0,196.0 L 320.0,180.0 M 20.0,180.0 L 20.0,196.0 M 20.0,204.0 L 20.0,220.0 M 196.4,215.7 L 205.7,206.4 M 205.7,206.4 L 205.7,193.6 M 143.6,184.3 L 134.3,193.6 M 134.3,193.6 L 134.3,206.4 M 143.6,215.7 L 196.4,215.7 M 196.4,184.3 L 143.6,184.3 M 134.3,206.4 L 143.6,215.7 M 205.7,193.6 L 196.4,184.3 M 162.0,380.0 L 178.0,380.0 M 199.7,223.7 L 140.3,223.7 M 140.3,223.7 L 126.3,209.7 M 178.0,20.0 L 162.0,20.0 M 140.3,176.3 L 199.7,176.3 M 199.7,176.3 L 213.7,190.3 M 213.7,209.7 L 199.7,223.7 M 213.7,190.3 L 213.7,209.7 M 320.0,204.0 L 320.0,196.0 M 20.0,196.0 L 20.0,204.0 M 126.3,209.7 L 126.3,190.3 M 20.0,380.0 L 146.0,380.0 M 320.0,20.0 L 194.0,20.0 M 194.0,380.0 L 320.0,380.0 M 320.0,380.0 L 320.0,220.0 M 146.0,20.0 L 20.0,20.0 M 20.0,20.0 L 20.0,180.0 M 126.3,190.3 L 140.3,176.3 M 20.0,220.0 L 20.0,380.0 M 320.0,180.0 L 320.0,20.0" fill="none" stroke="white" stroke-width="2" stroke-linecap="round"/>
  <polygon points="249.8119430245029,193.6876029280263 257.8119430245029,201.6876029280263 249.8119430245029,209.6876029280263 241.8119430245029,201.6876029280263" fill="#4a9eff" stroke="white" stroke-width="1"/>
<polygon points="169.9333668744141,271.55770407924143 177.9333668744141,279.55770407924143 169.9333668744141,287.55770407924143 161.9333668744141,279.55770407924143" fill="#4a9eff" stroke="white" stroke-width="1"/>
<polygon points="89.96402733658691,191.7891748575936 97.96402733658691,199.7891748575936 89.96402733658691,207.7891748575936 81.96402733658691,199.7891748575936" fill="#4a9eff" stroke="white" stroke-width="1"/>
<polygon points="170.7982664017343,112.25186191577343 178.7982664017343,120.25186191577343 170.7982664017343,128.25186191577342 162.7982664017343,120.25186191577343" fill="#4a9eff" stroke="white" stroke-width="1"/>
</svg>