<svg xmlns="http://www.w3.org/2000/svg" viewBox="0 0 400 400">
  <rect width="400" height="400" fill="#1a1a2e"/>
  <path d="M 111.7,186.4 L 132.1,196.6 L 183.0,145.7 Z M 111.7,186.4 L 183.0,145.7 L 162.6,135.5 Z M 162.6,135.5 L 183.0,145.7 L 183.0,104.9 Z M 162.6,135.5 L 183.0,104.9 L 162.6,115.1 Z M 162.6,115.1 L 183.0,104.9 L 121.9,43.8 Z M 162.6,115.1 L 121.9,43.8 L 111.7,64.2 Z M 111.7,64.2 L 121.9,43.8 L 81.1,43.8 Z M 111.7,64.2 L 81.1,43.8 L 91.3,64.2 Z M 91.3,64.2 L 81.1,43.8 L 20.0,104.9 Z M 91.3,64.2 L 20.0,104.9 L 40.4,115.1 Z M 40.4,115.1 L 20.0,104.9 L 20.0,145.7 Z M 40.4,115.1 L 20.0,145.7 L 40.4,135.5 Z M 40.4,135.5 L 20.0,145.7 L 70.9,196.6 Z M 40.4,135.5 L 70.9,196.6 L 91.3,186.4 Z M 101.5,257.7 L 121.9,257.7 L 132.1,196.6 Z M 101.5,257.7 L 132.1,196.6 L 111.7,186.4 Z M 121.9,380.0 L 121.9,257.7 L 101.5,257.7 Z M 121.9,380.0 L 101.5,257.7 L 101.5,380.0 Z M 101.5,257.7 L 91.3,186.4 L 70.9,196.6 Z M 101.5,257.7 L 70.9,196.6 L 81.1,257.7 Z M 101.5,380.0 L 101.5,257.7 L 81.1,257.7 Z M 101.5,380.0 L 81.1,257.7 L 81.1,380.0 Z M 111.7,64.2 L 108.3,91.3 L 135.5,118.5 Z M 111.7,64.2 L 135.5,118.5 L 162.6,115.1 Z M 162.6,115.1 L 135.5,118.5 L 135.5,132.1 Z M 162.6,115.1 L 135.5,132.1 L 162.6,135.5 Z M 162.6,135.5 L 135.5,132.1 L 108.3,159.2 Z M 162.6,135.5 L 108.3,159.2 L 111.7,186.4 Z M 111.7,186.4 L 108.3,159.2 L 94.7,159.2 Z M 111.7,186.4 L 94.7,159.2 L 91.3,186.4 Z M 91.3,186.4 L 94.7,159.2 L 67.5,132.1 Z M 91.3,186.4 L 67.5,132.1 L 40.4,135.5 Z M 40.4,135.5 L 67.5,132.1 L 67.5,118.5 Z M 40.4,135.5 L 67.5,118.5 L 40.4,115.1 Z M 40.4,115.1 L 67.5,118.5 L 94.7,91.3 Z M 40.4,115.1 L 94.7,91.3 L 91.3,64.2 Z M 91.3,64.2 L 94.7,91.3 L 108.3,91.3 Z M 91.3,64.2 L 108.3,91.3 L 111.7,64.2 Z M 70.9,30.2 L 70.9,54.0 L 81.1,43.8 Z M 70.9,30.2 L 81.1,43.8 L 81.1,20.0 Z M 81.1,20.0 L 81.1,43.8 L 121.9,43.8 Z M 81.1,20.0 L 121.9,43.8 L 121.9,20.0 Z M 121.9,20.0 L 121.9,43.8 L 132.1,54.0 Z M 121.9,20.0 L 132.1,54.0 L 132.1,30.2 Z M 91.3,186.4 L 101.5,257.7 L 111.7,186.4 Z M 134.4,131.8 L 134.4,118.8 L 108.0,92.4 Z M 134.4,131.8 L 108.0,92.4 L 108.1,158.1 Z M 108.1,158.1 L 108.0,92.4 L 95.0,92.4 Z M 108.1,158.1 L 95.0,92.4 L 95.0,158.1 Z M 95.0,158.1 L 95.0,92.4 L 68.6,118.8 Z M 95.0,158.1 L 68.6,118.8 L 68.6,131.8 Z" fill="#2a2a4e" stroke="none"/>
  <path d="M 132.1,196.6 L 183.0,145.7 M 183.0,145.7 L 183.0,104.9 M 183.0,104.9 L 121.9,43.8 M 81.1,43.8 L 20.0,104.9 M 20.0,104.9 L 20.0,145.7 M 20.0,145.7 L 70.9,196.6 M 121.9,257.7 L 132.1,196.6 M 121.9,380.0 L 121.9,257.7 M 101.5,380.0 L 121.9,380.0 M 70.9,196.6 L 81.1,257.7 M 81.1,257.7 L 81.1,380.0 M 81.1,380.0 L 101.5,380.0 M 108.3,91.3 L 135.5,118.5 M 135.5,118.5 L 135.5,132.1 M 135.5,132.1 L 108.3,159.2 M 108.3,159.2 L 94.7,159.2 M 94.7,159.2 L 67.5,132.1 M 67.5,132.1 L 67.5,118.5 M 67.5,118.5 L 94.7,91.3 M 94.7,91.3 L 108.3,91.3 M 70.9,30.2 L 70.9,54.0 M 70.9,54.0 L 81.1,43.8 M 81.1,20.0 L 70.9,30.2 M 121.9,20.0 L 81.1,20.0 M 121.9,43.8 L 132.1,54.0 M 132.1,54.0 L 132.1,30.2 M 132.1,30.2 L 121.9,20.0 M 134.4,131.8 L 134.4,118.8 M 134.4,118.8 L 108.0,92.4 M 108.1,158.1 L 134.4,131.8 M 108.0,92.4 L 95.0,92.4 M 95.0,158.1 L 108.1,158.1 M 95.0,92.4 L 68.6,118.8 M 68.6,118.8 L 68.6,131.8 M 68.6,131.8 L 95.0,158.1" fill="none" stroke="white" stroke-width="2" stroke-linecap="round"/>
  <polygon points="101.13212957107119,252.08720588927633 109.13212957107119,260.08720588927633 101.13212957107119,268.08720588927633 93.13212957107119,260.08720588927633" fill="#4a9eff" stroke="white" stroke-width="1"/>
</svg>