<svg xmlns="http://www.w3.org/2000/svg" viewBox="0 0 400 400">
  <rect width="400" height="400" fill="#1a1a2e"/>
  <path d="M 281.6,190.4 L 257.6,214.4 L 288.9,245.5 Z M 281.6,190.4 L 288.9,245.5 L 312.7,221.8 Z M 312.7,221.8 L 288.9,245.5 L 299.1,245.5 Z M 312.7,221.8 L 299.1,245.5 L 312.7,231.9 Z M 238.4,104.0 L 252.8,104.0 L 252.8,62.0 Z M 238.4,104.0 L 252.8,62.0 L 238.4,89.6 Z M 238.4,89.6 L 252.8,62.0 L 252.8,48.8 Z M 238.4,89.6 L 252.8,48.8 L 238.4,48.8 Z M 147.2,118.4 L 147.2,214.4 L 161.6,214.4 Z M 147.2,118.4 L 161.6,214.4 L 161.6,104.0 Z M 161.6,104.0 L 161.6,214.4 L 173.6,214.4 Z M 161.6,104.0 L 173.6,214.4 L 214.4,185.6 Z M 238.4,48.8 L 147.2,48.8 L 147.2,89.6 Z M 238.4,48.8 L 147.2,89.6 L 238.4,89.6 Z M 238.4,89.6 L 147.2,89.6 L 161.6,104.0 Z M 238.4,89.6 L 161.6,104.0 L 238.4,104.0 Z M 118.4,204.8 L 128.0,214.4 L 147.2,214.4 Z M 118.4,204.8 L 147.2,214.4 L 118.4,159.2 Z M 118.4,159.2 L 147.2,214.4 L 147.2,118.4 Z M 118.4,159.2 L 147.2,118.4 L 118.4,147.2 Z M 252.8,185.6 L 252.8,152.0 L 238.4,104.0 Z M 252.8,185.6 L 238.4,104.0 L 238.4,185.6 Z M 238.4,185.6 L 238.4,104.0 L 161.6,104.0 Z M 238.4,185.6 L 161.6,104.0 L 214.4,185.6 Z M 185.6,226.4 L 185.6,214.4 L 173.6,214.4 Z M 185.6,214.4 L 214.4,185.6 L 173.6,214.4 Z M 288.8,132.8 L 267.2,113.6 L 267.2,152.0 Z M 118.4,159.2 L 118.4,147.2 L 106.4,147.2 Z M 161.6,104.0 L 147.2,89.6 L 147.2,118.4 Z M 238.4,104.0 L 252.8,152.0 L 252.8,104.0 Z M 118.4,106.4 L 132.8,111.2 L 132.8,46.4 Z M 118.4,106.4 L 132.8,46.4 L 118.4,44.0 Z M 118.4,44.0 L 132.8,46.4 L 144.8,34.4 Z M 118.4,44.0 L 144.8,34.4 L 142.4,20.0 Z M 255.2,34.4 L 257.6,20.0 L 238.4,20.0 Z M 255.2,34.4 L 238.4,20.0 L 238.4,34.4 Z M 238.4,34.4 L 238.4,20.0 L 142.4,20.0 Z M 238.4,34.4 L 142.4,20.0 L 144.8,34.4 Z M 281.6,159.2 L 267.2,152.0 L 267.2,188.0 Z M 281.6,159.2 L 267.2,188.0 L 281.6,190.4 Z M 281.6,190.4 L 267.2,188.0 L 255.2,200.0 Z M 281.6,190.4 L 255.2,200.0 L 257.6,214.4 Z M 252.8,152.0 L 267.2,152.0 L 267.2,113.6 Z M 252.8,152.0 L 267.2,113.6 L 252.8,104.0 Z M 252.8,104.0 L 267.2,113.6 L 267.2,46.4 Z M 252.8,104.0 L 267.2,46.4 L 252.8,62.0 Z M 144.8,34.4 L 147.2,48.8 L 238.4,48.8 Z M 144.8,34.4 L 238.4,48.8 L 238.4,34.4 Z M 238.4,34.4 L 238.4,48.8 L 252.8,48.8 Z M 238.4,34.4 L 252.8,48.8 L 255.2,34.4 Z M 147.2,89.6 L 147.2,48.8 L 132.8,46.4 Z M 147.2,48.8 L 144.8,34.4 L 132.8,46.4 Z M 252.8,62.0 L 267.2,46.4 L 252.8,48.8 Z M 267.2,46.4 L 255.2,34.4 L 252.8,48.8 Z M 106.4,118.4 L 20.0,118.4 L 20.0,132.8 Z M 106.4,118.4 L 20.0,132.8 L 111.2,132.8 Z M 118.4,106.4 L 106.4,118.4 L 111.2,132.8 Z M 118.4,106.4 L 111.2,132.8 L 132.8,111.2 Z M 111.2,132.8 L 118.4,147.2 L 147.2,118.4 Z M 111.2,132.8 L 147.2,118.4 L 132.8,111.2 Z M 132.8,46.4 L 132.8,111.2 L 147.2,118.4 Z M 132.8,46.4 L 147.2,118.4 L 147.2,89.6 Z M 111.2,132.8 L 20.0,132.8 L 20.0,147.2 Z M 111.2,132.8 L 20.0,147.2 L 106.4,147.2 Z M 185.6,226.4 L 185.6,312.8 L 200.0,312.8 Z M 185.6,226.4 L 200.0,312.8 L 200.0,221.6 Z M 200.0,221.6 L 200.0,312.8 L 214.4,312.8 Z M 200.0,221.6 L 214.4,312.8 L 214.4,226.4 Z M 214.4,185.6 L 185.6,214.4 L 200.0,221.6 Z M 214.4,185.6 L 200.0,221.6 L 221.6,200.0 Z M 200.0,221.6 L 214.4,226.4 L 226.4,214.4 Z M 200.0,221.6 L 226.4,214.4 L 221.6,200.0 Z M 288.8,132.8 L 380.0,132.8 L 380.0,118.4 Z M 288.8,132.8 L 380.0,118.4 L 293.6,118.4 Z M 293.6,147.2 L 380.0,147.2 L 380.0,132.8 Z M 293.6,147.2 L 380.0,132.8 L 288.8,132.8 Z M 288.8,132.8 L 293.6,118.4 L 281.6,106.4 Z M 288.8,132.8 L 281.6,106.4 L 267.2,113.6 Z M 281.6,44.0 L 267.2,46.4 L 267.2,113.6 Z M 281.6,44.0 L 267.2,113.6 L 281.6,106.4 Z M 257.6,20.0 L 255.2,34.4 L 267.2,46.4 Z M 257.6,20.0 L 267.2,46.4 L 281.6,44.0 Z M 293.6,147.2 L 288.8,132.8 L 267.2,152.0 Z M 293.6,147.2 L 267.2,152.0 L 281.6,159.2 Z M 257.6,214.4 L 255.2,200.0 L 221.6,200.0 Z M 257.6,214.4 L 221.6,200.0 L 226.4,214.4 Z M 252.8,185.6 L 267.2,188.0 L 267.2,152.0 Z M 252.8,185.6 L 267.2,152.0 L 252.8,152.0 Z M 214.4,185.6 L 221.6,200.0 L 255.2,200.0 Z M 214.4,185.6 L 255.2,200.0 L 238.4,185.6 Z M 118.4,147.2 L 111.2,132.8 L 106.4,147.2 Z M 200.0,221.6 L 185.6,214.4 L 185.6,226.4 Z M 252.8,185.6 L 255.2,200.0 L 267.2,188.0 Z M 255.2,200.0 L 252.8,185.6 L 238.4,185.6 Z" fill="#2a2a4e" stroke="none"/>
  <path d="M 257.6,214.4 L 288.9,245.5 M 312.7,221.8 L 281.6,190.4 M 288.9,245.5 L 299.1,245.5 M 299.1,245.5 L 312.7,231.9 M 312.7,231.9 L 312.7,221.8 M 147.2,214.4 L 161.6,214.4 M 161.6,214.4 L 173.6,214.4 M 118.4,204.8 L 128.0,214.4 M 128.0,214.4 L 147.2,214.4 M 118.4,159.2 L 118.4,204.8 M 173.6,214.4 L 185.6,226.4 M 106.4,147.2 L 118.4,159.2 M 118.4,44.0 L 118.4,106.4 M 142.4,20.0 L 118.4,44.0 M 257.6,20.0 L 238.4,20.0 M 238.4,20.0 L 142.4,20.0 M 281.6,190.4 L 281.6,159.2 M 106.4,118.4 L 20.0,118.4 M 20.0,118.4 L 20.0,132.8 M 118.4,106.4 L 106.4,118.4 M 20.0,132.8 L 20.0,147.2 M 20.0,147.2 L 106.4,147.2 M 185.6,226.4 L 185.6,312.8 M 185.6,312.8 L 200.0,312.8 M 200.0,312.8 L 214.4,312.8 M 214.4,312.8 L 214.4,226.4 M 214.4,226.4 L 226.4,214.4 M 380.0,132.8 L 380.0,118.4 M 380.0,118.4 L 293.6,118.4 M 293.6,147.2 L 380.0,147.2 M 380.0,147.2 L 380.0,132.8 M 293.6,118.4 L 281.6,106.4 M 281.6,106.4 L 281.6,44.0 M 281.6,44.0 L 257.6,20.0 M 281.6,159.2 L 293.6,147.2 M 226.4,214.4 L 257.6,214.4" fill="none" stroke="white" stroke-width="2" stroke-linecap="round"/>
  <polygon points="297.33994814546094,125.22016787712994 305.33994814546094,133.22016787712994 297.33994814546094,141.22016787712994 289.33994814546094,133.22016787712994" fill="#4a9eff" stroke="white" stroke-width="1"/>
<polygon points="103.97164462007494,124.05410400231955 111.97164462007494,132.05410400231955 103.97164462007494,140.05410400231955 95.97164462007494,132.05410400231955" fill="#4a9eff" stroke="white" stroke-width="1"/>
<polygon points="199.66878501583827,222.09605819054195 207.66878501583827,230.09605819054195 199.66878501583827,238.09605819054195 191.66878501583827,230.09605819054195" fill="#4a9eff" stroke="white" stroke-width="1"/>
</svg>