<svg xmlns="http://www.w3.org/2000/svg" viewBox="0 0 400 400">
  <rect width="400" height="400" fill="#1a1a2e"/>
  <path d="M 125.6,296.0 L 125.6,380.0 L 140.0,380.0 Z M 125.6,296.0 L 140.0,380.0 L 140.0,296.0 Z M 154.4,296.0 L 140.0,296.0 L 140.0,380.0 Z M 154.4,296.0 L 140.0,380.0 L 154.4,380.0 Z M 154.4,104.0 L 154.4,20.0 L 140.0,20.0 Z M 154.4,104.0 L 140.0,20.0 L 140.0,104.0 Z M 125.6,104.0 L 140.0,104.0 L 140.0,20.0 Z M 125.6,104.0 L 140.0,20.0 L 125.6,20.0 Z M 209.6,152.0 L 209.6,161.6 L 224.0,161.6 Z M 209.6,152.0 L 224.0,161.6 L 224.0,152.0 Z M 238.4,152.0 L 224.0,152.0 L 224.0,161.6 Z M 238.4,152.0 L 224.0,161.6 L 238.4,161.6 Z M 41.6,152.0 L 41.6,161.6 L 56.0,161.6 Z M 41.6,152.0 L 56.0,161.6 L 56.0,152.0 Z M 70.4,152.0 L 56.0,152.0 L 56.0,161.6 Z M 70.4,152.0 L 56.0,161.6 L 70.4,161.6 Z M 106.4,238.4 L 123.2,276.8 L 123.2,243.2 Z M 106.4,238.4 L 123.2,243.2 L 118.4,226.4 Z M 118.4,226.4 L 123.2,243.2 L 156.8,243.2 Z M 118.4,226.4 L 156.8,243.2 L 161.6,226.4 Z M 173.6,238.4 L 161.6,226.4 L 156.8,243.2 Z M 173.6,238.4 L 156.8,243.2 L 173.6,281.6 Z M 173.6,281.6 L 156.8,243.2 L 156.8,276.8 Z M 173.6,281.6 L 156.8,276.8 L 161.6,293.6 Z M 161.6,293.6 L 156.8,276.8 L 123.2,276.8 Z M 161.6,293.6 L 123.2,276.8 L 118.4,293.6 Z M 118.4,293.6 L 123.2,276.8 L 106.4,238.4 Z M 118.4,293.6 L 106.4,238.4 L 106.4,281.6 Z M 39.2,94.4 L 34.4,82.4 L 22.4,94.4 Z M 39.2,94.4 L 22.4,94.4 L 34.4,99.2 Z M 34.4,99.2 L 22.4,94.4 L 22.4,137.6 Z M 34.4,99.2 L 22.4,137.6 L 34.4,132.8 Z M 34.4,132.8 L 22.4,137.6 L 34.4,149.6 Z M 34.4,132.8 L 34.4,149.6 L 39.2,137.6 Z M 39.2,137.6 L 34.4,149.6 L 77.6,149.6 Z M 39.2,137.6 L 77.6,149.6 L 72.8,137.6 Z M 72.8,137.6 L 77.6,149.6 L 89.6,137.6 Z M 72.8,137.6 L 89.6,137.6 L 77.6,132.8 Z M 77.6,132.8 L 89.6,137.6 L 89.6,94.4 Z M 77.6,132.8 L 89.6,94.4 L 77.6,99.2 Z M 77.6,99.2 L 89.6,94.4 L 77.6,82.4 Z M 77.6,99.2 L 77.6,82.4 L 72.8,94.4 Z M 72.8,94.4 L 77.6,82.4 L 34.4,82.4 Z M 72.8,94.4 L 34.4,82.4 L 39.2,94.4 Z M 207.2,94.4 L 202.4,82.4 L 190.4,94.4 Z M 207.2,94.4 L 190.4,94.4 L 202.4,99.2 Z M 202.4,99.2 L 190.4,94.4 L 190.4,137.6 Z M 202.4,99.2 L 190.4,137.6 L 202.4,132.8 Z M 202.4,132.8 L 190.4,137.6 L 202.4,149.6 Z M 202.4,132.8 L 202.4,149.6 L 207.2,137.6 Z M 207.2,137.6 L 202.4,149.6 L 245.6,149.6 Z M 207.2,137.6 L 245.6,149.6 L 240.8,137.6 Z M 240.8,137.6 L 245.6,149.6 L 257.6,137.6 Z M 240.8,137.6 L 257.6,137.6 L 245.6,132.8 Z M 245.6,132.8 L 257.6,137.6 L 257.6,94.4 Z M 245.6,132.8 L 257.6,94.4 L 245.6,99.2 Z M 245.6,99.2 L 257.6,94.4 L 245.6,82.4 Z M 245.6,99.2 L 245.6,82.4 L 240.8,94.4 Z M 240.8,94.4 L 245.6,82.4 L 202.4,82.4 Z M 240.8,94.4 L 202.4,82.4 L 207.2,94.4 Z M 24.8,164.0 L 38.0,179.6 L 140.0,178.4 Z M 24.8,164.0 L 140.0,178.4 L 140.0,164.0 Z M 140.0,164.0 L 140.0,178.4 L 242.0,179.6 Z M 140.0,164.0 L 242.0,179.6 L 255.2,164.0 Z M 255.2,236.0 L 242.0,220.4 L 140.0,221.6 Z M 255.2,236.0 L 140.0,221.6 L 140.0,236.0 Z M 140.0,236.0 L 140.0,221.6 L 38.0,220.4 Z M 140.0,236.0 L 38.0,220.4 L 24.8,236.0 Z M 106.4,118.4 L 123.2,156.8 L 123.2,123.2 Z M 106.4,118.4 L 123.2,123.2 L 118.4,106.4 Z M 118.4,106.4 L 123.2,123.2 L 156.8,123.2 Z M 118.4,106.4 L 156.8,123.2 L 161.6,106.4 Z M 173.6,118.4 L 161.6,106.4 L 156.8,123.2 Z M 173.6,118.4 L 156.8,123.2 L 173.6,161.6 Z M 173.6,161.6 L 156.8,123.2 L 156.8,156.8 Z M 173.6,161.6 L 156.8,156.8 L 161.6,173.6 Z M 161.6,173.6 L 156.8,156.8 L 123.2,156.8 Z M 161.6,173.6 L 123.2,156.8 L 118.4,173.6 Z M 118.4,173.6 L 123.2,156.8 L 106.4,118.4 Z M 118.4,173.6 L 106.4,118.4 L 106.4,161.6 Z M 140.0,221.6 L 242.0,220.4 L 140.0,200.0 Z M 242.0,220.4 L 242.0,179.6 L 140.0,200.0 Z M 140.0,200.0 L 242.0,179.6 L 140.0,178.4 Z M 140.0,178.4 L 38.0,179.6 L 140.0,200.0 Z M 38.0,179.6 L 38.0,220.4 L 140.0,200.0 Z M 140.0,200.0 L 38.0,220.4 L 140.0,221.6 Z M 156.8,243.2 L 123.2,243.2 L 123.2,276.8 Z M 156.8,243.2 L 123.2,276.8 L 156.8,276.8 Z M 257.6,166.4 L 242.0,179.6 L 242.0,220.4 Z M 257.6,166.4 L 242.0,220.4 L 257.6,233.6 Z M 22.4,233.6 L 38.0,220.4 L 38.0,179.6 Z M 22.4,233.6 L 38.0,179.6 L 22.4,166.4 Z M 156.8,123.2 L 123.2,123.2 L 123.2,156.8 Z M 156.8,123.2 L 123.2,156.8 L 156.8,156.8 Z M 242.0,179.6 L 257.6,166.4 L 255.2,164.0 Z M 38.0,179.6 L 24.8,164.0 L 22.4,166.4 Z M 38.0,220.4 L 22.4,233.6 L 24.8,236.0 Z M 242.0,220.4 L 255.2,236.0 L 257.6,233.6 Z M 176.0,238.4 L 173.6,238.4 L 173.6,281.6 Z M 176.0,238.4 L 173.6,281.6 L 176.0,281.6 Z M 176.0,281.6 L 173.6,281.6 L 161.6,293.6 Z M 176.0,281.6 L 161.6,293.6 L 161.6,296.0 Z M 161.6,296.0 L 161.6,293.6 L 118.4,293.6 Z M 161.6,296.0 L 118.4,293.6 L 118.4,296.0 Z M 118.4,296.0 L 118.4,293.6 L 106.4,281.6 Z M 118.4,296.0 L 106.4,281.6 L 104.0,281.6 Z M 173.6,238.4 L 176.0,238.4 L 161.6,224.0 Z M 173.6,238.4 L 161.6,224.0 L 161.6,226.4 Z M 161.6,226.4 L 161.6,224.0 L 118.4,224.0 Z M 161.6,226.4 L 118.4,224.0 L 118.4,226.4 Z M 118.4,226.4 L 118.4,224.0 L 104.0,238.4 Z M 118.4,226.4 L 104.0,238.4 L 106.4,238.4 Z M 106.4,238.4 L 104.0,238.4 L 104.0,281.6 Z M 106.4,238.4 L 104.0,281.6 L 106.4,281.6 Z M 92.0,94.4 L 89.6,94.4 L 89.6,137.6 Z M 92.0,94.4 L 89.6,137.6 L 92.0,137.6 Z M 92.0,137.6 L 89.6,137.6 L 77.6,149.6 Z M 92.0,137.6 L 77.6,149.6 L 77.6,152.0 Z M 77.6,152.0 L 77.6,149.6 L 34.4,149.6 Z M 77.6,152.0 L 34.4,149.6 L 34.4,152.0 Z M 34.4,152.0 L 34.4,149.6 L 22.4,137.6 Z M 34.4,152.0 L 22.4,137.6 L 20.0,137.6 Z M 89.6,94.4 L 92.0,94.4 L 77.6,80.0 Z M 89.6,94.4 L 77.6,80.0 L 77.6,82.4 Z M 77.6,82.4 L 77.6,80.0 L 34.4,80.0 Z M 77.6,82.4 L 34.4,80.0 L 34.4,82.4 Z M 34.4,82.4 L 34.4,80.0 L 20.0,94.4 Z M 34.4,82.4 L 20.0,94.4 L 22.4,94.4 Z M 22.4,94.4 L 20.0,94.4 L 20.0,137.6 Z M 22.4,94.4 L 20.0,137.6 L 22.4,137.6 Z M 260.0,94.4 L 257.6,94.4 L 257.6,137.6 Z M 260.0,94.4 L 257.6,137.6 L 260.0,137.6 Z M 260.0,137.6 L 257.6,137.6 L 245.6,149.6 Z M 260.0,137.6 L 245.6,149.6 L 245.6,152.0 Z M 245.6,152.0 L 245.6,149.6 L 202.4,149.6 Z M 245.6,152.0 L 202.4,149.6 L 202.4,152.0 Z M 202.4,152.0 L 202.4,149.6 L 190.4,137.6 Z M 202.4,152.0 L 190.4,137.6 L 188.0,137.6 Z M 257.6,94.4 L 260.0,94.4 L 245.6,80.0 Z M 257.6,94.4 L 245.6,80.0 L 245.6,82.4 Z M 245.6,82.4 L 245.6,80.0 L 202.4,80.0 Z M 245.6,82.4 L 202.4,80.0 L 202.4,82.4 Z M 202.4,82.4 L 202.4,80.0 L 188.0,94.4 Z M 202.4,82.4 L 188.0,94.4 L 190.4,94.4 Z M 190.4,94.4 L 188.0,94.4 L 188.0,137.6 Z M 190.4,94.4 L 188.0,137.6 L 190.4,137.6 Z M 257.6,161.6 L 255.2,164.0 L 257.6,166.4 Z M 257.6,161.6 L 257.6,166.4 L 260.0,164.0 Z M 260.0,164.0 L 257.6,166.4 L 257.6,233.6 Z M 260.0,164.0 L 257.6,233.6 L 260.0,236.0 Z M 260.0,236.0 L 257.6,233.6 L 255.2,236.0 Z M 260.0,236.0 L 255.2,236.0 L 257.6,238.4 Z M 24.8,164.0 L 22.4,161.6 L 20.0,164.0 Z M 24.8,164.0 L 20.0,164.0 L 22.4,166.4 Z M 22.4,166.4 L 20.0,164.0 L 20.0,236.0 Z M 22.4,166.4 L 20.0,236.0 L 22.4,233.6 Z M 22.4,233.6 L 20.0,236.0 L 22.4,238.4 Z M 22.4,233.6 L 22.4,238.4 L 24.8,236.0 Z M 176.0,118.4 L 173.6,118.4 L 173.6,161.6 Z M 176.0,118.4 L 173.6,161.6 L 176.0,161.6 Z M 176.0,161.6 L 173.6,161.6 L 161.6,173.6 Z M 176.0,161.6 L 161.6,173.6 L 161.6,176.0 Z M 161.6,176.0 L 161.6,173.6 L 118.4,173.6 Z M 161.6,176.0 L 118.4,173.6 L 118.4,176.0 Z M 118.4,176.0 L 118.4,173.6 L 106.4,161.6 Z M 118.4,176.0 L 106.4,161.6 L 104.0,161.6 Z M 173.6,118.4 L 176.0,118.4 L 161.6,104.0 Z M 173.6,118.4 L 161.6,104.0 L 161.6,106.4 Z M 161.6,106.4 L 161.6,104.0 L 118.4,104.0 Z M 161.6,106.4 L 118.4,104.0 L 118.4,106.4 Z M 118.4,106.4 L 118.4,104.0 L 104.0,118.4 Z M 118.4,106.4 L 104.0,118.4 L 106.4,118.4 Z M 106.4,118.4 L 104.0,118.4 L 104.0,161.6 Z M 106.4,118.4 L 104.0,161.6 L 106.4,161.6 Z M 140.0,164.0 L 255.2,164.0 L 257.6,161.6 Z M 140.0,164.0 L 257.6,161.6 L 163.5,161.6 Z M 140.0,236.0 L 24.8,236.0 L 22.4,238.4 Z M 140.0,236.0 L 22.4,238.4 L 116.5,238.4 Z M 22.4,161.6 L 24.8,164.0 L 140.0,164.0 Z M 22.4,161.6 L 140.0,164.0 L 116.5,161.6 Z M 257.6,238.4 L 255.2,236.0 L 140.0,236.0 Z M 257.6,238.4 L 140.0,236.0 L 163.5,238.4 Z M 163.5,161.6 L 116.5,161.6 L 140.0,164.0 Z M 116.5,238.4 L 163.5,238.4 L 140.0,236.0 Z M 34.4,99.2 L 34.4,132.8 L 39.2,137.6 Z M 34.4,99.2 L 39.2,137.6 L 39.2,94.4 Z M 39.2,94.4 L 39.2,137.6 L 72.8,137.6 Z M 39.2,94.4 L 72.8,137.6 L 72.8,94.4 Z M 72.8,94.4 L 72.8,137.6 L 77.6,132.8 Z M 72.8,94.4 L 77.6,132.8 L 77.6,99.2 Z M 202.4,99.2 L 202.4,132.8 L 207.2,137.6 Z M 202.4,99.2 L 207.2,137.6 L 207.2,94.4 Z M 207.2,94.4 L 207.2,137.6 L 240.8,137.6 Z M 207.2,94.4 L 240.8,137.6 L 240.8,94.4 Z M 240.8,94.4 L 240.8,137.6 L 245.6,132.8 Z M 240.8,94.4 L 245.6,132.8 L 245.6,99.2 Z" fill="#2a2a4e" stroke="none"/>
  <path d="M 125.6,296.0 L 125.6,380.0 M 125.6,380.0 L 140.0,380.0 M 140.0,296.0 L 125.6,296.0 M 154.4,296.0 L 140.0,296.0 M 140.0,380.0 L 154.4,380.0 M 154.4,380.0 L 154.4,296.0 M 154.4,104.0 L 154.4,20.0 M 154.4,20.0 L 140.0,20.0 M 140.0,104.0 L 154.4,104.0 M 125.6,104.0 L 140.0,104.0 M 140.0,20.0 L 125.6,20.0 M 125.6,20.0 L 125.6,104.0 M 209.6,152.0 L 209.6,161.6 M 209.6,161.6 L 224.0,161.6 M 224.0,152.0 L 209.6,152.0 M 238.4,152.0 L 224.0,152.0 M 224.0,161.6 L 238.4,161.6 M 238.4,161.6 L 238.4,152.0 M 41.6,152.0 L 41.6,161.6 M 41.6,161.6 L 56.0,161.6 M 56.0,152.0 L 41.6,152.0 M 70.4,152.0 L 56.0,152.0 M 56.0,161.6 L 70.4,161.6 M 70.4,161.6 L 70.4,152.0 M 176.0,281.6 L 176.0,238.4 M 161.6,296.0 L 176.0,281.6 M 118.4,296.0 L 161.6,296.0 M 104.0,281.6 L 118.4,296.0 M 176.0,238.4 L 161.6,224.0 M 161.6,224.0 L 118.4,224.0 M 118.4,224.0 L 104.0,238.4 M 104.0,238.4 L 104.0,281.6 M 92.0,137.6 L 92.0,94.4 M 77.6,152.0 L 92.0,137.6 M 34.4,152.0 L 77.6,152.0 M 20.0,137.6 L 34.4,152.0 M 92.0,94.4 L 77.6,80.0 M 77.6,80.0 L 34.4,80.0 M 34.4,80.0 L 20.0,94.4 M 20.0,94.4 L 20.0,137.6 M 260.0,137.6 L 260.0,94.4 M 245.6,152.0 L 260.0,137.6 M 202.4,152.0 L 245.6,152.0 M 188.0,137.6 L 202.4,152.0 M 260.0,94.4 L 245.6,80.0 M 245.6,80.0 L 202.4,80.0 M 202.4,80.0 L 188.0,94.4 M 188.0,94.4 L 188.0,137.6 M 260.0,164.0 L 257.6,161.6 M 260.0,236.0 L 260.0,164.0 M 257.6,238.4 L 260.0,236.0 M 22.4,161.6 L 20.0,164.0 M 20.0,164.0 L 20.0,236.0 M 20.0,236.0 L 22.4,238.4 M 176.0,161.6 L 176.0,118.4 M 161.6,176.0 L 176.0,161.6 M 118.4,176.0 L 161.6,176.0 M 104.0,161.6 L 118.4,176.0 M 176.0,118.4 L 161.6,104.0 M 161.6,104.0 L 118.4,104.0 M 118.4,104.0 L 104.0,118.4 M 104.0,118.4 L 104.0,161.6 M 257.6,161.6 L 163.5,161.6 M 22.4,238.4 L 116.5,238.4 M 116.5,161.6 L 22.4,161.6 M 163.5,238.4 L 257.6,238.4 M 163.5,161.6 L 116.5,161.6 M 116.5,238.4 L 163.5,238.4" fill="none" stroke="white" stroke-width="2" stroke-linecap="round"/>
  <polygon points="137.06215581318276,94.30027897737487 145.06215581318276,102.30027897737487 137.06215581318276,110.30027897737487 129.06215581318276,102.30027897737487" fill="#4a9eff" stroke="white" stroke-width="1"/>
<polygon points="138.08662979755763,291.4334880788144 146.08662979755763,299.4334880788144 138.08662979755763,307.4334880788144 130.08662979755763,299.4334880788144" fill="#4a9eff" stroke="white" stroke-width="1"/>
</svg>