<svg xmlns="http://www.w3.org/2000/svg" viewBox="0 0 400 400">
  <rect width="400" height="400" fill="#1a1a2e"/>
  <path d="M 56.0,224.0 L 70.4,224.0 L 56.0,200.0 Z M 70.4,224.0 L 70.4,176.0 L 56.0,200.0 Z M 56.0,200.0 L 70.4,176.0 L 56.0,176.0 Z M 56.0,176.0 L 41.6,176.0 L 56.0,200.0 Z M 41.6,176.0 L 41.6,224.0 L 56.0,200.0 Z M 56.0,200.0 L 41.6,224.0 L 56.0,224.0 Z M 200.0,224.0 L 214.4,224.0 L 200.0,200.0 Z M 214.4,224.0 L 214.4,176.0 L 200.0,200.0 Z M 200.0,200.0 L 214.4,176.0 L 200.0,176.0 Z M 200.0,176.0 L 185.6,176.0 L 200.0,200.0 Z M 185.6,176.0 L 185.6,224.0 L 200.0,200.0 Z M 200.0,200.0 L 185.6,224.0 L 200.0,224.0 Z M 113.6,296.0 L 113.6,380.0 L 128.0,380.0 Z M 113.6,296.0 L 128.0,380.0 L 128.0,296.0 Z M 142.4,296.0 L 128.0,296.0 L 128.0,380.0 Z M 142.4,296.0 L 128.0,380.0 L 142.4,380.0 Z M 142.4,104.0 L 142.4,20.0 L 128.0,20.0 Z M 142.4,104.0 L 128.0,20.0 L 128.0,104.0 Z M 113.6,104.0 L 128.0,104.0 L 128.0,20.0 Z M 113.6,104.0 L 128.0,20.0 L 113.6,20.0 Z M 111.2,238.4 L 106.4,226.4 L 94.4,238.4 Z M 111.2,238.4 L 94.4,238.4 L 106.4,243.2 Z M 106.4,243.2 L 94.4,238.4 L 94.4,281.6 Z M 106.4,243.2 L 94.4,281.6 L 106.4,276.8 Z M 106.4,276.8 L 94.4,281.6 L 106.4,293.6 Z M 106.4,276.8 L 106.4,293.6 L 111.2,281.6 Z M 111.2,281.6 L 106.4,293.6 L 149.6,293.6 Z M 111.2,281.6 L 149.6,293.6 L 144.8,281.6 Z M 144.8,281.6 L 149.6,293.6 L 161.6,281.6 Z M 144.8,281.6 L 161.6,281.6 L 149.6,276.8 Z M 149.6,276.8 L 161.6,281.6 L 161.6,238.4 Z M 149.6,276.8 L 161.6,238.4 L 149.6,243.2 Z M 149.6,243.2 L 161.6,238.4 L 149.6,226.4 Z M 149.6,243.2 L 149.6,226.4 L 144.8,238.4 Z M 144.8,238.4 L 149.6,226.4 L 106.4,226.4 Z M 144.8,238.4 L 106.4,226.4 L 111.2,238.4 Z M 144.8,161.6 L 149.6,173.6 L 161.6,161.6 Z M 144.8,161.6 L 161.6,161.6 L 149.6,156.8 Z M 149.6,156.8 L 161.6,161.6 L 161.6,118.4 Z M 149.6,156.8 L 161.6,118.4 L 149.6,123.2 Z M 149.6,123.2 L 161.6,118.4 L 149.6,106.4 Z M 149.6,123.2 L 149.6,106.4 L 144.8,118.4 Z M 144.8,118.4 L 149.6,106.4 L 106.4,106.4 Z M 144.8,118.4 L 106.4,106.4 L 111.2,118.4 Z M 111.2,118.4 L 106.4,106.4 L 94.4,118.4 Z M 111.2,118.4 L 94.4,118.4 L 106.4,123.2 Z M 106.4,123.2 L 94.4,118.4 L 94.4,161.6 Z M 106.4,123.2 L 94.4,161.6 L 106.4,156.8 Z M 106.4,156.8 L 94.4,161.6 L 106.4,173.6 Z M 106.4,156.8 L 106.4,173.6 L 111.2,161.6 Z M 111.2,161.6 L 106.4,173.6 L 149.6,173.6 Z M 111.2,161.6 L 149.6,173.6 L 144.8,161.6 Z M 22.4,118.4 L 39.2,156.8 L 39.2,123.2 Z M 22.4,118.4 L 39.2,123.2 L 34.4,106.4 Z M 34.4,106.4 L 39.2,123.2 L 72.8,123.2 Z M 34.4,106.4 L 72.8,123.2 L 77.6,106.4 Z M 89.6,118.4 L 77.6,106.4 L 72.8,123.2 Z M 89.6,118.4 L 72.8,123.2 L 89.6,161.6 Z M 89.6,161.6 L 72.8,123.2 L 72.8,156.8 Z M 89.6,161.6 L 72.8,156.8 L 77.6,173.6 Z M 77.6,173.6 L 72.8,156.8 L 39.2,156.8 Z M 77.6,173.6 L 39.2,156.8 L 34.4,173.6 Z M 34.4,173.6 L 39.2,156.8 L 22.4,118.4 Z M 34.4,173.6 L 22.4,118.4 L 22.4,161.6 Z M 22.4,238.4 L 39.2,276.8 L 39.2,243.2 Z M 22.4,238.4 L 39.2,243.2 L 34.4,226.4 Z M 34.4,226.4 L 39.2,243.2 L 72.8,243.2 Z M 34.4,226.4 L 72.8,243.2 L 77.6,226.4 Z M 89.6,238.4 L 77.6,226.4 L 72.8,243.2 Z M 89.6,238.4 L 72.8,243.2 L 89.6,281.6 Z M 89.6,281.6 L 72.8,243.2 L 72.8,276.8 Z M 89.6,281.6 L 72.8,276.8 L 77.6,293.6 Z M 77.6,293.6 L 72.8,276.8 L 39.2,276.8 Z M 77.6,293.6 L 39.2,276.8 L 34.4,293.6 Z M 34.4,293.6 L 39.2,276.8 L 22.4,238.4 Z M 34.4,293.6 L 22.4,238.4 L 22.4,281.6 Z M 233.6,161.6 L 216.8,123.2 L 216.8,156.8 Z M 233.6,161.6 L 216.8,156.8 L 221.6,173.6 Z M 221.6,173.6 L 216.8,156.8 L 183.2,156.8 Z M 221.6,173.6 L 183.2,156.8 L 178.4,173.6 Z M 166.4,161.6 L 178.4,173.6 L 183.2,156.8 Z M 166.4,161.6 L 183.2,156.8 L 166.4,118.4 Z M 166.4,118.4 L 183.2,156.8 L 183.2,123.2 Z M 166.4,118.4 L 183.2,123.2 L 178.4,106.4 Z M 178.4,106.4 L 183.2,123.2 L 216.8,123.2 Z M 178.4,106.4 L 216.8,123.2 L 221.6,106.4 Z M 221.6,106.4 L 216.8,123.2 L 233.6,161.6 Z M 221.6,106.4 L 233.6,161.6 L 233.6,118.4 Z M 233.6,281.6 L 216.8,243.2 L 216.8,276.8 Z M 233.6,281.6 L 216.8,276.8 L 221.6,293.6 Z M 221.6,293.6 L 216.8,276.8 L 183.2,276.8 Z M 221.6,293.6 L 183.2,276.8 L 178.4,293.6 Z M 166.4,281.6 L 178.4,293.6 L 183.2,276.8 Z M 166.4,281.6 L 183.2,276.8 L 166.4,238.4 Z M 166.4,238.4 L 183.2,276.8 L 183.2,243.2 Z M 166.4,238.4 L 183.2,243.2 L 178.4,226.4 Z M 178.4,226.4 L 183.2,243.2 L 216.8,243.2 Z M 178.4,226.4 L 216.8,243.2 L 221.6,226.4 Z M 221.6,226.4 L 216.8,243.2 L 233.6,281.6 Z M 221.6,226.4 L 233.6,281.6 L 233.6,238.4 Z M 72.8,123.2 L 39.2,123.2 L 39.2,156.8 Z M 72.8,123.2 L 39.2,156.8 L 72.8,156.8 Z M 72.8,243.2 L 39.2,243.2 L 39.2,276.8 Z M 72.8,243.2 L 39.2,276.8 L 72.8,276.8 Z M 183.2,156.8 L 216.8,156.8 L 216.8,123.2 Z M 183.2,156.8 L 216.8,123.2 L 183.2,123.2 Z M 183.2,276.8 L 216.8,276.8 L 216.8,243.2 Z M 183.2,276.8 L 216.8,243.2 L 183.2,243.2 Z M 164.0,238.4 L 161.6,238.4 L 161.6,281.6 Z M 164.0,238.4 L 161.6,281.6 L 164.0,281.6 Z M 164.0,281.6 L 161.6,281.6 L 149.6,293.6 Z M 164.0,281.6 L 149.6,293.6 L 149.6,296.0 Z M 149.6,296.0 L 149.6,293.6 L 106.4,293.6 Z M 149.6,296.0 L 106.4,293.6 L 106.4,296.0 Z M 106.4,296.0 L 106.4,293.6 L 94.4,281.6 Z M 106.4,296.0 L 94.4,281.6 L 92.0,281.6 Z M 161.6,238.4 L 164.0,238.4 L 149.6,224.0 Z M 161.6,238.4 L 149.6,224.0 L 149.6,226.4 Z M 149.6,226.4 L 149.6,224.0 L 106.4,224.0 Z M 149.6,226.4 L 106.4,224.0 L 106.4,226.4 Z M 106.4,226.4 L 106.4,224.0 L 92.0,238.4 Z M 106.4,226.4 L 92.0,238.4 L 94.4,238.4 Z M 94.4,238.4 L 92.0,238.4 L 92.0,281.6 Z M 94.4,238.4 L 92.0,281.6 L 94.4,281.6 Z M 92.0,161.6 L 94.4,161.6 L 94.4,118.4 Z M 92.0,161.6 L 94.4,118.4 L 92.0,118.4 Z M 92.0,118.4 L 94.4,118.4 L 106.4,106.4 Z M 92.0,118.4 L 106.4,106.4 L 106.4,104.0 Z M 106.4,104.0 L 106.4,106.4 L 149.6,106.4 Z M 106.4,104.0 L 149.6,106.4 L 149.6,104.0 Z M 149.6,104.0 L 149.6,106.4 L 161.6,118.4 Z M 149.6,104.0 L 161.6,118.4 L 164.0,118.4 Z M 94.4,161.6 L 92.0,161.6 L 106.4,176.0 Z M 94.4,161.6 L 106.4,176.0 L 106.4,173.6 Z M 106.4,173.6 L 106.4,176.0 L 149.6,176.0 Z M 106.4,173.6 L 149.6,176.0 L 149.6,173.6 Z M 149.6,173.6 L 149.6,176.0 L 164.0,161.6 Z M 149.6,173.6 L 164.0,161.6 L 161.6,161.6 Z M 161.6,161.6 L 164.0,161.6 L 164.0,118.4 Z M 161.6,161.6 L 164.0,118.4 L 161.6,118.4 Z M 92.0,118.4 L 89.6,118.4 L 89.6,161.6 Z M 92.0,118.4 L 89.6,161.6 L 92.0,161.6 Z M 92.0,161.6 L 89.6,161.6 L 77.6,173.6 Z M 92.0,161.6 L 77.6,173.6 L 77.6,176.0 Z M 77.6,176.0 L 77.6,173.6 L 34.4,173.6 Z M 77.6,176.0 L 34.4,173.6 L 34.4,176.0 Z M 34.4,176.0 L 34.4,173.6 L 22.4,161.6 Z M 34.4,176.0 L 22.4,161.6 L 20.0,161.6 Z M 89.6,118.4 L 92.0,118.4 L 77.6,104.0 Z M 89.6,118.4 L 77.6,104.0 L 77.6,106.4 Z M 77.6,106.4 L 77.6,104.0 L 34.4,104.0 Z M 77.6,106.4 L 34.4,104.0 L 34.4,106.4 Z M 34.4,106.4 L 34.4,104.0 L 20.0,118.4 Z M 34.4,106.4 L 20.0,118.4 L 22.4,118.4 Z M 22.4,118.4 L 20.0,118.4 L 20.0,161.6 Z M 22.4,118.4 L 20.0,161.6 L 22.4,161.6 Z M 92.0,238.4 L 89.6,238.4 L 89.6,281.6 Z M 92.0,238.4 L 89.6,281.6 L 92.0,281.6 Z M 92.0,281.6 L 89.6,281.6 L 77.6,293.6 Z M 92.0,281.6 L 77.6,293.6 L 77.6,296.0 Z M 77.6,296.0 L 77.6,293.6 L 34.4,293.6 Z M 77.6,296.0 L 34.4,293.6 L 34.4,296.0 Z M 34.4,296.0 L 34.4,293.6 L 22.4,281.6 Z M 34.4,296.0 L 22.4,281.6 L 20.0,281.6 Z M 89.6,238.4 L 92.0,238.4 L 77.6,224.0 Z M 89.6,238.4 L 77.6,224.0 L 77.6,226.4 Z M 77.6,226.4 L 77.6,224.0 L 34.4,224.0 Z M 77.6,226.4 L 34.4,224.0 L 34.4,226.4 Z M 34.4,226.4 L 34.4,224.0 L 20.0,238.4 Z M 34.4,226.4 L 20.0,238.4 L 22.4,238.4 Z M 22.4,238.4 L 20.0,238.4 L 20.0,281.6 Z M 22.4,238.4 L 20.0,281.6 L 22.4,281.6 Z M 164.0,161.6 L 166.4,161.6 L 166.4,118.4 Z M 164.0,161.6 L 166.4,118.4 L 164.0,118.4 Z M 164.0,118.4 L 166.4,118.4 L 178.4,106.4 Z M 164.0,118.4 L 178.4,106.4 L 178.4,104.0 Z M 178.4,104.0 L 178.4,106.4 L 221.6,106.4 Z M 178.4,104.0 L 221.6,106.4 L 221.6,104.0 Z M 221.6,104.0 L 221.6,106.4 L 233.6,118.4 Z M 221.6,104.0 L 233.6,118.4 L 236.0,118.4 Z M 166.4,161.6 L 164.0,161.6 L 178.4,176.0 Z M 166.4,161.6 L 178.4,176.0 L 178.4,173.6 Z M 178.4,173.6 L 178.4,176.0 L 221.6,176.0 Z M 178.4,173.6 L 221.6,176.0 L 221.6,173.6 Z M 221.6,173.6 L 221.6,176.0 L 236.0,161.6 Z M 221.6,173.6 L 236.0,161.6 L 233.6,161.6 Z M 233.6,161.6 L 236.0,161.6 L 236.0,118.4 Z M 233.6,161.6 L 236.0,118.4 L 233.6,118.4 Z M 164.0,281.6 L 166.4,281.6 L 166.4,238.4 Z M 164.0,281.6 L 166.4,238.4 L 164.0,238.4 Z M 164.0,238.4 L 166.4,238.4 L 178.4,226.4 Z M 164.0,238.4 L 178.4,226.4 L 178.4,224.0 Z M 178.4,224.0 L 178.4,226.4 L 221.6,226.4 Z M 178.4,224.0 L 221.6,226.4 L 221.6,224.0 Z M 221.6,224.0 L 221.6,226.4 L 233.6,238.4 Z M 221.6,224.0 L 233.6,238.4 L 236.0,238.4 Z M 166.4,281.6 L 164.0,281.6 L 178.4,296.0 Z M 166.4,281.6 L 178.4,296.0 L 178.4,293.6 Z M 178.4,293.6 L 178.4,296.0 L 221.6,296.0 Z M 178.4,293.6 L 221.6,296.0 L 221.6,293.6 Z M 221.6,293.6 L 221.6,296.0 L 236.0,281.6 Z M 221.6,293.6 L 236.0,281.6 L 233.6,281.6 Z M 233.6,281.6 L 236.0,281.6 L 236.0,238.4 Z M 233.6,281.6 L 236.0,238.4 L 233.6,238.4 Z M 106.4,123.2 L 106.4,156.8 L 111.2,161.6 Z M 106.4,123.2 L 111.2,161.6 L 111.2,118.4 Z M 111.2,118.4 L 111.2,161.6 L 144.8,161.6 Z M 111.2,118.4 L 144.8,161.6 L 144.8,118.4 Z M 144.8,118.4 L 144.8,161.6 L 149.6,156.8 Z M 144.8,118.4 L 149.6,156.8 L 149.6,123.2 Z M 106.4,243.2 L 106.4,276.8 L 111.2,281.6 Z M 106.4,243.2 L 111.2,281.6 L 111.2,238.4 Z M 111.2,238.4 L 111.2,281.6 L 144.8,281.6 Z M 111.2,238.4 L 144.8,281.6 L 144.8,238.4 Z M 144.8,238.4 L 144.8,281.6 L 149.6,276.8 Z M 144.8,238.4 L 149.6,276.8 L 149.6,243.2 Z" fill="#2a2a4e" stroke="none"/>
  <path d="M 56.0,224.0 L 70.4,224.0 M 70.4,224.0 L 70.4,176.0 M 70.4,176.0 L 56.0,176.0 M 56.0,176.0 L 41.6,176.0 M 41.6,176.0 L 41.6,224.0 M 41.6,224.0 L 56.0,224.0 M 200.0,224.0 L 214.4,224.0 M 214.4,224.0 L 214.4,176.0 M 214.4,176.0 L 200.0,176.0 M 200.0,176.0 L 185.6,176.0 M 185.6,176.0 L 185.6,224.0 M 185.6,224.0 L 200.0,224.0 M 113.6,296.0 L 113.6,380.0 M 113.6,380.0 L 128.0,380.0 M 128.0,296.0 L 113.6,296.0 M 142.4,296.0 L 128.0,296.0 M 128.0,380.0 L 142.4,380.0 M 142.4,380.0 L 142.4,296.0 M 142.4,104.0 L 142.4,20.0 M 142.4,20.0 L 128.0,20.0 M 128.0,104.0 L 142.4,104.0 M 113.6,104.0 L 128.0,104.0 M 128.0,20.0 L 113.6,20.0 M 113.6,20.0 L 113.6,104.0 M 149.6,296.0 L 164.0,281.6 M 106.4,296.0 L 149.6,296.0 M 92.0,281.6 L 106.4,296.0 M 164.0,238.4 L 149.6,224.0 M 149.6,224.0 L 106.4,224.0 M 106.4,224.0 L 92.0,238.4 M 106.4,104.0 L 92.0,118.4 M 149.6,104.0 L 106.4,104.0 M 164.0,118.4 L 149.6,104.0 M 92.0,161.6 L 106.4,176.0 M 106.4,176.0 L 149.6,176.0 M 149.6,176.0 L 164.0,161.6 M 77.6,176.0 L 92.0,161.6 M 34.4,176.0 L 77.6,176.0 M 20.0,161.6 L 34.4,176.0 M 92.0,118.4 L 77.6,104.0 M 77.6,104.0 L 34.4,104.0 M 34.4,104.0 L 20.0,118.4 M 20.0,118.4 L 20.0,161.6 M 77.6,296.0 L 92.0,281.6 M 34.4,296.0 L 77.6,296.0 M 20.0,281.6 L 34.4,296.0 M 92.0,238.4 L 77.6,224.0 M 77.6,224.0 L 34.4,224.0 M 34.4,224.0 L 20.0,238.4 M 20.0,238.4 L 20.0,281.6 M 178.4,104.0 L 164.0,118.4 M 221.6,104.0 L 178.4,104.0 M 236.0,118.4 L 221.6,104.0 M 164.0,161.6 L 178.4,176.0 M 178.4,176.0 L 221.6,176.0 M 221.6,176.0 L 236.0,161.6 M 236.0,161.6 L 236.0,118.4 M 178.4,224.0 L 164.0,238.4 M 221.6,224.0 L 178.4,224.0 M 236.0,238.4 L 221.6,224.0 M 164.0,281.6 L 178.4,296.0 M 178.4,296.0 L 221.6,296.0 M 221.6,296.0 L 236.0,281.6 M 236.0,281.6 L 236.0,238.4" fill="none" stroke="white" stroke-width="2" stroke-linecap="round"/>
  <polygon points="124.63331325980334,94.4109183290262 132.63331325980334,102.4109183290262 124.63331325980334,110.4109183290262 116.63331325980334,102.4109183290262" fill="#4a9eff" stroke="white" stroke-width="1"/>
<polygon points="124.90377128177694,292.4907276846779 132.90377128177693,300.4907276846779 124.90377128177694,308.4907276846779 116.90377128177694,300.4907276846779" fill="#4a9eff" stroke="white" stroke-width="1"/>
</svg>