<svg xmlns="http://www.w3.org/2000/svg" viewBox="0 0 400 400">
  <rect width="400" height="400" fill="#1a1a2e"/>
  <path d="M 281.6,159.2 L 267.2,154.4 L 267.2,188.0 Z M 281.6,159.2 L 267.2,188.0 L 281.6,190.4 Z M 281.6,190.4 L 267.2,188.0 L 255.2,200.0 Z M 281.6,190.4 L 255.2,200.0 L 257.6,214.4 Z M 257.6,214.4 L 255.2,200.0 L 219.2,200.0 Z M 257.6,214.4 L 219.2,200.0 L 226.4,214.4 Z M 173.6,214.4 L 180.8,200.0 L 144.8,200.0 Z M 173.6,214.4 L 144.8,200.0 L 142.4,214.4 Z M 142.4,214.4 L 144.8,200.0 L 132.8,188.0 Z M 142.4,214.4 L 132.8,188.0 L 118.4,190.4 Z M 118.4,118.4 L 111.2,132.8 L 132.8,154.4 Z M 118.4,118.4 L 132.8,154.4 L 147.2,147.2 Z M 147.2,147.2 L 132.8,154.4 L 132.8,188.0 Z M 147.2,147.2 L 132.8,188.0 L 147.2,185.6 Z M 288.8,132.8 L 281.6,118.4 L 252.8,147.2 Z M 288.8,132.8 L 252.8,147.2 L 267.2,154.4 Z M 267.2,154.4 L 252.8,147.2 L 252.8,185.6 Z M 267.2,154.4 L 252.8,185.6 L 267.2,188.0 Z M 267.2,188.0 L 252.8,185.6 L 238.4,185.6 Z M 267.2,188.0 L 238.4,185.6 L 255.2,200.0 Z M 255.2,200.0 L 238.4,185.6 L 219.2,185.6 Z M 255.2,200.0 L 219.2,185.6 L 219.2,200.0 Z M 219.2,200.0 L 219.2,185.6 L 180.8,185.6 Z M 219.2,200.0 L 180.8,185.6 L 180.8,200.0 Z M 180.8,200.0 L 180.8,185.6 L 147.2,185.6 Z M 180.8,200.0 L 147.2,185.6 L 144.8,200.0 Z M 380.0,132.8 L 288.8,132.8 L 293.6,147.2 Z M 380.0,132.8 L 293.6,147.2 L 380.0,147.2 Z M 214.4,312.8 L 214.4,226.4 L 200.0,221.6 Z M 214.4,312.8 L 200.0,221.6 L 200.0,312.8 Z M 288.8,132.8 L 267.2,154.4 L 281.6,159.2 Z M 288.8,132.8 L 281.6,159.2 L 293.6,147.2 Z M 20.0,132.8 L 111.2,132.8 L 106.4,118.4 Z M 20.0,132.8 L 106.4,118.4 L 20.0,118.4 Z M 200.0,312.8 L 200.0,221.6 L 185.6,226.4 Z M 200.0,312.8 L 185.6,226.4 L 185.6,312.8 Z M 20.0,147.2 L 106.4,147.2 L 111.2,132.8 Z M 20.0,147.2 L 111.2,132.8 L 20.0,132.8 Z M 226.4,214.4 L 219.2,200.0 L 200.0,221.6 Z M 226.4,214.4 L 200.0,221.6 L 214.4,226.4 Z M 118.4,159.2 L 132.8,154.4 L 111.2,132.8 Z M 118.4,159.2 L 111.2,132.8 L 106.4,147.2 Z M 132.8,154.4 L 118.4,159.2 L 118.4,190.4 Z M 132.8,154.4 L 118.4,190.4 L 132.8,188.0 Z M 180.8,200.0 L 173.6,214.4 L 185.6,226.4 Z M 180.8,200.0 L 185.6,226.4 L 200.0,221.6 Z M 380.0,118.4 L 293.6,118.4 L 288.8,132.8 Z M 380.0,118.4 L 288.8,132.8 L 380.0,132.8 Z M 281.6,118.4 L 288.8,132.8 L 293.6,118.4 Z M 132.8,188.0 L 144.8,200.0 L 147.2,185.6 Z M 111.2,132.8 L 118.4,118.4 L 106.4,118.4 Z M 161.6,20.0 L 161.6,92.0 L 252.8,92.0 Z M 161.6,20.0 L 252.8,92.0 L 274.4,20.0 Z M 274.4,20.0 L 252.8,92.0 L 281.6,106.4 Z M 274.4,20.0 L 281.6,106.4 L 281.6,27.2 Z M 238.4,185.6 L 252.8,185.6 L 252.8,147.2 Z M 238.4,185.6 L 252.8,147.2 L 238.4,147.2 Z M 238.4,147.2 L 252.8,147.2 L 252.8,92.0 Z M 238.4,147.2 L 252.8,92.0 L 238.4,106.4 Z M 238.4,106.4 L 252.8,92.0 L 161.6,92.0 Z M 238.4,106.4 L 161.6,92.0 L 147.2,106.4 Z M 147.2,106.4 L 161.6,92.0 L 161.6,20.0 Z M 147.2,106.4 L 161.6,20.0 L 147.2,20.0 Z M 118.4,106.4 L 118.4,118.4 L 147.2,147.2 Z M 118.4,106.4 L 147.2,147.2 L 147.2,106.4 Z M 147.2,106.4 L 147.2,147.2 L 238.4,147.2 Z M 147.2,106.4 L 238.4,147.2 L 238.4,106.4 Z M 142.4,214.4 L 118.4,190.4 L 87.3,221.8 Z M 142.4,214.4 L 87.3,221.8 L 111.0,245.5 Z M 111.0,245.5 L 87.3,221.8 L 87.3,231.9 Z M 111.0,245.5 L 87.3,231.9 L 100.9,245.5 Z M 281.6,190.4 L 257.6,214.4 L 288.9,245.5 Z M 281.6,190.4 L 288.9,245.5 L 312.7,221.8 Z M 312.7,221.8 L 288.9,245.5 L 299.1,245.5 Z M 312.7,221.8 L 299.1,245.5 L 312.7,231.9 Z M 118.4,106.4 L 147.2,106.4 L 118.4,27.2 Z M 147.2,106.4 L 147.2,20.0 L 118.4,27.2 Z M 118.4,27.2 L 147.2,20.0 L 125.6,20.0 Z M 252.8,92.0 L 252.8,147.2 L 281.6,118.4 Z M 252.8,92.0 L 281.6,118.4 L 281.6,106.4 Z M 219.2,185.6 L 238.4,147.2 L 147.2,147.2 Z M 219.2,185.6 L 147.2,147.2 L 180.8,185.6 Z M 147.2,147.2 L 147.2,185.6 L 180.8,185.6 Z M 200.0,221.6 L 219.2,200.0 L 180.8,200.0 Z M 219.2,185.6 L 238.4,185.6 L 238.4,147.2 Z M 281.6,106.4 L 281.6,118.4 L 293.6,118.4 Z M 106.4,118.4 L 118.4,118.4 L 118.4,106.4 Z" fill="#2a2a4e" stroke="none"/>
  <path d="M 281.6,190.4 L 281.6,159.2 M 226.4,214.4 L 257.6,214.4 M 142.4,214.4 L 173.6,214.4 M 293.6,147.2 L 380.0,147.2 M 380.0,147.2 L 380.0,132.8 M 214.4,312.8 L 214.4,226.4 M 200.0,312.8 L 214.4,312.8 M 281.6,159.2 L 293.6,147.2 M 106.4,118.4 L 20.0,118.4 M 20.0,118.4 L 20.0,132.8 M 185.6,226.4 L 185.6,312.8 M 185.6,312.8 L 200.0,312.8 M 20.0,147.2 L 106.4,147.2 M 20.0,132.8 L 20.0,147.2 M 214.4,226.4 L 226.4,214.4 M 106.4,147.2 L 118.4,159.2 M 118.4,159.2 L 118.4,190.4 M 173.6,214.4 L 185.6,226.4 M 380.0,118.4 L 293.6,118.4 M 380.0,132.8 L 380.0,118.4 M 274.4,20.0 L 161.6,20.0 M 281.6,106.4 L 281.6,27.2 M 281.6,27.2 L 274.4,20.0 M 161.6,20.0 L 147.2,20.0 M 118.4,190.4 L 87.3,221.8 M 111.0,245.5 L 142.4,214.4 M 87.3,221.8 L 87.3,231.9 M 87.3,231.9 L 100.9,245.5 M 100.9,245.5 L 111.0,245.5 M 257.6,214.4 L 288.9,245.5 M 312.7,221.8 L 281.6,190.4 M 288.9,245.5 L 299.1,245.5 M 299.1,245.5 L 312.7,231.9 M 312.7,231.9 L 312.7,221.8 M 118.4,27.2 L 118.4,106.4 M 147.2,20.0 L 125.6,20.0 M 125.6,20.0 L 118.4,27.2 M 293.6,118.4 L 281.6,106.4 M 118.4,106.4 L 106.4,118.4" fill="none" stroke="white" stroke-width="2" stroke-linecap="round"/>
  <polygon points="297.4668402158646,125.16471508116032 305.4668402158646,133.16471508116032 297.4668402158646,141.16471508116032 289.4668402158646,133.16471508116032" fill="#4a9eff" stroke="white" stroke-width="1"/>
<polygon points="103.32780880225553,124.28563067228396 111.32780880225553,132.28563067228396 103.32780880225553,140.28563067228396 95.32780880225553,132.28563067228396" fill="#4a9eff" stroke="white" stroke-width="1"/>
<polygon points="200.06266255400274,222.1739257036701 208.06266255400274,230.1739257036701 200.06266255400274,238.1739257036701 192.06266255400274,230.1739257036701" fill="#4a9eff" stroke="white" stroke-width="1"/>
</svg>