<svg xmlns="http://www.w3.org/2000/svg" viewBox="0 0 400 400">
  <rect width="400" height="400" fill="#1a1a2e"/>
  <path d="M 208.6,71.4 L 208.6,50.9 L 174.3,71.4 Z M 208.6,50.9 L 140.0,50.9 L 174.3,71.4 Z M 174.3,71.4 L 140.0,50.9 L 140.0,71.4 Z M 140.0,71.4 L 140.0,92.0 L 174.3,71.4 Z M 140.0,92.0 L 208.6,92.0 L 174.3,71.4 Z M 174.3,71.4 L 208.6,92.0 L 208.6,71.4 Z M 194.9,260.0 L 174.3,260.0 L 174.3,380.0 Z M 194.9,260.0 L 174.3,380.0 L 194.9,380.0 Z M 153.7,260.0 L 153.7,380.0 L 174.3,380.0 Z M 153.7,260.0 L 174.3,380.0 L 174.3,260.0 Z M 143.4,256.6 L 198.3,232.6 L 150.3,232.6 Z M 143.4,256.6 L 150.3,232.6 L 126.3,239.4 Z M 126.3,239.4 L 150.3,232.6 L 150.3,184.6 Z M 126.3,239.4 L 150.3,184.6 L 126.3,177.7 Z M 143.4,160.6 L 126.3,177.7 L 150.3,184.6 Z M 143.4,160.6 L 150.3,184.6 L 205.1,160.6 Z M 205.1,160.6 L 150.3,184.6 L 198.3,184.6 Z M 205.1,160.6 L 198.3,184.6 L 222.3,177.7 Z M 222.3,177.7 L 198.3,184.6 L 198.3,232.6 Z M 222.3,177.7 L 198.3,232.6 L 222.3,239.4 Z M 222.3,239.4 L 198.3,232.6 L 143.4,256.6 Z M 222.3,239.4 L 143.4,256.6 L 205.1,256.6 Z M 57.7,95.4 L 40.6,102.3 L 57.7,119.4 Z M 57.7,95.4 L 57.7,119.4 L 64.6,102.3 Z M 64.6,102.3 L 57.7,119.4 L 119.4,119.4 Z M 64.6,102.3 L 119.4,119.4 L 112.6,102.3 Z M 112.6,102.3 L 119.4,119.4 L 136.6,102.3 Z M 112.6,102.3 L 136.6,102.3 L 119.4,95.4 Z M 119.4,95.4 L 136.6,102.3 L 136.6,40.6 Z M 119.4,95.4 L 136.6,40.6 L 119.4,47.4 Z M 119.4,47.4 L 136.6,40.6 L 119.4,23.4 Z M 119.4,47.4 L 119.4,23.4 L 112.6,40.6 Z M 112.6,40.6 L 119.4,23.4 L 57.7,23.4 Z M 112.6,40.6 L 57.7,23.4 L 64.6,40.6 Z M 64.6,40.6 L 57.7,23.4 L 40.6,40.6 Z M 64.6,40.6 L 40.6,40.6 L 57.7,47.4 Z M 57.7,47.4 L 40.6,40.6 L 40.6,102.3 Z M 57.7,47.4 L 40.6,102.3 L 57.7,95.4 Z M 229.1,95.4 L 212.0,102.3 L 229.1,119.4 Z M 229.1,95.4 L 229.1,119.4 L 236.0,102.3 Z M 236.0,102.3 L 229.1,119.4 L 290.9,119.4 Z M 236.0,102.3 L 290.9,119.4 L 284.0,102.3 Z M 284.0,102.3 L 290.9,119.4 L 308.0,102.3 Z M 284.0,102.3 L 308.0,102.3 L 290.9,95.4 Z M 290.9,95.4 L 308.0,102.3 L 308.0,40.6 Z M 290.9,95.4 L 308.0,40.6 L 290.9,47.4 Z M 290.9,47.4 L 308.0,40.6 L 290.9,23.4 Z M 290.9,47.4 L 290.9,23.4 L 284.0,40.6 Z M 284.0,40.6 L 290.9,23.4 L 229.1,23.4 Z M 284.0,40.6 L 229.1,23.4 L 236.0,40.6 Z M 236.0,40.6 L 229.1,23.4 L 212.0,40.6 Z M 236.0,40.6 L 212.0,40.6 L 229.1,47.4 Z M 229.1,47.4 L 212.0,40.6 L 212.0,102.3 Z M 229.1,47.4 L 212.0,102.3 L 229.1,95.4 Z M 23.4,184.6 L 23.4,225.7 L 37.1,239.4 Z M 23.4,184.6 L 37.1,239.4 L 37.1,170.9 Z M 37.1,170.9 L 37.1,239.4 L 57.7,236.0 Z M 37.1,170.9 L 57.7,236.0 L 57.7,164.0 Z M 325.1,225.7 L 325.1,184.6 L 311.4,170.9 Z M 325.1,225.7 L 311.4,170.9 L 311.4,239.4 Z M 311.4,239.4 L 311.4,170.9 L 290.9,164.0 Z M 311.4,239.4 L 290.9,164.0 L 290.9,236.0 Z M 119.4,164.0 L 119.4,126.3 L 88.6,164.0 Z M 119.4,126.3 L 57.7,126.3 L 88.6,164.0 Z M 88.6,164.0 L 57.7,126.3 L 57.7,164.0 Z M 37.1,239.4 L 37.1,253.1 L 57.7,236.0 Z M 37.1,253.1 L 40.6,256.6 L 57.7,236.0 Z M 57.7,164.0 L 57.7,236.0 L 88.6,164.0 Z M 57.7,236.0 L 119.4,236.0 L 88.6,164.0 Z M 88.6,164.0 L 119.4,236.0 L 119.4,164.0 Z M 229.1,126.3 L 229.1,164.0 L 260.0,164.0 Z M 229.1,164.0 L 229.1,236.0 L 260.0,164.0 Z M 260.0,164.0 L 229.1,236.0 L 290.9,236.0 Z M 311.4,239.4 L 290.9,236.0 L 311.4,253.1 Z M 290.9,236.0 L 308.0,256.6 L 311.4,253.1 Z M 290.9,236.0 L 290.9,164.0 L 260.0,164.0 Z M 290.9,164.0 L 290.9,126.3 L 260.0,164.0 Z M 260.0,164.0 L 290.9,126.3 L 229.1,126.3 Z M 150.3,184.6 L 150.3,232.6 L 198.3,232.6 Z M 150.3,184.6 L 198.3,232.6 L 198.3,184.6 Z M 119.4,126.3 L 136.6,105.7 L 40.6,105.7 Z M 119.4,126.3 L 40.6,105.7 L 57.7,126.3 Z M 57.7,236.0 L 40.6,256.6 L 136.6,256.6 Z M 57.7,236.0 L 136.6,256.6 L 119.4,236.0 Z M 119.4,164.0 L 119.4,236.0 L 140.0,253.1 Z M 119.4,164.0 L 140.0,253.1 L 140.0,198.3 Z M 119.4,126.3 L 119.4,164.0 L 140.0,164.0 Z M 119.4,126.3 L 140.0,164.0 L 140.0,109.1 Z M 37.1,109.1 L 37.1,170.9 L 57.7,164.0 Z M 37.1,109.1 L 57.7,164.0 L 57.7,126.3 Z M 308.0,105.7 L 212.0,105.7 L 229.1,126.3 Z M 308.0,105.7 L 229.1,126.3 L 290.9,126.3 Z M 212.0,256.6 L 308.0,256.6 L 290.9,236.0 Z M 212.0,256.6 L 290.9,236.0 L 229.1,236.0 Z M 208.6,253.1 L 229.1,236.0 L 229.1,164.0 Z M 208.6,253.1 L 229.1,164.0 L 208.6,198.3 Z M 208.6,164.0 L 229.1,164.0 L 229.1,126.3 Z M 208.6,164.0 L 229.1,126.3 L 208.6,109.1 Z M 290.9,164.0 L 311.4,170.9 L 311.4,109.1 Z M 290.9,164.0 L 311.4,109.1 L 290.9,126.3 Z M 57.7,126.3 L 40.6,105.7 L 37.1,109.1 Z M 119.4,236.0 L 136.6,256.6 L 140.0,253.1 Z M 119.4,164.0 L 140.0,198.3 L 140.0,164.0 Z M 119.4,126.3 L 140.0,109.1 L 136.6,105.7 Z M 290.9,126.3 L 311.4,109.1 L 308.0,105.7 Z M 229.1,236.0 L 208.6,253.1 L 212.0,256.6 Z M 229.1,164.0 L 208.6,164.0 L 208.6,198.3 Z M 229.1,126.3 L 212.0,105.7 L 208.6,109.1 Z M 143.4,157.1 L 143.4,160.6 L 205.1,160.6 Z M 143.4,157.1 L 205.1,160.6 L 205.1,157.1 Z M 205.1,157.1 L 205.1,160.6 L 222.3,177.7 Z M 205.1,157.1 L 222.3,177.7 L 225.7,177.7 Z M 225.7,177.7 L 222.3,177.7 L 222.3,239.4 Z M 225.7,177.7 L 222.3,239.4 L 225.7,239.4 Z M 225.7,239.4 L 222.3,239.4 L 205.1,256.6 Z M 225.7,239.4 L 205.1,256.6 L 205.1,260.0 Z M 143.4,160.6 L 143.4,157.1 L 122.9,177.7 Z M 143.4,160.6 L 122.9,177.7 L 126.3,177.7 Z M 126.3,177.7 L 122.9,177.7 L 122.9,239.4 Z M 126.3,177.7 L 122.9,239.4 L 126.3,239.4 Z M 126.3,239.4 L 122.9,239.4 L 143.4,260.0 Z M 126.3,239.4 L 143.4,260.0 L 143.4,256.6 Z M 143.4,256.6 L 143.4,260.0 L 205.1,260.0 Z M 143.4,256.6 L 205.1,260.0 L 205.1,256.6 Z M 57.7,20.0 L 57.7,23.4 L 119.4,23.4 Z M 57.7,20.0 L 119.4,23.4 L 119.4,20.0 Z M 119.4,20.0 L 119.4,23.4 L 136.6,40.6 Z M 119.4,20.0 L 136.6,40.6 L 140.0,40.6 Z M 140.0,40.6 L 136.6,40.6 L 136.6,102.3 Z M 140.0,40.6 L 136.6,102.3 L 140.0,102.3 Z M 140.0,102.3 L 136.6,102.3 L 119.4,119.4 Z M 140.0,102.3 L 119.4,119.4 L 119.4,122.9 Z M 57.7,23.4 L 57.7,20.0 L 37.1,40.6 Z M 57.7,23.4 L 37.1,40.6 L 40.6,40.6 Z M 40.6,40.6 L 37.1,40.6 L 37.1,102.3 Z M 40.6,40.6 L 37.1,102.3 L 40.6,102.3 Z M 40.6,102.3 L 37.1,102.3 L 57.7,122.9 Z M 40.6,102.3 L 57.7,122.9 L 57.7,119.4 Z M 57.7,119.4 L 57.7,122.9 L 119.4,122.9 Z M 57.7,119.4 L 119.4,122.9 L 119.4,119.4 Z M 229.1,20.0 L 229.1,23.4 L 290.9,23.4 Z M 229.1,20.0 L 290.9,23.4 L 290.9,20.0 Z M 290.9,20.0 L 290.9,23.4 L 308.0,40.6 Z M 290.9,20.0 L 308.0,40.6 L 311.4,40.6 Z M 311.4,40.6 L 308.0,40.6 L 308.0,102.3 Z M 311.4,40.6 L 308.0,102.3 L 311.4,102.3 Z M 311.4,102.3 L 308.0,102.3 L 290.9,119.4 Z M 311.4,102.3 L 290.9,119.4 L 290.9,122.9 Z M 229.1,23.4 L 229.1,20.0 L 208.6,40.6 Z M 229.1,23.4 L 208.6,40.6 L 212.0,40.6 Z M 212.0,40.6 L 208.6,40.6 L 208.6,102.3 Z M 212.0,40.6 L 208.6,102.3 L 212.0,102.3 Z M 212.0,102.3 L 208.6,102.3 L 229.1,122.9 Z M 212.0,102.3 L 229.1,122.9 L 229.1,119.4 Z M 229.1,119.4 L 229.1,122.9 L 290.9,122.9 Z M 229.1,119.4 L 290.9,122.9 L 290.9,119.4 Z M 33.7,105.7 L 37.1,109.1 L 40.6,105.7 Z M 33.7,105.7 L 40.6,105.7 L 37.1,102.3 Z M 37.1,102.3 L 40.6,105.7 L 136.6,105.7 Z M 37.1,102.3 L 136.6,105.7 L 140.0,102.3 Z M 140.0,102.3 L 136.6,105.7 L 140.0,109.1 Z M 140.0,102.3 L 140.0,109.1 L 143.4,105.7 Z M 37.1,253.1 L 33.7,256.6 L 37.1,260.0 Z M 37.1,253.1 L 37.1,260.0 L 40.6,256.6 Z M 40.6,256.6 L 37.1,260.0 L 140.0,260.0 Z M 40.6,256.6 L 140.0,260.0 L 136.6,256.6 Z M 136.6,256.6 L 140.0,260.0 L 143.4,256.6 Z M 136.6,256.6 L 143.4,256.6 L 140.0,253.1 Z M 33.7,256.6 L 37.1,253.1 L 37.1,239.4 Z M 33.7,256.6 L 37.1,239.4 L 33.7,239.4 Z M 33.7,239.4 L 37.1,239.4 L 23.4,225.7 Z M 33.7,239.4 L 23.4,225.7 L 20.0,225.7 Z M 20.0,225.7 L 23.4,225.7 L 23.4,184.6 Z M 20.0,225.7 L 23.4,184.6 L 20.0,184.6 Z M 20.0,184.6 L 23.4,184.6 L 37.1,170.9 Z M 20.0,184.6 L 37.1,170.9 L 33.7,170.9 Z M 311.4,109.1 L 314.9,105.7 L 311.4,102.3 Z M 311.4,109.1 L 311.4,102.3 L 308.0,105.7 Z M 308.0,105.7 L 311.4,102.3 L 208.6,102.3 Z M 308.0,105.7 L 208.6,102.3 L 212.0,105.7 Z M 212.0,105.7 L 208.6,102.3 L 205.1,105.7 Z M 212.0,105.7 L 205.1,105.7 L 208.6,109.1 Z M 314.9,256.6 L 311.4,253.1 L 308.0,256.6 Z M 314.9,256.6 L 308.0,256.6 L 311.4,260.0 Z M 311.4,260.0 L 308.0,256.6 L 212.0,256.6 Z M 311.4,260.0 L 212.0,256.6 L 208.6,260.0 Z M 208.6,260.0 L 212.0,256.6 L 208.6,253.1 Z M 208.6,260.0 L 208.6,253.1 L 205.1,256.6 Z M 311.4,253.1 L 314.9,256.6 L 314.9,239.4 Z M 311.4,253.1 L 314.9,239.4 L 311.4,239.4 Z M 311.4,239.4 L 314.9,239.4 L 328.6,225.7 Z M 311.4,239.4 L 328.6,225.7 L 325.1,225.7 Z M 325.1,225.7 L 328.6,225.7 L 328.6,184.6 Z M 325.1,225.7 L 328.6,184.6 L 325.1,184.6 Z M 325.1,184.6 L 328.6,184.6 L 314.9,170.9 Z M 325.1,184.6 L 314.9,170.9 L 311.4,170.9 Z M 37.1,109.1 L 33.7,105.7 L 33.7,170.9 Z M 37.1,109.1 L 33.7,170.9 L 37.1,170.9 Z M 140.0,164.0 L 143.4,164.0 L 143.4,105.7 Z M 140.0,164.0 L 143.4,105.7 L 140.0,109.1 Z M 140.0,198.3 L 140.0,253.1 L 143.4,256.6 Z M 140.0,198.3 L 143.4,256.6 L 143.4,198.3 Z M 314.9,170.9 L 314.9,105.7 L 311.4,109.1 Z M 314.9,170.9 L 311.4,109.1 L 311.4,170.9 Z M 205.1,105.7 L 205.1,164.0 L 208.6,164.0 Z M 205.1,105.7 L 208.6,164.0 L 208.6,109.1 Z M 205.1,256.6 L 208.6,253.1 L 208.6,198.3 Z M 205.1,256.6 L 208.6,198.3 L 205.1,198.3 Z M 64.6,102.3 L 112.6,102.3 L 119.4,95.4 Z M 64.6,102.3 L 119.4,95.4 L 57.7,95.4 Z M 57.7,95.4 L 119.4,95.4 L 119.4,47.4 Z M 57.7,95.4 L 119.4,47.4 L 57.7,47.4 Z M 57.7,47.4 L 119.4,47.4 L 112.6,40.6 Z M 57.7,47.4 L 112.6,40.6 L 64.6,40.6 Z M 236.0,102.3 L 284.0,102.3 L 290.9,95.4 Z M 236.0,102.3 L 290.9,95.4 L 229.1,95.4 Z M 229.1,95.4 L 290.9,95.4 L 290.9,47.4 Z M 229.1,95.4 L 290.9,47.4 L 229.1,47.4 Z M 229.1,47.4 L 290.9,47.4 L 284.0,40.6 Z M 229.1,47.4 L 284.0,40.6 L 236.0,40.6 Z" fill="#2a2a4e" stroke="none"/>
  <path d="M 208.6,71.4 L 208.6,50.9 M 208.6,50.9 L 140.0,50.9 M 140.0,50.9 L 140.0,71.4 M 140.0,71.4 L 140.0,92.0 M 140.0,92.0 L 208.6,92.0 M 208.6,92.0 L 208.6,71.4 M 194.9,260.0 L 174.3,260.0 M 174.3,380.0 L 194.9,380.0 M 194.9,380.0 L 194.9,260.0 M 153.7,260.0 L 153.7,380.0 M 153.7,380.0 L 174.3,380.0 M 174.3,260.0 L 153.7,260.0 M 140.0,198.3 L 140.0,164.0 M 208.6,164.0 L 208.6,198.3 M 205.1,157.1 L 143.4,157.1 M 225.7,177.7 L 205.1,157.1 M 225.7,239.4 L 225.7,177.7 M 205.1,260.0 L 225.7,239.4 M 143.4,157.1 L 122.9,177.7 M 122.9,177.7 L 122.9,239.4 M 122.9,239.4 L 143.4,260.0 M 143.4,260.0 L 205.1,260.0 M 119.4,20.0 L 57.7,20.0 M 140.0,40.6 L 119.4,20.0 M 140.0,102.3 L 140.0,40.6 M 119.4,122.9 L 140.0,102.3 M 57.7,20.0 L 37.1,40.6 M 37.1,40.6 L 37.1,102.3 M 37.1,102.3 L 57.7,122.9 M 57.7,122.9 L 119.4,122.9 M 290.9,20.0 L 229.1,20.0 M 311.4,40.6 L 290.9,20.0 M 311.4,102.3 L 311.4,40.6 M 290.9,122.9 L 311.4,102.3 M 229.1,20.0 L 208.6,40.6 M 208.6,40.6 L 208.6,102.3 M 208.6,102.3 L 229.1,122.9 M 229.1,122.9 L 290.9,122.9 M 37.1,102.3 L 33.7,105.7 M 140.0,102.3 L 37.1,102.3 M 143.4,105.7 L 140.0,102.3 M 33.7,256.6 L 37.1,260.0 M 37.1,260.0 L 140.0,260.0 M 140.0,260.0 L 143.4,256.6 M 33.7,239.4 L 33.7,256.6 M 20.0,225.7 L 33.7,239.4 M 20.0,184.6 L 20.0,225.7 M 33.7,170.9 L 20.0,184.6 M 314.9,105.7 L 311.4,102.3 M 311.4,102.3 L 208.6,102.3 M 208.6,102.3 L 205.1,105.7 M 311.4,260.0 L 314.9,256.6 M 208.6,260.0 L 311.4,260.0 M 205.1,256.6 L 208.6,260.0 M 314.9,256.6 L 314.9,239.4 M 314.9,239.4 L 328.6,225.7 M 328.6,225.7 L 328.6,184.6 M 328.6,184.6 L 314.9,170.9 M 33.7,105.7 L 33.7,170.9 M 140.0,164.0 L 143.4,164.0 M 143.4,164.0 L 143.4,105.7 M 143.4,256.6 L 143.4,198.3 M 143.4,198.3 L 140.0,198.3 M 314.9,170.9 L 314.9,105.7 M 205.1,105.7 L 205.1,164.0 M 205.1,164.0 L 208.6,164.0 M 208.6,198.3 L 205.1,198.3 M 205.1,198.3 L 205.1,256.6" fill="none" stroke="white" stroke-width="2" stroke-linecap="round"/>
  <polygon points="173.3485584083769,252.33870951680575 181.3485584083769,260.33870951680575 173.3485584083769,268.33870951680575 165.3485584083769,260.33870951680575" fill="#4a9eff" stroke="white" stroke-width="1"/>
</svg>