<svg xmlns="http://www.w3.org/2000/svg" viewBox="0 0 400 400">
  <rect width="400" height="400" fill="#1a1a2e"/>
  <path d="M 110.0,113.2 L 110.0,20.0 L 71.4,20.0 Z M 110.0,113.2 L 71.4,20.0 L 71.4,113.2 Z M 71.4,280.4 L 71.4,380.0 L 110.0,380.0 Z M 71.4,280.4 L 110.0,380.0 L 110.0,280.4 Z M 138.9,126.1 L 116.4,148.6 L 126.1,158.2 Z M 138.9,126.1 L 126.1,158.2 L 148.6,135.7 Z M 148.6,135.7 L 126.1,158.2 L 126.1,196.8 Z M 148.6,135.7 L 126.1,196.8 L 148.6,196.8 Z M 148.6,196.8 L 126.1,196.8 L 126.1,235.4 Z M 148.6,196.8 L 126.1,235.4 L 148.6,257.9 Z M 148.6,257.9 L 126.1,235.4 L 116.4,245.0 Z M 148.6,257.9 L 116.4,245.0 L 138.9,267.5 Z M 42.5,267.5 L 65.0,245.0 L 55.4,235.4 Z M 42.5,267.5 L 55.4,235.4 L 32.9,257.9 Z M 32.9,257.9 L 55.4,235.4 L 55.4,196.8 Z M 32.9,257.9 L 55.4,196.8 L 32.9,196.8 Z M 32.9,196.8 L 55.4,196.8 L 55.4,158.2 Z M 32.9,196.8 L 55.4,158.2 L 32.9,135.7 Z M 32.9,135.7 L 55.4,158.2 L 65.0,148.6 Z M 32.9,135.7 L 65.0,148.6 L 42.5,126.1 Z M 100.4,164.6 L 81.1,164.6 L 71.4,174.3 Z M 100.4,164.6 L 71.4,174.3 L 110.0,174.3 Z M 110.0,174.3 L 71.4,174.3 L 71.4,196.8 Z M 110.0,174.3 L 71.4,196.8 L 110.0,196.8 Z M 110.0,196.8 L 71.4,196.8 L 71.4,219.3 Z M 110.0,196.8 L 71.4,219.3 L 110.0,219.3 Z M 110.0,219.3 L 71.4,219.3 L 81.1,228.9 Z M 110.0,219.3 L 81.1,228.9 L 100.4,228.9 Z M 65.0,148.6 L 116.4,148.6 L 110.0,126.1 Z M 65.0,148.6 L 110.0,126.1 L 71.4,126.1 Z M 116.4,245.0 L 65.0,245.0 L 71.4,267.5 Z M 116.4,245.0 L 71.4,267.5 L 110.0,267.5 Z M 65.0,245.0 L 42.5,267.5 L 71.4,267.5 Z M 116.4,148.6 L 138.9,126.1 L 110.0,126.1 Z M 71.4,126.1 L 42.5,126.1 L 65.0,148.6 Z M 110.0,267.5 L 138.9,267.5 L 116.4,245.0 Z M 110.0,174.3 L 126.1,158.2 L 116.4,148.6 Z M 110.0,174.3 L 116.4,148.6 L 100.4,164.6 Z M 100.4,164.6 L 116.4,148.6 L 65.0,148.6 Z M 100.4,164.6 L 65.0,148.6 L 81.1,164.6 Z M 81.1,164.6 L 65.0,148.6 L 55.4,158.2 Z M 81.1,164.6 L 55.4,158.2 L 71.4,174.3 Z M 55.4,235.4 L 71.4,219.3 L 71.4,196.8 Z M 55.4,235.4 L 71.4,196.8 L 55.4,196.8 Z M 55.4,196.8 L 71.4,196.8 L 71.4,174.3 Z M 55.4,196.8 L 71.4,174.3 L 55.4,158.2 Z M 71.4,219.3 L 55.4,235.4 L 65.0,245.0 Z M 71.4,219.3 L 65.0,245.0 L 81.1,228.9 Z M 81.1,228.9 L 65.0,245.0 L 116.4,245.0 Z M 81.1,228.9 L 116.4,245.0 L 100.4,228.9 Z M 100.4,228.9 L 116.4,245.0 L 126.1,235.4 Z M 100.4,228.9 L 126.1,235.4 L 110.0,219.3 Z M 126.1,158.2 L 110.0,174.3 L 110.0,196.8 Z M 126.1,158.2 L 110.0,196.8 L 126.1,196.8 Z M 126.1,196.8 L 110.0,196.8 L 110.0,219.3 Z M 126.1,196.8 L 110.0,219.3 L 126.1,235.4 Z M 32.9,257.9 L 20.0,270.7 L 29.6,280.4 Z M 32.9,257.9 L 29.6,280.4 L 42.5,267.5 Z M 42.5,267.5 L 29.6,280.4 L 71.4,280.4 Z M 42.5,267.5 L 71.4,280.4 L 71.4,267.5 Z M 71.4,267.5 L 71.4,280.4 L 110.0,280.4 Z M 71.4,267.5 L 110.0,280.4 L 110.0,267.5 Z M 110.0,267.5 L 110.0,280.4 L 151.8,280.4 Z M 110.0,267.5 L 151.8,280.4 L 138.9,267.5 Z M 138.9,267.5 L 151.8,280.4 L 161.4,270.7 Z M 138.9,267.5 L 161.4,270.7 L 148.6,257.9 Z M 148.6,257.9 L 161.4,270.7 L 161.4,196.8 Z M 148.6,257.9 L 161.4,196.8 L 148.6,196.8 Z M 148.6,196.8 L 161.4,196.8 L 161.4,122.9 Z M 148.6,196.8 L 161.4,122.9 L 148.6,135.7 Z M 148.6,135.7 L 161.4,122.9 L 151.8,113.2 Z M 148.6,135.7 L 151.8,113.2 L 138.9,126.1 Z M 138.9,126.1 L 151.8,113.2 L 110.0,113.2 Z M 138.9,126.1 L 110.0,113.2 L 110.0,126.1 Z M 110.0,126.1 L 110.0,113.2 L 71.4,113.2 Z M 110.0,126.1 L 71.4,113.2 L 71.4,126.1 Z M 71.4,126.1 L 71.4,113.2 L 29.6,113.2 Z M 71.4,126.1 L 29.6,113.2 L 42.5,126.1 Z M 42.5,126.1 L 29.6,113.2 L 20.0,122.9 Z M 42.5,126.1 L 20.0,122.9 L 32.9,135.7 Z M 32.9,135.7 L 20.0,122.9 L 20.0,196.8 Z M 32.9,135.7 L 20.0,196.8 L 32.9,196.8 Z M 32.9,196.8 L 20.0,196.8 L 20.0,270.7 Z M 32.9,196.8 L 20.0,270.7 L 32.9,257.9 Z M 71.4,174.3 L 71.4,174.3 L 71.4,196.8 Z M 71.4,174.3 L 71.4,196.8 L 71.4,196.8 Z M 71.4,196.8 L 71.4,196.8 L 71.4,219.3 Z M 71.4,196.8 L 71.4,219.3 L 71.4,219.3 Z M 110.0,219.3 L 110.0,219.3 L 110.0,196.8 Z M 110.0,219.3 L 110.0,196.8 L 110.0,196.8 Z M 110.0,196.8 L 110.0,196.8 L 110.0,174.3 Z M 110.0,196.8 L 110.0,174.3 L 110.0,174.3 Z M 71.4,219.3 L 81.1,228.9 L 81.1,228.9 Z M 71.4,219.3 L 81.1,228.9 L 71.4,219.3 Z M 81.1,228.9 L 100.4,228.9 L 100.4,228.9 Z M 81.1,228.9 L 100.4,228.9 L 81.1,228.9 Z M 100.4,228.9 L 110.0,219.3 L 110.0,219.3 Z M 100.4,228.9 L 110.0,219.3 L 100.4,228.9 Z M 110.0,174.3 L 100.4,164.6 L 100.4,164.6 Z M 110.0,174.3 L 100.4,164.6 L 110.0,174.3 Z M 100.4,164.6 L 81.1,164.6 L 81.1,164.6 Z M 100.4,164.6 L 81.1,164.6 L 100.4,164.6 Z M 81.1,164.6 L 71.4,174.3 L 71.4,174.3 Z M 81.1,164.6 L 71.4,174.3 L 81.1,164.6 Z M 74.6,212.7 L 106.7,212.5 L 106.9,180.8 Z M 74.6,212.7 L 106.9,180.8 L 74.7,180.5 Z" fill="#2a2a4e" stroke="none"/>
  <path d="M 110.0,113.2 L 110.0,20.0 M 110.0,20.0 L 71.4,20.0 M 71.4,20.0 L 71.4,113.2 M 71.4,280.4 L 71.4,380.0 M 71.4,380.0 L 110.0,380.0 M 110.0,380.0 L 110.0,280.4 M 20.0,270.7 L 29.6,280.4 M 29.6,280.4 L 71.4,280.4 M 110.0,280.4 L 151.8,280.4 M 151.8,280.4 L 161.4,270.7 M 161.4,270.7 L 161.4,196.8 M 161.4,196.8 L 161.4,122.9 M 161.4,122.9 L 151.8,113.2 M 151.8,113.2 L 110.0,113.2 M 71.4,113.2 L 29.6,113.2 M 29.6,113.2 L 20.0,122.9 M 20.0,122.9 L 20.0,196.8 M 20.0,196.8 L 20.0,270.7 M 74.6,212.7 L 106.7,212.5 M 106.7,212.5 L 106.9,180.8 M 106.9,180.8 L 74.7,180.5 M 74.7,180.5 L 74.6,212.7" fill="none" stroke="white" stroke-width="2" stroke-linecap="round"/>
  <polygon points="89.99532100815195,270.44523093457093 97.99532100815195,278.44523093457093 89.99532100815195,286.44523093457093 81.99532100815195,278.44523093457093" fill="#4a9eff" stroke="white" stroke-width="1"/>
<polygon points="91.42608346210201,108.53134577886748 99.42608346210201,116.53134577886748 91.42608346210201,124.53134577886748 83.42608346210201,116.53134577886748" fill="#4a9eff" stroke="white" stroke-width="1"/>
</svg>