<svg xmlns="http://www.w3.org/2000/svg" viewBox="0 0 400 400">
  <rect width="400" height="400" fill="#1a1a2e"/>
  <path d="M 101.6,293.6 L 116.0,293.6 L 104.0,262.4 Z M 101.6,293.6 L 104.0,262.4 L 89.6,269.6 Z M 89.6,269.6 L 104.0,262.4 L 72.8,231.2 Z M 89.6,269.6 L 72.8,231.2 L 58.4,238.4 Z M 58.4,238.4 L 72.8,231.2 L 72.8,168.8 Z M 58.4,238.4 L 72.8,168.8 L 58.4,161.6 Z M 58.4,161.6 L 72.8,168.8 L 104.0,137.6 Z M 58.4,161.6 L 104.0,137.6 L 89.6,130.4 Z M 89.6,130.4 L 104.0,137.6 L 116.0,106.4 Z M 89.6,130.4 L 116.0,106.4 L 101.6,106.4 Z M 116.0,293.6 L 130.4,293.6 L 142.4,269.6 Z M 116.0,293.6 L 142.4,269.6 L 128.0,262.4 Z M 128.0,262.4 L 142.4,269.6 L 173.6,238.4 Z M 128.0,262.4 L 173.6,238.4 L 159.2,231.2 Z M 159.2,231.2 L 173.6,238.4 L 173.6,161.6 Z M 159.2,231.2 L 173.6,161.6 L 159.2,168.8 Z M 159.2,168.8 L 173.6,161.6 L 142.4,130.4 Z M 159.2,168.8 L 142.4,130.4 L 128.0,137.6 Z M 128.0,137.6 L 142.4,130.4 L 130.4,106.4 Z M 128.0,137.6 L 130.4,106.4 L 116.0,106.4 Z M 116.0,380.0 L 116.0,293.6 L 101.6,293.6 Z M 116.0,380.0 L 101.6,293.6 L 101.6,380.0 Z M 130.4,380.0 L 130.4,293.6 L 116.0,293.6 Z M 130.4,380.0 L 116.0,293.6 L 116.0,380.0 Z M 116.0,20.0 L 116.0,106.4 L 130.4,106.4 Z M 116.0,20.0 L 130.4,106.4 L 130.4,20.0 Z M 101.6,20.0 L 101.6,106.4 L 116.0,106.4 Z M 101.6,20.0 L 116.0,106.4 L 116.0,20.0 Z M 159.2,231.2 L 144.8,233.6 L 120.8,257.6 Z M 159.2,231.2 L 120.8,257.6 L 128.0,262.4 Z M 128.0,262.4 L 120.8,257.6 L 111.2,257.6 Z M 128.0,262.4 L 111.2,257.6 L 104.0,262.4 Z M 104.0,262.4 L 111.2,257.6 L 87.2,233.6 Z M 104.0,262.4 L 87.2,233.6 L 72.8,231.2 Z M 72.8,231.2 L 87.2,233.6 L 87.2,166.4 Z M 72.8,231.2 L 87.2,166.4 L 72.8,168.8 Z M 72.8,168.8 L 87.2,166.4 L 111.2,142.4 Z M 72.8,168.8 L 111.2,142.4 L 104.0,137.6 Z M 104.0,137.6 L 111.2,142.4 L 120.8,142.4 Z M 104.0,137.6 L 120.8,142.4 L 128.0,137.6 Z M 128.0,137.6 L 120.8,142.4 L 144.8,166.4 Z M 128.0,137.6 L 144.8,166.4 L 159.2,168.8 Z M 159.2,168.8 L 144.8,166.4 L 144.8,233.6 Z M 159.2,168.8 L 144.8,233.6 L 159.2,231.2 Z M 144.8,233.6 L 144.8,166.4 L 120.8,190.4 Z M 144.8,233.6 L 120.8,190.4 L 120.8,209.6 Z M 120.8,209.6 L 120.8,190.4 L 111.2,190.4 Z M 120.8,209.6 L 111.2,190.4 L 111.2,209.6 Z M 111.2,209.6 L 111.2,190.4 L 87.2,166.4 Z M 111.2,209.6 L 87.2,166.4 L 87.2,233.6 Z M 20.0,171.2 L 20.0,228.8 L 27.2,236.0 Z M 20.0,171.2 L 27.2,236.0 L 27.2,164.0 Z M 27.2,164.0 L 27.2,236.0 L 44.0,236.0 Z M 27.2,164.0 L 44.0,236.0 L 44.0,164.0 Z M 212.0,228.8 L 212.0,171.2 L 204.8,164.0 Z M 212.0,228.8 L 204.8,164.0 L 204.8,236.0 Z M 204.8,236.0 L 204.8,164.0 L 188.0,164.0 Z M 204.8,236.0 L 188.0,164.0 L 188.0,236.0 Z M 44.0,274.4 L 51.2,281.6 L 89.6,281.6 Z M 44.0,274.4 L 89.6,281.6 L 44.0,236.0 Z M 44.0,236.0 L 89.6,281.6 L 89.6,269.6 Z M 44.0,236.0 L 89.6,269.6 L 58.4,238.4 Z M 44.0,236.0 L 58.4,238.4 L 58.4,161.6 Z M 44.0,236.0 L 58.4,161.6 L 44.0,164.0 Z M 44.0,164.0 L 58.4,161.6 L 89.6,130.4 Z M 44.0,164.0 L 89.6,130.4 L 89.6,118.4 Z M 188.0,125.6 L 180.8,118.4 L 142.4,118.4 Z M 188.0,125.6 L 142.4,118.4 L 188.0,164.0 Z M 188.0,164.0 L 142.4,118.4 L 142.4,130.4 Z M 188.0,164.0 L 142.4,130.4 L 173.6,161.6 Z M 188.0,164.0 L 173.6,161.6 L 173.6,238.4 Z M 188.0,164.0 L 173.6,238.4 L 188.0,236.0 Z M 188.0,236.0 L 173.6,238.4 L 142.4,269.6 Z M 188.0,236.0 L 142.4,269.6 L 142.4,281.6 Z M 44.0,164.0 L 89.6,118.4 L 51.2,118.4 Z M 44.0,164.0 L 51.2,118.4 L 44.0,125.6 Z M 188.0,236.0 L 142.4,281.6 L 180.8,281.6 Z M 188.0,236.0 L 180.8,281.6 L 188.0,274.4 Z M 104.0,262.4 L 116.0,293.6 L 128.0,262.4 Z M 128.0,137.6 L 116.0,106.4 L 104.0,137.6 Z M 89.6,281.6 L 101.6,293.6 L 89.6,269.6 Z M 89.6,118.4 L 89.6,130.4 L 101.6,106.4 Z M 142.4,118.4 L 130.4,106.4 L 142.4,130.4 Z M 142.4,281.6 L 142.4,269.6 L 130.4,293.6 Z M 120.6,210.4 L 111.4,210.4 L 88.2,233.6 Z M 120.6,210.4 L 88.2,233.6 L 143.8,233.6 Z M 143.8,233.6 L 88.2,233.6 L 111.4,256.8 Z M 143.8,233.6 L 111.4,256.8 L 120.6,256.8 Z M 120.6,143.2 L 111.4,143.2 L 88.2,166.4 Z M 120.6,143.2 L 88.2,166.4 L 143.8,166.4 Z M 143.8,166.4 L 88.2,166.4 L 111.4,189.6 Z M 143.8,166.4 L 111.4,189.6 L 120.6,189.6 Z" fill="#2a2a4e" stroke="none"/>
  <path d="M 101.6,293.6 L 101.6,380.0 M 101.6,380.0 L 116.0,380.0 M 130.4,380.0 L 130.4,293.6 M 116.0,380.0 L 130.4,380.0 M 130.4,106.4 L 130.4,20.0 M 130.4,20.0 L 116.0,20.0 M 101.6,20.0 L 101.6,106.4 M 116.0,20.0 L 101.6,20.0 M 144.8,233.6 L 120.8,257.6 M 120.8,257.6 L 111.2,257.6 M 111.2,257.6 L 87.2,233.6 M 87.2,166.4 L 111.2,142.4 M 111.2,142.4 L 120.8,142.4 M 120.8,142.4 L 144.8,166.4 M 144.8,166.4 L 120.8,190.4 M 120.8,209.6 L 144.8,233.6 M 120.8,190.4 L 111.2,190.4 M 111.2,209.6 L 120.8,209.6 M 111.2,190.4 L 87.2,166.4 M 87.2,233.6 L 111.2,209.6 M 20.0,171.2 L 20.0,228.8 M 20.0,228.8 L 27.2,236.0 M 27.2,164.0 L 20.0,171.2 M 27.2,236.0 L 44.0,236.0 M 44.0,164.0 L 27.2,164.0 M 212.0,228.8 L 212.0,171.2 M 212.0,171.2 L 204.8,164.0 M 204.8,236.0 L 212.0,228.8 M 204.8,164.0 L 188.0,164.0 M 188.0,236.0 L 204.8,236.0 M 44.0,274.4 L 51.2,281.6 M 51.2,281.6 L 89.6,281.6 M 44.0,236.0 L 44.0,274.4 M 188.0,125.6 L 180.8,118.4 M 180.8,118.4 L 142.4,118.4 M 188.0,164.0 L 188.0,125.6 M 89.6,118.4 L 51.2,118.4 M 51.2,118.4 L 44.0,125.6 M 44.0,125.6 L 44.0,164.0 M 142.4,281.6 L 180.8,281.6 M 180.8,281.6 L 188.0,274.4 M 188.0,274.4 L 188.0,236.0 M 89.6,281.6 L 101.6,293.6 M 101.6,106.4 L 89.6,118.4 M 142.4,118.4 L 130.4,106.4 M 130.4,293.6 L 142.4,281.6 M 120.6,210.4 L 111.4,210.4 M 111.4,210.4 L 88.2,233.6 M 143.8,233.6 L 120.6,210.4 M 88.2,233.6 L 111.4,256.8 M 111.4,256.8 L 120.6,256.8 M 120.6,256.8 L 143.8,233.6 M 120.6,143.2 L 111.4,143.2 M 111.4,143.2 L 88.2,166.4 M 143.8,166.4 L 120.6,143.2 M 88.2,166.4 L 111.4,189.6 M 111.4,189.6 L 120.6,189.6 M 120.6,189.6 L 143.8,166.4" fill="none" stroke="white" stroke-width="2" stroke-linecap="round"/>
  <polygon points="115.63959734178444,95.32527816118132 123.63959734178444,103.32527816118132 115.63959734178444,111.32527816118132 107.63959734178444,103.32527816118132" fill="#4a9eff" stroke="white" stroke-width="1"/>
<polygon points="116.07066102334637,288.05150257173784 124.07066102334637,296.05150257173784 116.07066102334637,304.05150257173784 108.07066102334637,296.05150257173784" fill="#4a9eff" stroke="white" stroke-width="1"/>
</svg>