<svg xmlns="http://www.w3.org/2000/svg" viewBox="0 0 400 400">
  <rect width="400" height="400" fill="#1a1a2e"/>
  <path d="M 54.2,231.9 L 67.8,231.9 L 67.8,209.1 Z M 54.2,231.9 L 67.8,209.1 L 54.2,209.1 Z M 54.2,209.1 L 67.8,209.1 L 67.8,186.3 Z M 54.2,209.1 L 67.8,186.3 L 54.2,186.3 Z M 54.2,186.3 L 40.5,186.3 L 40.5,209.1 Z M 54.2,186.3 L 40.5,209.1 L 54.2,209.1 Z M 54.2,209.1 L 40.5,209.1 L 40.5,231.9 Z M 54.2,209.1 L 40.5,231.9 L 54.2,231.9 Z M 54.2,20.0 L 54.2,118.0 L 67.8,118.0 Z M 54.2,20.0 L 67.8,118.0 L 67.8,20.0 Z M 54.2,20.0 L 40.5,20.0 L 40.5,118.0 Z M 54.2,20.0 L 40.5,118.0 L 54.2,118.0 Z M 54.2,380.0 L 54.2,300.3 L 40.5,300.3 Z M 54.2,380.0 L 40.5,300.3 L 40.5,380.0 Z M 54.2,380.0 L 67.8,380.0 L 67.8,300.3 Z M 54.2,380.0 L 67.8,300.3 L 54.2,300.3 Z M 22.3,131.6 L 38.2,168.1 L 38.2,136.2 Z M 22.3,131.6 L 38.2,136.2 L 33.7,120.3 Z M 33.7,120.3 L 38.2,136.2 L 70.1,136.2 Z M 33.7,120.3 L 70.1,136.2 L 74.7,120.3 Z M 86.1,131.6 L 74.7,120.3 L 70.1,136.2 Z M 86.1,131.6 L 70.1,136.2 L 86.1,172.7 Z M 86.1,172.7 L 70.1,136.2 L 70.1,168.1 Z M 86.1,172.7 L 70.1,168.1 L 74.7,184.1 Z M 74.7,184.1 L 70.1,168.1 L 38.2,168.1 Z M 74.7,184.1 L 38.2,168.1 L 33.7,184.1 Z M 33.7,184.1 L 38.2,168.1 L 22.3,131.6 Z M 33.7,184.1 L 22.3,131.6 L 22.3,172.7 Z M 22.3,245.6 L 38.2,282.0 L 38.2,250.1 Z M 22.3,245.6 L 38.2,250.1 L 33.7,234.2 Z M 33.7,234.2 L 38.2,250.1 L 70.1,250.1 Z M 33.7,234.2 L 70.1,250.1 L 74.7,234.2 Z M 86.1,245.6 L 74.7,234.2 L 70.1,250.1 Z M 86.1,245.6 L 70.1,250.1 L 86.1,286.6 Z M 86.1,286.6 L 70.1,250.1 L 70.1,282.0 Z M 86.1,286.6 L 70.1,282.0 L 74.7,298.0 Z M 74.7,298.0 L 70.1,282.0 L 38.2,282.0 Z M 74.7,298.0 L 38.2,282.0 L 33.7,298.0 Z M 33.7,298.0 L 38.2,282.0 L 22.3,245.6 Z M 33.7,298.0 L 22.3,245.6 L 22.3,286.6 Z M 38.2,168.1 L 70.1,168.1 L 70.1,136.2 Z M 38.2,168.1 L 70.1,136.2 L 38.2,136.2 Z M 38.2,282.0 L 70.1,282.0 L 70.1,250.1 Z M 38.2,282.0 L 70.1,250.1 L 38.2,250.1 Z M 88.4,131.6 L 86.1,131.6 L 86.1,172.7 Z M 88.4,131.6 L 86.1,172.7 L 88.4,172.7 Z M 88.4,172.7 L 86.1,172.7 L 74.7,184.1 Z M 88.4,172.7 L 74.7,184.1 L 74.7,186.3 Z M 74.7,186.3 L 74.7,184.1 L 33.7,184.1 Z M 74.7,186.3 L 33.7,184.1 L 33.7,186.3 Z M 33.7,186.3 L 33.7,184.1 L 22.3,172.7 Z M 33.7,186.3 L 22.3,172.7 L 20.0,172.7 Z M 86.1,131.6 L 88.4,131.6 L 74.7,118.0 Z M 86.1,131.6 L 74.7,118.0 L 74.7,120.3 Z M 74.7,120.3 L 74.7,118.0 L 33.7,118.0 Z M 74.7,120.3 L 33.7,118.0 L 33.7,120.3 Z M 33.7,120.3 L 33.7,118.0 L 20.0,131.6 Z M 33.7,120.3 L 20.0,131.6 L 22.3,131.6 Z M 22.3,131.6 L 20.0,131.6 L 20.0,172.7 Z M 22.3,131.6 L 20.0,172.7 L 22.3,172.7 Z M 88.4,245.6 L 86.1,245.6 L 86.1,286.6 Z M 88.4,245.6 L 86.1,286.6 L 88.4,286.6 Z M 88.4,286.6 L 86.1,286.6 L 74.7,298.0 Z M 88.4,286.6 L 74.7,298.0 L 74.7,300.3 Z M 74.7,300.3 L 74.7,298.0 L 33.7,298.0 Z M 74.7,300.3 L 33.7,298.0 L 33.7,300.3 Z M 33.7,300.3 L 33.7,298.0 L 22.3,286.6 Z M 33.7,300.3 L 22.3,286.6 L 20.0,286.6 Z M 86.1,245.6 L 88.4,245.6 L 74.7,231.9 Z M 86.1,245.6 L 74.7,231.9 L 74.7,234.2 Z M 74.7,234.2 L 74.7,231.9 L 33.7,231.9 Z M 74.7,234.2 L 33.7,231.9 L 33.7,234.2 Z M 33.7,234.2 L 33.7,231.9 L 20.0,245.6 Z M 33.7,234.2 L 20.0,245.6 L 22.3,245.6 Z M 22.3,245.6 L 20.0,245.6 L 20.0,286.6 Z M 22.3,245.6 L 20.0,286.6 L 22.3,286.6 Z" fill="#2a2a4e" stroke="none"/>
  <path d="M 54.2,231.9 L 67.8,231.9 M 67.8,231.9 L 67.8,209.1 M 67.8,209.1 L 67.8,186.3 M 67.8,186.3 L 54.2,186.3 M 54.2,186.3 L 40.5,186.3 M 40.5,186.3 L 40.5,209.1 M 40.5,209.1 L 40.5,231.9 M 40.5,231.9 L 54.2,231.9 M 54.2,118.0 L 67.8,118.0 M 67.8,118.0 L 67.8,20.0 M 67.8,20.0 L 54.2,20.0 M 54.2,20.0 L 40.5,20.0 M 40.5,20.0 L 40.5,118.0 M 40.5,118.0 L 54.2,118.0 M 54.2,300.3 L 40.5,300.3 M 40.5,300.3 L 40.5,380.0 M 40.5,380.0 L 54.2,380.0 M 54.2,380.0 L 67.8,380.0 M 67.8,380.0 L 67.8,300.3 M 67.8,300.3 L 54.2,300.3 M 88.4,172.7 L 88.4,131.6 M 74.7,186.3 L 88.4,172.7 M 33.7,186.3 L 74.7,186.3 M 20.0,172.7 L 33.7,186.3 M 88.4,131.6 L 74.7,118.0 M 74.7,118.0 L 33.7,118.0 M 33.7,118.0 L 20.0,131.6 M 20.0,131.6 L 20.0,172.7 M 88.4,286.6 L 88.4,245.6 M 74.7,300.3 L 88.4,286.6 M 33.7,300.3 L 74.7,300.3 M 20.0,286.6 L 33.7,300.3 M 88.4,245.6 L 74.7,231.9 M 74.7,231.9 L 33.7,231.9 M 33.7,231.9 L 20.0,245.6 M 20.0,245.6 L 20.0,286.6" fill="none" stroke="white" stroke-width="2" stroke-linecap="round"/>
  <polygon points="51.63582305099724,293.1472252164202 59.63582305099724,301.1472252164202 51.63582305099724,309.1472252164202 43.63582305099724,301.1472252164202" fill="#4a9eff" stroke="white" stroke-width="1"/>
<polygon points="55.06113174911725,110.45476108780431 63.06113174911725,118.45476108780431 55.06113174911725,126.45476108780431 47.06113174911725,118.45476108780431" fill="#4a9eff" stroke="white" stroke-width="1"/>
</svg>