<svg xmlns="http://www.w3.org/2000/svg" viewBox="0 0 400 400">
  <rect width="400" height="400" fill="#1a1a2e"/>
  <path d="M 158.2,152.5 L 143.8,143.8 L 97.8,181.3 Z M 158.2,152.5 L 97.8,181.3 L 106.4,195.7 Z M 106.4,195.7 L 97.8,181.3 L 69.0,236.0 Z M 106.4,195.7 L 69.0,236.0 L 86.2,236.0 Z M 181.3,123.7 L 164.0,123.7 L 169.8,152.5 Z M 181.3,123.7 L 169.8,152.5 L 184.2,143.8 Z M 184.2,143.8 L 169.8,152.5 L 247.5,230.2 Z M 184.2,143.8 L 247.5,230.2 L 256.2,215.8 Z M 256.2,215.8 L 247.5,230.2 L 276.3,236.0 Z M 256.2,215.8 L 276.3,236.0 L 276.3,218.7 Z M 256.2,256.2 L 247.5,241.8 L 204.3,293.6 Z M 256.2,256.2 L 204.3,293.6 L 218.7,302.2 Z M 218.7,302.2 L 204.3,293.6 L 164.0,313.8 Z M 218.7,302.2 L 164.0,313.8 L 164.0,331.0 Z M 99.2,300.8 L 111.4,288.6 L 86.2,236.0 Z M 99.2,300.8 L 86.2,236.0 L 69.0,236.0 Z M 143.8,143.8 L 158.2,152.5 L 164.0,123.7 Z M 143.8,143.8 L 164.0,123.7 L 146.7,123.7 Z M 181.3,123.7 L 181.3,20.0 L 164.0,20.0 Z M 181.3,123.7 L 164.0,20.0 L 164.0,123.7 Z M 164.0,123.7 L 164.0,20.0 L 146.7,20.0 Z M 164.0,123.7 L 146.7,20.0 L 146.7,123.7 Z M 99.2,300.8 L 164.0,331.0 L 164.0,313.8 Z M 99.2,300.8 L 164.0,313.8 L 111.4,288.6 Z M 276.3,236.0 L 247.5,241.8 L 256.2,256.2 Z M 276.3,236.0 L 256.2,256.2 L 276.3,253.3 Z M 380.0,236.0 L 380.0,218.7 L 276.3,218.7 Z M 380.0,236.0 L 276.3,218.7 L 276.3,236.0 Z M 380.0,253.3 L 380.0,236.0 L 276.3,236.0 Z M 380.0,253.3 L 276.3,236.0 L 276.3,253.3 Z M 111.4,288.6 L 106.7,264.5 L 94.9,236.0 Z M 111.4,288.6 L 94.9,236.0 L 86.2,236.0 Z M 86.2,236.0 L 94.9,236.0 L 106.7,207.5 Z M 86.2,236.0 L 106.7,207.5 L 106.4,195.7 Z M 143.8,143.8 L 132.3,132.3 L 77.6,136.2 Z M 143.8,143.8 L 77.6,136.2 L 97.8,181.3 Z M 97.8,181.3 L 77.6,136.2 L 20.0,236.0 Z M 97.8,181.3 L 20.0,236.0 L 69.0,236.0 Z M 69.0,236.0 L 20.0,236.0 L 70.9,329.1 Z M 69.0,236.0 L 70.9,329.1 L 99.2,300.8 Z M 99.2,300.8 L 70.9,329.1 L 164.0,380.0 Z M 99.2,300.8 L 164.0,380.0 L 164.0,331.0 Z M 164.0,331.0 L 164.0,380.0 L 263.8,322.4 Z M 164.0,331.0 L 263.8,322.4 L 218.7,302.2 Z M 218.7,302.2 L 263.8,322.4 L 267.7,267.7 Z M 218.7,302.2 L 267.7,267.7 L 256.2,256.2 Z M 135.5,293.3 L 111.4,288.6 L 164.0,313.8 Z M 135.5,293.3 L 164.0,313.8 L 164.0,305.1 Z M 164.0,305.1 L 164.0,313.8 L 204.3,293.6 Z M 164.0,305.1 L 204.3,293.6 L 192.5,293.3 Z M 106.7,207.5 L 135.2,195.7 L 106.4,195.7 Z M 135.2,195.7 L 158.2,152.5 L 106.4,195.7 Z M 164.0,123.7 L 158.2,152.5 L 169.8,152.5 Z M 158.2,152.5 L 135.2,195.7 L 169.8,152.5 Z M 169.8,152.5 L 135.2,195.7 L 192.8,195.7 Z M 192.5,293.3 L 204.3,293.6 L 204.3,264.8 Z M 204.3,293.6 L 247.5,241.8 L 204.3,264.8 Z M 204.3,264.8 L 247.5,241.8 L 247.5,230.2 Z M 247.5,241.8 L 276.3,236.0 L 247.5,230.2 Z M 135.2,195.7 L 156.8,207.2 L 171.2,207.2 Z M 135.2,195.7 L 171.2,207.2 L 192.8,195.7 Z M 184.2,143.8 L 256.2,215.8 L 276.3,218.7 Z M 184.2,143.8 L 276.3,218.7 L 181.3,123.7 Z M 192.8,228.8 L 192.8,243.2 L 204.3,264.8 Z M 192.8,228.8 L 204.3,264.8 L 204.3,207.2 Z M 204.3,207.2 L 247.5,230.2 L 169.8,152.5 Z M 204.3,207.2 L 169.8,152.5 L 192.8,195.7 Z M 267.7,267.7 L 276.3,253.3 L 256.2,256.2 Z M 111.4,288.6 L 135.5,293.3 L 106.7,264.5 Z M 204.3,207.2 L 204.3,264.8 L 247.5,230.2 Z M 143.8,143.8 L 146.7,123.7 L 132.3,132.3 Z" fill="#2a2a4e" stroke="none"/>
  <path d="M 181.3,123.7 L 181.3,20.0 M 181.3,20.0 L 164.0,20.0 M 164.0,20.0 L 146.7,20.0 M 146.7,20.0 L 146.7,123.7 M 380.0,236.0 L 380.0,218.7 M 380.0,218.7 L 276.3,218.7 M 380.0,253.3 L 380.0,236.0 M 276.3,253.3 L 380.0,253.3 M 106.7,264.5 L 94.9,236.0 M 94.9,236.0 L 106.7,207.5 M 132.3,132.3 L 77.6,136.2 M 77.6,136.2 L 20.0,236.0 M 20.0,236.0 L 70.9,329.1 M 70.9,329.1 L 164.0,380.0 M 164.0,380.0 L 263.8,322.4 M 263.8,322.4 L 267.7,267.7 M 164.0,305.1 L 135.5,293.3 M 192.5,293.3 L 164.0,305.1 M 106.7,207.5 L 135.2,195.7 M 204.3,264.8 L 192.5,293.3 M 135.2,195.7 L 156.8,207.2 M 156.8,207.2 L 171.2,207.2 M 171.2,207.2 L 192.8,195.7 M 276.3,218.7 L 181.3,123.7 M 192.8,228.8 L 192.8,243.2 M 192.8,243.2 L 204.3,264.8 M 204.3,207.2 L 192.8,228.8 M 192.8,195.7 L 204.3,207.2 M 267.7,267.7 L 276.3,253.3 M 135.5,293.3 L 106.7,264.5 M 146.7,123.7 L 132.3,132.3" fill="none" stroke="white" stroke-width="2" stroke-linecap="round"/>
  <polygon points="163.56515846718568,111.69726647541852 171.56515846718568,119.69726647541852 163.56515846718568,127.69726647541852 155.56515846718568,119.69726647541852" fill="#4a9eff" stroke="white" stroke-width="1"/>
<polygon points="280.07586582170495,227.9662199416274 288.07586582170495,235.9662199416274 280.07586582170495,243.9662199416274 272.07586582170495,235.9662199416274" fill="#4a9eff" stroke="white" stroke-width="1"/>
</svg>