<svg xmlns="http://www.w3.org/2000/svg" viewBox="0 0 400 400">
  <rect width="400" height="400" fill="#1a1a2e"/>
  <path d="M 182.1,120.4 L 182.1,20.0 L 164.9,20.0 Z M 182.1,120.4 L 164.9,20.0 L 164.9,120.4 Z M 279.6,217.9 L 279.6,235.1 L 380.0,235.1 Z M 279.6,217.9 L 380.0,235.1 L 380.0,217.9 Z M 147.7,120.4 L 164.9,120.4 L 164.9,20.0 Z M 147.7,120.4 L 164.9,20.0 L 147.7,20.0 Z M 279.6,252.3 L 380.0,252.3 L 380.0,235.1 Z M 279.6,252.3 L 380.0,235.1 L 279.6,235.1 Z M 107.5,180.6 L 121.8,180.6 L 121.8,163.4 Z M 107.5,180.6 L 121.8,163.4 L 107.5,163.4 Z M 107.5,146.2 L 107.5,163.4 L 121.8,163.4 Z M 107.5,146.2 L 121.8,163.4 L 121.8,146.2 Z M 219.4,278.2 L 219.4,292.5 L 236.6,292.5 Z M 219.4,278.2 L 236.6,292.5 L 236.6,278.2 Z M 253.8,278.2 L 236.6,278.2 L 236.6,292.5 Z M 253.8,278.2 L 236.6,292.5 L 253.8,292.5 Z M 185.0,189.2 L 190.7,203.6 L 205.0,189.2 Z M 185.0,189.2 L 205.0,189.2 L 190.7,183.5 Z M 190.7,183.5 L 205.0,189.2 L 205.0,137.6 Z M 190.7,183.5 L 205.0,137.6 L 190.7,143.3 Z M 190.7,143.3 L 205.0,137.6 L 190.7,123.3 Z M 190.7,143.3 L 190.7,123.3 L 185.0,137.6 Z M 185.0,137.6 L 190.7,123.3 L 139.1,123.3 Z M 185.0,137.6 L 139.1,123.3 L 144.8,137.6 Z M 144.8,137.6 L 139.1,123.3 L 124.7,137.6 Z M 144.8,137.6 L 124.7,137.6 L 139.1,143.3 Z M 139.1,143.3 L 124.7,137.6 L 124.7,189.2 Z M 139.1,143.3 L 124.7,189.2 L 139.1,183.5 Z M 139.1,183.5 L 124.7,189.2 L 139.1,203.6 Z M 139.1,183.5 L 139.1,203.6 L 144.8,189.2 Z M 144.8,189.2 L 139.1,203.6 L 190.7,203.6 Z M 144.8,189.2 L 190.7,203.6 L 185.0,189.2 Z M 256.7,260.9 L 262.4,275.3 L 276.7,260.9 Z M 256.7,260.9 L 276.7,260.9 L 262.4,255.2 Z M 262.4,255.2 L 276.7,260.9 L 276.7,209.3 Z M 262.4,255.2 L 276.7,209.3 L 262.4,215.0 Z M 262.4,215.0 L 276.7,209.3 L 262.4,195.0 Z M 262.4,215.0 L 262.4,195.0 L 256.7,209.3 Z M 256.7,209.3 L 262.4,195.0 L 210.8,195.0 Z M 256.7,209.3 L 210.8,195.0 L 216.5,209.3 Z M 216.5,209.3 L 210.8,195.0 L 196.4,209.3 Z M 216.5,209.3 L 196.4,209.3 L 210.8,215.0 Z M 210.8,215.0 L 196.4,209.3 L 196.4,260.9 Z M 210.8,215.0 L 196.4,260.9 L 210.8,255.2 Z M 210.8,255.2 L 196.4,260.9 L 210.8,275.3 Z M 210.8,255.2 L 210.8,275.3 L 216.5,260.9 Z M 216.5,260.9 L 210.8,275.3 L 262.4,275.3 Z M 216.5,260.9 L 262.4,275.3 L 256.7,260.9 Z M 302.6,375.7 L 288.2,358.5 L 164.9,358.5 Z M 302.6,375.7 L 164.9,358.5 L 164.9,375.7 Z M 164.9,375.7 L 164.9,358.5 L 41.5,235.1 Z M 164.9,375.7 L 41.5,235.1 L 24.3,235.1 Z M 24.3,235.1 L 41.5,235.1 L 41.5,111.8 Z M 24.3,235.1 L 41.5,111.8 L 24.3,97.4 Z M 288.2,312.6 L 302.6,295.4 L 164.9,295.4 Z M 288.2,312.6 L 164.9,295.4 L 164.9,312.6 Z M 164.9,312.6 L 164.9,295.4 L 104.6,235.1 Z M 164.9,312.6 L 104.6,235.1 L 87.4,235.1 Z M 87.4,235.1 L 104.6,235.1 L 104.6,97.4 Z M 87.4,235.1 L 104.6,97.4 L 87.4,111.8 Z M 164.9,312.6 L 87.4,235.1 L 64.5,235.1 Z M 164.9,312.6 L 64.5,235.1 L 164.9,335.5 Z M 164.9,335.5 L 64.5,235.1 L 41.5,235.1 Z M 164.9,335.5 L 41.5,235.1 L 164.9,358.5 Z M 164.9,358.5 L 288.2,358.5 L 164.9,335.5 Z M 288.2,358.5 L 288.2,312.6 L 164.9,335.5 Z M 164.9,335.5 L 288.2,312.6 L 164.9,312.6 Z M 41.5,235.1 L 64.5,235.1 L 41.5,111.8 Z M 64.5,235.1 L 87.4,111.8 L 41.5,111.8 Z M 78.8,353.6 L 111.3,321.2 L 78.8,321.2 Z M 111.3,321.2 L 78.8,288.7 L 78.8,321.2 Z M 78.8,321.2 L 78.8,288.7 L 46.4,321.2 Z M 288.2,358.5 L 305.4,372.8 L 305.4,298.2 Z M 288.2,358.5 L 305.4,298.2 L 288.2,312.6 Z M 101.8,94.6 L 27.2,94.6 L 41.5,111.8 Z M 101.8,94.6 L 41.5,111.8 L 87.4,111.8 Z M 111.3,321.2 L 133.6,319.1 L 80.9,266.4 Z M 111.3,321.2 L 80.9,266.4 L 78.8,288.7 Z M 78.8,288.7 L 76.8,266.4 L 24.1,319.1 Z M 78.8,288.7 L 24.1,319.1 L 46.4,321.2 Z M 46.4,321.2 L 24.1,323.2 L 76.8,375.9 Z M 46.4,321.2 L 76.8,375.9 L 78.8,353.6 Z M 78.8,353.6 L 80.9,375.9 L 133.6,323.2 Z M 78.8,353.6 L 133.6,323.2 L 111.3,321.2 Z M 288.2,358.5 L 302.6,375.7 L 305.4,372.8 Z M 288.2,312.6 L 305.4,298.2 L 302.6,295.4 Z M 41.5,111.8 L 27.2,94.6 L 24.3,97.4 Z M 87.4,111.8 L 104.6,97.4 L 101.8,94.6 Z M 87.4,111.8 L 64.5,235.1 L 87.4,235.1 Z M 78.8,288.7 L 80.9,266.4 L 76.8,266.4 Z M 46.4,321.2 L 24.1,319.1 L 24.1,323.2 Z M 78.8,353.6 L 76.8,375.9 L 80.9,375.9 Z M 111.3,321.2 L 133.6,323.2 L 133.6,319.1 Z M 46.4,321.2 L 78.8,353.6 L 78.8,321.2 Z M 121.8,189.2 L 124.7,189.2 L 124.7,137.6 Z M 121.8,189.2 L 124.7,137.6 L 121.8,137.6 Z M 121.8,137.6 L 124.7,137.6 L 139.1,123.3 Z M 121.8,137.6 L 139.1,123.3 L 139.1,120.4 Z M 139.1,120.4 L 139.1,123.3 L 190.7,123.3 Z M 139.1,120.4 L 190.7,123.3 L 190.7,120.4 Z M 190.7,120.4 L 190.7,123.3 L 205.0,137.6 Z M 190.7,120.4 L 205.0,137.6 L 207.9,137.6 Z M 124.7,189.2 L 121.8,189.2 L 139.1,206.4 Z M 124.7,189.2 L 139.1,206.4 L 139.1,203.6 Z M 139.1,203.6 L 139.1,206.4 L 190.7,206.4 Z M 139.1,203.6 L 190.7,206.4 L 190.7,203.6 Z M 190.7,203.6 L 190.7,206.4 L 207.9,189.2 Z M 190.7,203.6 L 207.9,189.2 L 205.0,189.2 Z M 205.0,189.2 L 207.9,189.2 L 207.9,137.6 Z M 205.0,189.2 L 207.9,137.6 L 205.0,137.6 Z M 193.6,260.9 L 196.4,260.9 L 196.4,209.3 Z M 193.6,260.9 L 196.4,209.3 L 193.6,209.3 Z M 193.6,209.3 L 196.4,209.3 L 210.8,195.0 Z M 193.6,209.3 L 210.8,195.0 L 210.8,192.1 Z M 210.8,192.1 L 210.8,195.0 L 262.4,195.0 Z M 210.8,192.1 L 262.4,195.0 L 262.4,192.1 Z M 262.4,192.1 L 262.4,195.0 L 276.7,209.3 Z M 262.4,192.1 L 276.7,209.3 L 279.6,209.3 Z M 196.4,260.9 L 193.6,260.9 L 210.8,278.2 Z M 196.4,260.9 L 210.8,278.2 L 210.8,275.3 Z M 210.8,275.3 L 210.8,278.2 L 262.4,278.2 Z M 210.8,275.3 L 262.4,278.2 L 262.4,275.3 Z M 262.4,275.3 L 262.4,278.2 L 279.6,260.9 Z M 262.4,275.3 L 279.6,260.9 L 276.7,260.9 Z M 276.7,260.9 L 279.6,260.9 L 279.6,209.3 Z M 276.7,260.9 L 279.6,209.3 L 276.7,209.3 Z M 302.6,375.7 L 305.4,378.5 L 308.3,375.7 Z M 302.6,375.7 L 308.3,375.7 L 305.4,372.8 Z M 305.4,372.8 L 308.3,375.7 L 308.3,295.4 Z M 305.4,372.8 L 308.3,295.4 L 305.4,298.2 Z M 305.4,298.2 L 308.3,295.4 L 305.4,292.5 Z M 305.4,298.2 L 305.4,292.5 L 302.6,295.4 Z M 302.6,295.4 L 305.4,292.5 L 164.9,292.5 Z M 302.6,295.4 L 164.9,292.5 L 164.9,295.4 Z M 164.9,295.4 L 164.9,292.5 L 107.5,235.1 Z M 164.9,295.4 L 107.5,235.1 L 104.6,235.1 Z M 21.5,94.6 L 24.3,97.4 L 27.2,94.6 Z M 21.5,94.6 L 27.2,94.6 L 24.3,91.7 Z M 24.3,91.7 L 27.2,94.6 L 101.8,94.6 Z M 24.3,91.7 L 101.8,94.6 L 104.6,91.7 Z M 104.6,91.7 L 101.8,94.6 L 104.6,97.4 Z M 104.6,91.7 L 104.6,97.4 L 107.5,94.6 Z M 20.0,319.1 L 24.1,319.1 L 76.8,266.4 Z M 20.0,319.1 L 76.8,266.4 L 76.8,262.4 Z M 76.8,262.4 L 76.8,266.4 L 80.9,266.4 Z M 76.8,262.4 L 80.9,266.4 L 80.9,262.4 Z M 80.9,262.4 L 80.9,266.4 L 133.6,319.1 Z M 80.9,262.4 L 133.6,319.1 L 137.6,319.1 Z M 137.6,319.1 L 133.6,319.1 L 133.6,323.2 Z M 137.6,319.1 L 133.6,323.2 L 137.6,323.2 Z M 137.6,323.2 L 133.6,323.2 L 80.9,375.9 Z M 137.6,323.2 L 80.9,375.9 L 80.9,380.0 Z M 24.1,319.1 L 20.0,319.1 L 20.0,323.2 Z M 24.1,319.1 L 20.0,323.2 L 24.1,323.2 Z M 24.1,323.2 L 20.0,323.2 L 76.8,380.0 Z M 24.1,323.2 L 76.8,380.0 L 76.8,375.9 Z M 76.8,375.9 L 76.8,380.0 L 80.9,380.0 Z M 76.8,375.9 L 80.9,380.0 L 80.9,375.9 Z M 164.9,375.7 L 164.9,378.5 L 305.4,378.5 Z M 164.9,375.7 L 305.4,378.5 L 302.6,375.7 Z M 164.9,378.5 L 164.9,375.7 L 24.3,235.1 Z M 164.9,378.5 L 24.3,235.1 L 21.5,235.1 Z M 21.5,94.6 L 21.5,235.1 L 24.3,235.1 Z M 21.5,94.6 L 24.3,235.1 L 24.3,97.4 Z M 104.6,235.1 L 107.5,235.1 L 107.5,94.6 Z M 104.6,235.1 L 107.5,94.6 L 104.6,97.4 Z M 190.7,183.5 L 190.7,143.3 L 185.0,137.6 Z M 190.7,183.5 L 185.0,137.6 L 185.0,189.2 Z M 185.0,189.2 L 185.0,137.6 L 144.8,137.6 Z M 185.0,189.2 L 144.8,137.6 L 144.8,189.2 Z M 144.8,189.2 L 144.8,137.6 L 139.1,143.3 Z M 144.8,189.2 L 139.1,143.3 L 139.1,183.5 Z M 262.4,255.2 L 262.4,215.0 L 256.7,209.3 Z M 262.4,255.2 L 256.7,209.3 L 256.7,260.9 Z M 256.7,260.9 L 256.7,209.3 L 216.5,209.3 Z M 256.7,260.9 L 216.5,209.3 L 216.5,260.9 Z M 216.5,260.9 L 216.5,209.3 L 210.8,215.0 Z M 216.5,260.9 L 210.8,215.0 L 210.8,255.2 Z" fill="#2a2a4e" stroke="none"/>
  <path d="M 182.1,120.4 L 182.1,20.0 M 182.1,20.0 L 164.9,20.0 M 164.9,120.4 L 182.1,120.4 M 279.6,217.9 L 279.6,235.1 M 380.0,235.1 L 380.0,217.9 M 380.0,217.9 L 279.6,217.9 M 147.7,120.4 L 164.9,120.4 M 164.9,20.0 L 147.7,20.0 M 147.7,20.0 L 147.7,120.4 M 279.6,252.3 L 380.0,252.3 M 380.0,252.3 L 380.0,235.1 M 279.6,235.1 L 279.6,252.3 M 107.5,180.6 L 121.8,180.6 M 121.8,180.6 L 121.8,163.4 M 107.5,163.4 L 107.5,180.6 M 107.5,146.2 L 107.5,163.4 M 121.8,163.4 L 121.8,146.2 M 121.8,146.2 L 107.5,146.2 M 219.4,278.2 L 219.4,292.5 M 219.4,292.5 L 236.6,292.5 M 236.6,278.2 L 219.4,278.2 M 253.8,278.2 L 236.6,278.2 M 236.6,292.5 L 253.8,292.5 M 253.8,292.5 L 253.8,278.2 M 121.8,137.6 L 121.8,189.2 M 139.1,120.4 L 121.8,137.6 M 190.7,120.4 L 139.1,120.4 M 207.9,137.6 L 190.7,120.4 M 121.8,189.2 L 139.1,206.4 M 139.1,206.4 L 190.7,206.4 M 190.7,206.4 L 207.9,189.2 M 207.9,189.2 L 207.9,137.6 M 193.6,209.3 L 193.6,260.9 M 210.8,192.1 L 193.6,209.3 M 262.4,192.1 L 210.8,192.1 M 279.6,209.3 L 262.4,192.1 M 193.6,260.9 L 210.8,278.2 M 210.8,278.2 L 262.4,278.2 M 262.4,278.2 L 279.6,260.9 M 279.6,260.9 L 279.6,209.3 M 305.4,378.5 L 308.3,375.7 M 308.3,375.7 L 308.3,295.4 M 308.3,295.4 L 305.4,292.5 M 305.4,292.5 L 164.9,292.5 M 164.9,292.5 L 107.5,235.1 M 24.3,91.7 L 21.5,94.6 M 104.6,91.7 L 24.3,91.7 M 107.5,94.6 L 104.6,91.7 M 76.8,262.4 L 20.0,319.1 M 80.9,262.4 L 76.8,262.4 M 137.6,319.1 L 80.9,262.4 M 137.6,323.2 L 137.6,319.1 M 80.9,380.0 L 137.6,323.2 M 20.0,319.1 L 20.0,323.2 M 20.0,323.2 L 76.8,380.0 M 76.8,380.0 L 80.9,380.0 M 164.9,378.5 L 305.4,378.5 M 21.5,235.1 L 164.9,378.5 M 21.5,94.6 L 21.5,235.1 M 107.5,235.1 L 107.5,94.6" fill="none" stroke="white" stroke-width="2" stroke-linecap="round"/>
  <polygon points="161.71250156688268,109.48044697274248 169.71250156688268,117.48044697274248 161.71250156688268,125.48044697274248 153.71250156688268,117.48044697274248" fill="#4a9eff" stroke="white" stroke-width="1"/>
<polygon points="282.18876787779544,224.24706849971574 290.18876787779544,232.24706849971574 282.18876787779544,240.24706849971574 274.18876787779544,232.24706849971574" fill="#4a9eff" stroke="white" stroke-width="1"/>
</svg>