<svg xmlns="http://www.w3.org/2000/svg" viewBox="0 0 400 400">
  <rect width="400" height="400" fill="#1a1a2e"/>
  <path d="M 143.2,133.7 L 124.2,133.7 L 114.7,190.5 Z M 143.2,133.7 L 114.7,190.5 L 133.7,200.0 Z M 133.7,200.0 L 114.7,190.5 L 67.4,237.9 Z M 133.7,200.0 L 67.4,237.9 L 86.3,247.4 Z M 86.3,247.4 L 67.4,237.9 L 67.4,275.8 Z M 86.3,247.4 L 67.4,275.8 L 86.3,266.3 Z M 86.3,266.3 L 67.4,275.8 L 95.8,304.2 Z M 86.3,266.3 L 95.8,304.2 L 110.0,290.0 Z M 266.3,275.8 L 266.3,256.8 L 200.0,266.3 Z M 266.3,275.8 L 200.0,266.3 L 209.5,285.3 Z M 209.5,285.3 L 200.0,266.3 L 152.6,313.7 Z M 209.5,285.3 L 152.6,313.7 L 162.1,332.6 Z M 162.1,332.6 L 152.6,313.7 L 133.7,313.7 Z M 162.1,332.6 L 133.7,313.7 L 124.2,332.6 Z M 124.2,332.6 L 133.7,313.7 L 110.0,290.0 Z M 124.2,332.6 L 110.0,290.0 L 95.8,304.2 Z M 143.2,133.7 L 152.6,200.0 L 171.6,190.5 Z M 143.2,133.7 L 171.6,190.5 L 162.1,133.7 Z M 143.2,20.0 L 143.2,133.7 L 162.1,133.7 Z M 143.2,20.0 L 162.1,133.7 L 162.1,20.0 Z M 124.2,20.0 L 124.2,133.7 L 143.2,133.7 Z M 124.2,20.0 L 143.2,133.7 L 143.2,20.0 Z M 171.6,190.5 L 152.6,200.0 L 200.0,247.4 Z M 171.6,190.5 L 200.0,247.4 L 209.5,228.4 Z M 209.5,228.4 L 200.0,247.4 L 266.3,256.8 Z M 209.5,228.4 L 266.3,256.8 L 266.3,237.9 Z M 266.3,237.9 L 266.3,256.8 L 380.0,256.8 Z M 266.3,237.9 L 380.0,256.8 L 380.0,237.9 Z M 266.3,256.8 L 266.3,275.8 L 380.0,275.8 Z M 266.3,256.8 L 380.0,275.8 L 380.0,256.8 Z M 45.3,345.3 L 54.7,354.7 L 76.8,357.9 Z M 45.3,345.3 L 76.8,357.9 L 42.1,323.2 Z M 42.1,323.2 L 76.8,357.9 L 108.4,364.2 Z M 42.1,323.2 L 108.4,364.2 L 35.8,291.6 Z M 35.8,291.6 L 108.4,364.2 L 124.2,332.6 Z M 35.8,291.6 L 124.2,332.6 L 95.8,304.2 Z M 110.0,290.0 L 136.8,288.4 L 111.6,263.2 Z M 110.0,290.0 L 111.6,263.2 L 86.3,266.3 Z M 86.3,266.3 L 111.6,263.2 L 111.6,250.5 Z M 86.3,266.3 L 111.6,250.5 L 86.3,247.4 Z M 86.3,247.4 L 111.6,250.5 L 136.8,225.3 Z M 86.3,247.4 L 136.8,225.3 L 133.7,200.0 Z M 133.7,200.0 L 136.8,225.3 L 149.5,225.3 Z M 133.7,200.0 L 149.5,225.3 L 152.6,200.0 Z M 152.6,200.0 L 149.5,225.3 L 174.7,250.5 Z M 152.6,200.0 L 174.7,250.5 L 200.0,247.4 Z M 200.0,247.4 L 174.7,250.5 L 174.7,263.2 Z M 200.0,247.4 L 174.7,263.2 L 200.0,266.3 Z M 200.0,266.3 L 174.7,263.2 L 149.5,288.4 Z M 200.0,266.3 L 149.5,288.4 L 152.6,313.7 Z M 152.6,313.7 L 149.5,288.4 L 136.8,288.4 Z M 152.6,313.7 L 136.8,288.4 L 133.7,313.7 Z M 54.7,158.9 L 45.3,168.4 L 42.1,190.5 Z M 54.7,158.9 L 42.1,190.5 L 76.8,155.8 Z M 76.8,155.8 L 42.1,190.5 L 35.8,222.1 Z M 76.8,155.8 L 35.8,222.1 L 108.4,149.5 Z M 108.4,149.5 L 35.8,222.1 L 67.4,237.9 Z M 108.4,149.5 L 67.4,237.9 L 114.7,190.5 Z M 231.6,354.7 L 241.1,345.3 L 244.2,323.2 Z M 231.6,354.7 L 244.2,323.2 L 209.5,357.9 Z M 209.5,357.9 L 244.2,323.2 L 250.5,291.6 Z M 209.5,357.9 L 250.5,291.6 L 177.9,364.2 Z M 177.9,364.2 L 250.5,291.6 L 209.5,285.3 Z M 177.9,364.2 L 209.5,285.3 L 162.1,332.6 Z M 95.8,304.2 L 67.4,275.8 L 35.8,291.6 Z M 67.4,275.8 L 35.8,256.8 L 35.8,291.6 Z M 108.4,364.2 L 143.2,364.2 L 162.1,332.6 Z M 108.4,364.2 L 162.1,332.6 L 124.2,332.6 Z M 35.8,222.1 L 35.8,256.8 L 67.4,275.8 Z M 35.8,222.1 L 67.4,275.8 L 67.4,237.9 Z M 177.9,364.2 L 143.2,364.2 L 124.2,380.0 Z M 177.9,364.2 L 124.2,380.0 L 162.1,380.0 Z M 35.8,291.6 L 35.8,256.8 L 20.0,237.9 Z M 35.8,291.6 L 20.0,237.9 L 20.0,275.8 Z M 152.6,200.0 L 143.2,133.7 L 133.7,200.0 Z M 35.8,256.8 L 35.8,222.1 L 20.0,237.9 Z M 108.4,149.5 L 114.7,190.5 L 124.2,133.7 Z M 143.2,364.2 L 108.4,364.2 L 124.2,380.0 Z M 136.8,288.4 L 110.0,290.0 L 133.7,313.7 Z M 200.0,247.4 L 200.0,266.3 L 266.3,256.8 Z M 250.5,291.6 L 266.3,275.8 L 209.5,285.3 Z M 143.2,364.2 L 177.9,364.2 L 162.1,332.6 Z M 137.1,287.4 L 149.2,287.4 L 173.7,262.9 Z M 137.1,287.4 L 173.7,262.9 L 112.6,262.9 Z M 112.6,262.9 L 173.7,262.9 L 173.7,250.8 Z M 112.6,262.9 L 173.7,250.8 L 112.6,250.7 Z M 112.6,250.7 L 173.7,250.8 L 149.2,226.3 Z M 112.6,250.7 L 149.2,226.3 L 137.1,226.3 Z" fill="#2a2a4e" stroke="none"/>
  <path d="M 171.6,190.5 L 162.1,133.7 M 162.1,133.7 L 162.1,20.0 M 162.1,20.0 L 143.2,20.0 M 124.2,20.0 L 124.2,133.7 M 143.2,20.0 L 124.2,20.0 M 209.5,228.4 L 171.6,190.5 M 266.3,237.9 L 209.5,228.4 M 380.0,256.8 L 380.0,237.9 M 380.0,237.9 L 266.3,237.9 M 266.3,275.8 L 380.0,275.8 M 380.0,275.8 L 380.0,256.8 M 45.3,345.3 L 54.7,354.7 M 54.7,354.7 L 76.8,357.9 M 42.1,323.2 L 45.3,345.3 M 76.8,357.9 L 108.4,364.2 M 35.8,291.6 L 42.1,323.2 M 136.8,288.4 L 111.6,263.2 M 111.6,263.2 L 111.6,250.5 M 111.6,250.5 L 136.8,225.3 M 136.8,225.3 L 149.5,225.3 M 149.5,225.3 L 174.7,250.5 M 174.7,250.5 L 174.7,263.2 M 174.7,263.2 L 149.5,288.4 M 149.5,288.4 L 136.8,288.4 M 54.7,158.9 L 45.3,168.4 M 45.3,168.4 L 42.1,190.5 M 76.8,155.8 L 54.7,158.9 M 42.1,190.5 L 35.8,222.1 M 108.4,149.5 L 76.8,155.8 M 231.6,354.7 L 241.1,345.3 M 241.1,345.3 L 244.2,323.2 M 209.5,357.9 L 231.6,354.7 M 244.2,323.2 L 250.5,291.6 M 177.9,364.2 L 209.5,357.9 M 124.2,380.0 L 162.1,380.0 M 162.1,380.0 L 177.9,364.2 M 20.0,237.9 L 20.0,275.8 M 20.0,275.8 L 35.8,291.6 M 35.8,222.1 L 20.0,237.9 M 124.2,133.7 L 108.4,149.5 M 108.4,364.2 L 124.2,380.0 M 250.5,291.6 L 266.3,275.8 M 137.1,287.4 L 149.2,287.4 M 149.2,287.4 L 173.7,262.9 M 112.6,262.9 L 137.1,287.4 M 173.7,262.9 L 173.7,250.8 M 112.6,250.7 L 112.6,262.9 M 173.7,250.8 L 149.2,226.3 M 149.2,226.3 L 137.1,226.3 M 137.1,226.3 L 112.6,250.7" fill="none" stroke="white" stroke-width="2" stroke-linecap="round"/>
  <polygon points="143.94563318754982,120.13878516499716 151.94563318754982,128.13878516499716 143.94563318754982,136.13878516499716 135.94563318754982,128.13878516499716" fill="#4a9eff" stroke="white" stroke-width="1"/>
<polygon points="270.901153414454,247.87463933183224 278.901153414454,255.87463933183224 270.901153414454,263.8746393318322 262.901153414454,255.87463933183224" fill="#4a9eff" stroke="white" stroke-width="1"/>
</svg>