<svg xmlns="http://www.w3.org/2000/svg" viewBox="0 0 400 400">
  <rect width="400" height="400" fill="#1a1a2e"/>
  <path d="M 63.2,245.6 L 75.2,236.0 L 60.8,200.0 Z M 63.2,245.6 L 60.8,200.0 L 46.4,200.0 Z M 46.4,200.0 L 60.8,200.0 L 75.2,164.0 Z M 46.4,200.0 L 75.2,164.0 L 63.2,154.4 Z M 75.2,236.0 L 63.2,245.6 L 120.8,284.0 Z M 75.2,236.0 L 120.8,284.0 L 134.0,275.6 Z M 134.0,275.6 L 120.8,284.0 L 125.6,293.6 Z M 134.0,275.6 L 125.6,293.6 L 140.0,293.6 Z M 140.0,293.6 L 154.4,293.6 L 147.2,267.2 Z M 140.0,293.6 L 147.2,267.2 L 134.0,275.6 Z M 134.0,275.6 L 147.2,267.2 L 87.2,227.6 Z M 134.0,275.6 L 87.2,227.6 L 75.2,236.0 Z M 75.2,236.0 L 87.2,227.6 L 75.2,200.0 Z M 75.2,236.0 L 75.2,200.0 L 60.8,200.0 Z M 60.8,200.0 L 75.2,200.0 L 87.2,172.4 Z M 60.8,200.0 L 87.2,172.4 L 75.2,164.0 Z M 63.2,154.4 L 75.2,164.0 L 134.0,124.4 Z M 63.2,154.4 L 134.0,124.4 L 120.8,116.0 Z M 120.8,116.0 L 134.0,124.4 L 140.0,106.4 Z M 120.8,116.0 L 140.0,106.4 L 125.6,106.4 Z M 154.4,106.4 L 140.0,106.4 L 134.0,124.4 Z M 154.4,106.4 L 134.0,124.4 L 147.2,132.8 Z M 147.2,132.8 L 134.0,124.4 L 75.2,164.0 Z M 147.2,132.8 L 75.2,164.0 L 87.2,172.4 Z M 154.4,380.0 L 154.4,293.6 L 140.0,293.6 Z M 154.4,380.0 L 140.0,293.6 L 140.0,380.0 Z M 140.0,20.0 L 140.0,106.4 L 154.4,106.4 Z M 140.0,20.0 L 154.4,106.4 L 154.4,20.0 Z M 125.6,20.0 L 125.6,106.4 L 140.0,106.4 Z M 125.6,20.0 L 140.0,106.4 L 140.0,20.0 Z M 140.0,380.0 L 140.0,293.6 L 125.6,293.6 Z M 140.0,380.0 L 125.6,293.6 L 125.6,380.0 Z M 63.2,154.4 L 32.9,152.0 L 20.0,200.0 Z M 63.2,154.4 L 20.0,200.0 L 46.4,200.0 Z M 46.4,200.0 L 20.0,200.0 L 32.9,248.0 Z M 46.4,200.0 L 32.9,248.0 L 63.2,245.6 Z M 260.0,200.0 L 228.8,200.0 L 221.6,224.0 Z M 260.0,200.0 L 221.6,224.0 L 247.1,248.0 Z M 247.1,248.0 L 221.6,224.0 L 197.6,250.4 Z M 247.1,248.0 L 197.6,250.4 L 212.0,283.1 Z M 212.0,283.1 L 197.6,250.4 L 164.0,257.6 Z M 212.0,283.1 L 164.0,257.6 L 166.4,286.4 Z M 166.4,286.4 L 164.0,257.6 L 147.2,267.2 Z M 166.4,286.4 L 147.2,267.2 L 154.4,293.6 Z M 166.4,113.6 L 164.0,142.4 L 197.6,149.6 Z M 166.4,113.6 L 197.6,149.6 L 212.0,116.9 Z M 212.0,116.9 L 197.6,149.6 L 221.6,176.0 Z M 212.0,116.9 L 221.6,176.0 L 247.1,152.0 Z M 164.0,142.4 L 164.0,166.4 L 187.8,176.2 Z M 164.0,142.4 L 187.8,176.2 L 197.6,149.6 Z M 197.6,149.6 L 187.8,176.2 L 197.6,200.0 Z M 197.6,149.6 L 197.6,200.0 L 221.6,176.0 Z M 87.2,227.6 L 92.2,223.8 L 82.4,200.0 Z M 87.2,227.6 L 82.4,200.0 L 75.2,200.0 Z M 75.2,200.0 L 82.4,200.0 L 92.2,176.2 Z M 75.2,200.0 L 92.2,176.2 L 87.2,172.4 Z M 87.2,172.4 L 116.0,166.4 L 164.0,142.4 Z M 87.2,172.4 L 164.0,142.4 L 147.2,132.8 Z M 147.2,132.8 L 164.0,142.4 L 166.4,113.6 Z M 147.2,132.8 L 166.4,113.6 L 154.4,106.4 Z M 92.2,223.8 L 87.2,227.6 L 147.2,267.2 Z M 92.2,223.8 L 147.2,267.2 L 116.0,233.6 Z M 116.0,233.6 L 147.2,267.2 L 164.0,257.6 Z M 116.0,233.6 L 164.0,257.6 L 164.0,233.6 Z M 164.0,233.6 L 164.0,257.6 L 197.6,250.4 Z M 164.0,233.6 L 197.6,250.4 L 187.8,223.8 Z M 187.8,223.8 L 197.6,250.4 L 221.6,224.0 Z M 187.8,223.8 L 221.6,224.0 L 197.6,200.0 Z M 197.6,200.0 L 221.6,224.0 L 228.8,200.0 Z M 197.6,200.0 L 228.8,200.0 L 221.6,176.0 Z M 221.6,176.0 L 228.8,200.0 L 260.0,200.0 Z M 221.6,176.0 L 260.0,200.0 L 247.1,152.0 Z M 146.0,176.0 L 164.0,166.4 L 116.0,166.4 Z M 146.0,176.0 L 116.0,166.4 L 134.0,176.0 Z M 120.8,116.0 L 113.6,113.6 L 68.0,116.9 Z M 120.8,116.0 L 68.0,116.9 L 63.2,154.4 Z M 120.8,284.0 L 63.2,245.6 L 68.0,283.1 Z M 120.8,284.0 L 68.0,283.1 L 113.6,286.4 Z M 68.0,116.9 L 32.9,152.0 L 63.2,154.4 Z M 63.2,245.6 L 32.9,248.0 L 68.0,283.1 Z M 116.0,166.4 L 87.2,172.4 L 92.2,176.2 Z M 116.0,166.4 L 164.0,166.4 L 164.0,142.4 Z M 120.8,116.0 L 125.6,106.4 L 113.6,113.6 Z M 113.6,286.4 L 125.6,293.6 L 120.8,284.0 Z" fill="#2a2a4e" stroke="none"/>
  <path d="M 154.4,380.0 L 154.4,293.6 M 140.0,380.0 L 154.4,380.0 M 154.4,106.4 L 154.4,20.0 M 154.4,20.0 L 140.0,20.0 M 125.6,20.0 L 125.6,106.4 M 140.0,20.0 L 125.6,20.0 M 125.6,293.6 L 125.6,380.0 M 125.6,380.0 L 140.0,380.0 M 32.9,152.0 L 20.0,200.0 M 20.0,200.0 L 32.9,248.0 M 247.1,248.0 L 260.0,200.0 M 212.0,283.1 L 247.1,248.0 M 166.4,286.4 L 212.0,283.1 M 154.4,293.6 L 166.4,286.4 M 212.0,116.9 L 166.4,113.6 M 247.1,152.0 L 212.0,116.9 M 164.0,166.4 L 187.8,176.2 M 187.8,176.2 L 197.6,200.0 M 92.2,223.8 L 82.4,200.0 M 82.4,200.0 L 92.2,176.2 M 166.4,113.6 L 154.4,106.4 M 116.0,233.6 L 92.2,223.8 M 164.0,233.6 L 116.0,233.6 M 187.8,223.8 L 164.0,233.6 M 197.6,200.0 L 187.8,223.8 M 260.0,200.0 L 247.1,152.0 M 146.0,176.0 L 164.0,166.4 M 116.0,166.4 L 134.0,176.0 M 134.0,176.0 L 146.0,176.0 M 113.6,113.6 L 68.0,116.9 M 68.0,283.1 L 113.6,286.4 M 68.0,116.9 L 32.9,152.0 M 32.9,248.0 L 68.0,283.1 M 92.2,176.2 L 116.0,166.4 M 125.6,106.4 L 113.6,113.6 M 113.6,286.4 L 125.6,293.6" fill="none" stroke="white" stroke-width="2" stroke-linecap="round"/>
  <polygon points="140.1793529839743,287.96862148049894 148.1793529839743,295.96862148049894 140.1793529839743,303.96862148049894 132.1793529839743,295.96862148049894" fill="#4a9eff" stroke="white" stroke-width="1"/>
<polygon points="139.47349459974703,95.56166926256955 147.47349459974703,103.56166926256955 139.47349459974703,111.56166926256955 131.47349459974703,103.56166926256955" fill="#4a9eff" stroke="white" stroke-width="1"/>
</svg>