<svg xmlns="http://www.w3.org/2000/svg" viewBox="0 0 400 400">
  <rect width="400" height="400" fill="#1a1a2e"/>
  <path d="M 185.6,185.6 L 164.0,207.2 L 200.0,200.0 Z M 164.0,207.2 L 192.8,236.0 L 200.0,200.0 Z M 200.0,200.0 L 192.8,236.0 L 214.4,214.4 Z M 214.4,214.4 L 236.0,192.8 L 200.0,200.0 Z M 236.0,192.8 L 207.2,164.0 L 200.0,200.0 Z M 200.0,200.0 L 207.2,164.0 L 185.6,185.6 Z M 192.8,236.0 L 164.0,207.2 L 120.8,255.2 Z M 192.8,236.0 L 120.8,255.2 L 144.8,279.2 Z M 144.8,279.2 L 120.8,255.2 L 89.7,286.6 Z M 144.8,279.2 L 89.7,286.6 L 113.5,310.3 Z M 113.5,310.3 L 89.7,286.6 L 89.7,296.7 Z M 113.5,310.3 L 89.7,296.7 L 103.3,310.3 Z M 207.2,164.0 L 236.0,192.8 L 279.2,144.8 Z M 207.2,164.0 L 279.2,144.8 L 255.2,120.8 Z M 255.2,120.8 L 279.2,144.8 L 310.3,113.5 Z M 255.2,120.8 L 310.3,113.5 L 286.6,89.7 Z M 286.6,89.7 L 310.3,113.5 L 310.3,103.3 Z M 286.6,89.7 L 310.3,103.3 L 296.7,89.7 Z M 279.2,144.8 L 236.0,192.8 L 293.6,185.6 Z M 120.8,255.2 L 164.0,207.2 L 106.4,214.4 Z M 144.8,279.2 L 185.6,293.6 L 192.8,236.0 Z M 255.2,120.8 L 214.4,106.4 L 207.2,164.0 Z M 293.6,214.4 L 293.6,200.0 L 243.2,207.2 Z M 293.6,214.4 L 243.2,207.2 L 250.4,221.6 Z M 250.4,221.6 L 243.2,207.2 L 225.2,225.2 Z M 250.4,221.6 L 225.2,225.2 L 236.0,236.0 Z M 293.6,200.0 L 293.6,185.6 L 236.0,192.8 Z M 293.6,200.0 L 236.0,192.8 L 243.2,207.2 Z M 243.2,207.2 L 236.0,192.8 L 214.4,214.4 Z M 243.2,207.2 L 214.4,214.4 L 225.2,225.2 Z M 225.2,225.2 L 214.4,214.4 L 192.8,236.0 Z M 225.2,225.2 L 192.8,236.0 L 207.2,243.2 Z M 207.2,243.2 L 192.8,236.0 L 185.6,293.6 Z M 207.2,243.2 L 185.6,293.6 L 200.0,293.6 Z M 200.0,293.6 L 214.4,293.6 L 221.6,250.4 Z M 200.0,293.6 L 221.6,250.4 L 207.2,243.2 Z M 207.2,243.2 L 221.6,250.4 L 236.0,236.0 Z M 207.2,243.2 L 236.0,236.0 L 225.2,225.2 Z M 106.4,185.6 L 106.4,200.0 L 156.8,192.8 Z M 106.4,185.6 L 156.8,192.8 L 149.6,178.4 Z M 149.6,178.4 L 156.8,192.8 L 174.8,174.8 Z M 149.6,178.4 L 174.8,174.8 L 164.0,164.0 Z M 106.4,200.0 L 106.4,214.4 L 164.0,207.2 Z M 106.4,200.0 L 164.0,207.2 L 156.8,192.8 Z M 156.8,192.8 L 164.0,207.2 L 185.6,185.6 Z M 156.8,192.8 L 185.6,185.6 L 174.8,174.8 Z M 174.8,174.8 L 185.6,185.6 L 207.2,164.0 Z M 174.8,174.8 L 207.2,164.0 L 192.8,156.8 Z M 192.8,156.8 L 207.2,164.0 L 214.4,106.4 Z M 192.8,156.8 L 214.4,106.4 L 200.0,106.4 Z M 200.0,106.4 L 185.6,106.4 L 178.4,149.6 Z M 200.0,106.4 L 178.4,149.6 L 192.8,156.8 Z M 192.8,156.8 L 178.4,149.6 L 164.0,164.0 Z M 192.8,156.8 L 164.0,164.0 L 174.8,174.8 Z M 293.6,214.4 L 380.0,214.4 L 380.0,200.0 Z M 293.6,214.4 L 380.0,200.0 L 293.6,200.0 Z M 293.6,200.0 L 380.0,200.0 L 380.0,185.6 Z M 293.6,200.0 L 380.0,185.6 L 293.6,185.6 Z M 200.0,380.0 L 214.4,380.0 L 214.4,293.6 Z M 200.0,380.0 L 214.4,293.6 L 200.0,293.6 Z M 185.6,380.0 L 200.0,380.0 L 200.0,293.6 Z M 185.6,380.0 L 200.0,293.6 L 185.6,293.6 Z M 106.4,185.6 L 20.0,185.6 L 20.0,200.0 Z M 106.4,185.6 L 20.0,200.0 L 106.4,200.0 Z M 106.4,200.0 L 20.0,200.0 L 20.0,214.4 Z M 106.4,200.0 L 20.0,214.4 L 106.4,214.4 Z M 200.0,20.0 L 185.6,20.0 L 185.6,106.4 Z M 200.0,20.0 L 185.6,106.4 L 200.0,106.4 Z M 214.4,20.0 L 200.0,20.0 L 200.0,106.4 Z M 214.4,20.0 L 200.0,106.4 L 214.4,106.4 Z" fill="#2a2a4e" stroke="none"/>
  <path d="M 120.8,255.2 L 89.7,286.6 M 113.5,310.3 L 144.8,279.2 M 89.7,286.6 L 89.7,296.7 M 89.7,296.7 L 103.3,310.3 M 103.3,310.3 L 113.5,310.3 M 279.2,144.8 L 310.3,113.5 M 286.6,89.7 L 255.2,120.8 M 310.3,113.5 L 310.3,103.3 M 310.3,103.3 L 296.7,89.7 M 296.7,89.7 L 286.6,89.7 M 293.6,185.6 L 279.2,144.8 M 106.4,214.4 L 120.8,255.2 M 144.8,279.2 L 185.6,293.6 M 255.2,120.8 L 214.4,106.4 M 250.4,221.6 L 293.6,214.4 M 236.0,236.0 L 250.4,221.6 M 214.4,293.6 L 221.6,250.4 M 221.6,250.4 L 236.0,236.0 M 149.6,178.4 L 106.4,185.6 M 164.0,164.0 L 149.6,178.4 M 185.6,106.4 L 178.4,149.6 M 178.4,149.6 L 164.0,164.0 M 293.6,214.4 L 380.0,214.4 M 380.0,214.4 L 380.0,200.0 M 380.0,200.0 L 380.0,185.6 M 380.0,185.6 L 293.6,185.6 M 200.0,380.0 L 214.4,380.0 M 214.4,380.0 L 214.4,293.6 M 185.6,380.0 L 200.0,380.0 M 185.6,293.6 L 185.6,380.0 M 106.4,185.6 L 20.0,185.6 M 20.0,185.6 L 20.0,200.0 M 20.0,200.0 L 20.0,214.4 M 20.0,214.4 L 106.4,214.4 M 200.0,20.0 L 185.6,20.0 M 185.6,20.0 L 185.6,106.4 M 214.4,20.0 L 200.0,20.0 M 214.4,106.4 L 214.4,20.0" fill="none" stroke="white" stroke-width="2" stroke-linecap="round"/>
  <polygon points="103.03595658603409,191.68509632710138 111.03595658603409,199.68509632710138 103.03595658603409,207.68509632710138 95.03595658603409,199.68509632710138" fill="#4a9eff" stroke="white" stroke-width="1"/>
<polygon points="200.29028095825063,94.21281871498567 208.29028095825063,102.21281871498567 200.29028095825063,110.21281871498567 192.29028095825063,102.21281871498567" fill="#4a9eff" stroke="white" stroke-width="1"/>
<polygon points="296.818821047011,191.05791937345523 304.818821047011,199.05791937345523 296.818821047011,207.05791937345523 288.818821047011,199.05791937345523" fill="#4a9eff" stroke="white" stroke-width="1"/>
<polygon points="200.47260539617676,289.2512225084198 208.47260539617676,297.2512225084198 200.47260539617676,305.2512225084198 192.47260539617676,297.2512225084198" fill="#4a9eff" stroke="white" stroke-width="1"/>
</svg>