<svg xmlns="http://www.w3.org/2000/svg" viewBox="0 0 400 400">
  <rect width="400" height="400" fill="#1a1a2e"/>
  <path d="M 178.4,135.2 L 180.8,137.6 L 200.0,116.0 Z M 178.4,135.2 L 200.0,116.0 L 178.4,96.8 Z M 178.4,96.8 L 200.0,116.0 L 219.2,94.4 Z M 178.4,96.8 L 219.2,94.4 L 180.8,94.4 Z M 180.8,137.6 L 219.2,137.6 L 221.6,135.2 Z M 180.8,137.6 L 221.6,135.2 L 200.0,116.0 Z M 200.0,116.0 L 221.6,135.2 L 221.6,96.8 Z M 200.0,116.0 L 221.6,96.8 L 219.2,94.4 Z M 296.0,130.4 L 380.0,130.4 L 380.0,116.0 Z M 296.0,130.4 L 380.0,116.0 L 296.0,116.0 Z M 214.4,212.0 L 200.0,212.0 L 200.0,296.0 Z M 214.4,212.0 L 200.0,296.0 L 214.4,296.0 Z M 296.0,101.6 L 296.0,116.0 L 380.0,116.0 Z M 296.0,101.6 L 380.0,116.0 L 380.0,101.6 Z M 104.0,101.6 L 20.0,101.6 L 20.0,116.0 Z M 104.0,101.6 L 20.0,116.0 L 104.0,116.0 Z M 185.6,212.0 L 185.6,296.0 L 200.0,296.0 Z M 185.6,212.0 L 200.0,296.0 L 200.0,212.0 Z M 104.0,130.4 L 104.0,116.0 L 20.0,116.0 Z M 104.0,130.4 L 20.0,116.0 L 20.0,130.4 Z M 118.4,132.8 L 106.4,137.6 L 118.4,149.6 Z M 118.4,132.8 L 118.4,149.6 L 123.2,137.6 Z M 123.2,137.6 L 118.4,149.6 L 161.6,149.6 Z M 123.2,137.6 L 161.6,149.6 L 156.8,137.6 Z M 156.8,137.6 L 161.6,149.6 L 173.6,137.6 Z M 156.8,137.6 L 173.6,137.6 L 161.6,132.8 Z M 161.6,132.8 L 173.6,137.6 L 173.6,94.4 Z M 161.6,132.8 L 173.6,94.4 L 161.6,99.2 Z M 161.6,99.2 L 173.6,94.4 L 161.6,82.4 Z M 161.6,99.2 L 161.6,82.4 L 156.8,94.4 Z M 156.8,94.4 L 161.6,82.4 L 118.4,82.4 Z M 156.8,94.4 L 118.4,82.4 L 123.2,94.4 Z M 123.2,94.4 L 118.4,82.4 L 106.4,94.4 Z M 123.2,94.4 L 106.4,94.4 L 118.4,99.2 Z M 118.4,99.2 L 106.4,94.4 L 106.4,137.6 Z M 118.4,99.2 L 106.4,137.6 L 118.4,132.8 Z M 178.4,72.8 L 166.4,77.6 L 178.4,89.6 Z M 178.4,72.8 L 178.4,89.6 L 183.2,77.6 Z M 183.2,77.6 L 178.4,89.6 L 221.6,89.6 Z M 183.2,77.6 L 221.6,89.6 L 216.8,77.6 Z M 216.8,77.6 L 221.6,89.6 L 233.6,77.6 Z M 216.8,77.6 L 233.6,77.6 L 221.6,72.8 Z M 221.6,72.8 L 233.6,77.6 L 233.6,34.4 Z M 221.6,72.8 L 233.6,34.4 L 221.6,39.2 Z M 221.6,39.2 L 233.6,34.4 L 221.6,22.4 Z M 221.6,39.2 L 221.6,22.4 L 216.8,34.4 Z M 216.8,34.4 L 221.6,22.4 L 178.4,22.4 Z M 216.8,34.4 L 178.4,22.4 L 183.2,34.4 Z M 183.2,34.4 L 178.4,22.4 L 166.4,34.4 Z M 183.2,34.4 L 166.4,34.4 L 178.4,39.2 Z M 178.4,39.2 L 166.4,34.4 L 166.4,77.6 Z M 178.4,39.2 L 166.4,77.6 L 178.4,72.8 Z M 178.4,192.8 L 166.4,197.6 L 178.4,209.6 Z M 178.4,192.8 L 178.4,209.6 L 183.2,197.6 Z M 183.2,197.6 L 178.4,209.6 L 221.6,209.6 Z M 183.2,197.6 L 221.6,209.6 L 216.8,197.6 Z M 216.8,197.6 L 221.6,209.6 L 233.6,197.6 Z M 216.8,197.6 L 233.6,197.6 L 221.6,192.8 Z M 221.6,192.8 L 233.6,197.6 L 233.6,154.4 Z M 221.6,192.8 L 233.6,154.4 L 221.6,159.2 Z M 221.6,159.2 L 233.6,154.4 L 221.6,142.4 Z M 221.6,159.2 L 221.6,142.4 L 216.8,154.4 Z M 216.8,154.4 L 221.6,142.4 L 178.4,142.4 Z M 216.8,154.4 L 178.4,142.4 L 183.2,154.4 Z M 183.2,154.4 L 178.4,142.4 L 166.4,154.4 Z M 183.2,154.4 L 166.4,154.4 L 178.4,159.2 Z M 178.4,159.2 L 166.4,154.4 L 166.4,197.6 Z M 178.4,159.2 L 166.4,197.6 L 178.4,192.8 Z M 219.2,94.4 L 233.6,80.0 L 166.4,80.0 Z M 219.2,94.4 L 166.4,80.0 L 180.8,94.4 Z M 180.8,94.4 L 166.4,80.0 L 164.0,82.4 Z M 180.8,94.4 L 164.0,82.4 L 178.4,96.8 Z M 178.4,96.8 L 164.0,82.4 L 164.0,149.6 Z M 178.4,96.8 L 164.0,149.6 L 178.4,135.2 Z M 178.4,135.2 L 164.0,149.6 L 166.4,152.0 Z M 178.4,135.2 L 166.4,152.0 L 180.8,137.6 Z M 180.8,137.6 L 166.4,152.0 L 233.6,152.0 Z M 180.8,137.6 L 233.6,152.0 L 219.2,137.6 Z M 219.2,137.6 L 233.6,152.0 L 236.0,149.6 Z M 219.2,137.6 L 236.0,149.6 L 221.6,135.2 Z M 221.6,135.2 L 236.0,149.6 L 236.0,82.4 Z M 221.6,135.2 L 236.0,82.4 L 221.6,96.8 Z M 221.6,96.8 L 236.0,82.4 L 233.6,80.0 Z M 221.6,96.8 L 233.6,80.0 L 219.2,94.4 Z M 281.6,99.2 L 293.6,94.4 L 281.6,82.4 Z M 281.6,99.2 L 281.6,82.4 L 276.8,94.4 Z M 276.8,94.4 L 281.6,82.4 L 238.4,82.4 Z M 276.8,94.4 L 238.4,82.4 L 243.2,94.4 Z M 243.2,94.4 L 238.4,82.4 L 226.4,94.4 Z M 243.2,94.4 L 226.4,94.4 L 238.4,99.2 Z M 238.4,99.2 L 226.4,94.4 L 226.4,137.6 Z M 238.4,99.2 L 226.4,137.6 L 238.4,132.8 Z M 238.4,132.8 L 226.4,137.6 L 238.4,149.6 Z M 238.4,132.8 L 238.4,149.6 L 243.2,137.6 Z M 243.2,137.6 L 238.4,149.6 L 281.6,149.6 Z M 243.2,137.6 L 281.6,149.6 L 276.8,137.6 Z M 276.8,137.6 L 281.6,149.6 L 293.6,137.6 Z M 276.8,137.6 L 293.6,137.6 L 281.6,132.8 Z M 281.6,132.8 L 293.6,137.6 L 293.6,94.4 Z M 281.6,132.8 L 293.6,94.4 L 281.6,99.2 Z M 118.4,80.0 L 118.4,82.4 L 161.6,82.4 Z M 118.4,80.0 L 161.6,82.4 L 161.6,80.0 Z M 161.6,80.0 L 161.6,82.4 L 173.6,94.4 Z M 161.6,80.0 L 173.6,94.4 L 176.0,94.4 Z M 176.0,94.4 L 173.6,94.4 L 173.6,137.6 Z M 176.0,94.4 L 173.6,137.6 L 176.0,137.6 Z M 176.0,137.6 L 173.6,137.6 L 161.6,149.6 Z M 176.0,137.6 L 161.6,149.6 L 161.6,152.0 Z M 118.4,82.4 L 118.4,80.0 L 104.0,94.4 Z M 118.4,82.4 L 104.0,94.4 L 106.4,94.4 Z M 106.4,94.4 L 104.0,94.4 L 104.0,137.6 Z M 106.4,94.4 L 104.0,137.6 L 106.4,137.6 Z M 106.4,137.6 L 104.0,137.6 L 118.4,152.0 Z M 106.4,137.6 L 118.4,152.0 L 118.4,149.6 Z M 118.4,149.6 L 118.4,152.0 L 161.6,152.0 Z M 118.4,149.6 L 161.6,152.0 L 161.6,149.6 Z M 178.4,20.0 L 178.4,22.4 L 221.6,22.4 Z M 178.4,20.0 L 221.6,22.4 L 221.6,20.0 Z M 221.6,20.0 L 221.6,22.4 L 233.6,34.4 Z M 221.6,20.0 L 233.6,34.4 L 236.0,34.4 Z M 236.0,34.4 L 233.6,34.4 L 233.6,77.6 Z M 236.0,34.4 L 233.6,77.6 L 236.0,77.6 Z M 236.0,77.6 L 233.6,77.6 L 221.6,89.6 Z M 236.0,77.6 L 221.6,89.6 L 221.6,92.0 Z M 178.4,22.4 L 178.4,20.0 L 164.0,34.4 Z M 178.4,22.4 L 164.0,34.4 L 166.4,34.4 Z M 166.4,34.4 L 164.0,34.4 L 164.0,77.6 Z M 166.4,34.4 L 164.0,77.6 L 166.4,77.6 Z M 166.4,77.6 L 164.0,77.6 L 178.4,92.0 Z M 166.4,77.6 L 178.4,92.0 L 178.4,89.6 Z M 178.4,89.6 L 178.4,92.0 L 221.6,92.0 Z M 178.4,89.6 L 221.6,92.0 L 221.6,89.6 Z M 178.4,140.0 L 178.4,142.4 L 221.6,142.4 Z M 178.4,140.0 L 221.6,142.4 L 221.6,140.0 Z M 221.6,140.0 L 221.6,142.4 L 233.6,154.4 Z M 221.6,140.0 L 233.6,154.4 L 236.0,154.4 Z M 236.0,154.4 L 233.6,154.4 L 233.6,197.6 Z M 236.0,154.4 L 233.6,197.6 L 236.0,197.6 Z M 236.0,197.6 L 233.6,197.6 L 221.6,209.6 Z M 236.0,197.6 L 221.6,209.6 L 221.6,212.0 Z M 178.4,142.4 L 178.4,140.0 L 164.0,154.4 Z M 178.4,142.4 L 164.0,154.4 L 166.4,154.4 Z M 166.4,154.4 L 164.0,154.4 L 164.0,197.6 Z M 166.4,154.4 L 164.0,197.6 L 166.4,197.6 Z M 166.4,197.6 L 164.0,197.6 L 178.4,212.0 Z M 166.4,197.6 L 178.4,212.0 L 178.4,209.6 Z M 178.4,209.6 L 178.4,212.0 L 221.6,212.0 Z M 178.4,209.6 L 221.6,212.0 L 221.6,209.6 Z M 164.0,77.6 L 166.4,80.0 L 233.6,80.0 Z M 164.0,77.6 L 233.6,80.0 L 236.0,77.6 Z M 236.0,77.6 L 233.6,80.0 L 236.0,82.4 Z M 236.0,77.6 L 236.0,82.4 L 238.4,80.0 Z M 238.4,80.0 L 236.0,82.4 L 236.0,149.6 Z M 238.4,80.0 L 236.0,149.6 L 238.4,152.0 Z M 238.4,152.0 L 236.0,149.6 L 233.6,152.0 Z M 238.4,152.0 L 233.6,152.0 L 236.0,154.4 Z M 166.4,80.0 L 164.0,77.6 L 161.6,80.0 Z M 166.4,80.0 L 161.6,80.0 L 164.0,82.4 Z M 164.0,82.4 L 161.6,80.0 L 161.6,152.0 Z M 164.0,82.4 L 161.6,152.0 L 164.0,149.6 Z M 164.0,149.6 L 161.6,152.0 L 164.0,154.4 Z M 164.0,149.6 L 164.0,154.4 L 166.4,152.0 Z M 166.4,152.0 L 164.0,154.4 L 236.0,154.4 Z M 166.4,152.0 L 236.0,154.4 L 233.6,152.0 Z M 281.6,152.0 L 281.6,149.6 L 238.4,149.6 Z M 281.6,152.0 L 238.4,149.6 L 238.4,152.0 Z M 238.4,152.0 L 238.4,149.6 L 226.4,137.6 Z M 238.4,152.0 L 226.4,137.6 L 224.0,137.6 Z M 224.0,137.6 L 226.4,137.6 L 226.4,94.4 Z M 224.0,137.6 L 226.4,94.4 L 224.0,94.4 Z M 224.0,94.4 L 226.4,94.4 L 238.4,82.4 Z M 224.0,94.4 L 238.4,82.4 L 238.4,80.0 Z M 281.6,149.6 L 281.6,152.0 L 296.0,137.6 Z M 281.6,149.6 L 296.0,137.6 L 293.6,137.6 Z M 293.6,137.6 L 296.0,137.6 L 296.0,94.4 Z M 293.6,137.6 L 296.0,94.4 L 293.6,94.4 Z M 293.6,94.4 L 296.0,94.4 L 281.6,80.0 Z M 293.6,94.4 L 281.6,80.0 L 281.6,82.4 Z M 281.6,82.4 L 281.6,80.0 L 238.4,80.0 Z M 281.6,82.4 L 238.4,80.0 L 238.4,82.4 Z M 276.8,94.4 L 243.2,94.4 L 238.4,99.2 Z M 276.8,94.4 L 238.4,99.2 L 281.6,99.2 Z M 281.6,99.2 L 238.4,99.2 L 238.4,132.8 Z M 281.6,99.2 L 238.4,132.8 L 281.6,132.8 Z M 281.6,132.8 L 238.4,132.8 L 243.2,137.6 Z M 281.6,132.8 L 243.2,137.6 L 276.8,137.6 Z M 123.2,137.6 L 156.8,137.6 L 161.6,132.8 Z M 123.2,137.6 L 161.6,132.8 L 118.4,132.8 Z M 118.4,132.8 L 161.6,132.8 L 161.6,99.2 Z M 118.4,132.8 L 161.6,99.2 L 118.4,99.2 Z M 118.4,99.2 L 161.6,99.2 L 156.8,94.4 Z M 118.4,99.2 L 156.8,94.4 L 123.2,94.4 Z M 183.2,197.6 L 216.8,197.6 L 221.6,192.8 Z M 183.2,197.6 L 221.6,192.8 L 178.4,192.8 Z M 178.4,192.8 L 221.6,192.8 L 221.6,159.2 Z M 178.4,192.8 L 221.6,159.2 L 178.4,159.2 Z M 178.4,159.2 L 221.6,159.2 L 216.8,154.4 Z M 178.4,159.2 L 216.8,154.4 L 183.2,154.4 Z M 183.2,77.6 L 216.8,77.6 L 221.6,72.8 Z M 183.2,77.6 L 221.6,72.8 L 178.4,72.8 Z M 178.4,72.8 L 221.6,72.8 L 221.6,39.2 Z M 178.4,72.8 L 221.6,39.2 L 178.4,39.2 Z M 178.4,39.2 L 221.6,39.2 L 216.8,34.4 Z M 178.4,39.2 L 216.8,34.4 L 183.2,34.4 Z" fill="#2a2a4e" stroke="none"/>
  <path d="M 296.0,130.4 L 380.0,130.4 M 380.0,130.4 L 380.0,116.0 M 296.0,116.0 L 296.0,130.4 M 214.4,212.0 L 200.0,212.0 M 200.0,296.0 L 214.4,296.0 M 214.4,296.0 L 214.4,212.0 M 296.0,101.6 L 296.0,116.0 M 380.0,116.0 L 380.0,101.6 M 380.0,101.6 L 296.0,101.6 M 104.0,101.6 L 20.0,101.6 M 20.0,101.6 L 20.0,116.0 M 104.0,116.0 L 104.0,101.6 M 185.6,212.0 L 185.6,296.0 M 185.6,296.0 L 200.0,296.0 M 200.0,212.0 L 185.6,212.0 M 104.0,130.4 L 104.0,116.0 M 20.0,116.0 L 20.0,130.4 M 20.0,130.4 L 104.0,130.4 M 161.6,80.0 L 118.4,80.0 M 176.0,94.4 L 161.6,80.0 M 176.0,137.6 L 176.0,94.4 M 161.6,152.0 L 176.0,137.6 M 118.4,80.0 L 104.0,94.4 M 104.0,94.4 L 104.0,137.6 M 104.0,137.6 L 118.4,152.0 M 118.4,152.0 L 161.6,152.0 M 221.6,20.0 L 178.4,20.0 M 236.0,34.4 L 221.6,20.0 M 236.0,77.6 L 236.0,34.4 M 221.6,92.0 L 236.0,77.6 M 178.4,20.0 L 164.0,34.4 M 164.0,34.4 L 164.0,77.6 M 164.0,77.6 L 178.4,92.0 M 178.4,92.0 L 221.6,92.0 M 221.6,140.0 L 178.4,140.0 M 236.0,154.4 L 221.6,140.0 M 236.0,197.6 L 236.0,154.4 M 221.6,212.0 L 236.0,197.6 M 178.4,140.0 L 164.0,154.4 M 164.0,154.4 L 164.0,197.6 M 164.0,197.6 L 178.4,212.0 M 178.4,212.0 L 221.6,212.0 M 236.0,77.6 L 164.0,77.6 M 238.4,80.0 L 236.0,77.6 M 238.4,152.0 L 238.4,80.0 M 236.0,154.4 L 238.4,152.0 M 164.0,77.6 L 161.6,80.0 M 161.6,80.0 L 161.6,152.0 M 161.6,152.0 L 164.0,154.4 M 164.0,154.4 L 236.0,154.4 M 238.4,152.0 L 281.6,152.0 M 224.0,137.6 L 238.4,152.0 M 224.0,94.4 L 224.0,137.6 M 238.4,80.0 L 224.0,94.4 M 281.6,152.0 L 296.0,137.6 M 296.0,137.6 L 296.0,94.4 M 296.0,94.4 L 281.6,80.0 M 281.6,80.0 L 238.4,80.0" fill="none" stroke="white" stroke-width="2" stroke-linecap="round"/>
  <polygon points="296.26758232090407,107.79664449199232 304.26758232090407,115.79664449199232 296.26758232090407,123.79664449199232 288.26758232090407,115.79664449199232" fill="#4a9eff" stroke="white" stroke-width="1"/>
<polygon points="104.14204626850321,109.82853034128391 112.14204626850321,117.82853034128391 104.14204626850321,125.82853034128391 96.14204626850321,117.82853034128391" fill="#4a9eff" stroke="white" stroke-width="1"/>
<polygon points="199.69454033021262,206.89952208423728 207.69454033021262,214.89952208423728 199.69454033021262,222.89952208423728 191.69454033021262,214.89952208423728" fill="#4a9eff" stroke="white" stroke-width="1"/>
</svg>