<svg xmlns="http://www.w3.org/2000/svg" viewBox="0 0 400 400">
  <rect width="400" height="400" fill="#1a1a2e"/>
  <path d="M 116.8,271.1 L 135.0,271.1 L 119.8,231.8 Z M 116.8,271.1 L 119.8,231.8 L 101.7,240.8 Z M 101.7,240.8 L 119.8,231.8 L 50.3,162.2 Z M 101.7,240.8 L 50.3,162.2 L 32.1,171.3 Z M 32.1,171.3 L 50.3,162.2 L 50.3,144.0 Z M 32.1,171.3 L 50.3,144.0 L 32.1,135.0 Z M 135.0,271.1 L 153.1,271.1 L 168.2,240.8 Z M 135.0,271.1 L 168.2,240.8 L 150.1,231.8 Z M 150.1,231.8 L 168.2,240.8 L 237.8,171.3 Z M 150.1,231.8 L 237.8,171.3 L 219.7,162.2 Z M 219.7,162.2 L 237.8,171.3 L 237.8,135.0 Z M 219.7,162.2 L 237.8,135.0 L 219.7,144.0 Z M 219.7,144.0 L 237.8,135.0 L 159.2,56.3 Z M 219.7,144.0 L 159.2,56.3 L 150.1,74.5 Z M 150.1,74.5 L 159.2,56.3 L 110.8,56.3 Z M 150.1,74.5 L 110.8,56.3 L 119.8,74.5 Z M 119.8,74.5 L 110.8,56.3 L 32.1,135.0 Z M 119.8,74.5 L 32.1,135.0 L 50.3,144.0 Z M 135.0,380.0 L 135.0,271.1 L 116.8,271.1 Z M 135.0,380.0 L 116.8,271.1 L 116.8,380.0 Z M 153.1,380.0 L 153.1,271.1 L 135.0,271.1 Z M 153.1,380.0 L 135.0,271.1 L 135.0,380.0 Z M 186.4,20.0 L 83.5,20.0 L 74.5,29.1 Z M 186.4,20.0 L 74.5,29.1 L 195.5,29.1 Z M 195.5,29.1 L 74.5,29.1 L 74.5,50.3 Z M 195.5,29.1 L 74.5,50.3 L 195.5,50.3 Z M 195.5,50.3 L 74.5,50.3 L 110.8,56.3 Z M 195.5,50.3 L 110.8,56.3 L 159.2,56.3 Z M 101.7,240.8 L 32.1,171.3 L 32.1,183.4 Z M 101.7,240.8 L 32.1,183.4 L 101.7,256.0 Z M 101.7,256.0 L 32.1,183.4 L 32.1,246.9 Z M 101.7,256.0 L 32.1,246.9 L 41.2,256.0 Z M 41.2,50.3 L 32.1,59.3 L 32.1,122.9 Z M 41.2,50.3 L 32.1,122.9 L 74.5,50.3 Z M 74.5,50.3 L 32.1,122.9 L 32.1,135.0 Z M 74.5,50.3 L 32.1,135.0 L 110.8,56.3 Z M 159.2,56.3 L 237.8,135.0 L 237.8,122.9 Z M 159.2,56.3 L 237.8,122.9 L 195.5,50.3 Z M 195.5,50.3 L 237.8,122.9 L 237.8,59.3 Z M 195.5,50.3 L 237.8,59.3 L 228.7,50.3 Z M 228.7,256.0 L 237.8,246.9 L 237.8,183.4 Z M 228.7,256.0 L 237.8,183.4 L 168.2,256.0 Z M 168.2,256.0 L 237.8,183.4 L 237.8,171.3 Z M 168.2,256.0 L 237.8,171.3 L 168.2,240.8 Z M 135.0,271.1 L 150.1,231.8 L 119.8,231.8 Z M 150.1,231.8 L 135.0,207.6 L 119.8,231.8 Z M 189.4,153.1 L 135.0,98.7 L 135.0,153.1 Z M 135.0,98.7 L 80.5,153.1 L 135.0,153.1 Z M 135.0,153.1 L 80.5,153.1 L 135.0,207.6 Z M 219.7,162.2 L 189.4,153.1 L 135.0,207.6 Z M 219.7,162.2 L 135.0,207.6 L 150.1,231.8 Z M 50.3,144.0 L 80.5,153.1 L 135.0,98.7 Z M 50.3,144.0 L 135.0,98.7 L 119.8,74.5 Z M 150.1,74.5 L 135.0,98.7 L 189.4,153.1 Z M 150.1,74.5 L 189.4,153.1 L 219.7,144.0 Z M 119.8,231.8 L 135.0,207.6 L 80.5,153.1 Z M 119.8,231.8 L 80.5,153.1 L 50.3,162.2 Z M 237.8,171.3 L 249.9,160.7 L 249.9,145.5 Z M 237.8,171.3 L 249.9,145.5 L 237.8,135.0 Z M 32.1,135.0 L 20.0,145.5 L 20.0,160.7 Z M 32.1,135.0 L 20.0,160.7 L 32.1,171.3 Z M 219.7,162.2 L 219.7,144.0 L 189.4,153.1 Z M 150.1,74.5 L 119.8,74.5 L 135.0,98.7 Z M 50.3,144.0 L 50.3,162.2 L 80.5,153.1 Z M 135.0,207.6 L 189.4,153.1 L 135.0,153.1 Z M 249.9,160.7 L 237.8,171.3 L 237.8,183.4 Z M 249.9,145.5 L 237.8,122.9 L 237.8,135.0 Z M 101.7,256.0 L 116.8,271.1 L 101.7,240.8 Z M 168.2,256.0 L 168.2,240.8 L 153.1,271.1 Z M 20.0,145.5 L 32.1,135.0 L 32.1,122.9 Z M 20.0,160.7 L 32.1,183.4 L 32.1,171.3 Z" fill="#2a2a4e" stroke="none"/>
  <path d="M 116.8,271.1 L 116.8,380.0 M 116.8,380.0 L 135.0,380.0 M 153.1,380.0 L 153.1,271.1 M 135.0,380.0 L 153.1,380.0 M 186.4,20.0 L 83.5,20.0 M 83.5,20.0 L 74.5,29.1 M 195.5,29.1 L 186.4,20.0 M 74.5,29.1 L 74.5,50.3 M 195.5,50.3 L 195.5,29.1 M 32.1,183.4 L 32.1,246.9 M 32.1,246.9 L 41.2,256.0 M 41.2,256.0 L 101.7,256.0 M 41.2,50.3 L 32.1,59.3 M 32.1,59.3 L 32.1,122.9 M 74.5,50.3 L 41.2,50.3 M 237.8,122.9 L 237.8,59.3 M 237.8,59.3 L 228.7,50.3 M 228.7,50.3 L 195.5,50.3 M 228.7,256.0 L 237.8,246.9 M 237.8,246.9 L 237.8,183.4 M 168.2,256.0 L 228.7,256.0 M 249.9,160.7 L 249.9,145.5 M 20.0,145.5 L 20.0,160.7 M 237.8,183.4 L 249.9,160.7 M 249.9,145.5 L 237.8,122.9 M 101.7,256.0 L 116.8,271.1 M 153.1,271.1 L 168.2,256.0 M 32.1,122.9 L 20.0,145.5 M 20.0,160.7 L 32.1,183.4" fill="none" stroke="white" stroke-width="2" stroke-linecap="round"/>
  <polygon points="136.0752861376668,268.47081718979194 144.0752861376668,276.47081718979194 136.0752861376668,284.47081718979194 128.0752861376668,276.47081718979194" fill="#4a9eff" stroke="white" stroke-width="1"/>
</svg>