<svg xmlns="http://www.w3.org/2000/svg" viewBox="0 0 400 400">
  <rect width="400" height="400" fill="#1a1a2e"/>
  <path d="M 187.0,261.9 L 189.9,259.0 L 164.0,236.0 Z M 187.0,261.9 L 164.0,236.0 L 141.0,261.9 Z M 141.0,261.9 L 164.0,236.0 L 138.1,213.0 Z M 141.0,261.9 L 138.1,213.0 L 138.1,259.0 Z M 189.9,259.0 L 189.9,213.0 L 187.0,210.1 Z M 189.9,259.0 L 187.0,210.1 L 164.0,236.0 Z M 164.0,236.0 L 187.0,210.1 L 141.0,210.1 Z M 164.0,236.0 L 141.0,210.1 L 138.1,213.0 Z M 63.2,207.2 L 45.9,207.2 L 63.2,236.0 Z M 45.9,207.2 L 45.9,264.8 L 63.2,236.0 Z M 63.2,236.0 L 45.9,264.8 L 63.2,264.8 Z M 63.2,264.8 L 80.5,264.8 L 63.2,236.0 Z M 80.5,264.8 L 80.5,207.2 L 63.2,236.0 Z M 63.2,236.0 L 80.5,207.2 L 63.2,207.2 Z M 181.3,120.8 L 181.3,20.0 L 164.0,20.0 Z M 181.3,120.8 L 164.0,20.0 L 164.0,120.8 Z M 279.2,218.7 L 279.2,236.0 L 380.0,236.0 Z M 279.2,218.7 L 380.0,236.0 L 380.0,218.7 Z M 146.7,120.8 L 164.0,120.8 L 164.0,20.0 Z M 146.7,120.8 L 164.0,20.0 L 146.7,20.0 Z M 279.2,253.3 L 380.0,253.3 L 380.0,236.0 Z M 279.2,253.3 L 380.0,236.0 L 279.2,236.0 Z M 106.4,181.3 L 120.8,181.3 L 120.8,164.0 Z M 106.4,181.3 L 120.8,164.0 L 106.4,164.0 Z M 106.4,146.7 L 106.4,164.0 L 120.8,164.0 Z M 106.4,146.7 L 120.8,164.0 L 120.8,146.7 Z M 184.2,189.9 L 189.9,204.3 L 204.3,189.9 Z M 184.2,189.9 L 204.3,189.9 L 189.9,184.2 Z M 189.9,184.2 L 204.3,189.9 L 204.3,138.1 Z M 189.9,184.2 L 204.3,138.1 L 189.9,143.8 Z M 189.9,143.8 L 204.3,138.1 L 189.9,123.7 Z M 189.9,143.8 L 189.9,123.7 L 184.2,138.1 Z M 184.2,138.1 L 189.9,123.7 L 138.1,123.7 Z M 184.2,138.1 L 138.1,123.7 L 143.8,138.1 Z M 143.8,138.1 L 138.1,123.7 L 123.7,138.1 Z M 143.8,138.1 L 123.7,138.1 L 138.1,143.8 Z M 138.1,143.8 L 123.7,138.1 L 123.7,189.9 Z M 138.1,143.8 L 123.7,189.9 L 138.1,184.2 Z M 138.1,184.2 L 123.7,189.9 L 138.1,204.3 Z M 138.1,184.2 L 138.1,204.3 L 143.8,189.9 Z M 143.8,189.9 L 138.1,204.3 L 189.9,204.3 Z M 143.8,189.9 L 189.9,204.3 L 184.2,189.9 Z M 83.4,333.9 L 89.1,348.3 L 103.5,333.9 Z M 83.4,333.9 L 103.5,333.9 L 89.1,328.2 Z M 89.1,328.2 L 103.5,333.9 L 103.5,282.1 Z M 89.1,328.2 L 103.5,282.1 L 89.1,287.8 Z M 89.1,287.8 L 103.5,282.1 L 89.1,267.7 Z M 89.1,287.8 L 89.1,267.7 L 83.4,282.1 Z M 83.4,282.1 L 89.1,267.7 L 37.3,267.7 Z M 83.4,282.1 L 37.3,267.7 L 43.0,282.1 Z M 43.0,282.1 L 37.3,267.7 L 22.9,282.1 Z M 43.0,282.1 L 22.9,282.1 L 37.3,287.8 Z M 37.3,287.8 L 22.9,282.1 L 22.9,333.9 Z M 37.3,287.8 L 22.9,333.9 L 37.3,328.2 Z M 37.3,328.2 L 22.9,333.9 L 37.3,348.3 Z M 37.3,328.2 L 37.3,348.3 L 43.0,333.9 Z M 43.0,333.9 L 37.3,348.3 L 89.1,348.3 Z M 43.0,333.9 L 89.1,348.3 L 83.4,333.9 Z M 103.5,189.9 L 83.4,143.8 L 83.4,184.2 Z M 103.5,189.9 L 83.4,184.2 L 89.1,204.3 Z M 89.1,204.3 L 83.4,184.2 L 43.0,184.2 Z M 89.1,204.3 L 43.0,184.2 L 37.3,204.3 Z M 22.9,189.9 L 37.3,204.3 L 43.0,184.2 Z M 22.9,189.9 L 43.0,184.2 L 22.9,138.1 Z M 22.9,138.1 L 43.0,184.2 L 43.0,143.8 Z M 22.9,138.1 L 43.0,143.8 L 37.3,123.7 Z M 37.3,123.7 L 43.0,143.8 L 83.4,143.8 Z M 37.3,123.7 L 83.4,143.8 L 89.1,123.7 Z M 89.1,123.7 L 83.4,143.8 L 103.5,189.9 Z M 89.1,123.7 L 103.5,189.9 L 103.5,138.1 Z M 138.1,213.0 L 120.8,195.7 L 120.8,276.3 Z M 138.1,213.0 L 120.8,276.3 L 138.1,259.0 Z M 138.1,259.0 L 120.8,276.3 L 123.7,279.2 Z M 138.1,259.0 L 123.7,279.2 L 141.0,261.9 Z M 141.0,261.9 L 123.7,279.2 L 204.3,279.2 Z M 141.0,261.9 L 204.3,279.2 L 187.0,261.9 Z M 187.0,261.9 L 204.3,279.2 L 207.2,276.3 Z M 187.0,261.9 L 207.2,276.3 L 189.9,259.0 Z M 189.9,259.0 L 207.2,276.3 L 207.2,195.7 Z M 189.9,259.0 L 207.2,195.7 L 189.9,213.0 Z M 189.9,213.0 L 207.2,195.7 L 204.3,192.8 Z M 189.9,213.0 L 204.3,192.8 L 187.0,210.1 Z M 187.0,210.1 L 204.3,192.8 L 123.7,192.8 Z M 187.0,210.1 L 123.7,192.8 L 141.0,210.1 Z M 141.0,210.1 L 123.7,192.8 L 120.8,195.7 Z M 141.0,210.1 L 120.8,195.7 L 138.1,213.0 Z M 204.3,333.9 L 184.2,287.8 L 184.2,328.2 Z M 204.3,333.9 L 184.2,328.2 L 189.9,348.3 Z M 189.9,348.3 L 184.2,328.2 L 143.8,328.2 Z M 189.9,348.3 L 143.8,328.2 L 138.1,348.3 Z M 123.7,333.9 L 138.1,348.3 L 143.8,328.2 Z M 123.7,333.9 L 143.8,328.2 L 123.7,282.1 Z M 123.7,282.1 L 143.8,328.2 L 143.8,287.8 Z M 123.7,282.1 L 143.8,287.8 L 138.1,267.7 Z M 138.1,267.7 L 143.8,287.8 L 184.2,287.8 Z M 138.1,267.7 L 184.2,287.8 L 189.9,267.7 Z M 189.9,267.7 L 184.2,287.8 L 204.3,333.9 Z M 189.9,267.7 L 204.3,333.9 L 204.3,282.1 Z M 276.3,261.9 L 256.2,215.8 L 256.2,256.2 Z M 276.3,261.9 L 256.2,256.2 L 261.9,276.3 Z M 261.9,276.3 L 256.2,256.2 L 215.8,256.2 Z M 261.9,276.3 L 215.8,256.2 L 210.1,276.3 Z M 195.7,261.9 L 210.1,276.3 L 215.8,256.2 Z M 195.7,261.9 L 215.8,256.2 L 195.7,210.1 Z M 195.7,210.1 L 215.8,256.2 L 215.8,215.8 Z M 195.7,210.1 L 215.8,215.8 L 210.1,195.7 Z M 210.1,195.7 L 215.8,215.8 L 256.2,215.8 Z M 210.1,195.7 L 256.2,215.8 L 261.9,195.7 Z M 261.9,195.7 L 256.2,215.8 L 276.3,261.9 Z M 261.9,195.7 L 276.3,261.9 L 276.3,210.1 Z M 43.0,184.2 L 83.4,184.2 L 83.4,143.8 Z M 43.0,184.2 L 83.4,143.8 L 43.0,143.8 Z M 143.8,328.2 L 184.2,328.2 L 184.2,287.8 Z M 143.8,328.2 L 184.2,287.8 L 143.8,287.8 Z M 215.8,256.2 L 256.2,256.2 L 256.2,215.8 Z M 215.8,256.2 L 256.2,215.8 L 215.8,215.8 Z M 120.8,189.9 L 123.7,189.9 L 123.7,138.1 Z M 120.8,189.9 L 123.7,138.1 L 120.8,138.1 Z M 120.8,138.1 L 123.7,138.1 L 138.1,123.7 Z M 120.8,138.1 L 138.1,123.7 L 138.1,120.8 Z M 138.1,120.8 L 138.1,123.7 L 189.9,123.7 Z M 138.1,120.8 L 189.9,123.7 L 189.9,120.8 Z M 189.9,120.8 L 189.9,123.7 L 204.3,138.1 Z M 189.9,120.8 L 204.3,138.1 L 207.2,138.1 Z M 123.7,189.9 L 120.8,189.9 L 138.1,207.2 Z M 123.7,189.9 L 138.1,207.2 L 138.1,204.3 Z M 138.1,204.3 L 138.1,207.2 L 189.9,207.2 Z M 138.1,204.3 L 189.9,207.2 L 189.9,204.3 Z M 189.9,204.3 L 189.9,207.2 L 207.2,189.9 Z M 189.9,204.3 L 207.2,189.9 L 204.3,189.9 Z M 204.3,189.9 L 207.2,189.9 L 207.2,138.1 Z M 204.3,189.9 L 207.2,138.1 L 204.3,138.1 Z M 20.0,333.9 L 22.9,333.9 L 22.9,282.1 Z M 20.0,333.9 L 22.9,282.1 L 20.0,282.1 Z M 20.0,282.1 L 22.9,282.1 L 37.3,267.7 Z M 20.0,282.1 L 37.3,267.7 L 37.3,264.8 Z M 37.3,264.8 L 37.3,267.7 L 89.1,267.7 Z M 37.3,264.8 L 89.1,267.7 L 89.1,264.8 Z M 89.1,264.8 L 89.1,267.7 L 103.5,282.1 Z M 89.1,264.8 L 103.5,282.1 L 106.4,282.1 Z M 22.9,333.9 L 20.0,333.9 L 37.3,351.2 Z M 22.9,333.9 L 37.3,351.2 L 37.3,348.3 Z M 37.3,348.3 L 37.3,351.2 L 89.1,351.2 Z M 37.3,348.3 L 89.1,351.2 L 89.1,348.3 Z M 89.1,348.3 L 89.1,351.2 L 106.4,333.9 Z M 89.1,348.3 L 106.4,333.9 L 103.5,333.9 Z M 103.5,333.9 L 106.4,333.9 L 106.4,282.1 Z M 103.5,333.9 L 106.4,282.1 L 103.5,282.1 Z M 20.0,189.9 L 22.9,189.9 L 22.9,138.1 Z M 20.0,189.9 L 22.9,138.1 L 20.0,138.1 Z M 20.0,138.1 L 22.9,138.1 L 37.3,123.7 Z M 20.0,138.1 L 37.3,123.7 L 37.3,120.8 Z M 37.3,120.8 L 37.3,123.7 L 89.1,123.7 Z M 37.3,120.8 L 89.1,123.7 L 89.1,120.8 Z M 89.1,120.8 L 89.1,123.7 L 103.5,138.1 Z M 89.1,120.8 L 103.5,138.1 L 106.4,138.1 Z M 22.9,189.9 L 20.0,189.9 L 37.3,207.2 Z M 22.9,189.9 L 37.3,207.2 L 37.3,204.3 Z M 37.3,204.3 L 37.3,207.2 L 89.1,207.2 Z M 37.3,204.3 L 89.1,207.2 L 89.1,204.3 Z M 89.1,204.3 L 89.1,207.2 L 106.4,189.9 Z M 89.1,204.3 L 106.4,189.9 L 103.5,189.9 Z M 103.5,189.9 L 106.4,189.9 L 106.4,138.1 Z M 103.5,189.9 L 106.4,138.1 L 103.5,138.1 Z M 117.9,279.2 L 120.8,276.3 L 120.8,195.7 Z M 117.9,279.2 L 120.8,195.7 L 117.9,192.8 Z M 117.9,192.8 L 120.8,195.7 L 123.7,192.8 Z M 117.9,192.8 L 123.7,192.8 L 120.8,189.9 Z M 120.8,189.9 L 123.7,192.8 L 204.3,192.8 Z M 120.8,189.9 L 204.3,192.8 L 207.2,189.9 Z M 207.2,189.9 L 204.3,192.8 L 207.2,195.7 Z M 207.2,189.9 L 207.2,195.7 L 210.1,192.8 Z M 120.8,276.3 L 117.9,279.2 L 120.8,282.1 Z M 120.8,276.3 L 120.8,282.1 L 123.7,279.2 Z M 123.7,279.2 L 120.8,282.1 L 207.2,282.1 Z M 123.7,279.2 L 207.2,282.1 L 204.3,279.2 Z M 204.3,279.2 L 207.2,282.1 L 210.1,279.2 Z M 204.3,279.2 L 210.1,279.2 L 207.2,276.3 Z M 207.2,276.3 L 210.1,279.2 L 210.1,192.8 Z M 207.2,276.3 L 210.1,192.8 L 207.2,195.7 Z M 120.8,333.9 L 123.7,333.9 L 123.7,282.1 Z M 120.8,333.9 L 123.7,282.1 L 120.8,282.1 Z M 120.8,282.1 L 123.7,282.1 L 138.1,267.7 Z M 120.8,282.1 L 138.1,267.7 L 138.1,264.8 Z M 138.1,264.8 L 138.1,267.7 L 189.9,267.7 Z M 138.1,264.8 L 189.9,267.7 L 189.9,264.8 Z M 189.9,264.8 L 189.9,267.7 L 204.3,282.1 Z M 189.9,264.8 L 204.3,282.1 L 207.2,282.1 Z M 123.7,333.9 L 120.8,333.9 L 138.1,351.2 Z M 123.7,333.9 L 138.1,351.2 L 138.1,348.3 Z M 138.1,348.3 L 138.1,351.2 L 189.9,351.2 Z M 138.1,348.3 L 189.9,351.2 L 189.9,348.3 Z M 189.9,348.3 L 189.9,351.2 L 207.2,333.9 Z M 189.9,348.3 L 207.2,333.9 L 204.3,333.9 Z M 204.3,333.9 L 207.2,333.9 L 207.2,282.1 Z M 204.3,333.9 L 207.2,282.1 L 204.3,282.1 Z M 192.8,261.9 L 195.7,261.9 L 195.7,210.1 Z M 192.8,261.9 L 195.7,210.1 L 192.8,210.1 Z M 192.8,210.1 L 195.7,210.1 L 210.1,195.7 Z M 192.8,210.1 L 210.1,195.7 L 210.1,192.8 Z M 210.1,192.8 L 210.1,195.7 L 261.9,195.7 Z M 210.1,192.8 L 261.9,195.7 L 261.9,192.8 Z M 261.9,192.8 L 261.9,195.7 L 276.3,210.1 Z M 261.9,192.8 L 276.3,210.1 L 279.2,210.1 Z M 195.7,261.9 L 192.8,261.9 L 210.1,279.2 Z M 195.7,261.9 L 210.1,279.2 L 210.1,276.3 Z M 210.1,276.3 L 210.1,279.2 L 261.9,279.2 Z M 210.1,276.3 L 261.9,279.2 L 261.9,276.3 Z M 261.9,276.3 L 261.9,279.2 L 279.2,261.9 Z M 261.9,276.3 L 279.2,261.9 L 276.3,261.9 Z M 276.3,261.9 L 279.2,261.9 L 279.2,210.1 Z M 276.3,261.9 L 279.2,210.1 L 276.3,210.1 Z M 189.9,184.2 L 189.9,143.8 L 184.2,138.1 Z M 189.9,184.2 L 184.2,138.1 L 184.2,189.9 Z M 184.2,189.9 L 184.2,138.1 L 143.8,138.1 Z M 184.2,189.9 L 143.8,138.1 L 143.8,189.9 Z M 143.8,189.9 L 143.8,138.1 L 138.1,143.8 Z M 143.8,189.9 L 138.1,143.8 L 138.1,184.2 Z M 89.1,328.2 L 89.1,287.8 L 83.4,282.1 Z M 89.1,328.2 L 83.4,282.1 L 83.4,333.9 Z M 83.4,333.9 L 83.4,282.1 L 43.0,282.1 Z M 83.4,333.9 L 43.0,282.1 L 43.0,333.9 Z M 43.0,333.9 L 43.0,282.1 L 37.3,287.8 Z M 43.0,333.9 L 37.3,287.8 L 37.3,328.2 Z" fill="#2a2a4e" stroke="none"/>
  <path d="M 63.2,207.2 L 45.9,207.2 M 45.9,207.2 L 45.9,264.8 M 45.9,264.8 L 63.2,264.8 M 63.2,264.8 L 80.5,264.8 M 80.5,264.8 L 80.5,207.2 M 80.5,207.2 L 63.2,207.2 M 181.3,120.8 L 181.3,20.0 M 181.3,20.0 L 164.0,20.0 M 164.0,120.8 L 181.3,120.8 M 279.2,218.7 L 279.2,236.0 M 380.0,236.0 L 380.0,218.7 M 380.0,218.7 L 279.2,218.7 M 146.7,120.8 L 164.0,120.8 M 164.0,20.0 L 146.7,20.0 M 146.7,20.0 L 146.7,120.8 M 279.2,253.3 L 380.0,253.3 M 380.0,253.3 L 380.0,236.0 M 279.2,236.0 L 279.2,253.3 M 106.4,181.3 L 120.8,181.3 M 120.8,181.3 L 120.8,164.0 M 106.4,164.0 L 106.4,181.3 M 106.4,146.7 L 106.4,164.0 M 120.8,164.0 L 120.8,146.7 M 120.8,146.7 L 106.4,146.7 M 120.8,138.1 L 120.8,189.9 M 138.1,120.8 L 120.8,138.1 M 189.9,120.8 L 138.1,120.8 M 207.2,138.1 L 189.9,120.8 M 120.8,189.9 L 138.1,207.2 M 138.1,207.2 L 189.9,207.2 M 189.9,207.2 L 207.2,189.9 M 207.2,189.9 L 207.2,138.1 M 20.0,282.1 L 20.0,333.9 M 37.3,264.8 L 20.0,282.1 M 89.1,264.8 L 37.3,264.8 M 106.4,282.1 L 89.1,264.8 M 20.0,333.9 L 37.3,351.2 M 37.3,351.2 L 89.1,351.2 M 89.1,351.2 L 106.4,333.9 M 106.4,333.9 L 106.4,282.1 M 20.0,138.1 L 20.0,189.9 M 37.3,120.8 L 20.0,138.1 M 89.1,120.8 L 37.3,120.8 M 106.4,138.1 L 89.1,120.8 M 20.0,189.9 L 37.3,207.2 M 37.3,207.2 L 89.1,207.2 M 89.1,207.2 L 106.4,189.9 M 106.4,189.9 L 106.4,138.1 M 117.9,192.8 L 117.9,279.2 M 120.8,189.9 L 117.9,192.8 M 207.2,189.9 L 120.8,189.9 M 210.1,192.8 L 207.2,189.9 M 117.9,279.2 L 120.8,282.1 M 120.8,282.1 L 207.2,282.1 M 207.2,282.1 L 210.1,279.2 M 210.1,279.2 L 210.1,192.8 M 120.8,282.1 L 120.8,333.9 M 138.1,264.8 L 120.8,282.1 M 189.9,264.8 L 138.1,264.8 M 207.2,282.1 L 189.9,264.8 M 120.8,333.9 L 138.1,351.2 M 138.1,351.2 L 189.9,351.2 M 189.9,351.2 L 207.2,333.9 M 207.2,333.9 L 207.2,282.1 M 192.8,210.1 L 192.8,261.9 M 210.1,192.8 L 192.8,210.1 M 261.9,192.8 L 210.1,192.8 M 279.2,210.1 L 261.9,192.8 M 192.8,261.9 L 210.1,279.2 M 210.1,279.2 L 261.9,279.2 M 261.9,279.2 L 279.2,261.9 M 279.2,261.9 L 279.2,210.1" fill="none" stroke="white" stroke-width="2" stroke-linecap="round"/>
  <polygon points="163.46221885914443,112.23989247643145 171.46221885914443,120.23989247643145 163.46221885914443,128.23989247643146 155.46221885914443,120.23989247643145" fill="#4a9eff" stroke="white" stroke-width="1"/>
<polygon points="279.9829393054216,226.27901180593224 287.9829393054216,234.27901180593224 279.9829393054216,242.27901180593224 271.9829393054216,234.27901180593224" fill="#4a9eff" stroke="white" stroke-width="1"/>
</svg>