<svg xmlns="http://www.w3.org/2000/svg" viewBox="0 0 400 400">
  <rect width="400" height="400" fill="#1a1a2e"/>
  <path d="M 200.0,188.0 L 214.4,188.0 L 221.6,144.8 Z M 200.0,188.0 L 221.6,144.8 L 207.2,137.6 Z M 207.2,137.6 L 221.6,144.8 L 250.4,116.0 Z M 207.2,137.6 L 250.4,116.0 L 243.2,101.6 Z M 243.2,101.6 L 250.4,116.0 L 293.6,108.8 Z M 243.2,101.6 L 293.6,108.8 L 293.6,94.4 Z M 293.6,94.4 L 293.6,80.0 L 250.4,72.8 Z M 293.6,94.4 L 250.4,72.8 L 243.2,87.2 Z M 243.2,87.2 L 250.4,72.8 L 214.4,36.8 Z M 243.2,87.2 L 214.4,36.8 L 207.2,51.2 Z M 207.2,51.2 L 214.4,36.8 L 185.6,36.8 Z M 207.2,51.2 L 185.6,36.8 L 192.8,51.2 Z M 192.8,51.2 L 185.6,36.8 L 149.6,72.8 Z M 192.8,51.2 L 149.6,72.8 L 156.8,87.2 Z M 156.8,87.2 L 149.6,72.8 L 106.4,80.0 Z M 156.8,87.2 L 106.4,80.0 L 106.4,94.4 Z M 106.4,94.4 L 106.4,108.8 L 149.6,116.0 Z M 106.4,94.4 L 149.6,116.0 L 156.8,101.6 Z M 156.8,101.6 L 149.6,116.0 L 178.4,144.8 Z M 156.8,101.6 L 178.4,144.8 L 192.8,137.6 Z M 192.8,137.6 L 178.4,144.8 L 185.6,188.0 Z M 192.8,137.6 L 185.6,188.0 L 200.0,188.0 Z M 380.0,94.4 L 293.6,94.4 L 293.6,108.8 Z M 380.0,94.4 L 293.6,108.8 L 380.0,108.8 Z M 214.4,274.4 L 214.4,188.0 L 200.0,188.0 Z M 214.4,274.4 L 200.0,188.0 L 200.0,274.4 Z M 380.0,80.0 L 293.6,80.0 L 293.6,94.4 Z M 380.0,80.0 L 293.6,94.4 L 380.0,94.4 Z M 20.0,94.4 L 106.4,94.4 L 106.4,80.0 Z M 20.0,94.4 L 106.4,80.0 L 20.0,80.0 Z M 200.0,274.4 L 200.0,188.0 L 185.6,188.0 Z M 200.0,274.4 L 185.6,188.0 L 185.6,274.4 Z M 20.0,108.8 L 106.4,108.8 L 106.4,94.4 Z M 20.0,108.8 L 106.4,94.4 L 20.0,94.4 Z M 207.2,51.2 L 204.8,70.4 L 224.0,89.6 Z M 207.2,51.2 L 224.0,89.6 L 243.2,87.2 Z M 243.2,87.2 L 224.0,89.6 L 224.0,99.2 Z M 243.2,87.2 L 224.0,99.2 L 243.2,101.6 Z M 243.2,101.6 L 224.0,99.2 L 204.8,118.4 Z M 243.2,101.6 L 204.8,118.4 L 207.2,137.6 Z M 207.2,137.6 L 204.8,118.4 L 195.2,118.4 Z M 207.2,137.6 L 195.2,118.4 L 192.8,137.6 Z M 192.8,137.6 L 195.2,118.4 L 176.0,99.2 Z M 192.8,137.6 L 176.0,99.2 L 156.8,101.6 Z M 156.8,101.6 L 176.0,99.2 L 176.0,89.6 Z M 156.8,101.6 L 176.0,89.6 L 156.8,87.2 Z M 156.8,87.2 L 176.0,89.6 L 195.2,70.4 Z M 156.8,87.2 L 195.2,70.4 L 192.8,51.2 Z M 192.8,51.2 L 195.2,70.4 L 204.8,70.4 Z M 192.8,51.2 L 204.8,70.4 L 207.2,51.2 Z M 267.2,168.8 L 274.4,161.6 L 276.8,144.8 Z M 267.2,168.8 L 276.8,144.8 L 250.4,171.2 Z M 250.4,171.2 L 276.8,144.8 L 281.6,120.8 Z M 250.4,171.2 L 281.6,120.8 L 226.4,176.0 Z M 226.4,176.0 L 281.6,120.8 L 250.4,116.0 Z M 226.4,176.0 L 250.4,116.0 L 221.6,144.8 Z M 125.6,161.6 L 132.8,168.8 L 149.6,171.2 Z M 125.6,161.6 L 149.6,171.2 L 123.2,144.8 Z M 123.2,144.8 L 149.6,171.2 L 173.6,176.0 Z M 123.2,144.8 L 173.6,176.0 L 118.4,120.8 Z M 118.4,120.8 L 173.6,176.0 L 178.4,144.8 Z M 118.4,120.8 L 178.4,144.8 L 149.6,116.0 Z M 178.4,27.2 L 178.4,44.0 L 185.6,36.8 Z M 178.4,27.2 L 185.6,36.8 L 185.6,20.0 Z M 185.6,20.0 L 185.6,36.8 L 214.4,36.8 Z M 185.6,20.0 L 214.4,36.8 L 214.4,20.0 Z M 214.4,20.0 L 214.4,36.8 L 221.6,44.0 Z M 214.4,20.0 L 221.6,44.0 L 221.6,27.2 Z M 214.4,188.0 L 226.4,176.0 L 221.6,144.8 Z M 281.6,120.8 L 293.6,108.8 L 250.4,116.0 Z M 243.2,101.6 L 293.6,94.4 L 243.2,87.2 Z M 192.8,137.6 L 200.0,188.0 L 207.2,137.6 Z M 156.8,87.2 L 106.4,94.4 L 156.8,101.6 Z M 185.6,188.0 L 178.4,144.8 L 173.6,176.0 Z M 118.4,120.8 L 149.6,116.0 L 106.4,108.8 Z M 223.2,99.0 L 223.2,89.8 L 204.6,71.2 Z M 223.2,99.0 L 204.6,71.2 L 204.6,117.6 Z M 204.6,117.6 L 204.6,71.2 L 195.4,71.2 Z M 204.6,117.6 L 195.4,71.2 L 195.4,117.6 Z M 195.4,117.6 L 195.4,71.2 L 176.8,89.8 Z M 195.4,117.6 L 176.8,89.8 L 176.8,99.0 Z" fill="#2a2a4e" stroke="none"/>
  <path d="M 293.6,80.0 L 250.4,72.8 M 250.4,72.8 L 214.4,36.8 M 185.6,36.8 L 149.6,72.8 M 149.6,72.8 L 106.4,80.0 M 293.6,108.8 L 380.0,108.8 M 380.0,108.8 L 380.0,94.4 M 214.4,274.4 L 214.4,188.0 M 200.0,274.4 L 214.4,274.4 M 380.0,80.0 L 293.6,80.0 M 380.0,94.4 L 380.0,80.0 M 106.4,80.0 L 20.0,80.0 M 20.0,80.0 L 20.0,94.4 M 185.6,188.0 L 185.6,274.4 M 185.6,274.4 L 200.0,274.4 M 20.0,108.8 L 106.4,108.8 M 20.0,94.4 L 20.0,108.8 M 204.8,70.4 L 224.0,89.6 M 224.0,89.6 L 224.0,99.2 M 224.0,99.2 L 204.8,118.4 M 204.8,118.4 L 195.2,118.4 M 195.2,118.4 L 176.0,99.2 M 176.0,99.2 L 176.0,89.6 M 176.0,89.6 L 195.2,70.4 M 195.2,70.4 L 204.8,70.4 M 267.2,168.8 L 274.4,161.6 M 274.4,161.6 L 276.8,144.8 M 250.4,171.2 L 267.2,168.8 M 276.8,144.8 L 281.6,120.8 M 226.4,176.0 L 250.4,171.2 M 125.6,161.6 L 132.8,168.8 M 132.8,168.8 L 149.6,171.2 M 123.2,144.8 L 125.6,161.6 M 149.6,171.2 L 173.6,176.0 M 118.4,120.8 L 123.2,144.8 M 178.4,27.2 L 178.4,44.0 M 178.4,44.0 L 185.6,36.8 M 185.6,20.0 L 178.4,27.2 M 214.4,20.0 L 185.6,20.0 M 214.4,36.8 L 221.6,44.0 M 221.6,44.0 L 221.6,27.2 M 221.6,27.2 L 214.4,20.0 M 214.4,188.0 L 226.4,176.0 M 281.6,120.8 L 293.6,108.8 M 173.6,176.0 L 185.6,188.0 M 106.4,108.8 L 118.4,120.8 M 223.2,99.0 L 223.2,89.8 M 223.2,89.8 L 204.6,71.2 M 204.6,117.6 L 223.2,99.0 M 204.6,71.2 L 195.4,71.2 M 195.4,117.6 L 204.6,117.6 M 195.4,71.2 L 176.8,89.8 M 176.8,89.8 L 176.8,99.0 M 176.8,99.0 L 195.4,117.6" fill="none" stroke="white" stroke-width="2" stroke-linecap="round"/>
  <polygon points="298.0417188934334,85.33609706727174 306.0417188934334,93.33609706727174 298.0417188934334,101.33609706727174 290.0417188934334,93.33609706727174" fill="#4a9eff" stroke="white" stroke-width="1"/>
<polygon points="102.6695361129541,85.50450656348346 110.6695361129541,93.50450656348346 102.6695361129541,101.50450656348346 94.6695361129541,93.50450656348346" fill="#4a9eff" stroke="white" stroke-width="1"/>
<polygon points="198.84696083449325,182.3170836082841 206.84696083449325,190.3170836082841 198.84696083449325,198.3170836082841 190.84696083449325,190.3170836082841" fill="#4a9eff" stroke="white" stroke-width="1"/>
</svg>