<svg xmlns="http://www.w3.org/2000/svg" viewBox="0 0 400 400">
  <rect width="400" height="400" fill="#1a1a2e"/>
  <path d="M 96.6,210.3 L 111.0,224.8 L 117.2,218.6 Z M 96.6,210.3 L 117.2,218.6 L 102.8,204.1 Z M 102.8,204.1 L 117.2,218.6 L 166.9,218.6 Z M 102.8,204.1 L 166.9,218.6 L 181.4,204.1 Z M 181.4,204.1 L 166.9,218.6 L 173.1,224.8 Z M 181.4,204.1 L 173.1,224.8 L 187.6,210.3 Z M 187.6,210.3 L 173.1,224.8 L 173.1,257.9 Z M 187.6,210.3 L 173.1,257.9 L 187.6,272.4 Z M 187.6,272.4 L 173.1,257.9 L 166.9,264.1 Z M 187.6,272.4 L 166.9,264.1 L 181.4,278.6 Z M 181.4,278.6 L 166.9,264.1 L 117.2,264.1 Z M 181.4,278.6 L 117.2,264.1 L 102.8,278.6 Z M 102.8,278.6 L 117.2,264.1 L 111.0,257.9 Z M 102.8,278.6 L 111.0,257.9 L 96.6,272.4 Z M 96.6,272.4 L 111.0,257.9 L 111.0,224.8 Z M 96.6,272.4 L 111.0,224.8 L 96.6,210.3 Z M 38.6,20.0 L 20.0,38.6 L 94.5,113.1 Z M 38.6,20.0 L 94.5,113.1 L 119.3,100.7 Z M 164.8,369.7 L 189.7,380.0 L 189.7,364.5 Z M 164.8,369.7 L 189.7,364.5 L 164.8,351.9 Z M 164.8,351.9 L 189.7,364.5 L 189.7,286.9 Z M 164.8,351.9 L 189.7,286.9 L 164.8,286.9 Z M 94.5,113.1 L 94.5,195.9 L 119.3,195.9 Z M 94.5,113.1 L 119.3,195.9 L 119.3,100.7 Z M 117.2,264.1 L 127.6,253.8 L 121.4,247.6 Z M 117.2,264.1 L 121.4,247.6 L 111.0,257.9 Z M 111.0,257.9 L 121.4,247.6 L 121.4,235.2 Z M 111.0,257.9 L 121.4,235.2 L 111.0,224.8 Z M 111.0,224.8 L 121.4,235.2 L 127.6,229.0 Z M 111.0,224.8 L 127.6,229.0 L 117.2,218.6 Z M 117.2,218.6 L 127.6,229.0 L 156.6,229.0 Z M 117.2,218.6 L 156.6,229.0 L 166.9,218.6 Z M 127.6,253.8 L 117.2,264.1 L 166.9,264.1 Z M 127.6,253.8 L 166.9,264.1 L 156.6,253.8 Z M 156.6,253.8 L 166.9,264.1 L 173.1,257.9 Z M 156.6,253.8 L 173.1,257.9 L 162.8,247.6 Z M 162.8,247.6 L 173.1,257.9 L 173.1,224.8 Z M 162.8,247.6 L 173.1,224.8 L 162.8,235.2 Z M 162.8,235.2 L 173.1,224.8 L 166.9,218.6 Z M 162.8,235.2 L 166.9,218.6 L 156.6,229.0 Z M 181.4,278.6 L 189.7,286.9 L 195.9,280.7 Z M 181.4,278.6 L 195.9,280.7 L 187.6,272.4 Z M 187.6,272.4 L 195.9,280.7 L 195.9,202.1 Z M 187.6,272.4 L 195.9,202.1 L 187.6,210.3 Z M 187.6,210.3 L 195.9,202.1 L 189.7,195.9 Z M 187.6,210.3 L 189.7,195.9 L 181.4,204.1 Z M 181.4,204.1 L 189.7,195.9 L 94.5,195.9 Z M 181.4,204.1 L 94.5,195.9 L 102.8,204.1 Z M 102.8,204.1 L 94.5,195.9 L 88.3,202.1 Z M 102.8,204.1 L 88.3,202.1 L 96.6,210.3 Z M 96.6,210.3 L 88.3,202.1 L 88.3,280.7 Z M 96.6,210.3 L 88.3,280.7 L 96.6,272.4 Z M 96.6,272.4 L 88.3,280.7 L 94.5,286.9 Z M 96.6,272.4 L 94.5,286.9 L 102.8,278.6 Z M 102.8,278.6 L 94.5,286.9 L 189.7,286.9 Z M 102.8,278.6 L 189.7,286.9 L 181.4,278.6 Z" fill="#2a2a4e" stroke="none"/>
  <path d="M 38.6,20.0 L 20.0,38.6 M 20.0,38.6 L 94.5,113.1 M 119.3,100.7 L 38.6,20.0 M 164.8,369.7 L 189.7,380.0 M 189.7,380.0 L 189.7,364.5 M 164.8,351.9 L 164.8,369.7 M 189.7,364.5 L 189.7,286.9 M 189.7,286.9 L 164.8,286.9 M 164.8,286.9 L 164.8,351.9 M 94.5,113.1 L 94.5,195.9 M 94.5,195.9 L 119.3,195.9 M 119.3,195.9 L 119.3,100.7 M 127.6,253.8 L 121.4,247.6 M 121.4,247.6 L 121.4,235.2 M 121.4,235.2 L 127.6,229.0 M 127.6,229.0 L 156.6,229.0 M 156.6,253.8 L 127.6,253.8 M 162.8,247.6 L 156.6,253.8 M 162.8,235.2 L 162.8,247.6 M 156.6,229.0 L 162.8,235.2 M 189.7,286.9 L 195.9,280.7 M 195.9,280.7 L 195.9,202.1 M 195.9,202.1 L 189.7,195.9 M 189.7,195.9 L 94.5,195.9 M 94.5,195.9 L 88.3,202.1 M 88.3,202.1 L 88.3,280.7 M 88.3,280.7 L 94.5,286.9 M 94.5,286.9 L 189.7,286.9" fill="none" stroke="white" stroke-width="2" stroke-linecap="round"/>
  <polygon points="175.77459609571974,274.39116260766303 183.77459609571974,282.39116260766303 175.77459609571974,290.39116260766303 167.77459609571974,282.39116260766303" fill="#4a9eff" stroke="white" stroke-width="1"/>
<polygon points="106.9419859179803,189.64173389571695 114.9419859179803,197.64173389571695 106.9419859179803,205.64173389571695 98.9419859179803,197.64173389571695" fill="#4a9eff" stroke="white" stroke-width="1"/>
</svg>