<svg xmlns="http://www.w3.org/2000/svg" viewBox="0 0 400 400">
  <rect width="400" height="400" fill="#1a1a2e"/>
  <path d="M 140.0,380.0 L 260.0,380.0 L 260.0,260.0 Z M 140.0,380.0 L 260.0,260.0 L 140.0,260.0 Z M 140.0,260.0 L 260.0,260.0 L 260.0,140.0 Z M 140.0,260.0 L 260.0,140.0 L 140.0,140.0 Z M 140.0,140.0 L 260.0,140.0 L 260.0,20.0 Z M 140.0,140.0 L 260.0,20.0 L 140.0,20.0 Z M 140.0,20.0 L 20.0,32.0 L 20.0,140.0 Z M 140.0,20.0 L 20.0,140.0 L 140.0,140.0 Z M 140.0,140.0 L 20.0,140.0 L 20.0,260.0 Z M 140.0,140.0 L 20.0,260.0 L 140.0,260.0 Z M 140.0,260.0 L 20.0,260.0 L 20.0,368.0 Z M 140.0,260.0 L 20.0,368.0 L 140.0,380.0 Z M 380.0,32.0 L 260.0,20.0 L 260.0,140.0 Z M 380.0,32.0 L 260.0,140.0 L 380.0,140.0 Z M 380.0,140.0 L 260.0,140.0 L 260.0,260.0 Z M 380.0,140.0 L 260.0,260.0 L 380.0,260.0 Z M 380.0,260.0 L 260.0,260.0 L 260.0,380.0 Z M 380.0,260.0 L 260.0,380.0 L 380.0,368.0 Z M 32.0,380.0 L 140.0,380.0 L 20.0,368.0 Z M 260.0,380.0 L 368.0,380.0 L 380.0,368.0 Z M 380.0,32.0 L 368.0,20.0 L 260.0,20.0 Z M 140.0,20.0 L 32.0,20.0 L 20.0,32.0 Z M 326.0,85.9 L 326.0,74.1 L 314.0,74.1 Z M 326.0,85.9 L 314.0,74.1 L 314.0,85.9 Z M 326.0,325.9 L 326.0,314.1 L 314.0,314.1 Z M 326.0,325.9 L 314.0,314.1 L 314.0,325.9 Z M 206.0,325.9 L 206.0,314.1 L 194.0,314.1 Z M 206.0,325.9 L 194.0,314.1 L 194.0,325.9 Z M 86.0,325.9 L 86.0,314.1 L 74.0,314.1 Z M 86.0,325.9 L 74.0,314.1 L 74.0,325.9 Z M 326.0,205.9 L 326.0,194.1 L 314.0,194.1 Z M 326.0,205.9 L 314.0,194.1 L 314.0,205.9 Z M 206.0,205.9 L 206.0,194.1 L 194.0,194.1 Z M 206.0,205.9 L 194.0,194.1 L 194.0,205.9 Z M 86.0,205.9 L 86.0,194.1 L 74.0,194.1 Z M 86.0,205.9 L 74.0,194.1 L 74.0,205.9 Z M 86.0,85.9 L 86.0,74.1 L 74.0,74.1 Z M 86.0,85.9 L 74.0,74.1 L 74.0,85.9 Z M 206.0,85.9 L 206.0,74.1 L 194.0,74.1 Z M 206.0,85.9 L 194.0,74.1 L 194.0,85.9 Z" fill="#2a2a4e" stroke="none"/>
  <path d="M 140.0,380.0 L 260.0,380.0 M 260.0,20.0 L 140.0,20.0 M 20.0,32.0 L 20.0,140.0 M 20.0,140.0 L 20.0,260.0 M 20.0,260.0 L 20.0,368.0 M 380.0,140.0 L 380.0,32.0 M 380.0,260.0 L 380.0,140.0 M 380.0,368.0 L 380.0,260.0 M 32.0,380.0 L 140.0,380.0 M 20.0,368.0 L 32.0,380.0 M 260.0,380.0 L 368.0,380.0 M 368.0,380.0 L 380.0,368.0 M 380.0,32.0 L 368.0,20.0 M 368.0,20.0 L 260.0,20.0 M 140.0,20.0 L 32.0,20.0 M 32.0,20.0 L 20.0,32.0 M 326.0,85.9 L 326.0,74.1 M 326.0,74.1 L 314.0,74.1 M 314.0,74.1 L 314.0,85.9 M 314.0,85.9 L 326.0,85.9 M 326.0,325.9 L 326.0,314.1 M 326.0,314.1 L 314.0,314.1 M 314.0,314.1 L 314.0,325.9 M 314.0,325.9 L 326.0,325.9 M 206.0,325.9 L 206.0,314.1 M 206.0,314.1 L 194.0,314.1 M 194.0,314.1 L 194.0,325.9 M 194.0,325.9 L 206.0,325.9 M 86.0,325.9 L 86.0,314.1 M 86.0,314.1 L 74.0,314.1 M 74.0,314.1 L 74.0,325.9 M 74.0,325.9 L 86.0,325.9 M 326.0,205.9 L 326.0,194.1 M 326.0,194.1 L 314.0,194.1 M 314.0,194.1 L 314.0,205.9 M 314.0,205.9 L 326.0,205.9 M 206.0,205.9 L 206.0,194.1 M 206.0,194.1 L 194.0,194.1 M 194.0,194.1 L 194.0,205.9 M 194.0,205.9 L 206.0,205.9 M 86.0,205.9 L 86.0,194.1 M 86.0,194.1 L 74.0,194.1 M 74.0,194.1 L 74.0,205.9 M 74.0,205.9 L 86.0,205.9 M 86.0,85.9 L 86.0,74.1 M 86.0,74.1 L 74.0,74.1 M 74.0,74.1 L 74.0,85.9 M 74.0,85.9 L 86.0,85.9 M 206.0,85.9 L 206.0,74.1 M 206.0,74.1 L 194.0,74.1 M 194.0,74.1 L 194.0,85.9 M 194.0,85.9 L 206.0,85.9" fill="none" stroke="white" stroke-width="2" stroke-linecap="round"/>
  
</svg>