<svg xmlns="http://www.w3.org/2000/svg" viewBox="0 0 400 400">
  <rect width="400" height="400" fill="#1a1a2e"/>
  <path d="M 131.0,50.9 L 131.0,76.1 L 138.0,83.0 Z M 131.0,50.9 L 138.0,83.0 L 138.0,44.0 Z M 138.0,44.0 L 138.0,83.0 L 163.1,83.0 Z M 138.0,44.0 L 163.1,83.0 L 163.1,44.0 Z M 163.1,44.0 L 163.1,83.0 L 170.0,76.1 Z M 163.1,44.0 L 170.0,76.1 L 170.0,50.9 Z M 44.0,50.9 L 44.0,76.1 L 50.9,83.0 Z M 44.0,50.9 L 50.9,83.0 L 50.9,44.0 Z M 50.9,44.0 L 50.9,83.0 L 76.1,83.0 Z M 50.9,44.0 L 76.1,83.0 L 76.1,44.0 Z M 76.1,44.0 L 76.1,83.0 L 83.0,76.1 Z M 76.1,44.0 L 83.0,76.1 L 83.0,50.9 Z M 76.1,83.0 L 50.9,83.0 L 38.3,107.0 Z M 76.1,83.0 L 38.3,107.0 L 88.7,107.0 Z M 88.7,107.0 L 38.3,107.0 L 50.9,131.0 Z M 88.7,107.0 L 50.9,131.0 L 76.1,131.0 Z M 44.0,138.0 L 44.0,163.1 L 50.9,170.0 Z M 44.0,138.0 L 50.9,170.0 L 50.9,131.0 Z M 50.9,131.0 L 50.9,170.0 L 76.1,170.0 Z M 50.9,131.0 L 76.1,170.0 L 76.1,131.0 Z M 76.1,131.0 L 76.1,170.0 L 83.0,163.1 Z M 76.1,131.0 L 83.0,163.1 L 83.0,138.0 Z M 131.0,138.0 L 131.0,163.1 L 138.0,170.0 Z M 131.0,138.0 L 138.0,170.0 L 138.0,131.0 Z M 138.0,131.0 L 138.0,170.0 L 163.1,170.0 Z M 138.0,131.0 L 163.1,170.0 L 163.1,131.0 Z M 163.1,131.0 L 163.1,170.0 L 170.0,163.1 Z M 163.1,131.0 L 170.0,163.1 L 170.0,138.0 Z M 138.0,83.0 L 125.3,107.0 L 175.7,107.0 Z M 138.0,83.0 L 175.7,107.0 L 163.1,83.0 Z M 175.7,107.0 L 194.0,88.7 L 170.0,76.1 Z M 175.7,107.0 L 170.0,76.1 L 163.1,83.0 Z M 170.0,76.1 L 194.0,88.7 L 194.0,38.3 Z M 170.0,76.1 L 194.0,38.3 L 170.0,50.9 Z M 194.0,38.3 L 175.7,20.0 L 163.1,44.0 Z M 194.0,38.3 L 163.1,44.0 L 170.0,50.9 Z M 163.1,44.0 L 175.7,20.0 L 125.3,20.0 Z M 163.1,44.0 L 125.3,20.0 L 138.0,44.0 Z M 131.0,50.9 L 138.0,44.0 L 125.3,20.0 Z M 131.0,50.9 L 125.3,20.0 L 107.0,38.3 Z M 131.0,50.9 L 107.0,38.3 L 107.0,88.7 Z M 131.0,50.9 L 107.0,88.7 L 131.0,76.1 Z M 107.0,88.7 L 125.3,107.0 L 138.0,83.0 Z M 107.0,88.7 L 138.0,83.0 L 131.0,76.1 Z M 88.7,107.0 L 107.0,88.7 L 83.0,76.1 Z M 88.7,107.0 L 83.0,76.1 L 76.1,83.0 Z M 83.0,76.1 L 107.0,88.7 L 107.0,38.3 Z M 83.0,76.1 L 107.0,38.3 L 83.0,50.9 Z M 107.0,38.3 L 88.7,20.0 L 76.1,44.0 Z M 107.0,38.3 L 76.1,44.0 L 83.0,50.9 Z M 76.1,44.0 L 88.7,20.0 L 38.3,20.0 Z M 76.1,44.0 L 38.3,20.0 L 50.9,44.0 Z M 44.0,50.9 L 50.9,44.0 L 38.3,20.0 Z M 44.0,50.9 L 38.3,20.0 L 20.0,38.3 Z M 44.0,50.9 L 20.0,38.3 L 20.0,88.7 Z M 44.0,50.9 L 20.0,88.7 L 44.0,76.1 Z M 20.0,88.7 L 38.3,107.0 L 50.9,83.0 Z M 20.0,88.7 L 50.9,83.0 L 44.0,76.1 Z M 50.9,170.0 L 38.3,194.0 L 88.7,194.0 Z M 50.9,170.0 L 88.7,194.0 L 76.1,170.0 Z M 88.7,194.0 L 107.0,175.7 L 83.0,163.1 Z M 88.7,194.0 L 83.0,163.1 L 76.1,170.0 Z M 83.0,163.1 L 107.0,175.7 L 107.0,125.3 Z M 83.0,163.1 L 107.0,125.3 L 83.0,138.0 Z M 107.0,125.3 L 88.7,107.0 L 76.1,131.0 Z M 107.0,125.3 L 76.1,131.0 L 83.0,138.0 Z M 44.0,138.0 L 50.9,131.0 L 38.3,107.0 Z M 44.0,138.0 L 38.3,107.0 L 20.0,125.3 Z M 44.0,138.0 L 20.0,125.3 L 20.0,175.7 Z M 44.0,138.0 L 20.0,175.7 L 44.0,163.1 Z M 20.0,175.7 L 38.3,194.0 L 50.9,170.0 Z M 20.0,175.7 L 50.9,170.0 L 44.0,163.1 Z M 138.0,170.0 L 125.3,194.0 L 175.7,194.0 Z M 138.0,170.0 L 175.7,194.0 L 163.1,170.0 Z M 175.7,194.0 L 194.0,175.7 L 170.0,163.1 Z M 175.7,194.0 L 170.0,163.1 L 163.1,170.0 Z M 170.0,163.1 L 194.0,175.7 L 194.0,125.3 Z M 170.0,163.1 L 194.0,125.3 L 170.0,138.0 Z M 194.0,125.3 L 175.7,107.0 L 163.1,131.0 Z M 194.0,125.3 L 163.1,131.0 L 170.0,138.0 Z M 163.1,131.0 L 175.7,107.0 L 125.3,107.0 Z M 163.1,131.0 L 125.3,107.0 L 138.0,131.0 Z M 131.0,138.0 L 138.0,131.0 L 125.3,107.0 Z M 131.0,138.0 L 125.3,107.0 L 107.0,125.3 Z M 131.0,138.0 L 107.0,125.3 L 107.0,175.7 Z M 131.0,138.0 L 107.0,175.7 L 131.0,163.1 Z M 107.0,175.7 L 125.3,194.0 L 138.0,170.0 Z M 107.0,175.7 L 138.0,170.0 L 131.0,163.1 Z M 107.0,125.3 L 125.3,107.0 L 107.0,88.7 Z M 107.0,125.3 L 107.0,88.7 L 88.7,107.0 Z M 169.4,380.0 L 186.8,348.2 L 110.5,317.4 Z M 169.4,380.0 L 110.5,317.4 L 96.3,348.0 Z M 96.3,348.0 L 110.5,317.4 L 83.2,282.7 Z M 96.3,348.0 L 83.2,282.7 L 44.3,282.1 Z M 83.2,282.7 L 83.2,194.0 L 44.3,194.0 Z M 83.2,282.7 L 44.3,194.0 L 44.3,282.1 Z" fill="#2a2a4e" stroke="none"/>
  <path d="M 175.7,107.0 L 194.0,88.7 M 194.0,88.7 L 194.0,38.3 M 194.0,38.3 L 175.7,20.0 M 175.7,20.0 L 125.3,20.0 M 125.3,20.0 L 107.0,38.3 M 107.0,38.3 L 88.7,20.0 M 88.7,20.0 L 38.3,20.0 M 38.3,20.0 L 20.0,38.3 M 20.0,38.3 L 20.0,88.7 M 20.0,88.7 L 38.3,107.0 M 38.3,194.0 L 88.7,194.0 M 88.7,194.0 L 107.0,175.7 M 38.3,107.0 L 20.0,125.3 M 20.0,125.3 L 20.0,175.7 M 20.0,175.7 L 38.3,194.0 M 125.3,194.0 L 175.7,194.0 M 175.7,194.0 L 194.0,175.7 M 194.0,175.7 L 194.0,125.3 M 194.0,125.3 L 175.7,107.0 M 107.0,175.7 L 125.3,194.0 M 169.4,380.0 L 186.8,348.2 M 186.8,348.2 L 110.5,317.4 M 96.3,348.0 L 169.4,380.0 M 110.5,317.4 L 83.2,282.7 M 44.3,282.1 L 96.3,348.0 M 83.2,282.7 L 83.2,194.0 M 83.2,194.0 L 44.3,194.0 M 44.3,194.0 L 44.3,282.1" fill="none" stroke="white" stroke-width="2" stroke-linecap="round"/>
  <polygon points="62.66170852815386,224.65322742902046 70.66170852815387,232.65322742902046 62.66170852815386,240.65322742902046 54.66170852815386,232.65322742902046" fill="#4a9eff" stroke="white" stroke-width="1"/>
</svg>