<svg xmlns="http://www.w3.org/2000/svg" viewBox="0 0 400 400">
  <rect width="400" height="400" fill="#1a1a2e"/>
  <path d="M 124.3,135.8 L 86.7,135.8 L 94.6,182.3 Z M 124.3,135.8 L 94.6,182.3 L 143.2,165.6 Z M 143.2,165.6 L 94.6,182.3 L 149.8,242.8 Z M 143.2,165.6 L 149.8,242.8 L 177.8,198.8 Z M 177.8,198.8 L 149.8,242.8 L 172.4,244.3 Z M 177.8,198.8 L 172.4,244.3 L 217.2,216.3 Z M 217.2,216.3 L 172.4,244.3 L 197.4,270.7 Z M 217.2,216.3 L 197.4,270.7 L 236.3,243.7 Z M 236.3,243.7 L 197.4,270.7 L 200.7,318.7 Z M 236.3,243.7 L 200.7,318.7 L 217.1,329.1 Z M 217.1,329.1 L 200.7,318.7 L 185.0,339.0 Z M 217.1,329.1 L 185.0,339.0 L 189.0,352.5 Z M 189.0,352.5 L 185.0,339.0 L 162.4,341.5 Z M 189.0,352.5 L 162.4,341.5 L 162.9,360.8 Z M 162.9,360.8 L 162.4,341.5 L 136.5,327.4 Z M 162.9,360.8 L 136.5,327.4 L 124.3,345.6 Z M 124.3,345.6 L 136.5,327.4 L 121.6,292.3 Z M 124.3,345.6 L 121.6,292.3 L 103.1,317.5 Z M 103.1,317.5 L 121.6,292.3 L 132.8,264.2 Z M 103.1,317.5 L 132.8,264.2 L 78.4,290.4 Z M 78.4,290.4 L 132.8,264.2 L 74.4,224.1 Z M 78.4,290.4 L 74.4,224.1 L 65.3,259.1 Z M 236.3,243.7 L 217.1,329.1 L 264.5,276.4 Z M 217.1,329.1 L 264.5,313.1 L 264.5,276.4 Z M 149.8,242.8 L 94.6,182.3 L 74.4,224.1 Z M 149.8,242.8 L 74.4,224.1 L 132.8,264.2 Z M 61.7,363.2 L 83.5,330.1 L 26.3,330.6 Z M 83.5,330.1 L 61.1,301.1 L 26.3,330.6 Z M 61.1,301.1 L 44.8,260.6 L 20.0,258.1 Z M 61.1,301.1 L 20.0,258.1 L 26.3,330.6 Z M 166.7,325.3 L 180.2,322.5 L 185.7,309.1 Z M 166.7,325.3 L 185.7,309.1 L 150.1,316.0 Z M 162.4,136.0 L 196.4,179.6 L 231.0,146.7 Z M 258.4,184.1 L 233.2,199.6 L 259.2,226.8 Z M 55.6,216.6 L 24.8,184.1 L 20.0,233.6 Z M 77.0,169.9 L 69.1,142.3 L 51.4,151.3 Z M 177.8,198.8 L 217.2,216.3 L 196.4,179.6 Z M 217.2,216.3 L 233.2,199.6 L 196.4,179.6 Z M 196.4,179.6 L 233.2,199.6 L 231.0,146.7 Z M 233.2,199.6 L 258.4,184.1 L 231.0,146.7 Z M 114.7,371.6 L 140.7,380.0 L 124.3,345.6 Z M 140.7,380.0 L 162.9,360.8 L 124.3,345.6 Z M 177.8,198.8 L 196.4,179.6 L 143.2,165.6 Z M 196.4,179.6 L 162.4,136.0 L 143.2,165.6 Z M 256.5,325.1 L 217.1,329.1 L 191.5,375.8 Z M 217.1,329.1 L 189.0,352.5 L 191.5,375.8 Z M 55.6,216.6 L 77.0,169.9 L 24.8,184.1 Z M 77.0,169.9 L 51.4,151.3 L 24.8,184.1 Z M 185.7,309.1 L 180.2,322.5 L 200.7,318.7 Z M 180.2,322.5 L 185.0,339.0 L 200.7,318.7 Z M 121.6,292.3 L 141.3,296.7 L 132.8,264.2 Z M 141.3,296.7 L 154.3,283.3 L 132.8,264.2 Z M 132.8,264.2 L 154.3,283.3 L 155.9,268.2 Z M 74.4,224.1 L 94.6,182.3 L 77.0,169.9 Z M 74.4,224.1 L 77.0,169.9 L 55.6,216.6 Z M 189.0,352.5 L 162.9,360.8 L 166.6,379.6 Z M 189.0,352.5 L 166.6,379.6 L 191.5,375.8 Z M 233.2,199.6 L 217.2,216.3 L 236.3,243.7 Z M 233.2,199.6 L 236.3,243.7 L 259.2,226.8 Z M 103.1,317.5 L 78.4,290.4 L 61.1,301.1 Z M 103.1,317.5 L 61.1,301.1 L 83.5,330.1 Z M 114.7,371.6 L 124.3,345.6 L 103.1,317.5 Z M 114.7,371.6 L 103.1,317.5 L 83.5,330.1 Z M 74.4,224.1 L 55.6,216.6 L 44.8,260.6 Z M 74.4,224.1 L 44.8,260.6 L 65.3,259.1 Z M 69.1,142.3 L 77.0,169.9 L 94.6,182.3 Z M 69.1,142.3 L 94.6,182.3 L 86.7,135.8 Z M 65.3,259.1 L 44.8,260.6 L 61.1,301.1 Z M 65.3,259.1 L 61.1,301.1 L 78.4,290.4 Z M 44.8,260.6 L 55.6,216.6 L 20.0,233.6 Z M 44.8,260.6 L 20.0,233.6 L 20.0,258.1 Z M 185.7,309.1 L 184.4,282.2 L 141.3,296.7 Z M 185.7,309.1 L 141.3,296.7 L 150.1,316.0 Z M 121.6,292.3 L 136.5,327.4 L 150.1,316.0 Z M 121.6,292.3 L 150.1,316.0 L 141.3,296.7 Z M 166.7,325.3 L 150.1,316.0 L 136.5,327.4 Z M 166.7,325.3 L 136.5,327.4 L 162.4,341.5 Z M 180.2,322.5 L 166.7,325.3 L 162.4,341.5 Z M 180.2,322.5 L 162.4,341.5 L 185.0,339.0 Z M 168.5,264.2 L 155.9,268.2 L 154.3,283.3 Z M 168.5,264.2 L 154.3,283.3 L 184.4,282.2 Z M 184.4,282.2 L 197.4,270.7 L 172.4,244.3 Z M 184.4,282.2 L 172.4,244.3 L 168.5,264.2 Z M 185.7,309.1 L 200.7,318.7 L 197.4,270.7 Z M 185.7,309.1 L 197.4,270.7 L 184.4,282.2 Z M 172.4,244.3 L 149.8,242.8 L 155.9,268.2 Z M 172.4,244.3 L 155.9,268.2 L 168.5,264.2 Z M 143.2,165.6 L 162.4,136.0 L 124.3,135.8 Z M 61.7,363.2 L 114.7,371.6 L 83.5,330.1 Z M 264.5,276.4 L 259.2,226.8 L 236.3,243.7 Z M 154.3,283.3 L 141.3,296.7 L 184.4,282.2 Z M 155.9,268.2 L 149.8,242.8 L 132.8,264.2 Z M 256.5,325.1 L 264.5,313.1 L 217.1,329.1 Z M 140.7,380.0 L 166.6,379.6 L 162.9,360.8 Z M 240.8,199.3 L 249.6,196.1 L 249.2,191.2 Z M 240.8,199.3 L 249.2,191.2 L 240.2,192.0 Z M 238.8,201.4 L 242.1,195.3 L 239.4,192.8 Z M 238.8,201.4 L 239.4,192.8 L 234.9,197.6 Z M 71.1,169.2 L 68.9,177.5 L 72.8,179.8 Z M 71.1,169.2 L 72.8,179.8 L 77.0,172.6 Z M 214.2,183.0 L 219.1,177.2 L 216.8,173.9 Z M 214.2,183.0 L 216.8,173.9 L 210.8,178.1 Z M 182.3,168.3 L 190.8,168.3 L 191.9,164.0 Z M 182.3,168.3 L 191.9,164.0 L 184.0,161.8 Z M 170.0,325.0 L 178.6,321.8 L 178.2,317.0 Z M 170.0,325.0 L 178.2,317.0 L 169.4,317.8 Z M 166.9,319.2 L 170.1,313.4 L 167.6,310.9 Z M 166.9,319.2 L 167.6,310.9 L 163.1,315.6 Z M 71.0,180.1 L 71.9,172.8 L 68.3,171.4 Z M 71.0,180.1 L 68.3,171.4 L 65.7,177.9 Z M 47.4,291.2 L 51.7,286.0 L 49.7,283.1 Z M 47.4,291.2 L 49.7,283.1 L 44.3,286.9 Z M 60.4,316.8 L 58.0,310.5 L 54.5,310.8 Z M 60.4,316.8 L 54.5,310.8 L 55.0,317.3 Z M 87.2,135.8 L 123.9,135.8 L 123.9,96.2 Z M 87.2,135.8 L 123.9,96.2 L 87.2,96.2 Z M 87.2,96.2 L 123.9,96.2 L 124.0,52.9 Z M 87.2,96.2 L 124.0,52.9 L 87.3,52.9 Z M 307.2,276.5 L 264.4,276.4 L 264.5,313.1 Z M 307.2,276.5 L 264.5,313.1 L 307.3,312.9 Z M 349.8,276.5 L 307.2,276.5 L 307.3,312.9 Z M 349.8,276.5 L 307.3,312.9 L 349.2,312.6 Z M 349.2,312.6 L 378.6,359.4 L 378.6,322.9 Z M 349.2,312.6 L 378.6,322.9 L 349.8,276.5 Z M 51.1,20.0 L 87.3,52.9 L 124.0,52.9 Z M 51.1,20.0 L 124.0,52.9 L 87.8,20.0 Z" fill="#2a2a4e" stroke="none"/>
  <path d="M 124.3,135.8 L 86.7,135.8 M 264.5,313.1 L 264.5,276.4 M 26.3,330.6 L 61.7,363.2 M 20.0,258.1 L 26.3,330.6 M 231.0,146.7 L 162.4,136.0 M 259.2,226.8 L 258.4,184.1 M 24.8,184.1 L 20.0,233.6 M 69.1,142.3 L 51.4,151.3 M 258.4,184.1 L 231.0,146.7 M 114.7,371.6 L 140.7,380.0 M 191.5,375.8 L 256.5,325.1 M 51.4,151.3 L 24.8,184.1 M 166.6,379.6 L 191.5,375.8 M 86.7,135.8 L 69.1,142.3 M 20.0,233.6 L 20.0,258.1 M 162.4,136.0 L 124.3,135.8 M 61.7,363.2 L 114.7,371.6 M 264.5,276.4 L 259.2,226.8 M 256.5,325.1 L 264.5,313.1 M 140.7,380.0 L 166.6,379.6 M 240.8,199.3 L 249.6,196.1 M 249.6,196.1 L 249.2,191.2 M 249.2,191.2 L 240.2,192.0 M 240.2,192.0 L 240.8,199.3 M 238.8,201.4 L 242.1,195.3 M 242.1,195.3 L 239.4,192.8 M 239.4,192.8 L 234.9,197.6 M 234.9,197.6 L 238.8,201.4 M 71.1,169.2 L 68.9,177.5 M 68.9,177.5 L 72.8,179.8 M 72.8,179.8 L 77.0,172.6 M 77.0,172.6 L 71.1,169.2 M 214.2,183.0 L 219.1,177.2 M 219.1,177.2 L 216.8,173.9 M 216.8,173.9 L 210.8,178.1 M 210.8,178.1 L 214.2,183.0 M 182.3,168.3 L 190.8,168.3 M 190.8,168.3 L 191.9,164.0 M 191.9,164.0 L 184.0,161.8 M 184.0,161.8 L 182.3,168.3 M 170.0,325.0 L 178.6,321.8 M 178.6,321.8 L 178.2,317.0 M 178.2,317.0 L 169.4,317.8 M 169.4,317.8 L 170.0,325.0 M 166.9,319.2 L 170.1,313.4 M 170.1,313.4 L 167.6,310.9 M 167.6,310.9 L 163.1,315.6 M 163.1,315.6 L 166.9,319.2 M 71.0,180.1 L 71.9,172.8 M 71.9,172.8 L 68.3,171.4 M 68.3,171.4 L 65.7,177.9 M 65.7,177.9 L 71.0,180.1 M 47.4,291.2 L 51.7,286.0 M 51.7,286.0 L 49.7,283.1 M 49.7,283.1 L 44.3,286.9 M 44.3,286.9 L 47.4,291.2 M 60.4,316.8 L 58.0,310.5 M 58.0,310.5 L 54.5,310.8 M 54.5,310.8 L 55.0,317.3 M 55.0,317.3 L 60.4,316.8 M 87.2,135.8 L 123.9,135.8 M 123.9,135.8 L 123.9,96.2 M 87.2,96.2 L 87.2,135.8 M 123.9,96.2 L 124.0,52.9 M 87.3,52.9 L 87.2,96.2 M 307.2,276.5 L 264.4,276.4 M 264.4,276.4 L 264.5,313.1 M 264.5,313.1 L 307.3,312.9 M 349.8,276.5 L 307.2,276.5 M 307.3,312.9 L 349.2,312.6 M 349.2,312.6 L 378.6,359.4 M 378.6,359.4 L 378.6,322.9 M 378.6,322.9 L 349.8,276.5 M 51.1,20.0 L 87.3,52.9 M 124.0,52.9 L 87.8,20.0 M 87.8,20.0 L 51.1,20.0" fill="none" stroke="white" stroke-width="2" stroke-linecap="round"/>
  <polygon points="283.8593785427624,286.71464938137143 291.8593785427624,294.71464938137143 283.8593785427624,302.71464938137143 275.8593785427624,294.71464938137143" fill="#4a9eff" stroke="white" stroke-width="1"/>
<polygon points="105.64494215528026,111.97523992571597 113.64494215528026,119.97523992571597 105.64494215528026,127.97523992571597 97.64494215528026,119.97523992571597" fill="#4a9eff" stroke="white" stroke-width="1"/>
</svg>