<svg xmlns="http://www.w3.org/2000/svg" viewBox="0 0 400 400">
  <rect width="400" height="400" fill="#1a1a2e"/>
  <path d="M 214.0,205.7 L 241.9,205.7 L 236.3,170.3 Z M 214.0,205.7 L 236.3,170.3 L 199.3,183.0 Z M 199.3,183.0 L 236.3,170.3 L 194.3,124.2 Z M 199.3,183.0 L 194.3,124.2 L 172.9,157.7 Z M 172.9,157.7 L 194.3,124.2 L 177.0,123.0 Z M 172.9,157.7 L 177.0,123.0 L 142.9,144.4 Z M 142.9,144.4 L 177.0,123.0 L 158.0,102.9 Z M 142.9,144.4 L 158.0,102.9 L 128.4,123.5 Z M 128.4,123.5 L 158.0,102.9 L 155.5,66.4 Z M 128.4,123.5 L 155.5,66.4 L 143.0,58.5 Z M 143.0,58.5 L 155.5,66.4 L 167.4,51.0 Z M 143.0,58.5 L 167.4,51.0 L 164.4,40.7 Z M 164.4,40.7 L 167.4,51.0 L 184.7,49.1 Z M 164.4,40.7 L 184.7,49.1 L 184.3,34.3 Z M 184.3,34.3 L 184.7,49.1 L 204.4,59.8 Z M 184.3,34.3 L 204.4,59.8 L 213.7,45.9 Z M 213.7,45.9 L 204.4,59.8 L 215.7,86.5 Z M 213.7,45.9 L 215.7,86.5 L 229.8,67.4 Z M 229.8,67.4 L 215.7,86.5 L 207.2,107.9 Z M 229.8,67.4 L 207.2,107.9 L 248.6,87.9 Z M 248.6,87.9 L 207.2,107.9 L 251.6,138.4 Z M 248.6,87.9 L 251.6,138.4 L 258.6,111.8 Z M 106.9,103.3 L 128.4,123.5 L 143.0,58.5 Z M 106.9,103.3 L 143.0,58.5 L 106.9,75.3 Z M 194.3,124.2 L 236.3,170.3 L 251.6,138.4 Z M 194.3,124.2 L 251.6,138.4 L 207.2,107.9 Z M 261.3,32.5 L 244.8,57.7 L 261.8,79.8 Z M 261.3,32.5 L 261.8,79.8 L 293.1,58.5 Z M 293.1,58.5 L 261.8,79.8 L 274.2,110.7 Z M 293.1,58.5 L 274.2,110.7 L 293.5,111.3 Z M 293.5,111.3 L 274.2,110.7 L 266.0,144.2 Z M 293.5,111.3 L 266.0,144.2 L 289.5,168.9 Z M 180.0,107.9 L 189.6,104.9 L 190.9,93.4 Z M 180.0,107.9 L 190.9,93.4 L 167.9,94.2 Z M 181.4,61.4 L 171.1,63.5 L 166.9,73.7 Z M 181.4,61.4 L 166.9,73.7 L 194.1,68.5 Z M 184.6,205.5 L 158.8,172.4 L 132.4,197.4 Z M 111.5,168.9 L 130.7,157.1 L 111.0,136.4 Z M 249.7,179.7 L 250.6,200.8 L 269.2,193.9 Z M 143.3,176.6 L 147.8,173.4 L 145.2,169.7 Z M 143.3,176.6 L 145.2,169.7 L 141.5,174.1 Z M 185.5,78.3 L 187.6,72.0 L 182.4,70.3 Z M 185.5,78.3 L 182.4,70.3 L 182.0,77.2 Z M 188.8,80.7 L 186.8,76.2 L 183.2,77.8 Z M 188.8,80.7 L 183.2,77.8 L 186.3,81.8 Z M 236.3,170.3 L 249.7,179.7 L 266.0,144.2 Z M 236.3,170.3 L 266.0,144.2 L 251.6,138.4 Z M 251.6,138.4 L 266.0,144.2 L 274.2,110.7 Z M 251.6,138.4 L 274.2,110.7 L 258.6,111.8 Z M 213.7,45.9 L 221.0,26.1 L 181.4,20.0 Z M 213.7,45.9 L 181.4,20.0 L 184.3,34.3 Z M 184.3,34.3 L 181.4,20.0 L 162.5,22.9 Z M 184.3,34.3 L 162.5,22.9 L 164.4,40.7 Z M 164.4,40.7 L 162.5,22.9 L 113.0,61.6 Z M 164.4,40.7 L 113.0,61.6 L 143.0,58.5 Z M 128.4,123.5 L 111.0,136.4 L 130.7,157.1 Z M 128.4,123.5 L 130.7,157.1 L 142.9,144.4 Z M 142.9,144.4 L 130.7,157.1 L 158.8,172.4 Z M 142.9,144.4 L 158.8,172.4 L 172.9,157.7 Z M 172.9,157.7 L 158.8,172.4 L 184.6,205.5 Z M 172.9,157.7 L 184.6,205.5 L 199.3,183.0 Z M 221.0,26.1 L 213.7,45.9 L 229.8,67.4 Z M 221.0,26.1 L 229.8,67.4 L 244.8,57.7 Z M 244.8,57.7 L 229.8,67.4 L 248.6,87.9 Z M 244.8,57.7 L 248.6,87.9 L 261.8,79.8 Z M 261.8,79.8 L 248.6,87.9 L 258.6,111.8 Z M 261.8,79.8 L 258.6,111.8 L 274.2,110.7 Z M 155.5,66.4 L 166.9,73.7 L 171.1,63.5 Z M 155.5,66.4 L 171.1,63.5 L 167.4,51.0 Z M 167.4,51.0 L 171.1,63.5 L 181.4,61.4 Z M 167.4,51.0 L 181.4,61.4 L 184.7,49.1 Z M 184.7,49.1 L 181.4,61.4 L 194.1,68.5 Z M 184.7,49.1 L 194.1,68.5 L 204.4,59.8 Z M 215.7,86.5 L 200.7,83.2 L 207.2,107.9 Z M 200.7,83.2 L 190.9,93.4 L 207.2,107.9 Z M 207.2,107.9 L 190.9,93.4 L 189.6,104.9 Z M 194.1,68.5 L 200.7,83.2 L 204.4,59.8 Z M 200.7,83.2 L 215.7,86.5 L 204.4,59.8 Z M 158.0,102.9 L 167.9,94.2 L 155.5,66.4 Z M 167.9,94.2 L 166.9,73.7 L 155.5,66.4 Z M 132.4,197.4 L 158.8,172.4 L 130.7,157.1 Z M 132.4,197.4 L 130.7,157.1 L 111.5,168.9 Z M 250.6,200.8 L 249.7,179.7 L 236.3,170.3 Z M 250.6,200.8 L 236.3,170.3 L 241.9,205.7 Z M 289.5,168.9 L 266.0,144.2 L 249.7,179.7 Z M 289.5,168.9 L 249.7,179.7 L 269.2,193.9 Z M 166.9,73.7 L 167.9,94.2 L 200.7,83.2 Z M 166.9,73.7 L 200.7,83.2 L 194.1,68.5 Z M 167.9,94.2 L 158.0,102.9 L 177.0,123.0 Z M 167.9,94.2 L 177.0,123.0 L 180.0,107.9 Z M 177.0,123.0 L 194.3,124.2 L 189.6,104.9 Z M 177.0,123.0 L 189.6,104.9 L 180.0,107.9 Z M 199.3,183.0 L 184.6,205.5 L 214.0,205.7 Z M 261.3,32.5 L 221.0,26.1 L 244.8,57.7 Z M 106.9,103.3 L 111.0,136.4 L 128.4,123.5 Z M 190.9,93.4 L 200.7,83.2 L 167.9,94.2 Z M 189.6,104.9 L 194.3,124.2 L 207.2,107.9 Z M 113.0,61.6 L 106.9,75.3 L 143.0,58.5 Z M 42.0,103.2 L 106.9,103.3 L 106.9,75.3 Z M 42.0,103.2 L 106.9,75.3 L 42.4,75.7 Z M 20.0,72.5 L 42.0,103.2 L 42.4,75.7 Z M 20.0,72.5 L 42.4,75.7 L 20.0,44.7 Z M 214.0,205.7 L 213.9,268.8 L 241.8,268.8 Z M 214.0,205.7 L 241.8,268.8 L 241.9,205.7 Z M 213.9,268.8 L 236.8,293.9 L 264.7,293.9 Z M 213.9,268.8 L 264.7,293.9 L 241.8,268.8 Z M 358.0,60.8 L 293.1,60.7 L 293.1,88.7 Z M 358.0,60.8 L 293.1,88.7 L 357.6,88.3 Z M 380.0,96.2 L 358.0,60.8 L 357.6,88.3 Z M 380.0,96.2 L 357.6,88.3 L 380.0,123.9 Z" fill="#2a2a4e" stroke="none"/>
  <path d="M 293.1,58.5 L 261.3,32.5 M 293.5,111.3 L 293.1,58.5 M 289.5,168.9 L 293.5,111.3 M 132.4,197.4 L 184.6,205.5 M 111.0,136.4 L 111.5,168.9 M 250.6,200.8 L 269.2,193.9 M 143.3,176.6 L 147.8,173.4 M 147.8,173.4 L 145.2,169.7 M 145.2,169.7 L 141.5,174.1 M 141.5,174.1 L 143.3,176.6 M 185.5,78.3 L 187.6,72.0 M 187.6,72.0 L 182.4,70.3 M 182.4,70.3 L 182.0,77.2 M 182.0,77.2 L 185.5,78.3 M 188.8,80.7 L 186.8,76.2 M 186.8,76.2 L 183.2,77.8 M 183.2,77.8 L 186.3,81.8 M 186.3,81.8 L 188.8,80.7 M 221.0,26.1 L 181.4,20.0 M 181.4,20.0 L 162.5,22.9 M 162.5,22.9 L 113.0,61.6 M 111.5,168.9 L 132.4,197.4 M 241.9,205.7 L 250.6,200.8 M 269.2,193.9 L 289.5,168.9 M 184.6,205.5 L 214.0,205.7 M 261.3,32.5 L 221.0,26.1 M 106.9,103.3 L 111.0,136.4 M 113.0,61.6 L 106.9,75.3 M 42.0,103.2 L 106.9,103.3 M 106.9,75.3 L 42.4,75.7 M 20.0,72.5 L 42.0,103.2 M 42.4,75.7 L 20.0,44.7 M 20.0,44.7 L 20.0,72.5 M 214.0,205.7 L 213.9,268.8 M 241.8,268.8 L 241.9,205.7 M 213.9,268.8 L 236.8,293.9 M 236.8,293.9 L 264.7,293.9 M 264.7,293.9 L 241.8,268.8 M 358.0,60.8 L 293.1,60.7 M 293.1,60.7 L 293.1,88.7 M 293.1,88.7 L 357.6,88.3 M 380.0,96.2 L 358.0,60.8 M 357.6,88.3 L 380.0,123.9 M 380.0,123.9 L 380.0,96.2" fill="none" stroke="white" stroke-width="2" stroke-linecap="round"/>
  
</svg>