<svg xmlns="http://www.w3.org/2000/svg" viewBox="0 0 400 400">
  <rect width="400" height="400" fill="#1a1a2e"/>
  <path d="M 106.4,198.9 L 87.7,212.3 L 87.9,227.5 Z M 106.4,198.9 L 87.9,227.5 L 137.8,198.9 Z M 137.8,198.9 L 87.9,227.5 L 107.2,242.6 Z M 137.8,198.9 L 107.2,242.6 L 165.8,212.0 Z M 165.8,212.0 L 107.2,242.6 L 141.7,246.1 Z M 165.8,212.0 L 141.7,246.1 L 161.2,240.1 Z M 52.6,170.3 L 60.0,179.9 L 98.1,152.1 Z M 52.6,170.3 L 98.1,152.1 L 46.5,151.8 Z M 46.5,151.8 L 98.1,152.1 L 93.8,125.9 Z M 46.5,151.8 L 93.8,125.9 L 66.5,125.7 Z M 66.5,125.7 L 93.8,125.9 L 96.5,98.5 Z M 66.5,125.7 L 96.5,98.5 L 71.6,98.5 Z M 93.8,125.9 L 105.1,105.6 L 96.5,98.5 Z M 105.1,105.6 L 109.3,93.7 L 96.5,98.5 Z M 119.8,165.0 L 98.1,152.1 L 96.1,175.2 Z M 98.1,152.1 L 88.8,175.0 L 96.1,175.2 Z M 88.8,175.0 L 98.1,152.1 L 69.0,185.7 Z M 88.8,175.0 L 69.0,185.7 L 77.6,184.8 Z M 165.8,212.0 L 161.2,240.1 L 169.8,223.8 Z M 137.8,198.9 L 129.9,188.7 L 106.4,198.9 Z M 105.1,105.6 L 124.3,105.6 L 109.3,93.7 Z M 60.0,179.9 L 69.0,185.7 L 98.1,152.1 Z M 20.0,182.9 L 34.9,175.9 L 30.1,149.0 Z M 20.0,182.9 L 30.1,149.0 L 22.8,144.5 Z M 22.8,144.5 L 30.1,149.0 L 47.3,125.8 Z M 22.8,144.5 L 47.3,125.8 L 47.9,112.8 Z M 137.1,261.3 L 89.7,257.6 L 71.5,264.2 Z M 137.1,261.3 L 71.5,264.2 L 105.5,264.2 Z M 53.5,254.0 L 71.6,241.1 L 68.5,220.4 Z M 53.5,254.0 L 68.5,220.4 L 51.2,232.8 Z M 191.8,227.9 L 191.8,197.9 L 185.7,188.4 Z M 191.8,227.9 L 185.7,188.4 L 169.1,197.1 Z M 152.4,165.8 L 168.8,158.4 L 186.3,137.3 Z M 152.4,165.8 L 186.3,137.3 L 166.4,138.0 Z M 127.9,125.6 L 121.4,120.7 L 111.2,117.1 Z M 127.9,125.6 L 111.2,117.1 L 104.3,129.4 Z M 172.4,174.9 L 142.8,177.0 L 148.0,186.5 Z M 36.4,202.9 L 59.9,205.5 L 46.8,192.0 Z M 139.2,94.6 L 157.3,110.2 L 172.8,110.3 Z M 121.4,145.2 L 127.3,143.1 L 127.0,139.9 Z M 121.4,145.2 L 127.0,139.9 L 121.0,140.4 Z M 119.4,141.4 L 121.5,137.4 L 119.8,135.7 Z M 119.4,141.4 L 119.8,135.7 L 116.8,138.9 Z M 89.7,257.6 L 71.6,241.1 L 71.5,264.2 Z M 71.6,241.1 L 53.5,254.0 L 71.5,264.2 Z M 68.5,220.4 L 87.9,227.5 L 87.7,212.3 Z M 141.7,246.1 L 107.2,242.6 L 137.1,261.3 Z M 107.2,242.6 L 89.7,257.6 L 137.1,261.3 Z M 107.2,242.6 L 87.9,227.5 L 89.7,257.6 Z M 87.9,227.5 L 71.6,241.1 L 89.7,257.6 Z M 148.0,186.5 L 137.8,198.9 L 169.1,197.1 Z M 137.8,198.9 L 165.8,212.0 L 169.1,197.1 Z M 191.8,227.9 L 169.8,223.8 L 169.6,254.7 Z M 169.8,223.8 L 161.2,240.1 L 169.6,254.7 Z M 148.0,186.5 L 169.1,197.1 L 172.4,174.9 Z M 169.1,197.1 L 185.7,188.4 L 172.4,174.9 Z M 169.1,197.1 L 165.8,212.0 L 191.8,227.9 Z M 165.8,212.0 L 169.8,223.8 L 191.8,227.9 Z M 52.6,170.3 L 46.5,151.8 L 34.9,175.9 Z M 46.5,151.8 L 30.1,149.0 L 34.9,175.9 Z M 77.6,184.8 L 69.0,185.7 L 81.9,196.6 Z M 69.0,185.7 L 59.9,205.5 L 81.9,196.6 Z M 47.3,125.8 L 66.5,125.7 L 47.9,112.8 Z M 66.5,125.7 L 71.6,98.5 L 47.9,112.8 Z M 66.5,125.7 L 47.3,125.8 L 46.5,151.8 Z M 47.3,125.8 L 30.1,149.0 L 46.5,151.8 Z M 166.4,138.0 L 144.7,138.6 L 152.4,165.8 Z M 144.7,138.6 L 133.9,154.3 L 152.4,165.8 Z M 139.1,117.4 L 144.7,138.6 L 157.3,110.2 Z M 144.7,138.6 L 166.4,138.0 L 157.3,110.2 Z M 157.3,110.2 L 166.4,138.0 L 172.8,110.3 Z M 166.4,138.0 L 186.3,137.3 L 172.8,110.3 Z M 119.5,149.8 L 128.2,145.3 L 106.5,145.7 Z M 128.2,145.3 L 131.6,136.9 L 106.5,145.7 Z M 105.1,105.6 L 111.2,117.1 L 124.3,105.6 Z M 111.2,117.1 L 121.4,120.7 L 124.3,105.6 Z M 119.5,149.8 L 106.5,145.7 L 119.8,165.0 Z M 106.5,145.7 L 98.1,152.1 L 119.8,165.0 Z M 106.5,145.7 L 104.3,129.4 L 98.1,152.1 Z M 104.3,129.4 L 93.8,125.9 L 98.1,152.1 Z M 104.3,129.4 L 111.2,117.1 L 93.8,125.9 Z M 111.2,117.1 L 105.1,105.6 L 93.8,125.9 Z M 124.3,105.6 L 139.1,117.4 L 139.2,94.6 Z M 139.1,117.4 L 157.3,110.2 L 139.2,94.6 Z M 60.0,179.9 L 52.6,170.3 L 46.8,192.0 Z M 52.6,170.3 L 34.9,175.9 L 46.8,192.0 Z M 69.0,185.7 L 60.0,179.9 L 59.9,205.5 Z M 60.0,179.9 L 46.8,192.0 L 59.9,205.5 Z M 96.1,175.2 L 88.8,175.0 L 91.5,185.8 Z M 88.8,175.0 L 77.6,184.8 L 91.5,185.8 Z M 91.5,185.8 L 77.6,184.8 L 81.9,196.6 Z M 128.2,145.3 L 119.5,149.8 L 133.9,154.3 Z M 119.5,149.8 L 119.8,165.0 L 133.9,154.3 Z M 161.2,240.1 L 141.7,246.1 L 137.1,261.3 Z M 161.2,240.1 L 137.1,261.3 L 169.6,254.7 Z M 148.0,186.5 L 142.8,177.0 L 129.9,188.7 Z M 148.0,186.5 L 129.9,188.7 L 137.8,198.9 Z M 46.8,192.0 L 34.9,175.9 L 20.0,182.9 Z M 46.8,192.0 L 20.0,182.9 L 36.4,202.9 Z M 124.3,105.6 L 121.4,120.7 L 127.9,125.6 Z M 124.3,105.6 L 127.9,125.6 L 139.1,117.4 Z M 131.6,136.9 L 128.2,145.3 L 133.9,154.3 Z M 131.6,136.9 L 133.9,154.3 L 144.7,138.6 Z M 144.7,138.6 L 139.1,117.4 L 127.9,125.6 Z M 144.7,138.6 L 127.9,125.6 L 131.6,136.9 Z M 131.6,136.9 L 127.9,125.6 L 104.3,129.4 Z M 131.6,136.9 L 104.3,129.4 L 106.5,145.7 Z M 87.9,227.5 L 68.5,220.4 L 71.6,241.1 Z M 139.2,94.6 L 109.3,93.7 L 124.3,105.6 Z M 133.9,154.3 L 119.8,165.0 L 152.4,165.8 Z M 71.6,98.5 L 96.5,98.5 L 96.5,71.7 Z M 71.6,98.5 L 96.5,71.7 L 71.6,71.7 Z M 71.6,71.7 L 96.5,71.7 L 96.6,42.3 Z M 71.6,71.7 L 96.6,42.3 L 71.7,42.3 Z M 96.6,42.3 L 76.2,20.0 L 51.3,20.0 Z M 96.6,42.3 L 51.3,20.0 L 71.7,42.3 Z M 129.9,188.7 L 119.8,165.0 L 96.1,175.2 Z M 129.9,188.7 L 96.1,175.2 L 106.4,198.9 Z M 71.6,264.2 L 71.8,292.7 L 96.5,292.6 Z M 71.6,264.2 L 96.5,292.6 L 96.5,264.2 Z M 71.8,292.7 L 72.0,321.1 L 96.5,332.7 Z M 71.8,292.7 L 96.5,332.7 L 96.5,292.6 Z M 61.3,358.7 L 96.5,332.7 L 72.0,321.1 Z M 61.3,358.7 L 72.0,321.1 L 44.4,341.0 Z M 44.4,341.0 L 21.2,365.2 L 41.7,380.0 Z M 44.4,341.0 L 41.7,380.0 L 61.3,358.7 Z" fill="#2a2a4e" stroke="none"/>
  <path d="M 106.4,198.9 L 87.7,212.3 M 109.3,93.7 L 96.5,98.5 M 22.8,144.5 L 20.0,182.9 M 47.9,112.8 L 22.8,144.5 M 71.5,264.2 L 105.5,264.2 M 105.5,264.2 L 137.1,261.3 M 68.5,220.4 L 51.2,232.8 M 51.2,232.8 L 53.5,254.0 M 191.8,227.9 L 191.8,197.9 M 191.8,197.9 L 185.7,188.4 M 152.4,165.8 L 168.8,158.4 M 168.8,158.4 L 186.3,137.3 M 172.4,174.9 L 142.8,177.0 M 36.4,202.9 L 59.9,205.5 M 172.8,110.3 L 139.2,94.6 M 121.4,145.2 L 127.3,143.1 M 127.3,143.1 L 127.0,139.9 M 127.0,139.9 L 121.0,140.4 M 121.0,140.4 L 121.4,145.2 M 119.4,141.4 L 121.5,137.4 M 121.5,137.4 L 119.8,135.7 M 119.8,135.7 L 116.8,138.9 M 116.8,138.9 L 119.4,141.4 M 53.5,254.0 L 71.5,264.2 M 87.7,212.3 L 68.5,220.4 M 169.6,254.7 L 191.8,227.9 M 185.7,188.4 L 172.4,174.9 M 59.9,205.5 L 81.9,196.6 M 71.6,98.5 L 47.9,112.8 M 186.3,137.3 L 172.8,110.3 M 91.5,185.8 L 96.1,175.2 M 81.9,196.6 L 91.5,185.8 M 137.1,261.3 L 169.6,254.7 M 142.8,177.0 L 129.9,188.7 M 20.0,182.9 L 36.4,202.9 M 139.2,94.6 L 109.3,93.7 M 119.8,165.0 L 152.4,165.8 M 96.5,98.5 L 96.5,71.7 M 71.6,71.7 L 71.6,98.5 M 96.5,71.7 L 96.6,42.3 M 71.7,42.3 L 71.6,71.7 M 96.6,42.3 L 76.2,20.0 M 76.2,20.0 L 51.3,20.0 M 51.3,20.0 L 71.7,42.3 M 129.9,188.7 L 119.8,165.0 M 96.1,175.2 L 106.4,198.9 M 71.6,264.2 L 71.8,292.7 M 96.5,292.6 L 96.5,264.2 M 96.5,264.2 L 71.6,264.2 M 71.8,292.7 L 72.0,321.1 M 96.5,332.7 L 96.5,292.6 M 61.3,358.7 L 96.5,332.7 M 72.0,321.1 L 44.4,341.0 M 44.4,341.0 L 21.2,365.2 M 21.2,365.2 L 41.7,380.0 M 41.7,380.0 L 61.3,358.7" fill="none" stroke="white" stroke-width="2" stroke-linecap="round"/>
  <polygon points="84.3126078392404,285.283062520022 92.3126078392404,293.283062520022 84.3126078392404,301.283062520022 76.3126078392404,293.283062520022" fill="#4a9eff" stroke="white" stroke-width="1"/>
<polygon points="83.50034148820572,63.025233957688144 91.50034148820572,71.02523395768814 83.50034148820572,79.02523395768814 75.50034148820572,71.02523395768814" fill="#4a9eff" stroke="white" stroke-width="1"/>
</svg>