<svg xmlns="http://www.w3.org/2000/svg" viewBox="0 0 400 400">
  <rect width="400" height="400" fill="#1a1a2e"/>
  <path d="M 67.1,237.3 L 77.9,251.0 L 132.9,211.0 Z M 67.1,237.3 L 132.9,211.0 L 58.3,210.4 Z M 58.3,210.4 L 132.9,211.0 L 126.6,173.0 Z M 58.3,210.4 L 126.6,173.0 L 87.2,172.7 Z M 87.2,172.7 L 126.6,173.0 L 130.6,133.4 Z M 87.2,172.7 L 130.6,133.4 L 94.6,133.4 Z M 268.3,225.3 L 268.3,189.3 L 231.6,190.5 Z M 268.3,225.3 L 231.6,190.5 L 225.8,218.9 Z M 225.8,218.9 L 231.6,190.5 L 203.1,184.5 Z M 225.8,218.9 L 203.1,184.5 L 188.9,213.4 Z M 126.6,173.0 L 143.0,143.7 L 130.6,133.4 Z M 143.0,143.7 L 149.0,126.5 L 130.6,133.4 Z M 90.8,259.4 L 110.3,261.7 L 130.8,256.4 Z M 90.8,259.4 L 130.8,256.4 L 132.9,211.0 Z M 130.8,256.4 L 158.4,245.1 L 169.8,222.1 Z M 130.8,256.4 L 169.8,222.1 L 132.9,211.0 Z M 143.0,143.7 L 170.8,143.8 L 149.0,126.5 Z M 77.9,251.0 L 90.8,259.4 L 132.9,211.0 Z M 225.8,218.9 L 263.6,235.8 L 268.3,225.3 Z M 20.0,255.4 L 41.6,245.2 L 34.6,206.4 Z M 20.0,255.4 L 34.6,206.4 L 22.6,199.5 Z M 22.6,199.5 L 34.6,206.4 L 59.4,173.0 Z M 22.6,199.5 L 59.4,173.0 L 60.4,154.1 Z M 175.9,172.6 L 166.6,165.6 L 141.8,178.2 Z M 166.6,165.6 L 151.9,160.4 L 141.8,178.2 Z M 242.1,251.7 L 219.0,237.4 L 199.2,233.5 Z M 242.1,251.7 L 199.2,233.5 L 197.9,267.1 Z M 43.7,284.3 L 77.6,288.1 L 58.8,268.6 Z M 192.3,127.7 L 218.5,150.3 L 240.9,150.4 Z M 174.6,193.2 L 166.0,194.0 L 166.6,201.0 Z M 174.6,193.2 L 166.6,201.0 L 175.0,197.9 Z M 164.2,187.2 L 159.9,191.8 L 163.6,195.4 Z M 164.2,187.2 L 163.6,195.4 L 166.7,189.6 Z M 54.7,243.0 L 48.1,248.2 L 52.4,253.7 Z M 54.7,243.0 L 52.4,253.7 L 57.6,246.6 Z M 47.8,249.5 L 46.7,255.6 L 51.7,256.5 Z M 47.8,249.5 L 51.7,256.5 L 51.2,250.1 Z M 31.2,226.7 L 31.7,233.1 L 37.0,232.6 Z M 31.2,226.7 L 37.0,232.6 L 34.7,226.4 Z M 209.8,146.6 L 201.2,147.3 L 201.8,154.4 Z M 209.8,146.6 L 201.8,154.4 L 210.2,151.3 Z M 67.1,237.3 L 58.3,210.4 L 41.6,245.2 Z M 58.3,210.4 L 34.6,206.4 L 41.6,245.2 Z M 59.4,173.0 L 87.2,172.7 L 60.4,154.1 Z M 87.2,172.7 L 94.6,133.4 L 60.4,154.1 Z M 87.2,172.7 L 59.4,173.0 L 58.3,210.4 Z M 59.4,173.0 L 34.6,206.4 L 58.3,210.4 Z M 242.2,177.8 L 224.4,168.2 L 231.6,190.5 Z M 224.4,168.2 L 203.1,184.5 L 231.6,190.5 Z M 176.4,201.0 L 181.3,188.9 L 141.8,178.2 Z M 181.3,188.9 L 175.9,172.6 L 141.8,178.2 Z M 170.8,143.8 L 166.6,165.6 L 192.1,160.8 Z M 166.6,165.6 L 175.9,172.6 L 192.1,160.8 Z M 143.0,143.7 L 151.9,160.4 L 170.8,143.8 Z M 151.9,160.4 L 166.6,165.6 L 170.8,143.8 Z M 145.0,201.7 L 141.8,178.2 L 132.9,211.0 Z M 141.8,178.2 L 126.6,173.0 L 132.9,211.0 Z M 143.0,143.7 L 126.6,173.0 L 151.9,160.4 Z M 126.6,173.0 L 141.8,178.2 L 151.9,160.4 Z M 170.8,143.8 L 192.1,160.8 L 192.3,127.7 Z M 192.1,160.8 L 218.5,150.3 L 192.3,127.7 Z M 77.9,251.0 L 67.1,237.3 L 58.8,268.6 Z M 67.1,237.3 L 41.6,245.2 L 58.8,268.6 Z M 77.9,251.0 L 58.8,268.6 L 90.8,259.4 Z M 58.8,268.6 L 77.6,288.1 L 90.8,259.4 Z M 111.7,286.4 L 138.4,274.1 L 110.3,261.7 Z M 138.4,274.1 L 130.8,256.4 L 110.3,261.7 Z M 199.2,233.5 L 182.5,243.5 L 197.9,267.1 Z M 182.5,243.5 L 169.3,263.9 L 197.9,267.1 Z M 145.0,201.7 L 132.9,211.0 L 163.8,207.6 Z M 132.9,211.0 L 169.8,222.1 L 163.8,207.6 Z M 163.8,207.6 L 169.8,222.1 L 176.4,201.0 Z M 169.8,222.1 L 188.9,213.4 L 176.4,201.0 Z M 176.4,201.0 L 188.9,213.4 L 203.1,184.5 Z M 203.1,184.5 L 224.4,168.2 L 192.1,160.8 Z M 224.4,168.2 L 218.5,150.3 L 192.1,160.8 Z M 175.9,172.6 L 181.3,188.9 L 192.1,160.8 Z M 181.3,188.9 L 203.1,184.5 L 192.1,160.8 Z M 259.9,173.9 L 242.2,177.8 L 268.3,189.3 Z M 242.2,177.8 L 231.6,190.5 L 268.3,189.3 Z M 219.0,237.4 L 225.8,218.9 L 199.2,233.5 Z M 225.8,218.9 L 188.9,213.4 L 199.2,233.5 Z M 263.6,235.8 L 225.8,218.9 L 242.1,251.7 Z M 225.8,218.9 L 219.0,237.4 L 242.1,251.7 Z M 169.3,263.9 L 182.5,243.5 L 158.4,245.1 Z M 182.5,243.5 L 169.8,222.1 L 158.4,245.1 Z M 218.5,150.3 L 224.4,168.2 L 240.9,150.4 Z M 224.4,168.2 L 242.2,177.8 L 240.9,150.4 Z M 240.9,150.4 L 242.2,177.8 L 259.9,173.9 Z M 163.8,207.6 L 176.4,201.0 L 145.0,201.7 Z M 176.4,201.0 L 141.8,178.2 L 145.0,201.7 Z M 77.6,288.1 L 111.7,286.4 L 90.8,259.4 Z M 111.7,286.4 L 110.3,261.7 L 90.8,259.4 Z M 20.0,255.4 L 43.7,284.3 L 58.8,268.6 Z M 20.0,255.4 L 58.8,268.6 L 41.6,245.2 Z M 130.8,256.4 L 138.4,274.1 L 169.3,263.9 Z M 130.8,256.4 L 169.3,263.9 L 158.4,245.1 Z M 182.5,243.5 L 199.2,233.5 L 188.9,213.4 Z M 182.5,243.5 L 188.9,213.4 L 169.8,222.1 Z M 192.3,127.7 L 149.0,126.5 L 170.8,143.8 Z M 203.1,184.5 L 181.3,188.9 L 176.4,201.0 Z M 94.6,133.4 L 130.6,133.4 L 130.6,94.7 Z M 94.6,133.4 L 130.6,94.7 L 94.6,94.7 Z M 94.6,94.7 L 130.6,94.7 L 130.7,52.2 Z M 94.6,94.7 L 130.7,52.2 L 94.7,52.2 Z M 59.3,20.0 L 94.7,52.2 L 130.7,52.2 Z M 59.3,20.0 L 130.7,52.2 L 95.2,20.0 Z M 310.0,189.4 L 268.3,189.3 L 268.3,225.3 Z M 310.0,189.4 L 268.3,225.3 L 310.1,225.1 Z M 351.7,189.4 L 310.0,189.4 L 310.1,225.1 Z M 351.7,189.4 L 310.1,225.1 L 351.1,224.8 Z M 351.1,224.8 L 380.0,264.6 L 380.0,228.9 Z M 351.1,224.8 L 380.0,228.9 L 351.7,189.4 Z" fill="#2a2a4e" stroke="none"/>
  <path d="M 149.0,126.5 L 130.6,133.4 M 263.6,235.8 L 268.3,225.3 M 22.6,199.5 L 20.0,255.4 M 60.4,154.1 L 22.6,199.5 M 197.9,267.1 L 242.1,251.7 M 43.7,284.3 L 77.6,288.1 M 240.9,150.4 L 192.3,127.7 M 174.6,193.2 L 166.0,194.0 M 166.0,194.0 L 166.6,201.0 M 166.6,201.0 L 175.0,197.9 M 175.0,197.9 L 174.6,193.2 M 164.2,187.2 L 159.9,191.8 M 159.9,191.8 L 163.6,195.4 M 163.6,195.4 L 166.7,189.6 M 166.7,189.6 L 164.2,187.2 M 54.7,243.0 L 48.1,248.2 M 48.1,248.2 L 52.4,253.7 M 52.4,253.7 L 57.6,246.6 M 57.6,246.6 L 54.7,243.0 M 47.8,249.5 L 46.7,255.6 M 46.7,255.6 L 51.7,256.5 M 51.7,256.5 L 51.2,250.1 M 51.2,250.1 L 47.8,249.5 M 31.2,226.7 L 31.7,233.1 M 31.7,233.1 L 37.0,232.6 M 37.0,232.6 L 34.7,226.4 M 34.7,226.4 L 31.2,226.7 M 209.8,146.6 L 201.2,147.3 M 201.2,147.3 L 201.8,154.4 M 201.8,154.4 L 210.2,151.3 M 210.2,151.3 L 209.8,146.6 M 94.6,133.4 L 60.4,154.1 M 111.7,286.4 L 138.4,274.1 M 169.3,263.9 L 197.9,267.1 M 268.3,189.3 L 259.9,173.9 M 242.1,251.7 L 263.6,235.8 M 259.9,173.9 L 240.9,150.4 M 77.6,288.1 L 111.7,286.4 M 20.0,255.4 L 43.7,284.3 M 138.4,274.1 L 169.3,263.9 M 192.3,127.7 L 149.0,126.5 M 130.6,133.4 L 130.6,94.7 M 94.6,94.7 L 94.6,133.4 M 130.6,94.7 L 130.7,52.2 M 94.7,52.2 L 94.6,94.7 M 59.3,20.0 L 94.7,52.2 M 130.7,52.2 L 95.2,20.0 M 95.2,20.0 L 59.3,20.0 M 310.0,189.4 L 268.3,189.3 M 268.3,225.3 L 310.1,225.1 M 351.7,189.4 L 310.0,189.4 M 310.1,225.1 L 351.1,224.8 M 351.1,224.8 L 380.0,264.6 M 380.0,264.6 L 380.0,228.9 M 380.0,228.9 L 351.7,189.4" fill="none" stroke="white" stroke-width="2" stroke-linecap="round"/>
  <polygon points="112.80322394351813,105.7767528758089 120.80322394351813,113.7767528758089 112.80322394351813,121.7767528758089 104.80322394351813,113.7767528758089" fill="#4a9eff" stroke="white" stroke-width="1"/>
<polygon points="284.734733765804,200.45076556373664 292.734733765804,208.45076556373664 284.734733765804,216.45076556373664 276.734733765804,208.45076556373664" fill="#4a9eff" stroke="white" stroke-width="1"/>
</svg>