<svg xmlns="http://www.w3.org/2000/svg" viewBox="0 0 400 400">
  <rect width="400" height="400" fill="#1a1a2e"/>
  <path d="M 144.0,66.3 L 144.0,45.6 L 138.3,39.8 Z M 144.0,66.3 L 138.3,39.8 L 138.3,72.1 Z M 138.3,72.1 L 138.3,39.8 L 117.5,39.8 Z M 138.3,72.1 L 117.5,39.8 L 117.5,72.1 Z M 117.5,72.1 L 117.5,39.8 L 111.8,45.6 Z M 117.5,72.1 L 111.8,45.6 L 111.8,66.3 Z M 215.9,138.3 L 215.9,117.5 L 210.2,111.8 Z M 215.9,138.3 L 210.2,111.8 L 210.2,144.0 Z M 210.2,144.0 L 210.2,111.8 L 189.4,111.8 Z M 210.2,144.0 L 189.4,111.8 L 189.4,144.0 Z M 189.4,144.0 L 189.4,111.8 L 183.7,117.5 Z M 189.4,144.0 L 183.7,117.5 L 183.7,138.3 Z M 144.0,210.2 L 144.0,189.4 L 138.3,183.7 Z M 144.0,210.2 L 138.3,183.7 L 138.3,215.9 Z M 138.3,215.9 L 138.3,183.7 L 117.5,183.7 Z M 138.3,215.9 L 117.5,183.7 L 117.5,215.9 Z M 117.5,215.9 L 117.5,183.7 L 111.8,189.4 Z M 117.5,215.9 L 111.8,189.4 L 111.8,210.2 Z M 72.1,138.3 L 72.1,117.5 L 66.3,111.8 Z M 72.1,138.3 L 66.3,111.8 L 66.3,144.0 Z M 66.3,144.0 L 66.3,111.8 L 45.6,111.8 Z M 66.3,144.0 L 45.6,111.8 L 45.6,144.0 Z M 45.6,144.0 L 45.6,111.8 L 39.8,117.5 Z M 45.6,144.0 L 39.8,117.5 L 39.8,138.3 Z M 138.3,39.8 L 148.7,20.0 L 107.1,20.0 Z M 138.3,39.8 L 107.1,20.0 L 117.5,39.8 Z M 107.1,20.0 L 91.9,35.1 L 111.8,45.6 Z M 107.1,20.0 L 111.8,45.6 L 117.5,39.8 Z M 111.8,45.6 L 91.9,35.1 L 91.9,76.8 Z M 111.8,45.6 L 91.9,76.8 L 111.8,66.3 Z M 91.9,76.8 L 107.1,91.9 L 117.5,72.1 Z M 91.9,76.8 L 117.5,72.1 L 111.8,66.3 Z M 117.5,72.1 L 107.1,91.9 L 148.7,91.9 Z M 117.5,72.1 L 148.7,91.9 L 138.3,72.1 Z M 144.0,66.3 L 138.3,72.1 L 148.7,91.9 Z M 144.0,66.3 L 148.7,91.9 L 163.9,76.8 Z M 144.0,66.3 L 163.9,76.8 L 163.9,35.1 Z M 144.0,66.3 L 163.9,35.1 L 144.0,45.6 Z M 163.9,35.1 L 148.7,20.0 L 138.3,39.8 Z M 163.9,35.1 L 138.3,39.8 L 144.0,45.6 Z M 163.9,107.1 L 179.0,91.9 L 163.9,76.8 Z M 163.9,107.1 L 163.9,76.8 L 148.7,91.9 Z M 210.2,111.8 L 220.6,91.9 L 179.0,91.9 Z M 210.2,111.8 L 179.0,91.9 L 189.4,111.8 Z M 179.0,91.9 L 163.9,107.1 L 183.7,117.5 Z M 179.0,91.9 L 183.7,117.5 L 189.4,111.8 Z M 183.7,117.5 L 163.9,107.1 L 163.9,148.7 Z M 183.7,117.5 L 163.9,148.7 L 183.7,138.3 Z M 163.9,148.7 L 179.0,163.9 L 189.4,144.0 Z M 163.9,148.7 L 189.4,144.0 L 183.7,138.3 Z M 189.4,144.0 L 179.0,163.9 L 220.6,163.9 Z M 189.4,144.0 L 220.6,163.9 L 210.2,144.0 Z M 215.9,138.3 L 210.2,144.0 L 220.6,163.9 Z M 215.9,138.3 L 220.6,163.9 L 235.8,148.7 Z M 215.9,138.3 L 235.8,148.7 L 235.8,107.1 Z M 215.9,138.3 L 235.8,107.1 L 215.9,117.5 Z M 235.8,107.1 L 220.6,91.9 L 210.2,111.8 Z M 235.8,107.1 L 210.2,111.8 L 215.9,117.5 Z M 138.3,183.7 L 148.7,163.9 L 107.1,163.9 Z M 138.3,183.7 L 107.1,163.9 L 117.5,183.7 Z M 107.1,163.9 L 91.9,179.0 L 111.8,189.4 Z M 107.1,163.9 L 111.8,189.4 L 117.5,183.7 Z M 111.8,189.4 L 91.9,179.0 L 91.9,220.6 Z M 111.8,189.4 L 91.9,220.6 L 111.8,210.2 Z M 91.9,220.6 L 107.1,235.8 L 117.5,215.9 Z M 91.9,220.6 L 117.5,215.9 L 111.8,210.2 Z M 117.5,215.9 L 107.1,235.8 L 148.7,235.8 Z M 117.5,215.9 L 148.7,235.8 L 138.3,215.9 Z M 144.0,210.2 L 138.3,215.9 L 148.7,235.8 Z M 144.0,210.2 L 148.7,235.8 L 163.9,220.6 Z M 144.0,210.2 L 163.9,220.6 L 163.9,179.0 Z M 144.0,210.2 L 163.9,179.0 L 144.0,189.4 Z M 163.9,179.0 L 148.7,163.9 L 138.3,183.7 Z M 163.9,179.0 L 138.3,183.7 L 144.0,189.4 Z M 91.9,148.7 L 76.8,163.9 L 91.9,179.0 Z M 91.9,148.7 L 91.9,179.0 L 107.1,163.9 Z M 66.3,111.8 L 76.8,91.9 L 35.1,91.9 Z M 66.3,111.8 L 35.1,91.9 L 45.6,111.8 Z M 35.1,91.9 L 20.0,107.1 L 39.8,117.5 Z M 35.1,91.9 L 39.8,117.5 L 45.6,111.8 Z M 39.8,117.5 L 20.0,107.1 L 20.0,148.7 Z M 39.8,117.5 L 20.0,148.7 L 39.8,138.3 Z M 20.0,148.7 L 35.1,163.9 L 45.6,144.0 Z M 20.0,148.7 L 45.6,144.0 L 39.8,138.3 Z M 45.6,144.0 L 35.1,163.9 L 76.8,163.9 Z M 45.6,144.0 L 76.8,163.9 L 66.3,144.0 Z M 72.1,138.3 L 66.3,144.0 L 76.8,163.9 Z M 72.1,138.3 L 76.8,163.9 L 91.9,148.7 Z M 72.1,138.3 L 91.9,148.7 L 91.9,107.1 Z M 72.1,138.3 L 91.9,107.1 L 72.1,117.5 Z M 91.9,107.1 L 76.8,91.9 L 66.3,111.8 Z M 91.9,107.1 L 66.3,111.8 L 72.1,117.5 Z M 107.1,91.9 L 91.9,76.8 L 76.8,91.9 Z M 107.1,91.9 L 76.8,91.9 L 91.9,107.1 Z M 166.7,328.2 L 144.1,299.5 L 154.9,353.6 Z M 144.1,299.5 L 112.0,299.1 L 154.9,353.6 Z M 144.1,299.5 L 144.1,235.4 L 112.0,235.4 Z M 144.1,299.5 L 112.0,235.4 L 112.0,299.1 Z M 154.9,353.6 L 215.4,380.0 L 229.8,353.7 Z M 154.9,353.6 L 229.8,353.7 L 166.7,328.2 Z" fill="#2a2a4e" stroke="none"/>
  <path d="M 148.7,20.0 L 107.1,20.0 M 107.1,20.0 L 91.9,35.1 M 91.9,35.1 L 91.9,76.8 M 107.1,91.9 L 148.7,91.9 M 163.9,76.8 L 163.9,35.1 M 163.9,35.1 L 148.7,20.0 M 179.0,91.9 L 163.9,76.8 M 148.7,91.9 L 163.9,107.1 M 220.6,91.9 L 179.0,91.9 M 163.9,107.1 L 163.9,148.7 M 163.9,148.7 L 179.0,163.9 M 179.0,163.9 L 220.6,163.9 M 220.6,163.9 L 235.8,148.7 M 235.8,148.7 L 235.8,107.1 M 235.8,107.1 L 220.6,91.9 M 148.7,163.9 L 107.1,163.9 M 91.9,179.0 L 91.9,220.6 M 91.9,220.6 L 107.1,235.8 M 107.1,235.8 L 148.7,235.8 M 148.7,235.8 L 163.9,220.6 M 163.9,220.6 L 163.9,179.0 M 163.9,179.0 L 148.7,163.9 M 76.8,163.9 L 91.9,179.0 M 107.1,163.9 L 91.9,148.7 M 76.8,91.9 L 35.1,91.9 M 35.1,91.9 L 20.0,107.1 M 20.0,107.1 L 20.0,148.7 M 20.0,148.7 L 35.1,163.9 M 35.1,163.9 L 76.8,163.9 M 91.9,148.7 L 91.9,107.1 M 91.9,76.8 L 76.8,91.9 M 91.9,107.1 L 107.1,91.9 M 166.7,328.2 L 144.1,299.5 M 112.0,299.1 L 154.9,353.6 M 144.1,299.5 L 144.1,235.4 M 144.1,235.4 L 112.0,235.4 M 112.0,235.4 L 112.0,299.1 M 154.9,353.6 L 215.4,380.0 M 215.4,380.0 L 229.8,353.7 M 229.8,353.7 L 166.7,328.2" fill="none" stroke="white" stroke-width="2" stroke-linecap="round"/>
  <polygon points="128.04675565632712,242.33705832787192 136.04675565632712,250.33705832787192 128.04675565632712,258.3370583278719 120.04675565632712,250.33705832787192" fill="#4a9eff" stroke="white" stroke-width="1"/>
</svg>