<svg xmlns="http://www.w3.org/2000/svg" viewBox="0 0 400 400">
  <rect width="400" height="400" fill="#1a1a2e"/>
  <path d="M 66.3,256.0 L 45.6,256.0 L 39.8,261.7 Z M 66.3,256.0 L 39.8,261.7 L 72.1,261.7 Z M 72.1,261.7 L 39.8,261.7 L 39.8,282.5 Z M 72.1,261.7 L 39.8,282.5 L 72.1,282.5 Z M 72.1,282.5 L 39.8,282.5 L 45.6,288.2 Z M 72.1,282.5 L 45.6,288.2 L 66.3,288.2 Z M 138.3,184.1 L 117.5,184.1 L 111.8,189.8 Z M 138.3,184.1 L 111.8,189.8 L 144.0,189.8 Z M 144.0,189.8 L 111.8,189.8 L 111.8,210.6 Z M 144.0,189.8 L 111.8,210.6 L 144.0,210.6 Z M 144.0,210.6 L 111.8,210.6 L 117.5,216.3 Z M 144.0,210.6 L 117.5,216.3 L 138.3,216.3 Z M 210.2,256.0 L 189.4,256.0 L 183.7,261.7 Z M 210.2,256.0 L 183.7,261.7 L 215.9,261.7 Z M 215.9,261.7 L 183.7,261.7 L 183.7,282.5 Z M 215.9,261.7 L 183.7,282.5 L 215.9,282.5 Z M 215.9,282.5 L 183.7,282.5 L 189.4,288.2 Z M 215.9,282.5 L 189.4,288.2 L 210.2,288.2 Z M 138.3,327.9 L 117.5,327.9 L 111.8,333.7 Z M 138.3,327.9 L 111.8,333.7 L 144.0,333.7 Z M 144.0,333.7 L 111.8,333.7 L 111.8,354.4 Z M 144.0,333.7 L 111.8,354.4 L 144.0,354.4 Z M 144.0,354.4 L 111.8,354.4 L 117.5,360.2 Z M 144.0,354.4 L 117.5,360.2 L 138.3,360.2 Z M 20.0,292.9 L 39.8,282.5 L 39.8,261.7 Z M 20.0,292.9 L 39.8,261.7 L 20.0,251.3 Z M 45.6,288.2 L 39.8,282.5 L 20.0,292.9 Z M 45.6,288.2 L 20.0,292.9 L 35.1,308.1 Z M 76.8,308.1 L 66.3,288.2 L 45.6,288.2 Z M 76.8,308.1 L 45.6,288.2 L 35.1,308.1 Z M 72.1,282.5 L 66.3,288.2 L 76.8,308.1 Z M 72.1,282.5 L 76.8,308.1 L 91.9,292.9 Z M 91.9,251.3 L 72.1,261.7 L 72.1,282.5 Z M 91.9,251.3 L 72.1,282.5 L 91.9,292.9 Z M 91.9,251.3 L 76.8,236.1 L 66.3,256.0 Z M 91.9,251.3 L 66.3,256.0 L 72.1,261.7 Z M 35.1,236.1 L 45.6,256.0 L 66.3,256.0 Z M 35.1,236.1 L 66.3,256.0 L 76.8,236.1 Z M 39.8,261.7 L 45.6,256.0 L 35.1,236.1 Z M 39.8,261.7 L 35.1,236.1 L 20.0,251.3 Z M 76.8,236.1 L 91.9,251.3 L 107.1,236.1 Z M 76.8,236.1 L 107.1,236.1 L 91.9,221.0 Z M 91.9,221.0 L 111.8,210.6 L 111.8,189.8 Z M 91.9,221.0 L 111.8,189.8 L 91.9,179.4 Z M 117.5,216.3 L 111.8,210.6 L 91.9,221.0 Z M 117.5,216.3 L 91.9,221.0 L 107.1,236.1 Z M 148.7,236.1 L 138.3,216.3 L 117.5,216.3 Z M 148.7,236.1 L 117.5,216.3 L 107.1,236.1 Z M 144.0,210.6 L 138.3,216.3 L 148.7,236.1 Z M 144.0,210.6 L 148.7,236.1 L 163.9,221.0 Z M 163.9,179.4 L 144.0,189.8 L 144.0,210.6 Z M 163.9,179.4 L 144.0,210.6 L 163.9,221.0 Z M 163.9,179.4 L 148.7,164.2 L 138.3,184.1 Z M 163.9,179.4 L 138.3,184.1 L 144.0,189.8 Z M 107.1,164.2 L 117.5,184.1 L 138.3,184.1 Z M 107.1,164.2 L 138.3,184.1 L 148.7,164.2 Z M 111.8,189.8 L 117.5,184.1 L 107.1,164.2 Z M 111.8,189.8 L 107.1,164.2 L 91.9,179.4 Z M 163.9,292.9 L 183.7,282.5 L 183.7,261.7 Z M 163.9,292.9 L 183.7,261.7 L 163.9,251.3 Z M 189.4,288.2 L 183.7,282.5 L 163.9,292.9 Z M 189.4,288.2 L 163.9,292.9 L 179.0,308.1 Z M 220.6,308.1 L 210.2,288.2 L 189.4,288.2 Z M 220.6,308.1 L 189.4,288.2 L 179.0,308.1 Z M 215.9,282.5 L 210.2,288.2 L 220.6,308.1 Z M 215.9,282.5 L 220.6,308.1 L 235.8,292.9 Z M 235.8,251.3 L 215.9,261.7 L 215.9,282.5 Z M 235.8,251.3 L 215.9,282.5 L 235.8,292.9 Z M 235.8,251.3 L 220.6,236.1 L 210.2,256.0 Z M 235.8,251.3 L 210.2,256.0 L 215.9,261.7 Z M 179.0,236.1 L 189.4,256.0 L 210.2,256.0 Z M 179.0,236.1 L 210.2,256.0 L 220.6,236.1 Z M 183.7,261.7 L 189.4,256.0 L 179.0,236.1 Z M 183.7,261.7 L 179.0,236.1 L 163.9,251.3 Z M 179.0,308.1 L 163.9,292.9 L 148.7,308.1 Z M 179.0,308.1 L 148.7,308.1 L 163.9,323.2 Z M 91.9,364.9 L 111.8,354.4 L 111.8,333.7 Z M 91.9,364.9 L 111.8,333.7 L 91.9,323.2 Z M 117.5,360.2 L 111.8,354.4 L 91.9,364.9 Z M 117.5,360.2 L 91.9,364.9 L 107.1,380.0 Z M 148.7,380.0 L 138.3,360.2 L 117.5,360.2 Z M 148.7,380.0 L 117.5,360.2 L 107.1,380.0 Z M 144.0,354.4 L 138.3,360.2 L 148.7,380.0 Z M 144.0,354.4 L 148.7,380.0 L 163.9,364.9 Z M 163.9,323.2 L 144.0,333.7 L 144.0,354.4 Z M 163.9,323.2 L 144.0,354.4 L 163.9,364.9 Z M 163.9,323.2 L 148.7,308.1 L 138.3,327.9 Z M 163.9,323.2 L 138.3,327.9 L 144.0,333.7 Z M 107.1,308.1 L 117.5,327.9 L 138.3,327.9 Z M 107.1,308.1 L 138.3,327.9 L 148.7,308.1 Z M 111.8,333.7 L 117.5,327.9 L 107.1,308.1 Z M 111.8,333.7 L 107.1,308.1 L 91.9,323.2 Z M 91.9,323.2 L 107.1,308.1 L 91.9,292.9 Z M 91.9,323.2 L 91.9,292.9 L 76.8,308.1 Z M 40.4,20.0 L 26.0,46.3 L 89.1,71.8 Z M 40.4,20.0 L 89.1,71.8 L 100.9,46.4 Z M 100.9,46.4 L 89.1,71.8 L 111.7,100.5 Z M 100.9,46.4 L 111.7,100.5 L 143.8,100.9 Z M 380.0,184.6 L 353.7,170.2 L 328.2,233.3 Z M 380.0,184.6 L 328.2,233.3 L 353.6,245.1 Z M 353.6,245.1 L 328.2,233.3 L 299.5,255.9 Z M 353.6,245.1 L 299.5,255.9 L 299.1,288.0 Z M 143.8,164.6 L 143.8,100.9 L 111.7,100.5 Z M 143.8,164.6 L 111.7,100.5 L 111.7,164.6 Z M 235.4,288.0 L 299.1,288.0 L 299.5,255.9 Z M 235.4,288.0 L 299.5,255.9 L 235.4,255.9 Z" fill="#2a2a4e" stroke="none"/>
  <path d="M 20.0,251.3 L 20.0,292.9 M 20.0,292.9 L 35.1,308.1 M 35.1,308.1 L 76.8,308.1 M 91.9,292.9 L 91.9,251.3 M 76.8,236.1 L 35.1,236.1 M 35.1,236.1 L 20.0,251.3 M 91.9,251.3 L 107.1,236.1 M 91.9,221.0 L 76.8,236.1 M 91.9,179.4 L 91.9,221.0 M 107.1,236.1 L 148.7,236.1 M 148.7,236.1 L 163.9,221.0 M 163.9,221.0 L 163.9,179.4 M 163.9,179.4 L 148.7,164.2 M 148.7,164.2 L 107.1,164.2 M 107.1,164.2 L 91.9,179.4 M 163.9,251.3 L 163.9,292.9 M 179.0,308.1 L 220.6,308.1 M 220.6,308.1 L 235.8,292.9 M 235.8,292.9 L 235.8,251.3 M 235.8,251.3 L 220.6,236.1 M 220.6,236.1 L 179.0,236.1 M 179.0,236.1 L 163.9,251.3 M 163.9,292.9 L 148.7,308.1 M 163.9,323.2 L 179.0,308.1 M 91.9,323.2 L 91.9,364.9 M 91.9,364.9 L 107.1,380.0 M 107.1,380.0 L 148.7,380.0 M 148.7,380.0 L 163.9,364.9 M 163.9,364.9 L 163.9,323.2 M 148.7,308.1 L 107.1,308.1 M 107.1,308.1 L 91.9,292.9 M 76.8,308.1 L 91.9,323.2 M 40.4,20.0 L 26.0,46.3 M 26.0,46.3 L 89.1,71.8 M 100.9,46.4 L 40.4,20.0 M 89.1,71.8 L 111.7,100.5 M 143.8,100.9 L 100.9,46.4 M 380.0,184.6 L 353.7,170.2 M 353.7,170.2 L 328.2,233.3 M 353.6,245.1 L 380.0,184.6 M 328.2,233.3 L 299.5,255.9 M 299.1,288.0 L 353.6,245.1 M 143.8,164.6 L 143.8,100.9 M 111.7,100.5 L 111.7,164.6 M 111.7,164.6 L 143.8,164.6 M 235.4,288.0 L 299.1,288.0 M 299.5,255.9 L 235.4,255.9 M 235.4,255.9 L 235.4,288.0" fill="none" stroke="white" stroke-width="2" stroke-linecap="round"/>
  <polygon points="249.31140469372974,263.6616419200067 257.31140469372974,271.6616419200067 249.31140469372974,279.6616419200067 241.31140469372974,271.6616419200067" fill="#4a9eff" stroke="white" stroke-width="1"/>
<polygon points="127.28607323877901,137.74307961326048 135.286073238779,145.74307961326048 127.28607323877901,153.74307961326048 119.28607323877901,145.74307961326048" fill="#4a9eff" stroke="white" stroke-width="1"/>
</svg>