<svg xmlns="http://www.w3.org/2000/svg" viewBox="0 0 400 400">
  <rect width="400" height="400" fill="#1a1a2e"/>
  <path d="M 160.2,53.0 L 160.2,38.2 L 156.1,34.2 Z M 160.2,53.0 L 156.1,34.2 L 156.1,57.1 Z M 156.1,57.1 L 156.1,34.2 L 141.3,34.2 Z M 156.1,57.1 L 141.3,34.2 L 141.3,57.1 Z M 141.3,57.1 L 141.3,34.2 L 137.2,38.2 Z M 141.3,57.1 L 137.2,38.2 L 137.2,53.0 Z M 160.2,104.3 L 160.2,89.5 L 156.1,85.4 Z M 160.2,104.3 L 156.1,85.4 L 156.1,108.4 Z M 156.1,108.4 L 156.1,85.4 L 141.3,85.4 Z M 156.1,108.4 L 141.3,85.4 L 141.3,108.4 Z M 141.3,108.4 L 141.3,85.4 L 137.2,89.5 Z M 141.3,108.4 L 137.2,89.5 L 137.2,104.3 Z M 188.5,89.5 L 188.5,104.3 L 192.6,108.4 Z M 188.5,89.5 L 192.6,108.4 L 192.6,85.4 Z M 192.6,85.4 L 192.6,108.4 L 207.4,108.4 Z M 192.6,85.4 L 207.4,108.4 L 207.4,85.4 Z M 207.4,85.4 L 207.4,108.4 L 211.5,104.3 Z M 207.4,85.4 L 211.5,104.3 L 211.5,89.5 Z M 207.4,136.7 L 192.6,136.7 L 188.5,140.8 Z M 207.4,136.7 L 188.5,140.8 L 211.5,140.8 Z M 211.5,140.8 L 188.5,140.8 L 188.5,155.6 Z M 211.5,140.8 L 188.5,155.6 L 211.5,155.6 Z M 211.5,155.6 L 188.5,155.6 L 192.6,159.7 Z M 211.5,155.6 L 192.6,159.7 L 207.4,159.7 Z M 239.8,89.5 L 239.8,104.3 L 243.9,108.4 Z M 239.8,89.5 L 243.9,108.4 L 243.9,85.4 Z M 243.9,85.4 L 243.9,108.4 L 258.7,108.4 Z M 243.9,85.4 L 258.7,108.4 L 258.7,85.4 Z M 258.7,85.4 L 258.7,108.4 L 262.8,104.3 Z M 258.7,85.4 L 262.8,104.3 L 262.8,89.5 Z M 156.1,34.2 L 163.6,20.0 L 133.9,20.0 Z M 156.1,34.2 L 133.9,20.0 L 141.3,34.2 Z M 133.9,20.0 L 124.4,30.8 L 137.2,38.2 Z M 133.9,20.0 L 137.2,38.2 L 141.3,34.2 Z M 137.2,38.2 L 124.4,30.8 L 124.4,60.5 Z M 137.2,38.2 L 124.4,60.5 L 137.2,53.0 Z M 124.4,60.5 L 133.9,71.3 L 141.3,57.1 Z M 124.4,60.5 L 141.3,57.1 L 137.2,53.0 Z M 141.3,57.1 L 133.9,71.3 L 163.6,71.3 Z M 141.3,57.1 L 163.6,71.3 L 156.1,57.1 Z M 160.2,53.0 L 156.1,57.1 L 163.6,71.3 Z M 160.2,53.0 L 163.6,71.3 L 174.4,60.5 Z M 160.2,53.0 L 174.4,60.5 L 174.4,30.8 Z M 160.2,53.0 L 174.4,30.8 L 160.2,38.2 Z M 174.4,30.8 L 163.6,20.0 L 156.1,34.2 Z M 174.4,30.8 L 156.1,34.2 L 160.2,38.2 Z M 137.2,89.5 L 123.1,82.1 L 123.1,111.8 Z M 137.2,89.5 L 123.1,111.8 L 137.2,104.3 Z M 141.3,108.4 L 137.2,104.3 L 123.1,111.8 Z M 141.3,108.4 L 123.1,111.8 L 133.9,122.6 Z M 141.3,108.4 L 133.9,122.6 L 163.6,122.6 Z M 141.3,108.4 L 163.6,122.6 L 156.1,108.4 Z M 160.2,104.3 L 156.1,108.4 L 163.6,122.6 Z M 160.2,104.3 L 163.6,122.6 L 174.4,111.8 Z M 160.2,104.3 L 174.4,111.8 L 174.4,82.1 Z M 160.2,104.3 L 174.4,82.1 L 160.2,89.5 Z M 174.4,82.1 L 163.6,71.3 L 156.1,85.4 Z M 174.4,82.1 L 156.1,85.4 L 160.2,89.5 Z M 156.1,85.4 L 163.6,71.3 L 133.9,71.3 Z M 156.1,85.4 L 133.9,71.3 L 141.3,85.4 Z M 137.2,89.5 L 141.3,85.4 L 133.9,71.3 Z M 137.2,89.5 L 133.9,71.3 L 123.1,82.1 Z M 174.4,60.5 L 163.6,71.3 L 174.4,82.1 Z M 174.4,60.5 L 174.4,82.1 L 185.2,71.3 Z M 192.6,108.4 L 185.2,122.6 L 214.9,122.6 Z M 192.6,108.4 L 214.9,122.6 L 207.4,108.4 Z M 214.9,122.6 L 225.7,111.8 L 211.5,104.3 Z M 214.9,122.6 L 211.5,104.3 L 207.4,108.4 Z M 211.5,104.3 L 225.7,111.8 L 225.7,82.1 Z M 211.5,104.3 L 225.7,82.1 L 211.5,89.5 Z M 225.7,82.1 L 214.9,71.3 L 207.4,85.4 Z M 225.7,82.1 L 207.4,85.4 L 211.5,89.5 Z M 207.4,85.4 L 214.9,71.3 L 185.2,71.3 Z M 207.4,85.4 L 185.2,71.3 L 192.6,85.4 Z M 188.5,89.5 L 192.6,85.4 L 185.2,71.3 Z M 188.5,89.5 L 185.2,71.3 L 174.4,82.1 Z M 188.5,89.5 L 174.4,82.1 L 174.4,111.8 Z M 188.5,89.5 L 174.4,111.8 L 188.5,104.3 Z M 174.4,111.8 L 185.2,122.6 L 192.6,108.4 Z M 174.4,111.8 L 192.6,108.4 L 188.5,104.3 Z M 174.4,111.8 L 163.6,122.6 L 174.4,133.4 Z M 174.4,111.8 L 174.4,133.4 L 185.2,122.6 Z M 225.7,163.1 L 225.7,133.4 L 211.5,140.8 Z M 225.7,163.1 L 211.5,140.8 L 211.5,155.6 Z M 207.4,159.7 L 214.9,173.9 L 225.7,163.1 Z M 207.4,159.7 L 225.7,163.1 L 211.5,155.6 Z M 185.2,173.9 L 214.9,173.9 L 207.4,159.7 Z M 185.2,173.9 L 207.4,159.7 L 192.6,159.7 Z M 188.5,155.6 L 174.4,163.1 L 185.2,173.9 Z M 188.5,155.6 L 185.2,173.9 L 192.6,159.7 Z M 174.4,133.4 L 174.4,163.1 L 188.5,155.6 Z M 174.4,133.4 L 188.5,155.6 L 188.5,140.8 Z M 174.4,133.4 L 188.5,140.8 L 192.6,136.7 Z M 174.4,133.4 L 192.6,136.7 L 185.2,122.6 Z M 214.9,122.6 L 185.2,122.6 L 192.6,136.7 Z M 214.9,122.6 L 192.6,136.7 L 207.4,136.7 Z M 211.5,140.8 L 225.7,133.4 L 214.9,122.6 Z M 211.5,140.8 L 214.9,122.6 L 207.4,136.7 Z M 266.2,71.3 L 236.5,71.3 L 243.9,85.4 Z M 266.2,71.3 L 243.9,85.4 L 258.7,85.4 Z M 262.8,89.5 L 276.9,82.1 L 266.2,71.3 Z M 262.8,89.5 L 266.2,71.3 L 258.7,85.4 Z M 276.9,111.8 L 276.9,82.1 L 262.8,89.5 Z M 276.9,111.8 L 262.8,89.5 L 262.8,104.3 Z M 258.7,108.4 L 266.2,122.6 L 276.9,111.8 Z M 258.7,108.4 L 276.9,111.8 L 262.8,104.3 Z M 236.5,122.6 L 266.2,122.6 L 258.7,108.4 Z M 236.5,122.6 L 258.7,108.4 L 243.9,108.4 Z M 236.5,122.6 L 243.9,108.4 L 239.8,104.3 Z M 236.5,122.6 L 239.8,104.3 L 225.7,111.8 Z M 225.7,82.1 L 225.7,111.8 L 239.8,104.3 Z M 225.7,82.1 L 239.8,104.3 L 239.8,89.5 Z M 243.9,85.4 L 236.5,71.3 L 225.7,82.1 Z M 243.9,85.4 L 225.7,82.1 L 239.8,89.5 Z M 225.7,111.8 L 214.9,122.6 L 225.7,133.4 Z M 225.7,111.8 L 225.7,133.4 L 236.5,122.6 Z M 380.0,34.2 L 361.3,23.9 L 343.1,68.9 Z M 380.0,34.2 L 343.1,68.9 L 361.2,77.3 Z M 361.2,77.3 L 343.1,68.9 L 322.6,85.0 Z M 361.2,77.3 L 322.6,85.0 L 322.3,107.9 Z M 20.0,107.7 L 38.8,118.0 L 56.9,73.0 Z M 20.0,107.7 L 56.9,73.0 L 38.8,64.6 Z M 38.8,64.6 L 56.9,73.0 L 77.4,56.9 Z M 38.8,64.6 L 77.4,56.9 L 77.7,34.0 Z M 262.3,276.7 L 272.6,257.9 L 227.6,239.8 Z M 262.3,276.7 L 227.6,239.8 L 219.2,257.8 Z M 219.2,257.8 L 227.6,239.8 L 211.5,219.3 Z M 219.2,257.8 L 211.5,219.3 L 188.6,219.0 Z M 322.6,85.0 L 276.9,85.0 L 276.9,107.9 Z M 322.6,85.0 L 276.9,107.9 L 322.3,107.9 Z M 77.4,56.9 L 124.4,56.9 L 124.4,34.0 Z M 77.4,56.9 L 124.4,34.0 L 77.7,34.0 Z M 211.5,219.3 L 211.5,173.9 L 188.6,173.9 Z M 211.5,219.3 L 188.6,173.9 L 188.6,219.0 Z" fill="#2a2a4e" stroke="none"/>
  <path d="M 163.6,20.0 L 133.9,20.0 M 133.9,20.0 L 124.4,30.8 M 124.4,30.8 L 124.4,60.5 M 124.4,60.5 L 133.9,71.3 M 174.4,60.5 L 174.4,30.8 M 174.4,30.8 L 163.6,20.0 M 123.1,82.1 L 123.1,111.8 M 123.1,111.8 L 133.9,122.6 M 133.9,122.6 L 163.6,122.6 M 133.9,71.3 L 123.1,82.1 M 185.2,71.3 L 174.4,60.5 M 225.7,82.1 L 214.9,71.3 M 214.9,71.3 L 185.2,71.3 M 163.6,122.6 L 174.4,133.4 M 225.7,163.1 L 225.7,133.4 M 214.9,173.9 L 225.7,163.1 M 185.2,173.9 L 214.9,173.9 M 174.4,163.1 L 185.2,173.9 M 174.4,133.4 L 174.4,163.1 M 266.2,71.3 L 236.5,71.3 M 276.9,82.1 L 266.2,71.3 M 276.9,111.8 L 276.9,82.1 M 266.2,122.6 L 276.9,111.8 M 236.5,122.6 L 266.2,122.6 M 236.5,71.3 L 225.7,82.1 M 225.7,133.4 L 236.5,122.6 M 380.0,34.2 L 361.3,23.9 M 361.3,23.9 L 343.1,68.9 M 361.2,77.3 L 380.0,34.2 M 343.1,68.9 L 322.6,85.0 M 322.3,107.9 L 361.2,77.3 M 20.0,107.7 L 38.8,118.0 M 38.8,118.0 L 56.9,73.0 M 38.8,64.6 L 20.0,107.7 M 56.9,73.0 L 77.4,56.9 M 77.7,34.0 L 38.8,64.6 M 262.3,276.7 L 272.6,257.9 M 272.6,257.9 L 227.6,239.8 M 219.2,257.8 L 262.3,276.7 M 227.6,239.8 L 211.5,219.3 M 188.6,219.0 L 219.2,257.8 M 322.6,85.0 L 276.9,85.0 M 276.9,85.0 L 276.9,107.9 M 276.9,107.9 L 322.3,107.9 M 77.4,56.9 L 124.4,56.9 M 124.4,56.9 L 124.4,34.0 M 124.4,34.0 L 77.7,34.0 M 211.5,219.3 L 211.5,173.9 M 211.5,173.9 L 188.6,173.9 M 188.6,173.9 L 188.6,219.0" fill="none" stroke="white" stroke-width="2" stroke-linecap="round"/>
  <polygon points="110.31132904282141,36.918937929862196 118.31132904282141,44.918937929862196 110.31132904282141,52.918937929862196 102.31132904282141,44.918937929862196" fill="#4a9eff" stroke="white" stroke-width="1"/>
<polygon points="200.09209741899116,177.87795350260765 208.09209741899116,185.87795350260765 200.09209741899116,193.87795350260765 192.09209741899116,185.87795350260765" fill="#4a9eff" stroke="white" stroke-width="1"/>
<polygon points="292.8806039410982,88.82524297666238 300.8806039410982,96.82524297666238 292.8806039410982,104.82524297666238 284.8806039410982,96.82524297666238" fill="#4a9eff" stroke="white" stroke-width="1"/>
</svg>