<svg xmlns="http://www.w3.org/2000/svg" viewBox="0 0 400 400">
  <rect width="400" height="400" fill="#1a1a2e"/>
  <path d="M 53.0,239.8 L 38.2,239.8 L 34.2,243.9 Z M 53.0,239.8 L 34.2,243.9 L 57.1,243.9 Z M 57.1,243.9 L 34.2,243.9 L 34.2,258.7 Z M 57.1,243.9 L 34.2,258.7 L 57.1,258.7 Z M 57.1,258.7 L 34.2,258.7 L 38.2,262.8 Z M 57.1,258.7 L 38.2,262.8 L 53.0,262.8 Z M 104.3,239.8 L 89.5,239.8 L 85.4,243.9 Z M 104.3,239.8 L 85.4,243.9 L 108.4,243.9 Z M 108.4,243.9 L 85.4,243.9 L 85.4,258.7 Z M 108.4,243.9 L 85.4,258.7 L 108.4,258.7 Z M 108.4,258.7 L 85.4,258.7 L 89.5,262.8 Z M 108.4,258.7 L 89.5,262.8 L 104.3,262.8 Z M 89.5,211.5 L 104.3,211.5 L 108.4,207.4 Z M 89.5,211.5 L 108.4,207.4 L 85.4,207.4 Z M 85.4,207.4 L 108.4,207.4 L 108.4,192.6 Z M 85.4,207.4 L 108.4,192.6 L 85.4,192.6 Z M 85.4,192.6 L 108.4,192.6 L 104.3,188.5 Z M 85.4,192.6 L 104.3,188.5 L 89.5,188.5 Z M 136.7,192.6 L 136.7,207.4 L 140.8,211.5 Z M 136.7,192.6 L 140.8,211.5 L 140.8,188.5 Z M 140.8,188.5 L 140.8,211.5 L 155.6,211.5 Z M 140.8,188.5 L 155.6,211.5 L 155.6,188.5 Z M 155.6,188.5 L 155.6,211.5 L 159.7,207.4 Z M 155.6,188.5 L 159.7,207.4 L 159.7,192.6 Z M 89.5,160.2 L 104.3,160.2 L 108.4,156.1 Z M 89.5,160.2 L 108.4,156.1 L 85.4,156.1 Z M 85.4,156.1 L 108.4,156.1 L 108.4,141.3 Z M 85.4,156.1 L 108.4,141.3 L 85.4,141.3 Z M 85.4,141.3 L 108.4,141.3 L 104.3,137.2 Z M 85.4,141.3 L 104.3,137.2 L 89.5,137.2 Z M 20.0,266.1 L 34.2,258.7 L 34.2,243.9 Z M 20.0,266.1 L 34.2,243.9 L 20.0,236.4 Z M 38.2,262.8 L 34.2,258.7 L 20.0,266.1 Z M 38.2,262.8 L 20.0,266.1 L 30.8,275.6 Z M 60.5,275.6 L 53.0,262.8 L 38.2,262.8 Z M 60.5,275.6 L 38.2,262.8 L 30.8,275.6 Z M 57.1,258.7 L 53.0,262.8 L 60.5,275.6 Z M 57.1,258.7 L 60.5,275.6 L 71.3,266.1 Z M 71.3,236.4 L 57.1,243.9 L 57.1,258.7 Z M 71.3,236.4 L 57.1,258.7 L 71.3,266.1 Z M 71.3,236.4 L 60.5,225.6 L 53.0,239.8 Z M 71.3,236.4 L 53.0,239.8 L 57.1,243.9 Z M 30.8,225.6 L 38.2,239.8 L 53.0,239.8 Z M 30.8,225.6 L 53.0,239.8 L 60.5,225.6 Z M 34.2,243.9 L 38.2,239.8 L 30.8,225.6 Z M 34.2,243.9 L 30.8,225.6 L 20.0,236.4 Z M 111.8,276.9 L 104.3,262.8 L 89.5,262.8 Z M 111.8,276.9 L 89.5,262.8 L 82.1,276.9 Z M 111.8,276.9 L 122.6,266.1 L 108.4,258.7 Z M 111.8,276.9 L 108.4,258.7 L 104.3,262.8 Z M 122.6,236.4 L 108.4,243.9 L 108.4,258.7 Z M 122.6,236.4 L 108.4,258.7 L 122.6,266.1 Z M 122.6,236.4 L 111.8,225.6 L 104.3,239.8 Z M 122.6,236.4 L 104.3,239.8 L 108.4,243.9 Z M 82.1,225.6 L 89.5,239.8 L 104.3,239.8 Z M 82.1,225.6 L 104.3,239.8 L 111.8,225.6 Z M 85.4,243.9 L 89.5,239.8 L 82.1,225.6 Z M 85.4,243.9 L 82.1,225.6 L 71.3,236.4 Z M 71.3,266.1 L 85.4,258.7 L 85.4,243.9 Z M 71.3,266.1 L 85.4,243.9 L 71.3,236.4 Z M 71.3,266.1 L 82.1,276.9 L 89.5,262.8 Z M 71.3,266.1 L 89.5,262.8 L 85.4,258.7 Z M 82.1,225.6 L 71.3,214.8 L 60.5,225.6 Z M 82.1,225.6 L 60.5,225.6 L 71.3,236.4 Z M 122.6,185.1 L 108.4,192.6 L 108.4,207.4 Z M 122.6,185.1 L 108.4,207.4 L 122.6,214.8 Z M 104.3,188.5 L 108.4,192.6 L 122.6,185.1 Z M 104.3,188.5 L 122.6,185.1 L 111.8,174.3 Z M 82.1,174.3 L 89.5,188.5 L 104.3,188.5 Z M 82.1,174.3 L 104.3,188.5 L 111.8,174.3 Z M 85.4,192.6 L 89.5,188.5 L 82.1,174.3 Z M 85.4,192.6 L 82.1,174.3 L 71.3,185.1 Z M 71.3,214.8 L 85.4,207.4 L 85.4,192.6 Z M 71.3,214.8 L 85.4,192.6 L 71.3,185.1 Z M 71.3,214.8 L 82.1,225.6 L 89.5,211.5 Z M 71.3,214.8 L 89.5,211.5 L 85.4,207.4 Z M 111.8,225.6 L 104.3,211.5 L 89.5,211.5 Z M 111.8,225.6 L 89.5,211.5 L 82.1,225.6 Z M 108.4,207.4 L 104.3,211.5 L 111.8,225.6 Z M 108.4,207.4 L 111.8,225.6 L 122.6,214.8 Z M 133.4,225.6 L 122.6,214.8 L 111.8,225.6 Z M 133.4,225.6 L 111.8,225.6 L 122.6,236.4 Z M 140.8,188.5 L 155.6,188.5 L 163.1,174.3 Z M 140.8,188.5 L 163.1,174.3 L 133.4,174.3 Z M 163.1,174.3 L 155.6,188.5 L 159.7,192.6 Z M 163.1,174.3 L 159.7,192.6 L 173.9,185.1 Z M 159.7,192.6 L 159.7,207.4 L 173.9,214.8 Z M 159.7,192.6 L 173.9,214.8 L 173.9,185.1 Z M 173.9,214.8 L 159.7,207.4 L 155.6,211.5 Z M 173.9,214.8 L 155.6,211.5 L 163.1,225.6 Z M 155.6,211.5 L 140.8,211.5 L 133.4,225.6 Z M 155.6,211.5 L 133.4,225.6 L 163.1,225.6 Z M 136.7,207.4 L 122.6,214.8 L 133.4,225.6 Z M 136.7,207.4 L 133.4,225.6 L 140.8,211.5 Z M 136.7,207.4 L 136.7,192.6 L 122.6,185.1 Z M 136.7,207.4 L 122.6,185.1 L 122.6,214.8 Z M 122.6,185.1 L 136.7,192.6 L 140.8,188.5 Z M 122.6,185.1 L 140.8,188.5 L 133.4,174.3 Z M 85.4,156.1 L 85.4,141.3 L 71.3,133.8 Z M 85.4,156.1 L 71.3,133.8 L 71.3,163.5 Z M 71.3,133.8 L 85.4,141.3 L 89.5,137.2 Z M 71.3,133.8 L 89.5,137.2 L 82.1,123.1 Z M 89.5,137.2 L 104.3,137.2 L 111.8,123.1 Z M 89.5,137.2 L 111.8,123.1 L 82.1,123.1 Z M 111.8,123.1 L 104.3,137.2 L 108.4,141.3 Z M 111.8,123.1 L 108.4,141.3 L 122.6,133.8 Z M 108.4,141.3 L 108.4,156.1 L 122.6,163.5 Z M 108.4,141.3 L 122.6,163.5 L 122.6,133.8 Z M 104.3,160.2 L 111.8,174.3 L 122.6,163.5 Z M 104.3,160.2 L 122.6,163.5 L 108.4,156.1 Z M 104.3,160.2 L 89.5,160.2 L 82.1,174.3 Z M 104.3,160.2 L 82.1,174.3 L 111.8,174.3 Z M 82.1,174.3 L 89.5,160.2 L 85.4,156.1 Z M 82.1,174.3 L 85.4,156.1 L 71.3,163.5 Z M 133.4,174.3 L 122.6,163.5 L 111.8,174.3 Z M 133.4,174.3 L 111.8,174.3 L 122.6,185.1 Z M 34.2,20.0 L 23.9,38.7 L 68.9,56.9 Z M 34.2,20.0 L 68.9,56.9 L 77.3,38.8 Z M 77.3,38.8 L 68.9,56.9 L 85.0,77.4 Z M 77.3,38.8 L 85.0,77.4 L 107.9,77.7 Z M 107.7,380.0 L 118.0,361.2 L 73.0,343.1 Z M 107.7,380.0 L 73.0,343.1 L 64.6,361.2 Z M 64.6,361.2 L 73.0,343.1 L 56.9,322.6 Z M 64.6,361.2 L 56.9,322.6 L 34.0,322.3 Z M 107.9,123.1 L 107.9,77.7 L 85.0,77.4 Z M 107.9,123.1 L 85.0,77.4 L 85.0,123.1 Z M 34.0,275.6 L 34.0,322.3 L 56.9,322.6 Z M 34.0,275.6 L 56.9,322.6 L 56.9,275.6 Z" fill="#2a2a4e" stroke="none"/>
  <path d="M 20.0,236.4 L 20.0,266.1 M 20.0,266.1 L 30.8,275.6 M 30.8,275.6 L 60.5,275.6 M 60.5,275.6 L 71.3,266.1 M 60.5,225.6 L 30.8,225.6 M 30.8,225.6 L 20.0,236.4 M 82.1,276.9 L 111.8,276.9 M 111.8,276.9 L 122.6,266.1 M 122.6,266.1 L 122.6,236.4 M 71.3,266.1 L 82.1,276.9 M 71.3,214.8 L 60.5,225.6 M 82.1,174.3 L 71.3,185.1 M 71.3,185.1 L 71.3,214.8 M 122.6,236.4 L 133.4,225.6 M 163.1,174.3 L 133.4,174.3 M 173.9,185.1 L 163.1,174.3 M 173.9,214.8 L 173.9,185.1 M 163.1,225.6 L 173.9,214.8 M 133.4,225.6 L 163.1,225.6 M 71.3,133.8 L 71.3,163.5 M 82.1,123.1 L 71.3,133.8 M 111.8,123.1 L 82.1,123.1 M 122.6,133.8 L 111.8,123.1 M 122.6,163.5 L 122.6,133.8 M 71.3,163.5 L 82.1,174.3 M 133.4,174.3 L 122.6,163.5 M 34.2,20.0 L 23.9,38.7 M 23.9,38.7 L 68.9,56.9 M 77.3,38.8 L 34.2,20.0 M 68.9,56.9 L 85.0,77.4 M 107.9,77.7 L 77.3,38.8 M 107.7,380.0 L 118.0,361.2 M 118.0,361.2 L 73.0,343.1 M 64.6,361.2 L 107.7,380.0 M 73.0,343.1 L 56.9,322.6 M 34.0,322.3 L 64.6,361.2 M 107.9,123.1 L 107.9,77.7 M 85.0,77.4 L 85.0,123.1 M 85.0,123.1 L 107.9,123.1 M 34.0,275.6 L 34.0,322.3 M 56.9,322.6 L 56.9,275.6 M 56.9,275.6 L 34.0,275.6" fill="none" stroke="white" stroke-width="2" stroke-linecap="round"/>
  <polygon points="96.22992800855332,110.22878494193661 104.22992800855332,118.22878494193661 96.22992800855332,126.22878494193661 88.22992800855332,118.22878494193661" fill="#4a9eff" stroke="white" stroke-width="1"/>
<polygon points="45.560349582635055,282.3304397366497 53.560349582635055,290.3304397366497 45.560349582635055,298.3304397366497 37.560349582635055,290.3304397366497" fill="#4a9eff" stroke="white" stroke-width="1"/>
</svg>