<svg xmlns="http://www.w3.org/2000/svg" viewBox="0 0 400 400">
  <rect width="400" height="400" fill="#1a1a2e"/>
  <path d="M 57.7,258.8 L 57.7,243.7 L 53.6,239.6 Z M 57.7,258.8 L 53.6,239.6 L 53.6,263.0 Z M 53.6,263.0 L 53.6,239.6 L 38.5,239.6 Z M 53.6,263.0 L 38.5,239.6 L 38.5,263.0 Z M 38.5,263.0 L 38.5,239.6 L 34.4,243.7 Z M 38.5,263.0 L 34.4,243.7 L 34.4,258.8 Z M 169.8,208.2 L 169.8,193.1 L 165.6,189.0 Z M 169.8,208.2 L 165.6,189.0 L 165.6,212.3 Z M 165.6,212.3 L 165.6,189.0 L 150.6,189.0 Z M 165.6,212.3 L 150.6,189.0 L 150.6,212.3 Z M 150.6,212.3 L 150.6,189.0 L 146.4,193.1 Z M 150.6,212.3 L 146.4,193.1 L 146.4,208.2 Z M 117.7,208.2 L 117.7,193.1 L 113.5,189.0 Z M 117.7,208.2 L 113.5,189.0 L 113.5,212.3 Z M 113.5,212.3 L 113.5,189.0 L 98.5,189.0 Z M 113.5,212.3 L 98.5,189.0 L 98.5,212.3 Z M 98.5,212.3 L 98.5,189.0 L 94.3,193.1 Z M 98.5,212.3 L 94.3,193.1 L 94.3,208.2 Z M 113.5,160.2 L 117.7,156.1 L 117.7,141.0 Z M 113.5,160.2 L 117.7,141.0 L 98.5,160.2 Z M 98.5,160.2 L 117.7,141.0 L 113.5,136.9 Z M 98.5,160.2 L 113.5,136.9 L 94.3,156.1 Z M 94.3,156.1 L 113.5,136.9 L 98.5,136.9 Z M 94.3,156.1 L 98.5,136.9 L 94.3,141.0 Z M 31.0,225.2 L 38.5,239.6 L 53.6,239.6 Z M 31.0,225.2 L 53.6,239.6 L 61.1,225.2 Z M 34.4,243.7 L 38.5,239.6 L 31.0,225.2 Z M 34.4,243.7 L 31.0,225.2 L 20.0,236.2 Z M 20.0,266.3 L 34.4,258.8 L 34.4,243.7 Z M 20.0,266.3 L 34.4,243.7 L 20.0,236.2 Z M 38.5,263.0 L 34.4,258.8 L 20.0,266.3 Z M 38.5,263.0 L 20.0,266.3 L 31.0,277.3 Z M 61.1,277.3 L 53.6,263.0 L 38.5,263.0 Z M 61.1,277.3 L 38.5,263.0 L 31.0,277.3 Z M 61.1,277.3 L 72.1,266.3 L 57.7,258.8 Z M 61.1,277.3 L 57.7,258.8 L 53.6,263.0 Z M 72.1,236.2 L 57.7,243.7 L 57.7,258.8 Z M 72.1,236.2 L 57.7,258.8 L 72.1,266.3 Z M 53.6,239.6 L 57.7,243.7 L 72.1,236.2 Z M 53.6,239.6 L 72.1,236.2 L 61.1,225.2 Z M 121.1,174.6 L 132.0,185.6 L 143.0,174.6 Z M 121.1,174.6 L 143.0,174.6 L 132.0,163.6 Z M 143.0,174.6 L 150.6,189.0 L 165.6,189.0 Z M 143.0,174.6 L 165.6,189.0 L 173.2,174.6 Z M 146.4,193.1 L 150.6,189.0 L 143.0,174.6 Z M 146.4,193.1 L 143.0,174.6 L 132.0,185.6 Z M 132.0,215.7 L 146.4,208.2 L 146.4,193.1 Z M 132.0,215.7 L 146.4,193.1 L 132.0,185.6 Z M 150.6,212.3 L 146.4,208.2 L 132.0,215.7 Z M 150.6,212.3 L 132.0,215.7 L 143.0,226.7 Z M 173.2,226.7 L 165.6,212.3 L 150.6,212.3 Z M 173.2,226.7 L 150.6,212.3 L 143.0,226.7 Z M 165.6,212.3 L 173.2,226.7 L 184.1,215.7 Z M 165.6,212.3 L 184.1,215.7 L 169.8,208.2 Z M 184.1,185.6 L 169.8,193.1 L 169.8,208.2 Z M 184.1,185.6 L 169.8,208.2 L 184.1,215.7 Z M 165.6,189.0 L 169.8,193.1 L 184.1,185.6 Z M 165.6,189.0 L 184.1,185.6 L 173.2,174.6 Z M 90.9,174.6 L 98.5,189.0 L 113.5,189.0 Z M 90.9,174.6 L 113.5,189.0 L 121.1,174.6 Z M 94.3,193.1 L 98.5,189.0 L 90.9,174.6 Z M 94.3,193.1 L 90.9,174.6 L 79.9,185.6 Z M 79.9,215.7 L 94.3,208.2 L 94.3,193.1 Z M 79.9,215.7 L 94.3,193.1 L 79.9,185.6 Z M 94.3,208.2 L 79.9,215.7 L 90.9,226.7 Z M 94.3,208.2 L 90.9,226.7 L 98.5,212.3 Z M 121.1,226.7 L 113.5,212.3 L 98.5,212.3 Z M 121.1,226.7 L 98.5,212.3 L 90.9,226.7 Z M 132.0,215.7 L 117.7,208.2 L 113.5,212.3 Z M 132.0,215.7 L 113.5,212.3 L 121.1,226.7 Z M 132.0,185.6 L 117.7,193.1 L 117.7,208.2 Z M 132.0,185.6 L 117.7,208.2 L 132.0,215.7 Z M 132.0,185.6 L 121.1,174.6 L 113.5,189.0 Z M 132.0,185.6 L 113.5,189.0 L 117.7,193.1 Z M 90.9,122.5 L 98.5,136.9 L 113.5,136.9 Z M 90.9,122.5 L 113.5,136.9 L 121.1,122.5 Z M 94.3,141.0 L 98.5,136.9 L 90.9,122.5 Z M 94.3,141.0 L 90.9,122.5 L 79.9,133.5 Z M 79.9,163.6 L 94.3,156.1 L 94.3,141.0 Z M 79.9,163.6 L 94.3,141.0 L 79.9,133.5 Z M 94.3,156.1 L 79.9,163.6 L 90.9,174.6 Z M 94.3,156.1 L 90.9,174.6 L 98.5,160.2 Z M 121.1,174.6 L 113.5,160.2 L 98.5,160.2 Z M 121.1,174.6 L 98.5,160.2 L 90.9,174.6 Z M 132.0,163.6 L 117.7,156.1 L 113.5,160.2 Z M 132.0,163.6 L 113.5,160.2 L 121.1,174.6 Z M 132.0,133.5 L 117.7,141.0 L 117.7,156.1 Z M 132.0,133.5 L 117.7,156.1 L 132.0,163.6 Z M 117.7,141.0 L 132.0,133.5 L 121.1,122.5 Z M 117.7,141.0 L 121.1,122.5 L 113.5,136.9 Z M 109.3,380.0 L 119.7,360.9 L 74.0,342.5 Z M 109.3,380.0 L 74.0,342.5 L 65.5,360.9 Z M 65.5,360.9 L 74.0,342.5 L 57.7,321.7 Z M 65.5,360.9 L 57.7,321.7 L 34.4,321.4 Z M 42.1,20.0 L 31.7,39.0 L 77.4,57.5 Z M 42.1,20.0 L 77.4,57.5 L 85.9,39.1 Z M 85.9,39.1 L 77.4,57.5 L 93.7,78.3 Z M 85.9,39.1 L 93.7,78.3 L 117.0,78.6 Z M 57.9,225.2 L 57.9,219.5 L 34.6,225.2 Z M 57.9,219.5 L 34.6,210.8 L 34.6,225.2 Z M 57.9,219.5 L 64.6,210.9 L 34.6,210.8 Z M 64.6,210.9 L 55.9,187.6 L 34.6,210.8 Z M 55.9,187.6 L 64.6,210.9 L 80.0,187.6 Z M 64.6,210.9 L 80.0,210.9 L 80.0,187.6 Z M 34.4,277.3 L 34.4,321.4 L 57.7,321.7 Z M 34.4,277.3 L 57.7,321.7 L 57.7,277.3 Z M 117.0,122.7 L 117.0,78.6 L 93.7,78.3 Z M 117.0,122.7 L 93.7,78.3 L 93.7,122.7 Z" fill="#2a2a4e" stroke="none"/>
  <path d="M 61.1,225.2 L 31.0,225.2 M 31.0,225.2 L 20.0,236.2 M 20.0,236.2 L 20.0,266.3 M 20.0,266.3 L 31.0,277.3 M 31.0,277.3 L 61.1,277.3 M 61.1,277.3 L 72.1,266.3 M 72.1,266.3 L 72.1,236.2 M 72.1,236.2 L 61.1,225.2 M 143.0,174.6 L 132.0,163.6 M 173.2,174.6 L 143.0,174.6 M 132.0,215.7 L 143.0,226.7 M 143.0,226.7 L 173.2,226.7 M 173.2,226.7 L 184.1,215.7 M 184.1,215.7 L 184.1,185.6 M 184.1,185.6 L 173.2,174.6 M 90.9,174.6 L 79.9,185.6 M 79.9,185.6 L 79.9,215.7 M 79.9,215.7 L 90.9,226.7 M 90.9,226.7 L 121.1,226.7 M 121.1,226.7 L 132.0,215.7 M 121.1,122.5 L 90.9,122.5 M 90.9,122.5 L 79.9,133.5 M 79.9,133.5 L 79.9,163.6 M 79.9,163.6 L 90.9,174.6 M 132.0,163.6 L 132.0,133.5 M 132.0,133.5 L 121.1,122.5 M 109.3,380.0 L 119.7,360.9 M 119.7,360.9 L 74.0,342.5 M 65.5,360.9 L 109.3,380.0 M 74.0,342.5 L 57.7,321.7 M 34.4,321.4 L 65.5,360.9 M 42.1,20.0 L 31.7,39.0 M 31.7,39.0 L 77.4,57.5 M 85.9,39.1 L 42.1,20.0 M 77.4,57.5 L 93.7,78.3 M 117.0,78.6 L 85.9,39.1 M 57.9,225.2 L 57.9,219.5 M 34.6,225.2 L 57.9,225.2 M 34.6,210.8 L 34.6,225.2 M 57.9,219.5 L 64.6,210.9 M 55.9,187.6 L 34.6,210.8 M 80.0,187.6 L 55.9,187.6 M 64.6,210.9 L 80.0,210.9 M 80.0,210.9 L 80.0,187.6 M 34.4,277.3 L 34.4,321.4 M 57.7,321.7 L 57.7,277.3 M 57.7,277.3 L 34.4,277.3 M 117.0,122.7 L 117.0,78.6 M 93.7,78.3 L 93.7,122.7 M 93.7,122.7 L 117.0,122.7" fill="none" stroke="white" stroke-width="2" stroke-linecap="round"/>
  <polygon points="104.66530266775122,108.9243089108651 112.66530266775122,116.9243089108651 104.66530266775122,124.9243089108651 96.66530266775122,116.9243089108651" fill="#4a9eff" stroke="white" stroke-width="1"/>
<polygon points="46.06388698916433,272.3986802330518 54.06388698916433,280.3986802330518 46.06388698916433,288.3986802330518 38.06388698916433,280.3986802330518" fill="#4a9eff" stroke="white" stroke-width="1"/>
</svg>