<svg xmlns="http://www.w3.org/2000/svg" viewBox="0 0 400 400">
  <rect width="400" height="400" fill="#1a1a2e"/>
  <path d="M 134.8,182.2 L 160.0,164.7 L 147.6,147.0 Z M 134.8,182.2 L 147.6,147.0 L 118.6,165.2 Z M 118.6,165.2 L 147.6,147.0 L 122.1,135.7 Z M 118.6,165.2 L 122.1,135.7 L 104.0,164.2 Z M 104.0,164.2 L 122.1,135.7 L 99.7,114.2 Z M 104.0,164.2 L 99.7,114.2 L 68.3,125.0 Z M 104.0,164.2 L 68.3,125.0 L 55.2,152.1 Z M 104.0,164.2 L 55.2,152.1 L 93.0,178.0 Z M 93.0,178.0 L 55.2,152.1 L 49.3,174.7 Z M 93.0,178.0 L 49.3,174.7 L 57.8,195.0 Z M 93.0,178.0 L 57.8,195.0 L 73.8,212.5 Z M 93.0,178.0 L 73.8,212.5 L 85.8,196.2 Z M 85.8,196.2 L 73.8,212.5 L 87.5,230.7 Z M 85.8,196.2 L 87.5,230.7 L 95.4,218.9 Z M 95.4,218.9 L 87.5,230.7 L 106.0,238.0 Z M 95.4,218.9 L 106.0,238.0 L 112.1,228.0 Z M 112.1,228.0 L 106.0,238.0 L 129.3,235.1 Z M 112.1,228.0 L 129.3,235.1 L 126.8,226.4 Z M 126.8,226.4 L 129.3,235.1 L 147.5,220.0 Z M 126.8,226.4 L 147.5,220.0 L 136.9,213.3 Z M 63.5,94.9 L 68.3,125.0 L 87.2,94.9 Z M 68.3,125.0 L 99.7,114.2 L 87.2,94.9 Z M 134.8,182.2 L 136.9,213.3 L 160.2,204.3 Z M 134.8,182.2 L 160.2,204.3 L 161.3,187.2 Z M 136.9,213.3 L 147.5,220.0 L 160.2,204.3 Z M 161.3,187.2 L 160.0,164.7 L 134.8,182.2 Z M 36.1,175.7 L 20.0,174.0 L 24.1,221.0 Z M 36.1,175.7 L 24.1,221.0 L 46.6,201.9 Z M 46.6,201.9 L 24.1,221.0 L 47.0,242.0 Z M 46.6,201.9 L 47.0,242.0 L 61.1,220.7 Z M 114.9,217.5 L 123.7,215.8 L 127.2,207.1 Z M 114.9,217.5 L 127.2,207.1 L 104.2,211.5 Z M 112.2,95.1 L 134.1,123.2 L 156.5,102.0 Z M 174.3,126.2 L 158.0,136.2 L 174.8,153.8 Z M 43.1,147.2 L 23.1,126.2 L 20.0,158.2 Z M 56.9,117.0 L 56.1,99.1 L 40.3,104.9 Z M 101.7,253.1 L 131.0,253.1 L 106.0,238.0 Z M 131.0,253.1 L 129.3,235.1 L 106.0,238.0 Z M 134.1,123.2 L 147.6,147.0 L 158.0,136.2 Z M 147.6,147.0 L 174.8,153.8 L 158.0,136.2 Z M 134.1,123.2 L 158.0,136.2 L 156.5,102.0 Z M 158.0,136.2 L 174.3,126.2 L 156.5,102.0 Z M 46.6,201.9 L 61.1,220.7 L 57.8,195.0 Z M 61.1,220.7 L 73.8,212.5 L 57.8,195.0 Z M 81.3,247.5 L 87.5,230.7 L 61.1,220.7 Z M 87.5,230.7 L 73.8,212.5 L 61.1,220.7 Z M 174.8,153.8 L 160.0,164.7 L 178.2,189.9 Z M 160.0,164.7 L 161.3,187.2 L 178.2,189.9 Z M 112.2,95.1 L 99.7,114.2 L 134.1,123.2 Z M 99.7,114.2 L 122.1,135.7 L 134.1,123.2 Z M 134.1,123.2 L 122.1,135.7 L 147.6,147.0 Z M 56.1,99.1 L 56.9,117.0 L 63.5,94.9 Z M 56.9,117.0 L 68.3,125.0 L 63.5,94.9 Z M 178.2,205.7 L 160.2,204.3 L 173.0,217.4 Z M 160.2,204.3 L 147.5,220.0 L 173.0,217.4 Z M 43.1,147.2 L 56.9,117.0 L 23.1,126.2 Z M 56.9,117.0 L 40.3,104.9 L 23.1,126.2 Z M 126.8,226.4 L 136.9,213.3 L 123.7,215.8 Z M 136.9,213.3 L 127.2,207.1 L 123.7,215.8 Z M 85.8,196.2 L 98.5,199.0 L 93.0,178.0 Z M 98.5,199.0 L 106.9,190.4 L 93.0,178.0 Z M 104.2,211.5 L 98.5,199.0 L 95.4,218.9 Z M 98.5,199.0 L 85.8,196.2 L 95.4,218.9 Z M 134.8,182.2 L 126.4,189.7 L 136.9,213.3 Z M 126.4,189.7 L 127.2,207.1 L 136.9,213.3 Z M 118.6,165.2 L 104.0,164.2 L 116.1,178.0 Z M 104.0,164.2 L 107.9,180.6 L 116.1,178.0 Z M 55.2,152.1 L 68.3,125.0 L 56.9,117.0 Z M 55.2,152.1 L 56.9,117.0 L 43.1,147.2 Z M 87.5,230.7 L 81.3,247.5 L 101.7,253.1 Z M 87.5,230.7 L 101.7,253.1 L 106.0,238.0 Z M 55.2,152.1 L 43.1,147.2 L 36.1,175.7 Z M 55.2,152.1 L 36.1,175.7 L 49.3,174.7 Z M 129.3,235.1 L 131.0,253.1 L 173.0,217.4 Z M 129.3,235.1 L 173.0,217.4 L 147.5,220.0 Z M 49.3,174.7 L 36.1,175.7 L 46.6,201.9 Z M 49.3,174.7 L 46.6,201.9 L 57.8,195.0 Z M 36.1,175.7 L 43.1,147.2 L 20.0,158.2 Z M 36.1,175.7 L 20.0,158.2 L 20.0,174.0 Z M 127.2,207.1 L 126.4,189.7 L 98.5,199.0 Z M 127.2,207.1 L 98.5,199.0 L 104.2,211.5 Z M 114.9,217.5 L 104.2,211.5 L 95.4,218.9 Z M 114.9,217.5 L 95.4,218.9 L 112.1,228.0 Z M 123.7,215.8 L 114.9,217.5 L 112.1,228.0 Z M 123.7,215.8 L 112.1,228.0 L 126.8,226.4 Z M 116.1,178.0 L 107.9,180.6 L 106.9,190.4 Z M 116.1,178.0 L 106.9,190.4 L 126.4,189.7 Z M 126.4,189.7 L 134.8,182.2 L 118.6,165.2 Z M 126.4,189.7 L 118.6,165.2 L 116.1,178.0 Z M 160.2,204.3 L 178.2,205.7 L 178.2,189.9 Z M 160.2,204.3 L 178.2,189.9 L 161.3,187.2 Z M 99.7,114.2 L 112.2,95.1 L 87.2,94.9 Z M 47.0,242.0 L 81.3,247.5 L 61.1,220.7 Z M 93.0,178.0 L 106.9,190.4 L 107.9,180.6 Z M 106.9,190.4 L 98.5,199.0 L 126.4,189.7 Z M 107.9,180.6 L 104.0,164.2 L 93.0,178.0 Z M 147.6,147.0 L 160.0,164.7 L 174.8,153.8 Z M 53.1,116.5 L 51.6,121.9 L 54.2,123.4 Z M 53.1,116.5 L 54.2,123.4 L 56.9,118.7 Z M 145.7,125.5 L 148.8,121.7 L 147.3,119.6 Z M 145.7,125.5 L 147.3,119.6 L 143.4,122.3 Z M 125.0,116.0 L 130.5,115.9 L 131.3,113.1 Z M 125.0,116.0 L 131.3,113.1 L 126.1,111.8 Z M 117.1,217.3 L 122.6,215.3 L 122.3,212.2 Z M 117.1,217.3 L 122.3,212.2 L 116.7,212.7 Z M 115.1,213.6 L 117.1,209.8 L 115.5,208.2 Z M 115.1,213.6 L 115.5,208.2 L 112.6,211.3 Z M 56.3,226.0 L 59.8,221.3 L 57.9,218.9 Z M 56.3,226.0 L 57.9,218.9 L 53.5,222.4 Z M 55.9,227.8 L 55.5,223.6 L 53.3,223.2 Z M 55.9,227.8 L 53.3,223.2 L 52.5,227.2 Z M 53.0,123.6 L 53.6,118.9 L 51.2,117.9 Z M 53.0,123.6 L 51.2,117.9 L 49.5,122.2 Z M 37.7,195.5 L 40.5,192.1 L 39.2,190.2 Z M 37.7,195.5 L 39.2,190.2 L 35.7,192.7 Z M 63.5,94.9 L 87.2,94.9 L 87.2,69.3 Z M 63.5,94.9 L 87.2,69.3 L 63.5,69.3 Z M 63.5,69.3 L 87.2,69.3 L 87.3,41.3 Z M 63.5,69.3 L 87.3,41.3 L 63.6,41.3 Z M 40.1,20.0 L 63.6,41.3 L 87.3,41.3 Z M 40.1,20.0 L 87.3,41.3 L 63.9,20.0 Z M 126.4,280.7 L 126.4,253.1 L 102.7,253.1 Z M 126.4,280.7 L 102.7,253.1 L 102.8,280.8 Z M 126.4,315.1 L 126.4,280.7 L 102.8,280.8 Z M 126.4,315.1 L 102.8,280.8 L 103.0,307.9 Z M 103.0,307.9 L 80.7,327.0 L 88.9,351.8 Z M 103.0,307.9 L 88.9,351.8 L 126.4,315.1 Z M 74.1,380.0 L 88.9,351.8 L 80.7,327.0 Z M 74.1,380.0 L 80.7,327.0 L 62.5,361.9 Z" fill="#2a2a4e" stroke="none"/>
  <path d="M 20.0,174.0 L 24.1,221.0 M 24.1,221.0 L 47.0,242.0 M 156.5,102.0 L 112.2,95.1 M 174.8,153.8 L 174.3,126.2 M 23.1,126.2 L 20.0,158.2 M 56.1,99.1 L 40.3,104.9 M 101.7,253.1 L 131.0,253.1 M 174.3,126.2 L 156.5,102.0 M 178.2,189.9 L 174.8,153.8 M 63.5,94.9 L 56.1,99.1 M 173.0,217.4 L 178.2,205.7 M 40.3,104.9 L 23.1,126.2 M 81.3,247.5 L 101.7,253.1 M 131.0,253.1 L 173.0,217.4 M 20.0,158.2 L 20.0,174.0 M 178.2,205.7 L 178.2,189.9 M 112.2,95.1 L 87.2,94.9 M 47.0,242.0 L 81.3,247.5 M 53.1,116.5 L 51.6,121.9 M 51.6,121.9 L 54.2,123.4 M 54.2,123.4 L 56.9,118.7 M 56.9,118.7 L 53.1,116.5 M 145.7,125.5 L 148.8,121.7 M 148.8,121.7 L 147.3,119.6 M 147.3,119.6 L 143.4,122.3 M 143.4,122.3 L 145.7,125.5 M 125.0,116.0 L 130.5,115.9 M 130.5,115.9 L 131.3,113.1 M 131.3,113.1 L 126.1,111.8 M 126.1,111.8 L 125.0,116.0 M 117.1,217.3 L 122.6,215.3 M 122.6,215.3 L 122.3,212.2 M 122.3,212.2 L 116.7,212.7 M 116.7,212.7 L 117.1,217.3 M 115.1,213.6 L 117.1,209.8 M 117.1,209.8 L 115.5,208.2 M 115.5,208.2 L 112.6,211.3 M 112.6,211.3 L 115.1,213.6 M 56.3,226.0 L 59.8,221.3 M 59.8,221.3 L 57.9,218.9 M 57.9,218.9 L 53.5,222.4 M 53.5,222.4 L 56.3,226.0 M 55.9,227.8 L 55.5,223.6 M 55.5,223.6 L 53.3,223.2 M 53.3,223.2 L 52.5,227.2 M 52.5,227.2 L 55.9,227.8 M 53.0,123.6 L 53.6,118.9 M 53.6,118.9 L 51.2,117.9 M 51.2,117.9 L 49.5,122.2 M 49.5,122.2 L 53.0,123.6 M 37.7,195.5 L 40.5,192.1 M 40.5,192.1 L 39.2,190.2 M 39.2,190.2 L 35.7,192.7 M 35.7,192.7 L 37.7,195.5 M 87.2,94.9 L 87.2,69.3 M 63.5,69.3 L 63.5,94.9 M 87.2,69.3 L 87.3,41.3 M 63.6,41.3 L 63.5,69.3 M 40.1,20.0 L 63.6,41.3 M 87.3,41.3 L 63.9,20.0 M 63.9,20.0 L 40.1,20.0 M 126.4,280.7 L 126.4,253.1 M 126.4,253.1 L 102.7,253.1 M 102.7,253.1 L 102.8,280.8 M 126.4,315.1 L 126.4,280.7 M 102.8,280.8 L 103.0,307.9 M 103.0,307.9 L 80.7,327.0 M 88.9,351.8 L 126.4,315.1 M 74.1,380.0 L 88.9,351.8 M 80.7,327.0 L 62.5,361.9 M 62.5,361.9 L 74.1,380.0" fill="none" stroke="white" stroke-width="2" stroke-linecap="round"/>
  <polygon points="75.26865185324596,60.266464813359974 83.26865185324596,68.26646481335997 75.26865185324596,76.26646481335997 67.26865185324596,68.26646481335997" fill="#4a9eff" stroke="white" stroke-width="1"/>
<polygon points="114.5786257742482,256.35488192465436 122.5786257742482,264.35488192465436 114.5786257742482,272.35488192465436 106.5786257742482,264.35488192465436" fill="#4a9eff" stroke="white" stroke-width="1"/>
</svg>