<svg xmlns="http://www.w3.org/2000/svg" viewBox="0 0 400 400">
  <rect width="400" height="400" fill="#1a1a2e"/>
  <path d="M 181.2,239.7 L 181.2,222.2 L 176.4,217.3 Z M 181.2,239.7 L 176.4,217.3 L 176.4,244.6 Z M 176.4,244.6 L 176.4,217.3 L 158.8,217.3 Z M 176.4,244.6 L 158.8,217.3 L 158.8,244.6 Z M 158.8,244.6 L 158.8,217.3 L 154.0,222.2 Z M 158.8,244.6 L 154.0,222.2 L 154.0,239.7 Z M 120.4,239.7 L 120.4,222.2 L 115.6,217.3 Z M 120.4,239.7 L 115.6,217.3 L 115.6,244.6 Z M 115.6,244.6 L 115.6,217.3 L 98.0,217.3 Z M 115.6,244.6 L 98.0,217.3 L 98.0,244.6 Z M 98.0,244.6 L 98.0,217.3 L 93.1,222.2 Z M 98.0,244.6 L 93.1,222.2 L 93.1,239.7 Z M 115.6,183.8 L 120.4,178.9 L 120.4,161.3 Z M 115.6,183.8 L 120.4,161.3 L 98.0,183.8 Z M 98.0,183.8 L 120.4,161.3 L 115.6,156.5 Z M 98.0,183.8 L 115.6,156.5 L 93.1,178.9 Z M 93.1,178.9 L 115.6,156.5 L 98.0,156.5 Z M 93.1,178.9 L 98.0,156.5 L 93.1,161.3 Z M 114.0,319.8 L 114.0,302.2 L 109.1,297.4 Z M 114.0,319.8 L 109.1,297.4 L 109.1,324.6 Z M 109.1,324.6 L 109.1,297.4 L 91.6,297.4 Z M 109.1,324.6 L 91.6,297.4 L 91.6,324.6 Z M 91.6,324.6 L 91.6,297.4 L 86.7,302.2 Z M 91.6,324.6 L 86.7,302.2 L 86.7,319.8 Z M 124.4,200.5 L 137.2,213.3 L 150.0,200.5 Z M 124.4,200.5 L 150.0,200.5 L 137.2,187.7 Z M 150.0,200.5 L 158.8,217.3 L 176.4,217.3 Z M 150.0,200.5 L 176.4,217.3 L 185.2,200.5 Z M 154.0,222.2 L 158.8,217.3 L 150.0,200.5 Z M 154.0,222.2 L 150.0,200.5 L 137.2,213.3 Z M 137.2,248.6 L 154.0,239.7 L 154.0,222.2 Z M 137.2,248.6 L 154.0,222.2 L 137.2,213.3 Z M 158.8,244.6 L 154.0,239.7 L 137.2,248.6 Z M 158.8,244.6 L 137.2,248.6 L 150.0,261.4 Z M 185.2,261.4 L 176.4,244.6 L 158.8,244.6 Z M 185.2,261.4 L 158.8,244.6 L 150.0,261.4 Z M 176.4,244.6 L 185.2,261.4 L 198.0,248.6 Z M 176.4,244.6 L 198.0,248.6 L 181.2,239.7 Z M 198.0,213.3 L 181.2,222.2 L 181.2,239.7 Z M 198.0,213.3 L 181.2,239.7 L 198.0,248.6 Z M 176.4,217.3 L 181.2,222.2 L 198.0,213.3 Z M 176.4,217.3 L 198.0,213.3 L 185.2,200.5 Z M 89.2,200.5 L 98.0,217.3 L 115.6,217.3 Z M 89.2,200.5 L 115.6,217.3 L 124.4,200.5 Z M 93.1,222.2 L 98.0,217.3 L 89.2,200.5 Z M 93.1,222.2 L 89.2,200.5 L 76.4,213.3 Z M 76.4,248.6 L 93.1,239.7 L 93.1,222.2 Z M 76.4,248.6 L 93.1,222.2 L 76.4,213.3 Z M 93.1,239.7 L 76.4,248.6 L 89.2,261.4 Z M 93.1,239.7 L 89.2,261.4 L 98.0,244.6 Z M 124.4,261.4 L 115.6,244.6 L 98.0,244.6 Z M 124.4,261.4 L 98.0,244.6 L 89.2,261.4 Z M 137.2,248.6 L 120.4,239.7 L 115.6,244.6 Z M 137.2,248.6 L 115.6,244.6 L 124.4,261.4 Z M 137.2,213.3 L 120.4,222.2 L 120.4,239.7 Z M 137.2,213.3 L 120.4,239.7 L 137.2,248.6 Z M 137.2,213.3 L 124.4,200.5 L 115.6,217.3 Z M 137.2,213.3 L 115.6,217.3 L 120.4,222.2 Z M 89.2,139.7 L 98.0,156.5 L 115.6,156.5 Z M 89.2,139.7 L 115.6,156.5 L 124.4,139.7 Z M 93.1,161.3 L 98.0,156.5 L 89.2,139.7 Z M 93.1,161.3 L 89.2,139.7 L 76.4,152.5 Z M 76.4,187.7 L 93.1,178.9 L 93.1,161.3 Z M 76.4,187.7 L 93.1,161.3 L 76.4,152.5 Z M 93.1,178.9 L 76.4,187.7 L 89.2,200.5 Z M 93.1,178.9 L 89.2,200.5 L 98.0,183.8 Z M 124.4,200.5 L 115.6,183.8 L 98.0,183.8 Z M 124.4,200.5 L 98.0,183.8 L 89.2,200.5 Z M 137.2,187.7 L 120.4,178.9 L 115.6,183.8 Z M 137.2,187.7 L 115.6,183.8 L 124.4,200.5 Z M 137.2,152.5 L 120.4,161.3 L 120.4,178.9 Z M 137.2,152.5 L 120.4,178.9 L 137.2,187.7 Z M 120.4,161.3 L 137.2,152.5 L 124.4,139.7 Z M 120.4,161.3 L 124.4,139.7 L 115.6,156.5 Z M 82.8,280.6 L 91.6,297.4 L 109.1,297.4 Z M 82.8,280.6 L 109.1,297.4 L 118.0,280.6 Z M 86.7,302.2 L 91.6,297.4 L 82.8,280.6 Z M 86.7,302.2 L 82.8,280.6 L 70.0,293.4 Z M 70.0,328.6 L 86.7,319.8 L 86.7,302.2 Z M 70.0,328.6 L 86.7,302.2 L 70.0,293.4 Z M 91.6,324.6 L 86.7,319.8 L 70.0,328.6 Z M 91.6,324.6 L 70.0,328.6 L 82.8,341.4 Z M 118.0,341.4 L 109.1,324.6 L 91.6,324.6 Z M 118.0,341.4 L 91.6,324.6 L 82.8,341.4 Z M 118.0,341.4 L 130.8,328.6 L 114.0,319.8 Z M 118.0,341.4 L 114.0,319.8 L 109.1,324.6 Z M 130.8,293.4 L 114.0,302.2 L 114.0,319.8 Z M 130.8,293.4 L 114.0,319.8 L 130.8,328.6 Z M 109.1,297.4 L 114.0,302.2 L 130.8,293.4 Z M 109.1,297.4 L 130.8,293.4 L 118.0,280.6 Z M 252.0,335.3 L 275.9,319.5 L 228.5,298.5 Z M 252.0,335.3 L 228.5,298.5 L 228.6,325.7 Z M 32.2,20.0 L 20.0,42.2 L 73.4,63.8 Z M 32.2,20.0 L 73.4,63.8 L 83.3,42.4 Z M 83.3,42.4 L 73.4,63.8 L 92.4,88.0 Z M 83.3,42.4 L 92.4,88.0 L 119.6,88.5 Z M 58.5,297.5 L 50.6,287.4 L 48.3,324.6 Z M 50.6,287.4 L 23.4,293.0 L 48.3,324.6 Z M 70.0,297.5 L 58.5,297.5 L 70.0,324.6 Z M 58.5,297.5 L 48.3,324.6 L 70.0,324.6 Z M 50.6,253.0 L 58.5,242.9 L 23.4,242.8 Z M 58.5,242.9 L 48.3,215.8 L 23.4,242.8 Z M 48.3,215.8 L 58.5,242.9 L 76.4,215.8 Z M 58.5,242.9 L 76.4,242.9 L 76.4,215.8 Z M 23.4,293.0 L 50.6,287.4 L 50.6,253.0 Z M 23.4,293.0 L 50.6,253.0 L 23.4,242.8 Z M 130.5,325.7 L 228.6,325.7 L 228.5,298.5 Z M 130.5,325.7 L 228.5,298.5 L 130.5,298.5 Z M 253.7,379.6 L 278.1,380.0 L 275.9,319.5 Z M 253.7,379.6 L 275.9,319.5 L 252.0,335.3 Z M 119.6,139.9 L 119.6,88.5 L 92.4,88.0 Z M 119.6,139.9 L 92.4,88.0 L 92.4,139.9 Z" fill="#2a2a4e" stroke="none"/>
  <path d="M 150.0,200.5 L 137.2,187.7 M 185.2,200.5 L 150.0,200.5 M 137.2,248.6 L 150.0,261.4 M 150.0,261.4 L 185.2,261.4 M 185.2,261.4 L 198.0,248.6 M 198.0,248.6 L 198.0,213.3 M 198.0,213.3 L 185.2,200.5 M 89.2,200.5 L 76.4,213.3 M 76.4,213.3 L 76.4,248.6 M 76.4,248.6 L 89.2,261.4 M 89.2,261.4 L 124.4,261.4 M 124.4,261.4 L 137.2,248.6 M 124.4,139.7 L 89.2,139.7 M 89.2,139.7 L 76.4,152.5 M 76.4,152.5 L 76.4,187.7 M 76.4,187.7 L 89.2,200.5 M 137.2,187.7 L 137.2,152.5 M 137.2,152.5 L 124.4,139.7 M 118.0,280.6 L 82.8,280.6 M 82.8,280.6 L 70.0,293.4 M 70.0,293.4 L 70.0,328.6 M 70.0,328.6 L 82.8,341.4 M 82.8,341.4 L 118.0,341.4 M 118.0,341.4 L 130.8,328.6 M 130.8,328.6 L 130.8,293.4 M 130.8,293.4 L 118.0,280.6 M 275.9,319.5 L 228.5,298.5 M 228.6,325.7 L 252.0,335.3 M 32.2,20.0 L 20.0,42.2 M 20.0,42.2 L 73.4,63.8 M 83.3,42.4 L 32.2,20.0 M 73.4,63.8 L 92.4,88.0 M 119.6,88.5 L 83.3,42.4 M 58.5,297.5 L 50.6,287.4 M 23.4,293.0 L 48.3,324.6 M 70.0,297.5 L 58.5,297.5 M 70.0,324.6 L 70.0,297.5 M 48.3,324.6 L 70.0,324.6 M 50.6,253.0 L 58.5,242.9 M 48.3,215.8 L 23.4,242.8 M 76.4,215.8 L 48.3,215.8 M 58.5,242.9 L 76.4,242.9 M 76.4,242.9 L 76.4,215.8 M 50.6,287.4 L 50.6,253.0 M 23.4,242.8 L 23.4,293.0 M 130.5,325.7 L 228.6,325.7 M 228.5,298.5 L 130.5,298.5 M 130.5,298.5 L 130.5,325.7 M 253.7,379.6 L 278.1,380.0 M 278.1,380.0 L 275.9,319.5 M 252.0,335.3 L 253.7,379.6 M 119.6,139.9 L 119.6,88.5 M 92.4,88.0 L 92.4,139.9 M 92.4,139.9 L 119.6,139.9" fill="none" stroke="white" stroke-width="2" stroke-linecap="round"/>
  <polygon points="105.48015490192311,116.59256468801091 113.48015490192311,124.59256468801091 105.48015490192311,132.5925646880109 97.48015490192311,124.59256468801091" fill="#4a9eff" stroke="white" stroke-width="1"/>
<polygon points="180.0886097178254,303.6282056465603 188.0886097178254,311.6282056465603 180.0886097178254,319.6282056465603 172.0886097178254,311.6282056465603" fill="#4a9eff" stroke="white" stroke-width="1"/>
</svg>