<svg xmlns="http://www.w3.org/2000/svg" viewBox="0 0 400 400">
  <rect width="400" height="400" fill="#1a1a2e"/>
  <path d="M 228.1,191.3 L 154.2,190.7 L 160.4,228.4 Z M 228.1,191.3 L 160.4,228.4 L 199.5,228.6 Z M 199.5,228.6 L 160.4,228.4 L 156.5,267.6 Z M 199.5,228.6 L 156.5,267.6 L 192.1,267.6 Z M 142.3,123.7 L 169.1,104.5 L 168.8,82.8 Z M 142.3,123.7 L 168.8,82.8 L 97.3,123.8 Z M 97.3,123.8 L 168.8,82.8 L 141.2,61.1 Z M 97.3,123.8 L 141.2,61.1 L 57.2,105.0 Z M 57.2,105.0 L 141.2,61.1 L 93.7,53.5 Z M 57.2,105.0 L 93.7,53.5 L 63.8,64.7 Z M 160.4,228.4 L 144.2,257.4 L 156.5,267.6 Z M 144.2,257.4 L 138.2,274.5 L 156.5,267.6 Z M 228.1,191.3 L 219.4,164.6 L 154.2,190.7 Z M 219.4,164.6 L 208.7,151.0 L 154.2,190.7 Z M 154.2,190.7 L 208.7,151.0 L 195.9,142.7 Z M 123.1,172.3 L 154.2,190.7 L 157.0,157.7 Z M 154.2,190.7 L 167.5,158.0 L 157.0,157.7 Z M 167.5,158.0 L 154.2,190.7 L 195.9,142.7 Z M 167.5,158.0 L 195.9,142.7 L 183.5,143.9 Z M 144.2,257.4 L 116.6,257.3 L 138.2,274.5 Z M 57.2,105.0 L 63.8,64.7 L 51.5,88.0 Z M 97.3,123.8 L 108.6,138.3 L 142.3,123.7 Z M 266.1,146.7 L 244.7,156.7 L 251.6,195.2 Z M 266.1,146.7 L 251.6,195.2 L 263.5,202.1 Z M 263.5,202.1 L 251.6,195.2 L 227.0,228.4 Z M 263.5,202.1 L 227.0,228.4 L 226.1,247.0 Z M 27.9,212.0 L 56.3,211.0 L 76.4,171.2 Z M 27.9,212.0 L 76.4,171.2 L 52.9,181.7 Z M 145.4,223.2 L 111.5,228.7 L 120.8,235.7 Z M 145.4,223.2 L 120.8,235.7 L 135.4,240.9 Z M 98.4,29.3 L 166.2,39.7 L 192.4,25.8 Z M 98.4,29.3 L 192.4,25.8 L 141.7,20.0 Z M 218.1,44.8 L 192.1,63.3 L 196.6,93.0 Z M 218.1,44.8 L 196.6,93.0 L 221.3,75.2 Z M 20.0,82.3 L 20.0,125.2 L 28.7,138.7 Z M 20.0,82.3 L 28.7,138.7 L 52.5,126.3 Z M 242.6,118.0 L 209.0,114.3 L 227.6,133.6 Z M 95.3,273.2 L 69.3,250.8 L 47.1,250.7 Z M 47.8,158.1 L 90.1,155.1 L 82.8,141.5 Z M 192.1,267.6 L 156.5,267.6 L 156.5,306.0 Z M 192.1,267.6 L 156.5,306.0 L 192.1,306.0 Z M 192.1,306.0 L 156.5,306.0 L 156.4,348.1 Z M 192.1,306.0 L 156.4,348.1 L 192.0,348.1 Z M 221.2,380.0 L 192.0,348.1 L 156.4,348.1 Z M 221.2,380.0 L 156.4,348.1 L 185.6,380.0 Z M 157.0,157.7 L 142.3,123.7 L 108.6,138.3 Z M 157.0,157.7 L 108.6,138.3 L 123.1,172.3 Z M 112.9,208.3 L 121.4,207.6 L 120.8,200.6 Z M 112.9,208.3 L 120.8,200.6 L 112.4,203.6 Z M 123.1,214.2 L 127.4,209.7 L 123.7,206.2 Z M 123.1,214.2 L 123.7,206.2 L 120.6,211.9 Z M 219.4,164.6 L 228.1,191.3 L 244.7,156.7 Z M 228.1,191.3 L 251.6,195.2 L 244.7,156.7 Z M 183.5,143.9 L 195.9,142.7 L 177.4,127.0 Z M 195.9,142.7 L 209.0,114.3 L 177.4,127.0 Z M 192.1,267.6 L 226.1,247.0 L 199.5,228.6 Z M 226.1,247.0 L 227.0,228.4 L 199.5,228.6 Z M 251.6,195.2 L 228.1,191.3 L 227.0,228.4 Z M 228.1,191.3 L 199.5,228.6 L 227.0,228.4 Z M 56.3,211.0 L 87.4,210.2 L 76.4,171.2 Z M 87.4,210.2 L 102.9,187.6 L 76.4,171.2 Z M 95.5,240.5 L 87.4,210.2 L 69.3,250.8 Z M 87.4,210.2 L 56.3,211.0 L 69.3,250.8 Z M 123.5,194.0 L 111.0,200.6 L 142.2,199.9 Z M 111.0,200.6 L 106.2,212.5 L 142.2,199.9 Z M 142.2,199.9 L 106.2,212.5 L 111.5,228.7 Z M 116.6,257.3 L 120.8,235.7 L 95.5,240.5 Z M 120.8,235.7 L 111.5,228.7 L 95.5,240.5 Z M 144.2,257.4 L 135.4,240.9 L 116.6,257.3 Z M 135.4,240.9 L 120.8,235.7 L 116.6,257.3 Z M 106.2,212.5 L 111.0,200.6 L 87.4,210.2 Z M 111.0,200.6 L 102.9,187.6 L 87.4,210.2 Z M 123.5,194.0 L 142.2,199.9 L 123.1,172.3 Z M 142.2,199.9 L 154.2,190.7 L 123.1,172.3 Z M 142.2,199.9 L 145.4,223.2 L 154.2,190.7 Z M 145.4,223.2 L 160.4,228.4 L 154.2,190.7 Z M 145.4,223.2 L 135.4,240.9 L 160.4,228.4 Z M 135.4,240.9 L 144.2,257.4 L 160.4,228.4 Z M 95.5,240.5 L 111.5,228.7 L 87.4,210.2 Z M 111.5,228.7 L 106.2,212.5 L 87.4,210.2 Z M 116.6,257.3 L 95.5,240.5 L 95.3,273.2 Z M 95.5,240.5 L 69.3,250.8 L 95.3,273.2 Z M 208.7,151.0 L 219.4,164.6 L 227.6,133.6 Z M 219.4,164.6 L 244.7,156.7 L 227.6,133.6 Z M 209.0,114.3 L 195.9,142.7 L 227.6,133.6 Z M 195.9,142.7 L 208.7,151.0 L 227.6,133.6 Z M 167.5,158.0 L 183.5,143.9 L 163.7,142.5 Z M 183.5,143.9 L 177.4,127.0 L 163.7,142.5 Z M 123.1,172.3 L 102.9,187.6 L 123.5,194.0 Z M 102.9,187.6 L 111.0,200.6 L 123.5,194.0 Z M 166.2,39.7 L 192.1,63.3 L 192.4,25.8 Z M 192.1,63.3 L 218.1,44.8 L 192.4,25.8 Z M 93.7,53.5 L 141.2,61.1 L 98.4,29.3 Z M 141.2,61.1 L 166.2,39.7 L 98.4,29.3 Z M 196.6,93.0 L 192.1,63.3 L 168.8,82.8 Z M 192.1,63.3 L 166.2,39.7 L 168.8,82.8 Z M 168.8,82.8 L 166.2,39.7 L 141.2,61.1 Z M 63.8,64.7 L 93.7,53.5 L 51.9,43.8 Z M 93.7,53.5 L 98.4,29.3 L 51.9,43.8 Z M 97.3,123.8 L 82.8,141.5 L 108.6,138.3 Z M 82.8,141.5 L 90.1,155.1 L 108.6,138.3 Z M 97.3,123.8 L 57.2,105.0 L 82.8,141.5 Z M 57.2,105.0 L 52.5,126.3 L 82.8,141.5 Z M 51.5,88.0 L 63.8,64.7 L 20.0,82.3 Z M 63.8,64.7 L 51.9,43.8 L 20.0,82.3 Z M 82.8,141.5 L 52.5,126.3 L 47.8,158.1 Z M 52.5,126.3 L 28.7,138.7 L 47.8,158.1 Z M 57.2,105.0 L 51.5,88.0 L 52.5,126.3 Z M 51.5,88.0 L 20.0,82.3 L 52.5,126.3 Z M 196.6,93.0 L 168.8,82.8 L 169.1,104.5 Z M 227.6,133.6 L 244.7,156.7 L 266.1,146.7 Z M 227.6,133.6 L 266.1,146.7 L 242.6,118.0 Z M 56.3,211.0 L 34.4,233.2 L 47.1,250.7 Z M 56.3,211.0 L 47.1,250.7 L 69.3,250.8 Z M 95.3,273.2 L 138.2,274.5 L 116.6,257.3 Z M 56.3,211.0 L 27.9,212.0 L 34.4,233.2 Z M 167.5,158.0 L 163.7,142.5 L 157.0,157.7 Z M 102.9,187.6 L 123.1,172.3 L 76.4,171.2 Z M 111.5,228.7 L 145.4,223.2 L 142.2,199.9 Z" fill="#2a2a4e" stroke="none"/>
  <path d="M 142.3,123.7 L 169.1,104.5 M 138.2,274.5 L 156.5,267.6 M 263.5,202.1 L 266.1,146.7 M 226.1,247.0 L 263.5,202.1 M 76.4,171.2 L 52.9,181.7 M 52.9,181.7 L 27.9,212.0 M 192.4,25.8 L 141.7,20.0 M 141.7,20.0 L 98.4,29.3 M 196.6,93.0 L 221.3,75.2 M 221.3,75.2 L 218.1,44.8 M 20.0,82.3 L 20.0,125.2 M 20.0,125.2 L 28.7,138.7 M 242.6,118.0 L 209.0,114.3 M 47.1,250.7 L 95.3,273.2 M 47.8,158.1 L 90.1,155.1 M 156.5,267.6 L 156.5,306.0 M 192.1,306.0 L 192.1,267.6 M 156.5,306.0 L 156.4,348.1 M 192.0,348.1 L 192.1,306.0 M 221.2,380.0 L 192.0,348.1 M 156.4,348.1 L 185.6,380.0 M 185.6,380.0 L 221.2,380.0 M 157.0,157.7 L 142.3,123.7 M 108.6,138.3 L 123.1,172.3 M 112.9,208.3 L 121.4,207.6 M 121.4,207.6 L 120.8,200.6 M 120.8,200.6 L 112.4,203.6 M 112.4,203.6 L 112.9,208.3 M 123.1,214.2 L 127.4,209.7 M 127.4,209.7 L 123.7,206.2 M 123.7,206.2 L 120.6,211.9 M 120.6,211.9 L 123.1,214.2 M 209.0,114.3 L 177.4,127.0 M 192.1,267.6 L 226.1,247.0 M 177.4,127.0 L 163.7,142.5 M 218.1,44.8 L 192.4,25.8 M 98.4,29.3 L 51.9,43.8 M 90.1,155.1 L 108.6,138.3 M 51.9,43.8 L 20.0,82.3 M 28.7,138.7 L 47.8,158.1 M 169.1,104.5 L 196.6,93.0 M 266.1,146.7 L 242.6,118.0 M 34.4,233.2 L 47.1,250.7 M 95.3,273.2 L 138.2,274.5 M 27.9,212.0 L 34.4,233.2 M 163.7,142.5 L 157.0,157.7 M 123.1,172.3 L 76.4,171.2" fill="none" stroke="white" stroke-width="2" stroke-linecap="round"/>
  <polygon points="174.21367006957948,286.90885706780284 182.21367006957948,294.90885706780284 174.21367006957948,302.90885706780284 166.21367006957948,294.90885706780284" fill="#4a9eff" stroke="white" stroke-width="1"/>
</svg>