<svg xmlns="http://www.w3.org/2000/svg" viewBox="0 0 400 400">
  <rect width="400" height="400" fill="#1a1a2e"/>
  <path d="M 291.3,240.7 L 291.3,208.9 L 263.7,223.9 Z M 291.3,240.7 L 263.7,223.9 L 258.8,253.8 Z M 258.8,253.8 L 263.7,223.9 L 201.5,256.4 Z M 258.8,253.8 L 201.5,256.4 L 238.1,260.2 Z M 201.5,256.4 L 263.7,223.9 L 233.9,209.9 Z M 201.5,256.4 L 233.9,209.9 L 181.0,240.3 Z M 181.0,240.3 L 233.9,209.9 L 200.7,210.0 Z M 181.0,240.3 L 200.7,210.0 L 180.8,224.2 Z M 137.0,159.9 L 191.8,160.3 L 187.2,132.4 Z M 137.0,159.9 L 187.2,132.4 L 158.2,132.2 Z M 158.2,132.2 L 187.2,132.4 L 190.1,103.3 Z M 158.2,132.2 L 190.1,103.3 L 163.7,103.3 Z M 189.7,184.8 L 214.8,174.0 L 191.8,160.3 Z M 189.7,184.8 L 191.8,160.3 L 181.9,184.6 Z M 181.9,184.6 L 191.8,160.3 L 160.9,195.9 Z M 181.9,184.6 L 160.9,195.9 L 170.1,195.1 Z M 219.6,111.0 L 203.7,98.2 L 190.1,103.3 Z M 219.6,111.0 L 190.1,103.3 L 199.2,110.9 Z M 160.9,195.9 L 191.8,160.3 L 143.4,179.7 Z M 160.9,195.9 L 143.4,179.7 L 151.4,189.8 Z M 200.7,210.0 L 233.9,209.9 L 225.6,199.2 Z M 187.2,132.4 L 199.2,110.9 L 190.1,103.3 Z M 191.8,160.3 L 137.0,159.9 L 143.4,179.7 Z M 115.3,193.0 L 124.7,185.5 L 119.6,157.0 Z M 115.3,193.0 L 119.6,157.0 L 115.3,151.9 Z M 115.3,151.9 L 119.6,157.0 L 137.8,132.4 Z M 115.3,151.9 L 137.8,132.4 L 138.5,118.6 Z M 233.2,279.3 L 182.9,272.3 L 199.6,279.3 Z M 182.9,272.3 L 163.5,279.3 L 199.6,279.3 Z M 223.4,132.2 L 216.6,127.0 L 198.3,136.2 Z M 216.6,127.0 L 205.7,123.1 L 198.3,136.2 Z M 285.5,144.5 L 264.4,145.3 L 249.5,174.8 Z M 285.5,144.5 L 249.5,174.8 L 266.9,167.0 Z M 144.4,268.5 L 163.7,254.8 L 160.4,232.8 Z M 144.4,268.5 L 160.4,232.8 L 142.0,246.0 Z M 270.7,184.5 L 239.3,186.8 L 244.8,196.8 Z M 126.2,214.2 L 151.2,217.0 L 137.4,202.7 Z M 235.5,99.2 L 254.7,115.7 L 271.2,115.9 Z M 222.5,147.3 L 216.1,147.8 L 216.6,153.0 Z M 222.5,147.3 L 216.6,153.0 L 222.8,150.7 Z M 214.8,142.9 L 211.6,146.3 L 214.4,148.9 Z M 214.8,142.9 L 214.4,148.9 L 216.7,144.6 Z M 170.1,195.1 L 160.9,195.9 L 174.6,207.5 Z M 160.9,195.9 L 151.2,217.0 L 174.6,207.5 Z M 137.8,132.4 L 158.2,132.2 L 138.5,118.6 Z M 158.2,132.2 L 163.7,103.3 L 138.5,118.6 Z M 264.4,145.3 L 241.3,145.9 L 249.5,174.8 Z M 241.3,145.9 L 229.8,162.6 L 249.5,174.8 Z M 163.7,254.8 L 181.0,240.3 L 160.4,232.8 Z M 181.0,240.3 L 180.8,224.2 L 160.4,232.8 Z M 239.3,186.8 L 225.6,199.2 L 244.8,196.8 Z M 225.6,199.2 L 233.9,209.9 L 244.8,196.8 Z M 284.8,198.9 L 267.2,208.1 L 291.3,208.9 Z M 267.2,208.1 L 263.7,223.9 L 291.3,208.9 Z M 244.8,196.8 L 267.2,208.1 L 270.7,184.5 Z M 267.2,208.1 L 284.8,198.9 L 270.7,184.5 Z M 124.7,185.5 L 115.3,193.0 L 137.4,202.7 Z M 115.3,193.0 L 126.2,214.2 L 137.4,202.7 Z M 214.5,157.9 L 200.7,153.5 L 214.8,174.0 Z M 200.7,153.5 L 191.8,160.3 L 214.8,174.0 Z M 254.7,115.7 L 235.5,99.2 L 235.3,123.4 Z M 235.5,99.2 L 219.6,111.0 L 235.3,123.4 Z M 160.9,195.9 L 151.4,189.8 L 151.2,217.0 Z M 151.4,189.8 L 137.4,202.7 L 151.2,217.0 Z M 181.9,184.6 L 170.1,195.1 L 185.6,195.3 Z M 170.1,195.1 L 174.6,207.5 L 185.6,195.3 Z M 214.5,157.9 L 223.8,153.0 L 200.7,153.5 Z M 223.8,153.0 L 227.4,144.1 L 200.7,153.5 Z M 137.0,159.9 L 119.6,157.0 L 124.7,185.5 Z M 137.0,159.9 L 124.7,185.5 L 143.4,179.7 Z M 119.6,157.0 L 137.0,159.9 L 158.2,132.2 Z M 119.6,157.0 L 158.2,132.2 L 137.8,132.4 Z M 264.4,145.3 L 254.7,115.7 L 235.3,123.4 Z M 264.4,145.3 L 235.3,123.4 L 241.3,145.9 Z M 264.4,145.3 L 285.5,144.5 L 271.2,115.9 Z M 264.4,145.3 L 271.2,115.9 L 254.7,115.7 Z M 198.3,136.2 L 200.7,153.5 L 227.4,144.1 Z M 198.3,136.2 L 227.4,144.1 L 223.4,132.2 Z M 182.9,272.3 L 163.7,254.8 L 144.4,268.5 Z M 182.9,272.3 L 144.4,268.5 L 163.5,279.3 Z M 182.9,272.3 L 233.2,279.3 L 238.1,260.2 Z M 182.9,272.3 L 238.1,260.2 L 201.5,256.4 Z M 201.5,256.4 L 181.0,240.3 L 163.7,254.8 Z M 201.5,256.4 L 163.7,254.8 L 182.9,272.3 Z M 258.8,253.8 L 238.1,260.2 L 233.2,279.3 Z M 258.8,253.8 L 233.2,279.3 L 267.7,269.3 Z M 267.2,208.1 L 244.8,196.8 L 233.9,209.9 Z M 267.2,208.1 L 233.9,209.9 L 263.7,223.9 Z M 219.6,111.0 L 216.6,127.0 L 223.4,132.2 Z M 219.6,111.0 L 223.4,132.2 L 235.3,123.4 Z M 199.2,110.9 L 205.7,123.1 L 216.6,127.0 Z M 199.2,110.9 L 216.6,127.0 L 219.6,111.0 Z M 227.4,144.1 L 223.8,153.0 L 229.8,162.6 Z M 227.4,144.1 L 229.8,162.6 L 241.3,145.9 Z M 200.7,153.5 L 198.3,136.2 L 187.2,132.4 Z M 200.7,153.5 L 187.2,132.4 L 191.8,160.3 Z M 198.3,136.2 L 205.7,123.1 L 199.2,110.9 Z M 198.3,136.2 L 199.2,110.9 L 187.2,132.4 Z M 241.3,145.9 L 235.3,123.4 L 223.4,132.2 Z M 241.3,145.9 L 223.4,132.2 L 227.4,144.1 Z M 151.4,189.8 L 143.4,179.7 L 124.7,185.5 Z M 151.4,189.8 L 124.7,185.5 L 137.4,202.7 Z M 223.8,153.0 L 214.5,157.9 L 214.8,174.0 Z M 223.8,153.0 L 214.8,174.0 L 229.8,162.6 Z M 235.5,99.2 L 203.7,98.2 L 219.6,111.0 Z M 267.7,269.3 L 291.3,240.7 L 258.8,253.8 Z M 181.9,184.6 L 185.6,195.3 L 189.7,184.8 Z M 229.8,162.6 L 214.8,174.0 L 249.5,174.8 Z M 163.8,43.7 L 163.7,103.3 L 190.1,103.3 Z M 163.8,43.7 L 190.1,103.3 L 190.2,43.7 Z M 142.1,20.0 L 163.8,43.7 L 190.2,43.7 Z M 142.1,20.0 L 190.2,43.7 L 168.5,20.0 Z M 115.3,156.1 L 41.2,156.5 L 40.8,182.5 Z M 115.3,156.1 L 40.8,182.5 L 115.3,182.5 Z M 41.2,156.5 L 20.0,127.2 L 20.0,153.4 Z M 41.2,156.5 L 20.0,153.4 L 40.8,182.5 Z M 163.5,279.3 L 164.1,346.8 L 190.1,347.2 Z M 163.5,279.3 L 190.1,347.2 L 190.1,279.3 Z M 164.1,346.8 L 134.8,368.0 L 161.0,368.0 Z M 164.1,346.8 L 161.0,368.0 L 190.1,347.2 Z M 291.3,237.8 L 358.8,237.4 L 359.2,211.4 Z M 291.3,237.8 L 359.2,211.4 L 291.3,211.4 Z M 358.8,237.4 L 380.0,266.7 L 380.0,240.5 Z M 358.8,237.4 L 380.0,240.5 L 359.2,211.4 Z M 189.7,184.8 L 200.7,210.0 L 225.6,199.2 Z M 189.7,184.8 L 225.6,199.2 L 214.8,174.0 Z" fill="#2a2a4e" stroke="none"/>
  <path d="M 291.3,240.7 L 291.3,208.9 M 200.7,210.0 L 180.8,224.2 M 203.7,98.2 L 190.1,103.3 M 115.3,151.9 L 115.3,193.0 M 138.5,118.6 L 115.3,151.9 M 199.6,279.3 L 233.2,279.3 M 163.5,279.3 L 199.6,279.3 M 249.5,174.8 L 266.9,167.0 M 266.9,167.0 L 285.5,144.5 M 160.4,232.8 L 142.0,246.0 M 142.0,246.0 L 144.4,268.5 M 270.7,184.5 L 239.3,186.8 M 126.2,214.2 L 151.2,217.0 M 271.2,115.9 L 235.5,99.2 M 222.5,147.3 L 216.1,147.8 M 216.1,147.8 L 216.6,153.0 M 216.6,153.0 L 222.8,150.7 M 222.8,150.7 L 222.5,147.3 M 214.8,142.9 L 211.6,146.3 M 211.6,146.3 L 214.4,148.9 M 214.4,148.9 L 216.7,144.6 M 216.7,144.6 L 214.8,142.9 M 151.2,217.0 L 174.6,207.5 M 163.7,103.3 L 138.5,118.6 M 180.8,224.2 L 160.4,232.8 M 239.3,186.8 L 225.6,199.2 M 291.3,208.9 L 284.8,198.9 M 284.8,198.9 L 270.7,184.5 M 115.3,193.0 L 126.2,214.2 M 174.6,207.5 L 185.6,195.3 M 285.5,144.5 L 271.2,115.9 M 144.4,268.5 L 163.5,279.3 M 233.2,279.3 L 267.7,269.3 M 235.5,99.2 L 203.7,98.2 M 267.7,269.3 L 291.3,240.7 M 185.6,195.3 L 189.7,184.8 M 214.8,174.0 L 249.5,174.8 M 163.8,43.7 L 163.7,103.3 M 190.1,103.3 L 190.2,43.7 M 142.1,20.0 L 163.8,43.7 M 190.2,43.7 L 168.5,20.0 M 168.5,20.0 L 142.1,20.0 M 115.3,156.1 L 41.2,156.5 M 40.8,182.5 L 115.3,182.5 M 115.3,182.5 L 115.3,156.1 M 41.2,156.5 L 20.0,127.2 M 20.0,127.2 L 20.0,153.4 M 20.0,153.4 L 40.8,182.5 M 163.5,279.3 L 164.1,346.8 M 190.1,347.2 L 190.1,279.3 M 190.1,279.3 L 163.5,279.3 M 164.1,346.8 L 134.8,368.0 M 134.8,368.0 L 161.0,368.0 M 161.0,368.0 L 190.1,347.2 M 291.3,237.8 L 358.8,237.4 M 359.2,211.4 L 291.3,211.4 M 291.3,211.4 L 291.3,237.8 M 358.8,237.4 L 380.0,266.7 M 380.0,266.7 L 380.0,240.5 M 380.0,240.5 L 359.2,211.4 M 189.7,184.8 L 200.7,210.0 M 225.6,199.2 L 214.8,174.0" fill="none" stroke="white" stroke-width="2" stroke-linecap="round"/>
  <polygon points="306.8552535050163,216.45261018907087 314.8552535050163,224.45261018907087 306.8552535050163,232.45261018907087 298.8552535050163,224.45261018907087" fill="#4a9eff" stroke="white" stroke-width="1"/>
<polygon points="176.80458781625558,285.29351673526565 184.80458781625558,293.29351673526565 176.80458781625558,301.29351673526565 168.80458781625558,293.29351673526565" fill="#4a9eff" stroke="white" stroke-width="1"/>
<polygon points="103.00526174906733,161.13502010670754 111.00526174906733,169.13502010670754 103.00526174906733,177.13502010670754 95.00526174906733,169.13502010670754" fill="#4a9eff" stroke="white" stroke-width="1"/>
<polygon points="177.14801603025242,83.51056373390321 185.14801603025242,91.51056373390321 177.14801603025242,99.51056373390321 169.14801603025242,91.51056373390321" fill="#4a9eff" stroke="white" stroke-width="1"/>
</svg>