<svg xmlns="http://www.w3.org/2000/svg" viewBox="0 0 400 400">
  <rect width="400" height="400" fill="#1a1a2e"/>
  <path d="M 50.6,82.3 L 75.4,82.3 L 82.3,75.4 Z M 50.6,82.3 L 82.3,75.4 L 43.7,75.4 Z M 43.7,75.4 L 82.3,75.4 L 82.3,50.6 Z M 43.7,75.4 L 82.3,50.6 L 43.7,50.6 Z M 43.7,50.6 L 82.3,50.6 L 75.4,43.7 Z M 43.7,50.6 L 75.4,43.7 L 50.6,43.7 Z M 82.3,75.4 L 106.1,87.9 L 106.1,38.1 Z M 82.3,75.4 L 106.1,38.1 L 82.3,50.6 Z M 106.1,38.1 L 88.0,20.0 L 75.4,43.7 Z M 106.1,38.1 L 75.4,43.7 L 82.3,50.6 Z M 75.4,43.7 L 88.0,20.0 L 38.1,20.0 Z M 75.4,43.7 L 38.1,20.0 L 50.6,43.7 Z M 38.1,20.0 L 20.0,38.1 L 43.7,50.6 Z M 38.1,20.0 L 43.7,50.6 L 50.6,43.7 Z M 43.7,50.6 L 20.0,38.1 L 20.0,87.9 Z M 43.7,50.6 L 20.0,87.9 L 43.7,75.4 Z M 50.6,82.3 L 43.7,75.4 L 20.0,87.9 Z M 50.6,82.3 L 20.0,87.9 L 38.1,106.0 Z M 50.6,82.3 L 38.1,106.0 L 88.0,106.0 Z M 50.6,82.3 L 88.0,106.0 L 75.4,82.3 Z M 88.0,106.0 L 106.1,87.9 L 82.3,75.4 Z M 88.0,106.0 L 82.3,75.4 L 75.4,82.3 Z M 82.3,217.9 L 43.8,217.8 L 43.8,335.1 Z M 82.3,217.9 L 43.8,335.1 L 82.3,335.2 Z M 82.3,335.2 L 43.8,335.1 L 87.0,379.9 Z M 82.3,335.2 L 87.0,379.9 L 112.6,380.0 Z M 43.8,163.4 L 82.3,163.4 L 82.3,105.8 Z M 43.8,163.4 L 82.3,105.8 L 43.8,105.8 Z M 43.8,217.8 L 82.3,217.9 L 82.3,163.4 Z M 43.8,217.8 L 82.3,163.4 L 43.8,163.4 Z" fill="#2a2a4e" stroke="none"/>
  <path d="M 106.1,87.9 L 106.1,38.1 M 106.1,38.1 L 88.0,20.0 M 88.0,20.0 L 38.1,20.0 M 38.1,20.0 L 20.0,38.1 M 20.0,38.1 L 20.0,87.9 M 20.0,87.9 L 38.1,106.0 M 38.1,106.0 L 88.0,106.0 M 88.0,106.0 L 106.1,87.9 M 43.8,217.8 L 43.8,335.1 M 82.3,335.2 L 82.3,217.9 M 43.8,335.1 L 87.0,379.9 M 87.0,379.9 L 112.6,380.0 M 112.6,380.0 L 82.3,335.2 M 82.3,163.4 L 82.3,105.8 M 82.3,105.8 L 43.8,105.8 M 43.8,105.8 L 43.8,163.4 M 82.3,217.9 L 82.3,163.4 M 43.8,163.4 L 43.8,217.8" fill="none" stroke="white" stroke-width="2" stroke-linecap="round"/>
  <polygon points="62.55954039233636,209.87086923794675 70.55954039233636,217.87086923794675 62.55954039233636,225.87086923794675 54.55954039233636,217.87086923794675" fill="#4a9eff" stroke="white" stroke-width="1"/>
</svg>