<svg xmlns="http://www.w3.org/2000/svg" viewBox="0 0 400 400">
  <rect width="400" height="400" fill="#1a1a2e"/>
  <path d="M 69.8,189.0 L 56.4,189.0 L 52.6,192.8 Z M 69.8,189.0 L 52.6,192.8 L 73.6,192.8 Z M 73.6,192.8 L 52.6,192.8 L 52.6,206.3 Z M 73.6,192.8 L 52.6,206.3 L 73.6,206.3 Z M 73.6,206.3 L 52.6,206.3 L 56.4,210.0 Z M 73.6,206.3 L 56.4,210.0 L 69.8,210.0 Z M 52.6,192.8 L 39.7,186.0 L 39.7,213.0 Z M 52.6,192.8 L 39.7,213.0 L 52.6,206.3 Z M 39.7,213.0 L 49.6,222.9 L 56.4,210.0 Z M 39.7,213.0 L 56.4,210.0 L 52.6,206.3 Z M 56.4,210.0 L 49.6,222.9 L 76.6,222.9 Z M 56.4,210.0 L 76.6,222.9 L 69.8,210.0 Z M 76.6,222.9 L 86.5,213.0 L 73.6,206.3 Z M 76.6,222.9 L 73.6,206.3 L 69.8,210.0 Z M 73.6,206.3 L 86.5,213.0 L 86.5,186.0 Z M 73.6,206.3 L 86.5,186.0 L 73.6,192.8 Z M 69.8,189.0 L 73.6,192.8 L 86.5,186.0 Z M 69.8,189.0 L 86.5,186.0 L 76.6,176.1 Z M 69.8,189.0 L 76.6,176.1 L 49.6,176.1 Z M 69.8,189.0 L 49.6,176.1 L 56.4,189.0 Z M 49.6,176.1 L 39.7,186.0 L 52.6,192.8 Z M 49.6,176.1 L 52.6,192.8 L 56.4,189.0 Z M 40.9,20.0 L 20.0,20.0 L 53.3,43.8 Z M 40.9,20.0 L 53.3,43.8 L 73.5,43.9 Z M 73.5,43.9 L 53.3,43.8 L 61.7,79.0 Z M 73.5,43.9 L 61.7,79.0 L 82.1,82.6 Z M 82.1,82.6 L 61.7,79.0 L 52.7,115.6 Z M 82.1,82.6 L 52.7,115.6 L 73.5,115.6 Z M 52.7,256.8 L 73.5,256.8 L 73.5,222.9 Z M 52.7,256.8 L 73.5,222.9 L 52.7,222.9 Z M 52.7,289.5 L 73.5,289.5 L 73.5,256.8 Z M 52.7,289.5 L 73.5,256.8 L 52.7,256.8 Z M 46.9,320.8 L 67.8,320.8 L 73.5,289.5 Z M 46.9,320.8 L 73.5,289.5 L 52.7,289.5 Z M 52.7,350.4 L 73.5,350.4 L 67.8,320.8 Z M 52.7,350.4 L 67.8,320.8 L 46.9,320.8 Z M 74.0,380.0 L 94.9,380.0 L 73.5,350.4 Z M 74.0,380.0 L 73.5,350.4 L 52.7,350.4 Z M 73.5,145.2 L 52.7,145.1 L 52.7,176.5 Z M 73.5,145.2 L 52.7,176.5 L 73.5,176.5 Z M 73.5,115.6 L 52.7,115.6 L 52.7,145.1 Z M 73.5,115.6 L 52.7,145.1 L 73.5,145.2 Z" fill="#2a2a4e" stroke="none"/>
  <path d="M 39.7,186.0 L 39.7,213.0 M 39.7,213.0 L 49.6,222.9 M 49.6,222.9 L 76.6,222.9 M 76.6,222.9 L 86.5,213.0 M 86.5,213.0 L 86.5,186.0 M 86.5,186.0 L 76.6,176.1 M 76.6,176.1 L 49.6,176.1 M 49.6,176.1 L 39.7,186.0 M 40.9,20.0 L 20.0,20.0 M 20.0,20.0 L 53.3,43.8 M 73.5,43.9 L 40.9,20.0 M 53.3,43.8 L 61.7,79.0 M 82.1,82.6 L 73.5,43.9 M 61.7,79.0 L 52.7,115.6 M 73.5,115.6 L 82.1,82.6 M 73.5,256.8 L 73.5,222.9 M 73.5,222.9 L 52.7,222.9 M 52.7,222.9 L 52.7,256.8 M 73.5,289.5 L 73.5,256.8 M 52.7,256.8 L 52.7,289.5 M 67.8,320.8 L 73.5,289.5 M 52.7,289.5 L 46.9,320.8 M 73.5,350.4 L 67.8,320.8 M 46.9,320.8 L 52.7,350.4 M 74.0,380.0 L 94.9,380.0 M 94.9,380.0 L 73.5,350.4 M 52.7,350.4 L 74.0,380.0 M 52.7,145.1 L 52.7,176.5 M 52.7,176.5 L 73.5,176.5 M 73.5,176.5 L 73.5,145.2 M 52.7,115.6 L 52.7,145.1 M 73.5,145.2 L 73.5,115.6" fill="none" stroke="white" stroke-width="2" stroke-linecap="round"/>
  <polygon points="63.261273027410276,136.25859921199878 71.26127302741028,144.25859921199878 63.261273027410276,152.25859921199878 55.261273027410276,144.25859921199878" fill="#4a9eff" stroke="white" stroke-width="1"/>
<polygon points="63.035984914546134,253.36435075605186 71.03598491454613,261.36435075605186 63.035984914546134,269.36435075605186 55.035984914546134,261.36435075605186" fill="#4a9eff" stroke="white" stroke-width="1"/>
</svg>