<svg xmlns="http://www.w3.org/2000/svg" viewBox="0 0 400 400">
  <rect width="400" height="400" fill="#1a1a2e"/>
  <path d="M 246.3,54.0 L 239.1,44.8 L 202.2,71.6 Z M 246.3,54.0 L 202.2,71.6 L 252.2,72.0 Z M 252.2,72.0 L 202.2,71.6 L 206.4,97.1 Z M 252.2,72.0 L 206.4,97.1 L 232.8,97.2 Z M 232.8,97.2 L 206.4,97.1 L 203.8,123.6 Z M 232.8,97.2 L 203.8,123.6 L 227.8,123.6 Z M 111.6,62.1 L 111.6,86.1 L 136.1,85.3 Z M 111.6,62.1 L 136.1,85.3 L 140.0,66.3 Z M 140.0,66.3 L 136.1,85.3 L 155.3,89.3 Z M 140.0,66.3 L 155.3,89.3 L 164.7,70.0 Z M 206.4,97.1 L 195.5,116.6 L 203.8,123.6 Z M 195.5,116.6 L 191.4,128.2 L 203.8,123.6 Z M 230.4,39.2 L 217.4,37.7 L 203.6,41.2 Z M 230.4,39.2 L 203.6,41.2 L 202.2,71.6 Z M 203.6,41.2 L 185.1,48.8 L 177.6,64.1 Z M 203.6,41.2 L 177.6,64.1 L 202.2,71.6 Z M 195.5,116.6 L 176.9,116.6 L 191.4,128.2 Z M 239.1,44.8 L 230.4,39.2 L 202.2,71.6 Z M 140.0,66.3 L 114.7,56.4 L 111.6,62.1 Z M 271.9,41.9 L 263.4,48.7 L 268.0,74.7 Z M 271.9,41.9 L 268.0,74.7 L 271.9,79.3 Z M 271.9,79.3 L 268.0,74.7 L 251.5,97.1 Z M 271.9,79.3 L 251.5,97.1 L 250.8,109.7 Z M 173.4,97.3 L 179.7,102.0 L 196.3,93.6 Z M 179.7,102.0 L 189.5,105.5 L 196.3,93.6 Z M 129.1,44.3 L 144.6,53.9 L 157.9,56.6 Z M 129.1,44.3 L 157.9,56.6 L 158.7,34.0 Z M 262.0,22.5 L 239.2,20.0 L 251.9,33.0 Z M 162.4,127.3 L 144.9,112.2 L 129.9,112.1 Z M 179.7,78.3 L 174.0,80.4 L 174.3,83.5 Z M 179.7,78.3 L 174.3,83.5 L 180.1,83.0 Z M 181.7,82.1 L 179.6,85.9 L 181.3,87.5 Z M 181.7,82.1 L 181.3,87.5 L 184.2,84.4 Z M 155.3,89.3 L 136.1,85.3 L 141.0,100.3 Z M 136.1,85.3 L 129.0,93.8 L 141.0,100.3 Z M 176.9,116.6 L 179.7,102.0 L 162.6,105.2 Z M 179.7,102.0 L 173.4,97.3 L 162.6,105.2 Z M 195.5,116.6 L 189.5,105.5 L 176.9,116.6 Z M 189.5,105.5 L 179.7,102.0 L 176.9,116.6 Z M 176.9,116.6 L 162.6,105.2 L 162.4,127.3 Z M 162.6,105.2 L 144.9,112.2 L 162.4,127.3 Z M 194.1,77.8 L 181.5,73.9 L 196.3,93.6 Z M 181.5,73.9 L 173.1,78.3 L 196.3,93.6 Z M 155.3,89.3 L 169.8,86.4 L 164.7,70.0 Z M 169.8,86.4 L 173.1,78.3 L 164.7,70.0 Z M 268.0,74.7 L 263.4,48.7 L 246.3,54.0 Z M 268.0,74.7 L 246.3,54.0 L 252.2,72.0 Z M 239.2,20.0 L 216.4,21.1 L 217.4,37.7 Z M 239.2,20.0 L 217.4,37.7 L 230.4,39.2 Z M 227.8,123.6 L 250.8,109.7 L 251.5,97.1 Z M 227.8,123.6 L 251.5,97.1 L 232.8,97.2 Z M 232.8,97.2 L 251.5,97.1 L 268.0,74.7 Z M 232.8,97.2 L 268.0,74.7 L 252.2,72.0 Z M 144.9,112.2 L 141.0,100.3 L 129.0,93.8 Z M 144.9,112.2 L 129.0,93.8 L 129.9,112.1 Z M 169.8,86.4 L 173.4,97.3 L 196.3,93.6 Z M 169.8,86.4 L 196.3,93.6 L 173.1,78.3 Z M 271.9,41.9 L 262.0,22.5 L 251.9,33.0 Z M 271.9,41.9 L 251.9,33.0 L 263.4,48.7 Z M 206.4,97.1 L 202.2,71.6 L 194.1,77.8 Z M 206.4,97.1 L 194.1,77.8 L 196.3,93.6 Z M 195.5,116.6 L 206.4,97.1 L 196.3,93.6 Z M 195.5,116.6 L 196.3,93.6 L 189.5,105.5 Z M 251.9,33.0 L 239.1,44.8 L 246.3,54.0 Z M 251.9,33.0 L 246.3,54.0 L 263.4,48.7 Z M 251.9,33.0 L 239.2,20.0 L 230.4,39.2 Z M 251.9,33.0 L 230.4,39.2 L 239.1,44.8 Z M 216.4,21.1 L 198.6,29.4 L 203.6,41.2 Z M 216.4,21.1 L 203.6,41.2 L 217.4,37.7 Z M 157.9,56.6 L 169.1,49.9 L 177.8,36.2 Z M 157.9,56.6 L 177.8,36.2 L 158.7,34.0 Z M 177.6,64.1 L 164.7,70.0 L 173.1,78.3 Z M 177.6,64.1 L 173.1,78.3 L 181.5,73.9 Z M 203.6,41.2 L 198.6,29.4 L 177.8,36.2 Z M 203.6,41.2 L 177.8,36.2 L 185.1,48.8 Z M 194.1,77.8 L 202.2,71.6 L 177.6,64.1 Z M 194.1,77.8 L 177.6,64.1 L 181.5,73.9 Z M 155.3,89.3 L 141.0,100.3 L 144.9,112.2 Z M 155.3,89.3 L 144.9,112.2 L 162.6,105.2 Z M 155.3,89.3 L 162.6,105.2 L 173.4,97.3 Z M 155.3,89.3 L 173.4,97.3 L 169.8,86.4 Z M 111.6,86.1 L 118.3,93.1 L 129.0,93.8 Z M 111.6,86.1 L 129.0,93.8 L 136.1,85.3 Z M 144.6,53.9 L 140.0,66.3 L 164.7,70.0 Z M 144.6,53.9 L 164.7,70.0 L 157.9,56.6 Z M 144.6,53.9 L 129.1,44.3 L 114.7,56.4 Z M 144.6,53.9 L 114.7,56.4 L 140.0,66.3 Z M 169.1,49.9 L 157.9,56.6 L 164.7,70.0 Z M 169.1,49.9 L 164.7,70.0 L 177.6,64.1 Z M 177.8,36.2 L 169.1,49.9 L 177.6,64.1 Z M 177.8,36.2 L 177.6,64.1 L 185.1,48.8 Z M 162.4,127.3 L 191.4,128.2 L 176.9,116.6 Z M 129.0,93.8 L 118.3,93.1 L 129.9,112.1 Z M 227.8,123.6 L 203.8,123.6 L 203.8,149.5 Z M 227.8,123.6 L 203.8,149.5 L 227.8,149.5 Z M 227.8,149.5 L 203.8,149.5 L 203.7,177.9 Z M 227.8,149.5 L 203.7,177.9 L 227.8,177.9 Z M 203.7,177.9 L 227.5,199.5 L 251.5,199.5 Z M 203.7,177.9 L 251.5,199.5 L 227.8,177.9 Z M 111.6,62.1 L 83.6,62.2 L 83.7,86.1 Z M 111.6,62.1 L 83.7,86.1 L 111.6,86.1 Z M 83.6,62.2 L 56.1,62.4 L 55.7,86.1 Z M 83.6,62.2 L 55.7,86.1 L 83.7,86.1 Z M 32.8,59.6 L 55.7,86.1 L 56.1,62.4 Z M 32.8,59.6 L 56.1,62.4 L 32.8,35.7 Z M 299.4,55.5 L 271.9,55.4 L 271.9,79.5 Z M 299.4,55.5 L 271.9,79.5 L 299.5,79.4 Z M 334.3,55.5 L 299.4,55.5 L 299.5,79.4 Z M 334.3,55.5 L 299.5,79.4 L 327.0,79.1 Z M 327.0,79.1 L 346.3,105.8 L 359.4,93.5 Z M 327.0,79.1 L 359.4,93.5 L 334.3,55.5 Z M 380.0,112.5 L 359.4,93.5 L 346.3,105.8 Z M 380.0,112.5 L 346.3,105.8 L 369.7,128.3 Z M 20.0,48.8 L 32.8,59.6 L 32.8,35.7 Z M 20.0,48.8 L 32.8,35.7 L 20.0,26.9 Z" fill="#2a2a4e" stroke="none"/>
  <path d="M 191.4,128.2 L 203.8,123.6 M 114.7,56.4 L 111.6,62.1 M 271.9,79.3 L 271.9,41.9 M 250.8,109.7 L 271.9,79.3 M 158.7,34.0 L 129.1,44.3 M 262.0,22.5 L 239.2,20.0 M 129.9,112.1 L 162.4,127.3 M 179.7,78.3 L 174.0,80.4 M 174.0,80.4 L 174.3,83.5 M 174.3,83.5 L 180.1,83.0 M 180.1,83.0 L 179.7,78.3 M 181.7,82.1 L 179.6,85.9 M 179.6,85.9 L 181.3,87.5 M 181.3,87.5 L 184.2,84.4 M 184.2,84.4 L 181.7,82.1 M 239.2,20.0 L 216.4,21.1 M 227.8,123.6 L 250.8,109.7 M 271.9,41.9 L 262.0,22.5 M 216.4,21.1 L 198.6,29.4 M 177.8,36.2 L 158.7,34.0 M 198.6,29.4 L 177.8,36.2 M 111.6,86.1 L 118.3,93.1 M 129.1,44.3 L 114.7,56.4 M 162.4,127.3 L 191.4,128.2 M 118.3,93.1 L 129.9,112.1 M 203.8,123.6 L 203.8,149.5 M 227.8,149.5 L 227.8,123.6 M 203.8,149.5 L 203.7,177.9 M 227.8,177.9 L 227.8,149.5 M 203.7,177.9 L 227.5,199.5 M 227.5,199.5 L 251.5,199.5 M 251.5,199.5 L 227.8,177.9 M 111.6,62.1 L 83.6,62.2 M 83.7,86.1 L 111.6,86.1 M 83.6,62.2 L 56.1,62.4 M 55.7,86.1 L 83.7,86.1 M 32.8,59.6 L 55.7,86.1 M 56.1,62.4 L 32.8,35.7 M 299.4,55.5 L 271.9,55.4 M 271.9,55.4 L 271.9,79.5 M 271.9,79.5 L 299.5,79.4 M 334.3,55.5 L 299.4,55.5 M 299.5,79.4 L 327.0,79.1 M 327.0,79.1 L 346.3,105.8 M 359.4,93.5 L 334.3,55.5 M 380.0,112.5 L 359.4,93.5 M 346.3,105.8 L 369.7,128.3 M 369.7,128.3 L 380.0,112.5 M 20.0,48.8 L 32.8,59.6 M 32.8,35.7 L 20.0,26.9 M 20.0,26.9 L 20.0,48.8" fill="none" stroke="white" stroke-width="2" stroke-linecap="round"/>
  <polygon points="215.8126322514089,130.2334419838901 223.8126322514089,138.2334419838901 215.8126322514089,146.2334419838901 207.8126322514089,138.2334419838901" fill="#4a9eff" stroke="white" stroke-width="1"/>
<polygon points="299.3756672590436,59.09935834355689 307.3756672590436,67.09935834355689 299.3756672590436,75.09935834355689 291.3756672590436,67.09935834355689" fill="#4a9eff" stroke="white" stroke-width="1"/>
<polygon points="95.75790466527584,66.28358788311601 103.75790466527584,74.28358788311601 95.75790466527584,82.28358788311601 87.75790466527584,74.28358788311601" fill="#4a9eff" stroke="white" stroke-width="1"/>
</svg>