<svg xmlns="http://www.w3.org/2000/svg" viewBox="0 0 400 400">
  <rect width="400" height="400" fill="#1a1a2e"/>
  <path d="M 158.4,147.4 L 147.7,148.1 L 146.2,151.1 Z M 158.4,147.4 L 146.2,151.1 L 166.2,180.0 Z M 166.2,180.0 L 146.2,151.1 L 94.6,151.6 Z M 166.2,180.0 L 94.6,151.6 L 80.0,167.8 Z M 157.7,142.4 L 158.4,147.4 L 192.5,179.3 Z M 157.7,142.4 L 192.5,179.3 L 165.9,142.3 Z M 165.9,142.3 L 192.5,179.3 L 193.2,176.1 Z M 165.9,142.3 L 193.2,176.1 L 165.9,132.1 Z M 165.9,132.1 L 193.2,176.1 L 199.4,175.4 Z M 165.9,132.1 L 199.4,175.4 L 198.9,170.9 Z M 165.9,132.1 L 198.9,170.9 L 257.8,170.4 Z M 165.9,132.1 L 257.8,170.4 L 190.1,132.1 Z M 186.3,127.4 L 165.8,118.3 L 165.7,127.0 Z M 166.0,188.5 L 165.5,193.4 L 212.1,193.6 Z M 166.0,188.5 L 212.1,193.6 L 255.7,188.1 Z M 255.7,188.1 L 212.1,193.6 L 212.7,199.5 Z M 255.7,188.1 L 212.7,199.5 L 253.1,199.6 Z M 210.4,129.6 L 244.0,137.1 L 222.4,106.2 Z M 244.0,137.1 L 265.6,115.0 L 222.4,106.2 Z M 265.6,115.0 L 244.0,137.1 L 281.3,176.7 Z M 244.0,137.1 L 254.9,181.3 L 281.3,176.7 Z M 122.1,121.2 L 165.8,118.3 L 137.7,103.8 Z M 101.1,98.5 L 104.1,123.1 L 189.6,112.8 Z M 101.1,98.5 L 189.6,112.8 L 186.7,88.1 Z M 222.4,106.2 L 179.2,97.4 L 176.7,122.1 Z M 222.4,106.2 L 176.7,122.1 L 210.4,129.6 Z M 80.0,167.8 L 78.7,179.5 L 166.0,188.5 Z M 80.0,167.8 L 166.0,188.5 L 166.2,180.0 Z M 158.4,147.4 L 166.2,180.0 L 192.5,179.3 Z M 166.0,188.5 L 78.7,179.5 L 165.5,193.4 Z M 218.0,20.0 L 218.0,105.0 L 255.2,28.1 Z M 218.0,105.0 L 255.2,111.9 L 255.2,28.1 Z M 76.5,380.0 L 113.8,380.0 L 113.8,309.8 Z M 76.5,380.0 L 113.8,309.8 L 76.5,309.8 Z M 21.9,242.0 L 36.9,241.4 L 35.0,198.1 Z M 21.9,242.0 L 35.0,198.1 L 20.0,198.7 Z M 287.7,274.6 L 297.3,275.8 L 300.7,232.6 Z M 287.7,274.6 L 300.7,232.6 L 291.1,231.3 Z M 72.3,207.0 L 71.8,216.7 L 115.2,216.7 Z M 72.3,207.0 L 115.2,216.7 L 115.7,207.0 Z M 94.6,151.6 L 122.1,121.2 L 119.3,87.2 Z M 94.6,151.6 L 119.3,87.2 L 61.6,151.1 Z M 67.3,182.8 L 184.0,199.5 L 187.7,177.4 Z M 67.3,182.8 L 187.7,177.4 L 70.6,160.3 Z M 356.9,176.6 L 356.9,139.3 L 274.3,139.3 Z M 356.9,176.6 L 274.3,139.3 L 274.3,176.6 Z M 184.3,264.8 L 194.7,275.6 L 225.7,245.3 Z M 184.3,264.8 L 225.7,245.3 L 215.3,234.5 Z M 182.6,49.5 L 171.3,39.6 L 143.0,72.5 Z M 182.6,49.5 L 143.0,72.5 L 154.4,82.4 Z M 61.6,151.1 L 80.0,167.8 L 94.6,151.6 Z M 122.1,121.2 L 137.7,103.8 L 119.3,87.2 Z" fill="#2a2a4e" stroke="none"/>
  <path d="M 158.4,147.4 L 147.7,148.1 M 147.7,148.1 L 146.2,151.1 M 146.2,151.1 L 94.6,151.6 M 157.7,142.4 L 158.4,147.4 M 165.9,142.3 L 157.7,142.4 M 192.5,179.3 L 193.2,176.1 M 165.9,132.1 L 165.9,142.3 M 193.2,176.1 L 199.4,175.4 M 199.4,175.4 L 198.9,170.9 M 198.9,170.9 L 257.8,170.4 M 257.8,170.4 L 190.1,132.1 M 190.1,132.1 L 165.9,132.1 M 186.3,127.4 L 165.8,118.3 M 165.8,118.3 L 165.7,127.0 M 165.7,127.0 L 186.3,127.4 M 165.5,193.4 L 212.1,193.6 M 255.7,188.1 L 166.0,188.5 M 212.1,193.6 L 212.7,199.5 M 212.7,199.5 L 253.1,199.6 M 253.1,199.6 L 255.7,188.1 M 210.4,129.6 L 244.0,137.1 M 265.6,115.0 L 222.4,106.2 M 281.3,176.7 L 265.6,115.0 M 244.0,137.1 L 254.9,181.3 M 254.9,181.3 L 281.3,176.7 M 122.1,121.2 L 165.8,118.3 M 165.8,118.3 L 137.7,103.8 M 101.1,98.5 L 104.1,123.1 M 104.1,123.1 L 189.6,112.8 M 189.6,112.8 L 186.7,88.1 M 186.7,88.1 L 101.1,98.5 M 222.4,106.2 L 179.2,97.4 M 179.2,97.4 L 176.7,122.1 M 176.7,122.1 L 210.4,129.6 M 80.0,167.8 L 78.7,179.5 M 166.0,188.5 L 166.2,180.0 M 166.2,180.0 L 192.5,179.3 M 78.7,179.5 L 165.5,193.4 M 218.0,20.0 L 218.0,105.0 M 255.2,28.1 L 218.0,20.0 M 218.0,105.0 L 255.2,111.9 M 255.2,111.9 L 255.2,28.1 M 76.5,380.0 L 113.8,380.0 M 113.8,380.0 L 113.8,309.8 M 113.8,309.8 L 76.5,309.8 M 76.5,309.8 L 76.5,380.0 M 21.9,242.0 L 36.9,241.4 M 36.9,241.4 L 35.0,198.1 M 35.0,198.1 L 20.0,198.7 M 20.0,198.7 L 21.9,242.0 M 287.7,274.6 L 297.3,275.8 M 297.3,275.8 L 300.7,232.6 M 300.7,232.6 L 291.1,231.3 M 291.1,231.3 L 287.7,274.6 M 72.3,207.0 L 71.8,216.7 M 71.8,216.7 L 115.2,216.7 M 115.2,216.7 L 115.7,207.0 M 115.7,207.0 L 72.3,207.0 M 94.6,151.6 L 122.1,121.2 M 119.3,87.2 L 61.6,151.1 M 67.3,182.8 L 184.0,199.5 M 184.0,199.5 L 187.7,177.4 M 187.7,177.4 L 70.6,160.3 M 70.6,160.3 L 67.3,182.8 M 356.9,176.6 L 356.9,139.3 M 356.9,139.3 L 274.3,139.3 M 274.3,139.3 L 274.3,176.6 M 274.3,176.6 L 356.9,176.6 M 184.3,264.8 L 194.7,275.6 M 194.7,275.6 L 225.7,245.3 M 225.7,245.3 L 215.3,234.5 M 215.3,234.5 L 184.3,264.8 M 182.6,49.5 L 171.3,39.6 M 171.3,39.6 L 143.0,72.5 M 143.0,72.5 L 154.4,82.4 M 154.4,82.4 L 182.6,49.5 M 61.6,151.1 L 80.0,167.8 M 137.7,103.8 L 119.3,87.2" fill="none" stroke="white" stroke-width="2" stroke-linecap="round"/>
  <polygon points="236.1126456000783,83.1091217890223 244.1126456000783,91.1091217890223 236.1126456000783,99.1091217890223 228.1126456000783,91.1091217890223" fill="#4a9eff" stroke="white" stroke-width="1"/>
<polygon points="310.09760145134845,151.10416254141256 318.09760145134845,159.10416254141256 310.09760145134845,167.10416254141256 302.09760145134845,159.10416254141256" fill="#4a9eff" stroke="white" stroke-width="1"/>
</svg>