<svg xmlns="http://www.w3.org/2000/svg" viewBox="0 0 400 400">
  <rect width="400" height="400" fill="#1a1a2e"/>
  <path d="M 237.3,244.0 L 199.3,244.1 L 199.4,295.9 Z M 237.3,244.0 L 199.4,295.9 L 247.6,257.3 Z M 247.6,257.3 L 199.4,295.9 L 241.7,296.1 Z M 247.6,257.3 L 241.7,296.1 L 247.6,279.8 Z M 151.4,244.1 L 151.5,192.3 L 103.0,192.3 Z M 151.4,244.1 L 103.0,192.3 L 102.7,244.1 Z M 64.4,242.1 L 56.6,295.5 L 102.5,295.6 Z M 64.4,242.1 L 102.5,295.6 L 102.7,244.1 Z M 199.3,192.3 L 201.5,154.1 L 169.4,140.8 Z M 199.3,192.3 L 169.4,140.8 L 151.5,192.3 Z M 151.5,192.3 L 169.4,140.8 L 151.6,144.1 Z M 151.5,192.3 L 151.6,144.1 L 103.2,145.0 Z M 151.5,192.3 L 103.2,145.0 L 103.0,192.3 Z M 103.0,192.3 L 103.2,145.0 L 74.9,162.5 Z M 103.0,192.3 L 74.9,162.5 L 52.8,213.2 Z M 220.6,176.0 L 201.5,154.1 L 199.3,192.3 Z M 220.6,176.0 L 199.3,192.3 L 220.6,214.5 Z M 220.6,214.5 L 199.3,192.3 L 151.5,192.3 Z M 220.6,214.5 L 151.5,192.3 L 199.3,244.1 Z M 199.3,244.1 L 151.5,192.3 L 151.4,244.1 Z M 199.3,244.1 L 151.4,244.1 L 199.4,295.9 Z M 199.4,295.9 L 151.4,244.1 L 102.7,244.1 Z M 199.4,295.9 L 102.7,244.1 L 169.1,322.0 Z M 169.1,322.0 L 102.7,244.1 L 102.5,295.6 Z M 169.1,322.0 L 102.5,295.6 L 139.2,343.4 Z M 139.2,343.4 L 102.5,295.6 L 84.9,342.8 Z M 102.5,295.6 L 59.3,319.0 L 84.9,342.8 Z M 169.1,322.0 L 204.8,323.1 L 241.7,296.1 Z M 169.1,322.0 L 241.7,296.1 L 199.4,295.9 Z M 64.4,242.1 L 102.7,244.1 L 103.0,192.3 Z M 64.4,242.1 L 103.0,192.3 L 52.8,213.2 Z M 102.5,295.6 L 56.6,295.5 L 59.3,319.0 Z M 199.3,244.1 L 237.3,244.0 L 220.6,214.5 Z M 95.1,169.3 L 91.2,175.6 L 93.9,178.5 Z M 95.1,169.3 L 93.9,178.5 L 99.2,173.6 Z M 85.5,262.6 L 81.5,269.0 L 84.2,271.9 Z M 85.5,262.6 L 84.2,271.9 L 89.5,266.9 Z M 140.1,315.4 L 143.1,322.3 L 147.0,321.7 Z M 140.1,315.4 L 147.0,321.7 L 145.9,314.6 Z M 144.1,313.5 L 149.0,315.8 L 150.9,313.6 Z M 144.1,313.5 L 150.9,313.6 L 146.8,310.1 Z M 188.2,244.2 L 191.2,251.1 L 195.1,250.5 Z M 188.2,244.2 L 195.1,250.5 L 194.1,243.3 Z M 192.2,242.2 L 197.2,244.6 L 199.1,242.3 Z M 192.2,242.2 L 199.1,242.3 L 195.0,238.9 Z M 132.2,220.2 L 135.1,227.1 L 139.1,226.5 Z M 132.2,220.2 L 139.1,226.5 L 138.0,219.4 Z M 146.2,209.0 L 140.2,213.6 L 141.8,217.3 Z M 146.2,209.0 L 141.8,217.3 L 148.5,214.5 Z M 102.4,90.5 L 132.5,90.5 L 91.5,39.1 Z M 102.4,90.5 L 91.5,39.1 L 72.1,46.7 Z M 72.1,46.7 L 91.5,39.1 L 40.1,20.0 Z M 72.1,46.7 L 40.1,20.0 L 20.0,20.0 Z M 233.8,168.0 L 214.4,176.0 L 214.4,207.7 Z M 233.8,168.0 L 214.4,207.7 L 233.8,204.1 Z M 233.8,204.1 L 214.4,207.7 L 214.4,239.5 Z M 233.8,204.1 L 214.4,239.5 L 233.8,240.3 Z M 309.5,253.3 L 309.5,283.4 L 360.9,247.3 Z M 309.5,253.3 L 360.9,247.3 L 353.1,227.7 Z M 353.1,227.7 L 360.9,247.3 L 380.0,196.0 Z M 353.1,227.7 L 380.0,196.0 L 380.0,175.9 Z M 91.7,328.6 L 71.2,319.5 L 84.9,346.7 Z M 71.2,319.5 L 55.9,333.9 L 84.9,346.7 Z M 71.2,319.5 L 63.1,298.5 L 55.9,333.9 Z M 63.1,298.5 L 42.2,297.9 L 55.9,333.9 Z M 63.1,298.5 L 69.8,277.9 L 42.2,297.9 Z M 69.8,277.9 L 54.5,262.3 L 42.2,297.9 Z M 52.6,212.3 L 60.8,242.2 L 71.8,206.8 Z M 60.8,242.2 L 81.7,242.7 L 71.8,206.8 Z M 60.8,242.2 L 54.5,262.3 L 81.7,242.7 Z M 54.5,262.3 L 69.8,277.9 L 81.7,242.7 Z M 176.1,160.1 L 198.5,160.1 L 168.0,140.8 Z M 198.5,160.1 L 206.6,140.8 L 168.0,140.8 Z M 206.6,140.8 L 198.5,160.1 L 233.8,168.0 Z M 198.5,160.1 L 214.4,176.0 L 233.8,168.0 Z M 233.8,204.1 L 214.4,207.7 L 233.8,240.3 Z M 214.4,207.7 L 214.4,239.5 L 233.8,240.3 Z M 214.4,176.0 L 214.4,207.7 L 233.8,168.0 Z M 214.4,207.7 L 233.8,204.1 L 233.8,168.0 Z M 132.5,90.5 L 102.4,90.5 L 102.4,160.3 Z M 132.5,90.5 L 102.4,160.3 L 132.5,160.3 Z M 132.5,90.5 L 102.4,90.5 L 102.4,160.3 Z M 132.5,90.5 L 102.4,160.3 L 132.5,160.3 Z M 72.1,46.7 L 102.4,90.5 L 132.5,90.5 Z M 72.1,46.7 L 132.5,90.5 L 91.5,39.1 Z M 198.5,160.1 L 206.6,140.8 L 168.0,140.8 Z M 198.5,160.1 L 168.0,140.8 L 176.1,160.1 Z M 214.4,176.0 L 233.8,168.0 L 206.6,140.8 Z M 214.4,176.0 L 206.6,140.8 L 198.5,160.1 Z M 259.9,229.9 L 272.1,229.4 L 270.5,194.3 Z M 259.9,229.9 L 270.5,194.3 L 258.4,194.8 Z M 239.7,253.3 L 239.7,283.4 L 309.5,283.4 Z M 239.7,253.3 L 309.5,283.4 L 309.5,253.3 Z M 239.7,253.3 L 239.7,283.4 L 309.5,283.4 Z M 239.7,253.3 L 309.5,283.4 L 309.5,253.3 Z M 309.5,283.4 L 360.9,247.3 L 353.1,227.7 Z M 309.5,283.4 L 353.1,227.7 L 309.5,253.3 Z M 101.9,106.7 L 101.9,102.4 L 98.5,104.5 Z M 132.5,138.6 L 135.9,136.5 L 132.5,134.4 Z M 102.2,141.3 L 102.2,137.1 L 98.8,139.2 Z M 132.5,96.9 L 135.9,94.8 L 132.5,92.7 Z M 175.4,138.4 L 173.4,134.6 L 171.4,138.1 Z M 209.5,143.7 L 210.6,139.6 L 206.7,140.8 Z M 233.4,167.8 L 234.5,163.7 L 230.6,164.9 Z M 233.7,226.1 L 237.4,223.9 L 233.8,222.0 Z M 55.7,333.3 L 54.1,329.4 L 51.7,332.7 Z M 44.4,303.1 L 42.8,299.2 L 40.4,302.4 Z M 60.7,242.1 L 59.6,237.9 L 56.8,240.9 Z M 53.6,217.4 L 52.5,213.3 L 49.7,216.2 Z M 303.5,252.8 L 307.8,252.8 L 305.6,249.3 Z M 251.7,283.4 L 253.8,286.9 L 255.9,283.4 Z M 252.6,253.1 L 256.9,253.0 L 254.7,249.6 Z" fill="#2a2a4e" stroke="none"/>
  <path d="M 247.6,257.3 L 237.3,244.0 M 241.7,296.1 L 247.6,279.8 M 247.6,279.8 L 247.6,257.3 M 64.4,242.1 L 56.6,295.5 M 201.5,154.1 L 169.4,140.8 M 169.4,140.8 L 151.6,144.1 M 151.6,144.1 L 103.2,145.0 M 103.2,145.0 L 74.9,162.5 M 74.9,162.5 L 52.8,213.2 M 220.6,176.0 L 201.5,154.1 M 220.6,214.5 L 220.6,176.0 M 139.2,343.4 L 169.1,322.0 M 84.9,342.8 L 139.2,343.4 M 59.3,319.0 L 84.9,342.8 M 169.1,322.0 L 204.8,323.1 M 204.8,323.1 L 241.7,296.1 M 52.8,213.2 L 64.4,242.1 M 56.6,295.5 L 59.3,319.0 M 237.3,244.0 L 220.6,214.5 M 95.1,169.3 L 91.2,175.6 M 91.2,175.6 L 93.9,178.5 M 93.9,178.5 L 99.2,173.6 M 99.2,173.6 L 95.1,169.3 M 85.5,262.6 L 81.5,269.0 M 81.5,269.0 L 84.2,271.9 M 84.2,271.9 L 89.5,266.9 M 89.5,266.9 L 85.5,262.6 M 140.1,315.4 L 143.1,322.3 M 143.1,322.3 L 147.0,321.7 M 147.0,321.7 L 145.9,314.6 M 145.9,314.6 L 140.1,315.4 M 144.1,313.5 L 149.0,315.8 M 149.0,315.8 L 150.9,313.6 M 150.9,313.6 L 146.8,310.1 M 146.8,310.1 L 144.1,313.5 M 188.2,244.2 L 191.2,251.1 M 191.2,251.1 L 195.1,250.5 M 195.1,250.5 L 194.1,243.3 M 194.1,243.3 L 188.2,244.2 M 192.2,242.2 L 197.2,244.6 M 197.2,244.6 L 199.1,242.3 M 199.1,242.3 L 195.0,238.9 M 195.0,238.9 L 192.2,242.2 M 132.2,220.2 L 135.1,227.1 M 135.1,227.1 L 139.1,226.5 M 139.1,226.5 L 138.0,219.4 M 138.0,219.4 L 132.2,220.2 M 146.2,209.0 L 140.2,213.6 M 140.2,213.6 L 141.8,217.3 M 141.8,217.3 L 148.5,214.5 M 148.5,214.5 L 146.2,209.0 M 91.5,39.1 L 40.1,20.0 M 40.1,20.0 L 20.0,20.0 M 20.0,20.0 L 72.1,46.7 M 360.9,247.3 L 380.0,196.0 M 380.0,196.0 L 380.0,175.9 M 380.0,175.9 L 353.1,227.7 M 91.7,328.6 L 71.2,319.5 M 84.9,346.7 L 91.7,328.6 M 55.9,333.9 L 84.9,346.7 M 71.2,319.5 L 63.1,298.5 M 42.2,297.9 L 55.9,333.9 M 63.1,298.5 L 69.8,277.9 M 54.5,262.3 L 42.2,297.9 M 52.6,212.3 L 60.8,242.2 M 71.8,206.8 L 52.6,212.3 M 81.7,242.7 L 71.8,206.8 M 60.8,242.2 L 54.5,262.3 M 69.8,277.9 L 81.7,242.7 M 259.9,229.9 L 272.1,229.4 M 272.1,229.4 L 270.5,194.3 M 270.5,194.3 L 258.4,194.8 M 258.4,194.8 L 259.9,229.9 M 101.9,106.7 L 101.9,102.4 M 101.9,102.4 L 98.5,104.5 M 98.5,104.5 L 101.9,106.7 M 132.5,138.6 L 135.9,136.5 M 135.9,136.5 L 132.5,134.4 M 132.5,134.4 L 132.5,138.6 M 102.2,141.3 L 102.2,137.1 M 102.2,137.1 L 98.8,139.2 M 98.8,139.2 L 102.2,141.3 M 132.5,96.9 L 135.9,94.8 M 135.9,94.8 L 132.5,92.7 M 132.5,92.7 L 132.5,96.9 M 175.4,138.4 L 173.4,134.6 M 173.4,134.6 L 171.4,138.1 M 171.4,138.1 L 175.4,138.4 M 209.5,143.7 L 210.6,139.6 M 210.6,139.6 L 206.7,140.8 M 206.7,140.8 L 209.5,143.7 M 233.4,167.8 L 234.5,163.7 M 234.5,163.7 L 230.6,164.9 M 230.6,164.9 L 233.4,167.8 M 233.7,226.1 L 237.4,223.9 M 237.4,223.9 L 233.8,222.0 M 233.8,222.0 L 233.7,226.1 M 55.7,333.3 L 54.1,329.4 M 54.1,329.4 L 51.7,332.7 M 51.7,332.7 L 55.7,333.3 M 44.4,303.1 L 42.8,299.2 M 42.8,299.2 L 40.4,302.4 M 40.4,302.4 L 44.4,303.1 M 60.7,242.1 L 59.6,237.9 M 59.6,237.9 L 56.8,240.9 M 56.8,240.9 L 60.7,242.1 M 53.6,217.4 L 52.5,213.3 M 52.5,213.3 L 49.7,216.2 M 49.7,216.2 L 53.6,217.4 M 303.5,252.8 L 307.8,252.8 M 307.8,252.8 L 305.6,249.3 M 305.6,249.3 L 303.5,252.8 M 251.7,283.4 L 253.8,286.9 M 253.8,286.9 L 255.9,283.4 M 255.9,283.4 L 251.7,283.4 M 252.6,253.1 L 256.9,253.0 M 256.9,253.0 L 254.7,249.6 M 254.7,249.6 L 252.6,253.1" fill="none" stroke="white" stroke-width="2" stroke-linecap="round"/>
  <polygon points="272.3179931164368,259.2240042440513 280.3179931164368,267.2240042440513 272.3179931164368,275.2240042440513 264.3179931164368,267.2240042440513" fill="#4a9eff" stroke="white" stroke-width="1"/>
<polygon points="118.5901115072704,119.91685046771417 126.5901115072704,127.91685046771417 118.5901115072704,135.91685046771417 110.5901115072704,127.91685046771417" fill="#4a9eff" stroke="white" stroke-width="1"/>
</svg>