<svg xmlns="http://www.w3.org/2000/svg" viewBox="0 0 400 400">
  <rect width="400" height="400" fill="#1a1a2e"/>
  <path d="M 51.4,226.2 L 84.1,226.2 L 84.1,193.2 Z M 51.4,226.2 L 84.1,193.2 L 51.4,193.2 Z M 65.4,140.4 L 60.7,167.7 L 84.1,153.8 Z M 65.4,140.4 L 84.1,153.8 L 84.1,129.8 Z M 84.1,129.8 L 84.1,153.8 L 133.1,147.5 Z M 84.1,129.8 L 133.1,147.5 L 108.9,130.8 Z M 51.4,193.2 L 41.4,193.5 L 35.7,231.8 Z M 51.4,193.2 L 35.7,231.8 L 51.4,226.2 Z M 51.4,226.2 L 35.7,231.8 L 40.1,249.0 Z M 51.4,226.2 L 40.1,249.0 L 57.6,257.7 Z M 84.1,226.2 L 104.7,236.0 L 117.4,213.9 Z M 84.1,226.2 L 117.4,213.9 L 84.1,193.2 Z M 84.1,193.2 L 117.4,213.9 L 135.9,201.6 Z M 84.1,193.2 L 135.9,201.6 L 143.7,179.8 Z M 60.7,167.7 L 51.4,193.2 L 84.1,193.2 Z M 60.7,167.7 L 84.1,193.2 L 84.1,153.8 Z M 84.1,153.8 L 84.1,193.2 L 143.7,179.8 Z M 84.1,153.8 L 143.7,179.8 L 133.1,147.5 Z M 51.4,226.2 L 57.6,257.7 L 84.1,249.3 Z M 51.4,226.2 L 84.1,249.3 L 84.1,226.2 Z M 84.1,249.3 L 104.7,236.0 L 84.1,226.2 Z M 60.7,167.7 L 41.4,193.5 L 51.4,193.2 Z M 87.8,234.1 L 87.3,227.8 L 82.2,228.2 Z M 87.8,234.1 L 82.2,228.2 L 84.3,234.3 Z M 83.2,234.9 L 79.9,231.7 L 77.3,234.4 Z M 83.2,234.9 L 77.3,234.4 L 81.4,236.7 Z M 56.9,209.9 L 53.7,206.7 L 51.0,209.4 Z M 56.9,209.9 L 51.0,209.4 L 55.2,211.7 Z M 131.1,184.4 L 126.6,184.9 L 127.0,188.7 Z M 131.1,184.4 L 127.0,188.7 L 131.4,186.9 Z M 126.5,181.1 L 122.3,181.6 L 122.7,185.1 Z M 126.5,181.1 L 122.7,185.1 L 126.8,183.4 Z M 23.6,206.5 L 39.5,215.4 L 42.4,193.7 Z M 39.5,215.4 L 51.1,207.3 L 42.4,193.7 Z M 20.0,223.5 L 38.2,221.8 L 23.6,206.5 Z M 38.2,221.8 L 39.5,215.4 L 23.6,206.5 Z M 20.0,223.5 L 38.5,251.9 L 38.2,221.8 Z M 38.5,251.9 L 47.4,236.0 L 38.2,221.8 Z M 60.3,256.5 L 59.2,238.5 L 38.5,251.9 Z M 59.2,238.5 L 47.4,236.0 L 38.5,251.9 Z M 154.0,193.3 L 138.9,183.0 L 124.0,209.2 Z M 138.9,183.0 L 116.6,194.9 L 124.0,209.2 Z M 159.1,176.7 L 140.8,176.7 L 154.0,193.3 Z M 140.8,176.7 L 138.9,183.0 L 154.0,193.3 Z M 143.2,146.7 L 132.9,161.8 L 159.1,176.7 Z M 132.9,161.8 L 140.8,176.7 L 159.1,176.7 Z M 122.0,140.2 L 121.8,158.4 L 143.2,146.7 Z M 121.8,158.4 L 132.9,161.8 L 143.2,146.7 Z M 89.0,243.3 L 62.9,243.3 L 62.9,340.5 Z M 89.0,243.3 L 62.9,340.5 L 89.0,340.5 Z M 48.3,380.0 L 89.0,340.5 L 62.9,340.5 Z M 48.3,380.0 L 62.9,340.5 L 30.9,380.0 Z M 92.6,76.8 L 92.6,141.7 L 118.7,141.7 Z M 92.6,76.8 L 118.7,141.7 L 118.7,81.2 Z M 136.9,40.9 L 123.9,32.2 L 92.6,76.8 Z M 136.9,40.9 L 92.6,76.8 L 118.7,81.2 Z M 185.9,20.0 L 168.4,20.0 L 123.9,32.2 Z M 185.9,20.0 L 123.9,32.2 L 136.9,40.9 Z M 89.1,339.5 L 92.1,337.6 L 89.1,335.8 Z M 62.8,301.4 L 62.8,297.7 L 59.8,299.5 Z M 89.1,311.1 L 92.1,309.2 L 89.1,307.4 Z M 89.1,257.2 L 92.1,255.4 L 89.1,253.5 Z M 119.2,86.4 L 122.2,84.5 L 119.2,82.7 Z M 92.6,130.0 L 92.6,126.3 L 89.6,128.1 Z M 118.9,130.5 L 121.9,128.7 L 118.9,126.8 Z M 62.8,264.5 L 62.8,260.9 L 59.8,262.7 Z M 92.6,84.3 L 92.6,80.6 L 89.6,82.5 Z M 62.8,340.5 L 62.8,336.8 L 59.8,338.6 Z M 130.8,54.3 L 134.3,54.3 L 132.7,51.1 Z" fill="#2a2a4e" stroke="none"/>
  <path d="M 65.4,140.4 L 60.7,167.7 M 84.1,129.8 L 65.4,140.4 M 133.1,147.5 L 108.9,130.8 M 108.9,130.8 L 84.1,129.8 M 41.4,193.5 L 35.7,231.8 M 35.7,231.8 L 40.1,249.0 M 40.1,249.0 L 57.6,257.7 M 104.7,236.0 L 117.4,213.9 M 117.4,213.9 L 135.9,201.6 M 135.9,201.6 L 143.7,179.8 M 143.7,179.8 L 133.1,147.5 M 57.6,257.7 L 84.1,249.3 M 84.1,249.3 L 104.7,236.0 M 60.7,167.7 L 41.4,193.5 M 87.8,234.1 L 87.3,227.8 M 87.3,227.8 L 82.2,228.2 M 82.2,228.2 L 84.3,234.3 M 84.3,234.3 L 87.8,234.1 M 83.2,234.9 L 79.9,231.7 M 79.9,231.7 L 77.3,234.4 M 77.3,234.4 L 81.4,236.7 M 81.4,236.7 L 83.2,234.9 M 56.9,209.9 L 53.7,206.7 M 53.7,206.7 L 51.0,209.4 M 51.0,209.4 L 55.2,211.7 M 55.2,211.7 L 56.9,209.9 M 131.1,184.4 L 126.6,184.9 M 126.6,184.9 L 127.0,188.7 M 127.0,188.7 L 131.4,186.9 M 131.4,186.9 L 131.1,184.4 M 126.5,181.1 L 122.3,181.6 M 122.3,181.6 L 122.7,185.1 M 122.7,185.1 L 126.8,183.4 M 126.8,183.4 L 126.5,181.1 M 42.4,193.7 L 23.6,206.5 M 39.5,215.4 L 51.1,207.3 M 51.1,207.3 L 42.4,193.7 M 23.6,206.5 L 20.0,223.5 M 38.2,221.8 L 39.5,215.4 M 20.0,223.5 L 38.5,251.9 M 47.4,236.0 L 38.2,221.8 M 60.3,256.5 L 59.2,238.5 M 38.5,251.9 L 60.3,256.5 M 59.2,238.5 L 47.4,236.0 M 124.0,209.2 L 154.0,193.3 M 138.9,183.0 L 116.6,194.9 M 116.6,194.9 L 124.0,209.2 M 154.0,193.3 L 159.1,176.7 M 140.8,176.7 L 138.9,183.0 M 159.1,176.7 L 143.2,146.7 M 132.9,161.8 L 140.8,176.7 M 122.0,140.2 L 121.8,158.4 M 143.2,146.7 L 122.0,140.2 M 121.8,158.4 L 132.9,161.8 M 89.0,243.3 L 62.9,243.3 M 62.9,243.3 L 62.9,340.5 M 89.0,340.5 L 89.0,243.3 M 48.3,380.0 L 89.0,340.5 M 62.9,340.5 L 30.9,380.0 M 30.9,380.0 L 48.3,380.0 M 92.6,76.8 L 92.6,141.7 M 92.6,141.7 L 118.7,141.7 M 118.7,141.7 L 118.7,81.2 M 123.9,32.2 L 92.6,76.8 M 118.7,81.2 L 136.9,40.9 M 185.9,20.0 L 168.4,20.0 M 168.4,20.0 L 123.9,32.2 M 136.9,40.9 L 185.9,20.0 M 89.1,339.5 L 92.1,337.6 M 92.1,337.6 L 89.1,335.8 M 89.1,335.8 L 89.1,339.5 M 62.8,301.4 L 62.8,297.7 M 62.8,297.7 L 59.8,299.5 M 59.8,299.5 L 62.8,301.4 M 89.1,311.1 L 92.1,309.2 M 92.1,309.2 L 89.1,307.4 M 89.1,307.4 L 89.1,311.1 M 89.1,257.2 L 92.1,255.4 M 92.1,255.4 L 89.1,253.5 M 89.1,253.5 L 89.1,257.2 M 119.2,86.4 L 122.2,84.5 M 122.2,84.5 L 119.2,82.7 M 119.2,82.7 L 119.2,86.4 M 92.6,130.0 L 92.6,126.3 M 92.6,126.3 L 89.6,128.1 M 89.6,128.1 L 92.6,130.0 M 118.9,130.5 L 121.9,128.7 M 121.9,128.7 L 118.9,126.8 M 118.9,126.8 L 118.9,130.5 M 62.8,264.5 L 62.8,260.9 M 62.8,260.9 L 59.8,262.7 M 59.8,262.7 L 62.8,264.5 M 92.6,84.3 L 92.6,80.6 M 92.6,80.6 L 89.6,82.5 M 89.6,82.5 L 92.6,84.3 M 62.8,340.5 L 62.8,336.8 M 62.8,336.8 L 59.8,338.6 M 59.8,338.6 L 62.8,340.5 M 130.8,54.3 L 134.3,54.3 M 134.3,54.3 L 132.7,51.1 M 132.7,51.1 L 130.8,54.3" fill="none" stroke="white" stroke-width="2" stroke-linecap="round"/>
  <polygon points="106.31695486342996,109.01330070698715 114.31695486342996,117.01330070698715 106.31695486342996,125.01330070698715 98.31695486342996,117.01330070698715" fill="#4a9eff" stroke="white" stroke-width="1"/>
<polygon points="74.86383993744764,269.30806107458125 82.86383993744764,277.30806107458125 74.86383993744764,285.30806107458125 66.86383993744764,277.30806107458125" fill="#4a9eff" stroke="white" stroke-width="1"/>
</svg>