<svg xmlns="http://www.w3.org/2000/svg" viewBox="0 0 400 400">
  <rect width="400" height="400" fill="#1a1a2e"/>
  <path d="M 54.4,211.6 L 90.1,211.6 L 90.1,175.5 Z M 54.4,211.6 L 90.1,175.5 L 54.4,175.5 Z M 69.7,117.8 L 64.5,147.6 L 90.1,132.3 Z M 69.7,117.8 L 90.1,132.3 L 90.1,106.1 Z M 90.1,106.1 L 90.1,132.3 L 143.8,125.5 Z M 90.1,106.1 L 143.8,125.5 L 117.3,107.2 Z M 54.4,175.5 L 43.4,175.9 L 37.2,217.7 Z M 54.4,175.5 L 37.2,217.7 L 54.4,211.6 Z M 54.4,211.6 L 37.2,217.7 L 42.0,236.5 Z M 54.4,211.6 L 42.0,236.5 L 61.1,246.1 Z M 90.1,211.6 L 112.7,222.4 L 126.6,198.2 Z M 90.1,211.6 L 126.6,198.2 L 90.1,175.5 Z M 90.1,175.5 L 126.6,198.2 L 146.8,184.7 Z M 90.1,175.5 L 146.8,184.7 L 155.4,160.9 Z M 64.5,147.6 L 54.4,175.5 L 90.1,175.5 Z M 64.5,147.6 L 90.1,175.5 L 90.1,132.3 Z M 90.1,132.3 L 90.1,175.5 L 155.4,160.9 Z M 90.1,132.3 L 155.4,160.9 L 143.8,125.5 Z M 54.4,211.6 L 61.1,246.1 L 92.5,236.9 Z M 54.4,211.6 L 92.5,236.9 L 90.1,211.6 Z M 92.5,236.9 L 112.7,222.4 L 90.1,211.6 Z M 64.5,147.6 L 43.4,175.9 L 54.4,175.5 Z M 94.2,220.3 L 93.7,213.4 L 88.1,213.8 Z M 94.2,220.3 L 88.1,213.8 L 90.4,220.5 Z M 89.2,221.2 L 85.6,217.7 L 82.7,220.6 Z M 89.2,221.2 L 82.7,220.6 L 87.2,223.2 Z M 60.4,193.8 L 56.8,190.3 L 54.0,193.2 Z M 60.4,193.8 L 54.0,193.2 L 58.5,195.8 Z M 141.6,165.9 L 136.6,166.5 L 137.1,170.5 Z M 141.6,165.9 L 137.1,170.5 L 142.0,168.6 Z M 136.6,162.3 L 132.0,162.9 L 132.4,166.6 Z M 136.6,162.3 L 132.4,166.6 L 136.9,164.8 Z M 23.9,190.1 L 41.4,199.8 L 44.5,176.1 Z M 41.4,199.8 L 54.0,191.0 L 44.5,176.1 Z M 41.4,199.8 L 23.9,190.1 L 39.9,206.9 Z M 23.9,190.1 L 20.0,208.7 L 39.9,206.9 Z M 40.3,239.8 L 50.0,222.4 L 20.0,208.7 Z M 50.0,222.4 L 39.9,206.9 L 20.0,208.7 Z M 64.1,244.8 L 62.9,225.1 L 40.3,239.8 Z M 62.9,225.1 L 50.0,222.4 L 40.3,239.8 Z M 166.6,175.7 L 150.2,164.4 L 133.9,193.0 Z M 150.2,164.4 L 125.8,177.3 L 133.9,193.0 Z M 166.6,175.7 L 172.2,157.4 L 150.2,164.4 Z M 172.2,157.4 L 152.3,157.5 L 150.2,164.4 Z M 154.9,124.7 L 143.6,141.2 L 172.2,157.4 Z M 143.6,141.2 L 152.3,157.5 L 172.2,157.4 Z M 131.4,137.4 L 143.6,141.2 L 131.6,117.5 Z M 143.6,141.2 L 154.9,124.7 L 131.6,117.5 Z M 93.2,236.9 L 64.6,236.9 L 64.6,346.3 Z M 93.2,236.9 L 64.6,346.3 L 93.2,346.3 Z M 46.2,380.0 L 93.2,346.3 L 64.6,346.3 Z M 46.2,380.0 L 64.6,346.3 L 27.1,380.0 Z M 93.2,236.9 L 64.6,245.1 L 64.6,346.3 Z M 93.2,236.9 L 64.6,346.3 L 93.2,346.3 Z M 166.6,175.7 L 150.2,164.4 L 125.8,177.3 Z M 166.6,175.7 L 125.8,177.3 L 133.9,193.0 Z M 152.3,157.5 L 150.2,164.4 L 166.6,175.7 Z M 152.3,157.5 L 166.6,175.7 L 172.2,157.4 Z M 152.3,157.5 L 172.2,157.4 L 154.9,124.7 Z M 152.3,157.5 L 154.9,124.7 L 143.6,141.2 Z M 143.6,141.2 L 154.9,124.7 L 131.6,117.5 Z M 143.6,141.2 L 131.6,117.5 L 131.4,137.4 Z M 54.0,191.0 L 44.5,176.1 L 23.9,190.1 Z M 54.0,191.0 L 23.9,190.1 L 41.4,199.8 Z M 23.9,190.1 L 20.0,208.7 L 39.9,206.9 Z M 23.9,190.1 L 39.9,206.9 L 41.4,199.8 Z M 40.3,239.8 L 50.0,222.4 L 39.9,206.9 Z M 40.3,239.8 L 39.9,206.9 L 20.0,208.7 Z M 64.1,244.8 L 62.9,225.1 L 50.0,222.4 Z M 64.1,244.8 L 50.0,222.4 L 40.3,239.8 Z M 93.3,345.2 L 96.5,343.1 L 93.3,341.1 Z M 64.4,293.9 L 64.5,289.9 L 61.2,291.9 Z M 93.3,304.6 L 96.5,302.5 L 93.3,300.5 Z M 93.3,245.6 L 96.5,243.6 L 93.3,241.6 Z M 64.4,253.6 L 64.5,249.6 L 61.2,251.6 Z M 64.4,346.3 L 64.5,342.2 L 61.2,344.2 Z M 141.3,23.5 L 145.1,23.4 L 143.4,20.0 Z" fill="#2a2a4e" stroke="none"/>
  <path d="M 69.7,117.8 L 64.5,147.6 M 90.1,106.1 L 69.7,117.8 M 143.8,125.5 L 117.3,107.2 M 117.3,107.2 L 90.1,106.1 M 43.4,175.9 L 37.2,217.7 M 37.2,217.7 L 42.0,236.5 M 42.0,236.5 L 61.1,246.1 M 112.7,222.4 L 126.6,198.2 M 126.6,198.2 L 146.8,184.7 M 146.8,184.7 L 155.4,160.9 M 155.4,160.9 L 143.8,125.5 M 61.1,246.1 L 92.5,236.9 M 92.5,236.9 L 112.7,222.4 M 64.5,147.6 L 43.4,175.9 M 94.2,220.3 L 93.7,213.4 M 93.7,213.4 L 88.1,213.8 M 88.1,213.8 L 90.4,220.5 M 90.4,220.5 L 94.2,220.3 M 89.2,221.2 L 85.6,217.7 M 85.6,217.7 L 82.7,220.6 M 82.7,220.6 L 87.2,223.2 M 87.2,223.2 L 89.2,221.2 M 60.4,193.8 L 56.8,190.3 M 56.8,190.3 L 54.0,193.2 M 54.0,193.2 L 58.5,195.8 M 58.5,195.8 L 60.4,193.8 M 141.6,165.9 L 136.6,166.5 M 136.6,166.5 L 137.1,170.5 M 137.1,170.5 L 142.0,168.6 M 142.0,168.6 L 141.6,165.9 M 136.6,162.3 L 132.0,162.9 M 132.0,162.9 L 132.4,166.6 M 132.4,166.6 L 136.9,164.8 M 136.9,164.8 L 136.6,162.3 M 93.2,236.9 L 64.6,236.9 M 64.6,236.9 L 64.6,346.3 M 46.2,380.0 L 93.2,346.3 M 64.6,346.3 L 27.1,380.0 M 27.1,380.0 L 46.2,380.0 M 93.2,236.9 L 64.6,245.1 M 64.6,245.1 L 64.6,346.3 M 93.3,345.2 L 96.5,343.1 M 96.5,343.1 L 93.3,341.1 M 93.3,341.1 L 93.3,345.2 M 64.4,293.9 L 64.5,289.9 M 64.5,289.9 L 61.2,291.9 M 61.2,291.9 L 64.4,293.9 M 93.3,304.6 L 96.5,302.5 M 96.5,302.5 L 93.3,300.5 M 93.3,300.5 L 93.3,304.6 M 93.3,245.6 L 96.5,243.6 M 96.5,243.6 L 93.3,241.6 M 93.3,241.6 L 93.3,245.6 M 64.4,253.6 L 64.5,249.6 M 64.5,249.6 L 61.2,251.6 M 61.2,251.6 L 64.4,253.6 M 64.4,346.3 L 64.5,342.2 M 64.5,342.2 L 61.2,344.2 M 61.2,344.2 L 64.4,346.3 M 141.3,23.5 L 145.1,23.4 M 145.1,23.4 L 143.4,20.0 M 143.4,20.0 L 141.3,23.5" fill="none" stroke="white" stroke-width="2" stroke-linecap="round"/>
  <polygon points="79.375766163347,285.4873118277924 87.375766163347,293.4873118277924 79.375766163347,301.4873118277924 71.375766163347,293.4873118277924" fill="#4a9eff" stroke="white" stroke-width="1"/>
</svg>