<svg xmlns="http://www.w3.org/2000/svg" viewBox="0 0 400 400">
  <rect width="400" height="400" fill="#1a1a2e"/>
  <path d="M 124.0,62.4 L 133.5,90.6 L 158.5,97.1 Z M 124.0,62.4 L 158.5,97.1 L 158.3,62.6 Z M 223.4,120.1 L 253.8,120.1 L 253.8,89.5 Z M 223.4,120.1 L 253.8,89.5 L 223.4,89.5 Z M 223.4,156.9 L 223.4,120.1 L 202.9,125.3 Z M 223.4,156.9 L 202.9,125.3 L 197.5,156.8 Z M 180.5,138.6 L 182.3,125.3 L 151.0,132.2 Z M 180.5,138.6 L 151.0,132.2 L 153.3,156.8 Z M 153.3,156.8 L 151.0,132.2 L 120.9,125.8 Z M 153.3,156.8 L 120.9,125.8 L 121.6,146.1 Z M 182.3,125.3 L 172.4,113.5 L 147.3,107.3 Z M 182.3,125.3 L 147.3,107.3 L 151.0,132.2 Z M 151.0,132.2 L 147.3,107.3 L 130.5,112.9 Z M 151.0,132.2 L 130.5,112.9 L 120.9,125.8 Z M 127.6,54.5 L 124.0,62.4 L 158.3,62.6 Z M 127.6,54.5 L 158.3,62.6 L 153.3,31.3 Z M 153.3,31.3 L 158.3,62.6 L 189.5,62.7 Z M 153.3,31.3 L 189.5,62.7 L 184.9,42.3 Z M 197.5,156.8 L 201.6,172.1 L 223.4,179.2 Z M 197.5,156.8 L 223.4,179.2 L 223.4,156.9 Z M 223.4,156.9 L 223.4,179.2 L 240.8,169.3 Z M 223.4,156.9 L 240.8,169.3 L 245.2,143.9 Z M 253.8,120.1 L 263.1,119.8 L 268.5,84.3 Z M 253.8,120.1 L 268.5,84.3 L 253.8,89.5 Z M 253.8,89.5 L 268.5,84.3 L 264.4,68.3 Z M 253.8,89.5 L 264.4,68.3 L 248.1,60.1 Z M 189.5,62.7 L 158.3,62.6 L 158.5,97.1 Z M 189.5,62.7 L 158.5,97.1 L 178.1,93.6 Z M 223.4,120.1 L 223.4,89.5 L 204.1,94.7 Z M 223.4,120.1 L 204.1,94.7 L 201.6,112.0 Z M 223.4,68.0 L 223.4,89.5 L 253.8,89.5 Z M 223.4,68.0 L 253.8,89.5 L 248.1,60.1 Z M 253.8,120.1 L 223.4,120.1 L 223.4,156.9 Z M 253.8,120.1 L 223.4,156.9 L 245.2,143.9 Z M 223.4,68.0 L 204.1,94.7 L 223.4,89.5 Z M 245.2,143.9 L 263.1,119.8 L 253.8,120.1 Z M 201.6,112.0 L 202.9,125.3 L 223.4,120.1 Z M 174.7,54.7 L 169.8,57.9 L 172.4,61.9 Z M 174.7,54.7 L 172.4,61.9 L 176.4,57.4 Z M 167.4,54.6 L 166.2,58.8 L 169.6,59.7 Z M 167.4,54.6 L 169.6,59.7 L 169.6,55.2 Z M 248.7,104.6 L 251.7,107.6 L 254.2,105.1 Z M 248.7,104.6 L 254.2,105.1 L 250.3,102.9 Z M 207.3,132.0 L 211.5,131.5 L 211.1,128.0 Z M 207.3,132.0 L 211.1,128.0 L 207.0,129.7 Z M 211.6,135.0 L 215.5,134.6 L 215.1,131.4 Z M 211.6,135.0 L 215.1,131.4 L 211.3,132.9 Z M 144.6,146.4 L 148.5,145.9 L 148.1,142.7 Z M 144.6,146.4 L 148.1,142.7 L 144.4,144.2 Z M 235.1,224.4 L 210.8,224.4 L 239.9,266.0 Z M 235.1,224.4 L 239.9,266.0 L 254.6,255.7 Z M 254.6,255.7 L 239.9,266.0 L 281.4,281.4 Z M 254.6,255.7 L 281.4,281.4 L 297.6,281.4 Z M 76.9,88.4 L 76.9,64.1 L 37.3,86.5 Z M 76.9,88.4 L 37.3,86.5 L 43.3,104.4 Z M 43.3,104.4 L 37.3,86.5 L 20.0,134.7 Z M 43.3,104.4 L 20.0,134.7 L 20.0,150.9 Z M 323.1,134.6 L 323.1,158.9 L 362.7,136.5 Z M 323.1,134.6 L 362.7,136.5 L 356.7,118.6 Z M 356.7,118.6 L 362.7,136.5 L 380.0,88.3 Z M 356.7,118.6 L 380.0,88.3 L 380.0,72.1 Z M 143.6,168.2 L 148.5,151.9 L 121.1,146.2 Z M 148.5,151.9 L 131.7,135.5 L 121.1,146.2 Z M 154.6,151.9 L 148.5,151.9 L 159.8,168.0 Z M 148.5,151.9 L 143.6,168.2 L 159.8,168.0 Z M 165.6,140.6 L 154.6,151.9 L 181.9,145.5 Z M 154.6,151.9 L 159.8,168.0 L 181.9,145.5 Z M 165.5,129.8 L 165.6,140.6 L 181.7,124.8 Z M 165.6,140.6 L 181.9,145.5 L 181.7,124.8 Z M 163.1,20.0 L 158.1,36.2 L 185.4,42.3 Z M 158.1,36.2 L 174.7,52.8 L 185.4,42.3 Z M 146.9,20.0 L 151.9,36.2 L 163.1,20.0 Z M 151.9,36.2 L 158.1,36.2 L 163.1,20.0 Z M 124.6,42.3 L 140.8,47.3 L 146.9,20.0 Z M 140.8,47.3 L 151.9,36.2 L 146.9,20.0 Z M 124.6,63.0 L 140.8,58.2 L 124.6,42.3 Z M 140.8,58.2 L 140.8,47.3 L 124.6,42.3 Z M 191.4,120.0 L 205.4,129.6 L 204.2,110.0 Z M 205.4,129.6 L 210.2,125.8 L 204.2,110.0 Z M 187.6,151.3 L 203.5,145.2 L 191.4,120.0 Z M 203.5,145.2 L 205.4,129.6 L 191.4,120.0 Z M 210.4,154.1 L 203.5,145.2 L 200.4,167.6 Z M 203.5,145.2 L 187.6,151.3 L 200.4,167.6 Z M 279.7,107.8 L 264.9,99.5 L 262.2,119.7 Z M 264.9,99.5 L 254.2,107.0 L 262.2,119.7 Z M 283.1,91.9 L 266.2,93.5 L 279.7,107.8 Z M 266.2,93.5 L 264.9,99.5 L 279.7,107.8 Z M 265.8,65.5 L 257.6,80.3 L 283.1,91.9 Z M 257.6,80.3 L 266.2,93.5 L 283.1,91.9 Z M 245.6,61.2 L 246.6,78.0 L 265.8,65.5 Z M 246.6,78.0 L 257.6,80.3 L 265.8,65.5 Z M 215.2,83.2 L 183.8,68.8 L 175.4,90.9 Z M 215.2,83.2 L 175.4,90.9 L 205.9,104.9 Z M 160.2,113.1 L 159.4,86.3 L 135.1,86.8 Z M 160.2,113.1 L 135.1,86.8 L 135.8,113.6 Z M 235.1,168.1 L 210.8,168.1 L 210.8,224.4 Z M 235.1,168.1 L 210.8,224.4 L 235.1,224.4 Z M 133.2,88.4 L 133.3,64.1 L 76.9,64.1 Z M 133.2,88.4 L 76.9,64.1 L 76.9,88.4 Z M 239.1,134.6 L 239.1,158.9 L 323.1,158.9 Z M 239.1,134.6 L 323.1,158.9 L 323.1,134.6 Z M 235.5,219.6 L 235.5,223.0 L 238.3,221.3 Z M 210.8,177.8 L 208.0,179.5 L 210.8,181.2 Z M 235.3,178.5 L 235.3,182.0 L 238.1,180.2 Z M 81.8,88.8 L 78.3,88.8 L 80.1,91.6 Z M 51.9,100.1 L 48.9,101.9 L 51.9,103.3 Z M 123.6,64.1 L 121.9,61.3 L 120.2,64.1 Z M 122.8,88.6 L 119.4,88.6 L 121.1,91.4 Z M 318.2,134.2 L 321.7,134.1 L 319.9,131.4 Z M 348.1,122.9 L 351.1,121.1 L 348.1,119.7 Z M 276.4,158.9 L 278.1,161.7 L 279.8,158.9 Z" fill="#2a2a4e" stroke="none"/>
  <path d="M 124.0,62.4 L 133.5,90.6 M 133.5,90.6 L 158.5,97.1 M 202.9,125.3 L 197.5,156.8 M 180.5,138.6 L 182.3,125.3 M 153.3,156.8 L 180.5,138.6 M 120.9,125.8 L 121.6,146.1 M 121.6,146.1 L 153.3,156.8 M 182.3,125.3 L 172.4,113.5 M 172.4,113.5 L 147.3,107.3 M 147.3,107.3 L 130.5,112.9 M 130.5,112.9 L 120.9,125.8 M 127.6,54.5 L 124.0,62.4 M 153.3,31.3 L 127.6,54.5 M 189.5,62.7 L 184.9,42.3 M 184.9,42.3 L 153.3,31.3 M 197.5,156.8 L 201.6,172.1 M 201.6,172.1 L 223.4,179.2 M 223.4,179.2 L 240.8,169.3 M 240.8,169.3 L 245.2,143.9 M 263.1,119.8 L 268.5,84.3 M 268.5,84.3 L 264.4,68.3 M 264.4,68.3 L 248.1,60.1 M 158.5,97.1 L 178.1,93.6 M 178.1,93.6 L 189.5,62.7 M 204.1,94.7 L 201.6,112.0 M 248.1,60.1 L 223.4,68.0 M 223.4,68.0 L 204.1,94.7 M 245.2,143.9 L 263.1,119.8 M 201.6,112.0 L 202.9,125.3 M 174.7,54.7 L 169.8,57.9 M 169.8,57.9 L 172.4,61.9 M 172.4,61.9 L 176.4,57.4 M 176.4,57.4 L 174.7,54.7 M 167.4,54.6 L 166.2,58.8 M 166.2,58.8 L 169.6,59.7 M 169.6,59.7 L 169.6,55.2 M 169.6,55.2 L 167.4,54.6 M 248.7,104.6 L 251.7,107.6 M 251.7,107.6 L 254.2,105.1 M 254.2,105.1 L 250.3,102.9 M 250.3,102.9 L 248.7,104.6 M 207.3,132.0 L 211.5,131.5 M 211.5,131.5 L 211.1,128.0 M 211.1,128.0 L 207.0,129.7 M 207.0,129.7 L 207.3,132.0 M 211.6,135.0 L 215.5,134.6 M 215.5,134.6 L 215.1,131.4 M 215.1,131.4 L 211.3,132.9 M 211.3,132.9 L 211.6,135.0 M 144.6,146.4 L 148.5,145.9 M 148.5,145.9 L 148.1,142.7 M 148.1,142.7 L 144.4,144.2 M 144.4,144.2 L 144.6,146.4 M 210.8,224.4 L 239.9,266.0 M 254.6,255.7 L 235.1,224.4 M 239.9,266.0 L 281.4,281.4 M 281.4,281.4 L 297.6,281.4 M 297.6,281.4 L 254.6,255.7 M 76.9,64.1 L 37.3,86.5 M 43.3,104.4 L 76.9,88.4 M 37.3,86.5 L 20.0,134.7 M 20.0,134.7 L 20.0,150.9 M 20.0,150.9 L 43.3,104.4 M 323.1,158.9 L 362.7,136.5 M 356.7,118.6 L 323.1,134.6 M 362.7,136.5 L 380.0,88.3 M 380.0,88.3 L 380.0,72.1 M 380.0,72.1 L 356.7,118.6 M 121.1,146.2 L 143.6,168.2 M 148.5,151.9 L 131.7,135.5 M 131.7,135.5 L 121.1,146.2 M 154.6,151.9 L 148.5,151.9 M 143.6,168.2 L 159.8,168.0 M 165.6,140.6 L 154.6,151.9 M 159.8,168.0 L 181.9,145.5 M 165.5,129.8 L 165.6,140.6 M 181.7,124.8 L 165.5,129.8 M 181.9,145.5 L 181.7,124.8 M 185.4,42.3 L 163.1,20.0 M 158.1,36.2 L 174.7,52.8 M 174.7,52.8 L 185.4,42.3 M 163.1,20.0 L 146.9,20.0 M 151.9,36.2 L 158.1,36.2 M 146.9,20.0 L 124.6,42.3 M 140.8,47.3 L 151.9,36.2 M 124.6,63.0 L 140.8,58.2 M 124.6,42.3 L 124.6,63.0 M 140.8,58.2 L 140.8,47.3 M 204.2,110.0 L 191.4,120.0 M 205.4,129.6 L 210.2,125.8 M 210.2,125.8 L 204.2,110.0 M 191.4,120.0 L 187.6,151.3 M 203.5,145.2 L 205.4,129.6 M 210.4,154.1 L 203.5,145.2 M 200.4,167.6 L 210.4,154.1 M 187.6,151.3 L 200.4,167.6 M 262.2,119.7 L 279.7,107.8 M 264.9,99.5 L 254.2,107.0 M 254.2,107.0 L 262.2,119.7 M 279.7,107.8 L 283.1,91.9 M 266.2,93.5 L 264.9,99.5 M 283.1,91.9 L 265.8,65.5 M 257.6,80.3 L 266.2,93.5 M 245.6,61.2 L 246.6,78.0 M 265.8,65.5 L 245.6,61.2 M 246.6,78.0 L 257.6,80.3 M 215.2,83.2 L 183.8,68.8 M 183.8,68.8 L 175.4,90.9 M 175.4,90.9 L 205.9,104.9 M 205.9,104.9 L 215.2,83.2 M 160.2,113.1 L 159.4,86.3 M 159.4,86.3 L 135.1,86.8 M 135.1,86.8 L 135.8,113.6 M 135.8,113.6 L 160.2,113.1 M 235.1,168.1 L 210.8,168.1 M 210.8,168.1 L 210.8,224.4 M 235.1,224.4 L 235.1,168.1 M 133.2,88.4 L 133.3,64.1 M 133.3,64.1 L 76.9,64.1 M 76.9,88.4 L 133.2,88.4 M 239.1,134.6 L 239.1,158.9 M 239.1,158.9 L 323.1,158.9 M 323.1,134.6 L 239.1,134.6 M 235.5,219.6 L 235.5,223.0 M 235.5,223.0 L 238.3,221.3 M 238.3,221.3 L 235.5,219.6 M 210.8,177.8 L 208.0,179.5 M 208.0,179.5 L 210.8,181.2 M 210.8,181.2 L 210.8,177.8 M 235.3,178.5 L 235.3,182.0 M 235.3,182.0 L 238.1,180.2 M 238.1,180.2 L 235.3,178.5 M 81.8,88.8 L 78.3,88.8 M 78.3,88.8 L 80.1,91.6 M 80.1,91.6 L 81.8,88.8 M 51.9,100.1 L 48.9,101.9 M 48.9,101.9 L 51.9,103.3 M 51.9,103.3 L 51.9,100.1 M 123.6,64.1 L 121.9,61.3 M 121.9,61.3 L 120.2,64.1 M 120.2,64.1 L 123.6,64.1 M 122.8,88.6 L 119.4,88.6 M 119.4,88.6 L 121.1,91.4 M 121.1,91.4 L 122.8,88.6 M 318.2,134.2 L 321.7,134.1 M 321.7,134.1 L 319.9,131.4 M 319.9,131.4 L 318.2,134.2 M 348.1,122.9 L 351.1,121.1 M 351.1,121.1 L 348.1,119.7 M 348.1,119.7 L 348.1,122.9 M 276.4,158.9 L 278.1,161.7 M 278.1,161.7 L 279.8,158.9 M 279.8,158.9 L 276.4,158.9" fill="none" stroke="white" stroke-width="2" stroke-linecap="round"/>
  <polygon points="294.4822520993416,138.69810189340092 302.4822520993416,146.69810189340092 294.4822520993416,154.69810189340092 286.4822520993416,146.69810189340092" fill="#4a9eff" stroke="white" stroke-width="1"/>
<polygon points="222.7657206601057,182.84247276542612 230.7657206601057,190.84247276542612 222.7657206601057,198.84247276542612 214.7657206601057,190.84247276542612" fill="#4a9eff" stroke="white" stroke-width="1"/>
<polygon points="103.96862870093628,67.55971285611028 111.96862870093628,75.55971285611028 103.96862870093628,83.55971285611028 95.96862870093628,75.55971285611028" fill="#4a9eff" stroke="white" stroke-width="1"/>
</svg>