<svg xmlns="http://www.w3.org/2000/svg" viewBox="0 0 400 400">
  <rect width="400" height="400" fill="#1a1a2e"/>
  <path d="M 237.3,86.7 L 277.2,93.5 L 277.2,20.0 Z M 237.3,86.7 L 277.2,20.0 L 237.3,20.0 Z M 128.1,49.0 L 127.5,59.4 L 174.0,59.4 Z M 128.1,49.0 L 174.0,59.4 L 174.5,49.0 Z M 159.5,81.3 L 117.3,109.3 L 125.0,134.1 Z M 159.5,81.3 L 125.0,134.1 L 165.1,106.8 Z M 237.3,86.7 L 277.2,93.5 L 277.2,20.0 Z M 237.3,86.7 L 277.2,20.0 L 237.3,20.0 Z M 311.3,166.2 L 305.4,206.1 L 373.8,206.1 Z M 311.3,166.2 L 373.8,206.1 L 380.0,166.2 Z M 311.3,166.2 L 305.4,206.1 L 373.8,206.1 Z M 311.3,166.2 L 373.8,206.1 L 380.0,166.2 Z M 85.2,134.2 L 65.0,224.3 L 91.9,225.6 Z M 85.2,134.2 L 91.9,225.6 L 108.4,152.2 Z M 264.5,264.7 L 235.1,297.3 L 238.0,333.8 Z M 264.5,264.7 L 238.0,333.8 L 299.9,265.2 Z M 180.7,351.7 L 181.3,367.7 L 227.8,365.7 Z M 180.7,351.7 L 227.8,365.7 L 227.2,349.6 Z M 35.6,244.2 L 20.0,248.1 L 31.5,293.1 Z M 35.6,244.2 L 31.5,293.1 L 47.1,289.2 Z M 65.0,224.3 L 90.9,230.1 L 91.9,225.6 Z M 299.9,265.2 L 280.1,247.4 L 264.5,264.7 Z M 235.1,297.3 L 218.3,316.0 L 238.0,333.8 Z M 108.4,152.2 L 111.2,140.0 L 85.2,134.2 Z M 104.4,280.3 L 81.2,303.9 L 127.5,313.3 Z M 104.4,280.3 L 127.5,313.3 L 140.4,288.3 Z M 140.4,288.3 L 127.5,313.3 L 173.9,322.8 Z M 140.4,288.3 L 173.9,322.8 L 176.5,296.3 Z M 164.5,102.2 L 146.5,113.8 L 168.2,113.1 Z M 164.5,102.2 L 168.2,113.1 L 227.8,108.7 Z M 227.8,108.7 L 168.2,113.1 L 170.6,122.2 Z M 227.8,108.7 L 170.6,122.2 L 217.0,122.2 Z M 160.8,143.6 L 238.1,178.5 L 237.5,168.9 Z M 160.8,143.6 L 237.5,168.9 L 188.2,143.0 Z M 188.2,143.0 L 237.5,168.9 L 206.9,138.2 Z M 188.2,143.0 L 206.9,138.2 L 192.4,137.7 Z M 108.4,152.2 L 91.9,225.6 L 188.0,225.2 Z M 108.4,152.2 L 188.0,225.2 L 139.2,150.0 Z M 139.2,150.0 L 188.0,225.2 L 159.6,146.6 Z M 139.2,150.0 L 159.6,146.6 L 139.2,148.0 Z M 251.2,178.7 L 238.1,178.5 L 251.2,208.6 Z M 251.2,178.7 L 251.2,208.6 L 251.8,183.2 Z M 251.8,183.2 L 251.2,208.6 L 260.2,194.0 Z M 251.8,183.2 L 260.2,194.0 L 258.8,183.3 Z M 286.0,163.3 L 227.8,108.7 L 217.0,122.2 Z M 286.0,163.3 L 217.0,122.2 L 255.9,163.6 Z M 255.9,163.6 L 217.0,122.2 L 216.0,127.6 Z M 255.9,163.6 L 216.0,127.6 L 251.1,168.4 Z M 251.1,168.4 L 216.0,127.6 L 210.7,127.5 Z M 251.1,168.4 L 210.7,127.5 L 210.5,132.6 Z M 159.6,146.6 L 247.7,219.3 L 247.8,213.4 Z M 159.6,146.6 L 247.8,213.4 L 160.8,143.6 Z M 160.8,143.6 L 247.8,213.4 L 251.5,213.4 Z M 160.8,143.6 L 251.5,213.4 L 251.2,208.6 Z M 282.9,219.3 L 247.7,219.3 L 188.0,225.2 Z M 282.9,219.3 L 188.0,225.2 L 282.6,224.7 Z M 282.6,224.7 L 188.0,225.2 L 187.7,234.3 Z M 282.6,224.7 L 187.7,234.3 L 280.1,247.4 Z M 280.1,247.4 L 187.7,234.3 L 209.3,265.2 Z M 280.1,247.4 L 209.3,265.2 L 264.5,264.7 Z M 196.9,274.6 L 196.1,269.3 L 159.6,235.1 Z M 196.9,274.6 L 159.6,235.1 L 188.1,274.7 Z M 188.1,274.7 L 159.6,235.1 L 158.8,238.5 Z M 188.1,274.7 L 158.8,238.5 L 188.1,285.7 Z M 188.1,285.7 L 158.8,238.5 L 152.2,239.3 Z M 188.1,285.7 L 152.2,239.3 L 152.7,244.1 Z M 188.1,285.7 L 152.7,244.1 L 89.6,244.6 Z M 188.1,285.7 L 89.6,244.6 L 162.1,285.6 Z M 162.1,285.6 L 89.6,244.6 L 145.1,299.2 Z M 162.1,285.6 L 145.1,299.2 L 166.3,290.7 Z M 166.3,290.7 L 145.1,299.2 L 188.2,300.5 Z M 166.3,290.7 L 188.2,300.5 L 188.3,291.0 Z M 223.1,84.1 L 218.1,108.6 L 285.6,95.0 Z M 218.1,108.6 L 264.6,119.1 L 285.6,95.0 Z M 264.6,119.1 L 283.8,158.9 L 285.6,95.0 Z M 283.8,158.9 L 312.1,162.4 L 285.6,95.0 Z M 235.1,297.3 L 188.2,300.5 L 218.3,316.0 Z M 188.2,300.5 L 145.1,299.2 L 218.3,316.0 Z M 84.8,162.3 L 125.0,134.1 L 117.3,109.3 Z M 84.8,162.3 L 117.3,109.3 L 75.2,137.3 Z M 312.1,162.4 L 283.8,158.9 L 265.5,270.7 Z M 312.1,162.4 L 265.5,270.7 L 294.4,274.2 Z M 218.1,108.6 L 223.1,84.1 L 159.5,81.3 Z M 218.1,108.6 L 159.5,81.3 L 165.1,106.8 Z M 162.7,306.3 L 165.8,332.7 L 257.5,321.7 Z M 162.7,306.3 L 257.5,321.7 L 254.3,295.3 Z M 87.1,180.8 L 59.3,186.5 L 67.3,247.5 Z M 87.1,180.8 L 67.3,247.5 L 92.7,232.9 Z M 92.7,232.9 L 67.3,247.5 L 81.2,303.9 Z M 92.7,232.9 L 81.2,303.9 L 104.4,280.3 Z M 251.2,208.6 L 283.7,205.5 L 284.3,194.3 Z M 251.2,208.6 L 284.3,194.3 L 260.2,194.0 Z M 206.9,138.2 L 237.5,168.9 L 251.1,168.4 Z M 206.9,138.2 L 251.1,168.4 L 210.5,132.6 Z M 209.3,265.2 L 187.7,234.3 L 196.1,269.3 Z M 209.3,265.2 L 196.1,269.3 L 207.6,268.4 Z M 159.6,146.6 L 188.0,225.2 L 247.7,219.3 Z M 251.2,208.6 L 238.1,178.5 L 160.8,143.6 Z M 196.1,269.3 L 187.7,234.3 L 159.6,235.1 Z" fill="#2a2a4e" stroke="none"/>
  <path d="M 128.1,49.0 L 127.5,59.4 M 127.5,59.4 L 174.0,59.4 M 174.0,59.4 L 174.5,49.0 M 174.5,49.0 L 128.1,49.0 M 159.5,81.3 L 117.3,109.3 M 125.0,134.1 L 165.1,106.8 M 85.2,134.2 L 65.0,224.3 M 264.5,264.7 L 235.1,297.3 M 238.0,333.8 L 299.9,265.2 M 180.7,351.7 L 181.3,367.7 M 181.3,367.7 L 227.8,365.7 M 227.8,365.7 L 227.2,349.6 M 227.2,349.6 L 180.7,351.7 M 35.6,244.2 L 20.0,248.1 M 20.0,248.1 L 31.5,293.1 M 31.5,293.1 L 47.1,289.2 M 47.1,289.2 L 35.6,244.2 M 65.0,224.3 L 90.9,230.1 M 90.9,230.1 L 91.9,225.6 M 299.9,265.2 L 280.1,247.4 M 218.3,316.0 L 238.0,333.8 M 108.4,152.2 L 111.2,140.0 M 111.2,140.0 L 85.2,134.2 M 81.2,303.9 L 127.5,313.3 M 140.4,288.3 L 104.4,280.3 M 127.5,313.3 L 173.9,322.8 M 173.9,322.8 L 176.5,296.3 M 176.5,296.3 L 140.4,288.3 M 164.5,102.2 L 146.5,113.8 M 146.5,113.8 L 168.2,113.1 M 227.8,108.7 L 164.5,102.2 M 168.2,113.1 L 170.6,122.2 M 170.6,122.2 L 217.0,122.2 M 238.1,178.5 L 237.5,168.9 M 188.2,143.0 L 160.8,143.6 M 206.9,138.2 L 192.4,137.7 M 192.4,137.7 L 188.2,143.0 M 91.9,225.6 L 188.0,225.2 M 139.2,150.0 L 108.4,152.2 M 159.6,146.6 L 139.2,148.0 M 139.2,148.0 L 139.2,150.0 M 251.2,178.7 L 238.1,178.5 M 251.8,183.2 L 251.2,178.7 M 260.2,194.0 L 258.8,183.3 M 258.8,183.3 L 251.8,183.2 M 286.0,163.3 L 227.8,108.7 M 255.9,163.6 L 286.0,163.3 M 217.0,122.2 L 216.0,127.6 M 251.1,168.4 L 255.9,163.6 M 216.0,127.6 L 210.7,127.5 M 210.7,127.5 L 210.5,132.6 M 247.7,219.3 L 247.8,213.4 M 160.8,143.6 L 159.6,146.6 M 247.8,213.4 L 251.5,213.4 M 251.5,213.4 L 251.2,208.6 M 282.9,219.3 L 247.7,219.3 M 282.6,224.7 L 282.9,219.3 M 188.0,225.2 L 187.7,234.3 M 280.1,247.4 L 282.6,224.7 M 209.3,265.2 L 264.5,264.7 M 196.9,274.6 L 196.1,269.3 M 188.1,274.7 L 196.9,274.6 M 159.6,235.1 L 158.8,238.5 M 188.1,285.7 L 188.1,274.7 M 158.8,238.5 L 152.2,239.3 M 152.2,239.3 L 152.7,244.1 M 152.7,244.1 L 89.6,244.6 M 162.1,285.6 L 188.1,285.7 M 89.6,244.6 L 145.1,299.2 M 166.3,290.7 L 162.1,285.6 M 188.2,300.5 L 188.3,291.0 M 188.3,291.0 L 166.3,290.7 M 285.6,95.0 L 223.1,84.1 M 218.1,108.6 L 264.6,119.1 M 264.6,119.1 L 283.8,158.9 M 312.1,162.4 L 285.6,95.0 M 235.1,297.3 L 188.2,300.5 M 145.1,299.2 L 218.3,316.0 M 84.8,162.3 L 125.0,134.1 M 117.3,109.3 L 75.2,137.3 M 75.2,137.3 L 84.8,162.3 M 283.8,158.9 L 265.5,270.7 M 265.5,270.7 L 294.4,274.2 M 294.4,274.2 L 312.1,162.4 M 223.1,84.1 L 159.5,81.3 M 165.1,106.8 L 218.1,108.6 M 162.7,306.3 L 165.8,332.7 M 165.8,332.7 L 257.5,321.7 M 257.5,321.7 L 254.3,295.3 M 254.3,295.3 L 162.7,306.3 M 87.1,180.8 L 59.3,186.5 M 59.3,186.5 L 67.3,247.5 M 92.7,232.9 L 87.1,180.8 M 67.3,247.5 L 81.2,303.9 M 104.4,280.3 L 92.7,232.9 M 251.2,208.6 L 283.7,205.5 M 283.7,205.5 L 284.3,194.3 M 284.3,194.3 L 260.2,194.0 M 237.5,168.9 L 251.1,168.4 M 210.5,132.6 L 206.9,138.2 M 196.1,269.3 L 207.6,268.4 M 207.6,268.4 L 209.3,265.2 M 187.7,234.3 L 159.6,235.1" fill="none" stroke="white" stroke-width="2" stroke-linecap="round"/>
  <polygon points="327.9056949067264,179.18036426740554 335.9056949067264,187.18036426740554 327.9056949067264,195.18036426740554 319.9056949067264,187.18036426740554" fill="#4a9eff" stroke="white" stroke-width="1"/>
<polygon points="257.7599195414829,65.86634928110436 265.7599195414829,73.86634928110436 257.7599195414829,81.86634928110436 249.75991954148287,73.86634928110436" fill="#4a9eff" stroke="white" stroke-width="1"/>
</svg>