<svg xmlns="http://www.w3.org/2000/svg" viewBox="0 0 400 400">
  <rect width="400" height="400" fill="#1a1a2e"/>
  <path d="M 62.2,261.1 L 62.5,302.7 L 109.4,302.9 Z M 62.2,261.1 L 109.4,302.9 L 91.9,264.8 Z M 147.0,205.7 L 147.0,167.6 L 105.1,167.6 Z M 147.0,205.7 L 105.1,167.6 L 105.1,205.6 Z M 105.1,138.7 L 62.2,131.3 L 62.1,167.6 Z M 105.1,138.7 L 62.1,167.6 L 105.1,167.6 Z M 222.0,168.1 L 222.0,205.7 L 260.1,204.0 Z M 222.0,168.1 L 260.1,204.0 L 260.1,167.8 Z M 222.0,281.1 L 183.7,281.1 L 183.2,314.2 Z M 222.0,281.1 L 183.2,314.2 L 222.0,314.2 Z M 180.0,309.1 L 174.7,307.0 L 173.0,311.3 Z M 180.0,309.1 L 173.0,311.3 L 178.9,312.0 Z M 101.5,151.9 L 97.2,146.4 L 92.7,150.0 Z M 101.5,151.9 L 92.7,150.0 L 98.5,154.3 Z M 95.7,145.8 L 90.6,144.9 L 89.9,149.0 Z M 95.7,145.8 L 89.9,149.0 L 95.2,148.6 Z M 132.3,212.4 L 126.9,210.3 L 125.2,214.7 Z M 132.3,212.4 L 125.2,214.7 L 131.1,215.4 Z M 104.5,313.7 L 109.4,302.9 L 62.5,302.7 Z M 104.5,313.7 L 62.5,302.7 L 69.4,345.3 Z M 69.4,345.3 L 62.5,302.7 L 20.0,302.6 Z M 69.4,345.3 L 20.0,302.6 L 26.3,330.3 Z M 62.2,131.3 L 41.3,137.0 L 30.2,167.6 Z M 62.2,131.3 L 30.2,167.6 L 62.1,167.6 Z M 62.1,167.6 L 30.2,167.6 L 34.6,205.7 Z M 62.1,167.6 L 34.6,205.7 L 62.0,225.0 Z M 105.1,205.6 L 105.1,225.8 L 147.0,233.6 Z M 105.1,205.6 L 147.0,233.6 L 147.0,205.7 Z M 147.0,205.7 L 147.0,233.6 L 168.8,228.1 Z M 147.0,205.7 L 168.8,228.1 L 179.9,203.1 Z M 271.8,167.8 L 260.1,167.8 L 260.1,204.0 Z M 271.8,167.8 L 260.1,204.0 L 272.7,205.5 Z M 272.7,205.5 L 260.1,204.0 L 222.0,205.7 Z M 272.7,205.5 L 222.0,205.7 L 247.5,233.3 Z M 247.5,233.3 L 222.0,205.7 L 222.0,281.1 Z M 247.5,233.3 L 222.0,281.1 L 232.0,281.1 Z M 232.0,281.1 L 222.0,281.1 L 222.0,314.2 Z M 232.0,281.1 L 222.0,314.2 L 236.1,314.2 Z M 222.0,168.1 L 204.2,168.2 L 201.1,205.7 Z M 222.0,168.1 L 201.1,205.7 L 222.0,205.7 Z M 222.0,205.7 L 201.1,205.7 L 205.2,222.8 Z M 222.0,205.7 L 205.2,222.8 L 222.0,281.1 Z M 222.0,281.1 L 205.2,222.8 L 178.9,243.5 Z M 222.0,281.1 L 178.9,243.5 L 183.7,281.1 Z M 222.0,333.6 L 222.0,314.2 L 183.2,314.2 Z M 222.0,333.6 L 183.2,314.2 L 182.9,341.3 Z M 182.9,341.3 L 183.2,314.2 L 159.5,314.2 Z M 182.9,341.3 L 159.5,314.2 L 171.9,335.5 Z M 62.2,261.1 L 35.5,264.9 L 20.0,302.6 Z M 62.2,261.1 L 20.0,302.6 L 62.5,302.7 Z M 147.0,153.0 L 123.3,136.9 L 105.1,167.6 Z M 147.0,153.0 L 105.1,167.6 L 147.0,167.6 Z M 147.0,205.7 L 179.9,203.1 L 160.7,167.6 Z M 147.0,205.7 L 160.7,167.6 L 147.0,167.6 Z M 62.1,167.6 L 62.0,225.0 L 105.1,205.6 Z M 62.1,167.6 L 105.1,205.6 L 105.1,167.6 Z M 222.0,130.0 L 222.0,168.1 L 260.1,167.8 Z M 222.0,130.0 L 260.1,167.8 L 260.1,133.7 Z M 183.7,281.1 L 156.2,281.1 L 159.5,314.2 Z M 183.7,281.1 L 159.5,314.2 L 183.2,314.2 Z M 160.7,167.6 L 147.0,153.0 L 147.0,167.6 Z M 62.0,225.0 L 105.1,225.8 L 105.1,205.6 Z M 123.3,136.9 L 105.1,138.7 L 105.1,167.6 Z M 271.8,167.8 L 260.1,133.7 L 260.1,167.8 Z M 222.0,168.1 L 222.0,130.0 L 204.2,168.2 Z M 222.0,314.2 L 222.0,333.6 L 236.1,314.2 Z M 178.9,243.5 L 156.2,281.1 L 183.7,281.1 Z M 302.3,278.6 L 302.3,311.8 L 359.0,272.1 Z M 302.3,278.6 L 359.0,272.1 L 349.8,251.9 Z M 349.8,251.9 L 359.0,272.1 L 380.0,215.5 Z M 349.8,251.9 L 380.0,215.5 L 380.0,193.4 Z M 112.4,123.0 L 99.3,142.1 L 126.1,140.5 Z M 99.3,142.1 L 104.5,148.7 L 126.1,140.5 Z M 78.0,139.6 L 99.3,142.1 L 69.7,117.9 Z M 99.3,142.1 L 112.4,123.0 L 69.7,117.9 Z M 66.0,149.0 L 78.0,139.6 L 47.5,135.4 Z M 78.0,139.6 L 69.7,117.9 L 47.5,135.4 Z M 114.9,249.0 L 126.2,228.8 L 98.7,225.1 Z M 126.2,228.8 L 116.0,214.1 L 98.7,225.1 Z M 126.2,228.8 L 114.9,249.0 L 134.4,230.5 Z M 114.9,249.0 L 136.6,253.6 L 134.4,230.5 Z M 152.3,218.8 L 134.4,230.5 L 172.6,230.0 Z M 134.4,230.5 L 136.6,253.6 L 172.6,230.0 Z M 155.5,203.8 L 152.3,218.8 L 178.4,202.4 Z M 152.3,218.8 L 172.6,230.0 L 178.4,202.4 Z M 56.0,360.8 L 62.9,338.6 L 25.6,330.4 Z M 62.9,338.6 L 40.2,316.0 L 25.6,330.4 Z M 71.2,338.6 L 62.9,338.6 L 78.1,360.8 Z M 62.9,338.6 L 56.0,360.8 L 78.1,360.8 Z M 86.4,323.5 L 71.2,338.6 L 108.5,330.4 Z M 71.2,338.6 L 78.1,360.8 L 108.5,330.4 Z M 86.4,311.5 L 86.4,323.5 L 108.5,309.0 Z M 86.4,323.5 L 108.5,330.4 L 108.5,309.0 Z M 91.4,274.9 L 93.8,307.9 L 170.2,299.5 Z M 91.4,274.9 L 170.2,299.5 L 167.7,266.5 Z M 146.2,157.9 L 146.1,191.0 L 223.0,191.0 Z M 146.2,157.9 L 223.0,191.0 L 223.0,157.9 Z M 86.5,209.5 L 53.3,209.4 L 53.3,270.6 Z M 86.5,209.5 L 53.3,270.6 L 86.5,270.6 Z M 225.5,278.6 L 225.5,311.8 L 302.3,311.8 Z M 225.5,278.6 L 302.3,311.8 L 302.3,278.6 Z M 91.4,274.9 L 93.8,307.9 L 170.2,299.5 Z M 91.4,274.9 L 170.2,299.5 L 167.7,266.5 Z M 146.2,157.9 L 146.1,191.0 L 223.0,191.0 Z M 146.2,157.9 L 223.0,191.0 L 223.0,157.9 Z M 86.5,209.5 L 53.3,209.4 L 53.3,270.6 Z M 86.5,209.5 L 53.3,270.6 L 86.5,270.6 Z M 225.5,278.6 L 225.5,311.8 L 302.3,311.8 Z M 225.5,278.6 L 302.3,311.8 L 302.3,278.6 Z M 302.3,311.8 L 359.0,272.1 L 349.8,251.9 Z M 302.3,311.8 L 349.8,251.9 L 302.3,278.6 Z M 225.6,137.0 L 258.8,137.0 L 258.8,20.0 Z M 225.6,137.0 L 258.8,20.0 L 225.6,20.0 Z M 225.6,137.0 L 258.8,137.0 L 258.8,20.0 Z M 225.6,137.0 L 258.8,20.0 L 225.6,20.0 Z M 295.7,278.1 L 300.4,278.0 L 298.1,274.3 Z M 334.6,260.4 L 338.6,257.9 L 334.6,255.9 Z M 238.7,311.8 L 241.0,315.6 L 243.4,311.8 Z M 136.6,253.6 L 140.7,255.4 L 140.5,251.0 Z M 86.7,260.2 L 90.5,257.9 L 86.7,255.5 Z M 110.2,250.0 L 114.6,249.4 L 112.1,245.7 Z M 49.4,234.3 L 53.4,236.4 L 53.4,231.9 Z M 168.8,232.5 L 172.9,234.4 L 172.7,229.9 Z M 164.0,157.8 L 168.7,157.8 L 166.3,154.0 Z M 196.5,191.4 L 198.8,195.2 L 201.2,191.4 Z M 107.6,122.5 L 112.3,123.0 L 110.4,119.0 Z M 52.0,131.6 L 55.6,128.7 L 51.5,127.1 Z M 225.5,21.4 L 221.7,23.7 L 225.5,26.1 Z M 258.9,123.8 L 258.9,128.5 L 262.7,126.2 Z M 279.7,29.2 L 276.3,32.5 L 280.6,33.6 Z" fill="#2a2a4e" stroke="none"/>
  <path d="M 109.4,302.9 L 91.9,264.8 M 91.9,264.8 L 62.2,261.1 M 105.1,138.7 L 62.2,131.3 M 180.0,309.1 L 174.7,307.0 M 174.7,307.0 L 173.0,311.3 M 173.0,311.3 L 178.9,312.0 M 178.9,312.0 L 180.0,309.1 M 101.5,151.9 L 97.2,146.4 M 97.2,146.4 L 92.7,150.0 M 92.7,150.0 L 98.5,154.3 M 98.5,154.3 L 101.5,151.9 M 95.7,145.8 L 90.6,144.9 M 90.6,144.9 L 89.9,149.0 M 89.9,149.0 L 95.2,148.6 M 95.2,148.6 L 95.7,145.8 M 132.3,212.4 L 126.9,210.3 M 126.9,210.3 L 125.2,214.7 M 125.2,214.7 L 131.1,215.4 M 131.1,215.4 L 132.3,212.4 M 104.5,313.7 L 109.4,302.9 M 69.4,345.3 L 104.5,313.7 M 20.0,302.6 L 26.3,330.3 M 26.3,330.3 L 69.4,345.3 M 62.2,131.3 L 41.3,137.0 M 41.3,137.0 L 30.2,167.6 M 30.2,167.6 L 34.6,205.7 M 34.6,205.7 L 62.0,225.0 M 105.1,225.8 L 147.0,233.6 M 147.0,233.6 L 168.8,228.1 M 168.8,228.1 L 179.9,203.1 M 272.7,205.5 L 271.8,167.8 M 247.5,233.3 L 272.7,205.5 M 232.0,281.1 L 247.5,233.3 M 236.1,314.2 L 232.0,281.1 M 204.2,168.2 L 201.1,205.7 M 201.1,205.7 L 205.2,222.8 M 205.2,222.8 L 178.9,243.5 M 182.9,341.3 L 222.0,333.6 M 159.5,314.2 L 171.9,335.5 M 171.9,335.5 L 182.9,341.3 M 62.2,261.1 L 35.5,264.9 M 35.5,264.9 L 20.0,302.6 M 147.0,153.0 L 123.3,136.9 M 179.9,203.1 L 160.7,167.6 M 260.1,133.7 L 222.0,130.0 M 156.2,281.1 L 159.5,314.2 M 160.7,167.6 L 147.0,153.0 M 62.0,225.0 L 105.1,225.8 M 123.3,136.9 L 105.1,138.7 M 271.8,167.8 L 260.1,133.7 M 222.0,130.0 L 204.2,168.2 M 222.0,333.6 L 236.1,314.2 M 178.9,243.5 L 156.2,281.1 M 359.0,272.1 L 380.0,215.5 M 380.0,215.5 L 380.0,193.4 M 380.0,193.4 L 349.8,251.9 M 126.1,140.5 L 112.4,123.0 M 99.3,142.1 L 104.5,148.7 M 104.5,148.7 L 126.1,140.5 M 78.0,139.6 L 99.3,142.1 M 112.4,123.0 L 69.7,117.9 M 66.0,149.0 L 78.0,139.6 M 47.5,135.4 L 66.0,149.0 M 69.7,117.9 L 47.5,135.4 M 98.7,225.1 L 114.9,249.0 M 126.2,228.8 L 116.0,214.1 M 116.0,214.1 L 98.7,225.1 M 134.4,230.5 L 126.2,228.8 M 114.9,249.0 L 136.6,253.6 M 152.3,218.8 L 134.4,230.5 M 136.6,253.6 L 172.6,230.0 M 155.5,203.8 L 152.3,218.8 M 178.4,202.4 L 155.5,203.8 M 172.6,230.0 L 178.4,202.4 M 25.6,330.4 L 56.0,360.8 M 62.9,338.6 L 40.2,316.0 M 40.2,316.0 L 25.6,330.4 M 71.2,338.6 L 62.9,338.6 M 56.0,360.8 L 78.1,360.8 M 86.4,323.5 L 71.2,338.6 M 78.1,360.8 L 108.5,330.4 M 86.4,311.5 L 86.4,323.5 M 108.5,309.0 L 86.4,311.5 M 108.5,330.4 L 108.5,309.0 M 295.7,278.1 L 300.4,278.0 M 300.4,278.0 L 298.1,274.3 M 298.1,274.3 L 295.7,278.1 M 334.6,260.4 L 338.6,257.9 M 338.6,257.9 L 334.6,255.9 M 334.6,255.9 L 334.6,260.4 M 238.7,311.8 L 241.0,315.6 M 241.0,315.6 L 243.4,311.8 M 243.4,311.8 L 238.7,311.8 M 136.6,253.6 L 140.7,255.4 M 140.7,255.4 L 140.5,251.0 M 140.5,251.0 L 136.6,253.6 M 86.7,260.2 L 90.5,257.9 M 90.5,257.9 L 86.7,255.5 M 86.7,255.5 L 86.7,260.2 M 110.2,250.0 L 114.6,249.4 M 114.6,249.4 L 112.1,245.7 M 112.1,245.7 L 110.2,250.0 M 49.4,234.3 L 53.4,236.4 M 53.4,236.4 L 53.4,231.9 M 53.4,231.9 L 49.4,234.3 M 168.8,232.5 L 172.9,234.4 M 172.9,234.4 L 172.7,229.9 M 172.7,229.9 L 168.8,232.5 M 164.0,157.8 L 168.7,157.8 M 168.7,157.8 L 166.3,154.0 M 166.3,154.0 L 164.0,157.8 M 196.5,191.4 L 198.8,195.2 M 198.8,195.2 L 201.2,191.4 M 201.2,191.4 L 196.5,191.4 M 107.6,122.5 L 112.3,123.0 M 112.3,123.0 L 110.4,119.0 M 110.4,119.0 L 107.6,122.5 M 52.0,131.6 L 55.6,128.7 M 55.6,128.7 L 51.5,127.1 M 51.5,127.1 L 52.0,131.6 M 225.5,21.4 L 221.7,23.7 M 221.7,23.7 L 225.5,26.1 M 225.5,26.1 L 225.5,21.4 M 258.9,123.8 L 258.9,128.5 M 258.9,128.5 L 262.7,126.2 M 262.7,126.2 L 258.9,123.8 M 279.7,29.2 L 276.3,32.5 M 276.3,32.5 L 280.6,33.6 M 280.6,33.6 L 279.7,29.2" fill="none" stroke="white" stroke-width="2" stroke-linecap="round"/>
  <polygon points="243.4724900084107,90.41651731936692 251.4724900084107,98.41651731936692 243.4724900084107,106.41651731936692 235.4724900084107,98.41651731936692" fill="#4a9eff" stroke="white" stroke-width="1"/>
<polygon points="263.85701508952826,287.3863753389505 271.85701508952826,295.3863753389505 263.85701508952826,303.3863753389505 255.85701508952826,295.3863753389505" fill="#4a9eff" stroke="white" stroke-width="1"/>
</svg>