<svg xmlns="http://www.w3.org/2000/svg" viewBox="0 0 400 400">
  <rect width="400" height="400" fill="#1a1a2e"/>
  <path d="M 133.2,270.3 L 166.0,270.1 L 166.1,233.1 Z M 133.2,270.3 L 166.1,233.1 L 136.1,246.9 Z M 89.5,203.5 L 59.6,203.5 L 59.5,236.5 Z M 89.5,203.5 L 59.5,236.5 L 89.5,236.5 Z M 36.8,236.5 L 31.0,270.3 L 59.5,270.4 Z M 36.8,236.5 L 59.5,270.4 L 59.5,236.5 Z M 59.9,144.4 L 89.5,144.4 L 88.2,114.4 Z M 59.9,144.4 L 88.2,114.4 L 59.7,114.4 Z M 148.9,144.4 L 148.9,174.6 L 175.0,175.0 Z M 148.9,144.4 L 175.0,175.0 L 175.0,144.4 Z M 47.2,239.3 L 42.9,242.7 L 45.7,246.2 Z M 47.2,239.3 L 45.7,246.2 L 49.0,241.7 Z M 42.4,243.9 L 41.7,247.9 L 44.9,248.5 Z M 42.4,243.9 L 44.9,248.5 L 44.5,244.3 Z M 94.9,215.1 L 93.2,219.3 L 96.6,220.7 Z M 94.9,215.1 L 96.6,220.7 L 97.2,216.0 Z M 140.9,140.0 L 134.6,140.5 L 135.1,145.6 Z M 140.9,140.0 L 135.1,145.6 L 141.2,143.4 Z M 134.0,136.2 L 130.8,139.5 L 133.6,142.1 Z M 134.0,136.2 L 133.6,142.1 L 135.8,137.9 Z M 174.6,237.0 L 166.1,233.1 L 166.0,270.1 Z M 174.6,237.0 L 166.0,270.1 L 199.5,264.7 Z M 199.5,264.7 L 166.0,270.1 L 165.8,303.5 Z M 199.5,264.7 L 165.8,303.5 L 187.7,298.6 Z M 31.0,270.3 L 35.4,286.8 L 59.5,295.5 Z M 31.0,270.3 L 59.5,295.5 L 59.5,270.4 Z M 59.5,270.4 L 59.5,295.5 L 89.6,292.0 Z M 59.5,270.4 L 89.6,292.0 L 104.8,270.4 Z M 89.5,236.5 L 105.4,236.5 L 111.6,203.5 Z M 89.5,236.5 L 111.6,203.5 L 89.5,203.5 Z M 89.5,203.5 L 111.6,203.5 L 107.2,186.3 Z M 89.5,203.5 L 107.2,186.3 L 87.5,177.6 Z M 59.9,144.4 L 60.0,158.5 L 89.6,160.9 Z M 59.9,144.4 L 89.6,160.9 L 89.5,144.4 Z M 89.5,144.4 L 89.6,160.9 L 103.0,157.7 Z M 89.5,144.4 L 103.0,157.7 L 148.9,144.4 Z M 148.9,144.4 L 103.0,157.7 L 119.3,178.4 Z M 148.9,144.4 L 119.3,178.4 L 148.9,174.6 Z M 111.3,124.4 L 89.5,144.4 L 148.9,144.4 Z M 111.3,124.4 L 148.9,144.4 L 148.9,136.5 Z M 148.9,136.5 L 148.9,144.4 L 175.0,144.4 Z M 148.9,136.5 L 175.0,144.4 L 175.0,133.4 Z M 190.3,144.4 L 175.0,144.4 L 175.0,175.0 Z M 190.3,144.4 L 175.0,175.0 L 196.3,175.2 Z M 196.3,175.2 L 175.0,175.0 L 175.0,193.7 Z M 196.3,175.2 L 175.0,193.7 L 191.8,183.9 Z M 89.5,144.4 L 111.3,124.4 L 88.2,114.4 Z M 111.3,124.4 L 89.4,104.5 L 88.2,114.4 Z M 133.2,270.3 L 136.2,291.4 L 165.8,303.5 Z M 133.2,270.3 L 165.8,303.5 L 166.0,270.1 Z M 48.0,203.5 L 35.4,222.2 L 59.5,236.5 Z M 48.0,203.5 L 59.5,236.5 L 59.6,203.5 Z M 89.5,203.5 L 87.5,177.6 L 59.6,192.8 Z M 89.5,203.5 L 59.6,192.8 L 59.6,203.5 Z M 59.5,270.4 L 104.8,270.4 L 89.5,236.5 Z M 59.5,270.4 L 89.5,236.5 L 59.5,236.5 Z M 59.7,114.4 L 88.2,114.4 L 89.4,104.5 Z M 59.7,114.4 L 89.4,104.5 L 59.7,105.2 Z M 30.0,144.4 L 59.9,144.4 L 59.7,114.4 Z M 30.0,144.4 L 59.7,114.4 L 32.8,114.4 Z M 148.9,174.6 L 148.9,196.3 L 175.0,193.7 Z M 148.9,174.6 L 175.0,193.7 L 175.0,175.0 Z M 59.6,192.8 L 48.0,203.5 L 59.6,203.5 Z M 104.8,270.4 L 105.4,236.5 L 89.5,236.5 Z M 35.4,222.2 L 36.8,236.5 L 59.5,236.5 Z M 59.7,105.2 L 32.8,114.4 L 59.7,114.4 Z M 59.9,144.4 L 30.0,144.4 L 60.0,158.5 Z M 175.0,144.4 L 190.3,144.4 L 175.0,133.4 Z M 119.3,178.4 L 148.9,196.3 L 148.9,174.6 Z M 147.0,81.2 L 173.1,81.2 L 141.8,36.5 Z M 147.0,81.2 L 141.8,36.5 L 124.2,44.0 Z M 124.2,44.0 L 141.8,36.5 L 97.3,20.0 Z M 124.2,44.0 L 97.3,20.0 L 79.8,20.0 Z M 39.5,241.1 L 44.7,237.0 L 24.4,230.7 Z M 44.7,237.0 L 38.2,220.0 L 24.4,230.7 Z M 37.5,257.9 L 39.5,241.1 L 20.4,264.4 Z M 39.5,241.1 L 24.4,230.7 L 20.4,264.4 Z M 34.1,281.9 L 44.9,267.3 L 20.4,264.4 Z M 44.9,267.3 L 37.5,257.9 L 20.4,264.4 Z M 123.7,228.8 L 107.7,219.9 L 104.8,241.6 Z M 107.7,219.9 L 96.2,228.0 L 104.8,241.6 Z M 123.7,228.8 L 127.2,211.7 L 107.7,219.9 Z M 127.2,211.7 L 109.1,213.5 L 107.7,219.9 Z M 108.7,183.4 L 99.8,199.3 L 127.2,211.7 Z M 99.8,199.3 L 109.1,213.5 L 127.2,211.7 Z M 86.9,178.8 L 88.1,196.8 L 108.7,183.4 Z M 88.1,196.8 L 99.8,199.3 L 108.7,183.4 Z M 211.7,275.2 L 194.3,269.8 L 187.7,299.2 Z M 194.3,269.8 L 176.4,287.6 L 187.7,299.2 Z M 211.7,257.8 L 194.3,263.2 L 211.7,275.2 Z M 194.3,263.2 L 194.3,269.8 L 211.7,275.2 Z M 182.3,251.2 L 194.3,263.2 L 187.7,233.8 Z M 194.3,263.2 L 211.7,257.8 L 187.7,233.8 Z M 170.7,251.2 L 182.3,251.2 L 167.0,233.8 Z M 182.3,251.2 L 187.7,233.8 L 167.0,233.8 Z M 141.9,247.3 L 167.9,245.4 L 161.3,185.3 Z M 141.9,247.3 L 161.3,185.3 L 135.2,187.2 Z M 56.2,204.2 L 82.4,204.2 L 82.4,143.7 Z M 56.2,204.2 L 82.4,143.7 L 56.2,143.7 Z M 92.5,251.1 L 92.5,277.3 L 140.7,277.3 Z M 92.5,251.1 L 140.7,277.3 L 140.7,251.1 Z M 78.1,288.7 L 52.0,288.7 L 52.0,349.2 Z M 78.1,288.7 L 52.0,349.2 L 78.1,349.3 Z M 37.4,380.0 L 78.1,349.3 L 52.0,349.2 Z M 37.4,380.0 L 52.0,349.2 L 20.0,380.0 Z M 147.0,141.7 L 173.1,141.7 L 173.1,81.2 Z M 147.0,141.7 L 173.1,81.2 L 147.0,81.2 Z M 141.9,247.3 L 167.9,245.4 L 161.3,185.3 Z M 141.9,247.3 L 161.3,185.3 L 135.2,187.2 Z M 56.2,204.2 L 82.4,204.2 L 82.4,143.7 Z M 56.2,204.2 L 82.4,143.7 L 56.2,143.7 Z M 92.5,251.1 L 92.5,277.3 L 140.7,277.3 Z M 92.5,251.1 L 140.7,277.3 L 140.7,251.1 Z M 78.1,288.7 L 52.0,288.7 L 52.0,349.2 Z M 78.1,288.7 L 52.0,349.2 L 78.1,349.3 Z M 147.0,141.7 L 173.1,141.7 L 173.1,81.2 Z M 147.0,141.7 L 173.1,81.2 L 147.0,81.2 Z M 173.1,81.2 L 141.8,36.5 L 124.2,44.0 Z M 173.1,81.2 L 124.2,44.0 L 147.0,81.2 Z M 78.2,348.2 L 81.2,346.3 L 78.2,344.5 Z M 146.5,86.4 L 146.5,82.7 L 143.6,84.5 Z M 133.2,54.6 L 131.2,51.5 L 129.6,54.6 Z M 173.1,131.3 L 176.1,129.5 L 173.1,127.6 Z M 127.2,211.7 L 128.7,208.5 L 125.2,208.6 Z M 132.5,251.0 L 130.6,248.0 L 128.8,251.0 Z M 124.4,232.5 L 123.9,229.0 L 121.1,231.0 Z M 112.1,280.4 L 113.7,277.3 L 110.2,277.2 Z M 110.7,186.3 L 112.1,183.1 L 108.6,183.2 Z M 56.2,190.1 L 56.2,186.4 L 53.2,188.3 Z M 82.7,164.6 L 85.7,162.7 L 82.7,160.9 Z M 24.0,234.5 L 24.4,230.9 L 21.3,232.3 Z M 31.2,278.4 L 28.9,275.5 L 27.7,278.8 Z M 51.9,301.4 L 51.9,297.7 L 48.9,299.5 Z" fill="#2a2a4e" stroke="none"/>
  <path d="M 166.1,233.1 L 136.1,246.9 M 136.1,246.9 L 133.2,270.3 M 36.8,236.5 L 31.0,270.3 M 47.2,239.3 L 42.9,242.7 M 42.9,242.7 L 45.7,246.2 M 45.7,246.2 L 49.0,241.7 M 49.0,241.7 L 47.2,239.3 M 42.4,243.9 L 41.7,247.9 M 41.7,247.9 L 44.9,248.5 M 44.9,248.5 L 44.5,244.3 M 44.5,244.3 L 42.4,243.9 M 94.9,215.1 L 93.2,219.3 M 93.2,219.3 L 96.6,220.7 M 96.6,220.7 L 97.2,216.0 M 97.2,216.0 L 94.9,215.1 M 140.9,140.0 L 134.6,140.5 M 134.6,140.5 L 135.1,145.6 M 135.1,145.6 L 141.2,143.4 M 141.2,143.4 L 140.9,140.0 M 134.0,136.2 L 130.8,139.5 M 130.8,139.5 L 133.6,142.1 M 133.6,142.1 L 135.8,137.9 M 135.8,137.9 L 134.0,136.2 M 174.6,237.0 L 166.1,233.1 M 199.5,264.7 L 174.6,237.0 M 165.8,303.5 L 187.7,298.6 M 187.7,298.6 L 199.5,264.7 M 31.0,270.3 L 35.4,286.8 M 35.4,286.8 L 59.5,295.5 M 59.5,295.5 L 89.6,292.0 M 89.6,292.0 L 104.8,270.4 M 105.4,236.5 L 111.6,203.5 M 111.6,203.5 L 107.2,186.3 M 107.2,186.3 L 87.5,177.6 M 60.0,158.5 L 89.6,160.9 M 89.6,160.9 L 103.0,157.7 M 103.0,157.7 L 119.3,178.4 M 148.9,136.5 L 111.3,124.4 M 175.0,133.4 L 148.9,136.5 M 196.3,175.2 L 190.3,144.4 M 175.0,193.7 L 191.8,183.9 M 191.8,183.9 L 196.3,175.2 M 111.3,124.4 L 89.4,104.5 M 133.2,270.3 L 136.2,291.4 M 136.2,291.4 L 165.8,303.5 M 48.0,203.5 L 35.4,222.2 M 87.5,177.6 L 59.6,192.8 M 89.4,104.5 L 59.7,105.2 M 32.8,114.4 L 30.0,144.4 M 148.9,196.3 L 175.0,193.7 M 59.6,192.8 L 48.0,203.5 M 104.8,270.4 L 105.4,236.5 M 35.4,222.2 L 36.8,236.5 M 59.7,105.2 L 32.8,114.4 M 30.0,144.4 L 60.0,158.5 M 190.3,144.4 L 175.0,133.4 M 119.3,178.4 L 148.9,196.3 M 141.8,36.5 L 97.3,20.0 M 97.3,20.0 L 79.8,20.0 M 79.8,20.0 L 124.2,44.0 M 39.5,241.1 L 44.7,237.0 M 44.7,237.0 L 38.2,220.0 M 38.2,220.0 L 24.4,230.7 M 37.5,257.9 L 39.5,241.1 M 24.4,230.7 L 20.4,264.4 M 34.1,281.9 L 44.9,267.3 M 20.4,264.4 L 34.1,281.9 M 44.9,267.3 L 37.5,257.9 M 104.8,241.6 L 123.7,228.8 M 107.7,219.9 L 96.2,228.0 M 96.2,228.0 L 104.8,241.6 M 123.7,228.8 L 127.2,211.7 M 109.1,213.5 L 107.7,219.9 M 127.2,211.7 L 108.7,183.4 M 99.8,199.3 L 109.1,213.5 M 86.9,178.8 L 88.1,196.8 M 108.7,183.4 L 86.9,178.8 M 88.1,196.8 L 99.8,199.3 M 187.7,299.2 L 211.7,275.2 M 194.3,269.8 L 176.4,287.6 M 176.4,287.6 L 187.7,299.2 M 211.7,275.2 L 211.7,257.8 M 194.3,263.2 L 194.3,269.8 M 182.3,251.2 L 194.3,263.2 M 211.7,257.8 L 187.7,233.8 M 170.7,251.2 L 182.3,251.2 M 167.0,233.8 L 170.7,251.2 M 187.7,233.8 L 167.0,233.8 M 37.4,380.0 L 78.1,349.3 M 52.0,349.2 L 20.0,380.0 M 20.0,380.0 L 37.4,380.0 M 78.2,348.2 L 81.2,346.3 M 81.2,346.3 L 78.2,344.5 M 78.2,344.5 L 78.2,348.2 M 146.5,86.4 L 146.5,82.7 M 146.5,82.7 L 143.6,84.5 M 143.6,84.5 L 146.5,86.4 M 133.2,54.6 L 131.2,51.5 M 131.2,51.5 L 129.6,54.6 M 129.6,54.6 L 133.2,54.6 M 173.1,131.3 L 176.1,129.5 M 176.1,129.5 L 173.1,127.6 M 173.1,127.6 L 173.1,131.3 M 127.2,211.7 L 128.7,208.5 M 128.7,208.5 L 125.2,208.6 M 125.2,208.6 L 127.2,211.7 M 132.5,251.0 L 130.6,248.0 M 130.6,248.0 L 128.8,251.0 M 128.8,251.0 L 132.5,251.0 M 124.4,232.5 L 123.9,229.0 M 123.9,229.0 L 121.1,231.0 M 121.1,231.0 L 124.4,232.5 M 112.1,280.4 L 113.7,277.3 M 113.7,277.3 L 110.2,277.2 M 110.2,277.2 L 112.1,280.4 M 110.7,186.3 L 112.1,183.1 M 112.1,183.1 L 108.6,183.2 M 108.6,183.2 L 110.7,186.3 M 56.2,190.1 L 56.2,186.4 M 56.2,186.4 L 53.2,188.3 M 53.2,188.3 L 56.2,190.1 M 82.7,164.6 L 85.7,162.7 M 85.7,162.7 L 82.7,160.9 M 82.7,160.9 L 82.7,164.6 M 24.0,234.5 L 24.4,230.9 M 24.4,230.9 L 21.3,232.3 M 21.3,232.3 L 24.0,234.5 M 31.2,278.4 L 28.9,275.5 M 28.9,275.5 L 27.7,278.8 M 27.7,278.8 L 31.2,278.4 M 51.9,301.4 L 51.9,297.7 M 51.9,297.7 L 48.9,299.5 M 48.9,299.5 L 51.9,301.4" fill="none" stroke="white" stroke-width="2" stroke-linecap="round"/>
  <polygon points="66.0757715102537,297.5109161054715 74.0757715102537,305.5109161054715 66.0757715102537,313.5109161054715 58.0757715102537,305.5109161054715" fill="#4a9eff" stroke="white" stroke-width="1"/>
<polygon points="160.50764560475542,102.87136411260249 168.50764560475542,110.87136411260249 160.50764560475542,118.87136411260249 152.50764560475542,110.87136411260249" fill="#4a9eff" stroke="white" stroke-width="1"/>
</svg>