<svg xmlns="http://www.w3.org/2000/svg" viewBox="0 0 400 400">
  <rect width="400" height="400" fill="#1a1a2e"/>
  <path d="M 313.5,206.9 L 311.3,192.6 L 297.0,194.7 Z M 313.5,206.9 L 297.0,194.7 L 299.2,209.0 Z M 298.2,294.9 L 312.6,294.0 L 311.8,279.5 Z M 298.2,294.9 L 311.8,279.5 L 297.3,280.4 Z M 307.5,273.7 L 305.4,259.3 L 291.0,261.5 Z M 307.5,273.7 L 291.0,261.5 L 293.2,275.8 Z M 177.3,313.5 L 175.5,301.3 L 163.3,303.1 Z M 177.3,313.5 L 163.3,303.1 L 165.1,315.3 Z M 151.2,200.6 L 162.8,209.2 L 171.4,197.6 Z M 151.2,200.6 L 171.4,197.6 L 159.8,188.9 Z M 207.1,253.8 L 217.9,253.0 L 219.4,250.0 Z M 207.1,253.8 L 219.4,250.0 L 199.2,221.0 Z M 199.2,221.0 L 219.4,250.0 L 271.2,249.5 Z M 199.2,221.0 L 271.2,249.5 L 285.8,233.3 Z M 207.7,258.8 L 207.1,253.8 L 172.8,221.7 Z M 207.7,258.8 L 172.8,221.7 L 199.5,258.9 Z M 199.5,258.9 L 172.8,221.7 L 172.1,224.9 Z M 199.5,258.9 L 172.1,224.9 L 199.6,269.2 Z M 199.6,269.2 L 172.1,224.9 L 165.9,225.6 Z M 199.6,269.2 L 165.9,225.6 L 166.3,230.2 Z M 199.6,269.2 L 166.3,230.2 L 107.2,230.7 Z M 199.6,269.2 L 107.2,230.7 L 175.2,269.1 Z M 175.2,269.1 L 107.2,230.7 L 159.2,281.9 Z M 175.2,269.1 L 159.2,281.9 L 179.0,273.9 Z M 179.0,273.9 L 159.2,281.9 L 199.6,283.0 Z M 179.0,273.9 L 199.6,283.0 L 199.7,274.2 Z M 199.4,212.4 L 199.9,207.5 L 153.1,207.4 Z M 199.4,212.4 L 153.1,207.4 L 109.3,212.9 Z M 109.3,212.9 L 153.1,207.4 L 152.5,201.4 Z M 109.3,212.9 L 152.5,201.4 L 111.9,201.3 Z M 154.8,271.6 L 121.0,264.1 L 142.7,295.1 Z M 121.0,264.1 L 99.3,286.3 L 142.7,295.1 Z M 99.3,286.3 L 121.0,264.1 L 83.6,224.3 Z M 121.0,264.1 L 110.1,219.7 L 83.6,224.3 Z M 188.7,279.2 L 154.8,271.6 L 186.2,304.0 Z M 154.8,271.6 L 142.7,295.1 L 186.2,304.0 Z M 243.6,280.1 L 199.6,283.0 L 227.8,297.6 Z M 199.6,283.0 L 159.2,281.9 L 227.8,297.6 Z M 264.6,303.0 L 261.6,278.2 L 175.7,288.6 Z M 264.6,303.0 L 175.7,288.6 L 178.6,313.3 Z M 285.8,233.3 L 287.2,221.5 L 199.4,212.4 Z M 285.8,233.3 L 199.4,212.4 L 199.2,221.0 Z M 207.1,253.8 L 199.2,221.0 L 172.8,221.7 Z M 199.4,212.4 L 287.2,221.5 L 199.9,207.5 Z M 103.6,287.2 L 103.6,373.7 L 141.0,294.8 Z M 103.6,373.7 L 141.0,380.0 L 141.0,294.8 Z M 83.8,224.5 L 20.0,224.5 L 94.6,261.9 Z M 20.0,224.5 L 20.0,261.9 L 94.6,261.9 Z M 289.3,20.0 L 251.9,20.0 L 251.9,90.6 Z M 289.3,20.0 L 251.9,90.6 L 289.3,90.6 Z M 344.3,158.7 L 329.2,159.2 L 331.1,202.8 Z M 344.3,158.7 L 331.1,202.8 L 346.2,202.2 Z M 77.1,125.9 L 67.4,124.7 L 64.0,168.1 Z M 77.1,125.9 L 64.0,168.1 L 73.7,169.4 Z M 293.6,193.9 L 294.1,184.1 L 250.5,184.1 Z M 293.6,193.9 L 250.5,184.1 L 249.9,193.9 Z M 29.1,291.6 L 39.6,302.4 L 70.8,272.0 Z M 29.1,291.6 L 70.8,272.0 L 60.3,261.1 Z M 103.6,373.7 L 141.0,380.0 L 141.0,294.8 Z M 103.6,373.7 L 141.0,294.8 L 103.6,287.2 Z M 271.2,249.5 L 243.6,280.1 L 246.4,314.3 Z M 271.2,249.5 L 246.4,314.3 L 304.3,250.0 Z M 298.6,218.2 L 181.3,201.4 L 177.6,223.6 Z M 298.6,218.2 L 177.6,223.6 L 295.3,240.8 Z M 187.6,116.9 L 177.1,106.0 L 145.9,136.5 Z M 187.6,116.9 L 145.9,136.5 L 156.4,147.3 Z M 372.5,260.7 L 372.5,223.3 L 296.1,223.3 Z M 372.5,260.7 L 296.1,223.3 L 296.1,260.7 Z M 372.5,260.7 L 372.5,223.3 L 296.1,223.3 Z M 372.5,260.7 L 296.1,223.3 L 296.1,260.7 Z M 271.2,249.5 L 243.6,280.1 L 246.4,314.3 Z M 271.2,249.5 L 246.4,314.3 L 304.3,250.0 Z M 304.3,250.0 L 285.8,233.3 L 271.2,249.5 Z M 243.6,280.1 L 227.8,297.6 L 246.4,314.3 Z M 304.3,250.0 L 285.8,233.3 L 271.2,249.5 Z" fill="#2a2a4e" stroke="none"/>
  <path d="M 313.5,206.9 L 311.3,192.6 M 311.3,192.6 L 297.0,194.7 M 297.0,194.7 L 299.2,209.0 M 299.2,209.0 L 313.5,206.9 M 298.2,294.9 L 312.6,294.0 M 312.6,294.0 L 311.8,279.5 M 311.8,279.5 L 297.3,280.4 M 297.3,280.4 L 298.2,294.9 M 307.5,273.7 L 305.4,259.3 M 305.4,259.3 L 291.0,261.5 M 291.0,261.5 L 293.2,275.8 M 293.2,275.8 L 307.5,273.7 M 177.3,313.5 L 175.5,301.3 M 175.5,301.3 L 163.3,303.1 M 163.3,303.1 L 165.1,315.3 M 165.1,315.3 L 177.3,313.5 M 151.2,200.6 L 162.8,209.2 M 162.8,209.2 L 171.4,197.6 M 171.4,197.6 L 159.8,188.9 M 159.8,188.9 L 151.2,200.6 M 207.1,253.8 L 217.9,253.0 M 217.9,253.0 L 219.4,250.0 M 219.4,250.0 L 271.2,249.5 M 207.7,258.8 L 207.1,253.8 M 199.5,258.9 L 207.7,258.8 M 172.8,221.7 L 172.1,224.9 M 199.6,269.2 L 199.5,258.9 M 172.1,224.9 L 165.9,225.6 M 165.9,225.6 L 166.3,230.2 M 166.3,230.2 L 107.2,230.7 M 175.2,269.1 L 199.6,269.2 M 107.2,230.7 L 159.2,281.9 M 179.0,273.9 L 175.2,269.1 M 199.6,283.0 L 199.7,274.2 M 199.7,274.2 L 179.0,273.9 M 199.9,207.5 L 153.1,207.4 M 109.3,212.9 L 199.4,212.4 M 153.1,207.4 L 152.5,201.4 M 152.5,201.4 L 111.9,201.3 M 111.9,201.3 L 109.3,212.9 M 154.8,271.6 L 121.0,264.1 M 99.3,286.3 L 142.7,295.1 M 83.6,224.3 L 99.3,286.3 M 121.0,264.1 L 110.1,219.7 M 110.1,219.7 L 83.6,224.3 M 188.7,279.2 L 154.8,271.6 M 186.2,304.0 L 188.7,279.2 M 142.7,295.1 L 186.2,304.0 M 243.6,280.1 L 199.6,283.0 M 159.2,281.9 L 227.8,297.6 M 264.6,303.0 L 261.6,278.2 M 261.6,278.2 L 175.7,288.6 M 175.7,288.6 L 178.6,313.3 M 178.6,313.3 L 264.6,303.0 M 285.8,233.3 L 287.2,221.5 M 199.4,212.4 L 199.2,221.0 M 199.2,221.0 L 172.8,221.7 M 287.2,221.5 L 199.9,207.5 M 83.8,224.5 L 20.0,224.5 M 94.6,261.9 L 83.8,224.5 M 20.0,224.5 L 20.0,261.9 M 20.0,261.9 L 94.6,261.9 M 289.3,20.0 L 251.9,20.0 M 251.9,20.0 L 251.9,90.6 M 251.9,90.6 L 289.3,90.6 M 289.3,90.6 L 289.3,20.0 M 344.3,158.7 L 329.2,159.2 M 329.2,159.2 L 331.1,202.8 M 331.1,202.8 L 346.2,202.2 M 346.2,202.2 L 344.3,158.7 M 77.1,125.9 L 67.4,124.7 M 67.4,124.7 L 64.0,168.1 M 64.0,168.1 L 73.7,169.4 M 73.7,169.4 L 77.1,125.9 M 293.6,193.9 L 294.1,184.1 M 294.1,184.1 L 250.5,184.1 M 250.5,184.1 L 249.9,193.9 M 249.9,193.9 L 293.6,193.9 M 29.1,291.6 L 39.6,302.4 M 39.6,302.4 L 70.8,272.0 M 70.8,272.0 L 60.3,261.1 M 60.3,261.1 L 29.1,291.6 M 298.6,218.2 L 181.3,201.4 M 181.3,201.4 L 177.6,223.6 M 177.6,223.6 L 295.3,240.8 M 295.3,240.8 L 298.6,218.2 M 187.6,116.9 L 177.1,106.0 M 177.1,106.0 L 145.9,136.5 M 145.9,136.5 L 156.4,147.3 M 156.4,147.3 L 187.6,116.9 M 227.8,297.6 L 246.4,314.3" fill="none" stroke="white" stroke-width="2" stroke-linecap="round"/>
  <polygon points="119.63234407336137,315.45025791005764 127.63234407336137,323.45025791005764 119.63234407336137,331.45025791005764 111.63234407336137,323.45025791005764" fill="#4a9eff" stroke="white" stroke-width="1"/>
<polygon points="56.52411119509149,240.11261482215374 64.52411119509149,248.11261482215374 56.52411119509149,256.1126148221538 48.52411119509149,248.11261482215374" fill="#4a9eff" stroke="white" stroke-width="1"/>
<polygon points="310.865333262679,235.70464915677874 318.865333262679,243.70464915677874 310.865333262679,251.70464915677874 302.865333262679,243.70464915677874" fill="#4a9eff" stroke="white" stroke-width="1"/>
</svg>