<svg xmlns="http://www.w3.org/2000/svg" viewBox="0 0 400 400">
  <rect width="400" height="400" fill="#1a1a2e"/>
  <path d="M 210.3,121.5 L 243.8,174.2 L 229.9,107.4 Z M 243.8,174.2 L 269.0,168.7 L 229.9,107.4 Z M 227.8,303.5 L 188.5,318.4 L 227.8,380.0 Z M 188.5,318.4 L 188.5,380.0 L 227.8,380.0 Z M 290.5,183.0 L 300.8,183.5 L 300.8,137.7 Z M 290.5,183.0 L 300.8,137.7 L 290.5,137.1 Z M 183.9,165.8 L 205.9,107.4 L 183.9,98.6 Z M 183.9,165.8 L 183.9,98.6 L 161.4,157.3 Z M 120.0,169.0 L 179.1,189.1 L 187.2,166.8 Z M 120.0,169.0 L 187.2,166.8 L 127.8,146.2 Z M 88.1,272.2 L 55.9,243.2 L 20.0,246.1 Z M 88.1,272.2 L 20.0,246.1 L 87.6,307.1 Z M 121.0,301.1 L 138.7,177.8 L 115.4,173.9 Z M 121.0,301.1 L 115.4,173.9 L 97.2,297.6 Z M 120.0,169.0 L 179.1,189.1 L 187.2,166.8 Z M 120.0,169.0 L 187.2,166.8 L 127.8,146.2 Z M 188.5,380.0 L 227.8,380.0 L 227.8,303.5 Z M 188.5,380.0 L 227.8,303.5 L 188.5,318.4 Z M 133.7,20.0 L 130.2,35.5 L 174.9,45.4 Z M 133.7,20.0 L 174.9,45.4 L 178.4,29.9 Z M 156.1,367.9 L 168.4,357.9 L 139.4,322.4 Z M 156.1,367.9 L 139.4,322.4 L 127.1,332.4 Z M 87.6,307.1 L 105.2,287.6 L 88.1,272.2 Z M 55.9,243.2 L 37.6,226.7 L 20.0,246.1 Z M 237.6,177.3 L 228.6,179.6 L 228.6,225.4 Z M 237.6,177.3 L 228.6,225.4 L 242.0,236.0 Z M 242.0,236.0 L 228.6,225.4 L 188.1,293.4 Z M 242.0,236.0 L 188.1,293.4 L 188.1,293.4 Z M 199.2,106.0 L 178.2,106.1 L 178.1,197.0 Z M 199.2,106.0 L 178.1,197.0 L 201.2,148.7 Z M 201.2,148.7 L 178.1,197.0 L 204.5,168.8 Z M 201.2,148.7 L 204.5,168.8 L 203.2,148.6 Z M 178.1,197.0 L 172.5,196.8 L 173.4,210.6 Z M 178.1,197.0 L 173.4,210.6 L 188.1,293.4 Z M 188.1,293.4 L 173.4,210.6 L 168.7,211.1 Z M 188.1,293.4 L 168.7,211.1 L 172.7,253.4 Z M 207.5,169.9 L 204.5,168.8 L 178.1,197.0 Z M 207.5,169.9 L 178.1,197.0 L 208.1,197.0 Z M 208.1,197.0 L 178.1,197.0 L 212.9,215.5 Z M 208.1,197.0 L 212.9,215.5 L 213.4,201.2 Z M 83.6,204.8 L 84.4,216.1 L 87.6,217.7 Z M 83.6,204.8 L 87.6,217.7 L 118.1,196.5 Z M 118.1,196.5 L 87.6,217.7 L 88.1,272.2 Z M 118.1,196.5 L 88.1,272.2 L 105.2,287.6 Z M 78.3,205.5 L 83.6,204.8 L 117.3,168.8 Z M 78.3,205.5 L 117.3,168.8 L 78.2,196.9 Z M 78.2,196.9 L 117.3,168.8 L 114.0,168.0 Z M 78.2,196.9 L 114.0,168.0 L 67.4,196.9 Z M 67.4,196.9 L 114.0,168.0 L 113.2,161.5 Z M 67.4,196.9 L 113.2,161.5 L 108.4,162.0 Z M 67.4,196.9 L 108.4,162.0 L 107.9,99.8 Z M 67.4,196.9 L 107.9,99.8 L 67.5,171.3 Z M 67.5,171.3 L 107.9,99.8 L 54.1,154.5 Z M 67.5,171.3 L 54.1,154.5 L 62.5,175.3 Z M 62.5,175.3 L 54.1,154.5 L 52.8,197.0 Z M 62.5,175.3 L 52.8,197.0 L 62.1,197.1 Z M 127.1,196.7 L 132.2,197.3 L 132.4,148.1 Z M 127.1,196.7 L 132.4,148.1 L 126.6,102.0 Z M 126.6,102.0 L 132.4,148.1 L 138.7,147.4 Z M 126.6,102.0 L 138.7,147.4 L 138.8,104.8 Z M 242.0,226.4 L 231.7,272.3 L 266.2,231.4 Z M 231.7,272.3 L 255.5,293.0 L 266.2,231.4 Z M 231.7,272.3 L 192.5,291.2 L 255.5,293.0 Z M 192.5,291.2 L 189.0,319.1 L 255.5,293.0 Z M 49.4,91.5 L 40.1,137.2 L 72.8,114.3 Z M 40.1,137.2 L 64.8,149.9 L 72.8,114.3 Z M 49.4,91.5 L 72.8,114.3 L 114.6,75.0 Z M 72.8,114.3 L 119.5,102.8 L 114.6,75.0 Z M 236.9,124.4 L 237.6,177.3 L 248.3,173.6 Z M 237.6,177.3 L 242.0,236.0 L 248.3,173.6 Z M 218.3,219.0 L 212.9,215.5 L 188.1,293.4 Z M 212.9,215.5 L 178.1,197.0 L 188.1,293.4 Z M 55.9,243.2 L 52.8,197.0 L 37.6,226.7 Z M 52.8,197.0 L 54.1,154.5 L 37.6,226.7 Z M 269.0,168.7 L 243.8,174.2 L 242.0,226.4 Z M 269.0,168.7 L 242.0,226.4 L 266.2,231.4 Z M 31.9,265.3 L 58.0,262.2 L 47.0,171.8 Z M 31.9,265.3 L 47.0,171.8 L 21.0,174.9 Z M 40.1,137.2 L 30.8,182.8 L 56.9,185.4 Z M 40.1,137.2 L 56.9,185.4 L 64.8,149.9 Z M 189.0,319.1 L 192.5,291.2 L 167.9,288.1 Z M 189.0,319.1 L 167.9,288.1 L 164.4,316.3 Z M 167.9,254.1 L 171.9,292.5 L 188.1,293.4 Z M 167.9,254.1 L 188.1,293.4 L 172.7,253.4 Z M 223.3,224.4 L 223.3,219.2 L 218.3,219.0 Z M 223.3,224.4 L 218.3,219.0 L 188.1,293.4 Z M 105.2,287.6 L 117.5,289.0 L 127.1,196.7 Z M 105.2,287.6 L 127.1,196.7 L 118.1,196.5 Z M 188.1,293.4 L 228.6,225.4 L 223.3,224.4 Z M 83.6,204.8 L 118.1,196.5 L 117.3,168.8 Z M 127.1,196.7 L 117.5,289.0 L 132.2,197.3 Z" fill="#2a2a4e" stroke="none"/>
  <path d="M 210.3,121.5 L 243.8,174.2 M 229.9,107.4 L 210.3,121.5 M 269.0,168.7 L 229.9,107.4 M 290.5,183.0 L 300.8,183.5 M 300.8,183.5 L 300.8,137.7 M 300.8,137.7 L 290.5,137.1 M 290.5,137.1 L 290.5,183.0 M 183.9,165.8 L 205.9,107.4 M 205.9,107.4 L 183.9,98.6 M 183.9,98.6 L 161.4,157.3 M 161.4,157.3 L 183.9,165.8 M 88.1,272.2 L 55.9,243.2 M 20.0,246.1 L 87.6,307.1 M 121.0,301.1 L 138.7,177.8 M 138.7,177.8 L 115.4,173.9 M 115.4,173.9 L 97.2,297.6 M 97.2,297.6 L 121.0,301.1 M 133.7,20.0 L 130.2,35.5 M 130.2,35.5 L 174.9,45.4 M 174.9,45.4 L 178.4,29.9 M 178.4,29.9 L 133.7,20.0 M 156.1,367.9 L 168.4,357.9 M 168.4,357.9 L 139.4,322.4 M 139.4,322.4 L 127.1,332.4 M 127.1,332.4 L 156.1,367.9 M 87.6,307.1 L 105.2,287.6 M 37.6,226.7 L 20.0,246.1 M 237.6,177.3 L 228.6,179.6 M 228.6,179.6 L 228.6,225.4 M 188.1,293.4 L 188.1,293.4 M 199.2,106.0 L 178.2,106.1 M 178.2,106.1 L 178.1,197.0 M 201.2,148.7 L 199.2,106.0 M 204.5,168.8 L 203.2,148.6 M 203.2,148.6 L 201.2,148.7 M 178.1,197.0 L 172.5,196.8 M 172.5,196.8 L 173.4,210.6 M 173.4,210.6 L 168.7,211.1 M 168.7,211.1 L 172.7,253.4 M 207.5,169.9 L 204.5,168.8 M 208.1,197.0 L 207.5,169.9 M 212.9,215.5 L 213.4,201.2 M 213.4,201.2 L 208.1,197.0 M 83.6,204.8 L 84.4,216.1 M 84.4,216.1 L 87.6,217.7 M 87.6,217.7 L 88.1,272.2 M 78.3,205.5 L 83.6,204.8 M 78.2,196.9 L 78.3,205.5 M 117.3,168.8 L 114.0,168.0 M 67.4,196.9 L 78.2,196.9 M 114.0,168.0 L 113.2,161.5 M 113.2,161.5 L 108.4,162.0 M 108.4,162.0 L 107.9,99.8 M 67.5,171.3 L 67.4,196.9 M 107.9,99.8 L 54.1,154.5 M 62.5,175.3 L 67.5,171.3 M 52.8,197.0 L 62.1,197.1 M 62.1,197.1 L 62.5,175.3 M 132.2,197.3 L 132.4,148.1 M 126.6,102.0 L 127.1,196.7 M 132.4,148.1 L 138.7,147.4 M 138.7,147.4 L 138.8,104.8 M 138.8,104.8 L 126.6,102.0 M 242.0,226.4 L 231.7,272.3 M 255.5,293.0 L 266.2,231.4 M 231.7,272.3 L 192.5,291.2 M 189.0,319.1 L 255.5,293.0 M 49.4,91.5 L 40.1,137.2 M 64.8,149.9 L 72.8,114.3 M 114.6,75.0 L 49.4,91.5 M 72.8,114.3 L 119.5,102.8 M 119.5,102.8 L 114.6,75.0 M 236.9,124.4 L 237.6,177.3 M 248.3,173.6 L 236.9,124.4 M 242.0,236.0 L 248.3,173.6 M 218.3,219.0 L 212.9,215.5 M 55.9,243.2 L 52.8,197.0 M 54.1,154.5 L 37.6,226.7 M 243.8,174.2 L 242.0,226.4 M 266.2,231.4 L 269.0,168.7 M 31.9,265.3 L 58.0,262.2 M 58.0,262.2 L 47.0,171.8 M 47.0,171.8 L 21.0,174.9 M 21.0,174.9 L 31.9,265.3 M 40.1,137.2 L 30.8,182.8 M 30.8,182.8 L 56.9,185.4 M 56.9,185.4 L 64.8,149.9 M 192.5,291.2 L 167.9,288.1 M 167.9,288.1 L 164.4,316.3 M 164.4,316.3 L 189.0,319.1 M 167.9,254.1 L 171.9,292.5 M 171.9,292.5 L 188.1,293.4 M 172.7,253.4 L 167.9,254.1 M 223.3,224.4 L 223.3,219.2 M 223.3,219.2 L 218.3,219.0 M 105.2,287.6 L 117.5,289.0 M 127.1,196.7 L 118.1,196.5 M 228.6,225.4 L 223.3,224.4 M 118.1,196.5 L 117.3,168.8 M 117.5,289.0 L 132.2,197.3" fill="none" stroke="white" stroke-width="2" stroke-linecap="round"/>
  <polygon points="206.6762556516431,323.25887796215426 214.6762556516431,331.25887796215426 206.6762556516431,339.25887796215426 198.6762556516431,331.25887796215426" fill="#4a9eff" stroke="white" stroke-width="1"/>
</svg>