<svg xmlns="http://www.w3.org/2000/svg" viewBox="0 0 400 400">
  <rect width="400" height="400" fill="#1a1a2e"/>
  <path d="M 180.4,199.1 L 180.4,144.8 L 125.6,144.8 Z M 180.4,199.1 L 125.6,144.8 L 125.6,199.1 Z M 37.7,175.9 L 83.2,183.7 L 59.9,144.8 Z M 37.7,175.9 L 59.9,144.8 L 20.0,144.8 Z M 20.0,144.8 L 59.9,144.8 L 49.6,63.2 Z M 20.0,144.8 L 49.6,63.2 L 21.8,103.5 Z M 125.6,199.1 L 126.1,215.7 L 189.6,225.3 Z M 125.6,199.1 L 189.6,225.3 L 180.4,199.1 Z M 180.4,199.1 L 189.6,225.3 L 218.2,218.0 Z M 180.4,199.1 L 218.2,218.0 L 232.8,188.8 Z M 180.4,144.8 L 196.8,110.5 L 160.0,89.3 Z M 180.4,144.8 L 160.0,89.3 L 125.6,144.8 Z M 125.6,144.8 L 160.0,89.3 L 139.5,58.6 Z M 125.6,144.8 L 139.5,58.6 L 103.3,45.6 Z M 83.2,183.7 L 125.6,199.1 L 125.6,144.8 Z M 83.2,183.7 L 125.6,144.8 L 59.9,144.8 Z M 59.9,144.8 L 125.6,144.8 L 103.3,45.6 Z M 59.9,144.8 L 103.3,45.6 L 49.6,63.2 Z M 180.4,199.1 L 232.8,188.8 L 218.8,144.8 Z M 180.4,199.1 L 218.8,144.8 L 180.4,144.8 Z M 218.8,144.8 L 196.8,110.5 L 180.4,144.8 Z M 83.2,183.7 L 126.1,215.7 L 125.6,199.1 Z M 193.5,138.6 L 183.1,139.4 L 183.7,147.9 Z M 193.5,138.6 L 183.7,147.9 L 193.9,144.3 Z M 194.9,146.2 L 189.6,151.7 L 194.0,156.1 Z M 194.9,146.2 L 194.0,156.1 L 197.9,149.2 Z M 153.3,189.9 L 147.9,195.4 L 152.4,199.8 Z M 153.3,189.9 L 152.4,199.8 L 156.3,192.8 Z M 110.8,66.5 L 111.8,74.1 L 118.0,73.4 Z M 110.8,66.5 L 118.0,73.4 L 115.0,66.0 Z M 105.5,74.2 L 106.3,81.2 L 112.0,80.5 Z M 105.5,74.2 L 112.0,80.5 L 109.3,73.7 Z M 147.6,245.4 L 162.4,218.9 L 126.4,214.1 Z M 162.4,218.9 L 149.0,199.7 L 126.4,214.1 Z M 176.0,251.4 L 173.1,221.1 L 147.6,245.4 Z M 173.1,221.1 L 162.4,218.9 L 147.6,245.4 Z M 196.7,205.8 L 173.1,221.1 L 223.2,220.5 Z M 173.1,221.1 L 176.0,251.4 L 223.2,220.5 Z M 200.8,186.2 L 196.7,205.8 L 230.8,184.3 Z M 196.7,205.8 L 223.2,220.5 L 230.8,184.3 Z M 125.7,28.5 L 108.6,53.6 L 152.1,78.3 Z M 108.6,53.6 L 128.3,90.6 L 152.1,78.3 Z M 98.1,50.4 L 108.6,53.6 L 98.0,20.0 Z M 108.6,53.6 L 125.7,28.5 L 98.0,20.0 Z M 73.3,63.5 L 98.1,50.4 L 48.2,46.4 Z M 98.1,50.4 L 98.0,20.0 L 48.2,46.4 Z M 67.6,82.0 L 73.3,63.5 L 37.4,81.7 Z M 73.3,63.5 L 48.2,46.4 L 37.4,81.7 Z M 125.7,28.5 L 108.6,53.6 L 128.3,90.6 Z M 125.7,28.5 L 128.3,90.6 L 152.1,78.3 Z M 98.1,50.4 L 108.6,53.6 L 125.7,28.5 Z M 98.1,50.4 L 125.7,28.5 L 98.0,20.0 Z M 98.1,50.4 L 98.0,20.0 L 48.2,46.4 Z M 98.1,50.4 L 48.2,46.4 L 73.3,63.5 Z M 73.3,63.5 L 48.2,46.4 L 37.4,81.7 Z M 73.3,63.5 L 37.4,81.7 L 67.6,82.0 Z M 118.2,175.7 L 74.8,175.7 L 74.8,328.8 Z M 118.2,175.7 L 74.8,328.8 L 118.2,328.9 Z M 50.5,380.0 L 118.2,328.9 L 74.8,328.8 Z M 50.5,380.0 L 74.8,328.8 L 21.5,380.0 Z M 118.2,175.7 L 74.8,175.7 L 74.8,328.8 Z M 118.2,175.7 L 74.8,328.8 L 118.2,328.9 Z M 149.0,199.7 L 126.4,214.1 L 147.6,245.4 Z M 149.0,199.7 L 147.6,245.4 L 162.4,218.9 Z M 147.6,245.4 L 176.0,251.4 L 173.1,221.1 Z M 147.6,245.4 L 173.1,221.1 L 162.4,218.9 Z M 223.2,220.5 L 196.7,205.8 L 173.1,221.1 Z M 223.2,220.5 L 173.1,221.1 L 176.0,251.4 Z M 230.8,184.3 L 200.8,186.2 L 196.7,205.8 Z M 230.8,184.3 L 196.7,205.8 L 223.2,220.5 Z M 118.4,327.1 L 123.3,324.0 L 118.4,320.9 Z M 74.6,249.2 L 74.6,243.1 L 69.6,246.1 Z M 118.4,265.3 L 123.3,262.3 L 118.4,259.2 Z M 74.6,195.6 L 74.6,189.4 L 69.6,192.5 Z M 74.6,328.8 L 74.6,322.6 L 69.6,325.7 Z" fill="#2a2a4e" stroke="none"/>
  <path d="M 37.7,175.9 L 83.2,183.7 M 20.0,144.8 L 37.7,175.9 M 49.6,63.2 L 21.8,103.5 M 21.8,103.5 L 20.0,144.8 M 126.1,215.7 L 189.6,225.3 M 189.6,225.3 L 218.2,218.0 M 218.2,218.0 L 232.8,188.8 M 196.8,110.5 L 160.0,89.3 M 160.0,89.3 L 139.5,58.6 M 139.5,58.6 L 103.3,45.6 M 103.3,45.6 L 49.6,63.2 M 232.8,188.8 L 218.8,144.8 M 218.8,144.8 L 196.8,110.5 M 83.2,183.7 L 126.1,215.7 M 193.5,138.6 L 183.1,139.4 M 183.1,139.4 L 183.7,147.9 M 183.7,147.9 L 193.9,144.3 M 193.9,144.3 L 193.5,138.6 M 194.9,146.2 L 189.6,151.7 M 189.6,151.7 L 194.0,156.1 M 194.0,156.1 L 197.9,149.2 M 197.9,149.2 L 194.9,146.2 M 153.3,189.9 L 147.9,195.4 M 147.9,195.4 L 152.4,199.8 M 152.4,199.8 L 156.3,192.8 M 156.3,192.8 L 153.3,189.9 M 110.8,66.5 L 111.8,74.1 M 111.8,74.1 L 118.0,73.4 M 118.0,73.4 L 115.0,66.0 M 115.0,66.0 L 110.8,66.5 M 105.5,74.2 L 106.3,81.2 M 106.3,81.2 L 112.0,80.5 M 112.0,80.5 L 109.3,73.7 M 109.3,73.7 L 105.5,74.2 M 50.5,380.0 L 118.2,328.9 M 74.8,328.8 L 21.5,380.0 M 21.5,380.0 L 50.5,380.0 M 118.4,327.1 L 123.3,324.0 M 123.3,324.0 L 118.4,320.9 M 118.4,320.9 L 118.4,327.1 M 74.6,249.2 L 74.6,243.1 M 74.6,243.1 L 69.6,246.1 M 69.6,246.1 L 74.6,249.2 M 118.4,265.3 L 123.3,262.3 M 123.3,262.3 L 118.4,259.2 M 118.4,259.2 L 118.4,265.3 M 74.6,195.6 L 74.6,189.4 M 74.6,189.4 L 69.6,192.5 M 69.6,192.5 L 74.6,195.6 M 74.6,328.8 L 74.6,322.6 M 74.6,322.6 L 69.6,325.7 M 69.6,325.7 L 74.6,328.8" fill="none" stroke="white" stroke-width="2" stroke-linecap="round"/>
  <polygon points="97.83342833201975,244.3693524540236 105.83342833201975,252.3693524540236 97.83342833201975,260.3693524540236 89.83342833201975,252.3693524540236" fill="#4a9eff" stroke="white" stroke-width="1"/>
</svg>