<svg xmlns="http://www.w3.org/2000/svg" viewBox="0 0 400 400">
  <rect width="400" height="400" fill="#1a1a2e"/>
  <path d="M 380.0,152.1 L 380.0,115.2 L 323.3,152.1 Z M 380.0,115.2 L 308.6,115.2 L 323.3,152.1 Z M 20.0,155.5 L 116.3,155.5 L 33.0,118.6 Z M 116.3,155.5 L 129.0,118.6 L 33.0,118.6 Z M 296.8,20.0 L 259.9,20.0 L 259.9,89.6 Z M 296.8,20.0 L 259.9,89.6 L 296.8,89.6 Z M 351.0,189.8 L 336.1,190.3 L 338.0,233.3 Z M 351.0,189.8 L 338.0,233.3 L 352.8,232.7 Z M 50.1,274.9 L 60.5,285.6 L 91.2,255.6 Z M 50.1,274.9 L 91.2,255.6 L 80.9,244.9 Z M 137.6,131.7 L 187.0,100.3 L 181.9,76.7 Z M 137.6,131.7 L 181.9,76.7 L 124.4,113.3 Z M 179.2,156.4 L 124.4,135.8 L 116.1,156.4 Z M 179.2,156.4 L 116.1,156.4 L 171.2,177.5 Z M 182.1,216.3 L 201.0,160.9 L 180.1,153.3 Z M 182.1,216.3 L 180.1,153.3 L 160.8,209.0 Z M 306.0,215.4 L 190.4,198.8 L 186.7,220.7 Z M 306.0,215.4 L 186.7,220.7 L 302.7,237.7 Z M 182.1,216.3 L 201.0,160.9 L 180.1,153.3 Z M 182.1,216.3 L 180.1,153.3 L 160.8,209.0 Z M 380.0,152.1 L 380.0,115.2 L 308.6,115.2 Z M 380.0,152.1 L 308.6,115.2 L 323.3,152.1 Z M 254.5,310.1 L 311.6,246.7 L 278.9,246.3 Z M 254.5,310.1 L 278.9,246.3 L 251.7,276.4 Z M 150.6,291.1 L 113.7,283.5 L 113.7,368.6 Z M 150.6,291.1 L 113.7,368.6 L 150.6,368.7 Z M 150.6,291.1 L 113.7,283.5 L 113.7,368.6 Z M 150.6,291.1 L 113.7,368.6 L 150.6,368.7 Z M 116.3,155.5 L 129.0,118.6 L 33.0,118.6 Z M 116.3,155.5 L 33.0,118.6 L 20.0,155.5 Z M 311.6,246.7 L 293.4,230.2 L 278.9,246.3 Z M 251.7,276.4 L 236.2,293.6 L 254.5,310.1 Z M 181.9,218.9 L 208.6,204.9 L 162.6,204.7 Z M 181.9,218.9 L 162.6,204.7 L 118.3,218.6 Z M 118.3,218.6 L 162.6,204.7 L 161.9,198.8 Z M 118.3,218.6 L 161.9,198.8 L 121.9,198.7 Z M 184.3,265.6 L 117.3,227.7 L 168.6,278.1 Z M 184.3,265.6 L 168.6,278.1 L 188.1,270.3 Z M 188.1,270.3 L 168.6,278.1 L 208.4,279.3 Z M 188.1,270.3 L 208.4,279.3 L 208.5,270.6 Z M 226.4,249.7 L 227.9,246.7 L 208.6,204.9 Z M 226.4,249.7 L 208.6,204.9 L 215.7,250.5 Z M 215.7,250.5 L 208.6,204.9 L 181.9,218.9 Z M 215.7,250.5 L 181.9,218.9 L 181.2,222.0 Z M 181.2,222.0 L 175.1,222.7 L 175.6,227.2 Z M 181.2,222.0 L 175.6,227.2 L 215.7,250.5 Z M 215.7,250.5 L 175.6,227.2 L 208.3,255.5 Z M 215.7,250.5 L 208.3,255.5 L 216.4,255.4 Z M 189.9,106.1 L 192.1,114.5 L 235.0,114.5 Z M 189.9,106.1 L 235.0,114.5 L 245.0,102.0 Z M 245.0,102.0 L 235.0,114.5 L 298.8,152.5 Z M 245.0,102.0 L 298.8,152.5 L 298.8,152.5 Z M 123.0,142.1 L 123.1,161.7 L 208.4,161.9 Z M 123.0,142.1 L 208.4,161.9 L 163.1,140.2 Z M 163.1,140.2 L 208.4,161.9 L 182.0,137.1 Z M 163.1,140.2 L 182.0,137.1 L 163.0,138.3 Z M 208.4,161.9 L 208.2,167.1 L 221.1,166.3 Z M 208.4,161.9 L 221.1,166.3 L 298.8,152.5 Z M 298.8,152.5 L 221.1,166.3 L 221.7,170.6 Z M 298.8,152.5 L 221.7,170.6 L 261.3,166.9 Z M 183.0,134.3 L 182.0,137.1 L 208.4,161.9 Z M 183.0,134.3 L 208.4,161.9 L 208.4,133.7 Z M 208.4,133.7 L 208.4,161.9 L 225.7,129.3 Z M 208.4,133.7 L 225.7,129.3 L 212.3,128.8 Z M 236.0,101.9 L 279.0,111.6 L 240.6,79.2 Z M 279.0,111.6 L 298.5,89.3 L 240.6,79.2 Z M 298.5,89.3 L 279.0,111.6 L 322.9,151.6 Z M 279.0,111.6 L 296.8,148.4 L 322.9,151.6 Z M 187.0,100.3 L 236.0,101.9 L 181.9,76.7 Z M 236.0,101.9 L 240.6,79.2 L 181.9,76.7 Z M 109.5,282.5 L 152.3,291.2 L 130.9,260.6 Z M 152.3,291.2 L 164.2,268.1 L 130.9,260.6 Z M 109.5,282.5 L 130.9,260.6 L 94.0,221.4 Z M 130.9,260.6 L 120.1,216.8 L 94.0,221.4 Z M 251.7,276.4 L 208.4,279.3 L 236.2,293.6 Z M 208.4,279.3 L 168.6,278.1 L 236.2,293.6 Z M 140.3,106.7 L 189.9,106.1 L 186.4,96.0 Z M 189.9,106.1 L 245.0,102.0 L 186.4,96.0 Z M 272.5,298.9 L 269.5,274.5 L 184.8,284.7 Z M 272.5,298.9 L 184.8,284.7 L 187.7,309.2 Z M 152.3,291.2 L 195.1,299.9 L 197.6,275.5 Z M 152.3,291.2 L 197.6,275.5 L 164.2,268.1 Z M 322.9,151.6 L 296.8,148.4 L 293.8,171.4 Z M 322.9,151.6 L 293.8,171.4 L 320.3,174.7 Z M 227.9,246.7 L 278.9,246.3 L 293.4,230.2 Z M 227.9,246.7 L 293.4,230.2 L 294.7,218.7 Z M 175.6,227.2 L 184.3,265.6 L 208.3,265.6 Z M 175.6,227.2 L 208.3,265.6 L 208.3,255.5 Z M 262.0,171.4 L 297.9,167.6 L 298.8,152.5 Z M 262.0,171.4 L 298.8,152.5 L 261.3,166.9 Z M 234.1,119.5 L 229.2,119.4 L 225.7,129.3 Z M 234.1,119.5 L 225.7,129.3 L 298.8,152.5 Z M 227.9,246.7 L 294.7,218.7 L 208.6,204.9 Z M 175.6,227.2 L 117.3,227.7 L 184.3,265.6 Z M 298.8,152.5 L 235.0,114.5 L 234.1,119.5 Z M 225.7,129.3 L 208.4,161.9 L 298.8,152.5 Z" fill="#2a2a4e" stroke="none"/>
  <path d="M 296.8,20.0 L 259.9,20.0 M 259.9,20.0 L 259.9,89.6 M 259.9,89.6 L 296.8,89.6 M 296.8,89.6 L 296.8,20.0 M 351.0,189.8 L 336.1,190.3 M 336.1,190.3 L 338.0,233.3 M 338.0,233.3 L 352.8,232.7 M 352.8,232.7 L 351.0,189.8 M 50.1,274.9 L 60.5,285.6 M 60.5,285.6 L 91.2,255.6 M 91.2,255.6 L 80.9,244.9 M 80.9,244.9 L 50.1,274.9 M 137.6,131.7 L 187.0,100.3 M 181.9,76.7 L 124.4,113.3 M 124.4,113.3 L 137.6,131.7 M 179.2,156.4 L 124.4,135.8 M 124.4,135.8 L 116.1,156.4 M 116.1,156.4 L 171.2,177.5 M 171.2,177.5 L 179.2,156.4 M 306.0,215.4 L 190.4,198.8 M 190.4,198.8 L 186.7,220.7 M 186.7,220.7 L 302.7,237.7 M 302.7,237.7 L 306.0,215.4 M 254.5,310.1 L 311.6,246.7 M 278.9,246.3 L 251.7,276.4 M 311.6,246.7 L 293.4,230.2 M 236.2,293.6 L 254.5,310.1 M 208.6,204.9 L 162.6,204.7 M 118.3,218.6 L 181.9,218.9 M 162.6,204.7 L 161.9,198.8 M 161.9,198.8 L 121.9,198.7 M 121.9,198.7 L 118.3,218.6 M 117.3,227.7 L 168.6,278.1 M 188.1,270.3 L 184.3,265.6 M 208.4,279.3 L 208.5,270.6 M 208.5,270.6 L 188.1,270.3 M 226.4,249.7 L 227.9,246.7 M 215.7,250.5 L 226.4,249.7 M 181.9,218.9 L 181.2,222.0 M 181.2,222.0 L 175.1,222.7 M 175.1,222.7 L 175.6,227.2 M 208.3,255.5 L 216.4,255.4 M 216.4,255.4 L 215.7,250.5 M 189.9,106.1 L 192.1,114.5 M 192.1,114.5 L 235.0,114.5 M 298.8,152.5 L 298.8,152.5 M 123.0,142.1 L 123.1,161.7 M 123.1,161.7 L 208.4,161.9 M 163.1,140.2 L 123.0,142.1 M 182.0,137.1 L 163.0,138.3 M 163.0,138.3 L 163.1,140.2 M 208.4,161.9 L 208.2,167.1 M 208.2,167.1 L 221.1,166.3 M 221.1,166.3 L 221.7,170.6 M 221.7,170.6 L 261.3,166.9 M 183.0,134.3 L 182.0,137.1 M 208.4,133.7 L 183.0,134.3 M 225.7,129.3 L 212.3,128.8 M 212.3,128.8 L 208.4,133.7 M 236.0,101.9 L 279.0,111.6 M 298.5,89.3 L 240.6,79.2 M 322.9,151.6 L 298.5,89.3 M 279.0,111.6 L 296.8,148.4 M 187.0,100.3 L 236.0,101.9 M 240.6,79.2 L 181.9,76.7 M 109.5,282.5 L 152.3,291.2 M 164.2,268.1 L 130.9,260.6 M 94.0,221.4 L 109.5,282.5 M 130.9,260.6 L 120.1,216.8 M 120.1,216.8 L 94.0,221.4 M 251.7,276.4 L 208.4,279.3 M 168.6,278.1 L 236.2,293.6 M 140.3,106.7 L 189.9,106.1 M 186.4,96.0 L 140.3,106.7 M 245.0,102.0 L 186.4,96.0 M 272.5,298.9 L 269.5,274.5 M 269.5,274.5 L 184.8,284.7 M 184.8,284.7 L 187.7,309.2 M 187.7,309.2 L 272.5,298.9 M 152.3,291.2 L 195.1,299.9 M 195.1,299.9 L 197.6,275.5 M 197.6,275.5 L 164.2,268.1 M 296.8,148.4 L 293.8,171.4 M 293.8,171.4 L 320.3,174.7 M 320.3,174.7 L 322.9,151.6 M 227.9,246.7 L 278.9,246.3 M 293.4,230.2 L 294.7,218.7 M 184.3,265.6 L 208.3,265.6 M 208.3,265.6 L 208.3,255.5 M 262.0,171.4 L 297.9,167.6 M 297.9,167.6 L 298.8,152.5 M 261.3,166.9 L 262.0,171.4 M 234.1,119.5 L 229.2,119.4 M 229.2,119.4 L 225.7,129.3 M 294.7,218.7 L 208.6,204.9 M 175.6,227.2 L 117.3,227.7 M 235.0,114.5 L 234.1,119.5" fill="none" stroke="white" stroke-width="2" stroke-linecap="round"/>
  <polygon points="131.68718413684016,312.1901069736115 139.68718413684016,320.1901069736115 131.68718413684016,328.1901069736115 123.68718413684016,320.1901069736115" fill="#4a9eff" stroke="white" stroke-width="1"/>
<polygon points="335.5230621252765,125.88887295693362 343.5230621252765,133.88887295693362 335.5230621252765,141.88887295693362 327.5230621252765,133.88887295693362" fill="#4a9eff" stroke="white" stroke-width="1"/>
<polygon points="94.54092523768205,127.42947703386665 102.54092523768205,135.42947703386665 94.54092523768205,143.42947703386665 86.54092523768205,135.42947703386665" fill="#4a9eff" stroke="white" stroke-width="1"/>
<polygon points="279.7354331272491,46.61258996897235 287.7354331272491,54.61258996897235 279.7354331272491,62.61258996897235 271.7354331272491,54.61258996897235" fill="#4a9eff" stroke="white" stroke-width="1"/>
</svg>