<svg xmlns="http://www.w3.org/2000/svg" viewBox="0 0 400 400">
  <rect width="400" height="400" fill="#1a1a2e"/>
  <path d="M 185.7,208.5 L 185.7,175.6 L 140.6,175.6 Z M 185.7,208.5 L 140.6,175.6 L 174.2,217.4 Z M 174.2,217.4 L 140.6,175.6 L 140.5,212.3 Z M 174.2,217.4 L 140.5,212.3 L 154.7,217.4 Z M 230.5,92.0 L 185.6,91.8 L 185.7,134.0 Z M 230.5,92.0 L 185.7,134.0 L 230.5,134.1 Z M 140.9,91.6 L 185.6,91.8 L 187.4,58.6 Z M 140.9,91.6 L 187.4,58.6 L 141.0,51.7 Z M 275.2,149.6 L 230.5,134.1 L 230.5,175.5 Z M 275.2,149.6 L 230.5,175.5 L 263.6,177.4 Z M 230.5,134.1 L 275.2,149.6 L 272.3,134.2 Z M 242.5,84.1 L 246.8,88.7 L 250.5,85.2 Z M 242.5,84.1 L 250.5,85.2 L 245.0,81.7 Z M 161.5,75.7 L 165.8,80.3 L 169.6,76.8 Z M 161.5,75.7 L 169.6,76.8 L 164.0,73.4 Z M 118.3,130.2 L 124.5,129.2 L 123.7,124.2 Z M 118.3,130.2 L 123.7,124.2 L 117.8,126.7 Z M 125.4,133.5 L 128.3,130.0 L 125.4,127.6 Z M 125.4,133.5 L 125.4,127.6 L 123.4,131.9 Z M 180.1,171.9 L 186.3,171.0 L 185.5,165.9 Z M 180.1,171.9 L 185.5,165.9 L 179.6,168.5 Z M 187.1,175.3 L 190.1,171.8 L 187.2,169.4 Z M 187.1,175.3 L 187.2,169.4 L 185.2,173.7 Z M 196.2,125.8 L 202.4,124.8 L 201.6,119.8 Z M 196.2,125.8 L 201.6,119.8 L 195.7,122.4 Z M 204.2,128.1 L 206.6,133.9 L 211.4,131.9 Z M 204.2,128.1 L 211.4,131.9 L 207.4,126.8 Z M 230.5,134.1 L 272.3,134.2 L 271.6,92.2 Z M 230.5,134.1 L 271.6,92.2 L 230.5,92.0 Z M 230.5,92.0 L 271.6,92.2 L 256.4,67.6 Z M 230.5,92.0 L 256.4,67.6 L 212.4,48.5 Z M 244.7,194.0 L 263.6,177.4 L 230.5,175.5 Z M 244.7,194.0 L 230.5,175.5 L 211.3,194.0 Z M 211.3,194.0 L 230.5,175.5 L 230.5,134.1 Z M 211.3,194.0 L 230.5,134.1 L 185.7,175.6 Z M 185.7,175.6 L 230.5,134.1 L 185.7,134.0 Z M 185.7,175.6 L 185.7,134.0 L 140.6,175.6 Z M 140.6,175.6 L 185.7,134.0 L 185.6,91.8 Z M 140.6,175.6 L 185.6,91.8 L 118.1,149.4 Z M 118.1,149.4 L 185.6,91.8 L 140.9,91.6 Z M 118.1,149.4 L 140.9,91.6 L 99.5,123.4 Z M 99.5,123.4 L 140.9,91.6 L 96.1,75.1 Z M 140.9,91.6 L 120.6,54.1 L 96.1,75.1 Z M 140.5,212.3 L 140.6,175.6 L 118.1,149.4 Z M 140.5,212.3 L 118.1,149.4 L 117.0,180.3 Z M 230.5,92.0 L 212.4,48.5 L 187.4,58.6 Z M 230.5,92.0 L 187.4,58.6 L 185.6,91.8 Z M 140.9,91.6 L 141.0,51.7 L 120.6,54.1 Z M 185.7,175.6 L 185.7,208.5 L 211.3,194.0 Z M 318.8,91.5 L 318.8,117.6 L 363.5,82.0 Z M 318.8,91.5 L 363.5,82.0 L 363.5,64.6 Z M 363.5,64.6 L 363.5,82.0 L 380.0,37.4 Z M 363.5,64.6 L 380.0,37.4 L 380.0,20.0 Z M 112.3,82.2 L 120.2,64.4 L 96.6,76.3 Z M 120.2,64.4 L 107.7,51.2 L 96.6,76.3 Z M 138.5,57.4 L 139.0,39.2 L 120.2,64.4 Z M 139.0,39.2 L 107.7,51.2 L 120.2,64.4 Z M 138.5,57.4 L 156.3,63.2 L 139.0,39.2 Z M 156.3,63.2 L 169.9,49.9 L 139.0,39.2 Z M 186.8,73.6 L 218.0,64.9 L 187.3,55.4 Z M 218.0,64.9 L 213.2,48.3 L 187.3,55.4 Z M 186.8,73.6 L 187.3,55.4 L 156.3,63.2 Z M 187.3,55.4 L 169.9,49.9 L 156.3,63.2 Z M 258.5,155.4 L 258.5,174.9 L 275.2,148.4 Z M 258.5,174.9 L 275.2,181.8 L 275.2,148.4 Z M 258.5,174.9 L 244.7,188.7 L 275.2,181.8 Z M 244.7,188.7 L 251.6,205.5 L 275.2,181.8 Z M 251.6,205.5 L 244.7,188.7 L 220.3,205.5 Z M 244.7,188.7 L 217.1,188.7 L 220.3,205.5 Z M 220.3,205.5 L 217.1,188.7 L 188.9,205.5 Z M 217.1,188.7 L 189.6,188.7 L 188.9,205.5 Z M 111.3,125.5 L 111.3,99.3 L 50.8,99.3 Z M 111.3,125.5 L 50.8,99.3 L 50.7,125.5 Z M 20.0,84.8 L 50.7,125.5 L 50.8,99.3 Z M 20.0,84.8 L 50.8,99.3 L 20.0,67.3 Z M 258.3,91.5 L 258.3,117.6 L 318.8,117.6 Z M 258.3,91.5 L 318.8,117.6 L 318.8,91.5 Z M 111.3,125.5 L 111.3,99.3 L 50.8,99.3 Z M 111.3,125.5 L 50.8,99.3 L 50.7,125.5 Z M 258.3,91.5 L 258.3,117.6 L 318.8,117.6 Z M 258.3,91.5 L 318.8,117.6 L 318.8,91.5 Z M 318.8,117.6 L 363.5,82.0 L 363.5,64.6 Z M 318.8,117.6 L 363.5,64.6 L 318.8,91.5 Z M 275.2,148.4 L 258.5,155.4 L 258.5,174.9 Z M 275.2,148.4 L 258.5,174.9 L 275.2,181.8 Z M 177.5,212.5 L 151.4,212.5 L 151.4,272.9 Z M 177.5,212.5 L 151.4,272.9 L 177.5,273.0 Z M 136.8,303.7 L 177.5,273.0 L 151.4,272.9 Z M 136.8,303.7 L 151.4,272.9 L 119.4,303.7 Z M 177.5,212.5 L 151.4,212.5 L 151.4,272.9 Z M 177.5,212.5 L 151.4,272.9 L 177.5,273.0 Z M 304.8,91.1 L 308.5,91.0 L 306.7,88.1 Z M 274.8,91.3 L 278.5,91.3 L 276.6,88.3 Z M 313.3,117.6 L 315.1,120.6 L 317.0,117.6 Z M 277.3,154.8 L 280.6,153.1 L 277.5,151.3 Z M 272.7,184.4 L 276.3,185.3 L 275.2,181.9 Z M 251.8,205.2 L 255.4,206.1 L 254.3,202.7 Z M 201.2,205.3 L 203.1,208.5 L 204.8,205.4 Z M 61.2,125.7 L 63.1,128.7 L 64.9,125.7 Z M 58.9,99.5 L 62.6,99.4 L 60.7,96.5 Z M 108.2,50.9 L 111.6,49.6 L 108.8,47.5 Z M 134.4,41.1 L 137.9,39.8 L 135.0,37.7 Z M 187.4,55.3 L 191.0,54.3 L 188.4,51.9 Z M 208.8,49.1 L 212.3,48.2 L 209.8,45.7 Z M 151.2,234.7 L 151.2,231.1 L 148.2,232.9 Z M 177.8,262.5 L 180.7,260.6 L 177.7,258.8 Z M 92.2,125.7 L 94.0,128.7 L 95.8,125.7 Z M 177.8,226.7 L 180.7,224.8 L 177.7,223.0 Z" fill="#2a2a4e" stroke="none"/>
  <path d="M 174.2,217.4 L 185.7,208.5 M 140.5,212.3 L 154.7,217.4 M 154.7,217.4 L 174.2,217.4 M 187.4,58.6 L 141.0,51.7 M 263.6,177.4 L 275.2,149.6 M 275.2,149.6 L 272.3,134.2 M 242.5,84.1 L 246.8,88.7 M 246.8,88.7 L 250.5,85.2 M 250.5,85.2 L 245.0,81.7 M 245.0,81.7 L 242.5,84.1 M 161.5,75.7 L 165.8,80.3 M 165.8,80.3 L 169.6,76.8 M 169.6,76.8 L 164.0,73.4 M 164.0,73.4 L 161.5,75.7 M 118.3,130.2 L 124.5,129.2 M 124.5,129.2 L 123.7,124.2 M 123.7,124.2 L 117.8,126.7 M 117.8,126.7 L 118.3,130.2 M 125.4,133.5 L 128.3,130.0 M 128.3,130.0 L 125.4,127.6 M 125.4,127.6 L 123.4,131.9 M 123.4,131.9 L 125.4,133.5 M 180.1,171.9 L 186.3,171.0 M 186.3,171.0 L 185.5,165.9 M 185.5,165.9 L 179.6,168.5 M 179.6,168.5 L 180.1,171.9 M 187.1,175.3 L 190.1,171.8 M 190.1,171.8 L 187.2,169.4 M 187.2,169.4 L 185.2,173.7 M 185.2,173.7 L 187.1,175.3 M 196.2,125.8 L 202.4,124.8 M 202.4,124.8 L 201.6,119.8 M 201.6,119.8 L 195.7,122.4 M 195.7,122.4 L 196.2,125.8 M 204.2,128.1 L 206.6,133.9 M 206.6,133.9 L 211.4,131.9 M 211.4,131.9 L 207.4,126.8 M 207.4,126.8 L 204.2,128.1 M 272.3,134.2 L 271.6,92.2 M 271.6,92.2 L 256.4,67.6 M 256.4,67.6 L 212.4,48.5 M 244.7,194.0 L 263.6,177.4 M 211.3,194.0 L 244.7,194.0 M 99.5,123.4 L 118.1,149.4 M 96.1,75.1 L 99.5,123.4 M 120.6,54.1 L 96.1,75.1 M 118.1,149.4 L 117.0,180.3 M 117.0,180.3 L 140.5,212.3 M 212.4,48.5 L 187.4,58.6 M 141.0,51.7 L 120.6,54.1 M 185.7,208.5 L 211.3,194.0 M 363.5,82.0 L 380.0,37.4 M 380.0,37.4 L 380.0,20.0 M 380.0,20.0 L 363.5,64.6 M 112.3,82.2 L 120.2,64.4 M 96.6,76.3 L 112.3,82.2 M 107.7,51.2 L 96.6,76.3 M 120.2,64.4 L 138.5,57.4 M 139.0,39.2 L 107.7,51.2 M 138.5,57.4 L 156.3,63.2 M 169.9,49.9 L 139.0,39.2 M 186.8,73.6 L 218.0,64.9 M 218.0,64.9 L 213.2,48.3 M 213.2,48.3 L 187.3,55.4 M 156.3,63.2 L 186.8,73.6 M 187.3,55.4 L 169.9,49.9 M 258.5,174.9 L 244.7,188.7 M 251.6,205.5 L 275.2,181.8 M 220.3,205.5 L 251.6,205.5 M 244.7,188.7 L 217.1,188.7 M 188.9,205.5 L 220.3,205.5 M 217.1,188.7 L 189.6,188.7 M 189.6,188.7 L 188.9,205.5 M 20.0,84.8 L 50.7,125.5 M 50.8,99.3 L 20.0,67.3 M 20.0,67.3 L 20.0,84.8 M 136.8,303.7 L 177.5,273.0 M 151.4,272.9 L 119.4,303.7 M 119.4,303.7 L 136.8,303.7 M 304.8,91.1 L 308.5,91.0 M 308.5,91.0 L 306.7,88.1 M 306.7,88.1 L 304.8,91.1 M 274.8,91.3 L 278.5,91.3 M 278.5,91.3 L 276.6,88.3 M 276.6,88.3 L 274.8,91.3 M 313.3,117.6 L 315.1,120.6 M 315.1,120.6 L 317.0,117.6 M 317.0,117.6 L 313.3,117.6 M 277.3,154.8 L 280.6,153.1 M 280.6,153.1 L 277.5,151.3 M 277.5,151.3 L 277.3,154.8 M 272.7,184.4 L 276.3,185.3 M 276.3,185.3 L 275.2,181.9 M 275.2,181.9 L 272.7,184.4 M 251.8,205.2 L 255.4,206.1 M 255.4,206.1 L 254.3,202.7 M 254.3,202.7 L 251.8,205.2 M 201.2,205.3 L 203.1,208.5 M 203.1,208.5 L 204.8,205.4 M 204.8,205.4 L 201.2,205.3 M 61.2,125.7 L 63.1,128.7 M 63.1,128.7 L 64.9,125.7 M 64.9,125.7 L 61.2,125.7 M 58.9,99.5 L 62.6,99.4 M 62.6,99.4 L 60.7,96.5 M 60.7,96.5 L 58.9,99.5 M 108.2,50.9 L 111.6,49.6 M 111.6,49.6 L 108.8,47.5 M 108.8,47.5 L 108.2,50.9 M 134.4,41.1 L 137.9,39.8 M 137.9,39.8 L 135.0,37.7 M 135.0,37.7 L 134.4,41.1 M 187.4,55.3 L 191.0,54.3 M 191.0,54.3 L 188.4,51.9 M 188.4,51.9 L 187.4,55.3 M 208.8,49.1 L 212.3,48.2 M 212.3,48.2 L 209.8,45.7 M 209.8,45.7 L 208.8,49.1 M 151.2,234.7 L 151.2,231.1 M 151.2,231.1 L 148.2,232.9 M 148.2,232.9 L 151.2,234.7 M 177.8,262.5 L 180.7,260.6 M 180.7,260.6 L 177.7,258.8 M 177.7,258.8 L 177.8,262.5 M 92.2,125.7 L 94.0,128.7 M 94.0,128.7 L 95.8,125.7 M 95.8,125.7 L 92.2,125.7 M 177.8,226.7 L 180.7,224.8 M 180.7,224.8 L 177.7,223.0 M 177.7,223.0 L 177.8,226.7" fill="none" stroke="white" stroke-width="2" stroke-linecap="round"/>
  <polygon points="164.62042550522816,223.4032862034807 172.62042550522816,231.4032862034807 164.62042550522816,239.4032862034807 156.62042550522816,231.4032862034807" fill="#4a9eff" stroke="white" stroke-width="1"/>
<polygon points="279.6919573162892,95.68115478670083 287.6919573162892,103.68115478670083 279.6919573162892,111.68115478670083 271.6919573162892,103.68115478670083" fill="#4a9eff" stroke="white" stroke-width="1"/>
<polygon points="94.0499193147973,103.84991875335703 102.0499193147973,111.84991875335703 94.0499193147973,119.84991875335703 86.0499193147973,111.84991875335703" fill="#4a9eff" stroke="white" stroke-width="1"/>
</svg>