<svg xmlns="http://www.w3.org/2000/svg" viewBox="0 0 400 400">
  <rect width="400" height="400" fill="#1a1a2e"/>
  <path d="M 261.2,213.5 L 268.3,194.0 L 268.3,167.0 Z M 261.2,213.5 L 268.3,167.0 L 210.6,213.3 Z M 210.6,213.3 L 268.3,167.0 L 256.0,151.1 Z M 210.6,213.3 L 256.0,151.1 L 210.5,151.1 Z M 153.1,151.1 L 153.2,89.1 L 95.0,89.2 Z M 153.1,151.1 L 95.0,89.2 L 94.7,151.2 Z M 48.8,148.8 L 39.4,212.8 L 94.4,213.0 Z M 48.8,148.8 L 94.4,213.0 L 94.7,151.2 Z M 210.4,89.1 L 213.1,43.4 L 174.7,27.4 Z M 210.4,89.1 L 174.7,27.4 L 153.2,89.1 Z M 153.2,89.1 L 174.7,27.4 L 153.3,31.4 Z M 153.2,89.1 L 153.3,31.4 L 95.3,32.4 Z M 153.2,89.1 L 95.3,32.4 L 95.0,89.2 Z M 95.0,89.2 L 95.3,32.4 L 61.4,53.4 Z M 95.0,89.2 L 61.4,53.4 L 34.9,114.2 Z M 236.0,69.6 L 213.1,43.4 L 210.4,89.1 Z M 236.0,69.6 L 210.4,89.1 L 236.0,115.8 Z M 236.0,115.8 L 210.4,89.1 L 153.2,89.1 Z M 236.0,115.8 L 153.2,89.1 L 210.5,151.1 Z M 210.5,151.1 L 153.2,89.1 L 153.1,151.1 Z M 210.5,151.1 L 153.1,151.1 L 210.6,213.3 Z M 210.6,213.3 L 153.1,151.1 L 94.7,151.2 Z M 210.6,213.3 L 94.7,151.2 L 174.3,244.5 Z M 174.3,244.5 L 94.7,151.2 L 94.4,213.0 Z M 174.3,244.5 L 94.4,213.0 L 138.4,270.2 Z M 138.4,270.2 L 94.4,213.0 L 73.4,269.5 Z M 94.4,213.0 L 42.7,241.0 L 73.4,269.5 Z M 174.3,244.5 L 217.0,245.9 L 261.2,213.5 Z M 174.3,244.5 L 261.2,213.5 L 210.6,213.3 Z M 48.8,148.8 L 94.7,151.2 L 95.0,89.2 Z M 48.8,148.8 L 95.0,89.2 L 34.9,114.2 Z M 94.4,213.0 L 39.4,212.8 L 42.7,241.0 Z M 210.5,151.1 L 256.0,151.1 L 236.0,115.8 Z M 85.6,61.5 L 80.9,69.1 L 84.1,72.6 Z M 85.6,61.5 L 84.1,72.6 L 90.4,66.7 Z M 74.0,173.4 L 69.3,181.0 L 72.5,184.5 Z M 74.0,173.4 L 72.5,184.5 L 78.9,178.6 Z M 139.5,236.7 L 143.0,244.9 L 147.8,244.2 Z M 139.5,236.7 L 147.8,244.2 L 146.5,235.6 Z M 144.2,234.3 L 150.2,237.1 L 152.4,234.4 Z M 144.2,234.3 L 152.4,234.4 L 147.6,230.3 Z M 197.2,151.3 L 200.8,159.5 L 205.5,158.9 Z M 197.2,151.3 L 205.5,158.9 L 204.2,150.3 Z M 201.9,149.0 L 207.9,151.7 L 210.2,149.1 Z M 201.9,149.0 L 210.2,149.1 L 205.3,145.0 Z M 130.0,122.6 L 133.6,130.8 L 138.3,130.1 Z M 130.0,122.6 L 138.3,130.1 L 137.0,121.6 Z M 146.7,109.2 L 139.7,114.7 L 141.5,119.1 Z M 146.7,109.2 L 141.5,119.1 L 149.5,115.7 Z M 251.8,60.0 L 228.6,69.6 L 228.6,107.6 Z M 251.8,60.0 L 228.6,107.6 L 251.8,103.3 Z M 251.8,103.3 L 228.6,107.6 L 228.6,145.6 Z M 251.8,103.3 L 228.6,145.6 L 251.8,146.6 Z M 81.5,252.5 L 56.9,241.5 L 73.3,274.2 Z M 56.9,241.5 L 38.6,258.8 L 73.3,274.2 Z M 38.6,258.8 L 56.9,241.5 L 22.1,215.7 Z M 56.9,241.5 L 47.2,216.3 L 22.1,215.7 Z M 47.2,216.3 L 55.3,191.7 L 22.1,215.7 Z M 55.3,191.7 L 36.9,173.0 L 22.1,215.7 Z M 69.5,149.6 L 57.6,106.5 L 44.5,148.9 Z M 57.6,106.5 L 34.7,113.1 L 44.5,148.9 Z M 44.5,148.9 L 36.9,173.0 L 69.5,149.6 Z M 36.9,173.0 L 55.3,191.7 L 69.5,149.6 Z M 182.6,50.6 L 209.5,50.6 L 173.0,27.4 Z M 209.5,50.6 L 219.1,27.4 L 173.0,27.4 Z M 228.6,69.6 L 251.8,60.0 L 209.5,50.6 Z M 251.8,60.0 L 219.1,27.4 L 209.5,50.6 Z M 251.8,60.0 L 228.6,69.6 L 251.8,103.3 Z M 228.6,69.6 L 228.6,107.6 L 251.8,103.3 Z M 251.8,103.3 L 228.6,107.6 L 228.6,145.6 Z M 105.2,337.5 L 141.3,337.5 L 141.3,253.9 Z M 105.2,337.5 L 141.3,253.9 L 105.2,253.9 Z M 105.2,337.5 L 61.0,380.0 L 85.0,380.0 Z M 105.2,337.5 L 85.0,380.0 L 141.3,337.5 Z M 209.5,50.6 L 219.1,27.4 L 173.0,27.4 Z M 209.5,50.6 L 173.0,27.4 L 182.6,50.6 Z M 228.6,69.6 L 251.8,60.0 L 219.1,27.4 Z M 228.6,69.6 L 219.1,27.4 L 209.5,50.6 Z M 283.1,134.1 L 297.6,133.6 L 295.8,91.5 Z M 283.1,134.1 L 295.8,91.5 L 281.2,92.1 Z M 228.6,145.6 L 251.8,146.6 L 251.8,103.3 Z M 181.8,24.5 L 179.4,20.0 L 177.0,24.2 Z M 222.7,30.9 L 223.9,25.9 L 219.3,27.4 Z M 251.4,59.8 L 252.6,54.8 L 248.0,56.3 Z M 251.6,129.6 L 256.1,127.0 L 251.8,124.7 Z M 105.0,284.7 L 105.0,279.6 L 100.8,282.2 Z M 141.6,323.0 L 145.7,320.5 L 141.6,317.9 Z M 105.3,326.3 L 105.3,321.2 L 101.2,323.8 Z M 38.3,258.2 L 36.4,253.4 L 33.5,257.3 Z M 24.8,221.9 L 22.9,217.2 L 20.0,221.1 Z M 44.3,148.8 L 43.0,143.8 L 39.6,147.4 Z M 35.8,119.2 L 34.5,114.3 L 31.1,117.8 Z M 141.6,280.6 L 145.7,278.1 L 141.6,275.5 Z" fill="#2a2a4e" stroke="none"/>
  <path d="M 261.2,213.5 L 268.3,194.0 M 268.3,194.0 L 268.3,167.0 M 268.3,167.0 L 256.0,151.1 M 48.8,148.8 L 39.4,212.8 M 213.1,43.4 L 174.7,27.4 M 174.7,27.4 L 153.3,31.4 M 153.3,31.4 L 95.3,32.4 M 95.3,32.4 L 61.4,53.4 M 61.4,53.4 L 34.9,114.2 M 236.0,69.6 L 213.1,43.4 M 236.0,115.8 L 236.0,69.6 M 138.4,270.2 L 174.3,244.5 M 73.4,269.5 L 138.4,270.2 M 42.7,241.0 L 73.4,269.5 M 174.3,244.5 L 217.0,245.9 M 217.0,245.9 L 261.2,213.5 M 34.9,114.2 L 48.8,148.8 M 39.4,212.8 L 42.7,241.0 M 256.0,151.1 L 236.0,115.8 M 85.6,61.5 L 80.9,69.1 M 80.9,69.1 L 84.1,72.6 M 84.1,72.6 L 90.4,66.7 M 90.4,66.7 L 85.6,61.5 M 74.0,173.4 L 69.3,181.0 M 69.3,181.0 L 72.5,184.5 M 72.5,184.5 L 78.9,178.6 M 78.9,178.6 L 74.0,173.4 M 139.5,236.7 L 143.0,244.9 M 143.0,244.9 L 147.8,244.2 M 147.8,244.2 L 146.5,235.6 M 146.5,235.6 L 139.5,236.7 M 144.2,234.3 L 150.2,237.1 M 150.2,237.1 L 152.4,234.4 M 152.4,234.4 L 147.6,230.3 M 147.6,230.3 L 144.2,234.3 M 197.2,151.3 L 200.8,159.5 M 200.8,159.5 L 205.5,158.9 M 205.5,158.9 L 204.2,150.3 M 204.2,150.3 L 197.2,151.3 M 201.9,149.0 L 207.9,151.7 M 207.9,151.7 L 210.2,149.1 M 210.2,149.1 L 205.3,145.0 M 205.3,145.0 L 201.9,149.0 M 130.0,122.6 L 133.6,130.8 M 133.6,130.8 L 138.3,130.1 M 138.3,130.1 L 137.0,121.6 M 137.0,121.6 L 130.0,122.6 M 146.7,109.2 L 139.7,114.7 M 139.7,114.7 L 141.5,119.1 M 141.5,119.1 L 149.5,115.7 M 149.5,115.7 L 146.7,109.2 M 81.5,252.5 L 56.9,241.5 M 73.3,274.2 L 81.5,252.5 M 38.6,258.8 L 73.3,274.2 M 22.1,215.7 L 38.6,258.8 M 56.9,241.5 L 47.2,216.3 M 47.2,216.3 L 55.3,191.7 M 36.9,173.0 L 22.1,215.7 M 69.5,149.6 L 57.6,106.5 M 57.6,106.5 L 34.7,113.1 M 34.7,113.1 L 44.5,148.9 M 44.5,148.9 L 36.9,173.0 M 55.3,191.7 L 69.5,149.6 M 141.3,337.5 L 141.3,253.9 M 141.3,253.9 L 105.2,253.9 M 105.2,253.9 L 105.2,337.5 M 105.2,337.5 L 61.0,380.0 M 61.0,380.0 L 85.0,380.0 M 85.0,380.0 L 141.3,337.5 M 283.1,134.1 L 297.6,133.6 M 297.6,133.6 L 295.8,91.5 M 295.8,91.5 L 281.2,92.1 M 281.2,92.1 L 283.1,134.1 M 181.8,24.5 L 179.4,20.0 M 179.4,20.0 L 177.0,24.2 M 177.0,24.2 L 181.8,24.5 M 222.7,30.9 L 223.9,25.9 M 223.9,25.9 L 219.3,27.4 M 219.3,27.4 L 222.7,30.9 M 251.4,59.8 L 252.6,54.8 M 252.6,54.8 L 248.0,56.3 M 248.0,56.3 L 251.4,59.8 M 251.6,129.6 L 256.1,127.0 M 256.1,127.0 L 251.8,124.7 M 251.8,124.7 L 251.6,129.6 M 105.0,284.7 L 105.0,279.6 M 105.0,279.6 L 100.8,282.2 M 100.8,282.2 L 105.0,284.7 M 141.6,323.0 L 145.7,320.5 M 145.7,320.5 L 141.6,317.9 M 141.6,317.9 L 141.6,323.0 M 105.3,326.3 L 105.3,321.2 M 105.3,321.2 L 101.2,323.8 M 101.2,323.8 L 105.3,326.3 M 38.3,258.2 L 36.4,253.4 M 36.4,253.4 L 33.5,257.3 M 33.5,257.3 L 38.3,258.2 M 24.8,221.9 L 22.9,217.2 M 22.9,217.2 L 20.0,221.1 M 20.0,221.1 L 24.8,221.9 M 44.3,148.8 L 43.0,143.8 M 43.0,143.8 L 39.6,147.4 M 39.6,147.4 L 44.3,148.8 M 35.8,119.2 L 34.5,114.3 M 34.5,114.3 L 31.1,117.8 M 31.1,117.8 L 35.8,119.2 M 141.6,280.6 L 145.7,278.1 M 145.7,278.1 L 141.6,275.5 M 141.6,275.5 L 141.6,280.6" fill="none" stroke="white" stroke-width="2" stroke-linecap="round"/>
  <polygon points="123.96451194533891,286.05461825373527 131.96451194533893,294.05461825373527 123.96451194533891,302.05461825373527 115.96451194533891,294.05461825373527" fill="#4a9eff" stroke="white" stroke-width="1"/>
</svg>