<svg xmlns="http://www.w3.org/2000/svg" viewBox="0 0 400 400">
  <rect width="400" height="400" fill="#1a1a2e"/>
  <path d="M 206.6,255.2 L 196.3,224.9 L 169.5,218.0 Z M 206.6,255.2 L 169.5,218.0 L 169.6,255.1 Z M 99.7,193.2 L 67.1,193.2 L 67.1,226.2 Z M 99.7,193.2 L 67.1,226.2 L 99.7,226.2 Z M 99.7,153.8 L 99.7,193.2 L 121.8,187.7 Z M 99.7,153.8 L 121.8,187.7 L 127.6,153.8 Z M 145.9,173.3 L 143.9,187.6 L 177.5,180.3 Z M 145.9,173.3 L 177.5,180.3 L 175.1,153.8 Z M 175.1,153.8 L 177.5,180.3 L 209.9,187.1 Z M 175.1,153.8 L 209.9,187.1 L 209.2,165.3 Z M 143.9,187.6 L 154.5,200.4 L 181.5,207.0 Z M 143.9,187.6 L 181.5,207.0 L 177.5,180.3 Z M 177.5,180.3 L 181.5,207.0 L 199.6,201.0 Z M 177.5,180.3 L 199.6,201.0 L 209.9,187.1 Z M 202.7,263.8 L 206.6,255.2 L 169.6,255.1 Z M 202.7,263.8 L 169.6,255.1 L 175.1,288.7 Z M 175.1,288.7 L 169.6,255.1 L 136.2,255.0 Z M 175.1,288.7 L 136.2,255.0 L 141.1,276.9 Z M 127.6,153.8 L 123.1,137.4 L 99.7,129.8 Z M 127.6,153.8 L 99.7,129.8 L 99.7,153.8 Z M 99.7,153.8 L 99.7,129.8 L 81.0,140.4 Z M 99.7,153.8 L 81.0,140.4 L 76.3,167.7 Z M 67.1,193.2 L 57.0,193.5 L 51.3,231.8 Z M 67.1,193.2 L 51.3,231.8 L 67.1,226.2 Z M 67.1,226.2 L 51.3,231.8 L 55.7,249.0 Z M 67.1,226.2 L 55.7,249.0 L 73.2,257.7 Z M 136.2,255.0 L 169.6,255.1 L 169.5,218.0 Z M 136.2,255.0 L 169.5,218.0 L 148.4,221.8 Z M 99.7,193.2 L 99.7,226.2 L 120.5,220.6 Z M 99.7,193.2 L 120.5,220.6 L 123.2,202.0 Z M 99.7,249.3 L 99.7,226.2 L 67.1,226.2 Z M 99.7,249.3 L 67.1,226.2 L 73.2,257.7 Z M 67.1,193.2 L 99.7,193.2 L 99.7,153.8 Z M 67.1,193.2 L 99.7,153.8 L 76.3,167.7 Z M 99.7,249.3 L 120.5,220.6 L 99.7,226.2 Z M 76.3,167.7 L 57.0,193.5 L 67.1,193.2 Z M 123.2,202.0 L 121.8,187.7 L 99.7,193.2 Z M 152.1,263.5 L 157.3,260.1 L 154.5,255.8 Z M 152.1,263.5 L 154.5,255.8 L 150.2,260.6 Z M 159.9,263.6 L 161.2,259.2 L 157.5,258.2 Z M 159.9,263.6 L 157.5,258.2 L 157.5,262.9 Z M 103.4,234.1 L 102.9,227.8 L 97.8,228.2 Z M 103.4,234.1 L 97.8,228.2 L 100.0,234.3 Z M 98.8,234.9 L 95.5,231.7 L 92.9,234.4 Z M 98.8,234.9 L 92.9,234.4 L 97.1,236.7 Z M 72.6,209.9 L 69.3,206.7 L 66.7,209.4 Z M 72.6,209.9 L 66.7,209.4 L 70.8,211.7 Z M 117.1,180.5 L 112.5,181.0 L 113.0,184.8 Z M 117.1,180.5 L 113.0,184.8 L 117.4,183.0 Z M 112.5,177.2 L 108.3,177.7 L 108.7,181.2 Z M 112.5,177.2 L 108.7,181.2 L 112.7,179.5 Z M 184.4,165.1 L 180.2,165.6 L 180.6,169.0 Z M 184.4,165.1 L 180.6,169.0 L 184.7,167.4 Z M 87.1,81.2 L 113.3,81.2 L 82.0,36.5 Z M 87.1,81.2 L 82.0,36.5 L 64.6,36.5 Z M 64.6,36.5 L 82.0,36.5 L 37.4,20.0 Z M 64.6,36.5 L 37.4,20.0 L 20.0,20.0 Z M 185.5,141.6 L 180.2,159.1 L 209.7,165.3 Z M 180.2,159.1 L 198.3,176.7 L 209.7,165.3 Z M 168.0,141.8 L 173.6,159.1 L 185.5,141.6 Z M 173.6,159.1 L 180.2,159.1 L 185.5,141.6 Z M 161.8,171.2 L 173.6,159.1 L 144.4,166.0 Z M 173.6,159.1 L 168.0,141.8 L 144.4,166.0 Z M 162.0,182.9 L 161.8,171.2 L 144.6,188.3 Z M 161.8,171.2 L 144.4,166.0 L 144.6,188.3 Z M 164.5,300.8 L 169.9,283.4 L 140.6,276.9 Z M 169.9,283.4 L 152.1,265.6 L 140.6,276.9 Z M 188.5,271.4 L 176.5,283.4 L 205.9,276.9 Z M 176.5,283.4 L 182.0,300.8 L 205.9,276.9 Z M 134.1,193.4 L 119.1,183.0 L 120.4,204.2 Z M 119.1,183.0 L 113.9,187.1 L 120.4,204.2 Z M 121.1,166.3 L 119.1,183.0 L 138.2,159.8 Z M 119.1,183.0 L 134.1,193.4 L 138.2,159.8 Z M 113.7,156.8 L 121.1,166.3 L 124.4,142.2 Z M 121.1,166.3 L 138.2,159.8 L 124.4,142.2 Z M 39.2,206.5 L 55.1,215.4 L 58.0,193.7 Z M 55.1,215.4 L 66.7,207.3 L 58.0,193.7 Z M 35.6,223.5 L 53.8,221.8 L 39.2,206.5 Z M 53.8,221.8 L 55.1,215.4 L 39.2,206.5 Z M 54.2,251.9 L 63.0,236.0 L 35.6,223.5 Z M 63.0,236.0 L 53.8,221.8 L 35.6,223.5 Z M 74.8,238.5 L 63.0,236.0 L 75.9,256.5 Z M 63.0,236.0 L 54.2,251.9 L 75.9,256.5 Z M 164.5,300.8 L 182.0,300.8 L 176.5,283.4 Z M 164.5,300.8 L 176.5,283.4 L 169.9,283.4 Z M 205.9,254.6 L 188.5,259.8 L 188.5,271.4 Z M 205.9,254.6 L 188.5,271.4 L 205.9,276.9 Z M 102.5,245.5 L 76.3,247.7 L 76.3,349.2 Z M 102.5,245.5 L 76.3,349.2 L 102.5,347.1 Z M 59.6,380.0 L 102.5,347.1 L 76.3,349.2 Z M 59.6,380.0 L 76.3,349.2 L 42.2,380.0 Z M 108.6,232.9 L 142.2,248.3 L 151.3,224.6 Z M 108.6,232.9 L 151.3,224.6 L 118.1,209.4 Z M 167.7,200.8 L 168.5,229.6 L 194.6,229.1 Z M 167.7,200.8 L 194.6,229.1 L 193.8,200.3 Z M 87.1,141.7 L 113.3,141.7 L 113.3,81.2 Z M 87.1,141.7 L 113.3,81.2 L 87.1,81.2 Z M 102.5,245.5 L 76.3,247.7 L 76.3,349.2 Z M 102.5,245.5 L 76.3,349.2 L 102.5,347.1 Z M 108.6,232.9 L 142.2,248.3 L 151.3,224.6 Z M 108.6,232.9 L 151.3,224.6 L 118.1,209.4 Z M 167.7,200.8 L 168.5,229.6 L 194.6,229.1 Z M 167.7,200.8 L 194.6,229.1 L 193.8,200.3 Z M 87.1,141.7 L 113.3,141.7 L 113.3,81.2 Z M 87.1,141.7 L 113.3,81.2 L 87.1,81.2 Z M 102.6,346.0 L 105.6,344.1 L 102.6,342.3 Z M 76.2,301.4 L 76.3,297.7 L 73.3,299.5 Z M 86.7,86.4 L 86.7,82.7 L 83.7,84.5 Z M 113.3,131.3 L 116.3,129.5 L 113.3,127.6 Z M 87.0,130.5 L 86.9,126.8 L 84.0,128.7 Z M 102.6,315.5 L 105.6,313.7 L 102.6,311.8 Z M 102.6,255.1 L 105.6,253.2 L 102.6,251.4 Z" fill="#2a2a4e" stroke="none"/>
  <path d="M 206.6,255.2 L 196.3,224.9 M 196.3,224.9 L 169.5,218.0 M 121.8,187.7 L 127.6,153.8 M 145.9,173.3 L 143.9,187.6 M 175.1,153.8 L 145.9,173.3 M 209.9,187.1 L 209.2,165.3 M 209.2,165.3 L 175.1,153.8 M 143.9,187.6 L 154.5,200.4 M 154.5,200.4 L 181.5,207.0 M 181.5,207.0 L 199.6,201.0 M 199.6,201.0 L 209.9,187.1 M 202.7,263.8 L 206.6,255.2 M 175.1,288.7 L 202.7,263.8 M 136.2,255.0 L 141.1,276.9 M 141.1,276.9 L 175.1,288.7 M 127.6,153.8 L 123.1,137.4 M 123.1,137.4 L 99.7,129.8 M 99.7,129.8 L 81.0,140.4 M 81.0,140.4 L 76.3,167.7 M 57.0,193.5 L 51.3,231.8 M 51.3,231.8 L 55.7,249.0 M 55.7,249.0 L 73.2,257.7 M 169.5,218.0 L 148.4,221.8 M 148.4,221.8 L 136.2,255.0 M 120.5,220.6 L 123.2,202.0 M 73.2,257.7 L 99.7,249.3 M 99.7,249.3 L 120.5,220.6 M 76.3,167.7 L 57.0,193.5 M 123.2,202.0 L 121.8,187.7 M 152.1,263.5 L 157.3,260.1 M 157.3,260.1 L 154.5,255.8 M 154.5,255.8 L 150.2,260.6 M 150.2,260.6 L 152.1,263.5 M 159.9,263.6 L 161.2,259.2 M 161.2,259.2 L 157.5,258.2 M 157.5,258.2 L 157.5,262.9 M 157.5,262.9 L 159.9,263.6 M 103.4,234.1 L 102.9,227.8 M 102.9,227.8 L 97.8,228.2 M 97.8,228.2 L 100.0,234.3 M 100.0,234.3 L 103.4,234.1 M 98.8,234.9 L 95.5,231.7 M 95.5,231.7 L 92.9,234.4 M 92.9,234.4 L 97.1,236.7 M 97.1,236.7 L 98.8,234.9 M 72.6,209.9 L 69.3,206.7 M 69.3,206.7 L 66.7,209.4 M 66.7,209.4 L 70.8,211.7 M 70.8,211.7 L 72.6,209.9 M 117.1,180.5 L 112.5,181.0 M 112.5,181.0 L 113.0,184.8 M 113.0,184.8 L 117.4,183.0 M 117.4,183.0 L 117.1,180.5 M 112.5,177.2 L 108.3,177.7 M 108.3,177.7 L 108.7,181.2 M 108.7,181.2 L 112.7,179.5 M 112.7,179.5 L 112.5,177.2 M 184.4,165.1 L 180.2,165.6 M 180.2,165.6 L 180.6,169.0 M 180.6,169.0 L 184.7,167.4 M 184.7,167.4 L 184.4,165.1 M 113.3,81.2 L 82.0,36.5 M 64.6,36.5 L 87.1,81.2 M 82.0,36.5 L 37.4,20.0 M 37.4,20.0 L 20.0,20.0 M 20.0,20.0 L 64.6,36.5 M 209.7,165.3 L 185.5,141.6 M 180.2,159.1 L 198.3,176.7 M 198.3,176.7 L 209.7,165.3 M 185.5,141.6 L 168.0,141.8 M 173.6,159.1 L 180.2,159.1 M 161.8,171.2 L 173.6,159.1 M 168.0,141.8 L 144.4,166.0 M 162.0,182.9 L 161.8,171.2 M 144.6,188.3 L 162.0,182.9 M 144.4,166.0 L 144.6,188.3 M 140.6,276.9 L 164.5,300.8 M 169.9,283.4 L 152.1,265.6 M 152.1,265.6 L 140.6,276.9 M 188.5,271.4 L 176.5,283.4 M 182.0,300.8 L 205.9,276.9 M 120.4,204.2 L 134.1,193.4 M 119.1,183.0 L 113.9,187.1 M 113.9,187.1 L 120.4,204.2 M 121.1,166.3 L 119.1,183.0 M 134.1,193.4 L 138.2,159.8 M 113.7,156.8 L 121.1,166.3 M 124.4,142.2 L 113.7,156.8 M 138.2,159.8 L 124.4,142.2 M 58.0,193.7 L 39.2,206.5 M 55.1,215.4 L 66.7,207.3 M 66.7,207.3 L 58.0,193.7 M 39.2,206.5 L 35.6,223.5 M 53.8,221.8 L 55.1,215.4 M 35.6,223.5 L 54.2,251.9 M 63.0,236.0 L 53.8,221.8 M 74.8,238.5 L 63.0,236.0 M 75.9,256.5 L 74.8,238.5 M 54.2,251.9 L 75.9,256.5 M 164.5,300.8 L 182.0,300.8 M 176.5,283.4 L 169.9,283.4 M 205.9,254.6 L 188.5,259.8 M 188.5,259.8 L 188.5,271.4 M 205.9,276.9 L 205.9,254.6 M 59.6,380.0 L 102.5,347.1 M 76.3,349.2 L 42.2,380.0 M 42.2,380.0 L 59.6,380.0 M 102.6,346.0 L 105.6,344.1 M 105.6,344.1 L 102.6,342.3 M 102.6,342.3 L 102.6,346.0 M 76.2,301.4 L 76.3,297.7 M 76.3,297.7 L 73.3,299.5 M 73.3,299.5 L 76.2,301.4 M 86.7,86.4 L 86.7,82.7 M 86.7,82.7 L 83.7,84.5 M 83.7,84.5 L 86.7,86.4 M 113.3,131.3 L 116.3,129.5 M 116.3,129.5 L 113.3,127.6 M 113.3,127.6 L 113.3,131.3 M 87.0,130.5 L 86.9,126.8 M 86.9,126.8 L 84.0,128.7 M 84.0,128.7 L 87.0,130.5 M 102.6,315.5 L 105.6,313.7 M 105.6,313.7 L 102.6,311.8 M 102.6,311.8 L 102.6,315.5 M 102.6,255.1 L 105.6,253.2 M 105.6,253.2 L 102.6,251.4 M 102.6,251.4 L 102.6,255.1" fill="none" stroke="white" stroke-width="2" stroke-linecap="round"/>
  <polygon points="90.02968861666886,272.93859464490487 98.02968861666886,280.93859464490487 90.02968861666886,288.93859464490487 82.02968861666886,280.93859464490487" fill="#4a9eff" stroke="white" stroke-width="1"/>
<polygon points="100.332371543848,104.06712536263912 108.332371543848,112.06712536263912 100.332371543848,120.06712536263912 92.332371543848,112.06712536263912" fill="#4a9eff" stroke="white" stroke-width="1"/>
</svg>