<svg xmlns="http://www.w3.org/2000/svg" viewBox="0 0 400 400">
  <rect width="400" height="400" fill="#1a1a2e"/>
  <path d="M 121.8,127.6 L 159.6,101.9 L 114.6,104.2 Z M 159.6,101.9 L 154.4,77.8 L 114.6,104.2 Z M 128.7,297.4 L 91.1,290.0 L 91.1,375.6 Z M 128.7,297.4 L 91.1,375.6 L 128.7,380.0 Z M 227.7,90.9 L 265.3,91.0 L 265.3,20.0 Z M 227.7,90.9 L 265.3,20.0 L 227.7,20.0 Z M 313.6,203.8 L 328.7,203.2 L 326.8,159.4 Z M 313.6,203.8 L 326.8,159.4 L 311.7,160.0 Z M 124.7,47.4 L 124.2,57.1 L 168.0,57.1 Z M 124.7,47.4 L 168.0,57.1 L 168.5,47.4 Z M 61.9,260.3 L 51.4,249.4 L 20.0,280.0 Z M 61.9,260.3 L 20.0,280.0 L 30.5,290.9 Z M 128.7,297.4 L 91.1,290.0 L 91.1,375.6 Z M 128.7,297.4 L 91.1,375.6 L 128.7,380.0 Z M 227.7,90.9 L 265.3,91.0 L 265.3,20.0 Z M 227.7,90.9 L 265.3,20.0 L 227.7,20.0 Z M 90.6,213.9 L 106.2,144.6 L 84.3,127.7 Z M 90.6,213.9 L 84.3,127.7 L 65.2,212.6 Z M 253.4,250.8 L 225.6,281.5 L 228.4,315.9 Z M 253.4,250.8 L 228.4,315.9 L 286.7,251.2 Z M 286.7,251.2 L 268.1,234.4 L 253.4,250.8 Z M 225.6,281.5 L 209.8,299.1 L 228.4,315.9 Z M 106.2,144.6 L 108.8,133.2 L 84.3,127.7 Z M 65.2,212.6 L 89.7,218.1 L 90.6,213.9 Z M 159.0,97.5 L 142.1,108.4 L 162.5,107.8 Z M 159.0,97.5 L 162.5,107.8 L 218.7,103.6 Z M 218.7,103.6 L 162.5,107.8 L 164.8,116.4 Z M 218.7,103.6 L 164.8,116.4 L 208.6,116.4 Z M 155.5,136.6 L 228.4,169.5 L 227.9,160.4 Z M 155.5,136.6 L 227.9,160.4 L 181.4,136.0 Z M 181.4,136.0 L 227.9,160.4 L 199.1,131.4 Z M 181.4,136.0 L 199.1,131.4 L 185.4,131.0 Z M 106.2,144.6 L 90.6,213.9 L 181.2,213.5 Z M 106.2,144.6 L 181.2,213.5 L 135.2,142.6 Z M 135.2,142.6 L 181.2,213.5 L 154.5,139.4 Z M 135.2,142.6 L 154.5,139.4 L 135.2,140.7 Z M 240.8,169.7 L 228.4,169.5 L 240.8,197.9 Z M 240.8,169.7 L 240.8,197.9 L 241.4,173.9 Z M 241.4,173.9 L 240.8,197.9 L 249.3,184.1 Z M 241.4,173.9 L 249.3,184.1 L 248.0,174.0 Z M 273.6,155.2 L 218.7,103.6 L 208.6,116.4 Z M 273.6,155.2 L 208.6,116.4 L 245.2,155.4 Z M 245.2,155.4 L 208.6,116.4 L 207.6,121.5 Z M 245.2,155.4 L 207.6,121.5 L 240.7,160.0 Z M 240.7,160.0 L 207.6,121.5 L 202.6,121.4 Z M 240.7,160.0 L 202.6,121.4 L 202.5,126.2 Z M 154.5,139.4 L 237.5,207.9 L 237.6,202.4 Z M 154.5,139.4 L 237.6,202.4 L 155.5,136.6 Z M 155.5,136.6 L 237.6,202.4 L 241.1,202.4 Z M 155.5,136.6 L 241.1,202.4 L 240.8,197.9 Z M 270.7,207.9 L 237.5,207.9 L 181.2,213.5 Z M 270.7,207.9 L 181.2,213.5 L 270.5,213.0 Z M 270.5,213.0 L 181.2,213.5 L 181.0,222.1 Z M 270.5,213.0 L 181.0,222.1 L 268.1,234.4 Z M 268.1,234.4 L 181.0,222.1 L 201.3,251.3 Z M 268.1,234.4 L 201.3,251.3 L 253.4,250.8 Z M 189.6,260.1 L 188.9,255.0 L 154.4,222.8 Z M 189.6,260.1 L 154.4,222.8 L 181.3,260.2 Z M 181.3,260.2 L 154.4,222.8 L 153.7,226.0 Z M 181.3,260.2 L 153.7,226.0 L 181.3,270.5 Z M 181.3,270.5 L 153.7,226.0 L 147.5,226.8 Z M 181.3,270.5 L 147.5,226.8 L 147.9,231.3 Z M 181.3,270.5 L 147.9,231.3 L 88.5,231.8 Z M 181.3,270.5 L 88.5,231.8 L 156.8,270.5 Z M 156.8,270.5 L 88.5,231.8 L 140.8,283.3 Z M 156.8,270.5 L 140.8,283.3 L 160.7,275.2 Z M 160.7,275.2 L 140.8,283.3 L 181.4,284.5 Z M 160.7,275.2 L 181.4,284.5 L 181.5,275.6 Z M 253.4,113.5 L 271.5,150.9 L 273.3,90.7 Z M 271.5,150.9 L 298.2,154.3 L 273.3,90.7 Z M 154.4,77.8 L 159.6,101.9 L 214.3,80.4 Z M 159.6,101.9 L 209.6,103.5 L 214.3,80.4 Z M 214.3,80.4 L 209.6,103.5 L 253.4,113.5 Z M 136.4,273.0 L 102.4,265.4 L 124.2,296.6 Z M 102.4,265.4 L 80.5,287.7 L 124.2,296.6 Z M 67.4,234.6 L 91.4,220.8 L 59.9,177.0 Z M 91.4,220.8 L 86.0,171.7 L 59.9,177.0 Z M 80.5,287.7 L 102.4,265.4 L 67.4,234.6 Z M 102.4,265.4 L 91.4,220.8 L 67.4,234.6 Z M 225.6,281.5 L 181.4,284.5 L 209.8,299.1 Z M 181.4,284.5 L 140.8,283.3 L 209.8,299.1 Z M 83.9,154.2 L 121.8,127.6 L 114.6,104.2 Z M 83.9,154.2 L 114.6,104.2 L 74.8,130.6 Z M 298.2,154.3 L 271.5,150.9 L 254.3,256.4 Z M 298.2,154.3 L 254.3,256.4 L 281.6,259.8 Z M 157.3,290.0 L 160.3,314.9 L 246.8,304.5 Z M 157.3,290.0 L 246.8,304.5 L 243.8,279.6 Z M 170.4,280.6 L 136.4,273.0 L 124.2,296.6 Z M 170.4,280.6 L 124.2,296.6 L 167.9,305.5 Z M 240.8,197.9 L 271.4,195.0 L 272.0,184.4 Z M 240.8,197.9 L 272.0,184.4 L 249.3,184.1 Z M 199.1,131.4 L 227.9,160.4 L 240.7,160.0 Z M 199.1,131.4 L 240.7,160.0 L 202.5,126.2 Z M 201.3,251.3 L 181.0,222.1 L 188.9,255.0 Z M 201.3,251.3 L 188.9,255.0 L 199.7,254.3 Z M 154.5,139.4 L 181.2,213.5 L 237.5,207.9 Z M 240.8,197.9 L 228.4,169.5 L 155.5,136.6 Z M 188.9,255.0 L 181.0,222.1 L 154.4,222.8 Z M 253.4,113.5 L 273.3,90.7 L 214.3,80.4 Z" fill="#2a2a4e" stroke="none"/>
  <path d="M 121.8,127.6 L 159.6,101.9 M 154.4,77.8 L 114.6,104.2 M 313.6,203.8 L 328.7,203.2 M 328.7,203.2 L 326.8,159.4 M 326.8,159.4 L 311.7,160.0 M 311.7,160.0 L 313.6,203.8 M 124.7,47.4 L 124.2,57.1 M 124.2,57.1 L 168.0,57.1 M 168.0,57.1 L 168.5,47.4 M 168.5,47.4 L 124.7,47.4 M 61.9,260.3 L 51.4,249.4 M 51.4,249.4 L 20.0,280.0 M 20.0,280.0 L 30.5,290.9 M 30.5,290.9 L 61.9,260.3 M 84.3,127.7 L 65.2,212.6 M 253.4,250.8 L 225.6,281.5 M 228.4,315.9 L 286.7,251.2 M 286.7,251.2 L 268.1,234.4 M 209.8,299.1 L 228.4,315.9 M 106.2,144.6 L 108.8,133.2 M 108.8,133.2 L 84.3,127.7 M 65.2,212.6 L 89.7,218.1 M 89.7,218.1 L 90.6,213.9 M 159.0,97.5 L 142.1,108.4 M 142.1,108.4 L 162.5,107.8 M 218.7,103.6 L 159.0,97.5 M 162.5,107.8 L 164.8,116.4 M 164.8,116.4 L 208.6,116.4 M 228.4,169.5 L 227.9,160.4 M 181.4,136.0 L 155.5,136.6 M 199.1,131.4 L 185.4,131.0 M 185.4,131.0 L 181.4,136.0 M 90.6,213.9 L 181.2,213.5 M 135.2,142.6 L 106.2,144.6 M 154.5,139.4 L 135.2,140.7 M 135.2,140.7 L 135.2,142.6 M 240.8,169.7 L 228.4,169.5 M 241.4,173.9 L 240.8,169.7 M 249.3,184.1 L 248.0,174.0 M 248.0,174.0 L 241.4,173.9 M 273.6,155.2 L 218.7,103.6 M 245.2,155.4 L 273.6,155.2 M 208.6,116.4 L 207.6,121.5 M 240.7,160.0 L 245.2,155.4 M 207.6,121.5 L 202.6,121.4 M 202.6,121.4 L 202.5,126.2 M 237.5,207.9 L 237.6,202.4 M 155.5,136.6 L 154.5,139.4 M 237.6,202.4 L 241.1,202.4 M 241.1,202.4 L 240.8,197.9 M 270.7,207.9 L 237.5,207.9 M 270.5,213.0 L 270.7,207.9 M 181.2,213.5 L 181.0,222.1 M 268.1,234.4 L 270.5,213.0 M 201.3,251.3 L 253.4,250.8 M 189.6,260.1 L 188.9,255.0 M 181.3,260.2 L 189.6,260.1 M 154.4,222.8 L 153.7,226.0 M 181.3,270.5 L 181.3,260.2 M 153.7,226.0 L 147.5,226.8 M 147.5,226.8 L 147.9,231.3 M 147.9,231.3 L 88.5,231.8 M 156.8,270.5 L 181.3,270.5 M 88.5,231.8 L 140.8,283.3 M 160.7,275.2 L 156.8,270.5 M 181.4,284.5 L 181.5,275.6 M 181.5,275.6 L 160.7,275.2 M 253.4,113.5 L 271.5,150.9 M 298.2,154.3 L 273.3,90.7 M 214.3,80.4 L 154.4,77.8 M 159.6,101.9 L 209.6,103.5 M 209.6,103.5 L 253.4,113.5 M 136.4,273.0 L 102.4,265.4 M 80.5,287.7 L 124.2,296.6 M 59.9,177.0 L 67.4,234.6 M 91.4,220.8 L 86.0,171.7 M 86.0,171.7 L 59.9,177.0 M 67.4,234.6 L 80.5,287.7 M 102.4,265.4 L 91.4,220.8 M 225.6,281.5 L 181.4,284.5 M 140.8,283.3 L 209.8,299.1 M 83.9,154.2 L 121.8,127.6 M 114.6,104.2 L 74.8,130.6 M 74.8,130.6 L 83.9,154.2 M 271.5,150.9 L 254.3,256.4 M 254.3,256.4 L 281.6,259.8 M 281.6,259.8 L 298.2,154.3 M 157.3,290.0 L 160.3,314.9 M 160.3,314.9 L 246.8,304.5 M 246.8,304.5 L 243.8,279.6 M 243.8,279.6 L 157.3,290.0 M 170.4,280.6 L 136.4,273.0 M 124.2,296.6 L 167.9,305.5 M 167.9,305.5 L 170.4,280.6 M 240.8,197.9 L 271.4,195.0 M 271.4,195.0 L 272.0,184.4 M 272.0,184.4 L 249.3,184.1 M 227.9,160.4 L 240.7,160.0 M 202.5,126.2 L 199.1,131.4 M 188.9,255.0 L 199.7,254.3 M 199.7,254.3 L 201.3,251.3 M 181.0,222.1 L 154.4,222.8 M 273.3,90.7 L 214.3,80.4" fill="none" stroke="white" stroke-width="2" stroke-linecap="round"/>
  <polygon points="110.17474433615861,306.75956347972266 118.17474433615861,314.75956347972266 110.17474433615861,322.75956347972266 102.17474433615861,314.75956347972266" fill="#4a9eff" stroke="white" stroke-width="1"/>
<polygon points="246.48567929597775,64.8643249963356 254.48567929597775,72.8643249963356 246.48567929597775,80.8643249963356 238.48567929597775,72.8643249963356" fill="#4a9eff" stroke="white" stroke-width="1"/>
</svg>