<svg xmlns="http://www.w3.org/2000/svg" viewBox="0 0 400 400">
  <rect width="400" height="400" fill="#1a1a2e"/>
  <path d="M 127.2,380.0 L 127.2,302.2 L 89.2,380.0 Z M 127.2,302.2 L 89.2,294.3 L 89.2,380.0 Z M 271.9,20.0 L 233.8,20.0 L 233.8,91.8 Z M 271.9,20.0 L 233.8,91.8 L 271.9,91.8 Z M 167.0,57.6 L 167.5,47.7 L 123.2,47.7 Z M 167.0,57.6 L 123.2,47.7 L 122.6,57.6 Z M 107.5,135.3 L 158.5,102.9 L 153.2,78.5 Z M 107.5,135.3 L 153.2,78.5 L 93.8,116.3 Z M 150.4,160.9 L 93.8,139.6 L 85.3,160.8 Z M 150.4,160.9 L 85.3,160.8 L 142.2,182.6 Z M 153.5,222.7 L 172.9,165.4 L 151.4,157.6 Z M 153.5,222.7 L 151.4,157.6 L 131.5,215.2 Z M 253.4,253.6 L 225.3,284.7 L 228.1,319.5 Z M 253.4,253.6 L 228.1,319.5 L 287.1,254.1 Z M 281.3,221.8 L 162.0,204.6 L 158.2,227.2 Z M 281.3,221.8 L 158.2,227.2 L 278.0,244.8 Z M 34.9,234.0 L 20.0,237.7 L 31.0,280.7 Z M 34.9,234.0 L 31.0,280.7 L 45.9,277.0 Z M 326.3,121.0 L 311.3,124.7 L 322.3,167.7 Z M 326.3,121.0 L 322.3,167.7 L 337.2,164.0 Z M 287.1,254.1 L 268.3,237.1 L 253.4,253.6 Z M 225.3,284.7 L 209.3,302.5 L 228.1,319.5 Z M 161.5,108.9 L 163.7,117.6 L 208.1,117.5 Z M 92.5,146.0 L 92.6,166.3 L 180.6,166.5 Z M 92.5,146.0 L 180.6,166.5 L 133.8,144.1 Z M 133.8,144.1 L 180.6,166.5 L 153.3,140.9 Z M 133.8,144.1 L 153.3,140.9 L 133.7,142.1 Z M 180.6,166.5 L 180.4,171.9 L 193.7,171.0 Z M 180.6,166.5 L 193.7,171.0 L 273.9,156.8 Z M 273.9,156.8 L 193.7,171.0 L 194.3,175.5 Z M 273.9,156.8 L 194.3,175.5 L 235.2,171.7 Z M 154.4,138.0 L 153.3,140.9 L 180.6,166.5 Z M 154.4,138.0 L 180.6,166.5 L 180.6,137.4 Z M 180.6,137.4 L 180.6,166.5 L 198.5,132.8 Z M 180.6,137.4 L 198.5,132.8 L 184.6,132.3 Z M 188.1,257.9 L 199.1,257.2 L 200.7,254.1 Z M 188.1,257.9 L 200.7,254.1 L 180.1,224.6 Z M 180.1,224.6 L 200.7,254.1 L 253.4,253.6 Z M 180.1,224.6 L 253.4,253.6 L 268.3,237.1 Z M 188.8,263.0 L 188.1,257.9 L 153.2,225.3 Z M 188.8,263.0 L 153.2,225.3 L 180.4,263.2 Z M 180.4,263.2 L 153.2,225.3 L 152.5,228.6 Z M 180.4,263.2 L 152.5,228.6 L 180.5,273.6 Z M 180.5,273.6 L 152.5,228.6 L 146.2,229.3 Z M 180.5,273.6 L 146.2,229.3 L 146.7,233.9 Z M 180.5,273.6 L 146.7,233.9 L 86.5,234.4 Z M 180.5,273.6 L 86.5,234.4 L 155.7,273.6 Z M 159.6,278.4 L 180.6,287.7 L 180.7,278.7 Z M 180.3,215.9 L 180.8,210.9 L 133.3,210.7 Z M 180.3,215.9 L 133.3,210.7 L 88.6,216.3 Z M 88.6,216.3 L 133.3,210.7 L 132.6,204.6 Z M 88.6,216.3 L 132.6,204.6 L 91.3,204.5 Z M 209.1,104.6 L 253.5,114.6 L 213.9,81.2 Z M 253.5,114.6 L 273.6,91.6 L 213.9,81.2 Z M 253.5,114.6 L 271.8,152.5 L 273.6,91.6 Z M 271.8,152.5 L 298.8,155.9 L 273.6,91.6 Z M 135.0,276.1 L 100.5,268.4 L 122.7,300.0 Z M 100.5,268.4 L 78.4,291.0 L 122.7,300.0 Z M 78.4,291.0 L 100.5,268.4 L 62.5,227.9 Z M 100.5,268.4 L 89.4,223.2 L 62.5,227.9 Z M 201.9,127.5 L 198.5,132.8 L 273.9,156.8 Z M 198.5,132.8 L 180.6,166.5 L 273.9,156.8 Z M 225.3,284.7 L 180.6,287.7 L 209.3,302.5 Z M 153.2,78.5 L 158.5,102.9 L 209.1,104.6 Z M 153.2,78.5 L 209.1,104.6 L 213.9,81.2 Z M 246.7,308.0 L 243.7,282.8 L 156.2,293.3 Z M 246.7,308.0 L 156.2,293.3 L 159.2,318.5 Z M 122.7,300.0 L 166.9,309.0 L 169.4,283.8 Z M 122.7,300.0 L 169.4,283.8 L 135.0,276.1 Z M 298.8,155.9 L 271.8,152.5 L 268.8,176.4 Z M 298.8,155.9 L 268.8,176.4 L 296.1,179.7 Z M 235.9,176.3 L 273.0,172.4 L 273.9,156.8 Z M 235.9,176.3 L 273.9,156.8 L 235.2,171.7 Z M 207.1,122.7 L 202.0,122.7 L 201.9,127.5 Z M 207.1,122.7 L 201.9,127.5 L 273.9,156.8 Z M 268.3,237.1 L 269.7,225.1 L 180.3,215.9 Z M 268.3,237.1 L 180.3,215.9 L 180.1,224.6 Z M 273.9,156.8 L 208.1,117.5 L 207.1,122.7 Z M 188.1,257.9 L 180.1,224.6 L 153.2,225.3 Z M 180.3,215.9 L 269.7,225.1 L 180.8,210.9 Z" fill="#2a2a4e" stroke="none"/>
  <path d="M 127.2,380.0 L 127.2,302.2 M 89.2,380.0 L 127.2,380.0 M 127.2,302.2 L 89.2,294.3 M 89.2,294.3 L 89.2,380.0 M 271.9,20.0 L 233.8,20.0 M 233.8,20.0 L 233.8,91.8 M 233.8,91.8 L 271.9,91.8 M 271.9,91.8 L 271.9,20.0 M 167.0,57.6 L 167.5,47.7 M 167.5,47.7 L 123.2,47.7 M 123.2,47.7 L 122.6,57.6 M 122.6,57.6 L 167.0,57.6 M 107.5,135.3 L 158.5,102.9 M 153.2,78.5 L 93.8,116.3 M 93.8,116.3 L 107.5,135.3 M 150.4,160.9 L 93.8,139.6 M 93.8,139.6 L 85.3,160.8 M 85.3,160.8 L 142.2,182.6 M 142.2,182.6 L 150.4,160.9 M 153.5,222.7 L 172.9,165.4 M 172.9,165.4 L 151.4,157.6 M 151.4,157.6 L 131.5,215.2 M 131.5,215.2 L 153.5,222.7 M 253.4,253.6 L 225.3,284.7 M 228.1,319.5 L 287.1,254.1 M 281.3,221.8 L 162.0,204.6 M 162.0,204.6 L 158.2,227.2 M 158.2,227.2 L 278.0,244.8 M 278.0,244.8 L 281.3,221.8 M 34.9,234.0 L 20.0,237.7 M 20.0,237.7 L 31.0,280.7 M 31.0,280.7 L 45.9,277.0 M 45.9,277.0 L 34.9,234.0 M 326.3,121.0 L 311.3,124.7 M 311.3,124.7 L 322.3,167.7 M 322.3,167.7 L 337.2,164.0 M 337.2,164.0 L 326.3,121.0 M 287.1,254.1 L 268.3,237.1 M 209.3,302.5 L 228.1,319.5 M 161.5,108.9 L 163.7,117.6 M 163.7,117.6 L 208.1,117.5 M 208.1,117.5 L 161.5,108.9 M 92.5,146.0 L 92.6,166.3 M 92.6,166.3 L 180.6,166.5 M 133.8,144.1 L 92.5,146.0 M 153.3,140.9 L 133.7,142.1 M 133.7,142.1 L 133.8,144.1 M 180.6,166.5 L 180.4,171.9 M 180.4,171.9 L 193.7,171.0 M 193.7,171.0 L 194.3,175.5 M 194.3,175.5 L 235.2,171.7 M 154.4,138.0 L 153.3,140.9 M 180.6,137.4 L 154.4,138.0 M 198.5,132.8 L 184.6,132.3 M 184.6,132.3 L 180.6,137.4 M 188.1,257.9 L 199.1,257.2 M 199.1,257.2 L 200.7,254.1 M 200.7,254.1 L 253.4,253.6 M 188.8,263.0 L 188.1,257.9 M 180.4,263.2 L 188.8,263.0 M 153.2,225.3 L 152.5,228.6 M 180.5,273.6 L 180.4,263.2 M 152.5,228.6 L 146.2,229.3 M 146.2,229.3 L 146.7,233.9 M 146.7,233.9 L 86.5,234.4 M 86.5,234.4 L 155.7,273.6 M 155.7,273.6 L 180.5,273.6 M 159.6,278.4 L 180.6,287.7 M 180.6,287.7 L 180.7,278.7 M 180.7,278.7 L 159.6,278.4 M 180.8,210.9 L 133.3,210.7 M 88.6,216.3 L 180.3,215.9 M 133.3,210.7 L 132.6,204.6 M 132.6,204.6 L 91.3,204.5 M 91.3,204.5 L 88.6,216.3 M 209.1,104.6 L 253.5,114.6 M 273.6,91.6 L 213.9,81.2 M 253.5,114.6 L 271.8,152.5 M 298.8,155.9 L 273.6,91.6 M 135.0,276.1 L 100.5,268.4 M 78.4,291.0 L 122.7,300.0 M 62.5,227.9 L 78.4,291.0 M 100.5,268.4 L 89.4,223.2 M 89.4,223.2 L 62.5,227.9 M 201.9,127.5 L 198.5,132.8 M 225.3,284.7 L 180.6,287.7 M 180.6,287.7 L 209.3,302.5 M 158.5,102.9 L 209.1,104.6 M 213.9,81.2 L 153.2,78.5 M 246.7,308.0 L 243.7,282.8 M 243.7,282.8 L 156.2,293.3 M 156.2,293.3 L 159.2,318.5 M 159.2,318.5 L 246.7,308.0 M 122.7,300.0 L 166.9,309.0 M 166.9,309.0 L 169.4,283.8 M 169.4,283.8 L 135.0,276.1 M 271.8,152.5 L 268.8,176.4 M 268.8,176.4 L 296.1,179.7 M 296.1,179.7 L 298.8,155.9 M 235.9,176.3 L 273.0,172.4 M 273.0,172.4 L 273.9,156.8 M 235.2,171.7 L 235.9,176.3 M 207.1,122.7 L 202.0,122.7 M 202.0,122.7 L 201.9,127.5 M 268.3,237.1 L 269.7,225.1 M 180.3,215.9 L 180.1,224.6 M 273.9,156.8 L 208.1,117.5 M 208.1,117.5 L 207.1,122.7 M 180.1,224.6 L 153.2,225.3 M 269.7,225.1 L 180.8,210.9" fill="none" stroke="white" stroke-width="2" stroke-linecap="round"/>
  <polygon points="109.70079008820315,317.86036015782713 117.70079008820315,325.86036015782713 109.70079008820315,333.86036015782713 101.70079008820315,325.86036015782713" fill="#4a9eff" stroke="white" stroke-width="1"/>
<polygon points="252.3251344213089,56.855367891243645 260.3251344213089,64.85536789124365 252.3251344213089,72.85536789124365 244.3251344213089,64.85536789124365" fill="#4a9eff" stroke="white" stroke-width="1"/>
</svg>