<svg xmlns="http://www.w3.org/2000/svg" viewBox="0 0 400 400">
  <rect width="400" height="400" fill="#1a1a2e"/>
  <path d="M 63.1,215.8 L 74.5,227.3 L 106.1,227.3 Z M 63.1,215.8 L 106.1,227.3 L 63.1,184.2 Z M 63.1,184.2 L 106.1,227.3 L 106.1,172.7 Z M 63.1,184.2 L 106.1,172.7 L 74.5,172.7 Z M 106.1,227.3 L 117.6,215.8 L 117.6,184.2 Z M 106.1,227.3 L 117.6,184.2 L 106.1,172.7 Z M 80.1,253.4 L 76.2,239.7 L 62.6,243.5 Z M 80.1,253.4 L 62.6,243.5 L 66.4,257.2 Z M 41.3,240.7 L 49.7,229.2 L 38.3,220.8 Z M 41.3,240.7 L 38.3,220.8 L 29.8,232.2 Z M 83.9,191.5 L 81.9,189.6 L 83.3,188.3 Z M 83.9,191.5 L 83.3,188.3 L 86.2,190.0 Z M 81.0,188.1 L 83.3,188.3 L 81.9,189.6 Z M 80.0,188.2 L 80.9,188.6 L 81.5,188.1 Z M 80.0,188.2 L 81.5,188.1 L 81.1,187.2 Z M 81.8,198.5 L 79.4,198.6 L 77.8,197.0 Z M 63.1,215.8 L 63.1,184.2 L 47.3,184.2 Z M 63.1,215.8 L 47.3,184.2 L 47.3,215.8 Z M 47.3,215.8 L 47.3,184.2 L 31.5,184.2 Z M 47.3,215.8 L 31.5,184.2 L 31.5,215.8 Z M 106.1,227.3 L 74.5,227.3 L 74.5,243.0 Z M 106.1,227.3 L 74.5,243.0 L 106.1,243.0 Z M 106.1,243.0 L 74.5,243.0 L 74.5,258.8 Z M 106.1,243.0 L 74.5,258.8 L 106.1,258.8 Z M 133.4,215.8 L 133.4,184.2 L 117.6,184.2 Z M 133.4,215.8 L 117.6,184.2 L 117.6,215.8 Z M 106.1,156.9 L 74.5,156.9 L 74.5,172.7 Z M 106.1,156.9 L 74.5,172.7 L 106.1,172.7 Z M 149.2,184.2 L 133.4,184.2 L 133.4,215.8 Z M 149.2,184.2 L 133.4,215.8 L 149.2,215.8 Z M 74.5,141.1 L 74.5,156.9 L 106.1,156.9 Z M 74.5,141.1 L 106.1,156.9 L 106.1,141.1 Z M 59.4,270.3 L 35.0,270.3 L 35.0,340.6 Z M 59.4,270.3 L 35.0,340.6 L 59.4,340.6 Z M 90.0,380.0 L 59.4,340.6 L 35.0,340.6 Z M 90.0,380.0 L 35.0,340.6 L 65.6,380.0 Z M 121.6,129.6 L 145.9,129.6 L 145.9,59.4 Z M 121.6,129.6 L 145.9,59.4 L 121.6,59.4 Z M 90.9,20.0 L 121.6,59.4 L 145.9,59.4 Z M 90.9,20.0 L 145.9,59.4 L 115.3,20.0 Z M 121.2,250.9 L 125.5,255.3 L 141.3,255.3 Z M 121.2,250.9 L 141.3,255.3 L 121.2,235.1 Z M 121.2,235.1 L 141.3,255.3 L 145.6,250.9 Z M 121.2,235.1 L 145.6,250.9 L 125.5,230.9 Z M 125.5,230.9 L 145.6,250.9 L 145.6,235.1 Z M 125.5,230.9 L 145.6,235.1 L 141.3,230.9 Z M 121.2,164.8 L 125.5,169.1 L 141.3,169.1 Z M 121.2,164.8 L 141.3,169.1 L 121.2,149.0 Z M 121.2,149.0 L 141.3,169.1 L 145.6,164.8 Z M 121.2,149.0 L 145.6,164.8 L 125.5,144.7 Z M 125.5,144.7 L 145.6,164.8 L 145.6,149.0 Z M 125.5,144.7 L 145.6,149.0 L 141.3,144.7 Z M 35.1,164.8 L 39.4,169.1 L 55.2,169.1 Z M 35.1,164.8 L 55.2,169.1 L 35.1,149.0 Z M 35.1,149.0 L 55.2,169.1 L 59.5,164.8 Z M 35.1,149.0 L 59.5,164.8 L 39.4,144.7 Z M 39.4,144.7 L 59.5,164.8 L 59.5,149.0 Z M 39.4,144.7 L 59.5,149.0 L 55.2,144.7 Z M 59.5,235.1 L 55.2,230.9 L 39.4,230.9 Z M 59.5,235.1 L 39.4,230.9 L 59.5,250.9 Z M 59.5,250.9 L 39.4,230.9 L 35.1,235.1 Z M 59.5,250.9 L 35.1,235.1 L 55.2,255.3 Z M 55.2,255.3 L 35.1,235.1 L 35.1,250.9 Z M 55.2,255.3 L 35.1,250.9 L 39.4,255.3 Z M 145.6,250.9 L 160.7,258.8 L 160.7,227.3 Z M 145.6,250.9 L 160.7,227.3 L 145.6,235.1 Z M 160.7,227.3 L 149.2,215.8 L 141.3,230.9 Z M 160.7,227.3 L 141.3,230.9 L 145.6,235.1 Z M 125.5,230.9 L 117.6,215.8 L 106.1,227.3 Z M 125.5,230.9 L 106.1,227.3 L 121.2,235.1 Z M 121.2,250.9 L 121.2,235.1 L 106.1,227.3 Z M 121.2,250.9 L 106.1,227.3 L 106.1,243.0 Z M 121.2,250.9 L 106.1,258.8 L 117.6,270.3 Z M 121.2,250.9 L 117.6,270.3 L 125.5,255.3 Z M 125.5,255.3 L 117.6,270.3 L 149.2,270.3 Z M 125.5,255.3 L 149.2,270.3 L 141.3,255.3 Z M 149.2,270.3 L 160.7,258.8 L 145.6,250.9 Z M 149.2,270.3 L 145.6,250.9 L 141.3,255.3 Z M 145.6,149.0 L 145.6,164.8 L 160.7,172.7 Z M 145.6,149.0 L 160.7,172.7 L 160.7,141.1 Z M 160.7,141.1 L 149.2,129.6 L 141.3,144.7 Z M 160.7,141.1 L 141.3,144.7 L 145.6,149.0 Z M 141.3,144.7 L 149.2,129.6 L 117.6,129.6 Z M 141.3,144.7 L 117.6,129.6 L 125.5,144.7 Z M 106.1,141.1 L 121.2,149.0 L 125.5,144.7 Z M 106.1,141.1 L 125.5,144.7 L 117.6,129.6 Z M 121.2,164.8 L 106.1,172.7 L 117.6,184.2 Z M 121.2,164.8 L 117.6,184.2 L 125.5,169.1 Z M 149.2,184.2 L 141.3,169.1 L 125.5,169.1 Z M 149.2,184.2 L 125.5,169.1 L 133.4,184.2 Z M 145.6,164.8 L 141.3,169.1 L 149.2,184.2 Z M 145.6,164.8 L 149.2,184.2 L 160.7,172.7 Z M 74.5,141.1 L 63.1,129.6 L 55.2,144.7 Z M 74.5,141.1 L 55.2,144.7 L 59.5,149.0 Z M 55.2,144.7 L 63.1,129.6 L 31.5,129.6 Z M 55.2,144.7 L 31.5,129.6 L 39.4,144.7 Z M 39.4,144.7 L 31.5,129.6 L 20.0,141.1 Z M 39.4,144.7 L 20.0,141.1 L 35.1,149.0 Z M 35.1,149.0 L 20.0,141.1 L 20.0,172.7 Z M 35.1,149.0 L 20.0,172.7 L 35.1,164.8 Z M 35.1,164.8 L 20.0,172.7 L 31.5,184.2 Z M 35.1,164.8 L 31.5,184.2 L 39.4,169.1 Z M 63.1,184.2 L 74.5,172.7 L 59.5,164.8 Z M 63.1,184.2 L 59.5,164.8 L 55.2,169.1 Z M 74.5,227.3 L 59.5,235.1 L 59.5,250.9 Z M 74.5,227.3 L 59.5,250.9 L 74.5,243.0 Z M 74.5,227.3 L 63.1,215.8 L 55.2,230.9 Z M 74.5,227.3 L 55.2,230.9 L 59.5,235.1 Z M 20.0,227.3 L 35.1,235.1 L 39.4,230.9 Z M 20.0,227.3 L 39.4,230.9 L 31.5,215.8 Z M 35.1,235.1 L 20.0,227.3 L 20.0,258.8 Z M 35.1,235.1 L 20.0,258.8 L 35.1,250.9 Z M 35.1,250.9 L 20.0,258.8 L 31.5,270.3 Z M 35.1,250.9 L 31.5,270.3 L 39.4,255.3 Z M 39.4,255.3 L 31.5,270.3 L 63.1,270.3 Z M 39.4,255.3 L 63.1,270.3 L 55.2,255.3 Z M 59.5,250.9 L 55.2,255.3 L 63.1,270.3 Z M 59.5,250.9 L 63.1,270.3 L 74.5,258.8 Z M 39.4,230.9 L 55.2,230.9 L 63.1,215.8 Z M 39.4,230.9 L 63.1,215.8 L 47.3,215.8 Z M 106.1,156.9 L 121.2,164.8 L 121.2,149.0 Z M 106.1,156.9 L 121.2,149.0 L 106.1,141.1 Z M 39.4,169.1 L 47.3,184.2 L 63.1,184.2 Z M 39.4,169.1 L 63.1,184.2 L 55.2,169.1 Z M 141.3,230.9 L 133.4,215.8 L 117.6,215.8 Z M 141.3,230.9 L 117.6,215.8 L 125.5,230.9 Z M 59.5,164.8 L 74.5,156.9 L 74.5,141.1 Z M 59.5,164.8 L 74.5,141.1 L 59.5,149.0 Z M 141.3,230.9 L 149.2,215.8 L 133.4,215.8 Z M 121.2,164.8 L 106.1,156.9 L 106.1,172.7 Z M 59.5,164.8 L 74.5,172.7 L 74.5,156.9 Z M 39.4,169.1 L 31.5,184.2 L 47.3,184.2 Z M 39.4,230.9 L 47.3,215.8 L 31.5,215.8 Z M 106.1,243.0 L 106.1,258.8 L 121.2,250.9 Z M 59.5,250.9 L 74.5,258.8 L 74.5,243.0 Z M 125.5,169.1 L 117.6,184.2 L 133.4,184.2 Z" fill="#2a2a4e" stroke="none"/>
  <path d="M 80.1,253.4 L 76.2,239.7 M 76.2,239.7 L 62.6,243.5 M 62.6,243.5 L 66.4,257.2 M 66.4,257.2 L 80.1,253.4 M 41.3,240.7 L 49.7,229.2 M 49.7,229.2 L 38.3,220.8 M 38.3,220.8 L 29.8,232.2 M 29.8,232.2 L 41.3,240.7 M 83.9,191.5 L 81.9,189.6 M 83.3,188.3 L 86.2,190.0 M 86.2,190.0 L 83.9,191.5 M 81.0,188.1 L 83.3,188.3 M 81.9,189.6 L 81.0,188.1 M 80.0,188.2 L 80.9,188.6 M 80.9,188.6 L 81.5,188.1 M 81.5,188.1 L 81.1,187.2 M 81.1,187.2 L 80.0,188.2 M 81.8,198.5 L 79.4,198.6 M 79.4,198.6 L 77.8,197.0 M 77.8,197.0 L 81.8,198.5 M 31.5,184.2 L 31.5,215.8 M 74.5,258.8 L 106.1,258.8 M 149.2,215.8 L 149.2,184.2 M 106.1,141.1 L 74.5,141.1 M 59.4,270.3 L 35.0,270.3 M 35.0,270.3 L 35.0,340.6 M 59.4,340.6 L 59.4,270.3 M 90.0,380.0 L 59.4,340.6 M 35.0,340.6 L 65.6,380.0 M 65.6,380.0 L 90.0,380.0 M 121.6,129.6 L 145.9,129.6 M 145.9,129.6 L 145.9,59.4 M 121.6,59.4 L 121.6,129.6 M 90.9,20.0 L 121.6,59.4 M 145.9,59.4 L 115.3,20.0 M 115.3,20.0 L 90.9,20.0 M 160.7,258.8 L 160.7,227.3 M 160.7,227.3 L 149.2,215.8 M 106.1,258.8 L 117.6,270.3 M 117.6,270.3 L 149.2,270.3 M 149.2,270.3 L 160.7,258.8 M 160.7,172.7 L 160.7,141.1 M 160.7,141.1 L 149.2,129.6 M 149.2,129.6 L 117.6,129.6 M 117.6,129.6 L 106.1,141.1 M 149.2,184.2 L 160.7,172.7 M 74.5,141.1 L 63.1,129.6 M 63.1,129.6 L 31.5,129.6 M 31.5,129.6 L 20.0,141.1 M 20.0,141.1 L 20.0,172.7 M 20.0,172.7 L 31.5,184.2 M 31.5,215.8 L 20.0,227.3 M 20.0,227.3 L 20.0,258.8 M 20.0,258.8 L 31.5,270.3 M 31.5,270.3 L 63.1,270.3 M 63.1,270.3 L 74.5,258.8" fill="none" stroke="white" stroke-width="2" stroke-linecap="round"/>
  <polygon points="48.743148036450584,265.8727336915399 56.743148036450584,273.8727336915399 48.743148036450584,281.8727336915399 40.743148036450584,273.8727336915399" fill="#4a9eff" stroke="white" stroke-width="1"/>
<polygon points="134.49815018980527,121.87477301101143 142.49815018980527,129.87477301101143 134.49815018980527,137.87477301101143 126.49815018980527,129.87477301101143" fill="#4a9eff" stroke="white" stroke-width="1"/>
</svg>