<svg xmlns="http://www.w3.org/2000/svg" viewBox="0 0 400 400">
  <rect width="400" height="400" fill="#1a1a2e"/>
  <path d="M 125.4,20.0 L 160.9,107.3 L 239.1,107.4 Z M 125.4,20.0 L 239.1,107.4 L 274.5,20.0 Z M 274.5,20.0 L 239.1,107.4 L 292.7,160.9 Z M 274.5,20.0 L 292.7,160.9 L 380.0,125.4 Z M 274.6,380.0 L 380.0,274.5 L 292.6,239.1 Z M 274.6,380.0 L 292.6,239.1 L 239.1,292.7 Z M 125.5,380.0 L 274.6,380.0 L 239.1,292.7 Z M 125.5,380.0 L 239.1,292.7 L 160.9,292.6 Z M 20.0,274.6 L 125.5,380.0 L 160.9,292.6 Z M 20.0,274.6 L 160.9,292.6 L 107.3,239.1 Z M 20.0,125.5 L 20.0,274.6 L 107.3,239.1 Z M 20.0,125.5 L 107.3,239.1 L 107.4,160.9 Z M 125.4,20.0 L 20.0,125.5 L 107.4,160.9 Z M 125.4,20.0 L 107.4,160.9 L 160.9,107.3 Z M 380.0,274.5 L 380.0,125.4 L 292.7,160.9 Z M 380.0,274.5 L 292.7,160.9 L 292.6,239.1 Z M 230.1,107.7 L 229.1,100.5 L 186.6,99.1 Z M 230.1,107.7 L 186.6,99.1 L 188.8,108.0 Z M 352.8,131.0 L 363.1,128.8 L 354.0,97.1 Z M 352.8,131.0 L 354.0,97.1 L 345.6,99.4 Z" fill="#2a2a4e" stroke="none"/>
  <path d="M 160.9,107.3 L 239.1,107.4 M 274.5,20.0 L 125.4,20.0 M 239.1,107.4 L 292.7,160.9 M 380.0,125.4 L 274.5,20.0 M 274.6,380.0 L 380.0,274.5 M 292.6,239.1 L 239.1,292.7 M 125.5,380.0 L 274.6,380.0 M 239.1,292.7 L 160.9,292.6 M 20.0,274.6 L 125.5,380.0 M 160.9,292.6 L 107.3,239.1 M 20.0,125.5 L 20.0,274.6 M 107.3,239.1 L 107.4,160.9 M 125.4,20.0 L 20.0,125.5 M 107.4,160.9 L 160.9,107.3 M 380.0,274.5 L 380.0,125.4 M 292.7,160.9 L 292.6,239.1 M 230.1,107.7 L 229.1,100.5 M 229.1,100.5 L 186.6,99.1 M 186.6,99.1 L 188.8,108.0 M 188.8,108.0 L 230.1,107.7 M 352.8,131.0 L 363.1,128.8 M 363.1,128.8 L 354.0,97.1 M 354.0,97.1 L 345.6,99.4 M 345.6,99.4 L 352.8,131.0" fill="none" stroke="white" stroke-width="2" stroke-linecap="round"/>
  
</svg>