<svg xmlns="http://www.w3.org/2000/svg" viewBox="0 0 400 400">
  <rect width="400" height="400" fill="#1a1a2e"/>
  <path d="M 144.9,380.0 L 179.7,380.0 L 179.7,316.1 Z M 144.9,380.0 L 179.7,316.1 L 144.9,316.1 Z M 144.9,83.9 L 179.7,83.9 L 179.7,20.0 Z M 144.9,83.9 L 179.7,20.0 L 144.9,20.0 Z M 175.3,303.4 L 166.6,228.8 L 145.3,248.0 Z M 175.3,303.4 L 145.3,248.0 L 151.1,303.6 Z M 151.1,303.6 L 145.3,248.0 L 109.6,258.5 Z M 151.1,303.6 L 109.6,258.5 L 109.6,280.1 Z M 150.5,96.4 L 166.5,168.4 L 187.9,168.3 Z M 150.5,96.4 L 187.9,168.3 L 175.9,96.4 Z M 191.1,229.6 L 166.6,228.8 L 198.6,278.6 Z M 191.1,229.6 L 198.6,278.6 L 223.8,269.6 Z M 100.6,117.7 L 133.6,130.3 L 150.5,96.4 Z M 100.6,117.7 L 150.5,96.4 L 96.4,96.4 Z M 187.9,168.3 L 205.5,115.2 L 175.9,96.4 Z M 133.6,130.3 L 166.5,168.4 L 150.5,96.4 Z M 166.6,228.8 L 175.3,303.4 L 198.6,278.6 Z M 175.9,96.4 L 179.7,83.9 L 144.9,83.9 Z M 175.9,96.4 L 144.9,83.9 L 150.5,96.4 Z M 150.5,96.4 L 144.9,83.9 L 81.0,83.9 Z M 150.5,96.4 L 81.0,83.9 L 96.4,96.4 Z M 245.8,276.5 L 223.8,269.6 L 198.6,278.6 Z M 245.8,276.5 L 198.6,278.6 L 210.3,285.9 Z M 210.3,285.9 L 198.6,278.6 L 175.3,303.4 Z M 210.3,285.9 L 175.3,303.4 L 179.7,316.1 Z M 179.7,316.1 L 175.3,303.4 L 151.1,303.6 Z M 179.7,316.1 L 151.1,303.6 L 144.9,316.1 Z M 144.9,316.1 L 151.1,303.6 L 109.6,280.1 Z M 144.9,316.1 L 109.6,280.1 L 95.8,288.4 Z M 166.6,228.8 L 162.3,217.4 L 136.5,238.8 Z M 166.6,228.8 L 136.5,238.8 L 145.3,248.0 Z M 145.3,248.0 L 136.5,238.8 L 96.3,251.5 Z M 145.3,248.0 L 96.3,251.5 L 109.6,258.5 Z M 205.5,115.2 L 187.9,168.3 L 197.2,181.0 Z M 205.5,115.2 L 197.2,181.0 L 220.3,109.5 Z M 175.9,96.4 L 205.5,115.2 L 220.3,109.5 Z M 175.9,96.4 L 220.3,109.5 L 179.7,83.9 Z M 88.6,124.1 L 100.6,117.7 L 96.4,96.4 Z M 88.6,124.1 L 96.4,96.4 L 81.0,83.9 Z M 109.6,258.5 L 96.3,251.5 L 95.8,288.4 Z M 109.6,258.5 L 95.8,288.4 L 109.6,280.1 Z M 166.6,228.8 L 191.1,229.6 L 197.2,217.4 Z M 166.6,228.8 L 197.2,217.4 L 162.3,217.4 Z M 197.2,217.4 L 191.1,229.6 L 223.8,269.6 Z M 197.2,217.4 L 223.8,269.6 L 245.8,276.5 Z M 162.3,181.0 L 197.2,181.0 L 187.9,168.3 Z M 162.3,181.0 L 187.9,168.3 L 166.5,168.4 Z M 88.6,124.1 L 125.5,138.0 L 133.6,130.3 Z M 88.6,124.1 L 133.6,130.3 L 100.6,117.7 Z M 162.3,181.0 L 166.5,168.4 L 133.6,130.3 Z M 162.3,181.0 L 133.6,130.3 L 125.5,138.0 Z M 81.0,316.1 L 144.9,316.1 L 95.8,288.4 Z M 81.0,316.1 L 95.8,288.4 L 46.2,287.1 Z M 46.2,287.1 L 95.8,288.4 L 96.3,251.5 Z M 46.2,287.1 L 96.3,251.5 L 20.0,236.4 Z M 179.7,316.1 L 243.6,316.1 L 210.3,285.9 Z M 243.6,316.1 L 245.8,276.5 L 210.3,285.9 Z M 179.7,83.9 L 220.3,109.5 L 243.6,83.9 Z M 220.3,109.5 L 278.4,112.9 L 243.6,83.9 Z M 278.4,112.9 L 220.3,109.5 L 278.4,150.5 Z M 220.3,109.5 L 197.2,181.0 L 278.4,150.5 Z M 162.3,181.0 L 162.3,217.4 L 197.2,217.4 Z M 162.3,181.0 L 197.2,217.4 L 197.2,181.0 Z" fill="#2a2a4e" stroke="none"/>
  <path d="M 144.9,380.0 L 179.7,380.0 M 179.7,380.0 L 179.7,316.1 M 144.9,316.1 L 144.9,380.0 M 179.7,83.9 L 179.7,20.0 M 179.7,20.0 L 144.9,20.0 M 144.9,20.0 L 144.9,83.9 M 144.9,83.9 L 81.0,83.9 M 162.3,217.4 L 136.5,238.8 M 136.5,238.8 L 96.3,251.5 M 81.0,83.9 L 88.6,124.1 M 245.8,276.5 L 197.2,217.4 M 88.6,124.1 L 125.5,138.0 M 125.5,138.0 L 162.3,181.0 M 81.0,316.1 L 144.9,316.1 M 46.2,287.1 L 81.0,316.1 M 96.3,251.5 L 20.0,236.4 M 20.0,236.4 L 46.2,287.1 M 179.7,316.1 L 243.6,316.1 M 243.6,316.1 L 245.8,276.5 M 243.6,83.9 L 179.7,83.9 M 278.4,112.9 L 243.6,83.9 M 278.4,150.5 L 278.4,112.9 M 197.2,181.0 L 278.4,150.5 M 162.3,181.0 L 162.3,217.4 M 197.2,217.4 L 197.2,181.0" fill="none" stroke="white" stroke-width="2" stroke-linecap="round"/>
  <polygon points="161.46649927627465,310.70721929816455 169.46649927627465,318.70721929816455 161.46649927627465,326.70721929816455 153.46649927627465,318.70721929816455" fill="#4a9eff" stroke="white" stroke-width="1"/>
<polygon points="162.48487099092785,73.11293159217938 170.48487099092785,81.11293159217938 162.48487099092785,89.11293159217938 154.48487099092785,81.11293159217938" fill="#4a9eff" stroke="white" stroke-width="1"/>
</svg>