<svg xmlns="http://www.w3.org/2000/svg" viewBox="0 0 400 400">
  <rect width="400" height="400" fill="#1a1a2e"/>
  <path d="M 144.9,380.0 L 179.7,380.0 L 179.7,316.1 Z M 144.9,380.0 L 179.7,316.1 L 144.9,316.1 Z M 144.9,83.9 L 179.7,83.9 L 179.7,20.0 Z M 144.9,83.9 L 179.7,20.0 L 144.9,20.0 Z M 195.0,105.4 L 171.7,98.1 L 150.5,96.9 Z M 195.0,105.4 L 150.5,96.9 L 210.0,138.4 Z M 210.0,138.4 L 150.5,96.9 L 99.9,97.5 Z M 210.0,138.4 L 99.9,97.5 L 108.8,122.1 Z M 214.2,180.7 L 256.0,175.8 L 210.0,138.4 Z M 214.2,180.7 L 210.0,138.4 L 190.3,154.1 Z M 190.3,154.1 L 210.0,138.4 L 108.8,122.1 Z M 190.3,154.1 L 108.8,122.1 L 150.0,169.7 Z M 150.0,169.7 L 108.8,122.1 L 90.2,155.6 Z M 150.0,169.7 L 90.2,155.6 L 118.3,175.2 Z M 215.6,290.4 L 220.9,274.9 L 193.7,231.4 Z M 215.6,290.4 L 193.7,231.4 L 175.3,303.4 Z M 175.3,303.4 L 193.7,231.4 L 134.3,214.9 Z M 175.3,303.4 L 134.3,214.9 L 151.1,303.6 Z M 151.1,303.6 L 134.3,214.9 L 107.8,255.0 Z M 151.1,303.6 L 107.8,255.0 L 107.3,280.8 Z M 118.3,175.2 L 134.3,214.9 L 150.0,169.7 Z M 99.7,231.4 L 105.5,204.5 L 76.2,198.1 Z M 99.7,231.4 L 76.2,198.1 L 70.3,225.0 Z M 106.2,248.1 L 49.4,263.6 L 67.5,319.6 Z M 106.2,248.1 L 67.5,319.6 L 124.2,304.1 Z M 130.6,212.5 L 158.4,217.7 L 164.1,190.8 Z M 130.6,212.5 L 164.1,190.8 L 136.3,185.6 Z M 40.2,170.5 L 60.4,225.2 L 114.0,202.5 Z M 40.2,170.5 L 114.0,202.5 L 93.9,147.9 Z M 239.5,222.0 L 208.6,266.5 L 254.5,295.3 Z M 239.5,222.0 L 254.5,295.3 L 285.4,250.7 Z M 237.3,95.2 L 206.5,139.7 L 252.3,168.5 Z M 237.3,95.2 L 252.3,168.5 L 283.2,124.0 Z M 99.4,280.3 L 127.2,285.4 L 133.0,258.6 Z M 99.4,280.3 L 133.0,258.6 L 105.2,253.4 Z M 206.8,252.4 L 234.6,257.5 L 240.4,230.6 Z M 206.8,252.4 L 240.4,230.6 L 212.6,225.5 Z M 221.5,301.8 L 247.1,289.8 L 236.3,264.6 Z M 221.5,301.8 L 236.3,264.6 L 210.6,276.5 Z M 259.4,168.7 L 286.4,160.3 L 278.9,133.8 Z M 259.4,168.7 L 278.9,133.8 L 251.9,142.3 Z M 206.6,131.9 L 233.6,123.5 L 226.1,97.0 Z M 206.6,131.9 L 226.1,97.0 L 199.1,105.5 Z M 111.4,194.9 L 123.4,169.2 L 98.9,156.9 Z M 111.4,194.9 L 98.9,156.9 L 86.8,182.5 Z M 180.2,217.7 L 192.2,192.1 L 167.7,179.7 Z M 180.2,217.7 L 167.7,179.7 L 155.6,205.3 Z M 72.9,170.8 L 78.7,144.0 L 49.4,137.6 Z M 72.9,170.8 L 49.4,137.6 L 43.6,164.4 Z M 171.7,98.1 L 179.7,83.9 L 144.9,83.9 Z M 171.7,98.1 L 144.9,83.9 L 150.5,96.9 Z M 99.9,97.5 L 150.5,96.9 L 144.9,83.9 Z M 99.9,97.5 L 144.9,83.9 L 81.0,83.9 Z M 210.0,138.4 L 256.0,175.8 L 278.4,178.2 Z M 210.0,138.4 L 278.4,178.2 L 227.6,132.6 Z M 90.2,155.6 L 108.8,122.1 L 96.2,121.4 Z M 90.2,155.6 L 96.2,121.4 L 73.9,159.3 Z M 119.1,210.8 L 91.8,251.5 L 107.8,255.0 Z M 119.1,210.8 L 107.8,255.0 L 134.3,214.9 Z M 195.0,105.4 L 210.0,138.4 L 227.6,132.6 Z M 195.0,105.4 L 227.6,132.6 L 208.5,93.1 Z M 105.2,181.0 L 119.1,210.8 L 134.3,214.9 Z M 105.2,181.0 L 134.3,214.9 L 118.3,175.2 Z M 193.7,231.4 L 220.9,274.9 L 235.6,272.2 Z M 193.7,231.4 L 235.6,272.2 L 214.2,231.2 Z M 215.6,290.4 L 175.3,303.4 L 179.7,316.1 Z M 215.6,290.4 L 179.7,316.1 L 226.9,299.9 Z M 220.9,274.9 L 215.6,290.4 L 226.9,299.9 Z M 220.9,274.9 L 226.9,299.9 L 235.6,272.2 Z M 171.7,98.1 L 195.0,105.4 L 208.5,93.1 Z M 171.7,98.1 L 208.5,93.1 L 179.7,83.9 Z M 214.2,180.7 L 227.4,196.1 L 256.9,191.6 Z M 214.2,180.7 L 256.9,191.6 L 256.0,175.8 Z M 227.4,196.1 L 214.2,180.7 L 193.7,231.4 Z M 227.4,196.1 L 193.7,231.4 L 214.2,231.2 Z M 108.8,122.1 L 99.9,97.5 L 81.0,83.9 Z M 108.8,122.1 L 81.0,83.9 L 96.2,121.4 Z M 118.3,175.2 L 90.2,155.6 L 73.9,159.3 Z M 118.3,175.2 L 73.9,159.3 L 105.2,181.0 Z M 179.7,316.1 L 175.3,303.4 L 151.1,303.6 Z M 179.7,316.1 L 151.1,303.6 L 144.9,316.1 Z M 91.8,251.5 L 95.6,288.7 L 107.3,280.8 Z M 91.8,251.5 L 107.3,280.8 L 107.8,255.0 Z M 151.1,303.6 L 107.3,280.8 L 95.6,288.7 Z M 151.1,303.6 L 95.6,288.7 L 144.9,316.1 Z M 152.3,205.6 L 159.2,180.4 L 150.0,169.7 Z M 152.3,205.6 L 150.0,169.7 L 134.3,214.9 Z M 214.2,180.7 L 196.0,182.6 L 185.4,215.7 Z M 214.2,180.7 L 185.4,215.7 L 193.7,231.4 Z M 193.7,231.4 L 185.4,215.7 L 152.3,205.6 Z M 193.7,231.4 L 152.3,205.6 L 134.3,214.9 Z M 214.2,180.7 L 190.3,154.1 L 184.3,171.5 Z M 214.2,180.7 L 184.3,171.5 L 196.0,182.6 Z M 184.3,171.5 L 190.3,154.1 L 150.0,169.7 Z M 184.3,171.5 L 150.0,169.7 L 159.2,180.4 Z M 256.0,175.8 L 256.9,191.6 L 278.4,178.2 Z M 46.2,287.1 L 91.8,251.5 L 65.6,213.5 Z M 46.2,287.1 L 65.6,213.5 L 20.0,230.6 Z M 20.0,230.6 L 65.6,213.5 L 73.9,159.3 Z M 20.0,230.6 L 73.9,159.3 L 46.2,171.8 Z M 227.4,196.1 L 214.2,231.2 L 235.6,272.2 Z M 227.4,196.1 L 235.6,272.2 L 256.9,191.6 Z M 256.9,191.6 L 235.6,272.2 L 278.4,287.1 Z M 256.9,191.6 L 278.4,287.1 L 278.4,178.2 Z M 179.7,316.1 L 243.6,316.1 L 226.9,299.9 Z M 243.6,316.1 L 278.4,287.1 L 226.9,299.9 Z M 226.9,299.9 L 278.4,287.1 L 235.6,272.2 Z M 91.8,251.5 L 46.2,287.1 L 95.6,288.7 Z M 46.2,287.1 L 81.0,316.1 L 95.6,288.7 Z M 95.6,288.7 L 81.0,316.1 L 144.9,316.1 Z M 73.9,159.3 L 96.2,121.4 L 81.0,83.9 Z M 73.9,159.3 L 81.0,83.9 L 46.2,112.9 Z M 278.4,112.9 L 243.6,83.9 L 208.5,93.1 Z M 278.4,112.9 L 208.5,93.1 L 227.6,132.6 Z M 73.9,159.3 L 65.6,213.5 L 119.1,210.8 Z M 73.9,159.3 L 119.1,210.8 L 105.2,181.0 Z M 196.0,182.6 L 159.2,180.4 L 152.3,205.6 Z M 196.0,182.6 L 152.3,205.6 L 185.4,215.7 Z M 227.6,132.6 L 278.4,178.2 L 278.4,112.9 Z M 243.6,83.9 L 179.7,83.9 L 208.5,93.1 Z M 91.8,251.5 L 119.1,210.8 L 65.6,213.5 Z M 73.9,159.3 L 46.2,112.9 L 46.2,171.8 Z M 196.0,182.6 L 184.3,171.5 L 159.2,180.4 Z" fill="#2a2a4e" stroke="none"/>
  <path d="M 144.9,380.0 L 179.7,380.0 M 179.7,380.0 L 179.7,316.1 M 144.9,316.1 L 144.9,380.0 M 179.7,83.9 L 179.7,20.0 M 179.7,20.0 L 144.9,20.0 M 144.9,20.0 L 144.9,83.9 M 99.7,231.4 L 105.5,204.5 M 105.5,204.5 L 76.2,198.1 M 76.2,198.1 L 70.3,225.0 M 70.3,225.0 L 99.7,231.4 M 106.2,248.1 L 49.4,263.6 M 49.4,263.6 L 67.5,319.6 M 67.5,319.6 L 124.2,304.1 M 124.2,304.1 L 106.2,248.1 M 130.6,212.5 L 158.4,217.7 M 158.4,217.7 L 164.1,190.8 M 164.1,190.8 L 136.3,185.6 M 136.3,185.6 L 130.6,212.5 M 40.2,170.5 L 60.4,225.2 M 60.4,225.2 L 114.0,202.5 M 114.0,202.5 L 93.9,147.9 M 93.9,147.9 L 40.2,170.5 M 239.5,222.0 L 208.6,266.5 M 208.6,266.5 L 254.5,295.3 M 254.5,295.3 L 285.4,250.7 M 285.4,250.7 L 239.5,222.0 M 237.3,95.2 L 206.5,139.7 M 206.5,139.7 L 252.3,168.5 M 252.3,168.5 L 283.2,124.0 M 283.2,124.0 L 237.3,95.2 M 99.4,280.3 L 127.2,285.4 M 127.2,285.4 L 133.0,258.6 M 133.0,258.6 L 105.2,253.4 M 105.2,253.4 L 99.4,280.3 M 206.8,252.4 L 234.6,257.5 M 234.6,257.5 L 240.4,230.6 M 240.4,230.6 L 212.6,225.5 M 212.6,225.5 L 206.8,252.4 M 221.5,301.8 L 247.1,289.8 M 247.1,289.8 L 236.3,264.6 M 236.3,264.6 L 210.6,276.5 M 210.6,276.5 L 221.5,301.8 M 259.4,168.7 L 286.4,160.3 M 286.4,160.3 L 278.9,133.8 M 278.9,133.8 L 251.9,142.3 M 251.9,142.3 L 259.4,168.7 M 206.6,131.9 L 233.6,123.5 M 233.6,123.5 L 226.1,97.0 M 226.1,97.0 L 199.1,105.5 M 199.1,105.5 L 206.6,131.9 M 111.4,194.9 L 123.4,169.2 M 123.4,169.2 L 98.9,156.9 M 98.9,156.9 L 86.8,182.5 M 86.8,182.5 L 111.4,194.9 M 180.2,217.7 L 192.2,192.1 M 192.2,192.1 L 167.7,179.7 M 167.7,179.7 L 155.6,205.3 M 155.6,205.3 L 180.2,217.7 M 72.9,170.8 L 78.7,144.0 M 78.7,144.0 L 49.4,137.6 M 49.4,137.6 L 43.6,164.4 M 43.6,164.4 L 72.9,170.8 M 144.9,83.9 L 81.0,83.9 M 20.0,230.6 L 46.2,287.1 M 46.2,171.8 L 20.0,230.6 M 278.4,287.1 L 278.4,178.2 M 179.7,316.1 L 243.6,316.1 M 243.6,316.1 L 278.4,287.1 M 46.2,287.1 L 81.0,316.1 M 81.0,316.1 L 144.9,316.1 M 81.0,83.9 L 46.2,112.9 M 278.4,112.9 L 243.6,83.9 M 278.4,178.2 L 278.4,112.9 M 243.6,83.9 L 179.7,83.9 M 46.2,112.9 L 46.2,171.8" fill="none" stroke="white" stroke-width="2" stroke-linecap="round"/>
  <polygon points="161.80982049029504,311.0256587904667 169.80982049029504,319.0256587904667 161.80982049029504,327.0256587904667 153.80982049029504,319.0256587904667" fill="#4a9eff" stroke="white" stroke-width="1"/>
<polygon points="162.44373169803103,72.81562582320628 170.44373169803103,80.81562582320628 162.44373169803103,88.81562582320628 154.44373169803103,80.81562582320628" fill="#4a9eff" stroke="white" stroke-width="1"/>
</svg>