<svg xmlns="http://www.w3.org/2000/svg" viewBox="0 0 400 400">
  <rect width="400" height="400" fill="#1a1a2e"/>
  <path d="M 187.2,267.7 L 119.8,267.7 L 119.8,380.0 Z M 187.2,267.7 L 119.8,380.0 L 187.2,380.0 Z M 84.0,133.6 L 81.2,183.6 L 153.5,155.5 Z M 84.0,133.6 L 153.5,155.5 L 125.3,103.7 Z M 125.3,103.7 L 153.5,155.5 L 219.2,89.2 Z M 125.3,103.7 L 219.2,89.2 L 184.5,63.1 Z M 168.4,216.0 L 153.5,155.5 L 114.5,193.6 Z M 153.5,155.5 L 81.2,183.6 L 114.5,193.6 Z M 220.9,195.9 L 223.2,165.0 L 153.5,155.5 Z M 220.9,195.9 L 153.5,155.5 L 168.4,216.0 Z M 244.7,148.8 L 249.2,120.0 L 219.2,89.2 Z M 244.7,148.8 L 219.2,89.2 L 223.2,165.0 Z M 60.1,134.4 L 46.7,154.8 L 56.3,184.3 Z M 60.1,134.4 L 56.3,184.3 L 81.2,183.6 Z M 154.9,47.0 L 128.5,67.6 L 125.3,103.7 Z M 154.9,47.0 L 125.3,103.7 L 184.5,63.1 Z M 114.5,193.6 L 138.2,237.9 L 165.0,239.9 Z M 114.5,193.6 L 165.0,239.9 L 168.4,216.0 Z M 219.2,89.2 L 153.5,155.5 L 223.2,165.0 Z M 84.0,133.6 L 60.1,134.4 L 81.2,183.6 Z M 219.2,89.2 L 217.7,55.5 L 184.5,63.1 Z M 168.4,216.0 L 232.1,222.5 L 250.0,199.8 Z M 168.4,216.0 L 250.0,199.8 L 220.9,195.9 Z M 220.9,195.9 L 250.0,199.8 L 249.3,176.8 Z M 220.9,195.9 L 249.3,176.8 L 223.2,165.0 Z M 223.2,165.0 L 249.3,176.8 L 268.2,169.6 Z M 223.2,165.0 L 268.2,169.6 L 244.7,148.8 Z M 244.7,148.8 L 268.2,169.6 L 264.2,114.5 Z M 244.7,148.8 L 264.2,114.5 L 249.2,120.0 Z M 249.2,120.0 L 264.2,114.5 L 241.7,72.6 Z M 249.2,120.0 L 241.7,72.6 L 219.2,89.2 Z M 219.2,89.2 L 241.7,72.6 L 232.1,31.7 Z M 219.2,89.2 L 232.1,31.7 L 217.7,55.5 Z M 217.7,55.5 L 232.1,31.7 L 184.4,43.1 Z M 217.7,55.5 L 184.4,43.1 L 184.5,63.1 Z M 184.5,63.1 L 184.4,43.1 L 153.5,20.0 Z M 184.5,63.1 L 153.5,20.0 L 154.9,47.0 Z M 154.9,47.0 L 153.5,20.0 L 110.1,48.9 Z M 154.9,47.0 L 110.1,48.9 L 128.5,67.6 Z M 128.5,67.6 L 110.1,48.9 L 103.0,79.8 Z M 128.5,67.6 L 103.0,79.8 L 125.3,103.7 Z M 125.3,103.7 L 103.0,79.8 L 71.0,109.3 Z M 125.3,103.7 L 71.0,109.3 L 84.0,133.6 Z M 84.0,133.6 L 71.0,109.3 L 44.7,122.5 Z M 84.0,133.6 L 44.7,122.5 L 60.1,134.4 Z M 60.1,134.4 L 44.7,122.5 L 30.0,155.2 Z M 60.1,134.4 L 30.0,155.2 L 46.7,154.8 Z M 46.7,154.8 L 30.0,155.2 L 41.6,191.3 Z M 46.7,154.8 L 41.6,191.3 L 56.3,184.3 Z M 56.3,184.3 L 41.6,191.3 L 76.9,197.1 Z M 56.3,184.3 L 76.9,197.1 L 81.2,183.6 Z M 81.2,183.6 L 76.9,197.1 L 106.0,208.8 Z M 81.2,183.6 L 106.0,208.8 L 114.5,193.6 Z M 114.5,193.6 L 106.0,208.8 L 110.3,242.2 Z M 114.5,193.6 L 110.3,242.2 L 138.2,237.9 Z M 138.2,237.9 L 119.8,267.7 L 187.2,267.7 Z M 138.2,237.9 L 187.2,267.7 L 165.0,239.9 Z M 165.0,239.9 L 187.2,267.7 L 185.6,234.3 Z M 165.0,239.9 L 185.6,234.3 L 168.4,216.0 Z M 168.4,216.0 L 185.6,234.3 L 217.5,245.8 Z M 168.4,216.0 L 217.5,245.8 L 232.1,222.5 Z M 110.3,242.2 L 119.8,267.7 L 138.2,237.9 Z M 277.0,121.5 L 264.2,114.5 L 268.2,169.6 Z M 277.0,121.5 L 268.2,169.6 L 287.3,188.9 Z M 287.3,188.9 L 268.2,169.6 L 249.3,176.8 Z M 287.3,188.9 L 249.3,176.8 L 250.0,199.8 Z M 277.0,222.5 L 232.1,222.5 L 217.5,245.8 Z M 277.0,222.5 L 217.5,245.8 L 232.1,267.7 Z M 232.1,267.7 L 217.5,245.8 L 185.6,234.3 Z M 232.1,267.7 L 185.6,234.3 L 187.2,267.7 Z M 30.0,155.2 L 20.0,194.5 L 41.6,191.3 Z M 20.0,194.5 L 30.0,222.5 L 41.6,191.3 Z M 277.0,121.5 L 281.4,72.8 L 264.2,114.5 Z M 281.4,72.8 L 241.7,72.6 L 264.2,114.5 Z M 232.1,222.5 L 277.0,222.5 L 250.0,199.8 Z M 277.0,222.5 L 287.3,188.9 L 250.0,199.8 Z M 74.9,31.7 L 74.9,76.6 L 103.0,79.8 Z M 74.9,31.7 L 103.0,79.8 L 110.1,48.9 Z M 106.0,208.8 L 74.9,222.5 L 74.9,267.7 Z M 106.0,208.8 L 74.9,267.7 L 110.3,242.2 Z M 30.0,222.5 L 74.9,222.5 L 76.9,197.1 Z M 30.0,222.5 L 76.9,197.1 L 41.6,191.3 Z M 30.0,76.6 L 44.7,122.5 L 71.0,109.3 Z M 30.0,76.6 L 71.0,109.3 L 74.9,76.6 Z M 153.5,20.0 L 74.9,31.7 L 110.1,48.9 Z M 30.0,155.2 L 44.7,122.5 L 30.0,76.6 Z M 74.9,222.5 L 106.0,208.8 L 76.9,197.1 Z M 74.9,76.6 L 71.0,109.3 L 103.0,79.8 Z M 232.1,31.7 L 153.5,20.0 L 184.4,43.1 Z M 74.9,267.7 L 119.8,267.7 L 110.3,242.2 Z M 232.1,31.7 L 241.7,72.6 L 281.4,72.8 Z" fill="#2a2a4e" stroke="none"/>
  <path d="M 119.8,267.7 L 119.8,380.0 M 119.8,380.0 L 187.2,380.0 M 187.2,380.0 L 187.2,267.7 M 287.3,188.9 L 277.0,121.5 M 232.1,267.7 L 277.0,222.5 M 187.2,267.7 L 232.1,267.7 M 30.0,155.2 L 20.0,194.5 M 20.0,194.5 L 30.0,222.5 M 277.0,121.5 L 281.4,72.8 M 277.0,222.5 L 287.3,188.9 M 74.9,31.7 L 74.9,76.6 M 74.9,222.5 L 74.9,267.7 M 30.0,222.5 L 74.9,222.5 M 74.9,76.6 L 30.0,76.6 M 153.5,20.0 L 74.9,31.7 M 30.0,76.6 L 30.0,155.2 M 232.1,31.7 L 153.5,20.0 M 74.9,267.7 L 119.8,267.7 M 281.4,72.8 L 232.1,31.7" fill="none" stroke="white" stroke-width="2" stroke-linecap="round"/>
  <polygon points="155.59506006252937,270.0486659376562 163.59506006252937,278.0486659376562 155.59506006252937,286.0486659376562 147.59506006252937,278.0486659376562" fill="#4a9eff" stroke="white" stroke-width="1"/>
</svg>