<svg xmlns="http://www.w3.org/2000/svg" viewBox="0 0 400 400">
  <rect width="400" height="400" fill="#1a1a2e"/>
  <path d="M 376.9,327.2 L 376.9,290.0 L 296.2,290.0 Z M 376.9,327.2 L 296.2,290.0 L 296.2,327.2 Z M 178.3,20.0 L 141.0,20.0 L 141.0,103.8 Z M 178.3,20.0 L 141.0,103.8 L 178.3,103.8 Z M 178.3,190.7 L 141.0,190.7 L 141.0,277.6 Z M 178.3,190.7 L 141.0,277.6 L 178.3,277.6 Z M 141.0,116.2 L 128.6,125.7 L 128.6,178.3 Z M 141.0,116.2 L 128.6,178.3 L 137.9,156.6 Z M 137.9,156.6 L 128.6,178.3 L 141.0,178.3 Z M 137.9,156.6 L 141.0,178.3 L 178.3,178.3 Z M 32.4,88.3 L 54.6,123.6 L 88.3,116.6 Z M 32.4,88.3 L 88.3,116.6 L 78.8,88.3 Z M 272.4,210.8 L 283.8,162.8 L 237.4,162.8 Z M 272.4,210.8 L 237.4,162.8 L 256.3,203.9 Z M 32.4,178.3 L 54.6,123.6 L 32.4,88.3 Z M 283.8,290.0 L 283.8,162.8 L 272.4,210.8 Z M 88.3,116.6 L 54.6,123.6 L 32.4,178.3 Z M 88.3,116.6 L 32.4,178.3 L 88.3,290.0 Z M 88.3,290.0 L 32.4,178.3 L 32.4,367.6 Z M 88.3,290.0 L 32.4,367.6 L 62.8,354.5 Z M 88.3,290.0 L 62.8,354.5 L 72.8,367.6 Z M 88.3,290.0 L 72.8,367.6 L 141.0,290.0 Z M 141.0,290.0 L 72.8,367.6 L 283.8,367.6 Z M 141.0,290.0 L 283.8,367.6 L 178.3,290.0 Z M 178.3,290.0 L 283.8,367.6 L 283.8,327.2 Z M 178.3,290.0 L 283.8,327.2 L 227.9,290.0 Z M 283.8,290.0 L 272.4,210.8 L 256.3,203.9 Z M 283.8,290.0 L 256.3,203.9 L 227.9,290.0 Z M 227.9,290.0 L 256.3,203.9 L 237.4,162.8 Z M 227.9,290.0 L 237.4,162.8 L 227.9,175.6 Z M 137.9,156.6 L 178.3,178.3 L 187.6,178.3 Z M 137.9,156.6 L 187.6,178.3 L 178.3,116.2 Z M 187.6,116.2 L 178.3,116.2 L 187.6,178.3 Z M 141.0,116.2 L 137.9,156.6 L 178.3,116.2 Z M 283.8,327.2 L 283.8,290.0 L 227.9,290.0 Z M 20.0,380.0 L 72.8,380.0 L 72.8,367.6 Z M 20.0,380.0 L 72.8,367.6 L 32.4,367.6 Z M 62.8,354.5 L 32.4,367.6 L 72.8,367.6 Z M 296.2,290.0 L 283.8,290.0 L 283.8,327.2 Z M 296.2,290.0 L 283.8,327.2 L 296.2,327.2 Z M 141.0,103.8 L 141.0,116.2 L 178.3,116.2 Z M 141.0,103.8 L 178.3,116.2 L 178.3,103.8 Z M 141.0,277.6 L 141.0,290.0 L 178.3,290.0 Z M 141.0,277.6 L 178.3,290.0 L 178.3,277.6 Z M 178.3,178.3 L 141.0,178.3 L 141.0,190.7 Z M 178.3,178.3 L 141.0,190.7 L 178.3,190.7 Z M 32.4,88.3 L 20.0,75.9 L 20.0,178.3 Z M 32.4,88.3 L 20.0,178.3 L 32.4,178.3 Z M 32.4,178.3 L 20.0,178.3 L 20.0,380.0 Z M 32.4,178.3 L 20.0,380.0 L 32.4,367.6 Z M 20.0,75.9 L 32.4,88.3 L 78.8,88.3 Z M 20.0,75.9 L 78.8,88.3 L 54.1,75.9 Z M 88.3,116.6 L 88.3,290.0 L 100.7,277.6 Z M 88.3,116.6 L 100.7,277.6 L 100.7,133.4 Z M 88.3,290.0 L 141.0,290.0 L 141.0,277.6 Z M 88.3,290.0 L 141.0,277.6 L 100.7,277.6 Z M 296.2,150.3 L 246.6,150.3 L 237.4,162.8 Z M 296.2,150.3 L 237.4,162.8 L 283.8,162.8 Z M 296.2,150.3 L 283.8,162.8 L 283.8,290.0 Z M 296.2,150.3 L 283.8,290.0 L 296.2,290.0 Z M 72.8,367.6 L 72.8,380.0 L 296.2,380.0 Z M 72.8,367.6 L 296.2,380.0 L 283.8,367.6 Z M 296.2,380.0 L 296.2,327.2 L 283.8,327.2 Z M 296.2,380.0 L 283.8,327.2 L 283.8,367.6 Z M 215.5,277.6 L 227.9,290.0 L 227.9,175.6 Z M 215.5,277.6 L 227.9,175.6 L 215.5,192.4 Z M 227.9,290.0 L 215.5,277.6 L 178.3,277.6 Z M 227.9,290.0 L 178.3,277.6 L 178.3,290.0 Z M 116.2,190.7 L 128.6,178.3 L 128.6,125.7 Z M 116.2,190.7 L 128.6,125.7 L 116.2,134.8 Z M 187.6,178.3 L 200.0,190.7 L 200.0,103.8 Z M 187.6,178.3 L 200.0,103.8 L 187.6,116.2 Z M 200.0,103.8 L 178.3,103.8 L 178.3,116.2 Z M 200.0,103.8 L 178.3,116.2 L 187.6,116.2 Z M 200.0,190.7 L 187.6,178.3 L 178.3,178.3 Z M 200.0,190.7 L 178.3,178.3 L 178.3,190.7 Z M 116.2,190.7 L 141.0,190.7 L 141.0,178.3 Z M 116.2,190.7 L 141.0,178.3 L 128.6,178.3 Z" fill="#2a2a4e" stroke="none"/>
  <path d="M 376.9,327.2 L 376.9,290.0 M 376.9,290.0 L 296.2,290.0 M 296.2,327.2 L 376.9,327.2 M 178.3,20.0 L 141.0,20.0 M 141.0,20.0 L 141.0,103.8 M 178.3,103.8 L 178.3,20.0 M 141.0,190.7 L 141.0,277.6 M 178.3,277.6 L 178.3,190.7 M 141.0,116.2 L 128.6,125.7 M 88.3,116.6 L 78.8,88.3 M 237.4,162.8 L 227.9,175.6 M 20.0,380.0 L 72.8,380.0 M 141.0,103.8 L 141.0,116.2 M 20.0,75.9 L 20.0,178.3 M 20.0,178.3 L 20.0,380.0 M 78.8,88.3 L 54.1,75.9 M 54.1,75.9 L 20.0,75.9 M 100.7,277.6 L 100.7,133.4 M 100.7,133.4 L 88.3,116.6 M 141.0,277.6 L 100.7,277.6 M 296.2,150.3 L 246.6,150.3 M 246.6,150.3 L 237.4,162.8 M 296.2,290.0 L 296.2,150.3 M 72.8,380.0 L 296.2,380.0 M 296.2,380.0 L 296.2,327.2 M 227.9,175.6 L 215.5,192.4 M 215.5,192.4 L 215.5,277.6 M 215.5,277.6 L 178.3,277.6 M 128.6,125.7 L 116.2,134.8 M 116.2,134.8 L 116.2,190.7 M 200.0,190.7 L 200.0,103.8 M 200.0,103.8 L 178.3,103.8 M 178.3,190.7 L 200.0,190.7 M 116.2,190.7 L 141.0,190.7" fill="none" stroke="white" stroke-width="2" stroke-linecap="round"/>
  <polygon points="160.3194997319137,96.52845280789502 168.3194997319137,104.52845280789502 160.3194997319137,112.52845280789502 152.3194997319137,104.52845280789502" fill="#4a9eff" stroke="white" stroke-width="1"/>
<polygon points="292.9792260527884,302.8095114480734 300.9792260527884,310.8095114480734 292.9792260527884,318.8095114480734 284.9792260527884,310.8095114480734" fill="#4a9eff" stroke="white" stroke-width="1"/>
</svg>