<svg xmlns="http://www.w3.org/2000/svg" viewBox="0 0 400 400">
  <rect width="400" height="400" fill="#1a1a2e"/>
  <path d="M 316.3,380.0 L 361.3,380.0 L 361.3,320.0 Z M 316.3,380.0 L 361.3,320.0 L 316.3,320.0 Z M 316.3,320.0 L 361.3,320.0 L 361.3,245.0 Z M 316.3,320.0 L 361.3,245.0 L 316.3,245.0 Z M 170.0,80.0 L 226.3,80.0 L 226.3,35.0 Z M 170.0,80.0 L 226.3,35.0 L 170.0,35.0 Z M 241.3,245.0 L 241.3,297.5 L 286.3,342.5 Z M 241.3,245.0 L 286.3,342.5 L 286.3,245.0 Z M 286.3,342.5 L 241.3,297.5 L 170.0,297.5 Z M 286.3,342.5 L 170.0,297.5 L 170.0,342.5 Z M 155.0,143.6 L 155.0,80.0 L 140.0,76.3 Z M 155.0,80.0 L 155.0,35.0 L 140.0,76.3 Z M 35.0,35.0 L 98.3,73.1 L 140.0,76.3 Z M 35.0,35.0 L 140.0,76.3 L 155.0,35.0 Z M 326.8,74.7 L 361.3,35.0 L 241.3,35.0 Z M 326.8,74.7 L 241.3,35.0 L 241.3,80.0 Z M 361.3,35.0 L 326.8,74.7 L 361.3,100.0 Z M 35.0,282.5 L 35.0,342.5 L 95.0,342.5 Z M 316.3,230.0 L 361.3,230.0 L 361.3,151.1 Z M 326.8,74.7 L 241.3,80.0 L 241.3,126.9 Z M 326.8,74.7 L 241.3,126.9 L 353.1,118.2 Z M 353.1,118.2 L 241.3,126.9 L 241.3,230.0 Z M 353.1,118.2 L 241.3,230.0 L 286.3,230.0 Z M 155.0,222.5 L 35.0,222.5 L 35.0,282.5 Z M 155.0,222.5 L 35.0,282.5 L 155.0,297.5 Z M 155.0,297.5 L 35.0,282.5 L 95.0,342.5 Z M 155.0,297.5 L 95.0,342.5 L 155.0,342.5 Z M 35.0,35.0 L 35.0,155.0 L 98.3,73.1 Z M 35.0,155.0 L 140.0,76.3 L 98.3,73.1 Z M 286.3,230.0 L 316.3,230.0 L 361.3,151.1 Z M 286.3,230.0 L 361.3,151.1 L 353.1,118.2 Z M 155.0,143.6 L 140.0,76.3 L 35.0,155.0 Z M 155.0,143.6 L 35.0,155.0 L 139.5,155.0 Z M 353.1,118.2 L 361.3,100.0 L 326.8,74.7 Z M 376.3,160.8 L 376.3,95.0 L 361.3,100.0 Z M 376.3,160.8 L 361.3,100.0 L 361.3,151.1 Z M 170.0,297.5 L 170.0,262.5 L 155.0,297.5 Z M 226.3,88.4 L 226.3,155.0 L 241.3,126.9 Z M 353.1,118.2 L 361.3,151.1 L 361.3,100.0 Z M 226.3,20.0 L 226.3,80.0 L 241.3,80.0 Z M 226.3,20.0 L 241.3,80.0 L 241.3,35.0 Z M 376.3,245.0 L 361.3,230.0 L 316.3,230.0 Z M 376.3,245.0 L 316.3,230.0 L 316.3,245.0 Z M 226.3,245.0 L 286.3,245.0 L 286.3,230.0 Z M 226.3,245.0 L 286.3,230.0 L 241.3,230.0 Z M 155.0,80.0 L 170.0,80.0 L 170.0,20.0 Z M 155.0,80.0 L 170.0,20.0 L 155.0,35.0 Z M 170.0,357.5 L 170.0,297.5 L 155.0,297.5 Z M 170.0,357.5 L 155.0,297.5 L 155.0,342.5 Z M 316.3,230.0 L 286.3,230.0 L 286.3,245.0 Z M 316.3,230.0 L 286.3,245.0 L 316.3,245.0 Z M 226.3,20.0 L 241.3,35.0 L 361.3,35.0 Z M 226.3,20.0 L 361.3,35.0 L 376.3,20.0 Z M 35.0,222.5 L 20.0,207.5 L 20.0,357.5 Z M 35.0,222.5 L 20.0,357.5 L 35.0,282.5 Z M 35.0,342.5 L 20.0,357.5 L 170.0,357.5 Z M 35.0,342.5 L 170.0,357.5 L 95.0,342.5 Z M 20.0,207.5 L 35.0,222.5 L 155.0,222.5 Z M 20.0,207.5 L 155.0,222.5 L 170.0,207.5 Z M 155.0,143.6 L 170.0,132.5 L 170.0,80.0 Z M 155.0,143.6 L 170.0,80.0 L 155.0,80.0 Z M 170.0,20.0 L 20.0,20.0 L 35.0,35.0 Z M 170.0,20.0 L 35.0,35.0 L 155.0,35.0 Z M 20.0,170.0 L 35.0,155.0 L 35.0,35.0 Z M 20.0,170.0 L 35.0,35.0 L 20.0,20.0 Z M 20.0,170.0 L 119.2,170.0 L 139.5,155.0 Z M 20.0,170.0 L 139.5,155.0 L 35.0,155.0 Z M 170.0,207.5 L 155.0,222.5 L 155.0,297.5 Z M 170.0,207.5 L 155.0,297.5 L 170.0,262.5 Z M 376.3,245.0 L 376.3,160.8 L 361.3,151.1 Z M 376.3,245.0 L 361.3,151.1 L 361.3,230.0 Z M 376.3,20.0 L 361.3,35.0 L 361.3,100.0 Z M 376.3,20.0 L 361.3,100.0 L 376.3,95.0 Z M 241.3,126.9 L 226.3,155.0 L 226.3,245.0 Z M 241.3,126.9 L 226.3,245.0 L 241.3,230.0 Z M 226.3,88.4 L 241.3,126.9 L 241.3,80.0 Z M 226.3,88.4 L 241.3,80.0 L 226.3,80.0 Z M 20.0,357.5 L 35.0,342.5 L 35.0,282.5 Z M 170.0,357.5 L 155.0,342.5 L 95.0,342.5 Z" fill="#2a2a4e" stroke="none"/>
  <path d="M 316.3,380.0 L 361.3,380.0 M 361.3,380.0 L 361.3,320.0 M 316.3,320.0 L 316.3,380.0 M 361.3,320.0 L 361.3,245.0 M 361.3,245.0 L 316.3,245.0 M 316.3,245.0 L 316.3,320.0 M 170.0,80.0 L 226.3,80.0 M 226.3,80.0 L 226.3,35.0 M 226.3,35.0 L 170.0,35.0 M 170.0,35.0 L 170.0,80.0 M 241.3,245.0 L 241.3,297.5 M 286.3,342.5 L 286.3,245.0 M 286.3,245.0 L 241.3,245.0 M 241.3,297.5 L 170.0,297.5 M 170.0,297.5 L 170.0,342.5 M 170.0,342.5 L 286.3,342.5 M 139.5,155.0 L 155.0,143.6 M 376.3,160.8 L 376.3,95.0 M 170.0,297.5 L 170.0,262.5 M 226.3,88.4 L 226.3,155.0 M 226.3,20.0 L 226.3,80.0 M 316.3,245.0 L 376.3,245.0 M 226.3,245.0 L 286.3,245.0 M 170.0,80.0 L 170.0,20.0 M 170.0,357.5 L 170.0,297.5 M 286.3,245.0 L 316.3,245.0 M 376.3,20.0 L 226.3,20.0 M 20.0,207.5 L 20.0,357.5 M 20.0,357.5 L 170.0,357.5 M 170.0,207.5 L 20.0,207.5 M 155.0,143.6 L 170.0,132.5 M 170.0,132.5 L 170.0,80.0 M 170.0,20.0 L 20.0,20.0 M 20.0,20.0 L 20.0,170.0 M 20.0,170.0 L 119.2,170.0 M 119.2,170.0 L 139.5,155.0 M 170.0,262.5 L 170.0,207.5 M 376.3,245.0 L 376.3,160.8 M 376.3,95.0 L 376.3,20.0 M 226.3,155.0 L 226.3,245.0 M 226.3,80.0 L 226.3,88.4" fill="none" stroke="white" stroke-width="2" stroke-linecap="round"/>
  <polygon points="339.6734208170235,235.54860598812036 347.6734208170235,243.54860598812036 339.6734208170235,251.54860598812036 331.6734208170235,243.54860598812036" fill="#4a9eff" stroke="white" stroke-width="1"/>
</svg>