<svg xmlns="http://www.w3.org/2000/svg" viewBox="0 0 400 400">
  <rect width="400" height="400" fill="#1a1a2e"/>
  <path d="M 217.4,316.1 L 182.6,316.1 L 182.6,380.0 Z M 217.4,316.1 L 182.6,380.0 L 217.4,380.0 Z M 380.0,298.7 L 380.0,263.9 L 316.1,263.9 Z M 380.0,298.7 L 316.1,263.9 L 316.1,298.7 Z M 20.0,182.6 L 20.0,217.4 L 83.9,217.4 Z M 20.0,182.6 L 83.9,217.4 L 83.9,182.6 Z M 110.0,121.6 L 144.8,121.6 L 144.8,20.0 Z M 110.0,121.6 L 144.8,20.0 L 110.0,20.0 Z M 212.1,303.4 L 232.1,273.2 L 195.7,240.3 Z M 212.1,303.4 L 195.7,240.3 L 186.9,303.4 Z M 186.9,303.4 L 195.7,240.3 L 157.5,249.8 Z M 186.9,303.4 L 157.5,249.8 L 152.4,272.0 Z M 141.0,134.2 L 115.6,134.2 L 100.7,173.1 Z M 141.0,134.2 L 100.7,173.1 L 165.6,146.7 Z M 165.6,146.7 L 100.7,173.1 L 149.0,189.9 Z M 165.6,146.7 L 149.0,189.9 L 178.7,170.9 Z M 232.1,273.2 L 257.2,260.4 L 262.5,213.2 Z M 232.1,273.2 L 262.5,213.2 L 229.4,204.4 Z M 195.7,240.3 L 232.1,273.2 L 229.4,204.4 Z M 269.0,267.2 L 257.2,260.4 L 232.1,273.2 Z M 269.0,267.2 L 232.1,273.2 L 241.7,281.0 Z M 186.9,303.4 L 182.6,316.1 L 217.4,316.1 Z M 186.9,303.4 L 217.4,316.1 L 212.1,303.4 Z M 137.4,276.1 L 182.6,316.1 L 186.9,303.4 Z M 137.4,276.1 L 186.9,303.4 L 152.4,272.0 Z M 229.4,204.4 L 226.5,191.6 L 190.8,228.7 Z M 229.4,204.4 L 190.8,228.7 L 195.7,240.3 Z M 137.4,276.1 L 152.4,272.0 L 157.5,249.8 Z M 137.4,276.1 L 157.5,249.8 L 147.1,239.6 Z M 275.1,203.9 L 226.5,191.6 L 229.4,204.4 Z M 275.1,203.9 L 229.4,204.4 L 262.5,213.2 Z M 257.2,260.4 L 269.0,267.2 L 275.1,203.9 Z M 257.2,260.4 L 275.1,203.9 L 262.5,213.2 Z M 195.7,240.3 L 190.8,228.7 L 147.1,239.6 Z M 195.7,240.3 L 147.1,239.6 L 157.5,249.8 Z M 241.7,281.0 L 232.1,273.2 L 212.1,303.4 Z M 241.7,281.0 L 212.1,303.4 L 217.4,316.1 Z M 165.6,146.7 L 177.2,137.8 L 144.8,121.6 Z M 165.6,146.7 L 144.8,121.6 L 141.0,134.2 Z M 83.9,182.6 L 153.5,205.5 L 149.0,189.9 Z M 83.9,182.6 L 149.0,189.9 L 100.7,173.1 Z M 153.5,205.5 L 197.1,174.0 L 178.7,170.9 Z M 153.5,205.5 L 178.7,170.9 L 149.0,189.9 Z M 178.7,170.9 L 197.1,174.0 L 177.2,137.8 Z M 178.7,170.9 L 177.2,137.8 L 165.6,146.7 Z M 144.8,121.6 L 110.0,121.6 L 115.6,134.2 Z M 144.8,121.6 L 115.6,134.2 L 141.0,134.2 Z M 115.6,134.2 L 110.0,121.6 L 83.9,182.6 Z M 115.6,134.2 L 83.9,182.6 L 100.7,173.1 Z M 281.3,316.1 L 316.1,298.7 L 316.1,263.9 Z M 281.3,316.1 L 316.1,263.9 L 269.0,267.2 Z M 118.7,316.1 L 182.6,316.1 L 137.4,276.1 Z M 118.7,316.1 L 137.4,276.1 L 83.9,287.1 Z M 83.9,287.1 L 137.4,276.1 L 147.1,239.6 Z M 83.9,287.1 L 147.1,239.6 L 83.9,217.4 Z M 83.9,217.4 L 147.1,239.6 L 153.5,205.5 Z M 83.9,217.4 L 153.5,205.5 L 83.9,182.6 Z M 217.4,316.1 L 281.3,316.1 L 241.7,281.0 Z M 281.3,316.1 L 269.0,267.2 L 241.7,281.0 Z M 275.1,203.9 L 234.8,176.8 L 226.5,191.6 Z M 234.8,176.8 L 197.1,174.0 L 226.5,191.6 Z M 226.5,191.6 L 197.1,174.0 L 190.8,228.7 Z M 153.5,205.5 L 147.1,239.6 L 190.8,228.7 Z M 153.5,205.5 L 190.8,228.7 L 197.1,174.0 Z" fill="#2a2a4e" stroke="none"/>
  <path d="M 182.6,316.1 L 182.6,380.0 M 182.6,380.0 L 217.4,380.0 M 217.4,380.0 L 217.4,316.1 M 380.0,298.7 L 380.0,263.9 M 380.0,263.9 L 316.1,263.9 M 316.1,298.7 L 380.0,298.7 M 20.0,182.6 L 20.0,217.4 M 20.0,217.4 L 83.9,217.4 M 83.9,182.6 L 20.0,182.6 M 144.8,121.6 L 144.8,20.0 M 144.8,20.0 L 110.0,20.0 M 110.0,20.0 L 110.0,121.6 M 269.0,267.2 L 275.1,203.9 M 177.2,137.8 L 144.8,121.6 M 197.1,174.0 L 177.2,137.8 M 110.0,121.6 L 83.9,182.6 M 281.3,316.1 L 316.1,298.7 M 316.1,263.9 L 269.0,267.2 M 118.7,316.1 L 182.6,316.1 M 83.9,287.1 L 118.7,316.1 M 83.9,217.4 L 83.9,287.1 M 217.4,316.1 L 281.3,316.1 M 275.1,203.9 L 234.8,176.8 M 234.8,176.8 L 197.1,174.0" fill="none" stroke="white" stroke-width="2" stroke-linecap="round"/>
  <polygon points="199.380864018414,313.929094650528 207.380864018414,321.929094650528 199.380864018414,329.929094650528 191.380864018414,321.929094650528" fill="#4a9eff" stroke="white" stroke-width="1"/>
<polygon points="317.8207862293544,273.6400146810872 325.8207862293544,281.6400146810872 317.8207862293544,289.6400146810872 309.8207862293544,281.6400146810872" fill="#4a9eff" stroke="white" stroke-width="1"/>
<polygon points="129.02891638943356,110.77657739160834 137.02891638943356,118.77657739160834 129.02891638943356,126.77657739160834 121.02891638943356,118.77657739160834" fill="#4a9eff" stroke="white" stroke-width="1"/>
<polygon points="79.36732173934416,191.94459101671634 87.36732173934416,199.94459101671634 79.36732173934416,207.94459101671634 71.36732173934416,199.94459101671634" fill="#4a9eff" stroke="white" stroke-width="1"/>
</svg>