<svg xmlns="http://www.w3.org/2000/svg" viewBox="0 0 400 400">
  <rect width="400" height="400" fill="#1a1a2e"/>
  <path d="M 71.4,20.0 L 32.9,20.0 L 32.9,71.4 Z M 71.4,20.0 L 32.9,71.4 L 71.4,71.4 Z M 71.4,71.4 L 32.9,71.4 L 32.9,135.7 Z M 71.4,71.4 L 32.9,135.7 L 71.4,135.7 Z M 148.6,315.7 L 196.8,315.7 L 196.8,277.1 Z M 148.6,315.7 L 196.8,277.1 L 148.6,277.1 Z M 97.1,52.1 L 97.1,135.7 L 135.7,135.7 Z M 97.1,52.1 L 135.7,135.7 L 135.7,90.7 Z M 273.9,380.0 L 312.5,380.0 L 312.5,328.6 Z M 273.9,380.0 L 312.5,328.6 L 273.9,328.6 Z M 196.8,90.7 L 196.8,52.1 L 97.1,52.1 Z M 196.8,90.7 L 97.1,52.1 L 135.7,90.7 Z M 209.6,315.7 L 273.9,315.7 L 222.5,280.4 Z M 209.6,315.7 L 222.5,280.4 L 209.6,277.1 Z M 135.7,315.7 L 135.7,277.1 L 62.4,281.7 Z M 135.7,315.7 L 62.4,281.7 L 32.9,315.7 Z M 209.6,277.1 L 222.5,280.4 L 209.6,222.7 Z M 32.9,315.7 L 62.4,281.7 L 32.9,260.0 Z M 312.5,103.6 L 312.5,52.1 L 261.1,52.1 Z M 71.4,148.6 L 32.9,148.6 L 32.9,216.2 Z M 62.4,281.7 L 135.7,277.1 L 135.7,237.0 Z M 62.4,281.7 L 135.7,237.0 L 39.8,244.4 Z M 39.8,244.4 L 135.7,237.0 L 135.7,148.6 Z M 39.8,244.4 L 135.7,148.6 L 97.1,148.6 Z M 209.6,155.0 L 312.5,155.0 L 312.5,103.6 Z M 209.6,155.0 L 312.5,103.6 L 209.6,90.7 Z M 209.6,90.7 L 312.5,103.6 L 261.1,52.1 Z M 209.6,90.7 L 261.1,52.1 L 209.6,52.1 Z M 273.9,315.7 L 312.5,315.7 L 312.5,212.9 Z M 273.9,315.7 L 312.5,212.9 L 222.5,280.4 Z M 222.5,280.4 L 312.5,212.9 L 222.9,212.9 Z M 222.5,280.4 L 222.9,212.9 L 209.6,222.7 Z M 32.9,216.2 L 39.8,244.4 L 97.1,148.6 Z M 32.9,216.2 L 97.1,148.6 L 71.4,148.6 Z M 39.8,244.4 L 32.9,260.0 L 62.4,281.7 Z M 32.9,260.0 L 32.9,216.2 L 20.0,207.9 Z M 32.9,260.0 L 20.0,207.9 L 20.0,264.3 Z M 196.8,90.7 L 196.8,120.7 L 209.6,90.7 Z M 148.6,270.0 L 148.6,212.9 L 135.7,237.0 Z M 39.8,244.4 L 32.9,216.2 L 32.9,260.0 Z M 135.7,277.1 L 135.7,315.7 L 148.6,328.6 Z M 135.7,277.1 L 148.6,328.6 L 148.6,277.1 Z M 71.4,148.6 L 71.4,135.7 L 20.0,135.7 Z M 71.4,148.6 L 20.0,135.7 L 32.9,148.6 Z M 97.1,148.6 L 135.7,148.6 L 148.6,135.7 Z M 97.1,148.6 L 148.6,135.7 L 97.1,135.7 Z M 196.8,328.6 L 209.6,315.7 L 209.6,277.1 Z M 196.8,328.6 L 209.6,277.1 L 196.8,277.1 Z M 325.4,328.6 L 312.5,315.7 L 273.9,315.7 Z M 325.4,328.6 L 273.9,315.7 L 273.9,328.6 Z M 209.6,90.7 L 209.6,52.1 L 196.8,39.3 Z M 209.6,90.7 L 196.8,39.3 L 196.8,90.7 Z M 97.1,135.7 L 71.4,135.7 L 71.4,148.6 Z M 97.1,135.7 L 71.4,148.6 L 97.1,148.6 Z M 32.9,315.7 L 20.0,328.6 L 148.6,328.6 Z M 32.9,315.7 L 148.6,328.6 L 135.7,315.7 Z M 325.4,39.3 L 312.5,103.6 L 312.5,155.0 Z M 325.4,39.3 L 312.5,155.0 L 325.4,167.9 Z M 196.8,39.3 L 261.1,52.1 L 312.5,52.1 Z M 196.8,39.3 L 312.5,52.1 L 325.4,39.3 Z M 209.6,155.0 L 196.8,167.9 L 325.4,167.9 Z M 209.6,155.0 L 325.4,167.9 L 312.5,155.0 Z M 196.8,277.1 L 209.6,277.1 L 209.6,222.7 Z M 196.8,277.1 L 209.6,222.7 L 196.8,232.1 Z M 273.9,315.7 L 209.6,315.7 L 196.8,328.6 Z M 273.9,315.7 L 196.8,328.6 L 273.9,328.6 Z M 312.5,315.7 L 325.4,328.6 L 325.4,200.0 Z M 312.5,315.7 L 325.4,200.0 L 312.5,212.9 Z M 222.9,212.9 L 312.5,212.9 L 325.4,200.0 Z M 222.9,212.9 L 325.4,200.0 L 240.3,200.0 Z M 209.6,90.7 L 196.8,120.7 L 196.8,167.9 Z M 209.6,90.7 L 196.8,167.9 L 209.6,155.0 Z M 32.9,216.2 L 32.9,148.6 L 20.0,135.7 Z M 32.9,216.2 L 20.0,135.7 L 20.0,207.9 Z M 32.9,260.0 L 20.0,264.3 L 20.0,328.6 Z M 32.9,260.0 L 20.0,328.6 L 32.9,315.7 Z M 148.6,135.7 L 135.7,148.6 L 135.7,237.0 Z M 148.6,135.7 L 135.7,237.0 L 148.6,212.9 Z M 135.7,277.1 L 148.6,277.1 L 148.6,270.0 Z M 135.7,277.1 L 148.6,270.0 L 135.7,237.0 Z M 325.4,39.3 L 312.5,52.1 L 312.5,103.6 Z M 196.8,39.3 L 209.6,52.1 L 261.1,52.1 Z" fill="#2a2a4e" stroke="none"/>
  <path d="M 71.4,20.0 L 32.9,20.0 M 32.9,20.0 L 32.9,71.4 M 71.4,71.4 L 71.4,20.0 M 32.9,71.4 L 32.9,135.7 M 32.9,135.7 L 71.4,135.7 M 71.4,135.7 L 71.4,71.4 M 148.6,315.7 L 196.8,315.7 M 196.8,315.7 L 196.8,277.1 M 196.8,277.1 L 148.6,277.1 M 148.6,277.1 L 148.6,315.7 M 97.1,52.1 L 97.1,135.7 M 97.1,135.7 L 135.7,135.7 M 135.7,135.7 L 135.7,90.7 M 273.9,380.0 L 312.5,380.0 M 312.5,380.0 L 312.5,328.6 M 312.5,328.6 L 273.9,328.6 M 273.9,328.6 L 273.9,380.0 M 196.8,90.7 L 196.8,52.1 M 196.8,52.1 L 97.1,52.1 M 135.7,90.7 L 196.8,90.7 M 222.9,212.9 L 209.6,222.7 M 20.0,207.9 L 20.0,264.3 M 196.8,90.7 L 196.8,120.7 M 148.6,270.0 L 148.6,212.9 M 148.6,328.6 L 148.6,277.1 M 71.4,135.7 L 20.0,135.7 M 148.6,135.7 L 97.1,135.7 M 196.8,277.1 L 196.8,328.6 M 273.9,328.6 L 325.4,328.6 M 196.8,39.3 L 196.8,90.7 M 97.1,135.7 L 71.4,135.7 M 20.0,328.6 L 148.6,328.6 M 325.4,167.9 L 325.4,39.3 M 325.4,39.3 L 196.8,39.3 M 196.8,167.9 L 325.4,167.9 M 209.6,222.7 L 196.8,232.1 M 196.8,232.1 L 196.8,277.1 M 196.8,328.6 L 273.9,328.6 M 325.4,328.6 L 325.4,200.0 M 325.4,200.0 L 240.3,200.0 M 240.3,200.0 L 222.9,212.9 M 196.8,120.7 L 196.8,167.9 M 20.0,135.7 L 20.0,207.9 M 20.0,264.3 L 20.0,328.6 M 148.6,212.9 L 148.6,135.7 M 148.6,277.1 L 148.6,270.0" fill="none" stroke="white" stroke-width="2" stroke-linecap="round"/>
  <polygon points="292.64319833460496,317.4096102194256 300.64319833460496,325.4096102194256 292.64319833460496,333.4096102194256 284.64319833460496,325.4096102194256" fill="#4a9eff" stroke="white" stroke-width="1"/>
<polygon points="51.92409374471373,129.8829170922342 59.92409374471373,137.8829170922342 51.92409374471373,145.8829170922342 43.92409374471373,137.8829170922342" fill="#4a9eff" stroke="white" stroke-width="1"/>
</svg>