<svg xmlns="http://www.w3.org/2000/svg" viewBox="0 0 400 400">
  <rect width="400" height="400" fill="#1a1a2e"/>
  <path d="M 20.0,189.7 L 112.6,189.7 L 112.6,158.9 Z M 20.0,189.7 L 112.6,158.9 L 20.0,158.9 Z M 233.4,227.0 L 202.6,227.0 L 202.6,302.9 Z M 233.4,227.0 L 202.6,302.9 L 233.4,302.9 Z M 380.0,66.3 L 287.4,66.3 L 287.4,97.1 Z M 380.0,66.3 L 287.4,97.1 L 380.0,97.1 Z M 207.7,30.3 L 207.7,92.0 L 277.1,66.3 Z M 207.7,30.3 L 277.1,66.3 L 277.1,30.3 Z M 277.1,158.9 L 209.7,169.2 L 202.6,216.7 Z M 277.1,158.9 L 202.6,216.7 L 233.4,216.7 Z M 122.9,158.9 L 122.9,189.7 L 192.4,195.0 Z M 122.9,158.9 L 192.4,195.0 L 209.7,169.2 Z M 277.1,66.3 L 250.5,106.2 L 258.2,126.2 Z M 277.1,66.3 L 258.2,126.2 L 277.1,97.1 Z M 202.6,216.7 L 209.7,169.2 L 192.4,195.0 Z M 287.9,183.3 L 277.1,158.9 L 233.4,216.7 Z M 277.1,158.9 L 258.2,126.2 L 209.7,169.2 Z M 209.7,169.2 L 177.8,137.2 L 122.9,158.9 Z M 277.1,66.3 L 207.7,92.0 L 250.5,106.2 Z M 277.1,158.9 L 287.9,183.3 L 305.4,158.9 Z M 287.9,183.3 L 305.4,196.3 L 305.4,158.9 Z M 177.8,137.2 L 209.7,169.2 L 216.8,112.8 Z M 209.7,169.2 L 258.2,126.2 L 216.8,112.8 Z M 202.6,216.7 L 192.4,195.0 L 189.0,211.5 Z M 192.4,195.0 L 122.9,189.7 L 189.0,211.5 Z M 189.0,211.5 L 122.9,189.7 L 122.9,216.7 Z M 189.0,211.5 L 122.9,216.7 L 162.7,216.7 Z M 305.4,196.3 L 287.9,183.3 L 233.4,216.7 Z M 305.4,196.3 L 233.4,216.7 L 288.4,216.7 Z M 122.9,158.9 L 177.8,137.2 L 189.3,107.4 Z M 122.9,158.9 L 189.3,107.4 L 122.9,107.4 Z M 258.2,126.2 L 250.5,106.2 L 207.7,92.0 Z M 258.2,126.2 L 207.7,92.0 L 216.8,112.8 Z M 277.1,158.9 L 277.1,97.1 L 258.2,126.2 Z M 305.4,196.3 L 307.8,204.9 L 315.7,192.5 Z M 305.4,196.3 L 288.4,216.7 L 288.1,227.0 Z M 305.4,196.3 L 288.1,227.0 L 307.8,204.9 Z M 112.6,158.9 L 112.6,189.7 L 122.9,189.7 Z M 112.6,158.9 L 122.9,189.7 L 122.9,158.9 Z M 277.1,97.1 L 287.4,97.1 L 287.4,66.3 Z M 277.1,97.1 L 287.4,66.3 L 277.1,66.3 Z M 202.6,227.0 L 233.4,227.0 L 233.4,216.7 Z M 202.6,227.0 L 233.4,216.7 L 202.6,216.7 Z M 189.3,107.4 L 181.2,97.1 L 112.6,97.1 Z M 189.3,107.4 L 112.6,97.1 L 122.9,107.4 Z M 197.4,20.0 L 197.4,82.7 L 207.7,92.0 Z M 197.4,20.0 L 207.7,92.0 L 207.7,30.3 Z M 277.1,30.3 L 287.4,20.0 L 197.4,20.0 Z M 277.1,30.3 L 197.4,20.0 L 207.7,30.3 Z M 315.7,148.6 L 305.4,158.9 L 305.4,196.3 Z M 315.7,148.6 L 305.4,196.3 L 315.7,192.5 Z M 315.7,148.6 L 287.4,148.6 L 277.1,158.9 Z M 315.7,148.6 L 277.1,158.9 L 305.4,158.9 Z M 288.4,216.7 L 233.4,216.7 L 233.4,227.0 Z M 288.4,216.7 L 233.4,227.0 L 288.1,227.0 Z M 112.6,97.1 L 112.6,158.9 L 122.9,158.9 Z M 112.6,97.1 L 122.9,158.9 L 122.9,107.4 Z M 112.6,227.0 L 122.9,216.7 L 122.9,189.7 Z M 112.6,227.0 L 122.9,189.7 L 112.6,189.7 Z M 277.1,66.3 L 287.4,66.3 L 287.4,20.0 Z M 277.1,66.3 L 287.4,20.0 L 277.1,30.3 Z M 277.1,158.9 L 287.4,148.6 L 287.4,97.1 Z M 277.1,158.9 L 287.4,97.1 L 277.1,97.1 Z M 112.6,227.0 L 157.6,227.0 L 162.7,216.7 Z M 112.6,227.0 L 162.7,216.7 L 122.9,216.7 Z M 202.6,216.7 L 189.0,211.5 L 202.6,227.0 Z M 189.0,211.5 L 157.6,227.0 L 202.6,227.0 Z M 216.8,112.8 L 207.7,92.0 L 203.1,110.1 Z M 207.7,92.0 L 189.3,107.4 L 203.1,110.1 Z M 203.1,110.1 L 189.3,107.4 L 177.8,137.2 Z M 189.3,107.4 L 207.7,92.0 L 197.4,82.7 Z M 189.3,107.4 L 197.4,82.7 L 181.2,97.1 Z M 216.8,112.8 L 203.1,110.1 L 177.8,137.2 Z M 189.0,211.5 L 162.7,216.7 L 157.6,227.0 Z" fill="#2a2a4e" stroke="none"/>
  <path d="M 20.0,189.7 L 112.6,189.7 M 112.6,158.9 L 20.0,158.9 M 20.0,158.9 L 20.0,189.7 M 202.6,227.0 L 202.6,302.9 M 202.6,302.9 L 233.4,302.9 M 233.4,302.9 L 233.4,227.0 M 380.0,66.3 L 287.4,66.3 M 287.4,97.1 L 380.0,97.1 M 380.0,97.1 L 380.0,66.3 M 307.8,204.9 L 315.7,192.5 M 288.1,227.0 L 307.8,204.9 M 181.2,97.1 L 112.6,97.1 M 197.4,20.0 L 197.4,82.7 M 287.4,20.0 L 197.4,20.0 M 315.7,192.5 L 315.7,148.6 M 315.7,148.6 L 287.4,148.6 M 233.4,227.0 L 288.1,227.0 M 112.6,97.1 L 112.6,158.9 M 112.6,189.7 L 112.6,227.0 M 287.4,66.3 L 287.4,20.0 M 287.4,148.6 L 287.4,97.1 M 112.6,227.0 L 157.6,227.0 M 157.6,227.0 L 202.6,227.0 M 197.4,82.7 L 181.2,97.1" fill="none" stroke="white" stroke-width="2" stroke-linecap="round"/>
  
</svg>