<svg xmlns="http://www.w3.org/2000/svg" viewBox="0 0 400 400">
  <rect width="400" height="400" fill="#1a1a2e"/>
  <path d="M 198.4,308.6 L 159.5,308.6 L 159.5,380.0 Z M 198.4,308.6 L 159.5,380.0 L 198.4,380.0 Z M 193.5,294.4 L 183.8,211.1 L 160.0,232.5 Z M 193.5,294.4 L 160.0,232.5 L 166.4,294.7 Z M 166.4,294.7 L 160.0,232.5 L 120.1,244.3 Z M 166.4,294.7 L 120.1,244.3 L 120.1,268.4 Z M 207.6,143.5 L 194.2,34.0 L 165.7,34.0 Z M 207.6,143.5 L 165.7,34.0 L 183.7,143.6 Z M 219.6,266.8 L 247.7,256.6 L 211.1,211.9 Z M 219.6,266.8 L 211.1,211.9 L 183.8,211.1 Z M 165.7,34.0 L 105.3,58.5 L 110.1,87.0 Z M 165.7,34.0 L 110.1,87.0 L 146.9,101.1 Z M 207.6,143.5 L 227.3,84.2 L 194.2,34.0 Z M 146.9,101.1 L 183.7,143.6 L 165.7,34.0 Z M 183.8,211.1 L 193.5,294.4 L 219.6,266.8 Z M 183.8,211.1 L 179.0,198.4 L 150.2,222.3 Z M 183.8,211.1 L 150.2,222.3 L 160.0,232.5 Z M 160.0,232.5 L 150.2,222.3 L 105.3,236.5 Z M 160.0,232.5 L 105.3,236.5 L 120.1,244.3 Z M 159.5,20.0 L 165.7,34.0 L 194.2,34.0 Z M 159.5,20.0 L 194.2,34.0 L 198.4,20.0 Z M 159.5,20.0 L 88.2,49.2 L 105.3,58.5 Z M 159.5,20.0 L 105.3,58.5 L 165.7,34.0 Z M 217.9,157.7 L 243.8,77.8 L 227.3,84.2 Z M 217.9,157.7 L 227.3,84.2 L 207.6,143.5 Z M 272.3,264.4 L 247.7,256.6 L 219.6,266.8 Z M 272.3,264.4 L 219.6,266.8 L 232.6,274.9 Z M 243.8,77.8 L 198.4,20.0 L 194.2,34.0 Z M 243.8,77.8 L 194.2,34.0 L 227.3,84.2 Z M 105.3,58.5 L 88.2,49.2 L 96.6,94.1 Z M 105.3,58.5 L 96.6,94.1 L 110.1,87.0 Z M 166.4,294.7 L 159.5,308.6 L 198.4,308.6 Z M 166.4,294.7 L 198.4,308.6 L 193.5,294.4 Z M 104.7,277.7 L 159.5,308.6 L 166.4,294.7 Z M 104.7,277.7 L 166.4,294.7 L 120.1,268.4 Z M 104.7,277.7 L 120.1,268.4 L 120.1,244.3 Z M 104.7,277.7 L 120.1,244.3 L 105.3,236.5 Z M 217.9,198.4 L 179.0,198.4 L 183.8,211.1 Z M 217.9,198.4 L 183.8,211.1 L 211.1,211.9 Z M 247.7,256.6 L 272.3,264.4 L 217.9,198.4 Z M 247.7,256.6 L 217.9,198.4 L 211.1,211.9 Z M 207.6,143.5 L 183.7,143.6 L 179.0,157.7 Z M 207.6,143.5 L 179.0,157.7 L 217.9,157.7 Z M 146.9,101.1 L 110.1,87.0 L 96.6,94.1 Z M 146.9,101.1 L 96.6,94.1 L 137.8,109.7 Z M 146.9,101.1 L 137.8,109.7 L 179.0,157.7 Z M 146.9,101.1 L 179.0,157.7 L 183.7,143.6 Z M 232.6,274.9 L 219.6,266.8 L 193.5,294.4 Z M 232.6,274.9 L 193.5,294.4 L 198.4,308.6 Z M 88.2,308.6 L 159.5,308.6 L 104.7,277.7 Z M 88.2,308.6 L 104.7,277.7 L 49.3,276.2 Z M 49.3,276.2 L 104.7,277.7 L 105.3,236.5 Z M 49.3,276.2 L 105.3,236.5 L 20.0,219.6 Z M 198.4,308.6 L 269.8,308.6 L 232.6,274.9 Z M 269.8,308.6 L 272.3,264.4 L 232.6,274.9 Z M 198.4,20.0 L 243.8,77.8 L 269.8,49.2 Z M 243.8,77.8 L 308.7,81.6 L 269.8,49.2 Z M 308.7,81.6 L 243.8,77.8 L 308.7,123.6 Z M 243.8,77.8 L 217.9,157.7 L 308.7,123.6 Z M 217.9,198.4 L 217.9,157.7 L 179.0,157.7 Z M 217.9,198.4 L 179.0,157.7 L 179.0,198.4 Z" fill="#2a2a4e" stroke="none"/>
  <path d="M 159.5,308.6 L 159.5,380.0 M 159.5,380.0 L 198.4,380.0 M 198.4,380.0 L 198.4,308.6 M 179.0,198.4 L 150.2,222.3 M 150.2,222.3 L 105.3,236.5 M 198.4,20.0 L 159.5,20.0 M 159.5,20.0 L 88.2,49.2 M 88.2,49.2 L 96.6,94.1 M 272.3,264.4 L 217.9,198.4 M 96.6,94.1 L 137.8,109.7 M 137.8,109.7 L 179.0,157.7 M 88.2,308.6 L 159.5,308.6 M 49.3,276.2 L 88.2,308.6 M 105.3,236.5 L 20.0,219.6 M 20.0,219.6 L 49.3,276.2 M 198.4,308.6 L 269.8,308.6 M 269.8,308.6 L 272.3,264.4 M 269.8,49.2 L 198.4,20.0 M 308.7,81.6 L 269.8,49.2 M 308.7,123.6 L 308.7,81.6 M 217.9,157.7 L 308.7,123.6 M 217.9,198.4 L 217.9,157.7 M 179.0,157.7 L 179.0,198.4" fill="none" stroke="white" stroke-width="2" stroke-linecap="round"/>
  <polygon points="177.3070830612558,303.85734419655836 185.3070830612558,311.85734419655836 177.3070830612558,319.85734419655836 169.3070830612558,311.85734419655836" fill="#4a9eff" stroke="white" stroke-width="1"/>
</svg>