<svg xmlns="http://www.w3.org/2000/svg" viewBox="0 0 400 400">
  <rect width="400" height="400" fill="#1a1a2e"/>
  <path d="M 217.4,245.0 L 182.6,245.0 L 182.6,308.9 Z M 217.4,245.0 L 182.6,308.9 L 217.4,308.9 Z M 380.0,227.6 L 380.0,192.7 L 316.1,192.7 Z M 380.0,227.6 L 316.1,192.7 L 316.1,227.6 Z M 20.0,111.5 L 20.0,146.3 L 83.9,146.3 Z M 20.0,111.5 L 83.9,146.3 L 83.9,111.5 Z M 212.1,232.3 L 232.1,202.1 L 195.7,169.2 Z M 212.1,232.3 L 195.7,169.2 L 186.9,232.3 Z M 186.9,232.3 L 195.7,169.2 L 157.5,178.7 Z M 186.9,232.3 L 157.5,178.7 L 152.4,200.9 Z M 125.1,53.2 L 109.6,54.1 L 100.7,102.0 Z M 125.1,53.2 L 100.7,102.0 L 165.6,75.6 Z M 165.6,75.6 L 100.7,102.0 L 149.0,118.8 Z M 165.6,75.6 L 149.0,118.8 L 178.7,99.8 Z M 232.1,202.1 L 257.2,189.3 L 262.5,142.1 Z M 232.1,202.1 L 262.5,142.1 L 229.4,133.3 Z M 195.7,169.2 L 232.1,202.1 L 229.4,133.3 Z M 269.0,196.1 L 257.2,189.3 L 232.1,202.1 Z M 269.0,196.1 L 232.1,202.1 L 241.7,209.9 Z M 186.9,232.3 L 182.6,245.0 L 217.4,245.0 Z M 186.9,232.3 L 217.4,245.0 L 212.1,232.3 Z M 137.4,204.9 L 182.6,245.0 L 186.9,232.3 Z M 137.4,204.9 L 186.9,232.3 L 152.4,200.9 Z M 229.4,133.3 L 226.5,120.5 L 190.8,157.6 Z M 229.4,133.3 L 190.8,157.6 L 195.7,169.2 Z M 137.4,204.9 L 152.4,200.9 L 157.5,178.7 Z M 137.4,204.9 L 157.5,178.7 L 147.1,168.5 Z M 275.1,132.7 L 226.5,120.5 L 229.4,133.3 Z M 275.1,132.7 L 229.4,133.3 L 262.5,142.1 Z M 257.2,189.3 L 269.0,196.1 L 275.1,132.7 Z M 257.2,189.3 L 275.1,132.7 L 262.5,142.1 Z M 195.7,169.2 L 190.8,157.6 L 147.1,168.5 Z M 195.7,169.2 L 147.1,168.5 L 157.5,178.7 Z M 241.7,209.9 L 232.1,202.1 L 212.1,232.3 Z M 241.7,209.9 L 212.1,232.3 L 217.4,245.0 Z M 165.6,75.6 L 177.2,66.7 L 132.2,40.5 Z M 165.6,75.6 L 132.2,40.5 L 125.1,53.2 Z M 83.9,111.5 L 153.5,134.3 L 149.0,118.8 Z M 83.9,111.5 L 149.0,118.8 L 100.7,102.0 Z M 153.5,134.3 L 197.1,102.9 L 178.7,99.8 Z M 153.5,134.3 L 178.7,99.8 L 149.0,118.8 Z M 178.7,99.8 L 197.1,102.9 L 177.2,66.7 Z M 178.7,99.8 L 177.2,66.7 L 165.6,75.6 Z M 132.2,40.5 L 98.4,41.8 L 109.6,54.1 Z M 132.2,40.5 L 109.6,54.1 L 125.1,53.2 Z M 109.6,54.1 L 98.4,41.8 L 83.9,111.5 Z M 109.6,54.1 L 83.9,111.5 L 100.7,102.0 Z M 281.3,245.0 L 316.1,227.6 L 316.1,192.7 Z M 281.3,245.0 L 316.1,192.7 L 269.0,196.1 Z M 118.7,245.0 L 182.6,245.0 L 137.4,204.9 Z M 118.7,245.0 L 137.4,204.9 L 83.9,216.0 Z M 83.9,216.0 L 137.4,204.9 L 147.1,168.5 Z M 83.9,216.0 L 147.1,168.5 L 83.9,146.3 Z M 83.9,146.3 L 147.1,168.5 L 153.5,134.3 Z M 83.9,146.3 L 153.5,134.3 L 83.9,111.5 Z M 217.4,245.0 L 281.3,245.0 L 241.7,209.9 Z M 281.3,245.0 L 269.0,196.1 L 241.7,209.9 Z M 275.1,132.7 L 234.8,105.7 L 226.5,120.5 Z M 234.8,105.7 L 197.1,102.9 L 226.5,120.5 Z M 226.5,120.5 L 197.1,102.9 L 190.8,157.6 Z M 153.5,134.3 L 147.1,168.5 L 190.8,157.6 Z M 153.5,134.3 L 190.8,157.6 L 197.1,102.9 Z M 124.9,20.0 L 98.4,41.8 L 132.2,40.5 Z" fill="#2a2a4e" stroke="none"/>
  <path d="M 182.6,245.0 L 182.6,308.9 M 182.6,308.9 L 217.4,308.9 M 217.4,308.9 L 217.4,245.0 M 380.0,227.6 L 380.0,192.7 M 380.0,192.7 L 316.1,192.7 M 316.1,227.6 L 380.0,227.6 M 20.0,111.5 L 20.0,146.3 M 20.0,146.3 L 83.9,146.3 M 83.9,111.5 L 20.0,111.5 M 269.0,196.1 L 275.1,132.7 M 177.2,66.7 L 132.2,40.5 M 197.1,102.9 L 177.2,66.7 M 98.4,41.8 L 83.9,111.5 M 281.3,245.0 L 316.1,227.6 M 316.1,192.7 L 269.0,196.1 M 118.7,245.0 L 182.6,245.0 M 83.9,216.0 L 118.7,245.0 M 83.9,146.3 L 83.9,216.0 M 217.4,245.0 L 281.3,245.0 M 275.1,132.7 L 234.8,105.7 M 234.8,105.7 L 197.1,102.9 M 124.9,20.0 L 98.4,41.8 M 132.2,40.5 L 124.9,20.0" fill="none" stroke="white" stroke-width="2" stroke-linecap="round"/>
  <polygon points="197.5822054207778,246.95204027637365 205.5822054207778,254.95204027637365 197.5822054207778,262.9520402763736 189.5822054207778,254.95204027637365" fill="#4a9eff" stroke="white" stroke-width="1"/>
<polygon points="79.51931147843672,118.6034229419333 87.51931147843672,126.6034229419333 79.51931147843672,134.6034229419333 71.51931147843672,126.6034229419333" fill="#4a9eff" stroke="white" stroke-width="1"/>
<polygon points="319.3393419005862,202.0439719736264 327.3393419005862,210.0439719736264 319.3393419005862,218.0439719736264 311.3393419005862,210.0439719736264" fill="#4a9eff" stroke="white" stroke-width="1"/>
</svg>