<svg xmlns="http://www.w3.org/2000/svg" viewBox="0 0 400 400">
  <rect width="400" height="400" fill="#1a1a2e"/>
  <path d="M 380.0,193.7 L 301.1,193.7 L 301.1,231.6 Z M 380.0,193.7 L 301.1,231.6 L 380.0,231.6 Z M 111.6,301.1 L 70.5,301.1 L 32.6,338.9 Z M 111.6,301.1 L 32.6,338.9 L 111.6,338.9 Z M 32.6,338.9 L 70.5,301.1 L 70.5,209.5 Z M 32.6,338.9 L 70.5,209.5 L 32.6,209.5 Z M 95.8,20.0 L 95.8,98.9 L 133.7,98.9 Z M 95.8,20.0 L 133.7,98.9 L 133.7,20.0 Z M 137.2,269.5 L 124.2,279.1 L 124.2,301.1 Z M 137.2,269.5 L 124.2,301.1 L 163.2,289.7 Z M 163.2,289.7 L 124.2,301.1 L 124.2,338.9 Z M 163.2,289.7 L 124.2,338.9 L 180.4,327.1 Z M 133.7,187.2 L 133.7,111.6 L 124.2,146.3 Z M 133.7,111.6 L 95.8,111.6 L 124.2,146.3 Z M 288.4,83.2 L 216.9,83.2 L 193.7,114.8 Z M 288.4,83.2 L 193.7,114.8 L 254.4,111.6 Z M 231.6,338.9 L 180.4,327.1 L 124.2,338.9 Z M 288.4,169.1 L 288.4,83.2 L 254.4,111.6 Z M 288.4,169.1 L 254.4,111.6 L 193.7,114.8 Z M 288.4,169.1 L 193.7,114.8 L 280.3,177.1 Z M 280.3,177.1 L 193.7,114.8 L 251.1,249.5 Z M 280.3,177.1 L 251.1,249.5 L 288.4,193.4 Z M 123.8,196.8 L 133.7,187.2 L 124.2,146.3 Z M 123.8,196.8 L 124.2,146.3 L 70.5,196.8 Z M 70.5,196.8 L 124.2,146.3 L 95.8,111.6 Z M 70.5,196.8 L 95.8,111.6 L 32.6,111.6 Z M 193.7,114.8 L 193.7,269.5 L 251.1,249.5 Z M 193.7,269.5 L 231.6,338.9 L 251.1,249.5 Z M 231.6,338.9 L 193.7,269.5 L 163.2,289.7 Z M 231.6,338.9 L 163.2,289.7 L 180.4,327.1 Z M 288.4,231.6 L 251.1,249.5 L 231.6,338.9 Z M 288.4,231.6 L 231.6,338.9 L 288.4,338.9 Z M 193.7,269.5 L 137.2,269.5 L 163.2,289.7 Z M 288.4,193.4 L 251.1,249.5 L 288.4,231.6 Z M 32.6,196.8 L 70.5,196.8 L 32.6,111.6 Z M 216.9,83.2 L 216.9,70.5 L 193.7,114.8 Z M 288.4,193.4 L 301.1,193.4 L 301.1,153.1 Z M 288.4,193.4 L 301.1,153.1 L 288.4,169.1 Z M 280.3,177.1 L 288.4,193.4 L 288.4,169.1 Z M 124.2,301.1 L 111.6,301.1 L 111.6,351.6 Z M 124.2,301.1 L 111.6,351.6 L 124.2,338.9 Z M 301.1,231.6 L 301.1,193.7 L 288.4,193.7 Z M 301.1,231.6 L 288.4,193.7 L 288.4,231.6 Z M 70.5,196.8 L 32.6,196.8 L 20.0,209.5 Z M 70.5,196.8 L 20.0,209.5 L 70.5,209.5 Z M 146.3,98.9 L 95.8,98.9 L 95.8,111.6 Z M 146.3,98.9 L 95.8,111.6 L 133.7,111.6 Z M 124.2,279.1 L 111.6,288.4 L 111.6,301.1 Z M 124.2,279.1 L 111.6,301.1 L 124.2,301.1 Z M 111.6,351.6 L 231.6,351.6 L 231.6,338.9 Z M 111.6,351.6 L 231.6,338.9 L 124.2,338.9 Z M 301.1,351.6 L 301.1,231.6 L 288.4,231.6 Z M 301.1,351.6 L 288.4,231.6 L 288.4,338.9 Z M 216.9,83.2 L 288.4,83.2 L 301.1,70.5 Z M 216.9,83.2 L 301.1,70.5 L 216.9,70.5 Z M 301.1,351.6 L 288.4,338.9 L 231.6,338.9 Z M 301.1,351.6 L 231.6,338.9 L 231.6,351.6 Z M 181.1,256.8 L 154.3,256.8 L 137.2,269.5 Z M 181.1,256.8 L 137.2,269.5 L 193.7,269.5 Z M 288.4,169.1 L 301.1,153.1 L 301.1,70.5 Z M 288.4,169.1 L 301.1,70.5 L 288.4,83.2 Z M 181.1,118.7 L 181.1,256.8 L 193.7,269.5 Z M 181.1,118.7 L 193.7,269.5 L 193.7,114.8 Z M 133.7,187.2 L 146.3,177.9 L 146.3,98.9 Z M 133.7,187.2 L 146.3,98.9 L 133.7,111.6 Z M 20.0,209.5 L 32.6,196.8 L 32.6,111.6 Z M 20.0,209.5 L 32.6,111.6 L 20.0,98.9 Z M 95.8,111.6 L 95.8,98.9 L 20.0,98.9 Z M 95.8,111.6 L 20.0,98.9 L 32.6,111.6 Z M 70.5,209.5 L 106.7,209.5 L 123.8,196.8 Z M 70.5,209.5 L 123.8,196.8 L 70.5,196.8 Z" fill="#2a2a4e" stroke="none"/>
  <path d="M 380.0,193.7 L 301.1,193.7 M 301.1,231.6 L 380.0,231.6 M 380.0,231.6 L 380.0,193.7 M 111.6,301.1 L 70.5,301.1 M 32.6,338.9 L 111.6,338.9 M 111.6,338.9 L 111.6,301.1 M 70.5,301.1 L 70.5,209.5 M 70.5,209.5 L 32.6,209.5 M 32.6,209.5 L 32.6,338.9 M 95.8,20.0 L 95.8,98.9 M 95.8,98.9 L 133.7,98.9 M 133.7,98.9 L 133.7,20.0 M 133.7,20.0 L 95.8,20.0 M 137.2,269.5 L 124.2,279.1 M 123.8,196.8 L 133.7,187.2 M 288.4,231.6 L 288.4,193.4 M 216.9,70.5 L 193.7,114.8 M 288.4,193.4 L 301.1,193.4 M 301.1,193.4 L 301.1,153.1 M 111.6,301.1 L 111.6,351.6 M 301.1,193.7 L 288.4,193.7 M 288.4,193.7 L 288.4,231.6 M 20.0,209.5 L 70.5,209.5 M 146.3,98.9 L 95.8,98.9 M 124.2,279.1 L 111.6,288.4 M 111.6,288.4 L 111.6,301.1 M 111.6,351.6 L 231.6,351.6 M 301.1,351.6 L 301.1,231.6 M 301.1,70.5 L 216.9,70.5 M 231.6,351.6 L 301.1,351.6 M 181.1,256.8 L 154.3,256.8 M 154.3,256.8 L 137.2,269.5 M 301.1,153.1 L 301.1,70.5 M 181.1,118.7 L 181.1,256.8 M 193.7,114.8 L 181.1,118.7 M 133.7,187.2 L 146.3,177.9 M 146.3,177.9 L 146.3,98.9 M 20.0,98.9 L 20.0,209.5 M 95.8,98.9 L 20.0,98.9 M 70.5,209.5 L 106.7,209.5 M 106.7,209.5 L 123.8,196.8" fill="none" stroke="white" stroke-width="2" stroke-linecap="round"/>
  <polygon points="300.5597281695614,203.25995601726063 308.5597281695614,211.25995601726063 300.5597281695614,219.25995601726063 292.5597281695614,211.25995601726063" fill="#4a9eff" stroke="white" stroke-width="1"/>
<polygon points="113.9767206744233,89.44337380706676 121.9767206744233,97.44337380706676 113.9767206744233,105.44337380706676 105.9767206744233,97.44337380706676" fill="#4a9eff" stroke="white" stroke-width="1"/>
</svg>