<svg xmlns="http://www.w3.org/2000/svg" viewBox="0 0 400 400">
  <rect width="400" height="400" fill="#1a1a2e"/>
  <path d="M 214.7,228.0 L 214.7,318.2 L 244.8,318.2 Z M 214.7,228.0 L 244.8,318.2 L 244.8,228.0 Z M 380.0,140.4 L 380.0,110.3 L 307.4,110.3 Z M 380.0,140.4 L 307.4,110.3 L 307.4,140.4 Z M 130.0,187.8 L 20.0,187.8 L 20.0,217.8 Z M 130.0,187.8 L 20.0,217.8 L 130.0,217.8 Z M 214.7,218.0 L 244.8,218.0 L 286.2,153.3 Z M 214.7,218.0 L 286.2,153.3 L 237.5,144.4 Z M 237.5,144.4 L 286.2,153.3 L 297.4,140.4 Z M 237.5,144.4 L 297.4,140.4 L 270.5,99.1 Z M 297.4,140.4 L 297.4,110.3 L 270.5,99.1 Z M 297.4,110.3 L 272.3,57.3 L 270.5,99.1 Z M 270.5,99.1 L 272.3,57.3 L 215.2,67.7 Z M 214.7,218.0 L 237.5,144.4 L 176.0,155.0 Z M 237.5,144.4 L 182.9,86.1 L 176.0,155.0 Z M 270.5,99.1 L 215.2,67.7 L 237.5,144.4 Z M 215.2,67.7 L 182.9,86.1 L 237.5,144.4 Z M 126.2,131.2 L 176.0,155.0 L 182.9,86.1 Z M 126.2,131.2 L 182.9,86.1 L 138.5,101.2 Z M 297.4,181.7 L 286.2,153.3 L 244.8,218.0 Z M 215.2,67.7 L 197.7,67.7 L 182.9,86.1 Z M 297.4,140.4 L 286.2,153.3 L 307.4,140.4 Z M 286.2,153.3 L 297.4,181.7 L 307.4,140.4 Z M 215.2,67.7 L 272.3,57.3 L 215.2,30.0 Z M 272.3,57.3 L 277.5,30.0 L 215.2,30.0 Z M 95.0,135.4 L 126.2,131.2 L 95.0,67.6 Z M 126.2,131.2 L 138.5,101.2 L 95.0,67.6 Z M 95.0,67.6 L 138.5,101.2 L 182.9,86.1 Z M 297.4,110.3 L 297.4,46.8 L 277.5,30.0 Z M 297.4,110.3 L 277.5,30.0 L 272.3,57.3 Z M 140.0,153.3 L 140.0,187.8 L 214.7,218.0 Z M 140.0,153.3 L 214.7,218.0 L 176.0,155.0 Z M 126.2,131.2 L 140.0,153.3 L 176.0,155.0 Z M 140.0,187.8 L 140.0,218.0 L 214.7,218.0 Z M 182.9,86.1 L 197.7,67.7 L 95.0,67.6 Z M 277.5,30.0 L 285.9,27.8 L 273.8,20.0 Z M 307.4,47.0 L 285.9,27.8 L 277.5,30.0 Z M 307.4,47.0 L 277.5,30.0 L 297.4,46.8 Z M 197.7,67.7 L 205.2,57.6 L 159.6,57.6 Z M 244.8,218.0 L 214.7,218.0 L 214.7,228.0 Z M 244.8,218.0 L 214.7,228.0 L 244.8,228.0 Z M 297.4,110.3 L 297.4,140.4 L 307.4,140.4 Z M 297.4,110.3 L 307.4,140.4 L 307.4,110.3 Z M 130.0,217.8 L 140.0,217.8 L 140.0,187.8 Z M 130.0,217.8 L 140.0,187.8 L 130.0,187.8 Z M 297.4,181.7 L 307.4,186.7 L 307.4,140.4 Z M 140.0,153.3 L 126.2,131.2 L 95.0,135.4 Z M 85.0,143.4 L 95.0,135.4 L 95.0,67.6 Z M 85.0,143.4 L 95.0,67.6 L 85.0,57.6 Z M 277.5,30.0 L 273.8,20.0 L 205.2,20.0 Z M 277.5,30.0 L 205.2,20.0 L 215.2,30.0 Z M 215.2,67.7 L 215.2,30.0 L 205.2,20.0 Z M 215.2,67.7 L 205.2,20.0 L 205.2,57.6 Z M 307.4,110.3 L 307.4,47.0 L 297.4,46.8 Z M 307.4,110.3 L 297.4,46.8 L 297.4,110.3 Z M 214.7,218.0 L 140.0,218.0 L 130.0,228.0 Z M 214.7,218.0 L 130.0,228.0 L 214.7,228.0 Z M 197.7,67.7 L 159.6,57.6 L 85.0,57.6 Z M 197.7,67.7 L 85.0,57.6 L 95.0,67.6 Z M 85.0,143.4 L 130.0,161.2 L 140.0,153.3 Z M 85.0,143.4 L 140.0,153.3 L 95.0,135.4 Z M 297.4,181.7 L 244.8,218.0 L 244.8,228.0 Z M 297.4,181.7 L 244.8,228.0 L 307.4,186.7 Z M 130.0,187.8 L 140.0,187.8 L 140.0,153.3 Z M 130.0,187.8 L 140.0,153.3 L 130.0,161.2 Z M 197.7,67.7 L 215.2,67.7 L 205.2,57.6 Z M 130.0,217.8 L 130.0,228.0 L 140.0,218.0 Z" fill="#2a2a4e" stroke="none"/>
  <path d="M 214.7,228.0 L 214.7,318.2 M 214.7,318.2 L 244.8,318.2 M 244.8,318.2 L 244.8,228.0 M 380.0,140.4 L 380.0,110.3 M 380.0,110.3 L 307.4,110.3 M 307.4,140.4 L 380.0,140.4 M 130.0,187.8 L 20.0,187.8 M 20.0,187.8 L 20.0,217.8 M 20.0,217.8 L 130.0,217.8 M 140.0,187.8 L 140.0,218.0 M 285.9,27.8 L 273.8,20.0 M 307.4,47.0 L 285.9,27.8 M 205.2,57.6 L 159.6,57.6 M 130.0,217.8 L 140.0,217.8 M 140.0,217.8 L 140.0,187.8 M 307.4,186.7 L 307.4,140.4 M 85.0,57.6 L 85.0,143.4 M 273.8,20.0 L 205.2,20.0 M 205.2,20.0 L 205.2,57.6 M 307.4,110.3 L 307.4,47.0 M 130.0,228.0 L 214.7,228.0 M 159.6,57.6 L 85.0,57.6 M 85.0,143.4 L 130.0,161.2 M 244.8,228.0 L 307.4,186.7 M 130.0,161.2 L 130.0,187.8 M 130.0,217.8 L 130.0,228.0 M 140.0,218.0 L 130.0,217.8" fill="none" stroke="white" stroke-width="2" stroke-linecap="round"/>
  
</svg>