<svg xmlns="http://www.w3.org/2000/svg" viewBox="0 0 400 400">
  <rect width="400" height="400" fill="#1a1a2e"/>
  <path d="M 99.6,99.6 L 143.0,99.6 L 143.0,20.0 Z M 99.6,99.6 L 143.0,20.0 L 99.6,20.0 Z M 345.6,266.0 L 345.6,222.6 L 266.0,222.6 Z M 345.6,266.0 L 266.0,222.6 L 266.0,266.0 Z M 106.2,115.4 L 81.3,153.0 L 126.7,194.1 Z M 106.2,115.4 L 126.7,194.1 L 137.6,115.4 Z M 137.6,115.4 L 126.7,194.1 L 174.2,182.3 Z M 137.6,115.4 L 174.2,182.3 L 180.6,154.5 Z M 214.7,338.6 L 234.0,337.5 L 245.1,277.8 Z M 214.7,338.6 L 245.1,277.8 L 164.2,310.7 Z M 164.2,310.7 L 245.1,277.8 L 184.9,256.9 Z M 164.2,310.7 L 184.9,256.9 L 147.9,280.6 Z M 81.3,153.0 L 50.0,169.0 L 43.4,227.9 Z M 81.3,153.0 L 43.4,227.9 L 84.6,238.8 Z M 126.7,194.1 L 81.3,153.0 L 84.6,238.8 Z M 35.3,160.6 L 50.0,169.0 L 81.3,153.0 Z M 35.3,160.6 L 81.3,153.0 L 69.3,143.3 Z M 137.6,115.4 L 143.0,99.6 L 99.6,99.6 Z M 137.6,115.4 L 99.6,99.6 L 106.2,115.4 Z M 199.3,149.5 L 143.0,99.6 L 137.6,115.4 Z M 199.3,149.5 L 137.6,115.4 L 180.6,154.5 Z M 84.6,238.8 L 88.2,254.8 L 132.8,208.5 Z M 84.6,238.8 L 132.8,208.5 L 126.7,194.1 Z M 199.3,149.5 L 180.6,154.5 L 174.2,182.3 Z M 199.3,149.5 L 174.2,182.3 L 187.3,194.9 Z M 27.7,239.5 L 88.2,254.8 L 84.6,238.8 Z M 27.7,239.5 L 84.6,238.8 L 43.4,227.9 Z M 50.0,169.0 L 35.3,160.6 L 27.7,239.5 Z M 50.0,169.0 L 27.7,239.5 L 43.4,227.9 Z M 126.7,194.1 L 132.8,208.5 L 187.3,194.9 Z M 126.7,194.1 L 187.3,194.9 L 174.2,182.3 Z M 69.3,143.3 L 81.3,153.0 L 106.2,115.4 Z M 69.3,143.3 L 106.2,115.4 L 99.6,99.6 Z M 164.2,310.7 L 149.8,321.8 L 205.9,354.5 Z M 164.2,310.7 L 205.9,354.5 L 214.7,338.6 Z M 266.0,266.0 L 179.3,237.5 L 184.9,256.9 Z M 266.0,266.0 L 184.9,256.9 L 245.1,277.8 Z M 179.3,237.5 L 124.9,276.7 L 147.9,280.6 Z M 179.3,237.5 L 147.9,280.6 L 184.9,256.9 Z M 147.9,280.6 L 124.9,276.7 L 149.8,321.8 Z M 147.9,280.6 L 149.8,321.8 L 164.2,310.7 Z M 205.9,354.5 L 247.9,352.9 L 234.0,337.5 Z M 205.9,354.5 L 234.0,337.5 L 214.7,338.6 Z M 234.0,337.5 L 247.9,352.9 L 266.0,266.0 Z M 234.0,337.5 L 266.0,266.0 L 245.1,277.8 Z M 222.6,99.6 L 143.0,99.6 L 199.3,149.5 Z M 222.6,99.6 L 199.3,149.5 L 266.0,135.8 Z M 266.0,135.8 L 199.3,149.5 L 187.3,194.9 Z M 266.0,135.8 L 187.3,194.9 L 266.0,222.6 Z M 266.0,222.6 L 187.3,194.9 L 179.3,237.5 Z M 266.0,222.6 L 179.3,237.5 L 266.0,266.0 Z M 99.6,99.6 L 20.0,99.6 L 69.3,143.3 Z M 20.0,99.6 L 35.3,160.6 L 69.3,143.3 Z M 27.7,239.5 L 78.0,273.2 L 88.2,254.8 Z M 78.0,273.2 L 124.9,276.7 L 88.2,254.8 Z M 88.2,254.8 L 124.9,276.7 L 132.8,208.5 Z M 179.3,237.5 L 187.3,194.9 L 132.8,208.5 Z M 179.3,237.5 L 132.8,208.5 L 124.9,276.7 Z M 214.9,380.0 L 247.9,352.9 L 205.9,354.5 Z" fill="#2a2a4e" stroke="none"/>
  <path d="M 143.0,99.6 L 143.0,20.0 M 143.0,20.0 L 99.6,20.0 M 99.6,20.0 L 99.6,99.6 M 345.6,266.0 L 345.6,222.6 M 345.6,222.6 L 266.0,222.6 M 266.0,266.0 L 345.6,266.0 M 35.3,160.6 L 27.7,239.5 M 149.8,321.8 L 205.9,354.5 M 124.9,276.7 L 149.8,321.8 M 247.9,352.9 L 266.0,266.0 M 222.6,99.6 L 143.0,99.6 M 266.0,135.8 L 222.6,99.6 M 266.0,222.6 L 266.0,135.8 M 99.6,99.6 L 20.0,99.6 M 20.0,99.6 L 35.3,160.6 M 27.7,239.5 L 78.0,273.2 M 78.0,273.2 L 124.9,276.7 M 214.9,380.0 L 247.9,352.9 M 205.9,354.5 L 214.9,380.0" fill="none" stroke="white" stroke-width="2" stroke-linecap="round"/>
  <polygon points="122.7315787639744,86.45727058485019 130.7315787639744,94.45727058485019 122.7315787639744,102.45727058485019 114.7315787639744,94.45727058485019" fill="#4a9eff" stroke="white" stroke-width="1"/>
<polygon points="268.155033854738,235.67452440136339 276.155033854738,243.67452440136339 268.155033854738,251.67452440136339 260.155033854738,243.67452440136339" fill="#4a9eff" stroke="white" stroke-width="1"/>
</svg>