<svg xmlns="http://www.w3.org/2000/svg" viewBox="0 0 400 400">
  <rect width="400" height="400" fill="#1a1a2e"/>
  <path d="M 107.7,169.0 L 98.7,218.2 L 127.9,194.0 Z M 98.7,218.2 L 141.2,221.5 L 127.9,194.0 Z M 86.9,248.5 L 115.2,239.3 L 98.7,218.2 Z M 115.2,239.3 L 141.2,221.5 L 98.7,218.2 Z M 64.1,242.1 L 86.9,248.5 L 98.7,218.2 Z M 64.1,242.1 L 98.7,218.2 L 62.3,227.7 Z M 45.1,214.2 L 62.3,227.7 L 63.4,171.0 Z M 45.1,214.2 L 63.4,171.0 L 46.7,183.5 Z M 80.1,139.6 L 63.4,171.0 L 98.7,218.2 Z M 80.1,139.6 L 98.7,218.2 L 107.7,169.0 Z M 153.6,217.3 L 154.5,206.3 L 127.9,194.0 Z M 153.6,217.3 L 127.9,194.0 L 141.2,221.5 Z M 115.2,239.3 L 86.9,248.5 L 94.7,265.8 Z M 115.2,239.3 L 94.7,265.8 L 107.7,266.6 Z M 63.4,171.0 L 62.3,227.7 L 98.7,218.2 Z M 107.7,169.0 L 104.4,144.3 L 80.1,139.6 Z M 63.4,171.0 L 80.1,139.6 L 69.9,149.0 Z M 78.9,284.2 L 94.7,265.8 L 86.9,248.5 Z M 78.9,284.2 L 86.9,248.5 L 74.3,262.3 Z M 74.3,262.3 L 86.9,248.5 L 64.1,242.1 Z M 74.3,262.3 L 64.1,242.1 L 49.4,252.3 Z M 49.4,252.3 L 64.1,242.1 L 62.3,227.7 Z M 49.4,252.3 L 62.3,227.7 L 42.2,233.4 Z M 42.2,233.4 L 62.3,227.7 L 45.1,214.2 Z M 42.2,233.4 L 45.1,214.2 L 29.1,227.6 Z M 29.1,227.6 L 45.1,214.2 L 46.7,183.5 Z M 29.1,227.6 L 46.7,183.5 L 26.1,185.0 Z M 26.1,185.0 L 46.7,183.5 L 63.4,171.0 Z M 26.1,185.0 L 63.4,171.0 L 45.6,160.1 Z M 45.6,160.1 L 63.4,171.0 L 69.9,149.0 Z M 45.6,160.1 L 69.9,149.0 L 52.5,132.1 Z M 52.5,132.1 L 69.9,149.0 L 80.1,139.6 Z M 52.5,132.1 L 80.1,139.6 L 78.9,122.4 Z M 78.9,122.4 L 80.1,139.6 L 104.4,144.3 Z M 78.9,122.4 L 104.4,144.3 L 93.5,107.7 Z M 118.5,122.4 L 104.4,144.3 L 107.7,169.0 Z M 118.5,122.4 L 107.7,169.0 L 116.5,169.1 Z M 116.5,169.1 L 107.7,169.0 L 127.9,194.0 Z M 116.5,169.1 L 127.9,194.0 L 129.4,187.1 Z M 129.4,187.1 L 127.9,194.0 L 154.5,206.3 Z M 129.4,187.1 L 154.5,206.3 L 175.0,196.3 Z M 175.0,196.3 L 154.5,206.3 L 153.6,217.3 Z M 175.0,196.3 L 153.6,217.3 L 164.6,226.0 Z M 164.6,226.0 L 153.6,217.3 L 141.2,221.5 Z M 164.6,226.0 L 141.2,221.5 L 138.9,229.5 Z M 138.9,229.5 L 141.2,221.5 L 115.2,239.3 Z M 138.9,229.5 L 115.2,239.3 L 117.5,248.8 Z M 117.5,248.8 L 115.2,239.3 L 107.7,266.6 Z M 117.5,248.8 L 107.7,266.6 L 117.0,273.1 Z M 117.0,273.1 L 107.7,266.6 L 94.7,265.8 Z M 117.0,273.1 L 94.7,265.8 L 91.3,297.0 Z M 78.9,332.1 L 78.9,380.0 L 105.4,315.0 Z M 78.9,380.0 L 118.5,380.0 L 105.4,315.0 Z M 105.4,315.0 L 118.5,380.0 L 118.5,332.1 Z M 118.5,46.4 L 128.4,20.0 L 88.8,20.0 Z M 118.5,46.4 L 88.8,20.0 L 78.9,46.4 Z M 94.7,265.8 L 78.9,284.2 L 91.3,297.0 Z M 104.4,144.3 L 118.5,122.4 L 93.5,107.7 Z M 91.3,297.0 L 118.5,284.2 L 117.0,273.1 Z M 118.5,284.2 L 145.0,284.2 L 117.0,273.1 Z M 175.0,196.3 L 164.6,226.0 L 177.3,227.9 Z M 164.6,226.0 L 171.4,257.6 L 177.3,227.9 Z M 175.0,196.3 L 147.8,158.5 L 129.4,187.1 Z M 147.8,158.5 L 116.5,169.1 L 129.4,187.1 Z M 26.1,185.0 L 45.6,160.1 L 23.5,156.3 Z M 45.6,160.1 L 52.5,132.1 L 23.5,156.3 Z M 118.5,122.4 L 118.5,46.4 L 93.5,107.7 Z M 118.5,46.4 L 78.9,46.4 L 93.5,107.7 Z M 93.5,107.7 L 78.9,46.4 L 78.9,122.4 Z M 118.5,332.1 L 118.5,284.2 L 105.4,315.0 Z M 118.5,284.2 L 91.3,297.0 L 105.4,315.0 Z M 105.4,315.0 L 91.3,297.0 L 78.9,332.1 Z M 91.3,297.0 L 78.9,284.2 L 78.9,332.1 Z M 147.8,132.1 L 118.5,122.4 L 116.5,169.1 Z M 147.8,132.1 L 116.5,169.1 L 147.8,158.5 Z M 117.5,248.8 L 117.0,273.1 L 145.0,284.2 Z M 117.5,248.8 L 145.0,284.2 L 145.0,257.6 Z M 171.4,257.6 L 164.6,226.0 L 138.9,229.5 Z M 171.4,257.6 L 138.9,229.5 L 145.0,257.6 Z M 74.3,262.3 L 49.4,252.3 L 26.1,257.6 Z M 74.3,262.3 L 26.1,257.6 L 52.5,284.2 Z M 29.1,227.6 L 20.0,237.8 L 49.4,252.3 Z M 29.1,227.6 L 49.4,252.3 L 42.2,233.4 Z M 52.5,284.2 L 78.9,284.2 L 74.3,262.3 Z M 145.0,257.6 L 138.9,229.5 L 117.5,248.8 Z M 26.1,257.6 L 49.4,252.3 L 20.0,237.8 Z M 20.0,237.8 L 29.1,227.6 L 26.1,185.0 Z" fill="#2a2a4e" stroke="none"/>
  <path d="M 78.9,122.4 L 52.5,132.1 M 78.9,332.1 L 78.9,380.0 M 78.9,380.0 L 118.5,380.0 M 118.5,380.0 L 118.5,332.1 M 118.5,46.4 L 128.4,20.0 M 128.4,20.0 L 88.8,20.0 M 88.8,20.0 L 78.9,46.4 M 118.5,284.2 L 145.0,284.2 M 177.3,227.9 L 175.0,196.3 M 171.4,257.6 L 177.3,227.9 M 175.0,196.3 L 147.8,158.5 M 23.5,156.3 L 26.1,185.0 M 52.5,132.1 L 23.5,156.3 M 118.5,122.4 L 118.5,46.4 M 78.9,46.4 L 78.9,122.4 M 118.5,332.1 L 118.5,284.2 M 78.9,284.2 L 78.9,332.1 M 147.8,132.1 L 118.5,122.4 M 147.8,158.5 L 147.8,132.1 M 145.0,284.2 L 145.0,257.6 M 145.0,257.6 L 171.4,257.6 M 26.1,257.6 L 52.5,284.2 M 52.5,284.2 L 78.9,284.2 M 20.0,237.8 L 26.1,257.6 M 26.1,185.0 L 20.0,237.8" fill="none" stroke="white" stroke-width="2" stroke-linecap="round"/>
  <polygon points="98.91253175415721,99.21947662846794 106.91253175415721,107.21947662846794 98.91253175415721,115.21947662846794 90.91253175415721,107.21947662846794" fill="#4a9eff" stroke="white" stroke-width="1"/>
<polygon points="98.54099191757537,290.4834296196316 106.54099191757537,298.4834296196316 98.54099191757537,306.4834296196316 90.54099191757537,298.4834296196316" fill="#4a9eff" stroke="white" stroke-width="1"/>
</svg>