<svg xmlns="http://www.w3.org/2000/svg" viewBox="0 0 400 400">
  <rect width="400" height="400" fill="#1a1a2e"/>
  <path d="M 280.3,100.3 L 211.1,100.3 L 211.1,133.5 Z M 280.3,100.3 L 211.1,133.5 L 247.1,133.5 Z M 247.1,213.8 L 280.3,213.8 L 280.3,100.3 Z M 247.1,213.8 L 280.3,100.3 L 247.1,133.5 Z M 80.9,89.2 L 80.9,20.0 L 47.7,20.0 Z M 80.9,89.2 L 47.7,20.0 L 47.7,89.2 Z M 191.7,310.8 L 191.7,380.0 L 224.9,380.0 Z M 191.7,310.8 L 224.9,380.0 L 224.9,310.8 Z M 188.6,161.2 L 200.0,152.8 L 200.0,133.5 Z M 188.6,161.2 L 200.0,133.5 L 165.8,143.5 Z M 165.8,143.5 L 200.0,133.5 L 200.0,100.3 Z M 165.8,143.5 L 200.0,100.3 L 150.7,110.7 Z M 191.7,233.4 L 191.7,299.7 L 200.0,269.2 Z M 191.7,299.7 L 224.9,299.7 L 200.0,269.2 Z M 114.2,296.8 L 60.9,299.7 L 31.1,324.6 Z M 114.2,296.8 L 31.1,324.6 L 93.8,324.6 Z M 80.9,100.3 L 150.7,110.7 L 200.0,100.3 Z M 31.1,249.3 L 31.1,324.6 L 60.9,299.7 Z M 200.3,224.9 L 191.7,233.4 L 200.0,269.2 Z M 200.3,224.9 L 200.0,269.2 L 247.1,224.9 Z M 247.1,224.9 L 200.0,269.2 L 224.9,299.7 Z M 247.1,224.9 L 224.9,299.7 L 280.3,299.7 Z M 165.8,143.5 L 150.7,110.7 L 80.9,100.3 Z M 165.8,143.5 L 80.9,100.3 L 114.2,161.2 Z M 114.2,161.2 L 80.9,100.3 L 47.7,100.3 Z M 114.2,161.2 L 47.7,100.3 L 63.8,178.8 Z M 63.8,178.8 L 47.7,100.3 L 31.1,100.3 Z M 63.8,178.8 L 31.1,100.3 L 31.1,227.9 Z M 31.1,249.3 L 60.9,299.7 L 114.2,296.8 Z M 31.1,249.3 L 114.2,296.8 L 38.2,242.2 Z M 38.2,242.2 L 114.2,296.8 L 63.8,178.8 Z M 38.2,242.2 L 63.8,178.8 L 31.1,227.9 Z M 280.3,224.9 L 247.1,224.9 L 280.3,299.7 Z M 114.2,161.2 L 188.6,161.2 L 165.8,143.5 Z M 114.2,161.2 L 63.8,178.8 L 114.2,296.8 Z M 93.8,324.6 L 93.8,335.7 L 114.2,296.8 Z M 20.0,263.3 L 31.1,249.3 L 31.1,227.9 Z M 20.0,263.3 L 31.1,227.9 L 20.0,227.9 Z M 38.2,242.2 L 31.1,227.9 L 31.1,249.3 Z M 291.4,213.8 L 247.1,213.8 L 247.1,224.9 Z M 291.4,213.8 L 247.1,224.9 L 280.3,224.9 Z M 211.1,89.2 L 200.0,100.3 L 200.0,133.5 Z M 211.1,89.2 L 200.0,133.5 L 211.1,133.5 Z M 47.7,100.3 L 80.9,100.3 L 80.9,89.2 Z M 47.7,100.3 L 80.9,89.2 L 47.7,89.2 Z M 224.9,299.7 L 191.7,299.7 L 180.6,310.8 Z M 224.9,299.7 L 180.6,310.8 L 224.9,310.8 Z M 180.6,310.8 L 191.7,299.7 L 191.7,233.4 Z M 180.6,310.8 L 191.7,233.4 L 180.6,241.5 Z M 280.3,299.7 L 291.4,310.8 L 291.4,213.8 Z M 280.3,299.7 L 291.4,213.8 L 280.3,224.9 Z M 291.4,310.8 L 280.3,299.7 L 224.9,299.7 Z M 291.4,310.8 L 224.9,299.7 L 224.9,310.8 Z M 211.1,133.5 L 200.0,133.5 L 200.0,152.8 Z M 211.1,133.5 L 200.0,152.8 L 211.1,144.6 Z M 80.9,100.3 L 200.0,100.3 L 211.1,89.2 Z M 80.9,100.3 L 211.1,89.2 L 80.9,89.2 Z M 31.1,227.9 L 31.1,100.3 L 20.0,89.2 Z M 31.1,227.9 L 20.0,89.2 L 20.0,227.9 Z M 20.0,335.7 L 93.8,335.7 L 93.8,324.6 Z M 20.0,335.7 L 93.8,324.6 L 31.1,324.6 Z M 47.7,100.3 L 47.7,89.2 L 20.0,89.2 Z M 47.7,100.3 L 20.0,89.2 L 31.1,100.3 Z M 188.6,161.2 L 114.2,161.2 L 125.2,172.3 Z M 188.6,161.2 L 125.2,172.3 L 173.6,172.3 Z M 200.3,224.9 L 247.1,224.9 L 247.1,213.8 Z M 200.3,224.9 L 247.1,213.8 L 215.3,213.8 Z M 20.0,335.7 L 31.1,324.6 L 31.1,249.3 Z M 20.0,335.7 L 31.1,249.3 L 20.0,263.3 Z M 114.2,161.2 L 114.2,296.8 L 125.2,293.5 Z M 114.2,161.2 L 125.2,293.5 L 125.2,172.3 Z" fill="#2a2a4e" stroke="none"/>
  <path d="M 280.3,100.3 L 211.1,100.3 M 211.1,100.3 L 211.1,133.5 M 211.1,133.5 L 247.1,133.5 M 247.1,213.8 L 280.3,213.8 M 280.3,213.8 L 280.3,100.3 M 247.1,133.5 L 247.1,213.8 M 80.9,89.2 L 80.9,20.0 M 80.9,20.0 L 47.7,20.0 M 47.7,20.0 L 47.7,89.2 M 191.7,310.8 L 191.7,380.0 M 191.7,380.0 L 224.9,380.0 M 224.9,380.0 L 224.9,310.8 M 224.9,310.8 L 191.7,310.8 M 188.6,161.2 L 200.0,152.8 M 200.3,224.9 L 191.7,233.4 M 93.8,335.7 L 114.2,296.8 M 20.0,227.9 L 20.0,263.3 M 291.4,213.8 L 247.1,213.8 M 211.1,133.5 L 211.1,89.2 M 180.6,310.8 L 224.9,310.8 M 191.7,233.4 L 180.6,241.5 M 180.6,241.5 L 180.6,310.8 M 291.4,310.8 L 291.4,213.8 M 224.9,310.8 L 291.4,310.8 M 200.0,152.8 L 211.1,144.6 M 211.1,144.6 L 211.1,133.5 M 211.1,89.2 L 80.9,89.2 M 20.0,89.2 L 20.0,227.9 M 20.0,335.7 L 93.8,335.7 M 47.7,89.2 L 20.0,89.2 M 125.2,172.3 L 173.6,172.3 M 173.6,172.3 L 188.6,161.2 M 247.1,213.8 L 215.3,213.8 M 215.3,213.8 L 200.3,224.9 M 20.0,263.3 L 20.0,335.7 M 114.2,296.8 L 125.2,293.5 M 125.2,293.5 L 125.2,172.3" fill="none" stroke="white" stroke-width="2" stroke-linecap="round"/>
  <polygon points="65.21294790678508,77.92979294631961 73.21294790678508,85.92979294631961 65.21294790678508,93.92979294631961 57.212947906785075,85.92979294631961" fill="#4a9eff" stroke="white" stroke-width="1"/>
<polygon points="208.5957437230424,302.2147627189595 216.5957437230424,310.2147627189595 208.5957437230424,318.2147627189595 200.5957437230424,310.2147627189595" fill="#4a9eff" stroke="white" stroke-width="1"/>
</svg>