<svg xmlns="http://www.w3.org/2000/svg" viewBox="0 0 400 400">
  <rect width="400" height="400" fill="#1a1a2e"/>
  <path d="M 309.9,198.4 L 309.9,236.7 L 380.0,236.7 Z M 309.9,198.4 L 380.0,236.7 L 380.0,198.4 Z M 201.6,20.0 L 163.3,20.0 L 163.3,90.1 Z M 201.6,20.0 L 163.3,90.1 L 201.6,90.1 Z M 281.7,159.0 L 264.7,153.2 L 223.3,179.9 Z M 281.7,159.0 L 223.3,179.9 L 295.9,203.3 Z M 295.9,203.3 L 223.3,179.9 L 202.1,245.1 Z M 295.9,203.3 L 202.1,245.1 L 296.2,229.9 Z M 296.2,229.9 L 202.1,245.1 L 242.8,277.3 Z M 296.2,229.9 L 242.8,277.3 L 271.2,277.9 Z M 133.7,290.3 L 153.4,267.5 L 149.1,234.6 Z M 133.7,290.3 L 149.1,234.6 L 97.0,269.9 Z M 97.0,269.9 L 149.1,234.6 L 132.7,186.3 Z M 97.0,269.9 L 132.7,186.3 L 75.2,161.8 Z M 75.2,161.8 L 132.7,186.3 L 183.0,154.8 Z M 75.2,161.8 L 183.0,154.8 L 143.3,142.4 Z M 143.3,142.4 L 183.0,154.8 L 183.3,103.9 Z M 143.3,142.4 L 183.3,103.9 L 169.5,103.9 Z M 75.2,161.8 L 41.3,218.9 L 57.9,275.7 Z M 75.2,161.8 L 57.9,275.7 L 97.0,269.9 Z M 153.4,267.5 L 202.1,245.1 L 149.1,234.6 Z M 109.3,171.5 L 117.0,142.3 L 87.5,136.0 Z M 109.3,171.5 L 87.5,136.0 L 79.8,165.2 Z M 217.2,288.9 L 234.2,351.2 L 295.6,331.4 Z M 217.2,288.9 L 295.6,331.4 L 278.6,269.1 Z M 194.2,251.1 L 201.8,221.9 L 171.3,214.5 Z M 194.2,251.1 L 171.3,214.5 L 163.6,243.6 Z M 150.1,351.5 L 210.1,329.4 L 185.2,270.5 Z M 150.1,351.5 L 185.2,270.5 L 125.2,292.6 Z M 206.6,132.8 L 255.4,166.7 L 287.0,116.4 Z M 206.6,132.8 L 287.0,116.4 L 238.1,82.5 Z M 283.2,164.9 L 290.9,135.7 L 260.4,128.3 Z M 283.2,164.9 L 260.4,128.3 L 252.7,157.4 Z M 217.7,173.5 L 245.7,162.1 L 233.3,133.3 Z M 217.7,173.5 L 233.3,133.3 L 205.3,144.7 Z M 74.2,161.0 L 102.1,149.6 L 89.7,120.8 Z M 74.2,161.0 L 89.7,120.8 L 61.8,132.2 Z M 192.8,269.1 L 220.7,257.7 L 208.3,228.9 Z M 192.8,269.1 L 208.3,228.9 L 180.3,240.3 Z M 210.0,342.3 L 238.0,330.9 L 225.6,302.1 Z M 210.0,342.3 L 225.6,302.1 L 197.6,313.5 Z M 297.9,319.7 L 310.4,292.2 L 281.5,279.7 Z M 297.9,319.7 L 281.5,279.7 L 269.1,307.2 Z M 48.9,231.0 L 61.3,203.5 L 32.5,191.1 Z M 48.9,231.0 L 32.5,191.1 L 20.0,218.6 Z M 66.1,299.5 L 78.6,272.0 L 49.7,259.6 Z M 66.1,299.5 L 49.7,259.6 L 37.2,287.1 Z M 141.7,339.6 L 154.2,312.1 L 125.3,299.7 Z M 141.7,339.6 L 125.3,299.7 L 112.8,327.2 Z M 26.3,217.5 L 48.6,294.0 L 57.9,275.7 Z M 26.3,217.5 L 57.9,275.7 L 41.3,218.9 Z M 163.3,90.1 L 133.1,130.9 L 143.3,142.4 Z M 163.3,90.1 L 143.3,142.4 L 169.5,103.9 Z M 96.3,283.7 L 137.8,308.2 L 133.7,290.3 Z M 96.3,283.7 L 133.7,290.3 L 97.0,269.9 Z M 242.8,277.3 L 202.1,245.1 L 201.2,264.0 Z M 242.8,277.3 L 201.2,264.0 L 239.0,294.9 Z M 133.1,130.9 L 66.1,151.3 L 75.2,161.8 Z M 133.1,130.9 L 75.2,161.8 L 143.3,142.4 Z M 202.1,245.1 L 153.4,267.5 L 161.6,280.2 Z M 202.1,245.1 L 161.6,280.2 L 201.2,264.0 Z M 261.7,137.1 L 222.3,159.9 L 223.3,179.9 Z M 261.7,137.1 L 223.3,179.9 L 264.7,153.2 Z M 309.9,198.4 L 292.1,146.6 L 281.7,159.0 Z M 309.9,198.4 L 281.7,159.0 L 295.9,203.3 Z M 292.1,146.6 L 261.7,137.1 L 264.7,153.2 Z M 292.1,146.6 L 264.7,153.2 L 281.7,159.0 Z M 66.1,151.3 L 26.3,217.5 L 41.3,218.9 Z M 66.1,151.3 L 41.3,218.9 L 75.2,161.8 Z M 201.6,90.1 L 183.3,103.9 L 183.0,154.8 Z M 201.6,90.1 L 183.0,154.8 L 201.4,147.1 Z M 223.3,179.9 L 222.3,159.9 L 201.4,147.1 Z M 223.3,179.9 L 201.4,147.1 L 183.0,154.8 Z M 48.6,294.0 L 96.3,283.7 L 97.0,269.9 Z M 48.6,294.0 L 97.0,269.9 L 57.9,275.7 Z M 137.8,308.2 L 161.6,280.2 L 153.4,267.5 Z M 137.8,308.2 L 153.4,267.5 L 133.7,290.3 Z M 296.2,229.9 L 309.9,236.7 L 309.9,198.4 Z M 296.2,229.9 L 309.9,198.4 L 295.9,203.3 Z M 271.2,277.9 L 242.8,277.3 L 239.0,294.9 Z M 271.2,277.9 L 239.0,294.9 L 279.8,290.8 Z M 279.8,290.8 L 309.9,236.7 L 296.2,229.9 Z M 279.8,290.8 L 296.2,229.9 L 271.2,277.9 Z M 149.1,234.6 L 202.1,245.1 L 191.8,225.4 Z M 149.1,234.6 L 191.8,225.4 L 161.0,221.0 Z M 206.1,189.1 L 223.3,179.9 L 183.0,154.8 Z M 206.1,189.1 L 183.0,154.8 L 183.7,172.7 Z M 191.8,225.4 L 202.1,245.1 L 223.3,179.9 Z M 191.8,225.4 L 223.3,179.9 L 206.1,189.1 Z M 151.2,193.5 L 183.7,172.7 L 183.0,154.8 Z M 151.2,193.5 L 183.0,154.8 L 132.7,186.3 Z M 149.1,234.6 L 161.0,221.0 L 151.2,193.5 Z M 149.1,234.6 L 151.2,193.5 L 132.7,186.3 Z M 163.3,90.1 L 169.5,103.9 L 183.3,103.9 Z M 163.3,90.1 L 183.3,103.9 L 201.6,90.1 Z M 278.0,345.0 L 239.0,294.9 L 197.3,323.7 Z M 278.0,345.0 L 197.3,323.7 L 216.1,373.7 Z M 216.1,373.7 L 197.3,323.7 L 137.8,308.2 Z M 216.1,373.7 L 137.8,308.2 L 151.5,338.6 Z M 309.9,198.4 L 309.9,128.3 L 292.1,146.6 Z M 309.9,128.3 L 278.0,90.1 L 292.1,146.6 Z M 292.1,146.6 L 278.0,90.1 L 261.7,137.1 Z M 278.0,90.1 L 201.6,90.1 L 261.7,137.1 Z M 239.0,294.9 L 278.0,345.0 L 279.8,290.8 Z M 278.0,345.0 L 309.9,306.7 L 279.8,290.8 Z M 279.8,290.8 L 309.9,306.7 L 309.9,236.7 Z M 48.6,294.0 L 86.9,338.6 L 137.8,308.2 Z M 48.6,294.0 L 137.8,308.2 L 96.3,283.7 Z M 66.1,151.3 L 133.1,130.9 L 104.5,119.3 Z M 66.1,151.3 L 104.5,119.3 L 33.6,128.3 Z M 201.6,90.1 L 201.4,147.1 L 222.3,159.9 Z M 201.6,90.1 L 222.3,159.9 L 261.7,137.1 Z M 201.2,264.0 L 161.6,280.2 L 137.8,308.2 Z M 201.2,264.0 L 137.8,308.2 L 197.3,323.7 Z M 191.8,225.4 L 206.1,189.1 L 183.7,172.7 Z M 191.8,225.4 L 183.7,172.7 L 161.0,221.0 Z M 133.1,130.9 L 163.3,90.1 L 104.5,119.3 Z M 33.6,128.3 L 26.3,217.5 L 66.1,151.3 Z M 239.0,294.9 L 201.2,264.0 L 197.3,323.7 Z M 137.8,308.2 L 86.9,338.6 L 151.5,338.6 Z M 183.7,172.7 L 151.2,193.5 L 161.0,221.0 Z" fill="#2a2a4e" stroke="none"/>
  <path d="M 309.9,236.7 L 380.0,236.7 M 380.0,236.7 L 380.0,198.4 M 380.0,198.4 L 309.9,198.4 M 201.6,20.0 L 163.3,20.0 M 163.3,20.0 L 163.3,90.1 M 201.6,90.1 L 201.6,20.0 M 109.3,171.5 L 117.0,142.3 M 117.0,142.3 L 87.5,136.0 M 87.5,136.0 L 79.8,165.2 M 79.8,165.2 L 109.3,171.5 M 217.2,288.9 L 234.2,351.2 M 234.2,351.2 L 295.6,331.4 M 295.6,331.4 L 278.6,269.1 M 278.6,269.1 L 217.2,288.9 M 194.2,251.1 L 201.8,221.9 M 201.8,221.9 L 171.3,214.5 M 171.3,214.5 L 163.6,243.6 M 163.6,243.6 L 194.2,251.1 M 150.1,351.5 L 210.1,329.4 M 210.1,329.4 L 185.2,270.5 M 185.2,270.5 L 125.2,292.6 M 125.2,292.6 L 150.1,351.5 M 206.6,132.8 L 255.4,166.7 M 255.4,166.7 L 287.0,116.4 M 287.0,116.4 L 238.1,82.5 M 238.1,82.5 L 206.6,132.8 M 283.2,164.9 L 290.9,135.7 M 290.9,135.7 L 260.4,128.3 M 260.4,128.3 L 252.7,157.4 M 252.7,157.4 L 283.2,164.9 M 217.7,173.5 L 245.7,162.1 M 245.7,162.1 L 233.3,133.3 M 233.3,133.3 L 205.3,144.7 M 205.3,144.7 L 217.7,173.5 M 74.2,161.0 L 102.1,149.6 M 102.1,149.6 L 89.7,120.8 M 89.7,120.8 L 61.8,132.2 M 61.8,132.2 L 74.2,161.0 M 192.8,269.1 L 220.7,257.7 M 220.7,257.7 L 208.3,228.9 M 208.3,228.9 L 180.3,240.3 M 180.3,240.3 L 192.8,269.1 M 210.0,342.3 L 238.0,330.9 M 238.0,330.9 L 225.6,302.1 M 225.6,302.1 L 197.6,313.5 M 197.6,313.5 L 210.0,342.3 M 297.9,319.7 L 310.4,292.2 M 310.4,292.2 L 281.5,279.7 M 281.5,279.7 L 269.1,307.2 M 269.1,307.2 L 297.9,319.7 M 48.9,231.0 L 61.3,203.5 M 61.3,203.5 L 32.5,191.1 M 32.5,191.1 L 20.0,218.6 M 20.0,218.6 L 48.9,231.0 M 66.1,299.5 L 78.6,272.0 M 78.6,272.0 L 49.7,259.6 M 49.7,259.6 L 37.2,287.1 M 37.2,287.1 L 66.1,299.5 M 141.7,339.6 L 154.2,312.1 M 154.2,312.1 L 125.3,299.7 M 125.3,299.7 L 112.8,327.2 M 112.8,327.2 L 141.7,339.6 M 26.3,217.5 L 48.6,294.0 M 216.1,373.7 L 278.0,345.0 M 151.5,338.6 L 216.1,373.7 M 309.9,198.4 L 309.9,128.3 M 309.9,128.3 L 278.0,90.1 M 278.0,90.1 L 201.6,90.1 M 278.0,345.0 L 309.9,306.7 M 309.9,306.7 L 309.9,236.7 M 48.6,294.0 L 86.9,338.6 M 104.5,119.3 L 33.6,128.3 M 163.3,90.1 L 104.5,119.3 M 33.6,128.3 L 26.3,217.5 M 86.9,338.6 L 151.5,338.6" fill="none" stroke="white" stroke-width="2" stroke-linecap="round"/>
  <polygon points="181.45485703497755,76.04236795184664 189.45485703497755,84.04236795184664 181.45485703497755,92.04236795184664 173.45485703497755,84.04236795184664" fill="#4a9eff" stroke="white" stroke-width="1"/>
<polygon points="313.3389276416058,211.1903499090529 321.3389276416058,219.1903499090529 313.3389276416058,227.1903499090529 305.3389276416058,219.1903499090529" fill="#4a9eff" stroke="white" stroke-width="1"/>
</svg>