<svg xmlns="http://www.w3.org/2000/svg" viewBox="0 0 400 400">
  <rect width="400" height="400" fill="#1a1a2e"/>
  <path d="M 84.3,380.0 L 141.1,380.0 L 141.1,209.5 Z M 84.3,380.0 L 141.1,209.5 L 84.3,209.5 Z M 190.5,114.7 L 190.5,38.9 L 80.9,60.4 Z M 190.5,114.7 L 80.9,60.4 L 141.1,190.5 Z M 141.1,190.5 L 80.9,60.4 L 38.9,161.4 Z M 141.1,190.5 L 38.9,161.4 L 84.3,190.5 Z M 114.7,38.9 L 80.9,60.4 L 190.5,38.9 Z M 114.7,38.9 L 38.9,38.9 L 80.9,60.4 Z M 38.9,38.9 L 38.9,161.4 L 80.9,60.4 Z M 38.9,161.4 L 38.9,190.5 L 84.3,190.5 Z M 141.1,190.5 L 190.5,190.5 L 190.5,114.7 Z M 141.1,209.5 L 177.9,209.5 L 141.1,190.5 Z M 84.3,209.5 L 141.1,209.5 L 141.1,190.5 Z M 84.3,209.5 L 141.1,190.5 L 84.3,190.5 Z M 20.0,20.0 L 114.7,38.9 L 190.5,38.9 Z M 20.0,20.0 L 190.5,38.9 L 209.5,20.0 Z M 20.0,209.5 L 38.9,161.4 L 38.9,38.9 Z M 20.0,209.5 L 38.9,38.9 L 20.0,20.0 Z M 209.5,20.0 L 190.5,114.7 L 190.5,190.5 Z M 209.5,20.0 L 190.5,190.5 L 209.5,209.5 Z M 141.1,190.5 L 177.9,209.5 L 209.5,209.5 Z M 141.1,190.5 L 209.5,209.5 L 190.5,190.5 Z M 84.3,190.5 L 38.9,190.5 L 20.0,209.5 Z M 84.3,190.5 L 20.0,209.5 L 84.3,209.5 Z M 20.0,20.0 L 38.9,38.9 L 114.7,38.9 Z M 20.0,209.5 L 38.9,190.5 L 38.9,161.4 Z M 209.5,20.0 L 190.5,38.9 L 190.5,114.7 Z" fill="#2a2a4e" stroke="none"/>
  <path d="M 84.3,380.0 L 141.1,380.0 M 141.1,380.0 L 141.1,209.5 M 84.3,209.5 L 84.3,380.0 M 141.1,209.5 L 177.9,209.5 M 209.5,20.0 L 20.0,20.0 M 20.0,20.0 L 20.0,209.5 M 209.5,209.5 L 209.5,20.0 M 177.9,209.5 L 209.5,209.5 M 20.0,209.5 L 84.3,209.5" fill="none" stroke="white" stroke-width="2" stroke-linecap="round"/>
  <polygon points="113.2146381517182,198.04158553027975 121.2146381517182,206.04158553027975 113.2146381517182,214.04158553027975 105.2146381517182,206.04158553027975" fill="#4a9eff" stroke="white" stroke-width="1"/>
</svg>