<svg xmlns="http://www.w3.org/2000/svg" viewBox="0 0 400 400">
  <rect width="400" height="400" fill="#1a1a2e"/>
  <path d="M 103.3,329.0 L 135.5,329.0 L 135.5,259.1 Z M 103.3,329.0 L 135.5,259.1 L 103.3,259.1 Z M 380.0,157.0 L 380.0,124.8 L 307.5,124.8 Z M 380.0,157.0 L 307.5,124.8 L 307.5,157.0 Z M 226.9,157.0 L 226.9,124.8 L 181.2,124.8 Z M 226.9,157.0 L 181.2,124.8 L 181.2,157.0 Z M 20.0,65.7 L 20.0,97.9 L 92.5,97.9 Z M 20.0,65.7 L 92.5,97.9 L 92.5,65.7 Z M 296.7,124.8 L 288.5,114.0 L 237.6,114.0 Z M 296.7,124.8 L 237.6,114.0 L 261.8,122.1 Z M 261.8,122.1 L 237.6,114.0 L 237.6,124.8 Z M 261.8,122.1 L 237.6,124.8 L 237.6,157.0 Z M 320.9,30.7 L 290.3,50.0 L 296.4,79.1 Z M 320.9,30.7 L 296.4,79.1 L 320.9,70.9 Z M 214.8,238.5 L 256.4,248.4 L 256.4,208.2 Z M 214.8,238.5 L 256.4,208.2 L 220.8,224.6 Z M 243.0,30.7 L 290.3,50.0 L 320.9,30.7 Z M 135.5,248.4 L 256.4,248.4 L 214.8,238.5 Z M 296.4,79.1 L 290.3,50.0 L 243.0,30.7 Z M 296.4,79.1 L 243.0,30.7 L 170.4,79.1 Z M 170.4,79.1 L 243.0,30.7 L 103.3,30.7 Z M 170.4,79.1 L 103.3,30.7 L 114.6,57.0 Z M 135.5,248.4 L 214.8,238.5 L 220.8,224.6 Z M 135.5,248.4 L 220.8,224.6 L 170.4,200.0 Z M 170.4,200.0 L 220.8,224.6 L 256.4,208.2 Z M 170.4,200.0 L 256.4,208.2 L 245.3,200.0 Z M 170.4,157.0 L 103.3,248.4 L 170.4,200.0 Z M 103.3,248.4 L 135.5,248.4 L 170.4,200.0 Z M 114.6,57.0 L 103.3,65.7 L 170.4,124.8 Z M 114.6,57.0 L 170.4,124.8 L 170.4,79.1 Z M 170.4,124.8 L 103.3,97.9 L 103.3,248.4 Z M 170.4,124.8 L 103.3,248.4 L 170.4,157.0 Z M 261.8,122.1 L 237.6,157.0 L 237.6,165.1 Z M 261.8,122.1 L 237.6,165.1 L 296.7,157.0 Z M 296.7,165.1 L 296.7,157.0 L 237.6,165.1 Z M 296.7,124.8 L 261.8,122.1 L 296.7,157.0 Z M 170.4,124.8 L 103.3,65.7 L 103.3,97.9 Z M 135.5,259.1 L 135.5,248.4 L 103.3,248.4 Z M 135.5,259.1 L 103.3,248.4 L 103.3,259.1 Z M 307.5,124.8 L 296.7,124.8 L 296.7,157.0 Z M 307.5,124.8 L 296.7,157.0 L 307.5,157.0 Z M 181.2,124.8 L 170.4,124.8 L 170.4,157.0 Z M 181.2,124.8 L 170.4,157.0 L 181.2,157.0 Z M 237.6,157.0 L 237.6,124.8 L 226.9,124.8 Z M 237.6,157.0 L 226.9,124.8 L 226.9,157.0 Z M 92.5,97.9 L 103.3,97.9 L 103.3,65.7 Z M 92.5,97.9 L 103.3,65.7 L 92.5,65.7 Z M 92.5,20.0 L 92.5,65.7 L 103.3,65.7 Z M 92.5,20.0 L 103.3,65.7 L 103.3,30.7 Z M 114.6,57.0 L 103.3,30.7 L 103.3,65.7 Z M 320.9,30.7 L 331.6,20.0 L 243.0,20.0 Z M 320.9,30.7 L 243.0,20.0 L 243.0,30.7 Z M 243.0,30.7 L 243.0,20.0 L 92.5,20.0 Z M 243.0,30.7 L 92.5,20.0 L 103.3,30.7 Z M 331.6,20.0 L 320.9,30.7 L 320.9,70.9 Z M 331.6,20.0 L 320.9,70.9 L 331.6,49.6 Z M 296.4,79.1 L 170.4,79.1 L 181.2,89.9 Z M 296.4,79.1 L 181.2,89.9 L 281.8,89.9 Z M 170.4,79.1 L 170.4,124.8 L 181.2,124.8 Z M 170.4,79.1 L 181.2,124.8 L 181.2,89.9 Z M 267.2,259.1 L 267.2,216.1 L 256.4,208.2 Z M 267.2,259.1 L 256.4,208.2 L 256.4,248.4 Z M 267.2,259.1 L 256.4,248.4 L 135.5,248.4 Z M 267.2,259.1 L 135.5,248.4 L 135.5,259.1 Z M 181.2,189.3 L 170.4,200.0 L 245.3,200.0 Z M 181.2,189.3 L 245.3,200.0 L 230.8,189.3 Z M 170.4,200.0 L 181.2,189.3 L 181.2,157.0 Z M 170.4,200.0 L 181.2,157.0 L 170.4,157.0 Z M 226.9,103.3 L 237.6,114.0 L 288.5,114.0 Z M 226.9,103.3 L 288.5,114.0 L 280.6,103.3 Z M 237.6,165.1 L 226.9,175.8 L 307.5,175.8 Z M 237.6,165.1 L 307.5,175.8 L 296.7,165.1 Z M 307.5,175.8 L 307.5,157.0 L 296.7,157.0 Z M 307.5,175.8 L 296.7,157.0 L 296.7,165.1 Z M 226.9,175.8 L 237.6,165.1 L 237.6,157.0 Z M 226.9,175.8 L 237.6,157.0 L 226.9,157.0 Z M 226.9,103.3 L 226.9,124.8 L 237.6,124.8 Z M 226.9,103.3 L 237.6,124.8 L 237.6,114.0 Z M 92.5,259.1 L 103.3,248.4 L 103.3,97.9 Z M 92.5,259.1 L 103.3,97.9 L 92.5,97.9 Z M 103.3,259.1 L 103.3,248.4 L 92.5,259.1 Z" fill="#2a2a4e" stroke="none"/>
  <path d="M 103.3,329.0 L 135.5,329.0 M 135.5,329.0 L 135.5,259.1 M 103.3,259.1 L 103.3,329.0 M 380.0,157.0 L 380.0,124.8 M 380.0,124.8 L 307.5,124.8 M 307.5,157.0 L 380.0,157.0 M 226.9,124.8 L 181.2,124.8 M 181.2,157.0 L 226.9,157.0 M 20.0,65.7 L 20.0,97.9 M 20.0,97.9 L 92.5,97.9 M 92.5,65.7 L 20.0,65.7 M 296.7,124.8 L 288.5,114.0 M 296.4,79.1 L 320.9,70.9 M 256.4,208.2 L 245.3,200.0 M 307.5,124.8 L 296.7,124.8 M 92.5,20.0 L 92.5,65.7 M 331.6,20.0 L 243.0,20.0 M 243.0,20.0 L 92.5,20.0 M 320.9,70.9 L 331.6,49.6 M 331.6,49.6 L 331.6,20.0 M 181.2,89.9 L 281.8,89.9 M 281.8,89.9 L 296.4,79.1 M 181.2,124.8 L 181.2,89.9 M 267.2,259.1 L 267.2,216.1 M 267.2,216.1 L 256.4,208.2 M 135.5,259.1 L 267.2,259.1 M 245.3,200.0 L 230.8,189.3 M 230.8,189.3 L 181.2,189.3 M 181.2,189.3 L 181.2,157.0 M 288.5,114.0 L 280.6,103.3 M 280.6,103.3 L 226.9,103.3 M 226.9,175.8 L 307.5,175.8 M 307.5,175.8 L 307.5,157.0 M 226.9,157.0 L 226.9,175.8 M 226.9,103.3 L 226.9,124.8 M 92.5,97.9 L 92.5,259.1 M 92.5,259.1 L 103.3,259.1" fill="none" stroke="white" stroke-width="2" stroke-linecap="round"/>
  <polygon points="306.7919926118268,131.99758380868113 314.7919926118268,139.99758380868113 306.7919926118268,147.99758380868113 298.7919926118268,139.99758380868113" fill="#4a9eff" stroke="white" stroke-width="1"/>
<polygon points="92.63122908763675,74.63278994023537 100.63122908763675,82.63278994023537 92.63122908763675,90.63278994023537 84.63122908763675,82.63278994023537" fill="#4a9eff" stroke="white" stroke-width="1"/>
<polygon points="119.44660961790498,249.99554214695513 127.44660961790498,257.99554214695513 119.44660961790498,265.99554214695513 111.44660961790498,257.99554214695513" fill="#4a9eff" stroke="white" stroke-width="1"/>
</svg>