<svg xmlns="http://www.w3.org/2000/svg" viewBox="0 0 400 400">
  <rect width="400" height="400" fill="#1a1a2e"/>
  <path d="M 92.7,145.7 L 79.1,136.9 L 73.3,165.0 Z M 92.7,145.7 L 73.3,165.0 L 92.3,163.4 Z M 92.3,163.4 L 73.3,165.0 L 73.4,180.5 Z M 92.3,163.4 L 73.4,180.5 L 96.0,185.4 Z M 79.1,136.9 L 62.0,144.2 L 73.3,165.0 Z M 62.6,380.0 L 90.5,380.0 L 79.0,207.4 Z M 62.6,380.0 L 79.0,207.4 L 62.6,213.4 Z M 92.6,20.0 L 64.7,20.0 L 76.3,97.1 Z M 92.6,20.0 L 76.3,97.1 L 92.6,91.4 Z M 90.5,212.7 L 79.0,207.4 L 90.5,380.0 Z M 64.7,91.4 L 76.3,97.1 L 64.7,20.0 Z M 97.5,216.7 L 96.0,185.4 L 73.4,180.5 Z M 97.5,216.7 L 73.4,180.5 L 53.2,203.4 Z M 53.2,203.4 L 73.4,180.5 L 73.3,165.0 Z M 53.2,203.4 L 73.3,165.0 L 38.9,176.8 Z M 38.9,176.8 L 73.3,165.0 L 62.0,144.2 Z M 38.9,176.8 L 62.0,144.2 L 45.4,128.3 Z M 45.4,128.3 L 62.0,144.2 L 79.1,136.9 Z M 45.4,128.3 L 79.1,136.9 L 81.5,98.9 Z M 81.5,98.9 L 79.1,136.9 L 92.7,145.7 Z M 81.5,98.9 L 92.7,145.7 L 115.2,121.5 Z M 115.2,121.5 L 92.7,145.7 L 92.3,163.4 Z M 115.2,121.5 L 92.3,163.4 L 112.6,158.2 Z M 112.6,158.2 L 92.3,163.4 L 96.0,185.4 Z M 112.6,158.2 L 96.0,185.4 L 124.6,197.6 Z M 97.5,216.7 L 124.6,197.6 L 96.0,185.4 Z M 42.8,216.7 L 53.2,203.4 L 38.9,176.8 Z M 42.8,216.7 L 38.9,176.8 L 20.0,177.5 Z M 20.0,177.5 L 38.9,176.8 L 45.4,128.3 Z M 20.0,177.5 L 45.4,128.3 L 24.3,137.0 Z M 124.6,197.6 L 128.1,135.9 L 112.6,158.2 Z M 128.1,135.9 L 115.2,121.5 L 112.6,158.2 Z M 24.3,137.0 L 45.4,128.3 L 49.6,90.1 Z M 45.4,128.3 L 81.5,98.9 L 49.6,90.1 Z M 49.6,90.1 L 81.5,98.9 L 103.3,90.1 Z M 81.5,98.9 L 115.2,121.5 L 103.3,90.1 Z M 42.8,216.7 L 97.5,216.7 L 53.2,203.4 Z" fill="#2a2a4e" stroke="none"/>
  <path d="M 62.6,380.0 L 90.5,380.0 M 79.0,207.4 L 62.6,213.4 M 62.6,213.4 L 62.6,380.0 M 92.6,20.0 L 64.7,20.0 M 76.3,97.1 L 92.6,91.4 M 92.6,91.4 L 92.6,20.0 M 90.5,212.7 L 79.0,207.4 M 90.5,380.0 L 90.5,212.7 M 64.7,91.4 L 76.3,97.1 M 64.7,20.0 L 64.7,91.4 M 97.5,216.7 L 124.6,197.6 M 20.0,177.5 L 42.8,216.7 M 24.3,137.0 L 20.0,177.5 M 124.6,197.6 L 128.1,135.9 M 128.1,135.9 L 115.2,121.5 M 49.6,90.1 L 24.3,137.0 M 103.3,90.1 L 49.6,90.1 M 115.2,121.5 L 103.3,90.1 M 42.8,216.7 L 97.5,216.7" fill="none" stroke="white" stroke-width="2" stroke-linecap="round"/>
  <polygon points="78.3739305498647,80.26532232995115 86.3739305498647,88.26532232995115 78.3739305498647,96.26532232995115 70.3739305498647,88.26532232995115" fill="#4a9eff" stroke="white" stroke-width="1"/>
<polygon points="76.30495697898776,207.1797859405077 84.30495697898776,215.1797859405077 76.30495697898776,223.1797859405077 68.30495697898776,215.1797859405077" fill="#4a9eff" stroke="white" stroke-width="1"/>
</svg>