<svg xmlns="http://www.w3.org/2000/svg" viewBox="0 0 400 400">
  <rect width="400" height="400" fill="#1a1a2e"/>
  <path d="M 291.2,115.1 L 273.0,111.1 L 269.8,129.5 Z M 291.2,115.1 L 269.8,129.5 L 288.1,133.5 Z M 294.9,140.0 L 332.0,126.3 L 316.6,89.9 Z M 294.9,140.0 L 316.6,89.9 L 279.5,103.6 Z M 339.7,141.7 L 321.5,137.8 L 318.3,156.2 Z M 339.7,141.7 L 318.3,156.2 L 336.6,160.1 Z M 220.6,36.8 L 210.6,52.6 L 226.8,61.9 Z M 220.6,36.8 L 226.8,61.9 L 236.8,46.1 Z M 225.9,88.4 L 225.7,48.8 L 186.2,50.8 Z M 225.9,88.4 L 186.2,50.8 L 186.4,90.4 Z M 241.3,178.3 L 223.0,174.3 L 219.9,192.7 Z M 241.3,178.3 L 219.9,192.7 L 238.1,196.7 Z M 193.5,162.9 L 175.2,159.0 L 172.1,177.4 Z M 193.5,162.9 L 172.1,177.4 L 190.4,181.4 Z M 193.7,35.6 L 197.6,56.9 L 218.6,52.0 Z M 193.7,35.6 L 218.6,52.0 L 214.7,30.8 Z M 308.4,101.6 L 290.7,107.5 L 297.4,124.9 Z M 308.4,101.6 L 297.4,124.9 L 315.1,119.0 Z M 201.1,85.2 L 205.0,106.4 L 226.1,101.6 Z M 201.1,85.2 L 226.1,101.6 L 222.2,80.3 Z M 240.0,101.0 L 221.4,111.9 L 233.1,130.0 Z M 240.0,101.0 L 233.1,130.0 L 251.8,119.1 Z M 242.6,111.0 L 243.4,134.7 L 274.2,132.4 Z M 242.6,111.0 L 274.2,132.4 L 256.9,109.9 Z M 256.9,109.9 L 274.2,132.4 L 278.5,126.6 Z M 256.9,109.9 L 278.5,126.6 L 276.9,108.5 Z M 380.0,66.5 L 380.0,42.8 L 311.0,42.8 Z M 380.0,66.5 L 311.0,42.8 L 311.0,66.5 Z M 311.0,66.5 L 311.0,42.8 L 267.6,33.0 Z M 311.0,66.5 L 267.6,33.0 L 267.6,56.6 Z M 267.6,56.6 L 267.6,33.0 L 225.1,49.9 Z M 267.6,56.6 L 225.1,49.9 L 225.7,66.5 Z M 228.2,230.3 L 251.9,230.3 L 244.8,189.8 Z M 228.2,230.3 L 244.8,189.8 L 228.2,190.4 Z M 177.3,149.5 L 99.9,149.5 L 99.9,173.2 Z M 177.3,149.5 L 99.9,173.2 L 177.9,166.1 Z M 177.9,166.1 L 99.9,173.2 L 175.0,173.2 Z M 267.6,33.0 L 228.0,42.8 L 225.1,49.9 Z M 244.8,189.8 L 251.9,230.3 L 251.9,192.7 Z M 314.2,89.3 L 272.5,106.4 L 288.6,117.3 Z M 314.2,89.3 L 288.6,117.3 L 308.1,118.5 Z M 308.1,118.5 L 288.6,117.3 L 301.7,133.3 Z M 308.1,118.5 L 301.7,133.3 L 306.7,131.4 Z M 172.9,176.3 L 205.7,172.2 L 186.3,137.5 Z M 172.9,176.3 L 186.3,137.5 L 172.9,140.0 Z M 172.9,140.0 L 186.3,137.5 L 177.0,106.3 Z M 172.9,140.0 L 177.0,106.3 L 153.2,95.2 Z M 231.8,180.4 L 255.2,196.5 L 272.0,176.7 Z M 231.8,180.4 L 272.0,176.7 L 240.2,153.7 Z M 240.2,153.7 L 272.0,176.7 L 268.0,154.1 Z M 240.2,153.7 L 268.0,154.1 L 245.4,141.4 Z M 89.1,159.0 L 105.4,146.4 L 77.4,107.8 Z M 89.1,159.0 L 77.4,107.8 L 70.8,133.4 Z M 70.8,133.4 L 77.4,107.8 L 20.2,118.0 Z M 70.8,133.4 L 20.2,118.0 L 36.4,133.9 Z M 36.4,133.9 L 20.2,118.0 L 20.0,173.6 Z M 36.4,133.9 L 20.0,173.6 L 36.9,155.6 Z M 36.9,155.6 L 20.0,173.6 L 47.5,198.9 Z M 36.9,155.6 L 47.5,198.9 L 69.0,174.6 Z M 228.9,68.0 L 228.9,40.2 L 189.0,54.4 Z M 228.9,40.2 L 192.9,20.0 L 189.0,54.4 Z M 189.0,54.4 L 192.9,20.0 L 157.7,39.2 Z M 314.2,89.3 L 324.2,116.9 L 340.1,100.6 Z M 324.2,116.9 L 338.8,132.6 L 340.1,100.6 Z M 340.1,100.6 L 338.8,132.6 L 348.9,143.4 Z M 338.8,132.6 L 311.7,153.4 L 348.9,143.4 Z M 172.9,176.3 L 191.9,196.8 L 205.7,172.2 Z M 191.9,196.8 L 231.8,180.4 L 205.7,172.2 Z M 306.5,164.8 L 335.7,159.8 L 348.9,143.4 Z M 306.5,164.8 L 348.9,143.4 L 311.7,153.4 Z M 245.4,141.4 L 244.6,105.6 L 217.0,103.1 Z M 245.4,141.4 L 217.0,103.1 L 212.3,144.8 Z M 272.5,106.4 L 272.5,137.4 L 288.6,117.3 Z M 157.7,39.2 L 153.2,95.2 L 189.0,54.4 Z M 205.7,172.2 L 212.3,144.8 L 186.3,137.5 Z M 212.3,144.8 L 240.2,153.7 L 245.4,141.4 Z M 244.6,105.6 L 228.9,68.0 L 217.0,103.1 Z M 105.4,175.5 L 105.4,146.4 L 89.1,159.0 Z M 70.8,133.4 L 69.0,174.6 L 89.1,159.0 Z M 191.9,196.8 L 255.2,196.5 L 231.8,180.4 Z M 153.2,95.2 L 177.0,106.3 L 189.0,54.4 Z M 177.0,106.3 L 217.0,103.1 L 189.0,54.4 Z M 301.7,133.3 L 311.7,153.4 L 306.7,131.4 Z M 311.7,153.4 L 338.8,132.6 L 306.7,131.4 Z M 54.9,229.7 L 89.3,225.6 L 47.5,198.9 Z M 89.3,225.6 L 69.0,174.6 L 47.5,198.9 Z M 306.7,131.4 L 338.8,132.6 L 324.2,116.9 Z M 306.7,131.4 L 324.2,116.9 L 308.1,118.5 Z M 231.8,180.4 L 240.2,153.7 L 212.3,144.8 Z M 231.8,180.4 L 212.3,144.8 L 205.7,172.2 Z M 212.3,144.8 L 217.0,103.1 L 177.0,106.3 Z M 212.3,144.8 L 177.0,106.3 L 186.3,137.5 Z M 306.5,164.8 L 311.7,153.4 L 301.7,133.3 Z M 306.5,164.8 L 301.7,133.3 L 272.5,137.4 Z M 36.4,133.9 L 36.9,155.6 L 69.0,174.6 Z M 36.4,133.9 L 69.0,174.6 L 70.8,133.4 Z M 89.1,159.0 L 69.0,174.6 L 89.3,225.6 Z M 89.1,159.0 L 89.3,225.6 L 105.4,175.5 Z M 272.5,137.4 L 301.7,133.3 L 288.6,117.3 Z M 314.2,89.3 L 308.1,118.5 L 324.2,116.9 Z M 189.0,54.4 L 217.0,103.1 L 228.9,68.0 Z" fill="#2a2a4e" stroke="none"/>
  <path d="M 291.2,115.1 L 273.0,111.1 M 273.0,111.1 L 269.8,129.5 M 269.8,129.5 L 288.1,133.5 M 288.1,133.5 L 291.2,115.1 M 294.9,140.0 L 332.0,126.3 M 332.0,126.3 L 316.6,89.9 M 316.6,89.9 L 279.5,103.6 M 279.5,103.6 L 294.9,140.0 M 339.7,141.7 L 321.5,137.8 M 321.5,137.8 L 318.3,156.2 M 318.3,156.2 L 336.6,160.1 M 336.6,160.1 L 339.7,141.7 M 220.6,36.8 L 210.6,52.6 M 210.6,52.6 L 226.8,61.9 M 226.8,61.9 L 236.8,46.1 M 236.8,46.1 L 220.6,36.8 M 225.9,88.4 L 225.7,48.8 M 225.7,48.8 L 186.2,50.8 M 186.2,50.8 L 186.4,90.4 M 186.4,90.4 L 225.9,88.4 M 241.3,178.3 L 223.0,174.3 M 223.0,174.3 L 219.9,192.7 M 219.9,192.7 L 238.1,196.7 M 238.1,196.7 L 241.3,178.3 M 193.5,162.9 L 175.2,159.0 M 175.2,159.0 L 172.1,177.4 M 172.1,177.4 L 190.4,181.4 M 190.4,181.4 L 193.5,162.9 M 193.7,35.6 L 197.6,56.9 M 197.6,56.9 L 218.6,52.0 M 218.6,52.0 L 214.7,30.8 M 214.7,30.8 L 193.7,35.6 M 308.4,101.6 L 290.7,107.5 M 290.7,107.5 L 297.4,124.9 M 297.4,124.9 L 315.1,119.0 M 315.1,119.0 L 308.4,101.6 M 201.1,85.2 L 205.0,106.4 M 205.0,106.4 L 226.1,101.6 M 226.1,101.6 L 222.2,80.3 M 222.2,80.3 L 201.1,85.2 M 240.0,101.0 L 221.4,111.9 M 221.4,111.9 L 233.1,130.0 M 233.1,130.0 L 251.8,119.1 M 251.8,119.1 L 240.0,101.0 M 242.6,111.0 L 243.4,134.7 M 243.4,134.7 L 274.2,132.4 M 256.9,109.9 L 242.6,111.0 M 274.2,132.4 L 278.5,126.6 M 278.5,126.6 L 276.9,108.5 M 276.9,108.5 L 256.9,109.9 M 380.0,66.5 L 380.0,42.8 M 380.0,42.8 L 311.0,42.8 M 311.0,66.5 L 380.0,66.5 M 311.0,42.8 L 267.6,33.0 M 267.6,56.6 L 311.0,66.5 M 225.1,49.9 L 225.7,66.5 M 225.7,66.5 L 267.6,56.6 M 228.2,230.3 L 251.9,230.3 M 244.8,189.8 L 228.2,190.4 M 228.2,190.4 L 228.2,230.3 M 177.3,149.5 L 99.9,149.5 M 99.9,149.5 L 99.9,173.2 M 177.9,166.1 L 177.3,149.5 M 99.9,173.2 L 175.0,173.2 M 175.0,173.2 L 177.9,166.1 M 267.6,33.0 L 228.0,42.8 M 228.0,42.8 L 225.1,49.9 M 251.9,230.3 L 251.9,192.7 M 251.9,192.7 L 244.8,189.8 M 314.2,89.3 L 272.5,106.4 M 172.9,140.0 L 172.9,176.3 M 153.2,95.2 L 172.9,140.0 M 255.2,196.5 L 272.0,176.7 M 272.0,176.7 L 268.0,154.1 M 268.0,154.1 L 245.4,141.4 M 105.4,146.4 L 77.4,107.8 M 77.4,107.8 L 20.2,118.0 M 20.2,118.0 L 20.0,173.6 M 20.0,173.6 L 47.5,198.9 M 228.9,68.0 L 228.9,40.2 M 228.9,40.2 L 192.9,20.0 M 192.9,20.0 L 157.7,39.2 M 340.1,100.6 L 314.2,89.3 M 348.9,143.4 L 340.1,100.6 M 172.9,176.3 L 191.9,196.8 M 306.5,164.8 L 335.7,159.8 M 335.7,159.8 L 348.9,143.4 M 245.4,141.4 L 244.6,105.6 M 272.5,106.4 L 272.5,137.4 M 157.7,39.2 L 153.2,95.2 M 244.6,105.6 L 228.9,68.0 M 105.4,175.5 L 105.4,146.4 M 191.9,196.8 L 255.2,196.5 M 54.9,229.7 L 89.3,225.6 M 47.5,198.9 L 54.9,229.7 M 272.5,137.4 L 306.5,164.8 M 89.3,225.6 L 105.4,175.5" fill="none" stroke="white" stroke-width="2" stroke-linecap="round"/>
  <polygon points="172.43748883137562,153.61111286957563 180.43748883137562,161.61111286957563 172.43748883137562,169.61111286957563 164.43748883137562,161.61111286957563" fill="#4a9eff" stroke="white" stroke-width="1"/>
<polygon points="240.17731026781217,189.1376646098322 248.17731026781217,197.1376646098322 240.17731026781217,205.1376646098322 232.17731026781217,197.1376646098322" fill="#4a9eff" stroke="white" stroke-width="1"/>
<polygon points="338.11067408650143,46.86445199817874 346.11067408650143,54.86445199817874 338.11067408650143,62.86445199817874 330.11067408650143,54.86445199817874" fill="#4a9eff" stroke="white" stroke-width="1"/>
</svg>