<svg xmlns="http://www.w3.org/2000/svg" viewBox="0 0 400 400">
  <rect width="400" height="400" fill="#1a1a2e"/>
  <path d="M 237.9,284.6 L 264.5,284.6 L 253.5,206.0 Z M 237.9,284.6 L 253.5,206.0 L 237.9,206.3 Z M 380.0,71.2 L 380.0,44.5 L 301.4,55.5 Z M 380.0,71.2 L 301.4,55.5 L 301.7,71.2 Z M 147.2,98.0 L 20.0,98.0 L 20.0,124.7 Z M 147.2,98.0 L 20.0,124.7 L 142.0,124.7 Z M 264.5,211.5 L 253.5,206.0 L 264.5,284.6 Z M 306.9,44.5 L 301.4,55.5 L 380.0,44.5 Z M 293.4,124.5 L 287.0,110.0 L 279.9,138.4 Z M 287.0,110.0 L 230.9,99.1 L 279.9,138.4 Z M 279.9,138.4 L 230.9,99.1 L 230.9,147.4 Z M 236.3,66.0 L 224.3,74.6 L 246.7,78.2 Z M 224.3,74.6 L 230.9,99.1 L 246.7,78.2 Z M 246.7,78.2 L 230.9,99.1 L 287.0,110.0 Z M 274.1,166.5 L 279.9,138.4 L 230.9,147.4 Z M 274.1,166.5 L 230.9,147.4 L 251.5,166.3 Z M 287.0,110.0 L 286.8,79.9 L 266.6,64.9 Z M 287.0,110.0 L 266.6,64.9 L 246.7,78.2 Z M 200.3,129.8 L 136.3,136.5 L 189.6,157.8 Z M 200.3,129.8 L 189.6,157.8 L 205.8,147.2 Z M 205.8,147.2 L 189.6,157.8 L 234.4,217.9 Z M 205.8,147.2 L 234.4,217.9 L 245.1,179.1 Z M 293.0,217.9 L 272.8,200.3 L 234.4,217.9 Z M 272.8,200.3 L 245.1,179.1 L 234.4,217.9 Z M 294.1,162.2 L 272.8,200.3 L 305.2,193.9 Z M 272.8,200.3 L 293.0,217.9 L 305.2,193.9 Z M 193.5,59.6 L 136.3,88.6 L 200.3,129.8 Z M 136.3,88.6 L 136.3,136.5 L 200.3,129.8 Z M 331.1,137.8 L 294.1,162.2 L 331.1,184.8 Z M 294.1,162.2 L 305.2,193.9 L 331.1,184.8 Z M 301.6,64.4 L 311.3,41.0 L 288.2,20.0 Z M 301.6,64.4 L 288.2,20.0 L 269.8,39.0 Z M 236.4,49.7 L 252.5,55.8 L 269.8,39.0 Z M 236.4,49.7 L 269.8,39.0 L 241.9,20.0 Z M 311.3,41.0 L 301.6,64.4 L 311.3,89.2 Z M 288.2,20.0 L 241.9,20.0 L 269.8,39.0 Z M 236.4,49.7 L 241.9,20.0 L 193.5,59.6 Z M 279.9,138.4 L 294.1,162.2 L 331.1,137.8 Z M 279.9,138.4 L 331.1,137.8 L 293.4,124.5 Z M 293.4,124.5 L 331.1,137.8 L 311.3,89.2 Z M 293.4,124.5 L 311.3,89.2 L 287.0,110.0 Z M 287.0,110.0 L 311.3,89.2 L 301.6,64.4 Z M 287.0,110.0 L 301.6,64.4 L 286.8,79.9 Z M 286.8,79.9 L 301.6,64.4 L 269.8,39.0 Z M 286.8,79.9 L 269.8,39.0 L 266.6,64.9 Z M 266.6,64.9 L 269.8,39.0 L 252.5,55.8 Z M 266.6,64.9 L 252.5,55.8 L 246.7,78.2 Z M 246.7,78.2 L 252.5,55.8 L 236.4,49.7 Z M 246.7,78.2 L 236.4,49.7 L 236.3,66.0 Z M 236.3,66.0 L 236.4,49.7 L 193.5,59.6 Z M 236.3,66.0 L 193.5,59.6 L 224.3,74.6 Z M 224.3,74.6 L 193.5,59.6 L 200.3,129.8 Z M 224.3,74.6 L 200.3,129.8 L 230.9,99.1 Z M 230.9,99.1 L 200.3,129.8 L 205.8,147.2 Z M 230.9,99.1 L 205.8,147.2 L 230.9,147.4 Z M 230.9,147.4 L 205.8,147.2 L 245.1,179.1 Z M 230.9,147.4 L 245.1,179.1 L 251.5,166.3 Z M 251.5,166.3 L 245.1,179.1 L 272.8,200.3 Z M 251.5,166.3 L 272.8,200.3 L 274.1,166.5 Z M 272.8,200.3 L 294.1,162.2 L 274.1,166.5 Z M 294.1,162.2 L 279.9,138.4 L 274.1,166.5 Z" fill="#2a2a4e" stroke="none"/>
  <path d="M 237.9,284.6 L 264.5,284.6 M 253.5,206.0 L 237.9,206.3 M 237.9,206.3 L 237.9,284.6 M 380.0,71.2 L 380.0,44.5 M 301.4,55.5 L 301.7,71.2 M 301.7,71.2 L 380.0,71.2 M 147.2,98.0 L 20.0,98.0 M 20.0,98.0 L 20.0,124.7 M 20.0,124.7 L 142.0,124.7 M 142.0,124.7 L 147.2,98.0 M 264.5,211.5 L 253.5,206.0 M 264.5,284.6 L 264.5,211.5 M 306.9,44.5 L 301.4,55.5 M 380.0,44.5 L 306.9,44.5 M 136.3,136.5 L 189.6,157.8 M 189.6,157.8 L 234.4,217.9 M 234.4,217.9 L 293.0,217.9 M 293.0,217.9 L 305.2,193.9 M 193.5,59.6 L 136.3,88.6 M 136.3,88.6 L 136.3,136.5 M 331.1,184.8 L 331.1,137.8 M 305.2,193.9 L 331.1,184.8 M 311.3,41.0 L 288.2,20.0 M 311.3,89.2 L 311.3,41.0 M 288.2,20.0 L 241.9,20.0 M 241.9,20.0 L 193.5,59.6 M 331.1,137.8 L 311.3,89.2" fill="none" stroke="white" stroke-width="2" stroke-linecap="round"/>
  <polygon points="251.17792265499753,212.09732877306124 259.17792265499753,220.09732877306124 251.17792265499753,228.09732877306124 243.17792265499753,220.09732877306124" fill="#4a9eff" stroke="white" stroke-width="1"/>
<polygon points="309.73180391424916,49.233681687196515 317.73180391424916,57.233681687196515 309.73180391424916,65.23368168719651 301.73180391424916,57.233681687196515" fill="#4a9eff" stroke="white" stroke-width="1"/>
<polygon points="134.47146802573485,103.74092669173523 142.47146802573485,111.74092669173523 134.47146802573485,119.74092669173523 126.47146802573485,111.74092669173523" fill="#4a9eff" stroke="white" stroke-width="1"/>
</svg>