<svg xmlns="http://www.w3.org/2000/svg" viewBox="0 0 400 400">
  <rect width="400" height="400" fill="#1a1a2e"/>
  <path d="M 200.9,258.6 L 191.2,226.7 L 157.8,238.4 Z M 200.9,258.6 L 157.8,238.4 L 181.8,265.2 Z M 181.8,265.2 L 157.8,238.4 L 146.5,250.5 Z M 181.8,265.2 L 146.5,250.5 L 155.2,274.4 Z M 217.1,20.0 L 183.9,20.0 L 197.5,98.5 Z M 217.1,20.0 L 197.5,98.5 L 217.1,98.1 Z M 92.6,380.0 L 125.8,380.0 L 115.9,301.0 Z M 92.6,380.0 L 115.9,301.0 L 92.6,301.9 Z M 84.7,163.3 L 52.7,172.4 L 71.3,225.3 Z M 84.7,163.3 L 71.3,225.3 L 98.9,204.1 Z M 94.9,219.0 L 98.9,204.1 L 71.3,225.3 Z M 197.5,98.5 L 183.9,20.0 L 183.9,91.7 Z M 115.9,301.0 L 125.8,380.0 L 125.8,305.0 Z M 87.7,239.4 L 93.2,213.8 L 67.4,209.4 Z M 87.7,239.4 L 67.4,209.4 L 61.8,235.0 Z M 78.9,227.1 L 98.2,279.2 L 149.4,257.6 Z M 78.9,227.1 L 149.4,257.6 L 130.1,205.5 Z M 156.0,275.1 L 161.6,249.4 L 135.8,245.0 Z M 156.0,275.1 L 135.8,245.0 L 130.2,270.7 Z M 109.3,318.7 L 114.9,293.0 L 89.0,288.6 Z M 109.3,318.7 L 89.0,288.6 L 83.5,314.3 Z M 209.4,244.7 L 214.9,219.1 L 189.1,214.7 Z M 209.4,244.7 L 189.1,214.7 L 183.5,240.3 Z M 174.5,180.3 L 193.8,232.4 L 244.9,210.8 Z M 174.5,180.3 L 244.9,210.8 L 225.7,158.7 Z M 88.5,171.2 L 94.1,145.6 L 68.2,141.2 Z M 88.5,171.2 L 68.2,141.2 L 62.6,166.9 Z M 85.8,91.8 L 91.4,66.1 L 65.5,61.8 Z M 85.8,91.8 L 65.5,61.8 L 60.0,87.4 Z M 219.6,114.5 L 225.2,88.8 L 199.4,84.4 Z M 219.6,114.5 L 199.4,84.4 L 193.8,110.1 Z M 245.5,233.4 L 230.1,207.2 L 204.7,223.7 Z M 245.5,233.4 L 204.7,223.7 L 220.0,249.9 Z M 132.9,246.0 L 124.6,221.1 L 100.1,230.6 Z M 132.9,246.0 L 100.1,230.6 L 108.4,255.5 Z M 120.0,153.1 L 104.7,126.9 L 79.2,143.4 Z M 120.0,153.1 L 79.2,143.4 L 94.6,169.6 Z M 158.9,236.0 L 120.7,252.9 L 117.4,284.5 Z M 158.9,236.0 L 117.4,284.5 L 158.9,310.8 Z M 158.9,310.8 L 117.4,284.5 L 72.1,284.2 Z M 158.9,310.8 L 72.1,284.2 L 37.1,310.8 Z M 37.1,310.8 L 72.1,284.2 L 70.3,260.8 Z M 37.1,310.8 L 70.3,260.8 L 39.7,255.1 Z M 285.3,186.8 L 297.4,186.2 L 275.2,88.9 Z M 285.3,186.8 L 275.2,88.9 L 243.8,119.1 Z M 243.8,119.1 L 275.2,88.9 L 165.5,88.9 Z M 243.8,119.1 L 165.5,88.9 L 197.1,111.3 Z M 197.1,111.3 L 165.5,88.9 L 165.2,178.5 Z M 197.1,111.3 L 165.2,178.5 L 197.9,176.0 Z M 197.9,176.0 L 165.2,178.5 L 189.6,228.3 Z M 197.9,176.0 L 189.6,228.3 L 243.0,182.8 Z M 66.6,180.3 L 34.4,150.6 L 20.0,169.3 Z M 34.4,150.6 L 34.1,103.7 L 20.0,169.3 Z M 20.0,169.3 L 34.1,103.7 L 25.8,84.9 Z M 26.0,227.7 L 20.5,269.2 L 39.7,255.1 Z M 20.5,269.2 L 37.1,310.8 L 39.7,255.1 Z M 112.7,113.6 L 83.2,119.7 L 66.6,180.3 Z M 112.7,113.6 L 66.6,180.3 L 135.3,147.1 Z M 77.7,61.9 L 36.6,61.9 L 25.8,84.9 Z M 77.7,61.9 L 25.8,84.9 L 70.3,77.9 Z M 120.2,194.5 L 120.7,252.9 L 158.9,236.0 Z M 135.3,147.1 L 135.3,93.4 L 112.7,113.6 Z M 290.7,227.0 L 297.4,186.2 L 285.3,186.8 Z M 243.8,119.1 L 243.0,182.8 L 285.3,186.8 Z M 247.0,233.7 L 243.0,182.8 L 189.6,228.3 Z M 34.1,103.7 L 34.4,150.6 L 72.1,121.1 Z M 34.1,103.7 L 72.1,121.1 L 70.3,77.9 Z M 70.3,77.9 L 72.1,121.1 L 83.2,119.7 Z M 70.3,77.9 L 83.2,119.7 L 77.7,61.9 Z M 77.7,61.9 L 83.2,119.7 L 112.7,113.6 Z M 77.7,61.9 L 112.7,113.6 L 135.3,93.4 Z M 72.1,284.2 L 117.4,284.5 L 70.3,260.8 Z M 117.4,284.5 L 120.7,252.9 L 70.3,260.8 Z M 34.4,150.6 L 66.6,180.3 L 72.1,121.1 Z M 66.6,180.3 L 83.2,119.7 L 72.1,121.1 Z M 26.0,227.7 L 70.3,260.8 L 120.7,252.9 Z M 26.0,227.7 L 120.7,252.9 L 120.2,194.5 Z M 197.1,111.3 L 197.9,176.0 L 243.0,182.8 Z M 197.1,111.3 L 243.0,182.8 L 243.8,119.1 Z M 285.3,186.8 L 243.0,182.8 L 247.0,233.7 Z M 285.3,186.8 L 247.0,233.7 L 290.7,227.0 Z M 198.7,268.0 L 247.0,233.7 L 189.6,228.3 Z M 26.0,227.7 L 39.7,255.1 L 70.3,260.8 Z M 70.3,77.9 L 25.8,84.9 L 34.1,103.7 Z M 256.4,290.2 L 290.7,227.0 L 247.0,233.7 Z M 198.7,268.0 L 256.4,290.2 L 247.0,233.7 Z" fill="#2a2a4e" stroke="none"/>
  <path d="M 200.9,258.6 L 191.2,226.7 M 191.2,226.7 L 157.8,238.4 M 181.8,265.2 L 200.9,258.6 M 157.8,238.4 L 146.5,250.5 M 146.5,250.5 L 155.2,274.4 M 155.2,274.4 L 181.8,265.2 M 217.1,20.0 L 183.9,20.0 M 197.5,98.5 L 217.1,98.1 M 217.1,98.1 L 217.1,20.0 M 92.6,380.0 L 125.8,380.0 M 115.9,301.0 L 92.6,301.9 M 92.6,301.9 L 92.6,380.0 M 84.7,163.3 L 52.7,172.4 M 52.7,172.4 L 71.3,225.3 M 98.9,204.1 L 84.7,163.3 M 94.9,219.0 L 98.9,204.1 M 71.3,225.3 L 94.9,219.0 M 183.9,20.0 L 183.9,91.7 M 183.9,91.7 L 197.5,98.5 M 125.8,380.0 L 125.8,305.0 M 125.8,305.0 L 115.9,301.0 M 87.7,239.4 L 93.2,213.8 M 93.2,213.8 L 67.4,209.4 M 67.4,209.4 L 61.8,235.0 M 61.8,235.0 L 87.7,239.4 M 78.9,227.1 L 98.2,279.2 M 98.2,279.2 L 149.4,257.6 M 149.4,257.6 L 130.1,205.5 M 130.1,205.5 L 78.9,227.1 M 156.0,275.1 L 161.6,249.4 M 161.6,249.4 L 135.8,245.0 M 135.8,245.0 L 130.2,270.7 M 130.2,270.7 L 156.0,275.1 M 109.3,318.7 L 114.9,293.0 M 114.9,293.0 L 89.0,288.6 M 89.0,288.6 L 83.5,314.3 M 83.5,314.3 L 109.3,318.7 M 209.4,244.7 L 214.9,219.1 M 214.9,219.1 L 189.1,214.7 M 189.1,214.7 L 183.5,240.3 M 183.5,240.3 L 209.4,244.7 M 174.5,180.3 L 193.8,232.4 M 193.8,232.4 L 244.9,210.8 M 244.9,210.8 L 225.7,158.7 M 225.7,158.7 L 174.5,180.3 M 88.5,171.2 L 94.1,145.6 M 94.1,145.6 L 68.2,141.2 M 68.2,141.2 L 62.6,166.9 M 62.6,166.9 L 88.5,171.2 M 85.8,91.8 L 91.4,66.1 M 91.4,66.1 L 65.5,61.8 M 65.5,61.8 L 60.0,87.4 M 60.0,87.4 L 85.8,91.8 M 219.6,114.5 L 225.2,88.8 M 225.2,88.8 L 199.4,84.4 M 199.4,84.4 L 193.8,110.1 M 193.8,110.1 L 219.6,114.5 M 245.5,233.4 L 230.1,207.2 M 230.1,207.2 L 204.7,223.7 M 204.7,223.7 L 220.0,249.9 M 220.0,249.9 L 245.5,233.4 M 132.9,246.0 L 124.6,221.1 M 124.6,221.1 L 100.1,230.6 M 100.1,230.6 L 108.4,255.5 M 108.4,255.5 L 132.9,246.0 M 120.0,153.1 L 104.7,126.9 M 104.7,126.9 L 79.2,143.4 M 79.2,143.4 L 94.6,169.6 M 94.6,169.6 L 120.0,153.1 M 158.9,310.8 L 158.9,236.0 M 37.1,310.8 L 158.9,310.8 M 297.4,186.2 L 275.2,88.9 M 275.2,88.9 L 165.5,88.9 M 165.5,88.9 L 165.2,178.5 M 165.2,178.5 L 189.6,228.3 M 20.0,169.3 L 66.6,180.3 M 25.8,84.9 L 20.0,169.3 M 26.0,227.7 L 20.5,269.2 M 20.5,269.2 L 37.1,310.8 M 66.6,180.3 L 135.3,147.1 M 77.7,61.9 L 36.6,61.9 M 36.6,61.9 L 25.8,84.9 M 158.9,236.0 L 120.2,194.5 M 135.3,147.1 L 135.3,93.4 M 290.7,227.0 L 297.4,186.2 M 135.3,93.4 L 77.7,61.9 M 120.2,194.5 L 26.0,227.7 M 189.6,228.3 L 198.7,268.0 M 256.4,290.2 L 290.7,227.0 M 198.7,268.0 L 256.4,290.2" fill="none" stroke="white" stroke-width="2" stroke-linecap="round"/>
  <polygon points="201.0234855518946,80.5750937274418 209.0234855518946,88.5750937274418 201.0234855518946,96.5750937274418 193.0234855518946,88.5750937274418" fill="#4a9eff" stroke="white" stroke-width="1"/>
<polygon points="108.8014366265372,304.67292537288535 116.8014366265372,312.67292537288535 108.8014366265372,320.67292537288535 100.8014366265372,312.67292537288535" fill="#4a9eff" stroke="white" stroke-width="1"/>
</svg>