<svg xmlns="http://www.w3.org/2000/svg" viewBox="0 0 400 400">
  <rect width="400" height="400" fill="#1a1a2e"/>
  <path d="M 228.2,230.3 L 251.9,230.3 L 244.8,189.8 Z M 228.2,230.3 L 244.8,189.8 L 228.2,190.4 Z M 304.0,49.9 L 304.6,66.6 L 306.9,42.9 Z M 304.6,66.6 L 380.0,66.6 L 306.9,42.9 Z M 306.9,42.9 L 380.0,66.6 L 380.0,42.9 Z M 99.9,173.2 L 177.9,166.1 L 177.3,149.5 Z M 99.9,173.2 L 177.3,149.5 L 99.9,149.5 Z M 177.9,166.1 L 99.9,173.2 L 175.0,173.2 Z M 244.8,189.8 L 251.9,230.3 L 251.9,192.7 Z M 89.1,159.0 L 105.4,146.4 L 77.4,107.8 Z M 89.1,159.0 L 77.4,107.8 L 70.8,133.4 Z M 70.8,133.4 L 77.4,107.8 L 20.2,118.0 Z M 70.8,133.4 L 20.2,118.0 L 36.4,133.9 Z M 36.4,133.9 L 20.2,118.0 L 20.0,173.6 Z M 36.4,133.9 L 20.0,173.6 L 36.9,155.6 Z M 36.9,155.6 L 20.0,173.6 L 47.5,198.9 Z M 36.9,155.6 L 47.5,198.9 L 69.0,174.6 Z M 191.9,196.8 L 227.6,182.0 L 210.5,171.1 Z M 191.9,196.8 L 210.5,171.1 L 172.9,176.3 Z M 172.9,176.3 L 210.5,171.1 L 189.2,142.0 Z M 172.9,176.3 L 189.2,142.0 L 172.9,140.0 Z M 172.9,140.0 L 189.2,142.0 L 186.6,109.7 Z M 172.9,140.0 L 186.6,109.7 L 153.2,95.2 Z M 227.6,182.0 L 255.2,196.5 L 272.0,176.7 Z M 227.6,182.0 L 272.0,176.7 L 240.8,173.3 Z M 240.8,173.3 L 272.0,176.7 L 273.9,154.3 Z M 240.8,173.3 L 273.9,154.3 L 240.9,157.2 Z M 216.9,105.2 L 213.8,129.7 L 258.7,131.1 Z M 216.9,105.2 L 258.7,131.1 L 263.1,105.5 Z M 263.1,105.5 L 258.7,131.1 L 298.3,127.9 Z M 263.1,105.5 L 298.3,127.9 L 310.4,82.9 Z M 157.7,39.2 L 189.0,54.4 L 192.9,20.0 Z M 189.0,54.4 L 221.5,29.4 L 192.9,20.0 Z M 221.5,29.4 L 241.1,52.3 L 263.8,56.3 Z M 221.5,29.4 L 263.8,56.3 L 272.5,21.5 Z M 157.7,39.2 L 168.4,78.7 L 188.2,77.3 Z M 157.7,39.2 L 188.2,77.3 L 189.0,54.4 Z M 263.8,56.3 L 263.1,105.5 L 310.4,82.9 Z M 263.8,56.3 L 310.4,82.9 L 310.4,43.1 Z M 105.4,175.5 L 105.4,146.4 L 89.1,159.0 Z M 70.8,133.4 L 69.0,174.6 L 89.1,159.0 Z M 210.5,171.1 L 213.8,129.7 L 189.2,142.0 Z M 191.9,196.8 L 255.2,196.5 L 227.6,182.0 Z M 221.5,29.4 L 189.0,54.4 L 241.1,52.3 Z M 273.9,154.3 L 298.3,127.9 L 258.7,131.1 Z M 157.7,39.2 L 153.2,95.2 L 168.4,78.7 Z M 263.8,56.3 L 310.4,43.1 L 272.5,21.5 Z M 189.0,54.4 L 188.2,77.3 L 216.9,105.2 Z M 189.0,54.4 L 216.9,105.2 L 241.1,52.3 Z M 241.1,52.3 L 216.9,105.2 L 263.1,105.5 Z M 241.1,52.3 L 263.1,105.5 L 263.8,56.3 Z M 189.2,142.0 L 213.8,129.7 L 216.9,105.2 Z M 189.2,142.0 L 216.9,105.2 L 186.6,109.7 Z M 186.6,109.7 L 216.9,105.2 L 188.2,77.3 Z M 186.6,109.7 L 188.2,77.3 L 168.4,78.7 Z M 54.9,229.7 L 89.3,225.6 L 47.5,198.9 Z M 89.3,225.6 L 69.0,174.6 L 47.5,198.9 Z M 69.0,174.6 L 70.8,133.4 L 36.4,133.9 Z M 69.0,174.6 L 36.4,133.9 L 36.9,155.6 Z M 89.3,225.6 L 105.4,175.5 L 89.1,159.0 Z M 89.3,225.6 L 89.1,159.0 L 69.0,174.6 Z M 213.8,129.7 L 240.9,157.2 L 273.9,154.3 Z M 213.8,129.7 L 273.9,154.3 L 258.7,131.1 Z M 240.9,157.2 L 210.5,171.1 L 227.6,182.0 Z M 240.9,157.2 L 227.6,182.0 L 240.8,173.3 Z M 153.2,95.2 L 186.6,109.7 L 168.4,78.7 Z M 213.8,129.7 L 210.5,171.1 L 240.9,157.2 Z" fill="#2a2a4e" stroke="none"/>
  <path d="M 228.2,230.3 L 251.9,230.3 M 244.8,189.8 L 228.2,190.4 M 228.2,190.4 L 228.2,230.3 M 304.0,49.9 L 304.6,66.6 M 306.9,42.9 L 304.0,49.9 M 304.6,66.6 L 380.0,66.6 M 380.0,66.6 L 380.0,42.9 M 380.0,42.9 L 306.9,42.9 M 177.9,166.1 L 177.3,149.5 M 177.3,149.5 L 99.9,149.5 M 99.9,149.5 L 99.9,173.2 M 99.9,173.2 L 175.0,173.2 M 175.0,173.2 L 177.9,166.1 M 251.9,230.3 L 251.9,192.7 M 251.9,192.7 L 244.8,189.8 M 105.4,146.4 L 77.4,107.8 M 77.4,107.8 L 20.2,118.0 M 20.2,118.0 L 20.0,173.6 M 20.0,173.6 L 47.5,198.9 M 172.9,176.3 L 191.9,196.8 M 172.9,140.0 L 172.9,176.3 M 153.2,95.2 L 172.9,140.0 M 255.2,196.5 L 272.0,176.7 M 272.0,176.7 L 273.9,154.3 M 298.3,127.9 L 310.4,82.9 M 192.9,20.0 L 157.7,39.2 M 221.5,29.4 L 192.9,20.0 M 272.5,21.5 L 221.5,29.4 M 310.4,82.9 L 310.4,43.1 M 105.4,175.5 L 105.4,146.4 M 191.9,196.8 L 255.2,196.5 M 273.9,154.3 L 298.3,127.9 M 157.7,39.2 L 153.2,95.2 M 310.4,43.1 L 272.5,21.5 M 54.9,229.7 L 89.3,225.6 M 47.5,198.9 L 54.9,229.7 M 89.3,225.6 L 105.4,175.5" fill="none" stroke="white" stroke-width="2" stroke-linecap="round"/>
  <polygon points="309.8551062573012,46.85052303695652 317.8551062573012,54.85052303695652 309.8551062573012,62.85052303695652 301.8551062573012,54.85052303695652" fill="#4a9eff" stroke="white" stroke-width="1"/>
<polygon points="172.89160062291995,153.43043633315926 180.89160062291995,161.43043633315926 172.89160062291995,169.43043633315926 164.89160062291995,161.43043633315926" fill="#4a9eff" stroke="white" stroke-width="1"/>
<polygon points="239.9298151998381,188.53652467787296 247.9298151998381,196.53652467787296 239.9298151998381,204.53652467787296 231.9298151998381,196.53652467787296" fill="#4a9eff" stroke="white" stroke-width="1"/>
</svg>