<svg xmlns="http://www.w3.org/2000/svg" viewBox="0 0 400 400">
  <rect width="400" height="400" fill="#1a1a2e"/>
  <path d="M 98.5,380.0 L 133.1,380.0 L 118.8,263.5 Z M 98.5,380.0 L 118.8,263.5 L 98.5,263.9 Z M 217.8,132.7 L 252.2,148.0 L 253.0,80.4 Z M 217.8,132.7 L 253.0,80.4 L 218.3,78.5 Z M 133.1,270.6 L 118.8,263.5 L 133.1,380.0 Z M 217.8,132.7 L 225.7,148.0 L 252.2,148.0 Z M 245.8,201.7 L 242.8,171.7 L 218.3,171.9 Z M 245.8,201.7 L 218.3,171.9 L 227.9,221.2 Z M 227.9,221.2 L 218.3,171.9 L 199.0,161.7 Z M 227.9,221.2 L 199.0,161.7 L 160.8,212.7 Z M 105.4,212.8 L 104.5,228.1 L 152.7,235.3 Z M 105.4,212.8 L 152.7,235.3 L 160.8,212.7 Z M 160.8,212.7 L 152.7,235.3 L 165.5,258.7 Z M 160.8,212.7 L 165.5,258.7 L 227.9,221.2 Z M 70.2,77.3 L 92.5,116.2 L 127.3,88.4 Z M 70.2,77.3 L 127.3,88.4 L 121.6,68.4 Z M 121.6,68.4 L 127.3,88.4 L 169.3,72.9 Z M 121.6,68.4 L 169.3,72.9 L 162.4,65.4 Z M 186.6,277.5 L 226.7,276.6 L 237.0,242.2 Z M 186.6,277.5 L 237.0,242.2 L 227.9,221.2 Z M 66.7,116.4 L 92.5,116.2 L 70.2,77.3 Z M 227.9,221.2 L 165.5,258.7 L 186.6,277.5 Z M 39.0,224.0 L 42.8,281.8 L 100.3,275.4 Z M 39.0,224.0 L 100.3,275.4 L 96.6,217.6 Z M 112.3,282.7 L 118.1,255.9 L 91.1,251.4 Z M 112.3,282.7 L 91.1,251.4 L 85.3,278.1 Z M 149.3,284.2 L 155.1,257.4 L 128.1,252.8 Z M 149.3,284.2 L 128.1,252.8 L 122.3,279.6 Z M 215.2,160.9 L 235.2,215.2 L 288.6,192.7 Z M 215.2,160.9 L 288.6,192.7 L 268.5,138.4 Z M 257.5,88.0 L 263.3,61.2 L 236.4,56.6 Z M 257.5,88.0 L 236.4,56.6 L 230.5,83.4 Z M 229.0,78.2 L 234.8,51.5 L 207.9,46.9 Z M 229.0,78.2 L 207.9,46.9 L 202.1,73.6 Z M 289.1,216.2 L 273.2,188.9 L 246.6,206.2 Z M 289.1,216.2 L 246.6,206.2 L 262.6,233.5 Z M 86.5,257.4 L 77.9,231.4 L 52.3,241.3 Z M 86.5,257.4 L 52.3,241.3 L 61.0,267.2 Z M 254.1,151.8 L 238.1,124.5 L 211.6,141.8 Z M 254.1,151.8 L 211.6,141.8 L 227.6,169.1 Z M 80.6,76.0 L 72.0,50.0 L 46.5,59.7 Z M 80.6,76.0 L 46.5,59.7 L 55.0,85.7 Z M 48.7,73.5 L 54.5,46.7 L 27.5,42.2 Z M 48.7,73.5 L 27.5,42.2 L 21.7,68.9 Z M 77.7,56.0 L 83.5,29.2 L 56.5,24.6 Z M 77.7,56.0 L 56.5,24.6 L 50.7,51.4 Z M 150.1,193.0 L 134.7,181.5 L 47.7,196.5 Z M 150.1,193.0 L 47.7,196.5 L 83.8,205.8 Z M 83.8,205.8 L 47.7,196.5 L 26.5,242.4 Z M 83.8,205.8 L 26.5,242.4 L 67.4,227.7 Z M 67.4,227.7 L 26.5,242.4 L 56.5,277.5 Z M 67.4,227.7 L 56.5,277.5 L 106.3,248.9 Z M 202.8,129.7 L 219.3,145.6 L 251.7,156.5 Z M 202.8,129.7 L 251.7,156.5 L 261.7,134.1 Z M 261.7,134.1 L 251.7,156.5 L 278.9,195.4 Z M 261.7,134.1 L 278.9,195.4 L 295.2,215.1 Z M 295.2,215.1 L 278.9,195.4 L 247.8,224.7 Z M 295.2,215.1 L 247.8,224.7 L 273.9,246.2 Z M 116.0,48.4 L 165.6,43.8 L 136.2,31.9 Z M 165.6,43.8 L 172.2,21.6 L 136.2,31.9 Z M 48.8,20.0 L 116.0,48.4 L 92.6,20.0 Z M 116.0,48.4 L 136.2,31.9 L 92.6,20.0 Z M 235.8,288.3 L 253.2,305.2 L 292.3,264.5 Z M 235.8,288.3 L 292.3,264.5 L 273.9,246.2 Z M 165.6,43.8 L 204.5,58.9 L 268.1,21.6 Z M 165.6,43.8 L 268.1,21.6 L 172.2,21.6 Z M 294.7,50.2 L 204.5,58.9 L 201.4,81.3 Z M 294.7,50.2 L 201.4,81.3 L 276.8,89.6 Z M 20.0,115.1 L 42.3,140.3 L 46.9,70.3 Z M 20.0,115.1 L 46.9,70.3 L 20.0,50.1 Z M 253.2,305.2 L 235.8,288.3 L 179.2,305.2 Z M 292.3,264.5 L 295.2,215.1 L 273.9,246.2 Z M 150.1,193.0 L 202.8,129.7 L 134.7,181.5 Z M 106.3,248.9 L 56.5,277.5 L 141.2,277.5 Z M 204.5,58.9 L 294.7,50.2 L 268.1,21.6 Z M 141.2,277.5 L 165.5,258.7 L 152.7,235.3 Z M 141.2,277.5 L 152.7,235.3 L 106.3,248.9 Z M 106.3,248.9 L 152.7,235.3 L 104.5,228.1 Z M 106.3,248.9 L 104.5,228.1 L 67.4,227.7 Z M 67.4,227.7 L 104.5,228.1 L 105.4,212.8 Z M 67.4,227.7 L 105.4,212.8 L 83.8,205.8 Z M 83.8,205.8 L 105.4,212.8 L 160.8,212.7 Z M 83.8,205.8 L 160.8,212.7 L 150.1,193.0 Z M 150.1,193.0 L 160.8,212.7 L 199.0,161.7 Z M 150.1,193.0 L 199.0,161.7 L 202.8,129.7 Z M 202.8,129.7 L 199.0,161.7 L 218.3,171.9 Z M 202.8,129.7 L 218.3,171.9 L 219.3,145.6 Z M 219.3,145.6 L 218.3,171.9 L 242.8,171.7 Z M 219.3,145.6 L 242.8,171.7 L 251.7,156.5 Z M 251.7,156.5 L 242.8,171.7 L 245.8,201.7 Z M 251.7,156.5 L 245.8,201.7 L 278.9,195.4 Z M 278.9,195.4 L 245.8,201.7 L 227.9,221.2 Z M 278.9,195.4 L 227.9,221.2 L 247.8,224.7 Z M 247.8,224.7 L 227.9,221.2 L 237.0,242.2 Z M 247.8,224.7 L 237.0,242.2 L 273.9,246.2 Z M 273.9,246.2 L 237.0,242.2 L 226.7,276.6 Z M 273.9,246.2 L 226.7,276.6 L 235.8,288.3 Z M 235.8,288.3 L 226.7,276.6 L 186.6,277.5 Z M 235.8,288.3 L 186.6,277.5 L 179.2,305.2 Z M 179.2,305.2 L 186.6,277.5 L 165.5,258.7 Z M 179.2,305.2 L 165.5,258.7 L 141.2,277.5 Z M 201.4,81.3 L 169.3,72.9 L 127.3,88.4 Z M 201.4,81.3 L 127.3,88.4 L 149.6,103.8 Z M 149.6,103.8 L 127.3,88.4 L 92.5,116.2 Z M 149.6,103.8 L 92.5,116.2 L 99.2,140.2 Z M 99.2,140.2 L 92.5,116.2 L 66.7,116.4 Z M 99.2,140.2 L 66.7,116.4 L 42.3,140.3 Z M 42.3,140.3 L 66.7,116.4 L 70.2,77.3 Z M 42.3,140.3 L 70.2,77.3 L 46.9,70.3 Z M 46.9,70.3 L 70.2,77.3 L 48.8,20.0 Z M 46.9,70.3 L 48.8,20.0 L 20.0,50.1 Z M 48.8,20.0 L 70.2,77.3 L 121.6,68.4 Z M 48.8,20.0 L 121.6,68.4 L 116.0,48.4 Z M 116.0,48.4 L 121.6,68.4 L 162.4,65.4 Z M 116.0,48.4 L 162.4,65.4 L 165.6,43.8 Z M 165.6,43.8 L 162.4,65.4 L 169.3,72.9 Z M 165.6,43.8 L 169.3,72.9 L 204.5,58.9 Z M 169.3,72.9 L 201.4,81.3 L 204.5,58.9 Z" fill="#2a2a4e" stroke="none"/>
  <path d="M 98.5,380.0 L 133.1,380.0 M 118.8,263.5 L 98.5,263.9 M 98.5,263.9 L 98.5,380.0 M 252.2,148.0 L 253.0,80.4 M 253.0,80.4 L 218.3,78.5 M 218.3,78.5 L 217.8,132.7 M 133.1,270.6 L 118.8,263.5 M 133.1,380.0 L 133.1,270.6 M 217.8,132.7 L 225.7,148.0 M 225.7,148.0 L 252.2,148.0 M 39.0,224.0 L 42.8,281.8 M 42.8,281.8 L 100.3,275.4 M 100.3,275.4 L 96.6,217.6 M 96.6,217.6 L 39.0,224.0 M 112.3,282.7 L 118.1,255.9 M 118.1,255.9 L 91.1,251.4 M 91.1,251.4 L 85.3,278.1 M 85.3,278.1 L 112.3,282.7 M 149.3,284.2 L 155.1,257.4 M 155.1,257.4 L 128.1,252.8 M 128.1,252.8 L 122.3,279.6 M 122.3,279.6 L 149.3,284.2 M 215.2,160.9 L 235.2,215.2 M 235.2,215.2 L 288.6,192.7 M 288.6,192.7 L 268.5,138.4 M 268.5,138.4 L 215.2,160.9 M 257.5,88.0 L 263.3,61.2 M 263.3,61.2 L 236.4,56.6 M 236.4,56.6 L 230.5,83.4 M 230.5,83.4 L 257.5,88.0 M 229.0,78.2 L 234.8,51.5 M 234.8,51.5 L 207.9,46.9 M 207.9,46.9 L 202.1,73.6 M 202.1,73.6 L 229.0,78.2 M 289.1,216.2 L 273.2,188.9 M 273.2,188.9 L 246.6,206.2 M 246.6,206.2 L 262.6,233.5 M 262.6,233.5 L 289.1,216.2 M 86.5,257.4 L 77.9,231.4 M 77.9,231.4 L 52.3,241.3 M 52.3,241.3 L 61.0,267.2 M 61.0,267.2 L 86.5,257.4 M 254.1,151.8 L 238.1,124.5 M 238.1,124.5 L 211.6,141.8 M 211.6,141.8 L 227.6,169.1 M 227.6,169.1 L 254.1,151.8 M 80.6,76.0 L 72.0,50.0 M 72.0,50.0 L 46.5,59.7 M 46.5,59.7 L 55.0,85.7 M 55.0,85.7 L 80.6,76.0 M 48.7,73.5 L 54.5,46.7 M 54.5,46.7 L 27.5,42.2 M 27.5,42.2 L 21.7,68.9 M 21.7,68.9 L 48.7,73.5 M 77.7,56.0 L 83.5,29.2 M 83.5,29.2 L 56.5,24.6 M 56.5,24.6 L 50.7,51.4 M 50.7,51.4 L 77.7,56.0 M 134.7,181.5 L 47.7,196.5 M 47.7,196.5 L 26.5,242.4 M 26.5,242.4 L 56.5,277.5 M 261.7,134.1 L 202.8,129.7 M 295.2,215.1 L 261.7,134.1 M 172.2,21.6 L 136.2,31.9 M 92.6,20.0 L 48.8,20.0 M 136.2,31.9 L 92.6,20.0 M 253.2,305.2 L 292.3,264.5 M 268.1,21.6 L 172.2,21.6 M 201.4,81.3 L 276.8,89.6 M 276.8,89.6 L 294.7,50.2 M 20.0,115.1 L 42.3,140.3 M 20.0,50.1 L 20.0,115.1 M 179.2,305.2 L 253.2,305.2 M 292.3,264.5 L 295.2,215.1 M 202.8,129.7 L 134.7,181.5 M 56.5,277.5 L 141.2,277.5 M 294.7,50.2 L 268.1,21.6 M 141.2,277.5 L 179.2,305.2 M 149.6,103.8 L 201.4,81.3 M 99.2,140.2 L 149.6,103.8 M 42.3,140.3 L 99.2,140.2 M 48.8,20.0 L 20.0,50.1" fill="none" stroke="white" stroke-width="2" stroke-linecap="round"/>
  <polygon points="117.08628382563988,274.0708192233418 125.08628382563988,282.0708192233418 117.08628382563988,290.0708192233418 109.08628382563988,282.0708192233418" fill="#4a9eff" stroke="white" stroke-width="1"/>
</svg>