<svg xmlns="http://www.w3.org/2000/svg" viewBox="0 0 400 400">
  <rect width="400" height="400" fill="#1a1a2e"/>
  <path d="M 380.0,213.4 L 380.0,177.1 L 273.1,192.1 Z M 380.0,213.4 L 273.1,192.1 L 273.5,213.4 Z M 89.6,20.0 L 53.3,20.0 L 68.3,126.9 Z M 89.6,20.0 L 68.3,126.9 L 89.6,126.5 Z M 280.5,177.1 L 273.1,192.1 L 380.0,177.1 Z M 53.3,119.5 L 68.3,126.9 L 53.3,20.0 Z M 162.2,137.9 L 142.5,142.4 L 181.1,156.2 Z M 142.5,142.4 L 123.4,229.9 L 181.1,156.2 Z M 181.1,156.2 L 123.4,229.9 L 184.0,226.6 Z M 82.6,215.5 L 92.0,244.3 L 99.2,201.4 Z M 92.0,244.3 L 123.4,229.9 L 99.2,201.4 Z M 99.2,201.4 L 123.4,229.9 L 142.5,142.4 Z M 221.4,164.1 L 181.1,156.2 L 184.0,226.6 Z M 221.4,164.1 L 184.0,226.6 L 220.9,188.2 Z M 142.5,142.4 L 104.1,150.0 L 81.2,174.3 Z M 142.5,142.4 L 81.2,174.3 L 99.2,201.4 Z M 137.2,257.6 L 143.3,229.6 L 115.0,224.8 Z M 137.2,257.6 L 115.0,224.8 L 108.9,252.8 Z M 119.8,245.4 L 103.8,304.0 L 163.0,317.3 Z M 119.8,245.4 L 163.0,317.3 L 179.0,258.7 Z M 86.4,264.6 L 92.5,236.6 L 64.2,231.8 Z M 86.4,264.6 L 64.2,231.8 L 58.2,259.8 Z M 267.5,175.9 L 273.6,147.9 L 245.4,143.1 Z M 267.5,175.9 L 245.4,143.1 L 239.3,171.1 Z M 214.1,146.0 L 235.1,203.0 L 291.0,179.4 Z M 214.1,146.0 L 291.0,179.4 L 270.0,122.4 Z M 225.9,135.3 L 232.0,107.3 L 203.7,102.5 Z M 225.9,135.3 L 203.7,102.5 L 197.7,130.5 Z M 101.7,144.8 L 107.8,116.8 L 79.6,112.0 Z M 101.7,144.8 L 79.6,112.0 L 73.5,140.0 Z M 200.2,118.6 L 206.3,90.7 L 178.1,85.9 Z M 200.2,118.6 L 178.1,85.9 L 172.0,113.9 Z M 291.6,204.0 L 274.9,175.4 L 247.1,193.5 Z M 291.6,204.0 L 247.1,193.5 L 263.8,222.0 Z M 159.0,289.4 L 149.9,262.2 L 123.2,272.5 Z M 159.0,289.4 L 123.2,272.5 L 132.3,299.7 Z M 222.8,158.1 L 206.0,129.5 L 178.3,147.5 Z M 222.8,158.1 L 178.3,147.5 L 195.0,176.1 Z M 260.3,115.4 L 243.5,86.9 L 215.8,104.9 Z M 260.3,115.4 L 215.8,104.9 L 232.5,133.5 Z M 83.2,140.0 L 74.2,112.8 L 47.5,123.0 Z M 83.2,140.0 L 47.5,123.0 L 56.5,150.2 Z M 169.4,264.4 L 178.5,317.7 L 211.0,257.6 Z M 169.4,264.4 L 211.0,257.6 L 193.0,257.1 Z M 193.0,257.1 L 211.0,257.6 L 289.3,218.2 Z M 193.0,257.1 L 289.3,218.2 L 243.0,208.5 Z M 42.3,254.3 L 87.3,267.1 L 60.4,215.3 Z M 42.3,254.3 L 60.4,215.3 L 20.0,207.8 Z M 20.0,207.8 L 60.4,215.3 L 68.7,193.5 Z M 20.0,207.8 L 68.7,193.5 L 45.9,169.9 Z M 289.3,138.3 L 265.4,165.9 L 289.3,218.2 Z M 265.4,165.9 L 243.0,208.5 L 289.3,218.2 Z M 213.5,136.8 L 265.4,165.9 L 256.7,121.8 Z M 265.4,165.9 L 289.3,138.3 L 256.7,121.8 Z M 87.3,267.1 L 110.9,310.4 L 169.4,264.4 Z M 110.9,310.4 L 178.5,317.7 L 169.4,264.4 Z M 180.3,86.5 L 213.5,136.8 L 244.2,86.5 Z M 213.5,136.8 L 256.7,121.8 L 244.2,86.5 Z M 80.4,126.6 L 48.5,113.5 L 20.0,144.9 Z M 80.4,126.6 L 20.0,144.9 L 45.9,169.9 Z M 48.5,113.5 L 80.4,126.6 L 114.1,113.5 Z M 20.0,144.9 L 20.0,207.8 L 45.9,169.9 Z M 181.1,156.2 L 213.5,136.8 L 180.3,86.5 Z M 181.1,156.2 L 180.3,86.5 L 162.2,137.9 Z M 162.2,137.9 L 180.3,86.5 L 114.1,113.5 Z M 162.2,137.9 L 114.1,113.5 L 142.5,142.4 Z M 142.5,142.4 L 114.1,113.5 L 80.4,126.6 Z M 142.5,142.4 L 80.4,126.6 L 104.1,150.0 Z M 104.1,150.0 L 80.4,126.6 L 45.9,169.9 Z M 104.1,150.0 L 45.9,169.9 L 81.2,174.3 Z M 81.2,174.3 L 45.9,169.9 L 68.7,193.5 Z M 81.2,174.3 L 68.7,193.5 L 99.2,201.4 Z M 99.2,201.4 L 68.7,193.5 L 60.4,215.3 Z M 99.2,201.4 L 60.4,215.3 L 82.6,215.5 Z M 82.6,215.5 L 60.4,215.3 L 87.3,267.1 Z M 82.6,215.5 L 87.3,267.1 L 92.0,244.3 Z M 92.0,244.3 L 87.3,267.1 L 169.4,264.4 Z M 92.0,244.3 L 169.4,264.4 L 123.4,229.9 Z M 123.4,229.9 L 169.4,264.4 L 193.0,257.1 Z M 123.4,229.9 L 193.0,257.1 L 184.0,226.6 Z M 184.0,226.6 L 193.0,257.1 L 243.0,208.5 Z M 184.0,226.6 L 243.0,208.5 L 220.9,188.2 Z M 220.9,188.2 L 243.0,208.5 L 265.4,165.9 Z M 220.9,188.2 L 265.4,165.9 L 221.4,164.1 Z M 265.4,165.9 L 213.5,136.8 L 221.4,164.1 Z M 213.5,136.8 L 181.1,156.2 L 221.4,164.1 Z" fill="#2a2a4e" stroke="none"/>
  <path d="M 380.0,213.4 L 380.0,177.1 M 273.1,192.1 L 273.5,213.4 M 273.5,213.4 L 380.0,213.4 M 89.6,20.0 L 53.3,20.0 M 68.3,126.9 L 89.6,126.5 M 89.6,126.5 L 89.6,20.0 M 280.5,177.1 L 273.1,192.1 M 380.0,177.1 L 280.5,177.1 M 53.3,119.5 L 68.3,126.9 M 53.3,20.0 L 53.3,119.5 M 137.2,257.6 L 143.3,229.6 M 143.3,229.6 L 115.0,224.8 M 115.0,224.8 L 108.9,252.8 M 108.9,252.8 L 137.2,257.6 M 119.8,245.4 L 103.8,304.0 M 103.8,304.0 L 163.0,317.3 M 163.0,317.3 L 179.0,258.7 M 179.0,258.7 L 119.8,245.4 M 86.4,264.6 L 92.5,236.6 M 92.5,236.6 L 64.2,231.8 M 64.2,231.8 L 58.2,259.8 M 58.2,259.8 L 86.4,264.6 M 267.5,175.9 L 273.6,147.9 M 273.6,147.9 L 245.4,143.1 M 245.4,143.1 L 239.3,171.1 M 239.3,171.1 L 267.5,175.9 M 214.1,146.0 L 235.1,203.0 M 235.1,203.0 L 291.0,179.4 M 291.0,179.4 L 270.0,122.4 M 270.0,122.4 L 214.1,146.0 M 225.9,135.3 L 232.0,107.3 M 232.0,107.3 L 203.7,102.5 M 203.7,102.5 L 197.7,130.5 M 197.7,130.5 L 225.9,135.3 M 101.7,144.8 L 107.8,116.8 M 107.8,116.8 L 79.6,112.0 M 79.6,112.0 L 73.5,140.0 M 73.5,140.0 L 101.7,144.8 M 200.2,118.6 L 206.3,90.7 M 206.3,90.7 L 178.1,85.9 M 178.1,85.9 L 172.0,113.9 M 172.0,113.9 L 200.2,118.6 M 291.6,204.0 L 274.9,175.4 M 274.9,175.4 L 247.1,193.5 M 247.1,193.5 L 263.8,222.0 M 263.8,222.0 L 291.6,204.0 M 159.0,289.4 L 149.9,262.2 M 149.9,262.2 L 123.2,272.5 M 123.2,272.5 L 132.3,299.7 M 132.3,299.7 L 159.0,289.4 M 222.8,158.1 L 206.0,129.5 M 206.0,129.5 L 178.3,147.5 M 178.3,147.5 L 195.0,176.1 M 195.0,176.1 L 222.8,158.1 M 260.3,115.4 L 243.5,86.9 M 243.5,86.9 L 215.8,104.9 M 215.8,104.9 L 232.5,133.5 M 232.5,133.5 L 260.3,115.4 M 83.2,140.0 L 74.2,112.8 M 74.2,112.8 L 47.5,123.0 M 47.5,123.0 L 56.5,150.2 M 56.5,150.2 L 83.2,140.0 M 178.5,317.7 L 211.0,257.6 M 211.0,257.6 L 289.3,218.2 M 42.3,254.3 L 87.3,267.1 M 20.0,207.8 L 42.3,254.3 M 289.3,218.2 L 289.3,138.3 M 289.3,138.3 L 256.7,121.8 M 87.3,267.1 L 110.9,310.4 M 110.9,310.4 L 178.5,317.7 M 244.2,86.5 L 180.3,86.5 M 256.7,121.8 L 244.2,86.5 M 48.5,113.5 L 20.0,144.9 M 114.1,113.5 L 48.5,113.5 M 20.0,144.9 L 20.0,207.8 M 180.3,86.5 L 114.1,113.5" fill="none" stroke="white" stroke-width="2" stroke-linecap="round"/>
  <polygon points="71.18894980244944,103.97121402175578 79.18894980244944,111.97121402175578 71.18894980244944,119.97121402175578 63.18894980244944,111.97121402175578" fill="#4a9eff" stroke="white" stroke-width="1"/>
<polygon points="289.8501953704875,186.99001314581264 297.8501953704875,194.99001314581264 289.8501953704875,202.99001314581264 281.8501953704875,194.99001314581264" fill="#4a9eff" stroke="white" stroke-width="1"/>
</svg>