<svg xmlns="http://www.w3.org/2000/svg" viewBox="0 0 400 400">
  <rect width="400" height="400" fill="#1a1a2e"/>
  <path d="M 379.8,227.8 L 379.8,192.7 L 275.8,203.1 Z M 379.8,227.8 L 275.8,203.1 L 276.8,227.8 Z M 104.7,20.0 L 69.6,20.0 L 69.6,119.7 Z M 104.7,20.0 L 69.6,119.7 L 104.7,123.1 Z M 129.0,357.6 L 209.5,364.7 L 216.5,330.0 Z M 129.0,357.6 L 216.5,330.0 L 132.0,322.6 Z M 194.9,193.5 L 140.2,168.0 L 121.8,198.1 Z M 194.9,193.5 L 121.8,198.1 L 180.1,225.3 Z M 275.8,203.1 L 379.8,192.7 L 280.1,192.7 Z M 209.5,364.7 L 220.2,354.6 L 216.5,330.0 Z M 140.2,168.0 L 126.8,173.8 L 121.8,198.1 Z M 64.1,116.6 L 56.9,144.0 L 111.1,144.1 Z M 64.1,116.6 L 111.1,144.1 L 119.0,116.6 Z M 119.0,116.6 L 111.1,144.1 L 165.5,125.0 Z M 119.0,116.6 L 165.5,125.0 L 204.3,87.3 Z M 211.7,142.5 L 282.0,156.3 L 281.6,126.1 Z M 282.0,156.3 L 311.8,122.1 L 281.6,126.1 Z M 281.6,126.1 L 311.8,122.1 L 287.6,87.3 Z M 111.1,144.1 L 147.7,161.7 L 165.5,125.0 Z M 147.7,161.7 L 211.7,142.5 L 165.5,125.0 Z M 65.0,191.8 L 44.6,211.2 L 54.2,239.4 Z M 44.6,211.2 L 20.1,270.4 L 54.2,239.4 Z M 54.2,239.4 L 20.1,270.4 L 56.4,282.5 Z M 117.4,215.8 L 105.3,237.6 L 117.4,266.2 Z M 105.3,237.6 L 94.0,285.5 L 117.4,266.2 Z M 304.4,355.1 L 304.7,314.2 L 280.0,326.9 Z M 304.7,314.2 L 271.7,289.1 L 280.0,326.9 Z M 197.3,179.7 L 174.2,214.7 L 207.9,223.2 Z M 174.2,214.7 L 200.4,237.8 L 207.9,223.2 Z M 197.3,179.7 L 243.9,189.9 L 262.2,178.0 Z M 243.9,189.9 L 267.2,220.4 L 262.2,178.0 Z M 65.0,191.8 L 56.9,144.0 L 34.9,146.7 Z M 65.0,191.8 L 34.9,146.7 L 44.6,211.2 Z M 97.5,320.9 L 55.3,340.0 L 42.8,380.0 Z M 97.5,320.9 L 42.8,380.0 L 117.9,380.0 Z M 106.3,189.6 L 117.4,215.8 L 147.7,161.7 Z M 106.3,189.6 L 147.7,161.7 L 111.1,144.1 Z M 20.0,339.8 L 55.3,340.0 L 56.4,282.5 Z M 20.0,339.8 L 56.4,282.5 L 20.1,270.4 Z M 97.5,320.9 L 155.1,325.7 L 117.4,266.2 Z M 97.5,320.9 L 117.4,266.2 L 94.0,285.5 Z M 56.4,282.5 L 94.0,285.5 L 105.3,237.6 Z M 56.4,282.5 L 105.3,237.6 L 54.2,239.4 Z M 304.4,355.1 L 238.5,354.0 L 209.1,368.9 Z M 304.4,355.1 L 209.1,368.9 L 268.6,377.1 Z M 212.2,299.5 L 193.8,334.2 L 209.1,368.9 Z M 212.2,299.5 L 209.1,368.9 L 222.3,315.9 Z M 283.3,230.7 L 283.3,189.8 L 262.2,178.0 Z M 283.3,230.7 L 262.2,178.0 L 267.2,220.4 Z M 207.9,223.2 L 200.4,237.8 L 227.7,231.2 Z M 207.9,223.2 L 227.7,231.2 L 226.0,221.9 Z M 20.0,339.8 L 42.8,380.0 L 55.3,340.0 Z M 64.1,116.6 L 34.9,146.7 L 56.9,144.0 Z M 117.9,380.0 L 155.1,325.7 L 97.5,320.9 Z M 222.3,315.9 L 209.1,368.9 L 238.5,354.0 Z M 188.4,257.5 L 200.4,237.8 L 174.2,214.7 Z M 111.1,144.1 L 56.9,144.0 L 65.0,191.8 Z M 111.1,144.1 L 65.0,191.8 L 106.3,189.6 Z M 106.3,189.6 L 65.0,191.8 L 54.2,239.4 Z M 106.3,189.6 L 54.2,239.4 L 105.3,237.6 Z M 280.0,326.9 L 271.7,289.1 L 222.3,315.9 Z M 271.7,289.1 L 212.2,299.5 L 222.3,315.9 Z M 304.4,355.1 L 280.0,326.9 L 238.5,354.0 Z M 280.0,326.9 L 222.3,315.9 L 238.5,354.0 Z M 227.7,231.2 L 200.4,237.8 L 233.8,265.5 Z M 200.4,237.8 L 188.4,257.5 L 233.8,265.5 Z M 227.7,231.2 L 267.2,220.4 L 226.0,221.9 Z M 267.2,220.4 L 243.9,189.9 L 226.0,221.9 Z M 287.6,87.3 L 204.3,87.3 L 211.7,142.5 Z M 287.6,87.3 L 211.7,142.5 L 281.6,126.1 Z M 56.4,282.5 L 55.3,340.0 L 97.5,320.9 Z M 56.4,282.5 L 97.5,320.9 L 94.0,285.5 Z M 226.0,221.9 L 243.9,189.9 L 197.3,179.7 Z M 226.0,221.9 L 197.3,179.7 L 207.9,223.2 Z M 283.3,230.7 L 267.2,220.4 L 227.7,231.2 Z M 283.3,230.7 L 227.7,231.2 L 233.8,265.5 Z M 106.3,189.6 L 105.3,237.6 L 117.4,215.8 Z M 204.3,87.3 L 165.5,125.0 L 211.7,142.5 Z" fill="#2a2a4e" stroke="none"/>
  <path d="M 379.8,227.8 L 379.8,192.7 M 275.8,203.1 L 276.8,227.8 M 276.8,227.8 L 379.8,227.8 M 104.7,20.0 L 69.6,20.0 M 69.6,20.0 L 69.6,119.7 M 69.6,119.7 L 104.7,123.1 M 104.7,123.1 L 104.7,20.0 M 129.0,357.6 L 209.5,364.7 M 216.5,330.0 L 132.0,322.6 M 132.0,322.6 L 129.0,357.6 M 194.9,193.5 L 140.2,168.0 M 121.8,198.1 L 180.1,225.3 M 180.1,225.3 L 194.9,193.5 M 379.8,192.7 L 280.1,192.7 M 280.1,192.7 L 275.8,203.1 M 209.5,364.7 L 220.2,354.6 M 220.2,354.6 L 216.5,330.0 M 140.2,168.0 L 126.8,173.8 M 126.8,173.8 L 121.8,198.1 M 119.0,116.6 L 64.1,116.6 M 204.3,87.3 L 119.0,116.6 M 211.7,142.5 L 282.0,156.3 M 282.0,156.3 L 311.8,122.1 M 311.8,122.1 L 287.6,87.3 M 147.7,161.7 L 211.7,142.5 M 44.6,211.2 L 20.1,270.4 M 117.4,266.2 L 117.4,215.8 M 304.4,355.1 L 304.7,314.2 M 304.7,314.2 L 271.7,289.1 M 197.3,179.7 L 174.2,214.7 M 262.2,178.0 L 197.3,179.7 M 34.9,146.7 L 44.6,211.2 M 42.8,380.0 L 117.9,380.0 M 117.4,215.8 L 147.7,161.7 M 20.1,270.4 L 20.0,339.8 M 155.1,325.7 L 117.4,266.2 M 209.1,368.9 L 268.6,377.1 M 268.6,377.1 L 304.4,355.1 M 212.2,299.5 L 193.8,334.2 M 193.8,334.2 L 209.1,368.9 M 283.3,230.7 L 283.3,189.8 M 283.3,189.8 L 262.2,178.0 M 20.0,339.8 L 42.8,380.0 M 64.1,116.6 L 34.9,146.7 M 117.9,380.0 L 155.1,325.7 M 174.2,214.7 L 188.4,257.5 M 271.7,289.1 L 212.2,299.5 M 188.4,257.5 L 233.8,265.5 M 287.6,87.3 L 204.3,87.3 M 233.8,265.5 L 283.3,230.7" fill="none" stroke="white" stroke-width="2" stroke-linecap="round"/>
  <polygon points="87.48066234937407,105.89662878083645 95.48066234937407,113.89662878083645 87.48066234937407,121.89662878083645 79.48066234937407,113.89662878083645" fill="#4a9eff" stroke="white" stroke-width="1"/>
<polygon points="284.23914489648786,203.2413890184294 292.23914489648786,211.2413890184294 284.23914489648786,219.2413890184294 276.23914489648786,211.2413890184294" fill="#4a9eff" stroke="white" stroke-width="1"/>
</svg>