<svg xmlns="http://www.w3.org/2000/svg" viewBox="0 0 400 400">
  <rect width="400" height="400" fill="#1a1a2e"/>
  <path d="M 164.3,96.0 L 140.8,105.3 L 178.4,114.0 Z M 140.8,105.3 L 141.5,136.1 L 178.4,114.0 Z M 178.4,114.0 L 141.5,136.1 L 205.2,122.0 Z M 107.0,178.1 L 124.0,182.4 L 141.5,136.1 Z M 107.0,178.1 L 141.5,136.1 L 118.2,142.0 Z M 107.2,128.0 L 118.2,142.0 L 140.8,105.3 Z M 107.2,128.0 L 140.8,105.3 L 116.2,109.8 Z M 118.2,142.0 L 141.5,136.1 L 140.8,105.3 Z M 246.8,119.4 L 241.9,144.9 L 316.5,144.9 Z M 246.8,119.4 L 316.5,144.9 L 316.5,119.4 Z M 87.7,89.7 L 113.1,94.6 L 113.1,20.0 Z M 87.7,89.7 L 113.1,20.0 L 87.7,20.0 Z M 89.7,227.6 L 94.6,202.2 L 20.0,202.2 Z M 89.7,227.6 L 20.0,202.2 L 20.0,227.6 Z M 132.3,380.0 L 132.3,246.8 L 106.9,241.9 Z M 132.3,380.0 L 106.9,241.9 L 106.9,380.0 Z M 191.0,158.5 L 163.8,163.4 L 195.6,210.8 Z M 191.0,158.5 L 195.6,210.8 L 217.5,197.7 Z M 191.0,158.5 L 179.9,152.5 L 163.8,163.4 Z M 99.6,211.7 L 103.8,192.1 L 84.1,188.7 Z M 99.6,211.7 L 84.1,188.7 L 79.8,208.3 Z M 91.0,210.2 L 108.8,248.8 L 146.5,229.3 Z M 91.0,210.2 L 146.5,229.3 L 128.7,190.7 Z M 136.7,252.5 L 140.9,232.9 L 121.1,229.5 Z M 136.7,252.5 L 121.1,229.5 L 116.9,249.2 Z M 182.4,163.7 L 186.7,144.1 L 166.9,140.8 Z M 182.4,163.7 L 166.9,140.8 L 162.7,160.4 Z M 195.0,211.6 L 209.7,251.5 L 248.9,235.0 Z M 195.0,211.6 L 248.9,235.0 L 234.2,195.1 Z M 208.5,100.7 L 212.8,81.1 L 193.0,77.8 Z M 208.5,100.7 L 193.0,77.8 L 188.8,97.4 Z M 121.5,107.4 L 125.8,87.8 L 106.0,84.4 Z M 121.5,107.4 L 106.0,84.4 L 101.8,104.0 Z M 231.1,207.5 L 219.4,187.5 L 200.0,200.1 Z M 231.1,207.5 L 200.0,200.1 L 211.7,220.1 Z M 107.4,232.5 L 101.0,213.5 L 82.3,220.7 Z M 107.4,232.5 L 82.3,220.7 L 88.7,239.7 Z M 253.2,140.2 L 241.5,120.2 L 222.0,132.8 Z M 253.2,140.2 L 222.0,132.8 L 233.8,152.8 Z M 232.6,86.8 L 220.9,66.8 L 201.5,79.4 Z M 232.6,86.8 L 201.5,79.4 L 213.2,99.5 Z M 108.6,104.1 L 102.3,85.0 L 83.6,92.2 Z M 108.6,104.1 L 83.6,92.2 L 89.9,111.2 Z M 211.3,215.2 L 186.4,218.2 L 186.4,256.1 Z M 211.3,215.2 L 186.4,256.1 L 213.4,247.7 Z M 213.4,247.7 L 186.4,256.1 L 207.7,272.5 Z M 213.4,247.7 L 207.7,272.5 L 251.0,272.4 Z M 252.9,145.4 L 252.9,102.9 L 236.2,122.2 Z M 252.9,102.9 L 230.1,91.3 L 236.2,122.2 Z M 236.2,122.2 L 230.1,91.3 L 199.8,101.8 Z M 230.1,91.3 L 221.4,66.6 L 199.8,101.8 Z M 199.8,101.8 L 221.4,66.6 L 176.6,66.6 Z M 166.4,164.9 L 252.9,145.4 L 220.5,137.2 Z M 252.9,145.4 L 236.2,122.2 L 220.5,137.2 Z M 166.4,164.9 L 127.4,212.1 L 140.7,251.8 Z M 127.4,212.1 L 106.3,251.8 L 140.7,251.8 Z M 251.8,185.2 L 209.6,192.6 L 211.3,215.2 Z M 209.6,192.6 L 186.4,218.2 L 211.3,215.2 Z M 64.3,107.5 L 82.5,125.0 L 99.6,93.4 Z M 64.3,107.5 L 99.6,93.4 L 84.3,85.5 Z M 82.5,125.0 L 64.3,151.6 L 84.2,188.4 Z M 82.5,125.0 L 84.2,188.4 L 98.4,141.5 Z M 84.2,188.4 L 84.2,232.2 L 106.3,251.8 Z M 84.2,188.4 L 106.3,251.8 L 127.4,212.1 Z M 84.3,85.5 L 99.6,93.4 L 130.3,85.5 Z M 64.3,107.5 L 64.3,151.6 L 82.5,125.0 Z M 251.0,272.4 L 272.2,209.0 L 251.8,185.2 Z M 178.4,114.0 L 199.8,101.8 L 176.6,66.6 Z M 178.4,114.0 L 176.6,66.6 L 164.3,96.0 Z M 164.3,96.0 L 176.6,66.6 L 130.3,85.5 Z M 164.3,96.0 L 130.3,85.5 L 140.8,105.3 Z M 140.8,105.3 L 130.3,85.5 L 99.6,93.4 Z M 140.8,105.3 L 99.6,93.4 L 116.2,109.8 Z M 116.2,109.8 L 99.6,93.4 L 82.5,125.0 Z M 116.2,109.8 L 82.5,125.0 L 107.2,128.0 Z M 107.2,128.0 L 82.5,125.0 L 98.4,141.5 Z M 107.2,128.0 L 98.4,141.5 L 118.2,142.0 Z M 118.2,142.0 L 98.4,141.5 L 84.2,188.4 Z M 118.2,142.0 L 84.2,188.4 L 107.0,178.1 Z M 107.0,178.1 L 84.2,188.4 L 127.4,212.1 Z M 107.0,178.1 L 127.4,212.1 L 124.0,182.4 Z M 124.0,182.4 L 127.4,212.1 L 166.4,164.9 Z M 124.0,182.4 L 166.4,164.9 L 141.5,136.1 Z M 141.5,136.1 L 166.4,164.9 L 220.5,137.2 Z M 141.5,136.1 L 220.5,137.2 L 205.2,122.0 Z M 220.5,137.2 L 236.2,122.2 L 205.2,122.0 Z M 236.2,122.2 L 199.8,101.8 L 205.2,122.0 Z M 205.2,122.0 L 199.8,101.8 L 178.4,114.0 Z M 251.8,185.2 L 211.3,215.2 L 213.4,247.7 Z M 251.8,185.2 L 213.4,247.7 L 251.0,272.4 Z" fill="#2a2a4e" stroke="none"/>
  <path d="M 246.8,119.4 L 241.9,144.9 M 241.9,144.9 L 316.5,144.9 M 316.5,144.9 L 316.5,119.4 M 316.5,119.4 L 246.8,119.4 M 87.7,89.7 L 113.1,94.6 M 113.1,94.6 L 113.1,20.0 M 113.1,20.0 L 87.7,20.0 M 87.7,20.0 L 87.7,89.7 M 89.7,227.6 L 94.6,202.2 M 94.6,202.2 L 20.0,202.2 M 20.0,202.2 L 20.0,227.6 M 20.0,227.6 L 89.7,227.6 M 132.3,380.0 L 132.3,246.8 M 132.3,246.8 L 106.9,241.9 M 106.9,241.9 L 106.9,380.0 M 106.9,380.0 L 132.3,380.0 M 163.8,163.4 L 195.6,210.8 M 195.6,210.8 L 217.5,197.7 M 217.5,197.7 L 191.0,158.5 M 191.0,158.5 L 179.9,152.5 M 179.9,152.5 L 163.8,163.4 M 99.6,211.7 L 103.8,192.1 M 103.8,192.1 L 84.1,188.7 M 84.1,188.7 L 79.8,208.3 M 79.8,208.3 L 99.6,211.7 M 91.0,210.2 L 108.8,248.8 M 108.8,248.8 L 146.5,229.3 M 146.5,229.3 L 128.7,190.7 M 128.7,190.7 L 91.0,210.2 M 136.7,252.5 L 140.9,232.9 M 140.9,232.9 L 121.1,229.5 M 121.1,229.5 L 116.9,249.2 M 116.9,249.2 L 136.7,252.5 M 182.4,163.7 L 186.7,144.1 M 186.7,144.1 L 166.9,140.8 M 166.9,140.8 L 162.7,160.4 M 162.7,160.4 L 182.4,163.7 M 195.0,211.6 L 209.7,251.5 M 209.7,251.5 L 248.9,235.0 M 248.9,235.0 L 234.2,195.1 M 234.2,195.1 L 195.0,211.6 M 208.5,100.7 L 212.8,81.1 M 212.8,81.1 L 193.0,77.8 M 193.0,77.8 L 188.8,97.4 M 188.8,97.4 L 208.5,100.7 M 121.5,107.4 L 125.8,87.8 M 125.8,87.8 L 106.0,84.4 M 106.0,84.4 L 101.8,104.0 M 101.8,104.0 L 121.5,107.4 M 231.1,207.5 L 219.4,187.5 M 219.4,187.5 L 200.0,200.1 M 200.0,200.1 L 211.7,220.1 M 211.7,220.1 L 231.1,207.5 M 107.4,232.5 L 101.0,213.5 M 101.0,213.5 L 82.3,220.7 M 82.3,220.7 L 88.7,239.7 M 88.7,239.7 L 107.4,232.5 M 253.2,140.2 L 241.5,120.2 M 241.5,120.2 L 222.0,132.8 M 222.0,132.8 L 233.8,152.8 M 233.8,152.8 L 253.2,140.2 M 232.6,86.8 L 220.9,66.8 M 220.9,66.8 L 201.5,79.4 M 201.5,79.4 L 213.2,99.5 M 213.2,99.5 L 232.6,86.8 M 108.6,104.1 L 102.3,85.0 M 102.3,85.0 L 83.6,92.2 M 83.6,92.2 L 89.9,111.2 M 89.9,111.2 L 108.6,104.1 M 186.4,218.2 L 186.4,256.1 M 186.4,256.1 L 207.7,272.5 M 207.7,272.5 L 251.0,272.4 M 252.9,145.4 L 252.9,102.9 M 252.9,102.9 L 230.1,91.3 M 230.1,91.3 L 221.4,66.6 M 221.4,66.6 L 176.6,66.6 M 166.4,164.9 L 252.9,145.4 M 140.7,251.8 L 166.4,164.9 M 106.3,251.8 L 140.7,251.8 M 251.8,185.2 L 209.6,192.6 M 209.6,192.6 L 186.4,218.2 M 84.3,85.5 L 64.3,107.5 M 64.3,151.6 L 84.2,188.4 M 84.2,188.4 L 84.2,232.2 M 84.2,232.2 L 106.3,251.8 M 130.3,85.5 L 84.3,85.5 M 64.3,107.5 L 64.3,151.6 M 251.0,272.4 L 272.2,209.0 M 272.2,209.0 L 251.8,185.2 M 176.6,66.6 L 130.3,85.5" fill="none" stroke="white" stroke-width="2" stroke-linecap="round"/>
  <polygon points="81.5871482386528,206.15819535642885 89.5871482386528,214.15819535642885 81.5871482386528,222.15819535642885 73.5871482386528,214.15819535642885" fill="#4a9eff" stroke="white" stroke-width="1"/>
<polygon points="254.84335190113393,123.36080437325825 262.84335190113393,131.36080437325825 254.84335190113393,139.36080437325825 246.84335190113393,131.36080437325825" fill="#4a9eff" stroke="white" stroke-width="1"/>
<polygon points="120.35888180488925,246.37020340357725 128.35888180488925,254.37020340357725 120.35888180488925,262.37020340357725 112.35888180488925,254.37020340357725" fill="#4a9eff" stroke="white" stroke-width="1"/>
<polygon points="100.39731548158073,74.39739796415873 108.39731548158073,82.39739796415873 100.39731548158073,90.39739796415873 92.39731548158073,82.39739796415873" fill="#4a9eff" stroke="white" stroke-width="1"/>
</svg>