<svg xmlns="http://www.w3.org/2000/svg" viewBox="0 0 400 400">
  <rect width="400" height="400" fill="#1a1a2e"/>
  <path d="M 20.0,51.3 L 20.0,88.9 L 77.7,70.1 Z M 20.0,51.3 L 77.7,70.1 L 83.0,51.3 Z M 380.0,151.6 L 311.1,151.6 L 380.0,189.2 Z M 311.1,151.6 L 302.3,176.6 L 380.0,189.2 Z M 380.0,189.2 L 302.3,176.6 L 311.1,189.2 Z M 197.7,353.5 L 235.3,353.5 L 198.3,204.8 Z M 235.3,353.5 L 235.9,204.8 L 198.3,204.8 Z M 198.3,204.8 L 235.9,204.8 L 210.8,196.1 Z M 114.3,116.4 L 131.6,107.3 L 96.0,76.2 Z M 114.3,116.4 L 96.0,76.2 L 85.2,91.6 Z M 131.6,107.3 L 141.0,89.2 L 107.4,60.4 Z M 131.6,107.3 L 107.4,60.4 L 106.1,71.8 Z M 77.7,70.1 L 20.0,88.9 L 76.7,88.9 Z M 131.6,107.3 L 106.1,71.8 L 96.0,76.2 Z M 111.1,177.7 L 135.6,176.6 L 135.6,145.3 Z M 111.1,177.7 L 135.6,145.3 L 110.5,138.2 Z M 110.5,138.2 L 135.6,145.3 L 150.8,98.0 Z M 110.5,138.2 L 150.8,98.0 L 80.1,99.5 Z M 215.7,175.8 L 260.9,192.3 L 266.4,146.4 Z M 215.7,175.8 L 266.4,146.4 L 213.3,151.8 Z M 213.3,151.8 L 266.4,146.4 L 260.4,131.1 Z M 213.3,151.8 L 260.4,131.1 L 231.8,137.4 Z M 231.8,137.4 L 260.4,131.1 L 233.3,94.0 Z M 231.8,137.4 L 233.3,94.0 L 218.3,124.3 Z M 260.9,192.3 L 292.4,192.3 L 266.4,146.4 Z M 292.4,192.3 L 305.1,144.8 L 266.4,146.4 Z M 260.4,131.1 L 280.5,124.5 L 233.3,94.0 Z M 280.5,124.5 L 322.5,98.7 L 233.3,94.0 Z M 325.6,67.0 L 260.9,67.0 L 233.3,94.0 Z M 325.6,67.0 L 233.3,94.0 L 322.5,98.7 Z M 192.2,134.0 L 169.9,108.4 L 135.6,145.3 Z M 192.2,134.0 L 135.6,145.3 L 192.0,160.2 Z M 215.7,175.8 L 192.0,160.2 L 135.6,176.6 Z M 215.7,175.8 L 135.6,176.6 L 198.3,184.5 Z M 206.8,60.2 L 135.6,51.3 L 153.0,86.0 Z M 206.8,60.2 L 153.0,86.0 L 192.5,81.8 Z M 80.1,99.5 L 138.8,79.0 L 135.6,51.3 Z M 80.1,99.5 L 135.6,51.3 L 88.7,65.2 Z M 260.9,192.3 L 215.7,175.8 L 198.3,184.5 Z M 150.8,98.0 L 138.8,79.0 L 80.1,99.5 Z M 135.6,51.3 L 78.4,53.7 L 88.7,65.2 Z M 218.3,124.3 L 233.3,94.0 L 208.6,105.2 Z M 192.0,160.2 L 135.6,145.3 L 135.6,176.6 Z M 233.3,94.0 L 260.9,67.0 L 229.6,63.1 Z M 135.6,51.3 L 138.8,79.0 L 153.0,86.0 Z M 169.9,108.4 L 150.8,98.0 L 135.6,145.3 Z M 80.1,99.5 L 68.7,101.0 L 82.4,136.0 Z M 80.1,99.5 L 82.4,136.0 L 110.5,138.2 Z M 110.5,138.2 L 82.4,136.0 L 73.0,179.8 Z M 110.5,138.2 L 73.0,179.8 L 111.1,177.7 Z M 192.0,160.2 L 215.7,175.8 L 213.3,151.8 Z M 192.0,160.2 L 213.3,151.8 L 192.2,134.0 Z M 192.2,134.0 L 213.3,151.8 L 231.8,137.4 Z M 192.2,134.0 L 231.8,137.4 L 218.3,124.3 Z M 233.3,94.0 L 206.8,60.2 L 192.5,81.8 Z M 233.3,94.0 L 192.5,81.8 L 208.6,105.2 Z M 208.6,105.2 L 192.5,81.8 L 169.9,108.4 Z M 208.6,105.2 L 169.9,108.4 L 192.2,134.0 Z M 336.6,103.0 L 322.5,98.7 L 316.4,145.4 Z M 322.5,98.7 L 280.5,124.5 L 316.4,145.4 Z M 316.4,145.4 L 280.5,124.5 L 305.1,144.8 Z M 80.1,99.5 L 88.7,65.2 L 68.7,101.0 Z M 88.7,65.2 L 78.4,53.7 L 68.7,101.0 Z M 68.7,101.0 L 78.4,53.7 L 66.0,54.5 Z M 78.4,53.7 L 74.0,23.1 L 66.0,54.5 Z M 316.6,192.3 L 316.4,145.4 L 305.1,144.8 Z M 316.6,192.3 L 305.1,144.8 L 292.4,192.3 Z M 305.1,144.8 L 280.5,124.5 L 260.4,131.1 Z M 305.1,144.8 L 260.4,131.1 L 266.4,146.4 Z M 322.5,98.7 L 336.6,103.0 L 342.7,67.0 Z M 322.5,98.7 L 342.7,67.0 L 325.6,67.0 Z M 192.5,81.8 L 153.0,86.0 L 150.8,98.0 Z M 192.5,81.8 L 150.8,98.0 L 169.9,108.4 Z M 208.3,29.1 L 206.8,60.2 L 229.6,63.1 Z M 208.3,29.1 L 229.6,63.1 L 234.0,55.4 Z M 342.7,67.0 L 323.4,35.7 L 325.6,67.0 Z M 310.9,223.6 L 316.6,192.3 L 292.4,192.3 Z M 111.1,177.7 L 73.0,179.8 L 88.2,211.1 Z M 218.3,124.3 L 208.6,105.2 L 192.2,134.0 Z M 233.3,94.0 L 229.6,63.1 L 206.8,60.2 Z M 153.0,86.0 L 138.8,79.0 L 150.8,98.0 Z M 310.9,223.6 L 292.4,192.3 L 260.9,192.3 Z M 310.9,223.6 L 260.9,192.3 L 260.9,223.6 Z M 260.9,223.6 L 260.9,192.3 L 198.3,184.5 Z M 260.9,223.6 L 198.3,184.5 L 198.3,215.8 Z M 198.3,215.8 L 198.3,184.5 L 135.6,176.6 Z M 198.3,215.8 L 135.6,176.6 L 135.6,208.0 Z M 135.6,208.0 L 135.6,176.6 L 111.1,177.7 Z M 135.6,208.0 L 111.1,177.7 L 88.2,211.1 Z M 74.0,23.1 L 78.4,53.7 L 135.6,51.3 Z M 74.0,23.1 L 135.6,51.3 L 135.6,20.0 Z M 135.6,20.0 L 135.6,51.3 L 206.8,60.2 Z M 135.6,20.0 L 206.8,60.2 L 208.3,29.1 Z M 208.3,29.1 L 234.0,55.4 L 260.9,35.7 Z M 234.0,55.4 L 260.9,67.0 L 260.9,35.7 Z M 323.4,35.7 L 260.9,35.7 L 260.9,67.0 Z M 323.4,35.7 L 260.9,67.0 L 325.6,67.0 Z M 260.9,67.0 L 234.0,55.4 L 229.6,63.1 Z" fill="#2a2a4e" stroke="none"/>
  <path d="M 20.0,51.3 L 20.0,88.9 M 77.7,70.1 L 83.0,51.3 M 83.0,51.3 L 20.0,51.3 M 380.0,151.6 L 311.1,151.6 M 380.0,189.2 L 380.0,151.6 M 311.1,151.6 L 302.3,176.6 M 302.3,176.6 L 311.1,189.2 M 311.1,189.2 L 380.0,189.2 M 197.7,353.5 L 235.3,353.5 M 198.3,204.8 L 197.7,353.5 M 235.3,353.5 L 235.9,204.8 M 235.9,204.8 L 210.8,196.1 M 210.8,196.1 L 198.3,204.8 M 114.3,116.4 L 131.6,107.3 M 96.0,76.2 L 85.2,91.6 M 85.2,91.6 L 114.3,116.4 M 131.6,107.3 L 141.0,89.2 M 141.0,89.2 L 107.4,60.4 M 107.4,60.4 L 106.1,71.8 M 20.0,88.9 L 76.7,88.9 M 76.7,88.9 L 77.7,70.1 M 106.1,71.8 L 96.0,76.2 M 68.7,101.0 L 82.4,136.0 M 82.4,136.0 L 73.0,179.8 M 316.4,145.4 L 336.6,103.0 M 66.0,54.5 L 68.7,101.0 M 74.0,23.1 L 66.0,54.5 M 316.6,192.3 L 316.4,145.4 M 336.6,103.0 L 342.7,67.0 M 342.7,67.0 L 323.4,35.7 M 310.9,223.6 L 316.6,192.3 M 73.0,179.8 L 88.2,211.1 M 260.9,223.6 L 310.9,223.6 M 198.3,215.8 L 260.9,223.6 M 135.6,208.0 L 198.3,215.8 M 88.2,211.1 L 135.6,208.0 M 135.6,20.0 L 74.0,23.1 M 208.3,29.1 L 135.6,20.0 M 260.9,35.7 L 208.3,29.1 M 323.4,35.7 L 260.9,35.7" fill="none" stroke="white" stroke-width="2" stroke-linecap="round"/>
  <polygon points="216.27072048620826,211.76384912316402 224.27072048620826,219.76384912316402 216.27072048620826,227.76384912316402 208.27072048620826,219.76384912316402" fill="#4a9eff" stroke="white" stroke-width="1"/>
<polygon points="314.8941818010189,162.13104145672904 322.8941818010189,170.13104145672904 314.8941818010189,178.13104145672904 306.8941818010189,170.13104145672904" fill="#4a9eff" stroke="white" stroke-width="1"/>
<polygon points="66.84678210709029,62.51697962107488 74.84678210709029,70.51697962107488 66.84678210709029,78.51697962107488 58.84678210709029,70.51697962107488" fill="#4a9eff" stroke="white" stroke-width="1"/>
</svg>