<svg xmlns="http://www.w3.org/2000/svg" viewBox="0 0 400 400">
  <rect width="400" height="400" fill="#1a1a2e"/>
  <path d="M 242.1,175.8 L 206.1,186.8 L 219.2,224.5 Z M 242.1,175.8 L 219.2,224.5 L 249.5,197.3 Z M 249.5,197.3 L 219.2,224.5 L 232.9,237.2 Z M 249.5,197.3 L 232.9,237.2 L 259.9,227.4 Z M 379.1,298.1 L 379.1,260.6 L 289.9,271.8 Z M 379.1,298.1 L 289.9,271.8 L 290.9,298.1 Z M 147.6,20.0 L 110.1,20.0 L 125.6,108.6 Z M 147.6,20.0 L 125.6,108.6 L 147.6,108.2 Z M 134.4,307.0 L 144.8,343.1 L 204.4,322.1 Z M 134.4,307.0 L 204.4,322.1 L 180.6,290.9 Z M 197.4,295.5 L 180.6,290.9 L 204.4,322.1 Z M 289.9,271.8 L 379.1,260.6 L 294.5,260.6 Z M 125.6,108.6 L 110.1,20.0 L 110.1,101.0 Z M 216.5,223.2 L 235.6,266.3 L 271.3,270.0 Z M 216.5,223.2 L 271.3,270.0 L 300.9,223.2 Z M 300.9,223.2 L 271.3,270.0 L 271.0,321.2 Z M 300.9,223.2 L 271.0,321.2 L 300.9,360.7 Z M 300.9,360.7 L 271.0,321.2 L 244.5,323.2 Z M 300.9,360.7 L 244.5,323.2 L 238.1,357.8 Z M 20.6,157.7 L 75.8,180.1 L 84.6,127.4 Z M 20.6,157.7 L 84.6,127.4 L 50.5,99.6 Z M 50.5,99.6 L 84.6,127.4 L 156.4,128.3 Z M 50.5,99.6 L 156.4,128.3 L 160.3,99.4 Z M 75.8,180.1 L 50.5,215.8 L 151.6,216.1 Z M 75.8,180.1 L 151.6,216.1 L 148.8,179.2 Z M 148.8,179.2 L 151.6,216.1 L 207.8,188.6 Z M 148.8,179.2 L 207.8,188.6 L 156.4,128.3 Z M 153.7,327.4 L 120.1,363.7 L 141.2,380.0 Z M 120.1,363.7 L 67.3,364.1 L 141.2,380.0 Z M 141.2,380.0 L 67.3,364.1 L 45.9,373.4 Z M 207.2,373.2 L 254.0,379.5 L 238.1,357.8 Z M 254.0,379.5 L 300.9,360.7 L 238.1,357.8 Z M 78.4,275.3 L 85.3,308.7 L 153.7,327.4 Z M 78.4,275.3 L 153.7,327.4 L 116.2,249.9 Z M 20.0,314.9 L 20.0,361.2 L 45.9,373.4 Z M 20.0,314.9 L 45.9,373.4 L 38.0,323.2 Z M 169.6,266.9 L 235.6,266.3 L 216.5,223.2 Z M 116.2,249.9 L 55.6,249.9 L 78.4,275.3 Z M 213.9,123.7 L 156.4,128.3 L 207.8,188.6 Z M 20.6,157.7 L 50.5,215.8 L 75.8,180.1 Z M 67.3,364.1 L 120.1,363.7 L 86.8,321.2 Z M 67.3,364.1 L 86.8,321.2 L 38.0,323.2 Z M 38.0,323.2 L 86.8,321.2 L 85.3,308.7 Z M 38.0,323.2 L 85.3,308.7 L 20.0,314.9 Z M 20.0,314.9 L 85.3,308.7 L 78.4,275.3 Z M 20.0,314.9 L 78.4,275.3 L 55.6,249.9 Z M 271.0,321.2 L 271.3,270.0 L 244.5,323.2 Z M 271.3,270.0 L 235.6,266.3 L 244.5,323.2 Z M 120.1,363.7 L 153.7,327.4 L 86.8,321.2 Z M 153.7,327.4 L 85.3,308.7 L 86.8,321.2 Z M 207.2,373.2 L 244.5,323.2 L 235.6,266.3 Z M 207.2,373.2 L 235.6,266.3 L 169.6,266.9 Z M 75.8,180.1 L 148.8,179.2 L 156.4,128.3 Z M 75.8,180.1 L 156.4,128.3 L 84.6,127.4 Z M 213.9,123.7 L 206.3,74.4 L 160.3,99.4 Z M 213.9,123.7 L 160.3,99.4 L 156.4,128.3 Z M 252.6,178.3 L 213.9,123.7 L 207.8,188.6 Z M 207.2,373.2 L 238.1,357.8 L 244.5,323.2 Z M 38.0,323.2 L 45.9,373.4 L 67.3,364.1 Z M 277.7,113.2 L 206.3,74.4 L 213.9,123.7 Z M 252.6,178.3 L 277.7,113.2 L 213.9,123.7 Z" fill="#2a2a4e" stroke="none"/>
  <path d="M 242.1,175.8 L 206.1,186.8 M 206.1,186.8 L 219.2,224.5 M 249.5,197.3 L 242.1,175.8 M 219.2,224.5 L 232.9,237.2 M 232.9,237.2 L 259.9,227.4 M 259.9,227.4 L 249.5,197.3 M 379.1,298.1 L 379.1,260.6 M 289.9,271.8 L 290.9,298.1 M 290.9,298.1 L 379.1,298.1 M 147.6,20.0 L 110.1,20.0 M 125.6,108.6 L 147.6,108.2 M 147.6,108.2 L 147.6,20.0 M 134.4,307.0 L 144.8,343.1 M 144.8,343.1 L 204.4,322.1 M 180.6,290.9 L 134.4,307.0 M 197.4,295.5 L 180.6,290.9 M 204.4,322.1 L 197.4,295.5 M 379.1,260.6 L 294.5,260.6 M 294.5,260.6 L 289.9,271.8 M 110.1,20.0 L 110.1,101.0 M 110.1,101.0 L 125.6,108.6 M 300.9,223.2 L 216.5,223.2 M 300.9,360.7 L 300.9,223.2 M 50.5,99.6 L 20.6,157.7 M 160.3,99.4 L 50.5,99.6 M 50.5,215.8 L 151.6,216.1 M 151.6,216.1 L 207.8,188.6 M 141.2,380.0 L 153.7,327.4 M 45.9,373.4 L 141.2,380.0 M 207.2,373.2 L 254.0,379.5 M 254.0,379.5 L 300.9,360.7 M 153.7,327.4 L 116.2,249.9 M 20.0,314.9 L 20.0,361.2 M 20.0,361.2 L 45.9,373.4 M 216.5,223.2 L 169.6,266.9 M 116.2,249.9 L 55.6,249.9 M 20.6,157.7 L 50.5,215.8 M 55.6,249.9 L 20.0,314.9 M 169.6,266.9 L 207.2,373.2 M 206.3,74.4 L 160.3,99.4 M 207.8,188.6 L 252.6,178.3 M 277.7,113.2 L 206.3,74.4 M 252.6,178.3 L 277.7,113.2" fill="none" stroke="white" stroke-width="2" stroke-linecap="round"/>
  <polygon points="128.91416957886256,88.92098866754304 136.91416957886256,96.92098866754304 128.91416957886256,104.92098866754304 120.91416957886256,96.92098866754304" fill="#4a9eff" stroke="white" stroke-width="1"/>
<polygon points="303.09224948569033,271.5898769730345 311.09224948569033,279.5898769730345 303.09224948569033,287.5898769730345 295.09224948569033,279.5898769730345" fill="#4a9eff" stroke="white" stroke-width="1"/>
</svg>