<svg xmlns="http://www.w3.org/2000/svg" viewBox="0 0 400 400">
  <rect width="400" height="400" fill="#1a1a2e"/>
  <path d="M 174.4,380.0 L 209.6,380.0 L 199.2,275.9 Z M 174.4,380.0 L 199.2,275.9 L 174.4,276.9 Z M 44.6,129.0 L 37.5,209.6 L 72.2,216.6 Z M 44.6,129.0 L 72.2,216.6 L 79.6,132.1 Z M 208.8,195.0 L 234.3,140.2 L 204.1,121.9 Z M 208.8,195.0 L 204.1,121.9 L 176.9,180.1 Z M 199.2,275.9 L 209.6,380.0 L 209.6,280.2 Z M 234.3,140.2 L 228.5,126.8 L 204.1,121.9 Z M 28.8,228.1 L 55.9,234.1 L 60.6,206.7 Z M 28.8,228.1 L 60.6,206.7 L 33.5,200.8 Z M 98.8,70.9 L 40.2,66.1 L 38.0,124.8 Z M 98.8,70.9 L 38.0,124.8 L 96.6,129.6 Z M 40.8,136.5 L 67.9,142.4 L 72.5,115.0 Z M 40.8,136.5 L 72.5,115.0 L 45.4,109.1 Z M 187.5,290.7 L 202.3,267.3 L 178.2,253.6 Z M 187.5,290.7 L 178.2,253.6 L 163.4,277.0 Z M 221.4,74.6 L 221.7,133.4 L 280.3,130.4 Z M 221.4,74.6 L 280.3,130.4 L 280.1,71.7 Z M 113.6,32.0 L 105.4,58.5 L 132.2,65.5 Z M 113.6,32.0 L 132.2,65.5 L 140.4,39.0 Z M 196.6,128.2 L 223.7,134.1 L 228.4,106.7 Z M 196.6,128.2 L 228.4,106.7 L 201.3,100.8 Z M 289.1,288.0 L 283.3,256.4 L 252.1,263.7 Z M 289.1,288.0 L 252.1,263.7 L 257.9,295.2 Z M 71.2,240.3 L 97.5,231.5 L 87.5,205.6 Z M 71.2,240.3 L 87.5,205.6 L 61.2,214.4 Z M 200.8,207.1 L 195.0,175.6 L 163.8,182.8 Z M 200.8,207.1 L 163.8,182.8 L 169.5,214.4 Z M 37.5,90.7 L 65.1,74.5 L 47.7,47.6 Z M 37.5,90.7 L 47.7,47.6 L 20.0,63.8 Z M 287.6,224.1 L 314.7,230.0 L 319.3,202.7 Z M 287.6,224.1 L 319.3,202.7 L 292.2,196.8 Z M 285.7,64.2 L 258.3,56.9 L 258.1,111.1 Z M 285.7,64.2 L 258.1,111.1 L 285.7,119.0 Z M 285.7,119.0 L 258.1,111.1 L 277.3,165.6 Z M 285.7,119.0 L 277.3,165.6 L 315.0,204.3 Z M 259.8,211.8 L 245.9,282.1 L 276.1,281.7 Z M 245.9,282.1 L 280.1,311.9 L 276.1,281.7 Z M 276.1,281.7 L 280.1,311.9 L 315.0,287.7 Z M 258.1,111.1 L 240.6,147.7 L 277.3,165.6 Z M 240.6,147.7 L 259.8,211.8 L 277.3,165.6 Z M 210.4,65.0 L 191.0,44.6 L 162.9,54.2 Z M 191.0,44.6 L 131.8,20.1 L 162.9,54.2 Z M 162.9,54.2 L 131.8,20.1 L 119.7,56.4 Z M 186.4,117.4 L 164.7,105.3 L 136.1,117.4 Z M 164.7,105.3 L 116.7,94.0 L 136.1,117.4 Z M 47.0,304.5 L 88.0,304.9 L 75.3,280.1 Z M 88.0,304.9 L 113.1,271.8 L 75.3,280.1 Z M 222.6,197.4 L 187.5,174.3 L 179.1,208.0 Z M 187.5,174.3 L 164.4,200.5 L 179.1,208.0 Z M 222.6,197.4 L 212.4,244.0 L 224.3,262.3 Z M 212.4,244.0 L 181.9,267.3 L 224.3,262.3 Z M 210.4,65.0 L 258.3,56.9 L 255.6,34.9 Z M 210.4,65.0 L 255.6,34.9 L 191.0,44.6 Z M 81.3,97.5 L 62.2,55.3 L 22.2,42.8 Z M 81.3,97.5 L 22.2,42.8 L 22.2,117.9 Z M 212.6,106.3 L 186.4,117.4 L 240.6,147.7 Z M 212.6,106.3 L 240.6,147.7 L 258.1,111.1 Z M 62.4,20.0 L 62.2,55.3 L 119.7,56.4 Z M 62.4,20.0 L 119.7,56.4 L 131.8,20.1 Z M 81.3,97.5 L 76.5,155.2 L 136.1,117.4 Z M 81.3,97.5 L 136.1,117.4 L 116.7,94.0 Z M 119.7,56.4 L 116.7,94.0 L 164.7,105.3 Z M 119.7,56.4 L 164.7,105.3 L 162.9,54.2 Z M 47.0,304.5 L 48.2,238.6 L 33.3,209.2 Z M 47.0,304.5 L 33.3,209.2 L 25.1,268.7 Z M 102.7,212.3 L 68.0,193.9 L 33.3,209.2 Z M 102.7,212.3 L 33.3,209.2 L 86.3,222.4 Z M 171.5,283.4 L 212.5,283.4 L 224.3,262.3 Z M 171.5,283.4 L 224.3,262.3 L 181.9,267.3 Z M 179.1,208.0 L 164.4,200.5 L 171.0,227.8 Z M 179.1,208.0 L 171.0,227.8 L 180.4,226.0 Z M 62.4,20.0 L 22.2,42.8 L 62.2,55.3 Z M 285.7,64.2 L 255.6,34.9 L 258.3,56.9 Z M 22.2,117.9 L 76.5,155.2 L 81.3,97.5 Z M 86.3,222.4 L 33.3,209.2 L 48.2,238.6 Z M 144.7,188.5 L 164.4,200.5 L 187.5,174.3 Z M 37.5,209.6 L 47.6,220.3 L 72.2,216.6 Z M 258.1,111.1 L 258.3,56.9 L 210.4,65.0 Z M 258.1,111.1 L 210.4,65.0 L 212.6,106.3 Z M 212.6,106.3 L 210.4,65.0 L 162.9,54.2 Z M 212.6,106.3 L 162.9,54.2 L 164.7,105.3 Z M 75.3,280.1 L 113.1,271.8 L 86.3,222.4 Z M 113.1,271.8 L 102.7,212.3 L 86.3,222.4 Z M 47.0,304.5 L 75.3,280.1 L 48.2,238.6 Z M 75.3,280.1 L 86.3,222.4 L 48.2,238.6 Z M 171.0,227.8 L 164.4,200.5 L 136.7,233.8 Z M 164.4,200.5 L 144.7,188.5 L 136.7,233.8 Z M 171.0,227.8 L 181.9,267.3 L 180.4,226.0 Z M 181.9,267.3 L 212.4,244.0 L 180.4,226.0 Z M 315.0,287.7 L 315.0,204.3 L 259.8,211.8 Z M 315.0,287.7 L 259.8,211.8 L 276.1,281.7 Z M 119.7,56.4 L 62.2,55.3 L 81.3,97.5 Z M 119.7,56.4 L 81.3,97.5 L 116.7,94.0 Z M 180.4,226.0 L 212.4,244.0 L 222.6,197.4 Z M 180.4,226.0 L 222.6,197.4 L 179.1,208.0 Z M 171.5,283.4 L 181.9,267.3 L 171.0,227.8 Z M 171.5,283.4 L 171.0,227.8 L 136.7,233.8 Z M 212.6,106.3 L 164.7,105.3 L 186.4,117.4 Z M 315.0,204.3 L 277.3,165.6 L 259.8,211.8 Z" fill="#2a2a4e" stroke="none"/>
  <path d="M 174.4,380.0 L 209.6,380.0 M 199.2,275.9 L 174.4,276.9 M 174.4,276.9 L 174.4,380.0 M 44.6,129.0 L 37.5,209.6 M 72.2,216.6 L 79.6,132.1 M 79.6,132.1 L 44.6,129.0 M 208.8,195.0 L 234.3,140.2 M 204.1,121.9 L 176.9,180.1 M 176.9,180.1 L 208.8,195.0 M 209.6,380.0 L 209.6,280.2 M 209.6,280.2 L 199.2,275.9 M 234.3,140.2 L 228.5,126.8 M 228.5,126.8 L 204.1,121.9 M 28.8,228.1 L 55.9,234.1 M 55.9,234.1 L 60.6,206.7 M 60.6,206.7 L 33.5,200.8 M 33.5,200.8 L 28.8,228.1 M 98.8,70.9 L 40.2,66.1 M 40.2,66.1 L 38.0,124.8 M 38.0,124.8 L 96.6,129.6 M 96.6,129.6 L 98.8,70.9 M 40.8,136.5 L 67.9,142.4 M 67.9,142.4 L 72.5,115.0 M 72.5,115.0 L 45.4,109.1 M 45.4,109.1 L 40.8,136.5 M 187.5,290.7 L 202.3,267.3 M 202.3,267.3 L 178.2,253.6 M 178.2,253.6 L 163.4,277.0 M 163.4,277.0 L 187.5,290.7 M 221.4,74.6 L 221.7,133.4 M 221.7,133.4 L 280.3,130.4 M 280.3,130.4 L 280.1,71.7 M 280.1,71.7 L 221.4,74.6 M 113.6,32.0 L 105.4,58.5 M 105.4,58.5 L 132.2,65.5 M 132.2,65.5 L 140.4,39.0 M 140.4,39.0 L 113.6,32.0 M 196.6,128.2 L 223.7,134.1 M 223.7,134.1 L 228.4,106.7 M 228.4,106.7 L 201.3,100.8 M 201.3,100.8 L 196.6,128.2 M 289.1,288.0 L 283.3,256.4 M 283.3,256.4 L 252.1,263.7 M 252.1,263.7 L 257.9,295.2 M 257.9,295.2 L 289.1,288.0 M 71.2,240.3 L 97.5,231.5 M 97.5,231.5 L 87.5,205.6 M 87.5,205.6 L 61.2,214.4 M 61.2,214.4 L 71.2,240.3 M 200.8,207.1 L 195.0,175.6 M 195.0,175.6 L 163.8,182.8 M 163.8,182.8 L 169.5,214.4 M 169.5,214.4 L 200.8,207.1 M 37.5,90.7 L 65.1,74.5 M 65.1,74.5 L 47.7,47.6 M 47.7,47.6 L 20.0,63.8 M 20.0,63.8 L 37.5,90.7 M 287.6,224.1 L 314.7,230.0 M 314.7,230.0 L 319.3,202.7 M 319.3,202.7 L 292.2,196.8 M 292.2,196.8 L 287.6,224.1 M 285.7,119.0 L 285.7,64.2 M 315.0,204.3 L 285.7,119.0 M 259.8,211.8 L 245.9,282.1 M 245.9,282.1 L 280.1,311.9 M 280.1,311.9 L 315.0,287.7 M 240.6,147.7 L 259.8,211.8 M 191.0,44.6 L 131.8,20.1 M 136.1,117.4 L 186.4,117.4 M 47.0,304.5 L 88.0,304.9 M 88.0,304.9 L 113.1,271.8 M 222.6,197.4 L 187.5,174.3 M 224.3,262.3 L 222.6,197.4 M 255.6,34.9 L 191.0,44.6 M 22.2,42.8 L 22.2,117.9 M 186.4,117.4 L 240.6,147.7 M 131.8,20.1 L 62.4,20.0 M 76.5,155.2 L 136.1,117.4 M 33.3,209.2 L 25.1,268.7 M 25.1,268.7 L 47.0,304.5 M 102.7,212.3 L 68.0,193.9 M 68.0,193.9 L 33.3,209.2 M 171.5,283.4 L 212.5,283.4 M 212.5,283.4 L 224.3,262.3 M 62.4,20.0 L 22.2,42.8 M 285.7,64.2 L 255.6,34.9 M 22.2,117.9 L 76.5,155.2 M 187.5,174.3 L 144.7,188.5 M 37.5,209.6 L 47.6,220.3 M 47.6,220.3 L 72.2,216.6 M 113.1,271.8 L 102.7,212.3 M 144.7,188.5 L 136.7,233.8 M 315.0,287.7 L 315.0,204.3 M 136.7,233.8 L 171.5,283.4" fill="none" stroke="white" stroke-width="2" stroke-linecap="round"/>
  <polygon points="191.91121497988453,281.5575640460181 199.91121497988453,289.5575640460181 191.91121497988453,297.5575640460181 183.91121497988453,289.5575640460181" fill="#4a9eff" stroke="white" stroke-width="1"/>
</svg>