<svg xmlns="http://www.w3.org/2000/svg" viewBox="0 0 400 400">
  <rect width="400" height="400" fill="#1a1a2e"/>
  <path d="M 56.9,380.0 L 101.1,380.0 L 79.0,320.9 Z M 56.9,380.0 L 79.0,320.9 L 56.9,313.3 Z M 79.0,320.9 L 101.1,380.0 L 101.1,320.7 Z M 207.2,189.6 L 181.5,120.2 L 113.4,149.0 Z M 207.2,189.6 L 113.4,149.0 L 139.0,218.4 Z M 123.5,29.6 L 116.0,63.7 L 150.5,69.6 Z M 123.5,29.6 L 150.5,69.6 L 157.9,35.5 Z M 142.6,57.4 L 161.9,86.5 L 190.1,66.0 Z M 142.6,57.4 L 190.1,66.0 L 170.9,36.8 Z M 205.1,272.0 L 197.6,306.2 L 232.0,312.0 Z M 205.1,272.0 L 232.0,312.0 L 239.5,277.9 Z M 128.0,279.7 L 113.6,311.6 L 146.0,324.5 Z M 128.0,279.7 L 146.0,324.5 L 160.4,292.6 Z M 52.0,129.2 L 72.5,164.0 L 106.3,142.0 Z M 52.0,129.2 L 106.3,142.0 L 85.9,107.2 Z M 86.1,302.5 L 97.2,335.7 L 129.8,323.1 Z M 86.1,302.5 L 129.8,323.1 L 118.7,289.9 Z M 86.1,236.7 L 95.5,265.0 L 123.3,254.3 Z M 86.1,236.7 L 123.3,254.3 L 113.9,226.0 Z M 201.0,34.6 L 200.4,69.5 L 235.3,68.4 Z M 201.0,34.6 L 235.3,68.4 L 235.8,33.5 Z M 59.6,303.9 L 60.5,325.1 L 115.3,325.1 Z M 59.6,303.9 L 115.3,325.1 L 113.5,312.9 Z M 113.5,312.9 L 115.3,325.1 L 156.5,314.0 Z M 113.5,312.9 L 156.5,314.0 L 159.1,280.8 Z M 159.1,280.8 L 156.5,314.0 L 208.0,325.1 Z M 159.1,280.8 L 208.0,325.1 L 205.6,280.2 Z M 185.0,185.0 L 203.3,157.1 L 175.1,159.9 Z M 185.0,185.0 L 175.1,159.9 L 154.1,184.7 Z M 154.1,184.7 L 175.1,159.9 L 158.1,138.2 Z M 154.1,184.7 L 158.1,138.2 L 142.7,154.0 Z M 107.0,136.4 L 67.3,167.6 L 92.7,184.4 Z M 107.0,136.4 L 92.7,184.4 L 120.3,165.5 Z M 120.3,165.5 L 92.7,184.4 L 124.0,211.0 Z M 120.3,165.5 L 124.0,211.0 L 154.1,184.7 Z M 125.1,29.6 L 120.0,39.8 L 185.9,38.6 Z M 120.0,39.8 L 150.3,73.5 L 185.9,38.6 Z M 185.9,38.6 L 150.3,73.5 L 185.2,57.1 Z M 222.7,20.0 L 185.9,38.6 L 185.2,57.1 Z M 222.7,20.0 L 185.2,57.1 L 222.7,48.5 Z M 185.2,57.1 L 150.3,73.5 L 142.1,89.3 Z M 185.2,57.1 L 142.1,89.3 L 168.7,90.1 Z M 120.0,39.8 L 125.1,29.6 L 75.3,29.8 Z M 120.0,39.8 L 75.3,29.8 L 75.3,48.9 Z M 92.7,184.4 L 97.7,230.9 L 111.8,233.4 Z M 92.7,184.4 L 111.8,233.4 L 124.0,211.0 Z M 30.7,165.8 L 67.3,167.6 L 70.7,140.7 Z M 30.7,165.8 L 70.7,140.7 L 61.7,135.6 Z M 75.3,29.8 L 38.4,37.8 L 75.3,48.9 Z M 259.6,26.7 L 222.7,20.0 L 222.7,48.5 Z M 205.6,280.2 L 208.0,325.1 L 244.9,307.1 Z M 23.7,316.5 L 60.5,325.1 L 59.6,303.9 Z M 142.7,154.0 L 120.3,165.5 L 154.1,184.7 Z M 107.0,136.4 L 70.7,140.7 L 67.3,167.6 Z M 97.7,230.9 L 89.4,247.6 L 111.8,233.4 Z M 205.6,280.2 L 204.3,251.3 L 167.4,251.3 Z M 205.6,280.2 L 167.4,251.3 L 159.1,280.8 Z M 159.1,280.8 L 167.4,251.3 L 111.8,233.4 Z M 159.1,280.8 L 111.8,233.4 L 113.5,312.9 Z M 75.3,48.9 L 75.3,103.9 L 107.0,136.4 Z M 75.3,48.9 L 107.0,136.4 L 120.0,39.8 Z M 120.0,39.8 L 107.0,136.4 L 142.1,89.3 Z M 120.0,39.8 L 142.1,89.3 L 150.3,73.5 Z M 203.3,157.1 L 222.7,103.9 L 168.7,90.1 Z M 203.3,157.1 L 168.7,90.1 L 175.1,159.9 Z M 175.1,159.9 L 168.7,90.1 L 142.1,89.3 Z M 175.1,159.9 L 142.1,89.3 L 158.1,138.2 Z M 158.1,138.2 L 142.1,89.3 L 107.0,136.4 Z M 158.1,138.2 L 107.0,136.4 L 142.7,154.0 Z M 222.7,48.5 L 185.2,57.1 L 222.7,103.9 Z M 185.2,57.1 L 168.7,90.1 L 222.7,103.9 Z M 113.5,312.9 L 89.4,247.6 L 56.9,251.3 Z M 113.5,312.9 L 56.9,251.3 L 59.6,303.9 Z M 154.1,184.7 L 124.0,211.0 L 167.4,251.3 Z M 154.1,184.7 L 167.4,251.3 L 185.0,185.0 Z M 203.3,157.1 L 185.0,185.0 L 204.3,251.3 Z M 203.3,157.1 L 204.3,251.3 L 213.5,177.6 Z M 67.3,167.6 L 56.9,251.3 L 97.7,230.9 Z M 67.3,167.6 L 97.7,230.9 L 92.7,184.4 Z M 222.7,103.9 L 203.3,157.1 L 213.5,177.6 Z M 111.8,233.4 L 89.4,247.6 L 113.5,312.9 Z M 142.7,154.0 L 107.0,136.4 L 120.3,165.5 Z M 185.0,185.0 L 167.4,251.3 L 204.3,251.3 Z M 107.0,136.4 L 75.3,103.9 L 70.7,140.7 Z M 56.9,251.3 L 89.4,247.6 L 97.7,230.9 Z M 124.0,211.0 L 111.8,233.4 L 167.4,251.3 Z M 259.6,26.7 L 222.7,48.5 L 222.7,103.9 Z M 259.6,26.7 L 222.7,103.9 L 259.6,103.9 Z M 259.6,103.9 L 222.7,103.9 L 213.5,177.6 Z M 259.6,103.9 L 213.5,177.6 L 250.4,177.6 Z M 250.4,177.6 L 213.5,177.6 L 204.3,251.3 Z M 250.4,177.6 L 204.3,251.3 L 241.2,251.3 Z M 241.2,251.3 L 204.3,251.3 L 205.6,280.2 Z M 241.2,251.3 L 205.6,280.2 L 244.9,307.1 Z M 23.7,316.5 L 59.6,303.9 L 56.9,251.3 Z M 23.7,316.5 L 56.9,251.3 L 20.0,251.3 Z M 20.0,251.3 L 56.9,251.3 L 67.3,167.6 Z M 20.0,251.3 L 67.3,167.6 L 30.7,165.8 Z M 30.7,165.8 L 61.7,135.6 L 38.4,103.9 Z M 61.7,135.6 L 75.3,103.9 L 38.4,103.9 Z M 38.4,37.8 L 38.4,103.9 L 75.3,103.9 Z M 38.4,37.8 L 75.3,103.9 L 75.3,48.9 Z M 75.3,103.9 L 61.7,135.6 L 70.7,140.7 Z" fill="#2a2a4e" stroke="none"/>
  <path d="M 56.9,380.0 L 101.1,380.0 M 79.0,320.9 L 56.9,313.3 M 56.9,313.3 L 56.9,380.0 M 101.1,380.0 L 101.1,320.7 M 101.1,320.7 L 79.0,320.9 M 207.2,189.6 L 181.5,120.2 M 181.5,120.2 L 113.4,149.0 M 113.4,149.0 L 139.0,218.4 M 139.0,218.4 L 207.2,189.6 M 123.5,29.6 L 116.0,63.7 M 116.0,63.7 L 150.5,69.6 M 150.5,69.6 L 157.9,35.5 M 157.9,35.5 L 123.5,29.6 M 142.6,57.4 L 161.9,86.5 M 161.9,86.5 L 190.1,66.0 M 190.1,66.0 L 170.9,36.8 M 170.9,36.8 L 142.6,57.4 M 205.1,272.0 L 197.6,306.2 M 197.6,306.2 L 232.0,312.0 M 232.0,312.0 L 239.5,277.9 M 239.5,277.9 L 205.1,272.0 M 128.0,279.7 L 113.6,311.6 M 113.6,311.6 L 146.0,324.5 M 146.0,324.5 L 160.4,292.6 M 160.4,292.6 L 128.0,279.7 M 52.0,129.2 L 72.5,164.0 M 72.5,164.0 L 106.3,142.0 M 106.3,142.0 L 85.9,107.2 M 85.9,107.2 L 52.0,129.2 M 86.1,302.5 L 97.2,335.7 M 97.2,335.7 L 129.8,323.1 M 129.8,323.1 L 118.7,289.9 M 118.7,289.9 L 86.1,302.5 M 86.1,236.7 L 95.5,265.0 M 95.5,265.0 L 123.3,254.3 M 123.3,254.3 L 113.9,226.0 M 113.9,226.0 L 86.1,236.7 M 201.0,34.6 L 200.4,69.5 M 200.4,69.5 L 235.3,68.4 M 235.3,68.4 L 235.8,33.5 M 235.8,33.5 L 201.0,34.6 M 60.5,325.1 L 115.3,325.1 M 115.3,325.1 L 156.5,314.0 M 156.5,314.0 L 208.0,325.1 M 185.9,38.6 L 125.1,29.6 M 222.7,20.0 L 185.9,38.6 M 125.1,29.6 L 75.3,29.8 M 75.3,29.8 L 38.4,37.8 M 259.6,26.7 L 222.7,20.0 M 208.0,325.1 L 244.9,307.1 M 23.7,316.5 L 60.5,325.1 M 259.6,103.9 L 259.6,26.7 M 250.4,177.6 L 259.6,103.9 M 241.2,251.3 L 250.4,177.6 M 244.9,307.1 L 241.2,251.3 M 20.0,251.3 L 23.7,316.5 M 30.7,165.8 L 20.0,251.3 M 38.4,103.9 L 30.7,165.8 M 38.4,37.8 L 38.4,103.9" fill="none" stroke="white" stroke-width="2" stroke-linecap="round"/>
  <polygon points="80.69182336496944,316.64058571262797 88.69182336496944,324.64058571262797 80.69182336496944,332.64058571262797 72.69182336496944,324.64058571262797" fill="#4a9eff" stroke="white" stroke-width="1"/>
</svg>