<svg xmlns="http://www.w3.org/2000/svg" viewBox="0 0 400 400">
  <rect width="400" height="400" fill="#1a1a2e"/>
  <path d="M 67.2,191.3 L 90.2,253.7 L 151.5,227.8 Z M 67.2,191.3 L 151.5,227.8 L 128.5,165.4 Z M 142.5,335.2 L 149.1,304.5 L 118.2,299.2 Z M 142.5,335.2 L 118.2,299.2 L 111.5,329.9 Z M 125.2,310.2 L 107.9,284.0 L 82.5,302.4 Z M 125.2,310.2 L 82.5,302.4 L 99.8,328.7 Z M 69.1,117.1 L 75.7,86.4 L 44.8,81.1 Z M 69.1,117.1 L 44.8,81.1 L 38.1,111.9 Z M 206.7,245.6 L 188.3,214.3 L 157.9,234.1 Z M 206.7,245.6 L 157.9,234.1 L 176.3,265.4 Z M 176.0,93.0 L 166.1,63.2 L 136.8,74.5 Z M 176.0,93.0 L 136.8,74.5 L 146.7,104.3 Z M 176.1,148.9 L 167.6,123.4 L 142.6,133.1 Z M 176.1,148.9 L 142.6,133.1 L 151.1,158.5 Z M 86.4,293.5 L 86.9,262.1 L 55.5,263.0 Z M 86.4,293.5 L 55.5,263.0 L 55.0,294.4 Z M 199.9,91.8 L 199.1,72.0 L 149.8,68.2 Z M 199.9,91.8 L 149.8,68.2 L 151.4,77.0 Z M 151.4,77.0 L 149.8,68.2 L 112.8,79.4 Z M 151.4,77.0 L 112.8,79.4 L 110.4,109.2 Z M 110.4,109.2 L 112.8,79.4 L 66.4,69.4 Z M 110.4,109.2 L 66.4,69.4 L 68.6,109.7 Z M 87.1,195.5 L 70.6,220.5 L 96.0,218.0 Z M 87.1,195.5 L 96.0,218.0 L 114.9,195.7 Z M 114.9,195.7 L 96.0,218.0 L 111.3,237.5 Z M 114.9,195.7 L 111.3,237.5 L 125.2,223.3 Z M 157.2,239.2 L 192.9,211.1 L 170.2,196.0 Z M 157.2,239.2 L 170.2,196.0 L 145.3,212.9 Z M 145.3,212.9 L 170.2,196.0 L 142.0,172.0 Z M 145.3,212.9 L 142.0,172.0 L 114.9,195.7 Z M 141.0,335.2 L 145.6,326.0 L 86.3,327.1 Z M 145.6,326.0 L 118.3,295.7 L 86.3,327.1 Z M 86.3,327.1 L 118.3,295.7 L 86.9,310.4 Z M 53.2,343.8 L 86.3,327.1 L 86.9,310.4 Z M 53.2,343.8 L 86.9,310.4 L 53.2,318.2 Z M 86.9,310.4 L 118.3,295.7 L 125.7,281.5 Z M 86.9,310.4 L 125.7,281.5 L 101.8,280.8 Z M 145.6,326.0 L 141.0,335.2 L 185.8,335.1 Z M 145.6,326.0 L 185.8,335.1 L 185.8,317.9 Z M 170.2,196.0 L 165.6,154.1 L 152.9,151.8 Z M 170.2,196.0 L 152.9,151.8 L 142.0,172.0 Z M 225.9,212.7 L 192.9,211.1 L 189.9,235.2 Z M 225.9,212.7 L 189.9,235.2 L 198.0,239.8 Z M 185.8,335.1 L 218.9,327.8 L 185.8,317.9 Z M 20.0,337.9 L 53.2,343.8 L 53.2,318.2 Z M 68.6,109.7 L 66.4,69.4 L 33.3,85.6 Z M 232.2,63.9 L 199.1,72.0 L 199.9,91.8 Z M 125.2,223.3 L 145.3,212.9 L 114.9,195.7 Z M 157.2,239.2 L 189.9,235.2 L 192.9,211.1 Z M 165.6,154.1 L 173.1,139.1 L 152.9,151.8 Z M 202.4,20.0 L 162.6,20.0 L 182.5,79.1 Z M 202.4,20.0 L 182.5,79.1 L 202.4,76.2 Z M 92.9,380.0 L 132.7,380.0 L 106.2,315.5 Z M 92.9,380.0 L 106.2,315.5 L 92.9,324.7 Z M 106.1,277.1 L 80.4,275.3 L 76.2,301.8 Z M 106.1,277.1 L 76.2,301.8 L 115.5,290.2 Z M 133.5,113.2 L 143.2,131.5 L 176.0,93.8 Z M 133.5,113.2 L 176.0,93.8 L 159.7,82.4 Z M 143.2,131.5 L 162.3,141.4 L 192.8,105.8 Z M 143.2,131.5 L 192.8,105.8 L 180.7,104.4 Z M 74.5,212.9 L 54.0,213.4 L 59.7,228.6 Z M 74.5,212.9 L 59.7,228.6 L 84.0,236.9 Z M 182.5,79.1 L 162.6,20.0 L 162.6,73.3 Z M 106.2,315.5 L 132.7,380.0 L 132.7,324.7 Z M 143.2,131.5 L 180.7,104.4 L 176.0,93.8 Z M 68.6,109.7 L 69.7,135.7 L 102.9,135.7 Z M 68.6,109.7 L 102.9,135.7 L 110.4,109.2 Z M 110.4,109.2 L 102.9,135.7 L 152.9,151.8 Z M 110.4,109.2 L 152.9,151.8 L 151.4,77.0 Z M 185.8,317.9 L 185.8,268.4 L 157.2,239.2 Z M 185.8,317.9 L 157.2,239.2 L 145.6,326.0 Z M 145.6,326.0 L 157.2,239.2 L 125.7,281.5 Z M 145.6,326.0 L 125.7,281.5 L 118.3,295.7 Z M 70.6,220.5 L 53.2,268.4 L 101.8,280.8 Z M 70.6,220.5 L 101.8,280.8 L 96.0,218.0 Z M 96.0,218.0 L 101.8,280.8 L 125.7,281.5 Z M 96.0,218.0 L 125.7,281.5 L 111.3,237.5 Z M 111.3,237.5 L 125.7,281.5 L 157.2,239.2 Z M 111.3,237.5 L 157.2,239.2 L 125.2,223.3 Z M 152.9,151.8 L 173.1,139.1 L 151.4,77.0 Z M 173.1,139.1 L 199.9,91.8 L 151.4,77.0 Z M 53.2,318.2 L 86.9,310.4 L 53.2,268.4 Z M 86.9,310.4 L 101.8,280.8 L 53.2,268.4 Z M 199.9,91.8 L 173.1,139.1 L 202.4,135.7 Z M 173.1,139.1 L 165.6,154.1 L 202.4,135.7 Z M 114.9,195.7 L 142.0,172.0 L 102.9,135.7 Z M 114.9,195.7 L 102.9,135.7 L 87.1,195.5 Z M 70.6,220.5 L 87.1,195.5 L 69.7,135.7 Z M 70.6,220.5 L 69.7,135.7 L 61.4,202.1 Z M 192.9,211.1 L 202.4,135.7 L 165.6,154.1 Z M 192.9,211.1 L 165.6,154.1 L 170.2,196.0 Z M 53.2,268.4 L 70.6,220.5 L 61.4,202.1 Z M 125.2,223.3 L 157.2,239.2 L 145.3,212.9 Z M 87.1,195.5 L 102.9,135.7 L 69.7,135.7 Z M 157.2,239.2 L 185.8,268.4 L 189.9,235.2 Z M 142.0,172.0 L 152.9,151.8 L 102.9,135.7 Z M 20.0,337.9 L 53.2,318.2 L 53.2,268.4 Z M 20.0,337.9 L 53.2,268.4 L 20.0,268.4 Z M 20.0,268.4 L 53.2,268.4 L 61.4,202.1 Z M 20.0,268.4 L 61.4,202.1 L 28.3,202.1 Z M 28.3,202.1 L 61.4,202.1 L 69.7,135.7 Z M 28.3,202.1 L 69.7,135.7 L 36.6,135.7 Z M 36.6,135.7 L 69.7,135.7 L 68.6,109.7 Z M 36.6,135.7 L 68.6,109.7 L 33.3,85.6 Z M 232.2,63.9 L 199.9,91.8 L 202.4,135.7 Z M 232.2,63.9 L 202.4,135.7 L 235.5,135.7 Z M 235.5,135.7 L 202.4,135.7 L 192.9,211.1 Z M 235.5,135.7 L 192.9,211.1 L 225.9,212.7 Z M 225.9,212.7 L 198.0,239.8 L 218.9,268.4 Z M 198.0,239.8 L 185.8,268.4 L 218.9,268.4 Z M 218.9,327.8 L 218.9,268.4 L 185.8,268.4 Z M 218.9,327.8 L 185.8,268.4 L 185.8,317.9 Z M 185.8,268.4 L 198.0,239.8 L 189.9,235.2 Z" fill="#2a2a4e" stroke="none"/>
  <path d="M 67.2,191.3 L 90.2,253.7 M 90.2,253.7 L 151.5,227.8 M 151.5,227.8 L 128.5,165.4 M 128.5,165.4 L 67.2,191.3 M 142.5,335.2 L 149.1,304.5 M 149.1,304.5 L 118.2,299.2 M 118.2,299.2 L 111.5,329.9 M 111.5,329.9 L 142.5,335.2 M 125.2,310.2 L 107.9,284.0 M 107.9,284.0 L 82.5,302.4 M 82.5,302.4 L 99.8,328.7 M 99.8,328.7 L 125.2,310.2 M 69.1,117.1 L 75.7,86.4 M 75.7,86.4 L 44.8,81.1 M 44.8,81.1 L 38.1,111.9 M 38.1,111.9 L 69.1,117.1 M 206.7,245.6 L 188.3,214.3 M 188.3,214.3 L 157.9,234.1 M 157.9,234.1 L 176.3,265.4 M 176.3,265.4 L 206.7,245.6 M 176.0,93.0 L 166.1,63.2 M 166.1,63.2 L 136.8,74.5 M 136.8,74.5 L 146.7,104.3 M 146.7,104.3 L 176.0,93.0 M 176.1,148.9 L 167.6,123.4 M 167.6,123.4 L 142.6,133.1 M 142.6,133.1 L 151.1,158.5 M 151.1,158.5 L 176.1,148.9 M 86.4,293.5 L 86.9,262.1 M 86.9,262.1 L 55.5,263.0 M 55.5,263.0 L 55.0,294.4 M 55.0,294.4 L 86.4,293.5 M 199.1,72.0 L 149.8,68.2 M 149.8,68.2 L 112.8,79.4 M 112.8,79.4 L 66.4,69.4 M 86.3,327.1 L 141.0,335.2 M 53.2,343.8 L 86.3,327.1 M 141.0,335.2 L 185.8,335.1 M 185.8,335.1 L 218.9,327.8 M 20.0,337.9 L 53.2,343.8 M 66.4,69.4 L 33.3,85.6 M 232.2,63.9 L 199.1,72.0 M 202.4,20.0 L 162.6,20.0 M 182.5,79.1 L 202.4,76.2 M 202.4,76.2 L 202.4,20.0 M 92.9,380.0 L 132.7,380.0 M 106.2,315.5 L 92.9,324.7 M 92.9,324.7 L 92.9,380.0 M 106.1,277.1 L 80.4,275.3 M 80.4,275.3 L 76.2,301.8 M 76.2,301.8 L 115.5,290.2 M 115.5,290.2 L 106.1,277.1 M 133.5,113.2 L 143.2,131.5 M 176.0,93.8 L 159.7,82.4 M 159.7,82.4 L 133.5,113.2 M 143.2,131.5 L 162.3,141.4 M 162.3,141.4 L 192.8,105.8 M 192.8,105.8 L 180.7,104.4 M 74.5,212.9 L 54.0,213.4 M 54.0,213.4 L 59.7,228.6 M 59.7,228.6 L 84.0,236.9 M 84.0,236.9 L 74.5,212.9 M 162.6,20.0 L 162.6,73.3 M 162.6,73.3 L 182.5,79.1 M 132.7,380.0 L 132.7,324.7 M 132.7,324.7 L 106.2,315.5 M 180.7,104.4 L 176.0,93.8 M 20.0,268.4 L 20.0,337.9 M 28.3,202.1 L 20.0,268.4 M 36.6,135.7 L 28.3,202.1 M 33.3,85.6 L 36.6,135.7 M 235.5,135.7 L 232.2,63.9 M 225.9,212.7 L 235.5,135.7 M 218.9,268.4 L 225.9,212.7 M 218.9,327.8 L 218.9,268.4" fill="none" stroke="white" stroke-width="2" stroke-linecap="round"/>
  <polygon points="181.24907724484174,60.03103079073648 189.24907724484174,68.03103079073648 181.24907724484174,76.03103079073648 173.24907724484174,68.03103079073648" fill="#4a9eff" stroke="white" stroke-width="1"/>
<polygon points="113.59877331910671,326.7074332082665 121.59877331910671,334.7074332082665 113.59877331910671,342.7074332082665 105.59877331910671,334.7074332082665" fill="#4a9eff" stroke="white" stroke-width="1"/>
</svg>