<svg xmlns="http://www.w3.org/2000/svg" viewBox="0 0 400 400">
  <rect width="400" height="400" fill="#1a1a2e"/>
  <path d="M 368.6,346.2 L 368.6,305.6 L 311.4,325.9 Z M 368.6,346.2 L 311.4,325.9 L 300.6,346.2 Z M 176.7,20.0 L 136.1,20.0 L 176.1,180.5 Z M 136.1,20.0 L 135.5,180.5 L 176.1,180.5 Z M 176.1,180.5 L 135.5,180.5 L 162.6,189.9 Z M 266.8,276.0 L 248.1,285.8 L 286.6,319.3 Z M 266.8,276.0 L 286.6,319.3 L 298.2,302.7 Z M 248.1,285.8 L 238.0,305.3 L 274.3,336.4 Z M 248.1,285.8 L 274.3,336.4 L 275.7,324.1 Z M 311.4,325.9 L 368.6,305.6 L 307.4,305.6 Z M 248.1,285.8 L 275.7,324.1 L 286.6,319.3 Z M 270.3,209.7 L 243.7,210.9 L 243.7,244.7 Z M 270.3,209.7 L 243.7,244.7 L 270.8,252.4 Z M 270.8,252.4 L 243.7,244.7 L 227.3,295.8 Z M 270.8,252.4 L 227.3,295.8 L 303.6,294.2 Z M 38.7,329.3 L 108.5,329.3 L 138.3,300.2 Z M 38.7,329.3 L 138.3,300.2 L 35.3,288.3 Z M 35.3,288.3 L 138.3,300.2 L 95.1,267.9 Z M 35.3,288.3 L 95.1,267.9 L 80.6,260.4 Z M 157.3,211.8 L 108.5,194.0 L 95.8,243.6 Z M 157.3,211.8 L 95.8,243.6 L 159.9,237.7 Z M 159.9,237.7 L 95.8,243.6 L 95.1,267.9 Z M 159.9,237.7 L 95.1,267.9 L 139.9,253.3 Z M 139.9,253.3 L 95.1,267.9 L 138.3,300.2 Z M 139.9,253.3 L 138.3,300.2 L 154.5,267.4 Z M 227.3,295.8 L 240.3,316.3 L 303.6,294.2 Z M 240.3,316.3 L 295.4,343.7 L 303.6,294.2 Z M 50.8,194.0 L 54.1,228.4 L 108.5,194.0 Z M 54.1,228.4 L 95.8,243.6 L 108.5,194.0 Z M 295.4,343.7 L 240.3,316.3 L 243.7,346.2 Z M 240.3,316.3 L 225.0,308.7 L 243.7,346.2 Z M 182.6,257.0 L 206.7,284.6 L 243.7,244.7 Z M 182.6,257.0 L 243.7,244.7 L 182.8,228.6 Z M 157.3,211.8 L 182.8,228.6 L 243.7,210.9 Z M 157.3,211.8 L 243.7,210.9 L 176.1,202.4 Z M 166.9,336.6 L 243.7,346.2 L 225.0,308.7 Z M 166.9,336.6 L 225.0,308.7 L 182.3,313.3 Z M 108.5,194.0 L 157.3,211.8 L 176.1,202.4 Z M 154.5,267.4 L 138.3,300.2 L 165.0,288.0 Z M 182.8,228.6 L 243.7,244.7 L 243.7,210.9 Z M 138.3,300.2 L 108.5,329.3 L 142.3,333.5 Z M 206.7,284.6 L 227.3,295.8 L 243.7,244.7 Z M 295.4,343.7 L 315.6,342.8 L 316.0,292.5 Z M 295.4,343.7 L 316.0,292.5 L 303.6,294.2 Z M 303.6,294.2 L 316.0,292.5 L 301.2,254.8 Z M 303.6,294.2 L 301.2,254.8 L 270.8,252.4 Z M 270.8,252.4 L 301.2,254.8 L 311.4,207.5 Z M 270.8,252.4 L 311.4,207.5 L 270.3,209.7 Z M 182.8,228.6 L 157.3,211.8 L 159.9,237.7 Z M 182.8,228.6 L 159.9,237.7 L 182.6,257.0 Z M 182.6,257.0 L 159.9,237.7 L 139.9,253.3 Z M 182.6,257.0 L 139.9,253.3 L 154.5,267.4 Z M 138.3,300.2 L 166.9,336.6 L 182.3,313.3 Z M 138.3,300.2 L 182.3,313.3 L 165.0,288.0 Z M 165.0,288.0 L 182.3,313.3 L 206.7,284.6 Z M 165.0,288.0 L 206.7,284.6 L 182.6,257.0 Z M 20.0,283.6 L 35.3,288.3 L 41.8,227.8 Z M 35.3,288.3 L 80.6,260.4 L 41.8,227.8 Z M 41.8,227.8 L 80.6,260.4 L 54.1,228.4 Z M 24.7,194.0 L 41.8,227.8 L 54.1,228.4 Z M 24.7,194.0 L 54.1,228.4 L 50.8,194.0 Z M 54.1,228.4 L 80.6,260.4 L 95.1,267.9 Z M 54.1,228.4 L 95.1,267.9 L 95.8,243.6 Z M 35.3,288.3 L 20.0,283.6 L 20.2,329.3 Z M 35.3,288.3 L 20.2,329.3 L 38.7,329.3 Z M 182.3,313.3 L 225.0,308.7 L 227.3,295.8 Z M 182.3,313.3 L 227.3,295.8 L 206.7,284.6 Z M 165.3,370.2 L 166.9,336.6 L 142.3,333.5 Z M 165.3,370.2 L 142.3,333.5 L 137.6,341.8 Z M 20.2,329.3 L 41.1,363.1 L 38.7,329.3 Z M 30.8,160.2 L 24.7,194.0 L 50.8,194.0 Z M 270.3,209.7 L 311.4,207.5 L 294.9,173.7 Z M 317.1,376.6 L 315.6,342.8 L 295.4,343.7 Z M 154.5,267.4 L 165.0,288.0 L 182.6,257.0 Z M 138.3,300.2 L 142.3,333.5 L 166.9,336.6 Z M 225.0,308.7 L 240.3,316.3 L 227.3,295.8 Z M 30.8,160.2 L 50.8,194.0 L 108.5,194.0 Z M 30.8,160.2 L 108.5,194.0 L 108.5,160.2 Z M 108.5,160.2 L 108.5,194.0 L 176.1,202.4 Z M 108.5,160.2 L 176.1,202.4 L 176.1,168.6 Z M 176.1,168.6 L 176.1,202.4 L 243.7,210.9 Z M 176.1,168.6 L 243.7,210.9 L 243.7,177.1 Z M 243.7,177.1 L 243.7,210.9 L 270.3,209.7 Z M 243.7,177.1 L 270.3,209.7 L 294.9,173.7 Z M 317.1,376.6 L 295.4,343.7 L 243.7,346.2 Z M 317.1,376.6 L 243.7,346.2 L 243.7,380.0 Z M 243.7,380.0 L 243.7,346.2 L 166.9,336.6 Z M 243.7,380.0 L 166.9,336.6 L 165.3,370.2 Z M 165.3,370.2 L 137.6,341.8 L 108.5,363.1 Z M 137.6,341.8 L 108.5,329.3 L 108.5,363.1 Z M 41.1,363.1 L 108.5,363.1 L 108.5,329.3 Z M 41.1,363.1 L 108.5,329.3 L 38.7,329.3 Z M 108.5,329.3 L 137.6,341.8 L 142.3,333.5 Z" fill="#2a2a4e" stroke="none"/>
  <path d="M 368.6,346.2 L 368.6,305.6 M 311.4,325.9 L 300.6,346.2 M 300.6,346.2 L 368.6,346.2 M 176.7,20.0 L 136.1,20.0 M 176.1,180.5 L 176.7,20.0 M 136.1,20.0 L 135.5,180.5 M 135.5,180.5 L 162.6,189.9 M 162.6,189.9 L 176.1,180.5 M 266.8,276.0 L 248.1,285.8 M 286.6,319.3 L 298.2,302.7 M 298.2,302.7 L 266.8,276.0 M 248.1,285.8 L 238.0,305.3 M 238.0,305.3 L 274.3,336.4 M 274.3,336.4 L 275.7,324.1 M 368.6,305.6 L 307.4,305.6 M 307.4,305.6 L 311.4,325.9 M 275.7,324.1 L 286.6,319.3 M 315.6,342.8 L 316.0,292.5 M 316.0,292.5 L 301.2,254.8 M 301.2,254.8 L 311.4,207.5 M 41.8,227.8 L 20.0,283.6 M 24.7,194.0 L 41.8,227.8 M 20.0,283.6 L 20.2,329.3 M 20.2,329.3 L 41.1,363.1 M 30.8,160.2 L 24.7,194.0 M 311.4,207.5 L 294.9,173.7 M 317.1,376.6 L 315.6,342.8 M 108.5,160.2 L 30.8,160.2 M 176.1,168.6 L 108.5,160.2 M 243.7,177.1 L 176.1,168.6 M 294.9,173.7 L 243.7,177.1 M 243.7,380.0 L 317.1,376.6 M 165.3,370.2 L 243.7,380.0 M 108.5,363.1 L 165.3,370.2 M 41.1,363.1 L 108.5,363.1" fill="none" stroke="white" stroke-width="2" stroke-linecap="round"/>
  <polygon points="312.2848776209689,316.19522375065344 320.2848776209689,324.19522375065344 312.2848776209689,332.19522375065344 304.2848776209689,324.19522375065344" fill="#4a9eff" stroke="white" stroke-width="1"/>
<polygon points="155.86102346662545,159.34767258665852 163.86102346662545,167.34767258665852 155.86102346662545,175.34767258665852 147.86102346662545,167.34767258665852" fill="#4a9eff" stroke="white" stroke-width="1"/>
</svg>