<svg xmlns="http://www.w3.org/2000/svg" viewBox="0 0 400 400">
  <rect width="400" height="400" fill="#1a1a2e"/>
  <path d="M 84.0,261.2 L 67.8,278.5 L 86.8,295.0 Z M 84.0,261.2 L 86.8,295.0 L 94.8,270.6 Z M 94.8,270.6 L 86.8,295.0 L 98.4,297.6 Z M 94.8,270.6 L 98.4,297.6 L 110.0,283.7 Z M 183.2,380.0 L 206.9,380.0 L 206.9,311.0 Z M 183.2,380.0 L 206.9,311.0 L 183.2,311.0 Z M 183.2,311.0 L 206.9,311.0 L 216.7,267.6 Z M 183.2,311.0 L 216.7,267.6 L 193.1,267.6 Z M 193.1,267.6 L 216.7,267.6 L 199.8,225.1 Z M 193.1,267.6 L 199.8,225.1 L 183.2,225.7 Z M 100.2,177.3 L 100.2,99.9 L 76.5,99.9 Z M 100.2,177.3 L 76.5,99.9 L 83.6,177.9 Z M 83.6,177.9 L 76.5,99.9 L 76.5,175.0 Z M 216.7,267.6 L 206.9,228.0 L 199.8,225.1 Z M 160.4,314.2 L 143.3,272.5 L 132.4,288.6 Z M 160.4,314.2 L 132.4,288.6 L 131.2,308.1 Z M 131.2,308.1 L 132.4,288.6 L 116.4,301.7 Z M 131.2,308.1 L 116.4,301.7 L 118.2,306.7 Z M 61.2,198.2 L 43.2,182.8 L 33.2,244.5 Z M 61.2,198.2 L 33.2,244.5 L 52.5,232.4 Z M 52.5,232.4 L 33.2,244.5 L 42.8,285.2 Z M 52.5,232.4 L 42.8,285.2 L 72.8,241.6 Z M 72.8,241.6 L 42.8,285.2 L 63.8,287.1 Z M 72.8,241.6 L 63.8,287.1 L 99.9,248.0 Z M 62.9,172.9 L 61.2,198.2 L 112.1,186.3 Z M 62.9,172.9 L 112.1,186.3 L 109.7,172.9 Z M 109.7,172.9 L 112.1,186.3 L 143.4,177.0 Z M 109.7,172.9 L 143.4,177.0 L 154.4,153.2 Z M 90.7,89.1 L 103.3,105.4 L 141.9,77.4 Z M 90.7,89.1 L 141.9,77.4 L 116.3,70.8 Z M 116.3,70.8 L 141.9,77.4 L 131.7,20.2 Z M 116.3,70.8 L 131.7,20.2 L 115.8,36.4 Z M 115.8,36.4 L 131.7,20.2 L 76.1,20.0 Z M 115.8,36.4 L 76.1,20.0 L 94.0,36.9 Z M 94.0,36.9 L 76.1,20.0 L 50.8,47.5 Z M 94.0,36.9 L 50.8,47.5 L 75.1,69.0 Z M 181.7,228.9 L 209.5,228.9 L 195.3,189.0 Z M 209.5,228.9 L 229.7,192.9 L 195.3,189.0 Z M 195.3,189.0 L 229.7,192.9 L 210.4,157.7 Z M 160.4,314.2 L 132.8,324.2 L 149.1,340.1 Z M 132.8,324.2 L 117.0,338.8 L 149.1,340.1 Z M 149.1,340.1 L 117.0,338.8 L 106.3,348.9 Z M 117.0,338.8 L 96.3,311.7 L 106.3,348.9 Z M 84.9,306.5 L 89.9,335.7 L 106.3,348.9 Z M 84.9,306.5 L 106.3,348.9 L 96.3,311.7 Z M 99.9,248.0 L 144.1,247.7 L 146.6,217.0 Z M 99.9,248.0 L 146.6,217.0 L 104.9,212.3 Z M 143.3,272.5 L 112.3,272.5 L 132.4,288.6 Z M 210.4,157.7 L 154.4,153.2 L 195.3,189.0 Z M 61.2,198.2 L 104.9,212.3 L 112.1,186.3 Z M 62.9,172.9 L 43.2,182.8 L 61.2,198.2 Z M 104.9,212.3 L 72.8,241.6 L 99.9,248.0 Z M 144.1,247.7 L 181.7,228.9 L 146.6,217.0 Z M 74.2,105.4 L 103.3,105.4 L 90.7,89.1 Z M 116.3,70.8 L 75.1,69.0 L 90.7,89.1 Z M 104.9,212.3 L 61.2,198.2 L 72.8,241.6 Z M 61.2,198.2 L 52.5,232.4 L 72.8,241.6 Z M 154.4,153.2 L 143.4,177.0 L 195.3,189.0 Z M 143.4,177.0 L 146.6,217.0 L 195.3,189.0 Z M 116.4,301.7 L 96.3,311.7 L 118.2,306.7 Z M 96.3,311.7 L 117.0,338.8 L 118.2,306.7 Z M 20.0,54.9 L 24.1,89.3 L 50.8,47.5 Z M 24.1,89.3 L 75.1,69.0 L 50.8,47.5 Z M 118.2,306.7 L 117.0,338.8 L 132.8,324.2 Z M 118.2,306.7 L 132.8,324.2 L 131.2,308.1 Z M 104.9,212.3 L 146.6,217.0 L 143.4,177.0 Z M 104.9,212.3 L 143.4,177.0 L 112.1,186.3 Z M 84.9,306.5 L 96.3,311.7 L 116.4,301.7 Z M 84.9,306.5 L 116.4,301.7 L 112.3,272.5 Z M 115.8,36.4 L 94.0,36.9 L 75.1,69.0 Z M 115.8,36.4 L 75.1,69.0 L 116.3,70.8 Z M 90.7,89.1 L 75.1,69.0 L 24.1,89.3 Z M 90.7,89.1 L 24.1,89.3 L 74.2,105.4 Z M 112.3,272.5 L 116.4,301.7 L 132.4,288.6 Z M 160.4,314.2 L 131.2,308.1 L 132.8,324.2 Z M 195.3,189.0 L 146.6,217.0 L 181.7,228.9 Z" fill="#2a2a4e" stroke="none"/>
  <path d="M 84.0,261.2 L 67.8,278.5 M 67.8,278.5 L 86.8,295.0 M 94.8,270.6 L 84.0,261.2 M 86.8,295.0 L 98.4,297.6 M 98.4,297.6 L 110.0,283.7 M 110.0,283.7 L 94.8,270.6 M 183.2,380.0 L 206.9,380.0 M 206.9,380.0 L 206.9,311.0 M 183.2,311.0 L 183.2,380.0 M 206.9,311.0 L 216.7,267.6 M 193.1,267.6 L 183.2,311.0 M 199.8,225.1 L 183.2,225.7 M 183.2,225.7 L 193.1,267.6 M 100.2,177.3 L 100.2,99.9 M 100.2,99.9 L 76.5,99.9 M 83.6,177.9 L 100.2,177.3 M 76.5,99.9 L 76.5,175.0 M 76.5,175.0 L 83.6,177.9 M 216.7,267.6 L 206.9,228.0 M 206.9,228.0 L 199.8,225.1 M 160.4,314.2 L 143.3,272.5 M 43.2,182.8 L 33.2,244.5 M 33.2,244.5 L 42.8,285.2 M 42.8,285.2 L 63.8,287.1 M 63.8,287.1 L 99.9,248.0 M 109.7,172.9 L 62.9,172.9 M 154.4,153.2 L 109.7,172.9 M 103.3,105.4 L 141.9,77.4 M 141.9,77.4 L 131.7,20.2 M 131.7,20.2 L 76.1,20.0 M 76.1,20.0 L 50.8,47.5 M 181.7,228.9 L 209.5,228.9 M 209.5,228.9 L 229.7,192.9 M 229.7,192.9 L 210.4,157.7 M 149.1,340.1 L 160.4,314.2 M 106.3,348.9 L 149.1,340.1 M 84.9,306.5 L 89.9,335.7 M 89.9,335.7 L 106.3,348.9 M 99.9,248.0 L 144.1,247.7 M 143.3,272.5 L 112.3,272.5 M 210.4,157.7 L 154.4,153.2 M 62.9,172.9 L 43.2,182.8 M 144.1,247.7 L 181.7,228.9 M 74.2,105.4 L 103.3,105.4 M 20.0,54.9 L 24.1,89.3 M 50.8,47.5 L 20.0,54.9 M 112.3,272.5 L 84.9,306.5 M 24.1,89.3 L 74.2,105.4" fill="none" stroke="white" stroke-width="2" stroke-linecap="round"/>
  <polygon points="89.09879068945263,163.44236983058914 97.09879068945263,171.44236983058914 89.09879068945263,179.44236983058914 81.09879068945263,171.44236983058914" fill="#4a9eff" stroke="white" stroke-width="1"/>
<polygon points="195.00966700106594,302.48947729660915 203.00966700106594,310.48947729660915 195.00966700106594,318.48947729660915 187.00966700106594,310.48947729660915" fill="#4a9eff" stroke="white" stroke-width="1"/>
</svg>