<svg xmlns="http://www.w3.org/2000/svg" viewBox="0 0 400 400">
  <rect width="400" height="400" fill="#1a1a2e"/>
  <path d="M 199.3,380.0 L 229.1,380.0 L 216.8,292.2 Z M 199.3,380.0 L 216.8,292.2 L 199.3,292.6 Z M 189.2,20.0 L 159.4,20.0 L 171.7,120.2 Z M 189.2,20.0 L 171.7,120.2 L 189.2,119.9 Z M 56.3,277.7 L 86.1,279.3 L 86.6,232.7 Z M 56.3,277.7 L 86.6,232.7 L 57.0,219.5 Z M 229.1,298.3 L 216.8,292.2 L 229.1,380.0 Z M 159.4,114.1 L 171.7,120.2 L 159.4,20.0 Z M 86.6,232.7 L 79.8,219.5 L 57.0,219.5 Z M 133.6,117.9 L 113.4,108.1 L 131.9,167.8 Z M 133.6,117.9 L 131.9,167.8 L 150.6,150.3 Z M 150.6,150.3 L 131.9,167.8 L 190.6,163.8 Z M 150.6,150.3 L 190.6,163.8 L 191.2,155.7 Z M 62.4,173.3 L 65.0,199.1 L 86.1,199.0 Z M 62.4,173.3 L 86.1,199.0 L 77.8,156.6 Z M 77.8,156.6 L 86.1,199.0 L 102.7,207.7 Z M 77.8,156.6 L 102.7,207.7 L 131.9,167.8 Z M 164.4,270.7 L 213.4,280.3 L 184.9,246.9 Z M 213.4,280.3 L 214.5,247.2 L 184.9,246.9 Z M 70.0,138.5 L 77.8,156.6 L 113.4,108.1 Z M 70.0,138.5 L 113.4,108.1 L 78.9,108.9 Z M 164.4,270.7 L 128.3,284.0 L 134.2,290.6 Z M 77.8,156.6 L 131.9,167.8 L 113.4,108.1 Z M 187.5,110.0 L 190.8,159.7 L 240.3,154.2 Z M 187.5,110.0 L 240.3,154.2 L 237.0,104.5 Z M 195.5,130.6 L 200.5,107.6 L 177.3,103.7 Z M 195.5,130.6 L 177.3,103.7 L 172.3,126.7 Z M 163.7,129.3 L 168.7,106.3 L 145.5,102.4 Z M 163.7,129.3 L 145.5,102.4 L 140.5,125.4 Z M 63.2,210.8 L 68.2,187.8 L 45.0,183.9 Z M 63.2,210.8 L 45.0,183.9 L 40.0,206.9 Z M 25.7,181.0 L 42.9,227.8 L 88.8,208.4 Z M 25.7,181.0 L 88.8,208.4 L 71.6,161.7 Z M 70.6,298.1 L 75.6,275.1 L 52.4,271.1 Z M 70.6,298.1 L 52.4,271.1 L 47.4,294.1 Z M 207.6,304.5 L 212.6,281.5 L 189.4,277.5 Z M 207.6,304.5 L 189.4,277.5 L 184.4,300.5 Z M 95.1,306.4 L 100.1,283.5 L 76.9,279.5 Z M 95.1,306.4 L 76.9,279.5 L 71.9,302.5 Z M 228.8,139.3 L 221.4,117.0 L 199.4,125.5 Z M 228.8,139.3 L 199.4,125.5 L 206.9,147.8 Z M 91.9,224.9 L 78.2,201.4 L 55.4,216.2 Z M 91.9,224.9 L 55.4,216.2 L 69.1,239.7 Z M 233.9,295.4 L 226.5,273.1 L 204.5,281.4 Z M 233.9,295.4 L 204.5,281.4 L 211.9,303.8 Z M 144.8,180.8 L 158.0,190.7 L 232.8,177.8 Z M 144.8,180.8 L 232.8,177.8 L 201.8,169.8 Z M 201.8,169.8 L 232.8,177.8 L 251.1,138.3 Z M 201.8,169.8 L 251.1,138.3 L 215.8,150.9 Z M 215.8,150.9 L 251.1,138.3 L 225.3,108.1 Z M 215.8,150.9 L 225.3,108.1 L 182.4,132.7 Z M 99.4,235.2 L 85.2,221.5 L 57.4,212.2 Z M 99.4,235.2 L 57.4,212.2 L 48.8,231.4 Z M 48.8,231.4 L 57.4,212.2 L 34.0,178.7 Z M 48.8,231.4 L 34.0,178.7 L 20.0,161.8 Z M 20.0,161.8 L 34.0,178.7 L 60.8,153.5 Z M 20.0,161.8 L 60.8,153.5 L 38.3,135.0 Z M 180.9,300.6 L 179.4,288.9 L 131.4,309.1 Z M 180.9,300.6 L 131.4,309.1 L 125.7,328.2 Z M 125.7,328.2 L 131.4,309.1 L 92.2,311.2 Z M 125.7,328.2 L 92.2,311.2 L 43.3,328.2 Z M 22.5,119.3 L 38.3,135.0 L 71.1,98.8 Z M 22.5,119.3 L 71.1,98.8 L 56.1,84.3 Z M 100.6,276.9 L 35.8,269.7 L 20.4,303.6 Z M 100.6,276.9 L 20.4,303.6 L 92.2,311.2 Z M 56.1,84.3 L 71.1,98.8 L 119.8,84.3 Z M 22.5,119.3 L 20.0,161.8 L 38.3,135.0 Z M 144.8,180.8 L 99.4,235.2 L 158.0,190.7 Z M 182.4,132.7 L 225.3,108.1 L 152.4,108.1 Z M 231.7,300.5 L 256.6,273.6 L 237.5,226.1 Z M 179.4,288.9 L 180.9,300.6 L 231.7,300.5 Z M 92.2,311.2 L 20.4,303.6 L 43.3,328.2 Z M 152.4,108.1 L 133.6,117.9 L 150.6,150.3 Z M 152.4,108.1 L 150.6,150.3 L 182.4,132.7 Z M 182.4,132.7 L 150.6,150.3 L 191.2,155.7 Z M 182.4,132.7 L 191.2,155.7 L 215.8,150.9 Z M 215.8,150.9 L 191.2,155.7 L 190.6,163.8 Z M 215.8,150.9 L 190.6,163.8 L 201.8,169.8 Z M 201.8,169.8 L 190.6,163.8 L 131.9,167.8 Z M 201.8,169.8 L 131.9,167.8 L 144.8,180.8 Z M 144.8,180.8 L 131.9,167.8 L 102.7,207.7 Z M 144.8,180.8 L 102.7,207.7 L 99.4,235.2 Z M 99.4,235.2 L 102.7,207.7 L 86.1,199.0 Z M 99.4,235.2 L 86.1,199.0 L 85.2,221.5 Z M 85.2,221.5 L 86.1,199.0 L 65.0,199.1 Z M 85.2,221.5 L 65.0,199.1 L 57.4,212.2 Z M 57.4,212.2 L 65.0,199.1 L 62.4,173.3 Z M 57.4,212.2 L 62.4,173.3 L 34.0,178.7 Z M 34.0,178.7 L 62.4,173.3 L 77.8,156.6 Z M 34.0,178.7 L 77.8,156.6 L 60.8,153.5 Z M 60.8,153.5 L 77.8,156.6 L 70.0,138.5 Z M 60.8,153.5 L 70.0,138.5 L 38.3,135.0 Z M 38.3,135.0 L 70.0,138.5 L 78.9,108.9 Z M 38.3,135.0 L 78.9,108.9 L 71.1,98.8 Z M 71.1,98.8 L 78.9,108.9 L 113.4,108.1 Z M 71.1,98.8 L 113.4,108.1 L 119.8,84.3 Z M 119.8,84.3 L 113.4,108.1 L 133.6,117.9 Z M 119.8,84.3 L 133.6,117.9 L 152.4,108.1 Z M 100.6,276.9 L 128.3,284.0 L 164.4,270.7 Z M 100.6,276.9 L 164.4,270.7 L 145.2,257.5 Z M 145.2,257.5 L 164.4,270.7 L 184.9,246.9 Z M 145.2,257.5 L 184.9,246.9 L 171.9,226.2 Z M 171.9,226.2 L 184.9,246.9 L 214.5,247.2 Z M 171.9,226.2 L 214.5,247.2 L 237.5,226.1 Z M 237.5,226.1 L 214.5,247.2 L 213.4,280.3 Z M 237.5,226.1 L 213.4,280.3 L 231.7,300.5 Z M 231.7,300.5 L 213.4,280.3 L 164.4,270.7 Z M 231.7,300.5 L 164.4,270.7 L 179.4,288.9 Z M 179.4,288.9 L 164.4,270.7 L 134.2,290.6 Z M 179.4,288.9 L 134.2,290.6 L 131.4,309.1 Z M 131.4,309.1 L 134.2,290.6 L 128.3,284.0 Z M 131.4,309.1 L 128.3,284.0 L 92.2,311.2 Z M 128.3,284.0 L 100.6,276.9 L 92.2,311.2 Z" fill="#2a2a4e" stroke="none"/>
  <path d="M 199.3,380.0 L 229.1,380.0 M 216.8,292.2 L 199.3,292.6 M 199.3,292.6 L 199.3,380.0 M 189.2,20.0 L 159.4,20.0 M 171.7,120.2 L 189.2,119.9 M 189.2,119.9 L 189.2,20.0 M 56.3,277.7 L 86.1,279.3 M 86.1,279.3 L 86.6,232.7 M 57.0,219.5 L 56.3,277.7 M 229.1,298.3 L 216.8,292.2 M 229.1,380.0 L 229.1,298.3 M 159.4,114.1 L 171.7,120.2 M 159.4,20.0 L 159.4,114.1 M 86.6,232.7 L 79.8,219.5 M 79.8,219.5 L 57.0,219.5 M 187.5,110.0 L 190.8,159.7 M 190.8,159.7 L 240.3,154.2 M 240.3,154.2 L 237.0,104.5 M 237.0,104.5 L 187.5,110.0 M 195.5,130.6 L 200.5,107.6 M 200.5,107.6 L 177.3,103.7 M 177.3,103.7 L 172.3,126.7 M 172.3,126.7 L 195.5,130.6 M 163.7,129.3 L 168.7,106.3 M 168.7,106.3 L 145.5,102.4 M 145.5,102.4 L 140.5,125.4 M 140.5,125.4 L 163.7,129.3 M 63.2,210.8 L 68.2,187.8 M 68.2,187.8 L 45.0,183.9 M 45.0,183.9 L 40.0,206.9 M 40.0,206.9 L 63.2,210.8 M 25.7,181.0 L 42.9,227.8 M 42.9,227.8 L 88.8,208.4 M 88.8,208.4 L 71.6,161.7 M 71.6,161.7 L 25.7,181.0 M 70.6,298.1 L 75.6,275.1 M 75.6,275.1 L 52.4,271.1 M 52.4,271.1 L 47.4,294.1 M 47.4,294.1 L 70.6,298.1 M 207.6,304.5 L 212.6,281.5 M 212.6,281.5 L 189.4,277.5 M 189.4,277.5 L 184.4,300.5 M 184.4,300.5 L 207.6,304.5 M 95.1,306.4 L 100.1,283.5 M 100.1,283.5 L 76.9,279.5 M 76.9,279.5 L 71.9,302.5 M 71.9,302.5 L 95.1,306.4 M 228.8,139.3 L 221.4,117.0 M 221.4,117.0 L 199.4,125.5 M 199.4,125.5 L 206.9,147.8 M 206.9,147.8 L 228.8,139.3 M 91.9,224.9 L 78.2,201.4 M 78.2,201.4 L 55.4,216.2 M 55.4,216.2 L 69.1,239.7 M 69.1,239.7 L 91.9,224.9 M 233.9,295.4 L 226.5,273.1 M 226.5,273.1 L 204.5,281.4 M 204.5,281.4 L 211.9,303.8 M 211.9,303.8 L 233.9,295.4 M 158.0,190.7 L 232.8,177.8 M 232.8,177.8 L 251.1,138.3 M 251.1,138.3 L 225.3,108.1 M 48.8,231.4 L 99.4,235.2 M 20.0,161.8 L 48.8,231.4 M 125.7,328.2 L 180.9,300.6 M 43.3,328.2 L 125.7,328.2 M 56.1,84.3 L 22.5,119.3 M 100.6,276.9 L 35.8,269.7 M 35.8,269.7 L 20.4,303.6 M 119.8,84.3 L 56.1,84.3 M 22.5,119.3 L 20.0,161.8 M 99.4,235.2 L 158.0,190.7 M 225.3,108.1 L 152.4,108.1 M 231.7,300.5 L 256.6,273.6 M 256.6,273.6 L 237.5,226.1 M 180.9,300.6 L 231.7,300.5 M 20.4,303.6 L 43.3,328.2 M 152.4,108.1 L 119.8,84.3 M 145.2,257.5 L 100.6,276.9 M 171.9,226.2 L 145.2,257.5 M 237.5,226.1 L 171.9,226.2" fill="none" stroke="white" stroke-width="2" stroke-linecap="round"/>
  <polygon points="214.6465835972828,304.6932693777213 222.6465835972828,312.6932693777213 214.6465835972828,320.6932693777213 206.6465835972828,312.6932693777213" fill="#4a9eff" stroke="white" stroke-width="1"/>
<polygon points="174.50525934578454,98.50957880621351 182.50525934578454,106.50957880621351 174.50525934578454,114.50957880621351 166.50525934578454,106.50957880621351" fill="#4a9eff" stroke="white" stroke-width="1"/>
</svg>