<svg xmlns="http://www.w3.org/2000/svg" viewBox="0 0 400 400">
  <rect width="400" height="400" fill="#1a1a2e"/>
  <path d="M 234.3,93.2 L 271.7,93.2 L 271.7,20.0 Z M 234.3,93.2 L 271.7,20.0 L 234.3,20.0 Z M 235.0,193.0 L 168.9,192.7 L 153.8,229.7 Z M 235.0,193.0 L 153.8,229.7 L 224.5,235.1 Z M 224.5,235.1 L 153.8,229.7 L 170.9,284.2 Z M 224.5,235.1 L 170.9,284.2 L 231.2,277.4 Z M 235.0,193.0 L 224.5,235.1 L 272.9,220.8 Z M 224.5,235.1 L 231.2,277.4 L 272.9,220.8 Z M 170.9,284.2 L 153.8,229.7 L 132.1,267.9 Z M 153.8,229.7 L 75.3,234.9 L 132.1,267.9 Z M 80.5,271.8 L 86.8,243.0 L 57.7,238.0 Z M 80.5,271.8 L 57.7,238.0 L 51.4,266.9 Z M 22.7,274.7 L 48.4,287.2 L 60.6,260.3 Z M 22.7,274.7 L 60.6,260.3 L 35.3,249.9 Z M 26.4,240.6 L 48.1,299.3 L 105.6,275.0 Z M 26.4,240.6 L 105.6,275.0 L 84.0,216.3 Z M 181.4,268.9 L 225.6,313.2 L 267.8,267.1 Z M 181.4,268.9 L 267.8,267.1 L 223.7,222.8 Z M 190.9,294.3 L 216.7,306.7 L 228.8,279.9 Z M 190.9,294.3 L 228.8,279.9 L 203.5,269.4 Z M 236.0,281.5 L 242.3,252.6 L 213.2,247.7 Z M 236.0,281.5 L 213.2,247.7 L 206.9,276.6 Z M 192.4,304.0 L 198.7,275.1 L 169.6,270.2 Z M 192.4,304.0 L 169.6,270.2 L 163.3,299.1 Z M 118.8,199.0 L 125.1,170.1 L 96.0,165.1 Z M 118.8,199.0 L 96.0,165.1 L 89.7,194.0 Z M 141.2,183.6 L 147.5,154.7 L 118.4,149.8 Z M 141.2,183.6 L 118.4,149.8 L 112.1,178.6 Z M 153.3,197.6 L 141.5,170.5 L 115.0,183.6 Z M 153.3,197.6 L 115.0,183.6 L 126.9,210.6 Z M 121.4,310.0 L 127.7,281.1 L 98.6,276.2 Z M 121.4,310.0 L 98.6,276.2 L 92.3,305.0 Z M 131.5,380.0 L 168.9,380.0 L 168.9,305.2 Z M 131.5,380.0 L 168.9,305.2 L 131.5,305.2 Z M 131.5,305.2 L 168.9,305.2 L 170.9,284.2 Z M 131.5,305.2 L 170.9,284.2 L 132.1,267.9 Z M 272.9,220.8 L 285.6,153.9 L 233.9,152.5 Z M 272.9,220.8 L 233.9,152.5 L 235.0,193.0 Z M 235.0,193.0 L 233.9,152.5 L 168.9,150.4 Z M 235.0,193.0 L 168.9,150.4 L 168.9,192.7 Z M 225.0,305.2 L 274.8,263.7 L 231.2,277.4 Z M 274.8,263.7 L 272.9,220.8 L 231.2,277.4 Z M 153.8,229.7 L 168.9,192.7 L 121.0,199.0 Z M 168.9,192.7 L 168.9,150.4 L 121.0,199.0 Z M 168.9,305.2 L 225.0,305.2 L 231.2,277.4 Z M 168.9,305.2 L 231.2,277.4 L 170.9,284.2 Z M 30.0,234.9 L 30.0,275.9 L 94.3,276.9 Z M 30.0,234.9 L 94.3,276.9 L 75.3,234.9 Z M 153.8,229.7 L 121.0,199.0 L 74.4,193.3 Z M 153.8,229.7 L 74.4,193.3 L 75.3,234.9 Z M 131.5,305.2 L 132.1,267.9 L 94.3,276.9 Z M 131.5,305.2 L 94.3,276.9 L 109.0,298.7 Z M 74.4,193.3 L 30.0,234.9 L 75.3,234.9 Z M 75.3,234.9 L 94.3,276.9 L 132.1,267.9 Z M 233.9,152.5 L 285.6,153.9 L 281.8,119.6 Z M 30.0,234.9 L 74.4,193.3 L 20.0,175.5 Z M 74.4,193.3 L 55.8,150.4 L 20.0,175.5 Z M 168.9,150.4 L 55.8,150.4 L 121.0,199.0 Z M 55.8,150.4 L 74.4,193.3 L 121.0,199.0 Z M 109.0,298.7 L 94.3,276.9 L 30.0,275.9 Z M 109.0,298.7 L 30.0,275.9 L 75.3,305.2 Z M 234.3,83.9 L 212.5,131.8 L 233.9,152.5 Z M 234.3,83.9 L 233.9,152.5 L 271.7,83.9 Z M 233.9,152.5 L 281.8,119.6 L 271.7,83.9 Z M 233.9,152.5 L 212.5,131.8 L 168.9,150.4 Z M 75.3,305.2 L 131.5,305.2 L 109.0,298.7 Z" fill="#2a2a4e" stroke="none"/>
  <path d="M 234.3,93.2 L 271.7,93.2 M 271.7,93.2 L 271.7,20.0 M 271.7,20.0 L 234.3,20.0 M 234.3,20.0 L 234.3,93.2 M 80.5,271.8 L 86.8,243.0 M 86.8,243.0 L 57.7,238.0 M 57.7,238.0 L 51.4,266.9 M 51.4,266.9 L 80.5,271.8 M 22.7,274.7 L 48.4,287.2 M 48.4,287.2 L 60.6,260.3 M 60.6,260.3 L 35.3,249.9 M 35.3,249.9 L 22.7,274.7 M 26.4,240.6 L 48.1,299.3 M 48.1,299.3 L 105.6,275.0 M 105.6,275.0 L 84.0,216.3 M 84.0,216.3 L 26.4,240.6 M 181.4,268.9 L 225.6,313.2 M 225.6,313.2 L 267.8,267.1 M 267.8,267.1 L 223.7,222.8 M 223.7,222.8 L 181.4,268.9 M 190.9,294.3 L 216.7,306.7 M 216.7,306.7 L 228.8,279.9 M 228.8,279.9 L 203.5,269.4 M 203.5,269.4 L 190.9,294.3 M 236.0,281.5 L 242.3,252.6 M 242.3,252.6 L 213.2,247.7 M 213.2,247.7 L 206.9,276.6 M 206.9,276.6 L 236.0,281.5 M 192.4,304.0 L 198.7,275.1 M 198.7,275.1 L 169.6,270.2 M 169.6,270.2 L 163.3,299.1 M 163.3,299.1 L 192.4,304.0 M 118.8,199.0 L 125.1,170.1 M 125.1,170.1 L 96.0,165.1 M 96.0,165.1 L 89.7,194.0 M 89.7,194.0 L 118.8,199.0 M 141.2,183.6 L 147.5,154.7 M 147.5,154.7 L 118.4,149.8 M 118.4,149.8 L 112.1,178.6 M 112.1,178.6 L 141.2,183.6 M 153.3,197.6 L 141.5,170.5 M 141.5,170.5 L 115.0,183.6 M 115.0,183.6 L 126.9,210.6 M 126.9,210.6 L 153.3,197.6 M 121.4,310.0 L 127.7,281.1 M 127.7,281.1 L 98.6,276.2 M 98.6,276.2 L 92.3,305.0 M 92.3,305.0 L 121.4,310.0 M 131.5,380.0 L 168.9,380.0 M 168.9,380.0 L 168.9,305.2 M 131.5,305.2 L 131.5,380.0 M 272.9,220.8 L 285.6,153.9 M 225.0,305.2 L 274.8,263.7 M 274.8,263.7 L 272.9,220.8 M 168.9,305.2 L 225.0,305.2 M 30.0,234.9 L 30.0,275.9 M 285.6,153.9 L 281.8,119.6 M 20.0,175.5 L 30.0,234.9 M 55.8,150.4 L 20.0,175.5 M 168.9,150.4 L 55.8,150.4 M 30.0,275.9 L 75.3,305.2 M 234.3,83.9 L 212.5,131.8 M 271.7,83.9 L 234.3,83.9 M 281.8,119.6 L 271.7,83.9 M 212.5,131.8 L 168.9,150.4 M 75.3,305.2 L 131.5,305.2" fill="none" stroke="white" stroke-width="2" stroke-linecap="round"/>
  <polygon points="149.92979450873793,311.6027409086375 157.92979450873793,319.6027409086375 149.92979450873793,327.6027409086375 141.92979450873793,319.6027409086375" fill="#4a9eff" stroke="white" stroke-width="1"/>
<polygon points="253.6230015079074,80.26468693920361 261.62300150790736,88.26468693920361 253.6230015079074,96.26468693920361 245.6230015079074,88.26468693920361" fill="#4a9eff" stroke="white" stroke-width="1"/>
</svg>