<svg xmlns="http://www.w3.org/2000/svg" viewBox="0 0 400 400">
  <rect width="400" height="400" fill="#1a1a2e"/>
  <path d="M 191.3,224.5 L 224.5,224.5 L 183.6,183.6 Z M 191.3,224.5 L 183.6,183.6 L 165.1,202.1 Z M 165.1,202.1 L 183.6,183.6 L 142.7,142.7 Z M 165.1,202.1 L 142.7,142.7 L 142.7,173.1 Z M 218.7,333.5 L 238.1,238.1 L 183.6,333.5 Z M 238.1,238.1 L 149.6,274.1 L 183.6,333.5 Z M 100.1,221.5 L 112.9,245.8 L 129.1,238.1 Z M 112.9,245.8 L 121.5,254.0 L 129.1,238.1 Z M 129.1,238.1 L 121.5,254.0 L 149.6,274.1 Z M 100.1,221.5 L 129.1,238.1 L 129.1,129.1 Z M 100.1,221.5 L 129.1,129.1 L 63.3,166.6 Z M 142.7,142.7 L 183.6,183.6 L 177.8,142.7 Z M 238.1,238.1 L 129.1,238.1 L 149.6,274.1 Z M 183.6,183.6 L 224.5,224.5 L 224.5,203.2 Z M 286.6,106.0 L 333.5,83.6 L 270.7,60.6 Z M 286.6,106.0 L 270.7,60.6 L 225.8,107.5 Z M 225.8,107.5 L 270.7,60.6 L 259.7,33.6 Z M 225.8,107.5 L 259.7,33.6 L 183.6,33.6 Z M 102.0,116.2 L 129.1,129.1 L 145.0,101.1 Z M 129.1,129.1 L 167.1,129.1 L 145.0,101.1 Z M 238.1,211.9 L 238.1,238.1 L 259.7,225.7 Z M 238.1,238.1 L 269.4,303.8 L 259.7,225.7 Z M 142.7,173.1 L 142.7,224.5 L 165.1,202.1 Z M 142.7,224.5 L 191.3,224.5 L 165.1,202.1 Z M 100.1,221.5 L 63.3,166.6 L 33.6,183.6 Z M 63.3,166.6 L 33.6,145.1 L 33.6,183.6 Z M 33.6,248.5 L 75.3,263.7 L 33.6,183.6 Z M 75.3,263.7 L 112.9,245.8 L 33.6,183.6 Z M 33.6,183.6 L 112.9,245.8 L 100.1,221.5 Z M 225.8,107.5 L 183.6,33.6 L 157.2,79.9 Z M 183.6,33.6 L 118.2,33.6 L 157.2,79.9 Z M 149.6,274.1 L 121.5,254.0 L 183.6,333.5 Z M 121.5,254.0 L 94.3,311.1 L 183.6,333.5 Z M 183.6,333.5 L 94.3,311.1 L 139.7,333.5 Z M 33.6,145.1 L 63.3,166.6 L 129.1,129.1 Z M 33.6,145.1 L 129.1,129.1 L 102.0,116.2 Z M 218.7,333.5 L 250.5,333.5 L 269.4,303.8 Z M 218.7,333.5 L 269.4,303.8 L 238.1,238.1 Z M 75.3,263.7 L 94.3,311.1 L 121.5,254.0 Z M 75.3,263.7 L 121.5,254.0 L 112.9,245.8 Z M 333.5,143.5 L 333.5,83.6 L 286.6,106.0 Z M 224.5,203.2 L 177.8,142.7 L 183.6,183.6 Z M 143.1,347.2 L 139.7,333.5 L 94.3,311.1 Z M 143.1,347.2 L 94.3,311.1 L 74.5,347.2 Z M 74.5,347.2 L 94.3,311.1 L 75.3,263.7 Z M 74.5,347.2 L 75.3,263.7 L 20.0,292.6 Z M 75.3,263.7 L 33.6,248.5 L 20.0,292.6 Z M 33.6,248.5 L 20.0,252.2 L 20.0,292.6 Z M 243.6,347.2 L 292.6,347.2 L 250.5,333.5 Z M 292.6,347.2 L 269.4,303.8 L 250.5,333.5 Z M 145.0,101.1 L 157.2,79.9 L 102.0,116.2 Z M 157.2,79.9 L 118.2,33.6 L 102.0,116.2 Z M 102.0,116.2 L 118.2,33.6 L 74.5,20.0 Z M 118.2,33.6 L 106.7,20.0 L 74.5,20.0 Z M 347.2,142.4 L 333.5,143.5 L 347.2,183.6 Z M 333.5,143.5 L 259.7,225.7 L 347.2,183.6 Z M 347.2,183.6 L 259.7,225.7 L 347.2,292.6 Z M 270.7,60.6 L 292.6,20.0 L 259.7,33.6 Z M 292.6,20.0 L 254.2,20.0 L 259.7,33.6 Z M 224.5,203.2 L 238.1,211.9 L 286.6,106.0 Z M 238.1,211.9 L 259.7,225.7 L 286.6,106.0 Z M 286.6,106.0 L 259.7,225.7 L 333.5,143.5 Z M 157.2,79.9 L 145.0,101.1 L 167.1,129.1 Z M 157.2,79.9 L 167.1,129.1 L 225.8,107.5 Z M 270.7,60.6 L 333.5,83.6 L 347.2,74.5 Z M 270.7,60.6 L 347.2,74.5 L 292.6,20.0 Z M 74.5,20.0 L 20.0,74.5 L 33.6,145.1 Z M 74.5,20.0 L 33.6,145.1 L 102.0,116.2 Z M 292.6,347.2 L 347.2,292.6 L 259.7,225.7 Z M 292.6,347.2 L 259.7,225.7 L 269.4,303.8 Z M 177.8,142.7 L 224.5,203.2 L 286.6,106.0 Z M 177.8,142.7 L 286.6,106.0 L 225.8,107.5 Z M 20.0,74.5 L 20.0,150.9 L 33.6,145.1 Z M 167.1,129.1 L 177.8,142.7 L 225.8,107.5 Z M 139.7,333.5 L 143.1,347.2 L 183.6,347.2 Z M 139.7,333.5 L 183.6,347.2 L 183.6,333.5 Z M 183.6,333.5 L 183.6,347.2 L 212.2,347.2 Z M 183.6,333.5 L 212.2,347.2 L 218.7,333.5 Z M 218.7,333.5 L 212.2,347.2 L 243.6,347.2 Z M 218.7,333.5 L 243.6,347.2 L 250.5,333.5 Z M 20.0,252.2 L 33.6,248.5 L 33.6,183.6 Z M 20.0,252.2 L 33.6,183.6 L 20.0,183.6 Z M 20.0,183.6 L 33.6,183.6 L 33.6,145.1 Z M 20.0,183.6 L 33.6,145.1 L 20.0,150.9 Z M 106.7,20.0 L 118.2,33.6 L 183.6,33.6 Z M 106.7,20.0 L 183.6,33.6 L 183.6,20.0 Z M 183.6,20.0 L 183.6,33.6 L 259.7,33.6 Z M 183.6,20.0 L 259.7,33.6 L 254.2,20.0 Z M 142.7,224.5 L 142.7,173.1 L 129.1,238.1 Z M 142.7,173.1 L 142.7,142.7 L 129.1,238.1 Z M 129.1,238.1 L 142.7,142.7 L 129.1,129.1 Z M 238.1,238.1 L 224.5,224.5 L 129.1,238.1 Z M 224.5,224.5 L 191.3,224.5 L 129.1,238.1 Z M 129.1,238.1 L 191.3,224.5 L 142.7,224.5 Z M 333.5,143.5 L 347.2,142.4 L 347.2,74.5 Z M 333.5,143.5 L 347.2,74.5 L 333.5,83.6 Z M 129.1,129.1 L 142.7,142.7 L 177.8,142.7 Z M 129.1,129.1 L 177.8,142.7 L 167.1,129.1 Z M 238.1,238.1 L 238.1,211.9 L 224.5,203.2 Z M 238.1,238.1 L 224.5,203.2 L 224.5,224.5 Z M 216.3,347.2 L 150.9,347.2 L 150.9,380.0 Z M 216.3,347.2 L 150.9,380.0 L 216.3,359.6 Z" fill="#2a2a4e" stroke="none"/>
  <path d="M 74.5,347.2 L 143.1,347.2 M 20.0,292.6 L 74.5,347.2 M 20.0,252.2 L 20.0,292.6 M 243.6,347.2 L 292.6,347.2 M 106.7,20.0 L 74.5,20.0 M 347.2,183.6 L 347.2,142.4 M 347.2,292.6 L 347.2,183.6 M 292.6,20.0 L 254.2,20.0 M 347.2,74.5 L 292.6,20.0 M 74.5,20.0 L 20.0,74.5 M 292.6,347.2 L 347.2,292.6 M 20.0,74.5 L 20.0,150.9 M 143.1,347.2 L 183.6,347.2 M 183.6,347.2 L 212.2,347.2 M 212.2,347.2 L 243.6,347.2 M 20.0,183.6 L 20.0,252.2 M 20.0,150.9 L 20.0,183.6 M 183.6,20.0 L 106.7,20.0 M 254.2,20.0 L 183.6,20.0 M 347.2,142.4 L 347.2,74.5 M 216.3,347.2 L 150.9,347.2 M 150.9,347.2 L 150.9,380.0 M 150.9,380.0 L 216.3,359.6 M 216.3,359.6 L 216.3,347.2" fill="none" stroke="white" stroke-width="2" stroke-linecap="round"/>
  
</svg>