<svg xmlns="http://www.w3.org/2000/svg" viewBox="0 0 400 400" data-rotation="90" data-scale="9.473684" data-offset-x="206.40" data-offset-y="185.79" data-center-x="200.0" data-center-y="200.0">
  <rect width="400" height="400" fill="#1a1a2e"/>
  <g transform="rotate(90, 200.0, 200.0)">
  <path d="M 147.1,251.6 L 140.0,196.5 L 99.2,262.6 Z M 140.0,196.5 L 73.5,205.4 L 99.2,262.6 Z M 274.2,102.8 L 322.6,92.6 L 268.6,48.1 Z M 363.0,162.8 L 260.2,190.8 L 337.4,230.4 Z M 260.2,190.8 L 260.7,251.4 L 337.4,230.4 Z M 111.0,104.2 L 63.3,118.1 L 37.0,187.3 Z M 111.0,104.2 L 37.0,187.3 L 148.7,164.3 Z M 260.2,190.8 L 148.7,164.3 L 260.7,251.4 Z M 215.9,317.3 L 202.3,295.1 L 158.9,317.1 Z M 202.3,295.1 L 168.2,295.6 L 158.9,317.1 Z M 215.9,571.7 L 215.9,317.3 L 158.9,317.1 Z M 215.9,571.7 L 158.9,317.1 L 158.9,586.2 Z M 225.0,253.6 L 140.0,196.5 L 147.1,251.6 Z M 225.0,253.6 L 147.1,251.6 L 202.3,295.1 Z M 202.3,295.1 L 147.1,251.6 L 99.2,262.6 Z M 202.3,295.1 L 99.2,262.6 L 168.2,295.6 Z M 175.2,58.4 L 167.6,136.2 L 274.2,102.8 Z M 175.2,58.4 L 274.2,102.8 L 268.6,48.1 Z M 322.6,92.6 L 274.2,102.8 L 258.3,163.5 Z M 322.6,92.6 L 258.3,163.5 L 332.6,144.7 Z M 175.2,58.4 L 148.8,105.6 L 167.6,136.2 Z M 274.2,102.8 L 167.6,136.2 L 258.3,163.5 Z M 148.8,105.6 L 175.2,58.4 L 111.0,104.2 Z M 175.2,58.4 L 162.0,35.0 L 111.0,104.2 Z M 72.5,279.2 L 99.2,262.6 L 73.5,205.4 Z M 72.5,279.2 L 73.5,205.4 L 37.0,187.3 Z M 158.9,317.1 L 168.2,295.6 L 99.2,262.6 Z M 158.9,317.1 L 99.2,262.6 L 72.5,279.2 Z M 111.0,104.2 L 148.7,164.3 L 167.6,136.2 Z M 111.0,104.2 L 167.6,136.2 L 148.8,105.6 Z M 225.0,253.6 L 202.3,295.1 L 215.9,317.3 Z M 225.0,253.6 L 215.9,317.3 L 260.7,251.4 Z M 140.0,196.5 L 148.7,164.3 L 37.0,187.3 Z M 140.0,196.5 L 37.0,187.3 L 73.5,205.4 Z M 140.0,196.5 L 225.0,253.6 L 260.7,251.4 Z M 140.0,196.5 L 260.7,251.4 L 148.7,164.3 Z M 363.0,162.8 L 332.6,144.7 L 258.3,163.5 Z M 363.0,162.8 L 258.3,163.5 L 260.2,190.8 Z M 322.6,92.6 L 345.4,86.2 L 279.5,24.2 Z M 322.6,92.6 L 279.5,24.2 L 268.6,48.1 Z M 175.2,58.4 L 268.6,48.1 L 279.5,24.2 Z M 175.2,58.4 L 279.5,24.2 L 162.0,35.0 Z M 363.0,162.8 L 345.4,86.2 L 322.6,92.6 Z M 363.0,162.8 L 322.6,92.6 L 332.6,144.7 Z M 260.2,190.8 L 258.3,163.5 L 167.6,136.2 Z M 260.2,190.8 L 167.6,136.2 L 148.7,164.3 Z" fill="#2a2a4e" stroke="none"/>
  <path d="M 337.4,230.4 L 363.0,162.8 M 260.7,251.4 L 337.4,230.4 M 111.0,104.2 L 63.3,118.1 M 63.3,118.1 L 37.0,187.3 M 215.9,571.7 L 215.9,317.3 M 158.9,317.1 L 158.9,586.2 M 158.9,586.2 L 215.9,571.7 M 162.0,35.0 L 111.0,104.2 M 37.0,187.3 L 72.5,279.2 M 72.5,279.2 L 158.9,317.1 M 215.9,317.3 L 260.7,251.4 M 345.4,86.2 L 279.5,24.2 M 279.5,24.2 L 162.0,35.0 M 363.0,162.8 L 345.4,86.2" fill="none" stroke="white" stroke-width="2" stroke-linecap="round"/>
  <rect x="163.3" y="314.9" width="48" height="8" fill="#ff4444" stroke="white" stroke-width="1" data-gate="true" data-gate-dir="west"/>
<text x="187.3" y="342.9" text-anchor="middle" font-size="10" fill="#ffaaaa" font-family="sans-serif" transform="rotate(-90, 187.3, 342.9)">W</text>
  <circle cx="206.4" cy="185.8" r="0" data-origin="true" fill="none"/>
  </g>
</svg>