<svg xmlns="http://www.w3.org/2000/svg" viewBox="0 0 400 400">
  <rect width="400" height="400" fill="#1a1a2e"/>
  <path d="M 203.9,178.5 L 184.8,197.7 L 202.3,215.5 Z M 203.9,178.5 L 202.3,215.5 L 221.4,196.3 Z M 173.9,106.2 L 173.9,20.8 L 145.9,20.8 Z M 173.9,106.2 L 145.9,20.8 L 145.9,106.3 Z M 117.5,215.5 L 135.0,197.7 L 115.9,178.5 Z M 117.5,215.5 L 115.9,178.5 L 98.5,196.3 Z M 293.8,254.0 L 379.2,253.8 L 379.2,226.7 Z M 293.8,254.0 L 379.2,226.7 L 293.7,226.0 Z M 151.8,191.4 L 138.3,207.3 L 181.5,207.3 Z M 151.8,191.4 L 181.5,207.3 L 195.0,191.4 Z M 195.0,191.4 L 181.5,207.3 L 192.7,218.6 Z M 195.0,191.4 L 192.7,218.6 L 206.2,202.6 Z M 138.9,100.6 L 149.4,94.0 L 149.4,20.0 Z M 138.9,100.6 L 149.4,20.0 L 138.9,21.4 Z M 206.2,202.6 L 192.7,218.6 L 192.7,261.7 Z M 206.2,202.6 L 192.7,261.7 L 207.1,245.6 Z M 380.0,250.6 L 306.0,250.6 L 299.4,261.1 Z M 380.0,250.6 L 299.4,261.1 L 378.6,261.1 Z M 221.4,196.3 L 202.3,215.5 L 202.3,257.8 Z M 221.4,196.3 L 202.3,257.8 L 246.3,240.1 Z M 246.3,240.1 L 202.3,257.8 L 228.7,284.1 Z M 246.3,240.1 L 228.7,284.1 L 264.0,284.1 Z M 115.9,178.5 L 135.0,197.7 L 159.8,153.7 Z M 115.9,178.5 L 159.8,153.7 L 115.9,136.3 Z M 115.9,136.3 L 159.8,153.7 L 173.9,106.2 Z M 115.9,136.3 L 173.9,106.2 L 145.9,106.3 Z M 29.6,257.7 L 55.8,284.1 L 91.1,284.1 Z M 29.6,257.7 L 91.1,284.1 L 70.2,239.7 Z M 70.2,239.7 L 91.1,284.1 L 117.6,257.8 Z M 70.2,239.7 L 117.6,257.8 L 117.5,215.5 Z M 264.0,284.1 L 293.8,254.0 L 293.7,226.0 Z M 264.0,284.1 L 293.7,226.0 L 246.3,240.1 Z M 246.3,240.1 L 293.7,226.0 L 263.8,196.2 Z M 246.3,240.1 L 263.8,196.2 L 221.4,196.3 Z M 203.8,136.1 L 173.9,106.2 L 159.8,153.7 Z M 203.8,136.1 L 159.8,153.7 L 203.9,178.5 Z M 203.9,178.5 L 159.8,153.7 L 135.0,197.7 Z M 203.9,178.5 L 135.0,197.7 L 184.8,197.7 Z M 117.5,215.5 L 98.5,196.3 L 56.0,196.2 Z M 117.5,215.5 L 56.0,196.2 L 70.2,239.7 Z M 70.2,239.7 L 56.0,196.2 L 29.6,222.5 Z M 70.2,239.7 L 29.6,222.5 L 29.6,257.7 Z M 267.9,293.7 L 299.8,261.7 L 293.8,254.0 Z M 267.9,293.7 L 293.8,254.0 L 264.0,284.1 Z M 299.8,218.5 L 267.9,186.6 L 263.8,196.2 Z M 299.8,218.5 L 263.8,196.2 L 293.7,226.0 Z M 224.7,293.7 L 267.9,293.7 L 264.0,284.1 Z M 224.7,293.7 L 264.0,284.1 L 228.7,284.1 Z M 192.7,218.6 L 192.7,261.7 L 202.3,257.8 Z M 192.7,218.6 L 202.3,257.8 L 202.3,215.5 Z M 267.9,186.6 L 224.7,186.6 L 221.4,196.3 Z M 267.9,186.6 L 221.4,196.3 L 263.8,196.2 Z M 221.4,196.3 L 224.7,186.6 L 213.5,175.4 Z M 221.4,196.3 L 213.5,175.4 L 203.9,178.5 Z M 213.5,132.2 L 181.5,100.2 L 173.9,106.2 Z M 213.5,132.2 L 173.9,106.2 L 203.8,136.1 Z M 138.3,100.2 L 106.4,132.2 L 115.9,136.3 Z M 138.3,100.2 L 115.9,136.3 L 145.9,106.3 Z M 138.3,207.3 L 181.5,207.3 L 184.8,197.7 Z M 138.3,207.3 L 184.8,197.7 L 135.0,197.7 Z M 106.4,132.2 L 106.4,175.4 L 115.9,178.5 Z M 106.4,132.2 L 115.9,178.5 L 115.9,136.3 Z M 213.5,175.4 L 213.5,132.2 L 203.8,136.1 Z M 213.5,175.4 L 203.8,136.1 L 203.9,178.5 Z M 202.3,215.5 L 184.8,197.7 L 181.5,207.3 Z M 202.3,215.5 L 181.5,207.3 L 192.7,218.6 Z M 145.9,20.8 L 138.3,20.8 L 138.3,100.2 Z M 145.9,20.8 L 138.3,100.2 L 145.9,106.3 Z M 173.9,106.2 L 181.5,100.2 L 181.5,20.8 Z M 173.9,106.2 L 181.5,20.8 L 173.9,20.8 Z M 29.6,257.7 L 20.0,261.7 L 52.0,293.7 Z M 29.6,257.7 L 52.0,293.7 L 55.8,284.1 Z M 56.0,196.2 L 52.0,186.6 L 20.0,218.6 Z M 56.0,196.2 L 20.0,218.6 L 29.6,222.5 Z M 55.8,284.1 L 52.0,293.7 L 95.2,293.7 Z M 55.8,284.1 L 95.2,293.7 L 91.1,284.1 Z M 117.6,257.8 L 127.1,261.7 L 127.1,218.6 Z M 117.6,257.8 L 127.1,218.6 L 117.5,215.5 Z M 98.5,196.3 L 95.1,186.6 L 52.0,186.6 Z M 98.5,196.3 L 52.0,186.6 L 56.0,196.2 Z M 29.6,222.5 L 20.0,218.6 L 20.0,261.7 Z M 29.6,222.5 L 20.0,261.7 L 29.6,257.7 Z M 106.4,175.4 L 95.1,186.6 L 98.5,196.3 Z M 106.4,175.4 L 98.5,196.3 L 115.9,178.5 Z M 138.3,207.3 L 135.0,197.7 L 117.5,215.5 Z M 138.3,207.3 L 117.5,215.5 L 127.1,218.6 Z M 379.2,226.7 L 379.2,218.5 L 299.8,218.5 Z M 379.2,226.7 L 299.8,218.5 L 293.7,226.0 Z M 293.8,254.0 L 299.8,261.7 L 379.2,261.7 Z M 293.8,254.0 L 379.2,261.7 L 379.2,253.8 Z M 91.1,284.1 L 95.2,293.7 L 127.1,261.7 Z M 91.1,284.1 L 127.1,261.7 L 117.6,257.8 Z M 192.7,261.7 L 224.7,293.7 L 228.7,284.1 Z M 192.7,261.7 L 228.7,284.1 L 202.3,257.8 Z" fill="#2a2a4e" stroke="none"/>
  <path d="M 173.9,20.8 L 145.9,20.8 M 379.2,253.8 L 379.2,226.7 M 151.8,191.4 L 138.3,207.3 M 195.0,191.4 L 151.8,191.4 M 206.2,202.6 L 195.0,191.4 M 138.9,100.6 L 149.4,94.0 M 149.4,94.0 L 149.4,20.0 M 149.4,20.0 L 138.9,21.4 M 138.9,21.4 L 138.9,100.6 M 192.7,261.7 L 207.1,245.6 M 207.1,245.6 L 206.2,202.6 M 380.0,250.6 L 306.0,250.6 M 306.0,250.6 L 299.4,261.1 M 299.4,261.1 L 378.6,261.1 M 378.6,261.1 L 380.0,250.6 M 267.9,293.7 L 299.8,261.7 M 299.8,218.5 L 267.9,186.6 M 224.7,293.7 L 267.9,293.7 M 267.9,186.6 L 224.7,186.6 M 224.7,186.6 L 213.5,175.4 M 213.5,132.2 L 181.5,100.2 M 138.3,100.2 L 106.4,132.2 M 106.4,132.2 L 106.4,175.4 M 213.5,175.4 L 213.5,132.2 M 145.9,20.8 L 138.3,20.8 M 138.3,20.8 L 138.3,100.2 M 181.5,100.2 L 181.5,20.8 M 181.5,20.8 L 173.9,20.8 M 20.0,261.7 L 52.0,293.7 M 52.0,186.6 L 20.0,218.6 M 52.0,293.7 L 95.2,293.7 M 127.1,261.7 L 127.1,218.6 M 95.1,186.6 L 52.0,186.6 M 20.0,218.6 L 20.0,261.7 M 106.4,175.4 L 95.1,186.6 M 127.1,218.6 L 138.3,207.3 M 379.2,226.7 L 379.2,218.5 M 379.2,218.5 L 299.8,218.5 M 299.8,261.7 L 379.2,261.7 M 379.2,261.7 L 379.2,253.8 M 95.2,293.7 L 127.1,261.7 M 192.7,261.7 L 224.7,293.7" fill="none" stroke="white" stroke-width="2" stroke-linecap="round"/>
  <polygon points="159.44414518487605,90.9278950726873 167.44414518487605,98.9278950726873 159.44414518487605,106.9278950726873 151.44414518487605,98.9278950726873" fill="#4a9eff" stroke="white" stroke-width="1"/>
<polygon points="304.54778646388877,232.15196697431952 312.54778646388877,240.15196697431952 304.54778646388877,248.15196697431952 296.54778646388877,240.15196697431952" fill="#4a9eff" stroke="white" stroke-width="1"/>
</svg>