<svg xmlns="http://www.w3.org/2000/svg" viewBox="0 0 400 400">
  <rect width="400" height="400" fill="#1a1a2e"/>
  <path d="M 141.4,318.4 L 157.4,330.9 L 197.2,314.1 Z M 141.4,318.4 L 197.2,314.1 L 161.3,305.3 Z M 111.2,215.8 L 134.2,186.7 L 124.4,170.8 Z M 111.2,215.8 L 124.4,170.8 L 87.8,196.3 Z M 197.2,314.1 L 222.8,281.4 L 207.8,275.2 Z M 197.2,314.1 L 207.8,275.2 L 183.5,277.6 Z M 111.2,215.8 L 87.8,196.3 L 68.8,225.2 Z M 197.2,314.1 L 183.5,277.6 L 161.3,305.3 Z M 131.7,361.6 L 125.1,315.5 L 90.6,302.1 Z M 131.7,361.6 L 90.6,302.1 L 88.5,312.6 Z M 88.5,312.6 L 90.6,302.1 L 76.9,272.8 Z M 88.5,312.6 L 76.9,272.8 L 57.5,280.5 Z M 57.5,280.5 L 76.9,272.8 L 72.8,248.6 Z M 57.5,280.5 L 72.8,248.6 L 42.5,253.8 Z M 42.5,253.8 L 72.8,248.6 L 68.8,225.2 Z M 42.5,253.8 L 68.8,225.2 L 41.5,224.6 Z M 41.5,224.6 L 68.8,225.2 L 87.8,196.3 Z M 41.5,224.6 L 87.8,196.3 L 79.6,187.9 Z M 79.6,187.9 L 87.8,196.3 L 124.4,170.8 Z M 79.6,187.9 L 124.4,170.8 L 140.8,138.4 Z M 140.8,138.4 L 124.4,170.8 L 134.2,186.7 Z M 140.8,138.4 L 134.2,186.7 L 154.6,159.2 Z M 197.2,314.1 L 217.3,316.5 L 267.2,259.3 Z M 197.2,314.1 L 267.2,259.3 L 222.8,281.4 Z M 222.8,281.4 L 267.2,259.3 L 219.1,251.1 Z M 222.8,281.4 L 219.1,251.1 L 207.8,275.2 Z M 207.8,275.2 L 219.1,251.1 L 181.9,272.8 Z M 207.8,275.2 L 181.9,272.8 L 183.5,277.6 Z M 183.5,277.6 L 181.9,272.8 L 155.0,297.0 Z M 183.5,277.6 L 155.0,297.0 L 161.3,305.3 Z M 161.3,305.3 L 155.0,297.0 L 125.1,315.5 Z M 161.3,305.3 L 125.1,315.5 L 141.4,318.4 Z M 174.5,164.2 L 134.2,186.7 L 111.2,215.8 Z M 174.5,164.2 L 111.2,215.8 L 127.5,227.7 Z M 127.5,227.7 L 111.2,215.8 L 68.8,225.2 Z M 127.5,227.7 L 68.8,225.2 L 72.8,248.6 Z M 217.3,316.5 L 197.2,314.1 L 164.6,363.2 Z M 197.2,314.1 L 152.9,346.1 L 164.6,363.2 Z M 164.6,363.2 L 152.9,346.1 L 131.7,361.6 Z M 152.9,346.1 L 157.4,330.9 L 131.7,361.6 Z M 131.7,361.6 L 157.4,330.9 L 141.4,318.4 Z M 134.2,186.7 L 174.5,164.2 L 154.6,159.2 Z M 174.5,164.2 L 178.4,147.2 L 154.6,159.2 Z M 154.6,159.2 L 178.4,147.2 L 161.1,133.9 Z M 138.9,20.0 L 140.8,138.4 L 161.1,133.9 Z M 138.9,20.0 L 161.1,133.9 L 155.5,20.0 Z M 376.9,239.4 L 273.0,235.6 L 267.2,259.3 Z M 376.9,239.4 L 267.2,259.3 L 376.9,252.2 Z M 255.2,218.4 L 229.1,219.3 L 219.1,251.1 Z M 255.2,218.4 L 219.1,251.1 L 267.2,259.3 Z M 127.5,227.7 L 72.8,248.6 L 76.9,272.8 Z M 267.2,259.3 L 273.0,235.6 L 255.2,218.4 Z M 219.1,251.1 L 229.1,219.3 L 181.9,272.8 Z M 161.1,133.9 L 140.8,138.4 L 154.6,159.2 Z M 197.2,314.1 L 157.4,330.9 L 152.9,346.1 Z M 141.4,318.4 L 125.1,315.5 L 131.7,361.6 Z M 65.2,174.8 L 79.6,187.9 L 122.4,131.3 Z M 79.6,187.9 L 140.8,138.4 L 122.4,131.3 Z M 42.5,253.8 L 41.5,224.6 L 23.6,258.5 Z M 41.5,224.6 L 20.0,219.3 L 23.6,258.5 Z M 217.3,316.5 L 164.6,363.2 L 228.3,326.9 Z M 164.6,363.2 L 169.0,377.9 L 228.3,326.9 Z M 376.9,224.5 L 283.0,222.6 L 376.9,239.4 Z M 283.0,222.6 L 273.0,235.6 L 376.9,239.4 Z M 88.5,312.6 L 57.5,280.5 L 73.8,327.0 Z M 57.5,280.5 L 38.0,290.1 L 73.8,327.0 Z M 161.1,133.9 L 175.2,126.9 L 155.5,20.0 Z M 175.2,126.9 L 172.7,20.0 L 155.5,20.0 Z M 191.1,141.8 L 178.4,147.2 L 187.9,170.3 Z M 178.4,147.2 L 174.5,164.2 L 187.9,170.3 Z M 121.0,380.0 L 131.7,361.6 L 73.8,327.0 Z M 131.7,361.6 L 88.5,312.6 L 73.8,327.0 Z M 228.3,326.9 L 278.1,273.9 L 217.3,316.5 Z M 278.1,273.9 L 267.2,259.3 L 217.3,316.5 Z M 273.0,235.6 L 283.0,222.6 L 255.2,218.4 Z M 283.0,222.6 L 262.6,202.5 L 255.2,218.4 Z M 187.9,170.3 L 174.5,164.2 L 138.3,236.2 Z M 174.5,164.2 L 127.5,227.7 L 138.3,236.2 Z M 76.9,272.8 L 93.4,273.6 L 127.5,227.7 Z M 93.4,273.6 L 138.3,236.2 L 127.5,227.7 Z M 147.0,285.3 L 125.5,299.8 L 155.0,297.0 Z M 125.5,299.8 L 125.1,315.5 L 155.0,297.0 Z M 181.9,272.8 L 229.1,219.3 L 171.9,262.0 Z M 229.1,219.3 L 220.7,203.2 L 171.9,262.0 Z M 102.0,290.1 L 93.4,273.6 L 90.6,302.1 Z M 93.4,273.6 L 76.9,272.8 L 90.6,302.1 Z M 125.5,299.8 L 102.0,290.1 L 125.1,315.5 Z M 102.0,290.1 L 90.6,302.1 L 125.1,315.5 Z M 23.6,258.5 L 38.0,290.1 L 42.5,253.8 Z M 38.0,290.1 L 57.5,280.5 L 42.5,253.8 Z M 169.0,377.9 L 164.6,363.2 L 121.0,380.0 Z M 164.6,363.2 L 131.7,361.6 L 121.0,380.0 Z M 267.2,259.3 L 278.1,273.9 L 376.9,252.2 Z M 278.1,273.9 L 376.9,268.8 L 376.9,252.2 Z M 191.1,141.8 L 175.2,126.9 L 178.4,147.2 Z M 175.2,126.9 L 161.1,133.9 L 178.4,147.2 Z M 147.0,285.3 L 155.0,297.0 L 171.9,262.0 Z M 155.0,297.0 L 181.9,272.8 L 171.9,262.0 Z M 20.0,219.3 L 41.5,224.6 L 79.6,187.9 Z M 20.0,219.3 L 79.6,187.9 L 65.2,174.8 Z M 262.6,202.5 L 220.7,203.2 L 229.1,219.3 Z M 262.6,202.5 L 229.1,219.3 L 255.2,218.4 Z M 213.4,271.2 L 223.0,278.6 L 220.8,261.6 Z M 203.9,263.8 L 206.1,280.8 L 213.4,271.2 Z M 220.8,261.6 L 203.9,263.8 L 213.4,271.2 Z M 206.1,280.8 L 223.0,278.6 L 213.4,271.2 Z M 86.1,199.5 L 91.2,212.7 L 99.4,194.4 Z M 81.1,186.2 L 72.9,204.6 L 86.1,199.5 Z M 99.4,194.4 L 81.1,186.2 L 86.1,199.5 Z M 72.9,204.6 L 91.2,212.7 L 86.1,199.5 Z M 122.4,131.3 L 138.9,20.0 L 127.2,20.0 Z M 122.4,131.3 L 140.8,138.4 L 138.9,20.0 Z" fill="#2a2a4e" stroke="none"/>
  <path d="M 155.5,20.0 L 138.9,20.0 M 376.9,252.2 L 376.9,239.4 M 122.4,131.3 L 65.2,174.8 M 20.0,219.3 L 23.6,258.5 M 169.0,377.9 L 228.3,326.9 M 376.9,224.5 L 283.0,222.6 M 376.9,239.4 L 376.9,224.5 M 38.0,290.1 L 73.8,327.0 M 175.2,126.9 L 172.7,20.0 M 172.7,20.0 L 155.5,20.0 M 187.9,170.3 L 191.1,141.8 M 73.8,327.0 L 121.0,380.0 M 228.3,326.9 L 278.1,273.9 M 283.0,222.6 L 262.6,202.5 M 138.3,236.2 L 187.9,170.3 M 93.4,273.6 L 138.3,236.2 M 147.0,285.3 L 125.5,299.8 M 220.7,203.2 L 171.9,262.0 M 102.0,290.1 L 93.4,273.6 M 125.5,299.8 L 102.0,290.1 M 23.6,258.5 L 38.0,290.1 M 121.0,380.0 L 169.0,377.9 M 278.1,273.9 L 376.9,268.8 M 376.9,268.8 L 376.9,252.2 M 191.1,141.8 L 175.2,126.9 M 171.9,262.0 L 147.0,285.3 M 65.2,174.8 L 20.0,219.3 M 262.6,202.5 L 220.7,203.2 M 223.0,278.6 L 220.8,261.6 M 203.9,263.8 L 206.1,280.8 M 220.8,261.6 L 203.9,263.8 M 206.1,280.8 L 223.0,278.6 M 91.2,212.7 L 99.4,194.4 M 81.1,186.2 L 72.9,204.6 M 99.4,194.4 L 81.1,186.2 M 72.9,204.6 L 91.2,212.7 M 138.9,20.0 L 127.2,20.0 M 127.2,20.0 L 122.4,131.3" fill="none" stroke="white" stroke-width="2" stroke-linecap="round"/>
  <polygon points="149.14654561482985,109.940756586409 157.14654561482985,117.940756586409 149.14654561482985,125.940756586409 141.14654561482985,117.940756586409" fill="#4a9eff" stroke="white" stroke-width="1"/>
<polygon points="278.67765413474325,237.6630830490658 286.67765413474325,245.6630830490658 278.67765413474325,253.6630830490658 270.67765413474325,245.6630830490658" fill="#4a9eff" stroke="white" stroke-width="1"/>
</svg>