<svg xmlns="http://www.w3.org/2000/svg" viewBox="0 0 400 400">
  <rect width="400" height="400" fill="#1a1a2e"/>
  <path d="M 181.8,300.4 L 173.9,296.7 L 160.2,291.8 Z M 181.8,300.4 L 160.2,291.8 L 181.8,380.0 Z M 181.8,380.0 L 160.2,291.8 L 146.5,296.7 Z M 181.8,380.0 L 146.5,296.7 L 138.5,380.0 Z M 146.5,296.7 L 138.5,300.4 L 138.5,380.0 Z M 181.2,210.8 L 211.0,181.0 L 160.2,160.0 Z M 181.2,210.8 L 160.2,160.0 L 139.1,210.8 Z M 139.1,210.8 L 160.2,160.0 L 109.4,139.0 Z M 139.1,210.8 L 109.4,139.0 L 109.4,181.0 Z M 173.7,51.0 L 146.7,51.0 L 140.5,64.9 Z M 173.7,51.0 L 140.5,64.9 L 179.9,64.9 Z M 179.9,64.9 L 140.5,64.9 L 136.6,79.0 Z M 179.9,64.9 L 136.6,79.0 L 183.7,79.0 Z M 183.7,79.0 L 136.6,79.0 L 135.1,99.7 Z M 183.7,79.0 L 135.1,99.7 L 185.3,99.7 Z M 220.7,135.1 L 220.7,185.3 L 241.3,183.7 Z M 220.7,135.1 L 241.3,183.7 L 241.3,136.6 Z M 241.3,136.6 L 241.3,183.7 L 255.5,179.9 Z M 241.3,136.6 L 255.5,179.9 L 255.5,140.5 Z M 255.5,140.5 L 255.5,179.9 L 269.4,173.7 Z M 255.5,140.5 L 269.4,173.7 L 269.4,146.7 Z M 185.3,220.7 L 135.1,220.7 L 136.6,241.3 Z M 185.3,220.7 L 136.6,241.3 L 183.7,241.3 Z M 183.7,241.3 L 136.6,241.3 L 140.5,255.5 Z M 183.7,241.3 L 140.5,255.5 L 179.9,255.5 Z M 179.9,255.5 L 140.5,255.5 L 146.7,269.4 Z M 179.9,255.5 L 146.7,269.4 L 173.7,269.4 Z M 99.7,185.3 L 99.7,135.1 L 79.0,136.6 Z M 99.7,185.3 L 79.0,136.6 L 79.0,183.7 Z M 79.0,183.7 L 79.0,136.6 L 64.9,140.5 Z M 79.0,183.7 L 64.9,140.5 L 64.9,179.9 Z M 64.9,179.9 L 64.9,140.5 L 51.0,146.7 Z M 64.9,179.9 L 51.0,146.7 L 51.0,173.7 Z M 139.1,109.2 L 109.4,139.0 L 160.2,160.0 Z M 139.1,109.2 L 160.2,160.0 L 181.2,109.2 Z M 181.2,109.2 L 160.2,160.0 L 211.0,181.0 Z M 181.2,109.2 L 211.0,181.0 L 211.0,139.0 Z M 269.4,173.7 L 286.7,160.2 L 269.4,146.7 Z M 146.7,269.4 L 160.2,286.7 L 173.7,269.4 Z M 51.0,146.7 L 33.7,160.2 L 51.0,173.7 Z M 173.7,51.0 L 160.2,33.7 L 146.7,51.0 Z M 177.6,28.4 L 176.1,50.3 L 182.4,64.1 Z M 177.6,28.4 L 182.4,64.1 L 200.6,52.9 Z M 200.6,52.9 L 182.4,64.1 L 186.1,78.4 Z M 200.6,52.9 L 186.1,78.4 L 200.6,88.4 Z M 144.3,50.3 L 142.8,28.4 L 119.8,52.9 Z M 144.3,50.3 L 119.8,52.9 L 138.0,64.1 Z M 138.0,64.1 L 119.8,52.9 L 119.8,88.4 Z M 138.0,64.1 L 119.8,88.4 L 134.2,78.4 Z M 242.0,186.1 L 232.0,200.6 L 267.4,200.6 Z M 242.0,186.1 L 267.4,200.6 L 256.3,182.4 Z M 256.3,182.4 L 267.4,200.6 L 291.9,177.6 Z M 256.3,182.4 L 291.9,177.6 L 270.0,176.1 Z M 270.0,144.3 L 291.9,142.8 L 267.4,119.8 Z M 270.0,144.3 L 267.4,119.8 L 256.3,138.0 Z M 256.3,138.0 L 267.4,119.8 L 232.0,119.8 Z M 256.3,138.0 L 232.0,119.8 L 242.0,134.2 Z M 134.2,242.0 L 119.8,232.0 L 119.8,267.4 Z M 134.2,242.0 L 119.8,267.4 L 138.0,256.3 Z M 138.0,256.3 L 119.8,267.4 L 146.5,296.7 Z M 138.0,256.3 L 146.5,296.7 L 144.3,270.0 Z M 200.6,232.0 L 186.1,242.0 L 182.4,256.3 Z M 200.6,232.0 L 182.4,256.3 L 200.6,267.4 Z M 200.6,267.4 L 182.4,256.3 L 176.1,270.0 Z M 200.6,267.4 L 176.1,270.0 L 173.9,296.7 Z M 28.4,142.8 L 50.3,144.3 L 64.1,138.0 Z M 28.4,142.8 L 64.1,138.0 L 52.9,119.8 Z M 52.9,119.8 L 64.1,138.0 L 78.4,134.2 Z M 52.9,119.8 L 78.4,134.2 L 88.4,119.8 Z M 88.4,200.6 L 78.4,186.1 L 64.1,182.4 Z M 88.4,200.6 L 64.1,182.4 L 52.9,200.6 Z M 52.9,200.6 L 64.1,182.4 L 50.3,176.1 Z M 52.9,200.6 L 50.3,176.1 L 28.4,177.6 Z M 267.4,119.8 L 200.6,52.9 L 200.6,88.4 Z M 267.4,119.8 L 200.6,88.4 L 232.0,119.8 Z M 232.0,119.8 L 200.6,88.4 L 187.7,102.0 Z M 232.0,119.8 L 187.7,102.0 L 218.3,132.7 Z M 119.8,52.9 L 52.9,119.8 L 88.4,119.8 Z M 119.8,52.9 L 88.4,119.8 L 119.8,88.4 Z M 119.8,88.4 L 88.4,119.8 L 102.0,132.7 Z M 119.8,88.4 L 102.0,132.7 L 132.7,102.0 Z M 186.1,78.4 L 187.7,102.0 L 200.6,88.4 Z M 134.2,78.4 L 119.8,88.4 L 132.7,102.0 Z M 242.0,186.1 L 218.3,187.7 L 232.0,200.6 Z M 291.9,177.6 L 291.8,160.2 L 270.0,176.1 Z M 242.0,134.2 L 232.0,119.8 L 218.3,132.7 Z M 291.9,142.8 L 270.0,144.3 L 291.8,160.2 Z M 134.2,242.0 L 132.7,218.3 L 119.8,232.0 Z M 146.5,296.7 L 160.2,291.8 L 144.3,270.0 Z M 186.1,242.0 L 200.6,232.0 L 187.7,218.3 Z M 173.9,296.7 L 176.1,270.0 L 160.2,291.8 Z M 78.4,134.2 L 102.0,132.7 L 88.4,119.8 Z M 28.4,142.8 L 28.6,160.2 L 50.3,144.3 Z M 78.4,186.1 L 88.4,200.6 L 102.0,187.7 Z M 28.4,177.6 L 50.3,176.1 L 28.6,160.2 Z M 177.6,28.4 L 160.2,28.6 L 176.1,50.3 Z M 142.8,28.4 L 144.3,50.3 L 160.2,28.6 Z M 181.8,20.0 L 177.6,28.4 L 200.6,52.9 Z M 181.8,20.0 L 200.6,52.9 L 210.2,49.3 Z M 210.2,49.3 L 200.6,52.9 L 267.4,119.8 Z M 210.2,49.3 L 267.4,119.8 L 271.1,110.2 Z M 271.1,110.2 L 267.4,119.8 L 291.9,142.8 Z M 271.1,110.2 L 291.9,142.8 L 300.4,138.5 Z M 142.8,28.4 L 138.5,20.0 L 110.2,49.3 Z M 142.8,28.4 L 110.2,49.3 L 119.8,52.9 Z M 119.8,52.9 L 110.2,49.3 L 49.3,110.2 Z M 119.8,52.9 L 49.3,110.2 L 52.9,119.8 Z M 52.9,119.8 L 49.3,110.2 L 20.0,138.5 Z M 52.9,119.8 L 20.0,138.5 L 28.4,142.8 Z M 99.7,185.3 L 102.0,187.7 L 107.6,193.3 Z M 99.7,185.3 L 107.6,193.3 L 109.4,181.0 Z M 109.4,181.0 L 107.6,193.3 L 126.8,212.3 Z M 109.4,181.0 L 126.8,212.3 L 139.1,210.8 Z M 139.1,210.8 L 126.8,212.3 L 132.7,218.3 Z M 139.1,210.8 L 132.7,218.3 L 135.1,220.7 Z M 185.3,220.7 L 187.7,218.3 L 193.3,212.7 Z M 185.3,220.7 L 193.3,212.7 L 181.2,210.8 Z M 181.2,210.8 L 193.3,212.7 L 212.3,193.6 Z M 181.2,210.8 L 212.3,193.6 L 211.0,181.0 Z M 211.0,181.0 L 212.3,193.6 L 218.3,187.7 Z M 211.0,181.0 L 218.3,187.7 L 220.7,185.3 Z M 185.3,99.7 L 187.7,102.0 L 186.1,78.4 Z M 185.3,99.7 L 186.1,78.4 L 183.7,79.0 Z M 183.7,79.0 L 186.1,78.4 L 182.4,64.1 Z M 183.7,79.0 L 182.4,64.1 L 179.9,64.9 Z M 179.9,64.9 L 182.4,64.1 L 176.1,50.3 Z M 179.9,64.9 L 176.1,50.3 L 173.7,51.0 Z M 173.7,51.0 L 176.1,50.3 L 160.2,28.6 Z M 173.7,51.0 L 160.2,28.6 L 160.2,33.7 Z M 160.2,33.7 L 160.2,28.6 L 144.3,50.3 Z M 160.2,33.7 L 144.3,50.3 L 146.7,51.0 Z M 146.7,51.0 L 144.3,50.3 L 138.0,64.1 Z M 146.7,51.0 L 138.0,64.1 L 140.5,64.9 Z M 140.5,64.9 L 138.0,64.1 L 134.2,78.4 Z M 140.5,64.9 L 134.2,78.4 L 136.6,79.0 Z M 136.6,79.0 L 134.2,78.4 L 132.7,102.0 Z M 136.6,79.0 L 132.7,102.0 L 135.1,99.7 Z M 232.0,200.6 L 229.7,210.2 L 271.1,210.2 Z M 232.0,200.6 L 271.1,210.2 L 267.4,200.6 Z M 267.4,200.6 L 271.1,210.2 L 300.4,181.8 Z M 267.4,200.6 L 300.4,181.8 L 291.9,177.6 Z M 220.7,185.3 L 218.3,187.7 L 242.0,186.1 Z M 220.7,185.3 L 242.0,186.1 L 241.3,183.7 Z M 241.3,183.7 L 242.0,186.1 L 256.3,182.4 Z M 241.3,183.7 L 256.3,182.4 L 255.5,179.9 Z M 255.5,179.9 L 256.3,182.4 L 270.0,176.1 Z M 255.5,179.9 L 270.0,176.1 L 269.4,173.7 Z M 269.4,173.7 L 270.0,176.1 L 291.8,160.2 Z M 269.4,173.7 L 291.8,160.2 L 286.7,160.2 Z M 286.7,160.2 L 291.8,160.2 L 270.0,144.3 Z M 286.7,160.2 L 270.0,144.3 L 269.4,146.7 Z M 269.4,146.7 L 270.0,144.3 L 256.3,138.0 Z M 269.4,146.7 L 256.3,138.0 L 255.5,140.5 Z M 255.5,140.5 L 256.3,138.0 L 242.0,134.2 Z M 255.5,140.5 L 242.0,134.2 L 241.3,136.6 Z M 241.3,136.6 L 242.0,134.2 L 218.3,132.7 Z M 241.3,136.6 L 218.3,132.7 L 220.7,135.1 Z M 135.1,220.7 L 132.7,218.3 L 134.2,242.0 Z M 135.1,220.7 L 134.2,242.0 L 136.6,241.3 Z M 136.6,241.3 L 134.2,242.0 L 138.0,256.3 Z M 136.6,241.3 L 138.0,256.3 L 140.5,255.5 Z M 140.5,255.5 L 138.0,256.3 L 144.3,270.0 Z M 140.5,255.5 L 144.3,270.0 L 146.7,269.4 Z M 146.7,269.4 L 144.3,270.0 L 160.2,291.8 Z M 146.7,269.4 L 160.2,291.8 L 160.2,286.7 Z M 160.2,286.7 L 160.2,291.8 L 176.1,270.0 Z M 160.2,286.7 L 176.1,270.0 L 173.7,269.4 Z M 173.7,269.4 L 176.1,270.0 L 182.4,256.3 Z M 173.7,269.4 L 182.4,256.3 L 179.9,255.5 Z M 179.9,255.5 L 182.4,256.3 L 186.1,242.0 Z M 179.9,255.5 L 186.1,242.0 L 183.7,241.3 Z M 183.7,241.3 L 186.1,242.0 L 187.7,218.3 Z M 183.7,241.3 L 187.7,218.3 L 185.3,220.7 Z M 99.7,135.1 L 102.0,132.7 L 78.4,134.2 Z M 99.7,135.1 L 78.4,134.2 L 79.0,136.6 Z M 79.0,136.6 L 78.4,134.2 L 64.1,138.0 Z M 79.0,136.6 L 64.1,138.0 L 64.9,140.5 Z M 64.9,140.5 L 64.1,138.0 L 50.3,144.3 Z M 64.9,140.5 L 50.3,144.3 L 51.0,146.7 Z M 51.0,146.7 L 50.3,144.3 L 28.6,160.2 Z M 51.0,146.7 L 28.6,160.2 L 33.7,160.2 Z M 33.7,160.2 L 28.6,160.2 L 50.3,176.1 Z M 33.7,160.2 L 50.3,176.1 L 51.0,173.7 Z M 51.0,173.7 L 50.3,176.1 L 64.1,182.4 Z M 51.0,173.7 L 64.1,182.4 L 64.9,179.9 Z M 64.9,179.9 L 64.1,182.4 L 78.4,186.1 Z M 64.9,179.9 L 78.4,186.1 L 79.0,183.7 Z M 79.0,183.7 L 78.4,186.1 L 102.0,187.7 Z M 79.0,183.7 L 102.0,187.7 L 99.7,185.3 Z M 90.7,210.2 L 88.4,200.6 L 52.9,200.6 Z M 90.7,210.2 L 52.9,200.6 L 49.3,210.2 Z M 49.3,210.2 L 52.9,200.6 L 28.4,177.6 Z M 49.3,210.2 L 28.4,177.6 L 20.0,181.8 Z M 135.1,220.7 L 185.3,220.7 L 181.2,210.8 Z M 135.1,220.7 L 181.2,210.8 L 139.1,210.8 Z M 220.7,185.3 L 220.7,135.1 L 211.0,139.0 Z M 220.7,185.3 L 211.0,139.0 L 211.0,181.0 Z M 139.1,109.2 L 181.2,109.2 L 185.3,99.7 Z M 139.1,109.2 L 185.3,99.7 L 135.1,99.7 Z M 99.7,135.1 L 99.7,185.3 L 109.4,181.0 Z M 99.7,135.1 L 109.4,181.0 L 109.4,139.0 Z M 229.7,210.2 L 232.0,200.6 L 218.3,187.7 Z M 229.7,210.2 L 218.3,187.7 L 212.3,193.6 Z M 300.4,181.8 L 300.4,138.5 L 291.9,142.8 Z M 300.4,181.8 L 291.9,142.8 L 291.8,160.2 Z M 110.2,229.7 L 119.8,232.0 L 132.7,218.3 Z M 110.2,229.7 L 132.7,218.3 L 126.8,212.3 Z M 110.2,271.1 L 119.8,267.4 L 119.8,232.0 Z M 110.2,271.1 L 119.8,232.0 L 110.2,229.7 Z M 138.5,300.4 L 146.5,296.7 L 119.8,267.4 Z M 138.5,300.4 L 119.8,267.4 L 110.2,271.1 Z M 200.6,232.0 L 200.6,267.4 L 210.2,271.1 Z M 200.6,232.0 L 210.2,271.1 L 210.2,229.7 Z M 200.6,267.4 L 173.9,296.7 L 181.8,300.4 Z M 200.6,267.4 L 181.8,300.4 L 210.2,271.1 Z M 187.7,218.3 L 200.6,232.0 L 210.2,229.7 Z M 187.7,218.3 L 210.2,229.7 L 193.3,212.7 Z M 20.0,138.5 L 20.0,181.8 L 28.4,177.6 Z M 20.0,138.5 L 28.4,177.6 L 28.6,160.2 Z M 102.0,187.7 L 88.4,200.6 L 90.7,210.2 Z M 102.0,187.7 L 90.7,210.2 L 107.6,193.3 Z M 181.8,20.0 L 138.5,20.0 L 142.8,28.4 Z M 181.8,20.0 L 142.8,28.4 L 160.2,28.6 Z M 187.7,102.0 L 181.2,109.2 L 211.0,139.0 Z M 187.7,102.0 L 211.0,139.0 L 218.3,132.7 Z M 109.4,139.0 L 139.1,109.2 L 132.7,102.0 Z M 109.4,139.0 L 132.7,102.0 L 102.0,132.7 Z M 139.1,109.2 L 135.1,99.7 L 132.7,102.0 Z M 211.0,139.0 L 220.7,135.1 L 218.3,132.7 Z M 291.8,160.2 L 291.9,177.6 L 300.4,181.8 Z M 28.6,160.2 L 28.4,142.8 L 20.0,138.5 Z M 160.2,28.6 L 177.6,28.4 L 181.8,20.0 Z M 187.7,102.0 L 185.3,99.7 L 181.2,109.2 Z M 102.0,132.7 L 99.7,135.1 L 109.4,139.0 Z" fill="#2a2a4e" stroke="none"/>
  <path d="M 181.8,380.0 L 181.8,300.4 M 138.5,380.0 L 181.8,380.0 M 138.5,300.4 L 138.5,380.0 M 210.2,49.3 L 181.8,20.0 M 271.1,110.2 L 210.2,49.3 M 300.4,138.5 L 271.1,110.2 M 138.5,20.0 L 110.2,49.3 M 110.2,49.3 L 49.3,110.2 M 49.3,110.2 L 20.0,138.5 M 107.6,193.3 L 126.8,212.3 M 193.3,212.7 L 212.3,193.6 M 229.7,210.2 L 271.1,210.2 M 271.1,210.2 L 300.4,181.8 M 49.3,210.2 L 90.7,210.2 M 20.0,181.8 L 49.3,210.2 M 212.3,193.6 L 229.7,210.2 M 300.4,181.8 L 300.4,138.5 M 126.8,212.3 L 110.2,229.7 M 110.2,229.7 L 110.2,271.1 M 110.2,271.1 L 138.5,300.4 M 210.2,271.1 L 210.2,229.7 M 181.8,300.4 L 210.2,271.1 M 210.2,229.7 L 193.3,212.7 M 20.0,138.5 L 20.0,181.8 M 90.7,210.2 L 107.6,193.3 M 181.8,20.0 L 138.5,20.0" fill="none" stroke="white" stroke-width="2" stroke-linecap="round"/>
  <polygon points="160.59604924843975,295.11536855662433 168.59604924843975,303.11536855662433 160.59604924843975,311.11536855662433 152.59604924843975,303.11536855662433" fill="#4a9eff" stroke="white" stroke-width="1"/>
</svg>