<svg xmlns="http://www.w3.org/2000/svg" viewBox="0 0 400 400">
  <rect width="400" height="400" fill="#1a1a2e"/>
  <path d="M 183.2,200.9 L 202.3,219.9 L 219.9,202.5 Z M 183.2,200.9 L 219.9,202.5 L 200.8,183.6 Z M 219.9,115.2 L 202.3,97.9 L 183.2,116.8 Z M 219.9,115.2 L 183.2,116.8 L 200.8,134.1 Z M 172.1,376.5 L 172.8,291.7 L 145.0,291.7 Z M 172.1,376.5 L 145.0,291.7 L 145.1,376.5 Z M 134.4,116.8 L 115.3,97.9 L 97.7,115.2 Z M 134.4,116.8 L 97.7,115.2 L 116.8,134.1 Z M 97.7,202.5 L 115.3,219.9 L 134.4,200.9 Z M 97.7,202.5 L 134.4,200.9 L 116.8,183.6 Z M 207.2,150.8 L 191.3,137.4 L 191.3,180.3 Z M 207.2,150.8 L 191.3,180.3 L 207.2,193.7 Z M 207.2,193.7 L 191.3,180.3 L 180.2,191.5 Z M 207.2,193.7 L 180.2,191.5 L 196.0,204.8 Z M 108.3,119.4 L 94.6,105.7 L 51.7,105.7 Z M 108.3,119.4 L 51.7,105.7 L 65.5,119.4 Z M 65.5,119.4 L 51.7,105.7 L 20.0,137.4 Z M 65.5,119.4 L 20.0,137.4 L 33.7,151.2 Z M 33.7,151.2 L 20.0,137.4 L 20.0,180.3 Z M 33.7,151.2 L 20.0,180.3 L 33.7,194.0 Z M 196.0,204.8 L 180.2,191.5 L 137.4,191.5 Z M 196.0,204.8 L 137.4,191.5 L 153.2,204.8 Z M 148.4,380.0 L 148.4,303.9 L 138.0,297.4 Z M 148.4,380.0 L 138.0,297.4 L 138.0,375.9 Z M 223.0,105.7 L 236.8,119.4 L 279.6,119.4 Z M 223.0,105.7 L 279.6,119.4 L 265.9,105.7 Z M 119.4,108.3 L 119.3,65.4 L 105.6,51.7 Z M 119.4,108.3 L 105.6,51.7 L 105.7,94.6 Z M 151.0,33.7 L 193.9,33.7 L 180.2,20.0 Z M 151.0,33.7 L 180.2,20.0 L 137.3,20.0 Z M 119.3,65.4 L 151.0,33.7 L 137.3,20.0 Z M 119.3,65.4 L 137.3,20.0 L 105.6,51.7 Z M 105.7,94.6 L 94.6,105.7 L 108.3,119.4 Z M 105.7,94.6 L 108.3,119.4 L 119.4,108.3 Z M 202.3,219.9 L 183.2,200.9 L 134.4,200.9 Z M 202.3,219.9 L 134.4,200.9 L 158.8,244.6 Z M 158.8,244.6 L 134.4,200.9 L 115.3,219.9 Z M 158.8,244.6 L 115.3,219.9 L 115.1,262.2 Z M 219.9,115.2 L 200.8,134.1 L 244.5,158.7 Z M 219.9,115.2 L 244.5,158.7 L 261.8,115.2 Z M 261.8,115.2 L 244.5,158.7 L 288.1,176.4 Z M 261.8,115.2 L 288.1,176.4 L 288.0,141.4 Z M 141.3,29.5 L 115.1,55.6 L 115.3,97.9 Z M 141.3,29.5 L 115.3,97.9 L 159.2,69.8 Z M 159.2,69.8 L 115.3,97.9 L 134.4,116.8 Z M 159.2,69.8 L 134.4,116.8 L 183.2,116.8 Z M 115.1,262.2 L 145.0,291.7 L 172.8,291.7 Z M 115.1,262.2 L 172.8,291.7 L 158.8,244.6 Z M 158.8,244.6 L 172.8,291.7 L 202.4,262.0 Z M 158.8,244.6 L 202.4,262.0 L 202.3,219.9 Z M 262.0,202.5 L 288.1,176.4 L 244.5,158.7 Z M 262.0,202.5 L 244.5,158.7 L 219.9,202.5 Z M 219.9,202.5 L 244.5,158.7 L 200.8,134.1 Z M 219.9,202.5 L 200.8,134.1 L 200.8,183.6 Z M 183.2,116.8 L 202.3,97.9 L 202.4,55.8 Z M 183.2,116.8 L 202.4,55.8 L 159.2,69.8 Z M 159.2,69.8 L 202.4,55.8 L 176.3,29.6 Z M 159.2,69.8 L 176.3,29.6 L 141.3,29.5 Z M 97.7,202.5 L 116.8,183.6 L 73.1,159.0 Z M 97.7,202.5 L 73.1,159.0 L 55.8,202.5 Z M 55.8,202.5 L 73.1,159.0 L 29.5,141.4 Z M 55.8,202.5 L 29.5,141.4 L 29.6,176.4 Z M 55.6,115.3 L 29.5,141.4 L 73.1,159.0 Z M 55.6,115.3 L 73.1,159.0 L 97.7,115.2 Z M 97.7,115.2 L 73.1,159.0 L 116.8,183.6 Z M 97.7,115.2 L 116.8,183.6 L 116.8,134.1 Z M 262.0,202.5 L 265.9,212.0 L 297.6,180.3 Z M 262.0,202.5 L 297.6,180.3 L 288.1,176.4 Z M 288.1,176.4 L 297.6,180.3 L 297.6,137.4 Z M 288.1,176.4 L 297.6,137.4 L 288.0,141.4 Z M 288.0,141.4 L 297.6,137.4 L 265.9,105.7 Z M 288.0,141.4 L 265.9,105.7 L 261.8,115.2 Z M 55.6,115.3 L 51.7,105.7 L 20.0,137.4 Z M 55.6,115.3 L 20.0,137.4 L 29.5,141.4 Z M 29.5,141.4 L 20.0,137.4 L 20.0,180.3 Z M 29.5,141.4 L 20.0,180.3 L 29.6,176.4 Z M 29.6,176.4 L 20.0,180.3 L 51.7,212.0 Z M 29.6,176.4 L 51.7,212.0 L 55.8,202.5 Z M 145.0,291.7 L 115.1,262.2 L 105.6,266.0 Z M 145.0,291.7 L 105.6,266.0 L 137.3,297.7 Z M 202.4,262.0 L 172.8,291.7 L 180.2,297.7 Z M 202.4,262.0 L 180.2,297.7 L 211.9,266.0 Z M 115.1,262.2 L 115.3,219.9 L 105.7,223.2 Z M 115.1,262.2 L 105.7,223.2 L 105.6,266.0 Z M 134.4,200.9 L 183.2,200.9 L 180.2,191.5 Z M 134.4,200.9 L 180.2,191.5 L 137.4,191.5 Z M 202.3,219.9 L 202.4,262.0 L 211.9,266.0 Z M 202.3,219.9 L 211.9,266.0 L 211.9,223.2 Z M 223.0,212.0 L 219.9,202.5 L 202.3,219.9 Z M 223.0,212.0 L 202.3,219.9 L 211.9,223.2 Z M 200.8,183.6 L 200.8,134.1 L 191.3,137.4 Z M 200.8,183.6 L 191.3,137.4 L 191.3,180.3 Z M 219.9,115.2 L 261.8,115.2 L 265.9,105.7 Z M 219.9,115.2 L 265.9,105.7 L 223.0,105.7 Z M 262.0,202.5 L 219.9,202.5 L 223.0,212.0 Z M 262.0,202.5 L 223.0,212.0 L 265.9,212.0 Z M 191.3,180.3 L 180.2,191.5 L 183.2,200.9 Z M 191.3,180.3 L 183.2,200.9 L 200.8,183.6 Z M 105.6,51.7 L 115.1,55.6 L 141.3,29.5 Z M 105.6,51.7 L 141.3,29.5 L 137.3,20.0 Z M 180.2,20.0 L 176.3,29.6 L 202.4,55.8 Z M 180.2,20.0 L 202.4,55.8 L 211.9,51.7 Z M 105.7,94.6 L 115.3,97.9 L 115.1,55.6 Z M 105.7,94.6 L 115.1,55.6 L 105.6,51.7 Z M 180.2,126.3 L 183.2,116.8 L 134.4,116.8 Z M 180.2,126.3 L 134.4,116.8 L 137.4,126.3 Z M 211.9,51.7 L 202.4,55.8 L 202.3,97.9 Z M 211.9,51.7 L 202.3,97.9 L 211.9,94.6 Z M 137.3,20.0 L 141.3,29.5 L 176.3,29.6 Z M 137.3,20.0 L 176.3,29.6 L 180.2,20.0 Z M 202.3,97.9 L 219.9,115.2 L 223.0,105.7 Z M 202.3,97.9 L 223.0,105.7 L 211.9,94.6 Z M 183.2,116.8 L 180.2,126.3 L 191.3,137.4 Z M 183.2,116.8 L 191.3,137.4 L 200.8,134.1 Z M 180.2,297.7 L 172.8,291.7 L 172.1,376.5 Z M 180.2,297.7 L 172.1,376.5 L 180.2,376.5 Z M 137.4,376.5 L 145.1,376.5 L 145.0,291.7 Z M 137.4,376.5 L 145.0,291.7 L 137.3,297.7 Z M 94.6,105.7 L 97.7,115.2 L 115.3,97.9 Z M 94.6,105.7 L 115.3,97.9 L 105.7,94.6 Z M 116.8,134.1 L 116.8,183.6 L 126.3,180.3 Z M 116.8,134.1 L 126.3,180.3 L 126.3,137.4 Z M 97.7,202.5 L 55.8,202.5 L 51.7,212.0 Z M 97.7,202.5 L 51.7,212.0 L 94.6,212.0 Z M 55.6,115.3 L 97.7,115.2 L 94.6,105.7 Z M 55.6,115.3 L 94.6,105.7 L 51.7,105.7 Z M 126.3,137.4 L 137.4,126.3 L 134.4,116.8 Z M 126.3,137.4 L 134.4,116.8 L 116.8,134.1 Z M 115.3,219.9 L 97.7,202.5 L 94.6,212.0 Z M 115.3,219.9 L 94.6,212.0 L 105.7,223.2 Z M 134.4,200.9 L 137.4,191.5 L 126.3,180.3 Z M 134.4,200.9 L 126.3,180.3 L 116.8,183.6 Z" fill="#2a2a4e" stroke="none"/>
  <path d="M 145.1,376.5 L 172.1,376.5 M 207.2,150.8 L 191.3,137.4 M 207.2,193.7 L 207.2,150.8 M 196.0,204.8 L 207.2,193.7 M 65.5,119.4 L 108.3,119.4 M 33.7,151.2 L 65.5,119.4 M 20.0,180.3 L 33.7,194.0 M 33.7,194.0 L 33.7,151.2 M 137.4,191.5 L 153.2,204.8 M 153.2,204.8 L 196.0,204.8 M 148.4,380.0 L 148.4,303.9 M 148.4,303.9 L 138.0,297.4 M 138.0,297.4 L 138.0,375.9 M 138.0,375.9 L 148.4,380.0 M 223.0,105.7 L 236.8,119.4 M 236.8,119.4 L 279.6,119.4 M 279.6,119.4 L 265.9,105.7 M 119.4,108.3 L 119.3,65.4 M 151.0,33.7 L 193.9,33.7 M 193.9,33.7 L 180.2,20.0 M 119.3,65.4 L 151.0,33.7 M 108.3,119.4 L 119.4,108.3 M 265.9,212.0 L 297.6,180.3 M 297.6,180.3 L 297.6,137.4 M 297.6,137.4 L 265.9,105.7 M 20.0,180.3 L 51.7,212.0 M 105.6,266.0 L 137.3,297.7 M 180.2,297.7 L 211.9,266.0 M 105.7,223.2 L 105.6,266.0 M 211.9,266.0 L 211.9,223.2 M 211.9,223.2 L 223.0,212.0 M 223.0,212.0 L 265.9,212.0 M 211.9,51.7 L 180.2,20.0 M 137.4,126.3 L 180.2,126.3 M 211.9,94.6 L 211.9,51.7 M 223.0,105.7 L 211.9,94.6 M 180.2,126.3 L 191.3,137.4 M 172.1,376.5 L 180.2,376.5 M 180.2,376.5 L 180.2,297.7 M 137.4,376.5 L 145.1,376.5 M 137.3,297.7 L 137.4,376.5 M 126.3,180.3 L 126.3,137.4 M 51.7,212.0 L 94.6,212.0 M 126.3,137.4 L 137.4,126.3 M 94.6,212.0 L 105.7,223.2 M 137.4,191.5 L 126.3,180.3" fill="none" stroke="white" stroke-width="2" stroke-linecap="round"/>
  <polygon points="158.50210724778125,292.4896094392711 166.50210724778125,300.4896094392711 158.50210724778125,308.4896094392711 150.50210724778125,300.4896094392711" fill="#4a9eff" stroke="white" stroke-width="1"/>
</svg>