<svg xmlns="http://www.w3.org/2000/svg" viewBox="0 0 400 400">
  <rect width="400" height="400" fill="#1a1a2e"/>
  <path d="M 173.9,103.4 L 181.8,99.6 L 181.8,20.0 Z M 173.9,103.4 L 181.8,20.0 L 160.2,108.2 Z M 160.2,108.2 L 181.8,20.0 L 138.5,20.0 Z M 160.2,108.2 L 138.5,20.0 L 146.5,103.4 Z M 300.4,218.2 L 296.7,226.1 L 291.8,239.8 Z M 300.4,218.2 L 291.8,239.8 L 380.0,218.2 Z M 380.0,218.2 L 291.8,239.8 L 296.7,253.5 Z M 380.0,218.2 L 296.7,253.5 L 380.0,261.5 Z M 138.5,20.0 L 138.5,99.6 L 146.5,103.4 Z M 296.7,253.5 L 300.4,261.5 L 380.0,261.5 Z M 181.2,290.4 L 211.0,260.7 L 160.2,239.6 Z M 181.2,290.4 L 160.2,239.6 L 139.1,290.4 Z M 139.1,290.4 L 160.2,239.6 L 109.4,218.6 Z M 139.1,290.4 L 109.4,218.6 L 109.4,260.7 Z M 173.7,130.6 L 146.7,130.6 L 140.5,144.5 Z M 173.7,130.6 L 140.5,144.5 L 179.9,144.5 Z M 179.9,144.5 L 140.5,144.5 L 136.6,158.7 Z M 179.9,144.5 L 136.6,158.7 L 183.7,158.7 Z M 183.7,158.7 L 136.6,158.7 L 135.1,179.3 Z M 183.7,158.7 L 135.1,179.3 L 185.3,179.3 Z M 220.7,214.7 L 220.7,264.9 L 241.3,263.4 Z M 220.7,214.7 L 241.3,263.4 L 241.3,216.3 Z M 241.3,216.3 L 241.3,263.4 L 255.5,259.5 Z M 241.3,216.3 L 255.5,259.5 L 255.5,220.1 Z M 255.5,220.1 L 255.5,259.5 L 269.4,253.3 Z M 255.5,220.1 L 269.4,253.3 L 269.4,226.3 Z M 185.3,300.3 L 135.1,300.3 L 136.6,321.0 Z M 185.3,300.3 L 136.6,321.0 L 183.7,321.0 Z M 183.7,321.0 L 136.6,321.0 L 140.5,335.1 Z M 183.7,321.0 L 140.5,335.1 L 179.9,335.1 Z M 179.9,335.1 L 140.5,335.1 L 146.7,349.0 Z M 179.9,335.1 L 146.7,349.0 L 173.7,349.0 Z M 99.7,264.9 L 99.7,214.7 L 79.0,216.3 Z M 99.7,264.9 L 79.0,216.3 L 79.0,263.4 Z M 79.0,263.4 L 79.0,216.3 L 64.9,220.1 Z M 79.0,263.4 L 64.9,220.1 L 64.9,259.5 Z M 64.9,259.5 L 64.9,220.1 L 51.0,226.3 Z M 64.9,259.5 L 51.0,226.3 L 51.0,253.3 Z M 139.1,188.8 L 109.4,218.6 L 160.2,239.6 Z M 139.1,188.8 L 160.2,239.6 L 181.2,188.8 Z M 181.2,188.8 L 160.2,239.6 L 211.0,260.7 Z M 181.2,188.8 L 211.0,260.7 L 211.0,218.6 Z M 51.0,226.3 L 33.7,239.8 L 51.0,253.3 Z M 173.7,130.6 L 160.2,113.3 L 146.7,130.6 Z M 269.4,253.3 L 286.7,239.8 L 269.4,226.3 Z M 146.7,349.0 L 160.2,366.3 L 173.7,349.0 Z M 78.4,213.9 L 88.4,199.4 L 52.9,199.4 Z M 78.4,213.9 L 52.9,199.4 L 64.1,217.6 Z M 64.1,217.6 L 52.9,199.4 L 28.4,222.4 Z M 64.1,217.6 L 28.4,222.4 L 50.3,223.9 Z M 88.4,280.2 L 78.4,265.8 L 64.1,262.0 Z M 88.4,280.2 L 64.1,262.0 L 52.9,280.2 Z M 52.9,280.2 L 64.1,262.0 L 50.3,255.7 Z M 52.9,280.2 L 50.3,255.7 L 28.4,257.2 Z M 182.4,143.7 L 200.6,132.6 L 173.9,103.4 Z M 182.4,143.7 L 173.9,103.4 L 176.1,130.0 Z M 146.5,103.4 L 119.8,132.6 L 138.0,143.7 Z M 146.5,103.4 L 138.0,143.7 L 144.3,130.0 Z M 200.6,168.0 L 200.6,132.6 L 182.4,143.7 Z M 200.6,168.0 L 182.4,143.7 L 186.1,158.0 Z M 138.0,143.7 L 119.8,132.6 L 119.8,168.0 Z M 138.0,143.7 L 119.8,168.0 L 134.2,158.0 Z M 232.0,280.2 L 267.4,280.2 L 256.3,262.0 Z M 232.0,280.2 L 256.3,262.0 L 242.0,265.8 Z M 256.3,217.6 L 267.4,199.4 L 232.0,199.4 Z M 256.3,217.6 L 232.0,199.4 L 242.0,213.9 Z M 119.8,311.6 L 119.8,347.1 L 138.0,335.9 Z M 119.8,311.6 L 138.0,335.9 L 134.2,321.6 Z M 182.4,335.9 L 200.6,347.1 L 200.6,311.6 Z M 182.4,335.9 L 200.6,311.6 L 186.1,321.6 Z M 256.3,262.0 L 267.4,280.2 L 296.7,253.5 Z M 256.3,262.0 L 296.7,253.5 L 270.0,255.7 Z M 296.7,226.1 L 267.4,199.4 L 256.3,217.6 Z M 296.7,226.1 L 256.3,217.6 L 270.0,223.9 Z M 138.0,335.9 L 119.8,347.1 L 142.8,371.6 Z M 138.0,335.9 L 142.8,371.6 L 144.3,349.7 Z M 177.6,371.6 L 200.6,347.1 L 182.4,335.9 Z M 177.6,371.6 L 182.4,335.9 L 176.1,349.7 Z M 173.9,103.4 L 160.2,108.2 L 176.1,130.0 Z M 186.1,158.0 L 187.7,181.7 L 200.6,168.0 Z M 134.2,158.0 L 119.8,168.0 L 132.7,181.7 Z M 242.0,265.8 L 218.3,267.3 L 232.0,280.2 Z M 242.0,213.9 L 232.0,199.4 L 218.3,212.3 Z M 134.2,321.6 L 132.7,298.0 L 119.8,311.6 Z M 186.1,321.6 L 200.6,311.6 L 187.7,298.0 Z M 78.4,213.9 L 102.0,212.3 L 88.4,199.4 Z M 28.4,222.4 L 28.6,239.8 L 50.3,223.9 Z M 78.4,265.8 L 88.4,280.2 L 102.0,267.3 Z M 28.4,257.2 L 50.3,255.7 L 28.6,239.8 Z M 144.3,130.0 L 160.2,108.2 L 146.5,103.4 Z M 296.7,253.5 L 291.8,239.8 L 270.0,255.7 Z M 296.7,226.1 L 270.0,223.9 L 291.8,239.8 Z M 142.8,371.6 L 160.2,371.4 L 144.3,349.7 Z M 177.6,371.6 L 176.1,349.7 L 160.2,371.4 Z M 99.7,264.9 L 102.0,267.3 L 107.6,272.9 Z M 99.7,264.9 L 107.6,272.9 L 109.4,260.7 Z M 109.4,260.7 L 107.6,272.9 L 126.8,291.9 Z M 109.4,260.7 L 126.8,291.9 L 139.1,290.4 Z M 139.1,290.4 L 126.8,291.9 L 132.7,298.0 Z M 139.1,290.4 L 132.7,298.0 L 135.1,300.3 Z M 185.3,300.3 L 187.7,298.0 L 193.3,292.4 Z M 185.3,300.3 L 193.3,292.4 L 181.2,290.4 Z M 181.2,290.4 L 193.3,292.4 L 212.3,273.2 Z M 181.2,290.4 L 212.3,273.2 L 211.0,260.7 Z M 211.0,260.7 L 212.3,273.2 L 218.3,267.3 Z M 211.0,260.7 L 218.3,267.3 L 220.7,264.9 Z M 135.1,179.3 L 132.7,181.7 L 127.1,187.3 Z M 135.1,179.3 L 127.1,187.3 L 139.1,188.8 Z M 139.1,188.8 L 127.1,187.3 L 108.1,206.4 Z M 139.1,188.8 L 108.1,206.4 L 109.4,218.6 Z M 109.4,218.6 L 108.1,206.4 L 102.0,212.3 Z M 109.4,218.6 L 102.0,212.3 L 99.7,214.7 Z M 187.7,181.7 L 185.3,179.3 L 181.2,188.8 Z M 187.7,181.7 L 181.2,188.8 L 193.6,187.7 Z M 193.6,187.7 L 181.2,188.8 L 211.0,218.6 Z M 193.6,187.7 L 211.0,218.6 L 212.7,206.7 Z M 212.7,206.7 L 211.0,218.6 L 220.7,214.7 Z M 212.7,206.7 L 220.7,214.7 L 218.3,212.3 Z M 185.3,179.3 L 187.7,181.7 L 186.1,158.0 Z M 185.3,179.3 L 186.1,158.0 L 183.7,158.7 Z M 183.7,158.7 L 186.1,158.0 L 182.4,143.7 Z M 183.7,158.7 L 182.4,143.7 L 179.9,144.5 Z M 179.9,144.5 L 182.4,143.7 L 176.1,130.0 Z M 179.9,144.5 L 176.1,130.0 L 173.7,130.6 Z M 173.7,130.6 L 176.1,130.0 L 160.2,108.2 Z M 173.7,130.6 L 160.2,108.2 L 160.2,113.3 Z M 160.2,113.3 L 160.2,108.2 L 144.3,130.0 Z M 160.2,113.3 L 144.3,130.0 L 146.7,130.6 Z M 146.7,130.6 L 144.3,130.0 L 138.0,143.7 Z M 146.7,130.6 L 138.0,143.7 L 140.5,144.5 Z M 140.5,144.5 L 138.0,143.7 L 134.2,158.0 Z M 140.5,144.5 L 134.2,158.0 L 136.6,158.7 Z M 136.6,158.7 L 134.2,158.0 L 132.7,181.7 Z M 136.6,158.7 L 132.7,181.7 L 135.1,179.3 Z M 256.3,262.0 L 255.5,259.5 L 241.3,263.4 Z M 256.3,262.0 L 241.3,263.4 L 242.0,265.8 Z M 242.0,265.8 L 241.3,263.4 L 220.7,264.9 Z M 242.0,265.8 L 220.7,264.9 L 218.3,267.3 Z M 255.5,220.1 L 256.3,217.6 L 242.0,213.9 Z M 255.5,220.1 L 242.0,213.9 L 241.3,216.3 Z M 241.3,216.3 L 242.0,213.9 L 218.3,212.3 Z M 241.3,216.3 L 218.3,212.3 L 220.7,214.7 Z M 119.8,311.6 L 110.2,309.3 L 110.2,350.7 Z M 119.8,311.6 L 110.2,350.7 L 119.8,347.1 Z M 119.8,347.1 L 110.2,350.7 L 138.5,380.0 Z M 119.8,347.1 L 138.5,380.0 L 142.8,371.6 Z M 138.0,335.9 L 140.5,335.1 L 136.6,321.0 Z M 138.0,335.9 L 136.6,321.0 L 134.2,321.6 Z M 134.2,321.6 L 136.6,321.0 L 135.1,300.3 Z M 134.2,321.6 L 135.1,300.3 L 132.7,298.0 Z M 210.2,309.3 L 200.6,311.6 L 200.6,347.1 Z M 210.2,309.3 L 200.6,347.1 L 210.2,350.7 Z M 210.2,350.7 L 200.6,347.1 L 177.6,371.6 Z M 210.2,350.7 L 177.6,371.6 L 181.8,380.0 Z M 179.9,335.1 L 182.4,335.9 L 186.1,321.6 Z M 179.9,335.1 L 186.1,321.6 L 183.7,321.0 Z M 183.7,321.0 L 186.1,321.6 L 187.7,298.0 Z M 183.7,321.0 L 187.7,298.0 L 185.3,300.3 Z M 88.4,199.4 L 90.7,189.8 L 49.3,189.8 Z M 88.4,199.4 L 49.3,189.8 L 52.9,199.4 Z M 52.9,199.4 L 49.3,189.8 L 20.0,218.2 Z M 52.9,199.4 L 20.0,218.2 L 28.4,222.4 Z M 99.7,214.7 L 102.0,212.3 L 78.4,213.9 Z M 99.7,214.7 L 78.4,213.9 L 79.0,216.3 Z M 79.0,216.3 L 78.4,213.9 L 64.1,217.6 Z M 79.0,216.3 L 64.1,217.6 L 64.9,220.1 Z M 64.9,220.1 L 64.1,217.6 L 50.3,223.9 Z M 64.9,220.1 L 50.3,223.9 L 51.0,226.3 Z M 51.0,226.3 L 50.3,223.9 L 28.6,239.8 Z M 51.0,226.3 L 28.6,239.8 L 33.7,239.8 Z M 33.7,239.8 L 28.6,239.8 L 50.3,255.7 Z M 33.7,239.8 L 50.3,255.7 L 51.0,253.3 Z M 51.0,253.3 L 50.3,255.7 L 64.1,262.0 Z M 51.0,253.3 L 64.1,262.0 L 64.9,259.5 Z M 64.9,259.5 L 64.1,262.0 L 78.4,265.8 Z M 64.9,259.5 L 78.4,265.8 L 79.0,263.4 Z M 79.0,263.4 L 78.4,265.8 L 102.0,267.3 Z M 79.0,263.4 L 102.0,267.3 L 99.7,264.9 Z M 90.7,289.8 L 88.4,280.2 L 52.9,280.2 Z M 90.7,289.8 L 52.9,280.2 L 49.3,289.8 Z M 49.3,289.8 L 52.9,280.2 L 28.4,257.2 Z M 49.3,289.8 L 28.4,257.2 L 20.0,261.5 Z M 255.5,259.5 L 256.3,262.0 L 270.0,255.7 Z M 255.5,259.5 L 270.0,255.7 L 269.4,253.3 Z M 269.4,253.3 L 270.0,255.7 L 291.8,239.8 Z M 269.4,253.3 L 291.8,239.8 L 286.7,239.8 Z M 286.7,239.8 L 291.8,239.8 L 270.0,223.9 Z M 286.7,239.8 L 270.0,223.9 L 269.4,226.3 Z M 269.4,226.3 L 270.0,223.9 L 256.3,217.6 Z M 269.4,226.3 L 256.3,217.6 L 255.5,220.1 Z M 140.5,335.1 L 138.0,335.9 L 144.3,349.7 Z M 140.5,335.1 L 144.3,349.7 L 146.7,349.0 Z M 146.7,349.0 L 144.3,349.7 L 160.2,371.4 Z M 146.7,349.0 L 160.2,371.4 L 160.2,366.3 Z M 160.2,366.3 L 160.2,371.4 L 176.1,349.7 Z M 160.2,366.3 L 176.1,349.7 L 173.7,349.0 Z M 173.7,349.0 L 176.1,349.7 L 182.4,335.9 Z M 173.7,349.0 L 182.4,335.9 L 179.9,335.1 Z M 200.6,132.6 L 210.2,128.9 L 181.8,99.6 Z M 200.6,132.6 L 181.8,99.6 L 173.9,103.4 Z M 138.5,99.6 L 110.2,128.9 L 119.8,132.6 Z M 138.5,99.6 L 119.8,132.6 L 146.5,103.4 Z M 181.2,290.4 L 139.1,290.4 L 135.1,300.3 Z M 181.2,290.4 L 135.1,300.3 L 185.3,300.3 Z M 211.0,218.6 L 211.0,260.7 L 220.7,264.9 Z M 211.0,218.6 L 220.7,264.9 L 220.7,214.7 Z M 185.3,179.3 L 135.1,179.3 L 139.1,188.8 Z M 185.3,179.3 L 139.1,188.8 L 181.2,188.8 Z M 109.4,260.7 L 109.4,218.6 L 99.7,214.7 Z M 109.4,260.7 L 99.7,214.7 L 99.7,264.9 Z M 187.7,181.7 L 193.6,187.7 L 210.2,170.3 Z M 187.7,181.7 L 210.2,170.3 L 200.6,168.0 Z M 200.6,168.0 L 210.2,170.3 L 210.2,128.9 Z M 200.6,168.0 L 210.2,128.9 L 200.6,132.6 Z M 110.2,128.9 L 110.2,170.3 L 119.8,168.0 Z M 110.2,128.9 L 119.8,168.0 L 119.8,132.6 Z M 110.2,170.3 L 127.1,187.3 L 132.7,181.7 Z M 110.2,170.3 L 132.7,181.7 L 119.8,168.0 Z M 218.3,267.3 L 212.3,273.2 L 229.7,289.8 Z M 218.3,267.3 L 229.7,289.8 L 232.0,280.2 Z M 232.0,280.2 L 229.7,289.8 L 271.1,289.8 Z M 232.0,280.2 L 271.1,289.8 L 267.4,280.2 Z M 271.1,189.8 L 229.7,189.8 L 232.0,199.4 Z M 271.1,189.8 L 232.0,199.4 L 267.4,199.4 Z M 229.7,189.8 L 212.7,206.7 L 218.3,212.3 Z M 229.7,189.8 L 218.3,212.3 L 232.0,199.4 Z M 132.7,298.0 L 126.8,291.9 L 110.2,309.3 Z M 132.7,298.0 L 110.2,309.3 L 119.8,311.6 Z M 210.2,309.3 L 193.3,292.4 L 187.7,298.0 Z M 210.2,309.3 L 187.7,298.0 L 200.6,311.6 Z M 102.0,212.3 L 108.1,206.4 L 90.7,189.8 Z M 102.0,212.3 L 90.7,189.8 L 88.4,199.4 Z M 28.4,257.2 L 28.6,239.8 L 20.0,218.2 Z M 28.4,257.2 L 20.0,218.2 L 20.0,261.5 Z M 90.7,289.8 L 107.6,272.9 L 102.0,267.3 Z M 90.7,289.8 L 102.0,267.3 L 88.4,280.2 Z M 267.4,280.2 L 271.1,289.8 L 300.4,261.5 Z M 267.4,280.2 L 300.4,261.5 L 296.7,253.5 Z M 300.4,218.2 L 271.1,189.8 L 267.4,199.4 Z M 300.4,218.2 L 267.4,199.4 L 296.7,226.1 Z M 177.6,371.6 L 160.2,371.4 L 138.5,380.0 Z M 177.6,371.6 L 138.5,380.0 L 181.8,380.0 Z M 28.6,239.8 L 28.4,222.4 L 20.0,218.2 Z M 160.2,371.4 L 142.8,371.6 L 138.5,380.0 Z" fill="#2a2a4e" stroke="none"/>
  <path d="M 181.8,99.6 L 181.8,20.0 M 181.8,20.0 L 138.5,20.0 M 380.0,218.2 L 300.4,218.2 M 380.0,261.5 L 380.0,218.2 M 138.5,20.0 L 138.5,99.6 M 300.4,261.5 L 380.0,261.5 M 107.6,272.9 L 126.8,291.9 M 193.3,292.4 L 212.3,273.2 M 127.1,187.3 L 108.1,206.4 M 212.7,206.7 L 193.6,187.7 M 110.2,309.3 L 110.2,350.7 M 110.2,350.7 L 138.5,380.0 M 210.2,350.7 L 210.2,309.3 M 181.8,380.0 L 210.2,350.7 M 90.7,189.8 L 49.3,189.8 M 49.3,189.8 L 20.0,218.2 M 49.3,289.8 L 90.7,289.8 M 20.0,261.5 L 49.3,289.8 M 210.2,128.9 L 181.8,99.6 M 138.5,99.6 L 110.2,128.9 M 193.6,187.7 L 210.2,170.3 M 210.2,170.3 L 210.2,128.9 M 110.2,128.9 L 110.2,170.3 M 110.2,170.3 L 127.1,187.3 M 212.3,273.2 L 229.7,289.8 M 229.7,289.8 L 271.1,289.8 M 271.1,189.8 L 229.7,189.8 M 229.7,189.8 L 212.7,206.7 M 126.8,291.9 L 110.2,309.3 M 210.2,309.3 L 193.3,292.4 M 108.1,206.4 L 90.7,189.8 M 20.0,218.2 L 20.0,261.5 M 90.7,289.8 L 107.6,272.9 M 271.1,289.8 L 300.4,261.5 M 300.4,218.2 L 271.1,189.8 M 138.5,380.0 L 181.8,380.0" fill="none" stroke="white" stroke-width="2" stroke-linecap="round"/>
  <polygon points="305.12794939086194,232.1719193374503 313.12794939086194,240.1719193374503 305.12794939086194,248.1719193374503 297.12794939086194,240.1719193374503" fill="#4a9eff" stroke="white" stroke-width="1"/>
<polygon points="161.05473979063555,86.46892113045816 169.05473979063555,94.46892113045816 161.05473979063555,102.46892113045816 153.05473979063555,94.46892113045816" fill="#4a9eff" stroke="white" stroke-width="1"/>
</svg>