<svg xmlns="http://www.w3.org/2000/svg" viewBox="0 0 400 400">
  <rect width="400" height="400" fill="#1a1a2e"/>
  <path d="M 254.2,123.4 L 200.0,69.2 L 200.0,123.4 Z M 200.0,69.2 L 145.8,123.4 L 200.0,123.4 Z M 200.0,123.4 L 145.8,123.4 L 200.0,177.6 Z M 297.5,25.9 L 247.3,25.9 L 297.5,76.1 Z M 102.5,25.9 L 102.5,76.1 L 152.7,25.9 Z M 102.5,220.9 L 152.7,220.9 L 102.5,170.7 Z M 200.0,123.4 L 200.0,177.6 L 254.2,123.4 Z M 297.5,220.9 L 297.5,170.7 L 247.3,220.9 Z M 238.2,25.9 L 161.8,25.9 L 102.5,84.9 Z M 238.2,25.9 L 102.5,84.9 L 200.0,60.9 Z M 200.0,60.9 L 102.5,84.9 L 102.5,111.6 Z M 200.0,60.9 L 102.5,111.6 L 137.5,123.4 Z M 211.8,220.9 L 238.2,220.9 L 297.5,161.9 Z M 211.8,220.9 L 297.5,161.9 L 200.0,185.9 Z M 200.0,185.9 L 297.5,161.9 L 297.5,135.2 Z M 200.0,185.9 L 297.5,135.2 L 262.5,123.4 Z M 161.8,220.9 L 188.2,220.9 L 200.0,185.9 Z M 161.8,220.9 L 200.0,185.9 L 102.5,161.9 Z M 102.5,161.9 L 200.0,185.9 L 137.5,123.4 Z M 102.5,161.9 L 137.5,123.4 L 102.5,135.2 Z M 20.0,135.2 L 102.5,135.2 L 102.5,111.6 Z M 20.0,135.2 L 102.5,111.6 L 20.0,111.6 Z M 200.0,60.9 L 262.5,123.4 L 297.5,111.6 Z M 200.0,60.9 L 297.5,111.6 L 297.5,84.9 Z M 380.0,135.2 L 380.0,111.6 L 297.5,111.6 Z M 380.0,135.2 L 297.5,111.6 L 297.5,135.2 Z M 211.8,303.4 L 211.8,220.9 L 188.2,220.9 Z M 211.8,303.4 L 188.2,220.9 L 188.2,303.4 Z M 262.5,123.4 L 297.5,135.2 L 297.5,111.6 Z M 238.2,25.9 L 200.0,60.9 L 297.5,84.9 Z M 102.5,135.2 L 137.5,123.4 L 102.5,111.6 Z M 188.2,220.9 L 211.8,220.9 L 200.0,185.9 Z M 254.2,123.4 L 262.5,123.4 L 200.0,60.9 Z M 254.2,123.4 L 200.0,60.9 L 200.0,69.2 Z M 200.0,69.2 L 200.0,60.9 L 137.5,123.4 Z M 200.0,69.2 L 137.5,123.4 L 145.8,123.4 Z M 145.8,123.4 L 137.5,123.4 L 200.0,185.9 Z M 145.8,123.4 L 200.0,185.9 L 200.0,177.6 Z M 200.0,177.6 L 200.0,185.9 L 262.5,123.4 Z M 200.0,177.6 L 262.5,123.4 L 254.2,123.4 Z M 297.5,76.1 L 247.3,25.9 L 238.2,25.9 Z M 297.5,76.1 L 238.2,25.9 L 297.5,84.9 Z M 380.0,105.7 L 303.4,105.7 L 297.5,111.6 Z M 380.0,105.7 L 297.5,111.6 L 380.0,111.6 Z M 303.4,20.0 L 297.5,76.1 L 297.5,84.9 Z M 303.4,20.0 L 297.5,84.9 L 303.4,105.7 Z M 238.2,25.9 L 247.3,25.9 L 303.4,20.0 Z M 238.2,25.9 L 303.4,20.0 L 200.0,20.0 Z M 161.8,25.9 L 152.7,25.9 L 102.5,76.1 Z M 161.8,25.9 L 102.5,76.1 L 102.5,84.9 Z M 102.5,111.6 L 96.6,105.7 L 20.0,105.7 Z M 102.5,111.6 L 20.0,105.7 L 20.0,111.6 Z M 102.5,84.9 L 102.5,76.1 L 96.6,20.0 Z M 102.5,84.9 L 96.6,20.0 L 96.6,105.7 Z M 96.6,20.0 L 152.7,25.9 L 161.8,25.9 Z M 96.6,20.0 L 161.8,25.9 L 200.0,20.0 Z M 102.5,170.7 L 152.7,220.9 L 161.8,220.9 Z M 102.5,170.7 L 161.8,220.9 L 102.5,161.9 Z M 20.0,141.1 L 96.6,141.1 L 102.5,135.2 Z M 20.0,141.1 L 102.5,135.2 L 20.0,135.2 Z M 96.6,226.8 L 102.5,170.7 L 102.5,161.9 Z M 96.6,226.8 L 102.5,161.9 L 96.6,141.1 Z M 238.2,220.9 L 247.3,220.9 L 297.5,170.7 Z M 238.2,220.9 L 297.5,170.7 L 297.5,161.9 Z M 297.5,135.2 L 303.4,141.1 L 380.0,141.1 Z M 297.5,135.2 L 380.0,141.1 L 380.0,135.2 Z M 297.5,161.9 L 297.5,170.7 L 303.4,226.8 Z M 297.5,161.9 L 303.4,226.8 L 303.4,141.1 Z M 238.2,220.9 L 217.7,226.8 L 303.4,226.8 Z M 238.2,220.9 L 303.4,226.8 L 247.3,220.9 Z M 188.2,220.9 L 182.3,226.8 L 182.3,303.4 Z M 188.2,220.9 L 182.3,303.4 L 188.2,303.4 Z M 217.7,303.4 L 217.7,226.8 L 211.8,220.9 Z M 217.7,303.4 L 211.8,220.9 L 211.8,303.4 Z M 152.7,220.9 L 96.6,226.8 L 182.3,226.8 Z M 152.7,220.9 L 182.3,226.8 L 161.8,220.9 Z M 303.4,105.7 L 297.5,84.9 L 297.5,111.6 Z M 303.4,20.0 L 247.3,25.9 L 297.5,25.9 Z M 238.2,25.9 L 200.0,20.0 L 161.8,25.9 Z M 297.5,76.1 L 303.4,20.0 L 297.5,25.9 Z M 96.6,105.7 L 102.5,111.6 L 102.5,84.9 Z M 96.6,20.0 L 102.5,25.9 L 152.7,25.9 Z M 102.5,76.1 L 102.5,25.9 L 96.6,20.0 Z M 96.6,141.1 L 102.5,161.9 L 102.5,135.2 Z M 96.6,226.8 L 152.7,220.9 L 102.5,220.9 Z M 161.8,220.9 L 182.3,226.8 L 188.2,220.9 Z M 102.5,170.7 L 96.6,226.8 L 102.5,220.9 Z M 303.4,141.1 L 297.5,135.2 L 297.5,161.9 Z M 303.4,226.8 L 297.5,220.9 L 247.3,220.9 Z M 297.5,170.7 L 297.5,220.9 L 303.4,226.8 Z M 238.2,220.9 L 211.8,220.9 L 217.7,226.8 Z" fill="#2a2a4e" stroke="none"/>
  <path d="M 20.0,111.6 L 20.0,135.2 M 380.0,135.2 L 380.0,111.6 M 188.2,303.4 L 211.8,303.4 M 380.0,105.7 L 303.4,105.7 M 380.0,111.6 L 380.0,105.7 M 303.4,105.7 L 303.4,20.0 M 303.4,20.0 L 200.0,20.0 M 96.6,105.7 L 20.0,105.7 M 20.0,105.7 L 20.0,111.6 M 96.6,20.0 L 96.6,105.7 M 200.0,20.0 L 96.6,20.0 M 20.0,141.1 L 96.6,141.1 M 20.0,135.2 L 20.0,141.1 M 96.6,141.1 L 96.6,226.8 M 303.4,141.1 L 380.0,141.1 M 380.0,141.1 L 380.0,135.2 M 303.4,226.8 L 303.4,141.1 M 217.7,226.8 L 303.4,226.8 M 182.3,226.8 L 182.3,303.4 M 182.3,303.4 L 188.2,303.4 M 217.7,303.4 L 217.7,226.8 M 211.8,303.4 L 217.7,303.4 M 96.6,226.8 L 182.3,226.8" fill="none" stroke="white" stroke-width="2" stroke-linecap="round"/>
  <polygon points="200.3461139307507,221.3210205686432 208.3461139307507,229.3210205686432 200.3461139307507,237.3210205686432 192.3461139307507,229.3210205686432" fill="#4a9eff" stroke="white" stroke-width="1"/>
<polygon points="97.04156403767642,115.87984516686026 105.04156403767642,123.87984516686026 97.04156403767642,131.87984516686026 89.04156403767642,123.87984516686026" fill="#4a9eff" stroke="white" stroke-width="1"/>
<polygon points="302.89033275388533,115.96845682121555 310.89033275388533,123.96845682121555 302.89033275388533,131.96845682121557 294.89033275388533,123.96845682121555" fill="#4a9eff" stroke="white" stroke-width="1"/>
</svg>