<svg xmlns="http://www.w3.org/2000/svg" viewBox="0 0 400 400">
  <rect width="400" height="400" fill="#1a1a2e"/>
  <path d="M 183.1,233.2 L 167.5,217.7 L 153.2,231.9 Z M 183.1,233.2 L 153.2,231.9 L 168.7,247.3 Z M 153.2,163.2 L 167.5,177.4 L 183.1,161.9 Z M 153.2,163.2 L 183.1,161.9 L 168.7,147.8 Z M 122.0,305.9 L 122.1,375.1 L 144.1,375.1 Z M 122.0,305.9 L 144.1,375.1 L 144.7,305.9 Z M 83.4,161.9 L 98.9,177.4 L 113.3,163.2 Z M 83.4,161.9 L 113.3,163.2 L 97.8,147.8 Z M 113.3,231.9 L 98.9,217.7 L 83.4,233.2 Z M 113.3,231.9 L 83.4,233.2 L 97.8,247.3 Z M 144.5,89.2 L 144.4,20.0 L 122.4,20.0 Z M 144.5,89.2 L 122.4,20.0 L 121.8,89.2 Z M 92.1,165.4 L 80.8,154.2 L 45.9,154.2 Z M 92.1,165.4 L 45.9,154.2 L 57.1,165.4 Z M 57.1,165.4 L 45.9,154.2 L 20.0,180.1 Z M 57.1,165.4 L 20.0,180.1 L 31.2,191.3 Z M 31.2,191.3 L 20.0,180.1 L 20.0,215.0 Z M 31.2,191.3 L 20.0,215.0 L 31.2,226.2 Z M 174.7,192.4 L 159.8,180.1 L 159.8,215.0 Z M 174.7,192.4 L 159.8,215.0 L 174.7,224.5 Z M 174.7,224.5 L 159.8,215.0 L 150.7,224.1 Z M 174.7,224.5 L 150.7,224.1 L 163.6,235.0 Z M 124.8,380.0 L 124.8,315.8 L 116.3,310.5 Z M 124.8,380.0 L 116.3,310.5 L 116.3,374.6 Z M 185.6,154.2 L 196.8,165.4 L 231.8,165.4 Z M 185.6,154.2 L 231.8,165.4 L 220.6,154.2 Z M 101.1,156.3 L 101.0,121.3 L 89.8,110.1 Z M 101.1,156.3 L 89.8,110.1 L 89.9,145.1 Z M 101.0,121.3 L 126.9,95.4 L 115.7,84.3 Z M 101.0,121.3 L 115.7,84.3 L 89.8,110.1 Z M 89.9,145.1 L 80.8,154.2 L 92.1,165.4 Z M 89.9,145.1 L 92.1,165.4 L 101.1,156.3 Z M 115.7,84.3 L 126.9,95.4 L 126.9,32.5 Z M 115.7,84.3 L 126.9,32.5 L 116.3,20.5 Z M 163.6,235.0 L 150.7,224.1 L 115.8,224.1 Z M 163.6,235.0 L 115.8,224.1 L 128.7,235.0 Z M 168.7,247.3 L 153.2,231.9 L 113.3,231.9 Z M 168.7,247.3 L 113.3,231.9 L 133.2,267.5 Z M 133.2,267.5 L 113.3,231.9 L 97.8,247.3 Z M 133.2,267.5 L 97.8,247.3 L 97.6,281.8 Z M 183.1,161.9 L 167.5,177.4 L 203.2,197.4 Z M 183.1,161.9 L 203.2,197.4 L 217.3,161.9 Z M 217.3,161.9 L 203.2,197.4 L 238.7,211.8 Z M 217.3,161.9 L 238.7,211.8 L 238.6,183.3 Z M 121.8,89.2 L 97.6,113.3 L 97.8,147.8 Z M 121.8,89.2 L 97.8,147.8 L 133.5,124.9 Z M 133.5,124.9 L 97.8,147.8 L 113.3,163.2 Z M 133.5,124.9 L 113.3,163.2 L 153.2,163.2 Z M 97.6,281.8 L 122.0,305.9 L 144.7,305.9 Z M 97.6,281.8 L 144.7,305.9 L 133.2,267.5 Z M 133.2,267.5 L 144.7,305.9 L 168.8,281.7 Z M 133.2,267.5 L 168.8,281.7 L 168.7,247.3 Z M 217.4,233.1 L 238.7,211.8 L 203.2,197.4 Z M 217.4,233.1 L 203.2,197.4 L 183.1,233.2 Z M 183.1,233.2 L 203.2,197.4 L 167.5,177.4 Z M 183.1,233.2 L 167.5,177.4 L 167.5,217.7 Z M 153.2,163.2 L 168.7,147.8 L 168.8,113.4 Z M 153.2,163.2 L 168.8,113.4 L 133.5,124.9 Z M 133.5,124.9 L 168.8,113.4 L 144.5,89.2 Z M 133.5,124.9 L 144.5,89.2 L 121.8,89.2 Z M 83.4,233.2 L 98.9,217.7 L 63.3,197.6 Z M 83.4,233.2 L 63.3,197.6 L 49.2,233.2 Z M 49.2,233.2 L 63.3,197.6 L 27.8,183.3 Z M 49.2,233.2 L 27.8,183.3 L 27.8,211.8 Z M 49.0,162.0 L 27.8,183.3 L 63.3,197.6 Z M 49.0,162.0 L 63.3,197.6 L 83.4,161.9 Z M 83.4,161.9 L 63.3,197.6 L 98.9,217.7 Z M 83.4,161.9 L 98.9,217.7 L 98.9,177.4 Z M 217.4,233.1 L 220.6,240.9 L 246.5,215.0 Z M 217.4,233.1 L 246.5,215.0 L 238.7,211.8 Z M 238.7,211.8 L 246.5,215.0 L 246.5,180.1 Z M 238.7,211.8 L 246.5,180.1 L 238.6,183.3 Z M 238.6,183.3 L 246.5,180.1 L 220.6,154.2 Z M 238.6,183.3 L 220.6,154.2 L 217.3,161.9 Z M 49.0,162.0 L 45.9,154.2 L 20.0,180.1 Z M 49.0,162.0 L 20.0,180.1 L 27.8,183.3 Z M 27.8,183.3 L 20.0,180.1 L 20.0,215.0 Z M 27.8,183.3 L 20.0,215.0 L 27.8,211.8 Z M 27.8,211.8 L 20.0,215.0 L 45.9,240.9 Z M 27.8,211.8 L 45.9,240.9 L 49.2,233.2 Z M 89.8,285.0 L 115.7,310.8 L 122.0,305.9 Z M 89.8,285.0 L 122.0,305.9 L 97.6,281.8 Z M 150.7,310.8 L 176.5,285.0 L 168.8,281.7 Z M 150.7,310.8 L 168.8,281.7 L 144.7,305.9 Z M 89.9,250.0 L 89.8,285.0 L 97.6,281.8 Z M 89.9,250.0 L 97.6,281.8 L 97.8,247.3 Z M 150.7,224.1 L 115.8,224.1 L 113.3,231.9 Z M 150.7,224.1 L 113.3,231.9 L 153.2,231.9 Z M 176.5,285.0 L 176.5,250.0 L 168.7,247.3 Z M 176.5,285.0 L 168.7,247.3 L 168.8,281.7 Z M 168.7,247.3 L 176.5,250.0 L 185.6,240.9 Z M 168.7,247.3 L 185.6,240.9 L 183.1,233.2 Z M 159.8,180.1 L 159.8,215.0 L 167.5,217.7 Z M 159.8,180.1 L 167.5,217.7 L 167.5,177.4 Z M 220.6,154.2 L 185.6,154.2 L 183.1,161.9 Z M 220.6,154.2 L 183.1,161.9 L 217.3,161.9 Z M 185.6,240.9 L 220.6,240.9 L 217.4,233.1 Z M 185.6,240.9 L 217.4,233.1 L 183.1,233.2 Z M 153.2,231.9 L 167.5,217.7 L 159.8,215.0 Z M 153.2,231.9 L 159.8,215.0 L 150.7,224.1 Z M 121.8,89.2 L 115.7,84.3 L 89.8,110.1 Z M 121.8,89.2 L 89.8,110.1 L 97.6,113.3 Z M 168.8,113.4 L 176.5,110.1 L 150.7,84.3 Z M 168.8,113.4 L 150.7,84.3 L 144.5,89.2 Z M 97.6,113.3 L 89.8,110.1 L 89.9,145.1 Z M 97.6,113.3 L 89.9,145.1 L 97.8,147.8 Z M 113.3,163.2 L 115.8,171.0 L 150.7,171.0 Z M 113.3,163.2 L 150.7,171.0 L 153.2,163.2 Z M 168.7,147.8 L 176.5,145.1 L 176.5,110.1 Z M 168.7,147.8 L 176.5,110.1 L 168.8,113.4 Z M 185.6,154.2 L 176.5,145.1 L 168.7,147.8 Z M 185.6,154.2 L 168.7,147.8 L 183.1,161.9 Z M 159.8,180.1 L 167.5,177.4 L 153.2,163.2 Z M 159.8,180.1 L 153.2,163.2 L 150.7,171.0 Z M 144.1,375.1 L 150.7,375.1 L 150.7,310.8 Z M 144.1,375.1 L 150.7,310.8 L 144.7,305.9 Z M 122.0,305.9 L 115.7,310.8 L 115.8,375.1 Z M 122.0,305.9 L 115.8,375.1 L 122.1,375.1 Z M 97.8,147.8 L 89.9,145.1 L 80.8,154.2 Z M 97.8,147.8 L 80.8,154.2 L 83.4,161.9 Z M 106.7,215.0 L 106.7,180.1 L 98.9,177.4 Z M 106.7,215.0 L 98.9,177.4 L 98.9,217.7 Z M 45.9,240.9 L 80.8,240.9 L 83.4,233.2 Z M 45.9,240.9 L 83.4,233.2 L 49.2,233.2 Z M 80.8,154.2 L 45.9,154.2 L 49.0,162.0 Z M 80.8,154.2 L 49.0,162.0 L 83.4,161.9 Z M 113.3,163.2 L 98.9,177.4 L 106.7,180.1 Z M 113.3,163.2 L 106.7,180.1 L 115.8,171.0 Z M 80.8,240.9 L 89.9,250.0 L 97.8,247.3 Z M 80.8,240.9 L 97.8,247.3 L 83.4,233.2 Z M 106.7,215.0 L 98.9,217.7 L 113.3,231.9 Z M 106.7,215.0 L 113.3,231.9 L 115.8,224.1 Z M 122.4,20.0 L 115.8,20.0 L 115.7,84.3 Z M 122.4,20.0 L 115.7,84.3 L 121.8,89.2 Z M 144.5,89.2 L 150.7,84.3 L 150.7,20.0 Z M 144.5,89.2 L 150.7,20.0 L 144.4,20.0 Z" fill="#2a2a4e" stroke="none"/>
  <path d="M 122.1,375.1 L 144.1,375.1 M 144.4,20.0 L 122.4,20.0 M 57.1,165.4 L 92.1,165.4 M 31.2,191.3 L 57.1,165.4 M 20.0,215.0 L 31.2,226.2 M 31.2,226.2 L 31.2,191.3 M 174.7,192.4 L 159.8,180.1 M 174.7,224.5 L 174.7,192.4 M 163.6,235.0 L 174.7,224.5 M 124.8,380.0 L 124.8,315.8 M 124.8,315.8 L 116.3,310.5 M 116.3,310.5 L 116.3,374.6 M 116.3,374.6 L 124.8,380.0 M 185.6,154.2 L 196.8,165.4 M 196.8,165.4 L 231.8,165.4 M 231.8,165.4 L 220.6,154.2 M 101.1,156.3 L 101.0,121.3 M 101.0,121.3 L 126.9,95.4 M 115.7,84.3 L 89.8,110.1 M 92.1,165.4 L 101.1,156.3 M 126.9,95.4 L 126.9,32.5 M 126.9,32.5 L 116.3,20.5 M 116.3,20.5 L 115.7,84.3 M 115.8,224.1 L 128.7,235.0 M 128.7,235.0 L 163.6,235.0 M 220.6,240.9 L 246.5,215.0 M 246.5,215.0 L 246.5,180.1 M 246.5,180.1 L 220.6,154.2 M 20.0,215.0 L 45.9,240.9 M 89.8,285.0 L 115.7,310.8 M 150.7,310.8 L 176.5,285.0 M 89.9,250.0 L 89.8,285.0 M 176.5,285.0 L 176.5,250.0 M 176.5,250.0 L 185.6,240.9 M 185.6,240.9 L 220.6,240.9 M 115.7,84.3 L 89.8,110.1 M 176.5,110.1 L 150.7,84.3 M 115.8,171.0 L 150.7,171.0 M 176.5,145.1 L 176.5,110.1 M 185.6,154.2 L 176.5,145.1 M 150.7,171.0 L 159.8,180.1 M 144.1,375.1 L 150.7,375.1 M 150.7,375.1 L 150.7,310.8 M 115.7,310.8 L 115.8,375.1 M 115.8,375.1 L 122.1,375.1 M 106.7,215.0 L 106.7,180.1 M 45.9,240.9 L 80.8,240.9 M 106.7,180.1 L 115.8,171.0 M 80.8,240.9 L 89.9,250.0 M 115.8,224.1 L 106.7,215.0 M 122.4,20.0 L 115.8,20.0 M 115.8,20.0 L 115.7,84.3 M 150.7,84.3 L 150.7,20.0 M 150.7,20.0 L 144.4,20.0" fill="none" stroke="white" stroke-width="2" stroke-linecap="round"/>
  <polygon points="134.27265588196772,72.22574685715944 142.27265588196772,80.22574685715944 134.27265588196772,88.22574685715944 126.27265588196772,80.22574685715944" fill="#4a9eff" stroke="white" stroke-width="1"/>
<polygon points="133.3208684948811,305.1914547360578 141.3208684948811,313.1914547360578 133.3208684948811,321.1914547360578 125.3208684948811,313.1914547360578" fill="#4a9eff" stroke="white" stroke-width="1"/>
</svg>