<svg xmlns="http://www.w3.org/2000/svg" viewBox="0 0 400 400">
  <rect width="400" height="400" fill="#1a1a2e"/>
  <path d="M 152.5,314.8 L 146.0,311.8 L 134.8,307.7 Z M 152.5,314.8 L 134.8,307.7 L 152.5,380.0 Z M 152.5,380.0 L 134.8,307.7 L 123.6,311.8 Z M 152.5,380.0 L 123.6,311.8 L 117.1,380.0 Z M 146.0,88.3 L 152.5,85.2 L 152.5,20.0 Z M 146.0,88.3 L 152.5,20.0 L 134.8,92.3 Z M 134.8,92.3 L 152.5,20.0 L 117.1,20.0 Z M 134.8,92.3 L 117.1,20.0 L 123.6,88.3 Z M 117.1,20.0 L 117.1,85.2 L 123.6,88.3 Z M 123.6,311.8 L 117.1,314.8 L 117.1,380.0 Z M 152.0,241.5 L 176.4,217.1 L 134.8,199.8 Z M 152.0,241.5 L 134.8,199.8 L 117.6,241.5 Z M 117.6,241.5 L 134.8,199.8 L 93.2,182.6 Z M 117.6,241.5 L 93.2,182.6 L 93.2,217.1 Z M 145.9,110.6 L 123.7,110.6 L 118.7,122.0 Z M 145.9,110.6 L 118.7,122.0 L 150.9,122.0 Z M 150.9,122.0 L 118.7,122.0 L 115.5,133.5 Z M 150.9,122.0 L 115.5,133.5 L 154.1,133.5 Z M 154.1,133.5 L 115.5,133.5 L 114.3,150.4 Z M 154.1,133.5 L 114.3,150.4 L 155.3,150.4 Z M 184.4,179.5 L 184.4,220.5 L 201.3,219.3 Z M 184.4,179.5 L 201.3,219.3 L 201.3,180.7 Z M 201.3,180.7 L 201.3,219.3 L 212.8,216.1 Z M 201.3,180.7 L 212.8,216.1 L 212.8,183.9 Z M 212.8,183.9 L 212.8,216.1 L 224.2,211.1 Z M 212.8,183.9 L 224.2,211.1 L 224.2,188.9 Z M 155.3,249.6 L 114.3,249.6 L 115.5,266.5 Z M 155.3,249.6 L 115.5,266.5 L 154.1,266.5 Z M 154.1,266.5 L 115.5,266.5 L 118.7,278.0 Z M 154.1,266.5 L 118.7,278.0 L 150.9,278.0 Z M 150.9,278.0 L 118.7,278.0 L 123.7,289.4 Z M 150.9,278.0 L 123.7,289.4 L 145.9,289.4 Z M 85.2,220.5 L 85.2,179.5 L 68.3,180.7 Z M 85.2,220.5 L 68.3,180.7 L 68.3,219.3 Z M 68.3,219.3 L 68.3,180.7 L 56.8,183.9 Z M 68.3,219.3 L 56.8,183.9 L 56.8,216.1 Z M 56.8,216.1 L 56.8,183.9 L 45.4,188.9 Z M 56.8,216.1 L 45.4,188.9 L 45.4,211.1 Z M 117.6,158.2 L 93.2,182.6 L 134.8,199.8 Z M 117.6,158.2 L 134.8,199.8 L 152.0,158.2 Z M 152.0,158.2 L 134.8,199.8 L 176.4,217.1 Z M 152.0,158.2 L 176.4,217.1 L 176.4,182.6 Z M 224.2,211.1 L 238.4,200.0 L 224.2,188.9 Z M 123.7,289.4 L 134.8,303.6 L 145.9,289.4 Z M 45.4,188.9 L 31.2,200.0 L 45.4,211.1 Z M 145.9,110.6 L 134.8,96.4 L 123.7,110.6 Z M 201.8,221.3 L 193.6,233.1 L 222.6,233.1 Z M 201.8,221.3 L 222.6,233.1 L 213.5,218.2 Z M 213.5,218.2 L 222.6,233.1 L 242.7,214.2 Z M 213.5,218.2 L 242.7,214.2 L 224.8,213.0 Z M 193.6,166.9 L 201.8,178.7 L 213.5,181.8 Z M 193.6,166.9 L 213.5,181.8 L 222.6,166.9 Z M 222.6,166.9 L 213.5,181.8 L 224.8,187.0 Z M 222.6,166.9 L 224.8,187.0 L 242.7,185.8 Z M 113.5,267.0 L 101.7,258.8 L 101.7,287.8 Z M 113.5,267.0 L 101.7,287.8 L 116.6,278.7 Z M 116.6,278.7 L 101.7,287.8 L 123.6,311.8 Z M 116.6,278.7 L 123.6,311.8 L 121.8,290.0 Z M 167.9,258.8 L 156.1,267.0 L 153.0,278.7 Z M 167.9,258.8 L 153.0,278.7 L 167.9,287.8 Z M 167.9,287.8 L 153.0,278.7 L 147.8,290.0 Z M 167.9,287.8 L 147.8,290.0 L 146.0,311.8 Z M 67.8,178.7 L 76.0,166.9 L 47.0,166.9 Z M 67.8,178.7 L 47.0,166.9 L 56.1,181.8 Z M 56.1,181.8 L 47.0,166.9 L 26.9,185.8 Z M 56.1,181.8 L 26.9,185.8 L 44.8,187.0 Z M 76.0,233.1 L 67.8,221.3 L 56.1,218.2 Z M 76.0,233.1 L 56.1,218.2 L 47.0,233.1 Z M 47.0,233.1 L 56.1,218.2 L 44.8,213.0 Z M 47.0,233.1 L 44.8,213.0 L 26.9,214.2 Z M 153.0,121.3 L 167.9,112.2 L 146.0,88.3 Z M 153.0,121.3 L 146.0,88.3 L 147.8,110.0 Z M 123.6,88.3 L 101.7,112.2 L 116.6,121.3 Z M 123.6,88.3 L 116.6,121.3 L 121.8,110.0 Z M 167.9,141.2 L 167.9,112.2 L 153.0,121.3 Z M 167.9,141.2 L 153.0,121.3 L 156.1,133.0 Z M 116.6,121.3 L 101.7,112.2 L 101.7,141.2 Z M 116.6,121.3 L 101.7,141.2 L 113.5,133.0 Z M 146.0,88.3 L 134.8,92.3 L 147.8,110.0 Z M 156.1,133.0 L 157.3,152.4 L 167.9,141.2 Z M 113.5,133.0 L 101.7,141.2 L 112.3,152.4 Z M 201.8,221.3 L 182.4,222.5 L 193.6,233.1 Z M 242.7,214.2 L 242.5,200.0 L 224.8,213.0 Z M 201.8,178.7 L 193.6,166.9 L 182.4,177.5 Z M 242.7,185.8 L 224.8,187.0 L 242.5,200.0 Z M 113.5,267.0 L 112.3,247.6 L 101.7,258.8 Z M 123.6,311.8 L 134.8,307.7 L 121.8,290.0 Z M 156.1,267.0 L 167.9,258.8 L 157.3,247.6 Z M 146.0,311.8 L 147.8,290.0 L 134.8,307.7 Z M 67.8,178.7 L 87.2,177.5 L 76.0,166.9 Z M 26.9,185.8 L 27.1,200.0 L 44.8,187.0 Z M 67.8,221.3 L 76.0,233.1 L 87.2,222.5 Z M 26.9,214.2 L 44.8,213.0 L 27.1,200.0 Z M 121.8,110.0 L 134.8,92.3 L 123.6,88.3 Z M 85.2,220.5 L 87.2,222.5 L 91.8,227.1 Z M 85.2,220.5 L 91.8,227.1 L 93.2,217.1 Z M 93.2,217.1 L 91.8,227.1 L 107.4,242.7 Z M 93.2,217.1 L 107.4,242.7 L 117.6,241.5 Z M 117.6,241.5 L 107.4,242.7 L 112.3,247.6 Z M 117.6,241.5 L 112.3,247.6 L 114.3,249.6 Z M 155.3,249.6 L 157.3,247.6 L 161.9,243.0 Z M 155.3,249.6 L 161.9,243.0 L 152.0,241.5 Z M 152.0,241.5 L 161.9,243.0 L 177.5,227.4 Z M 152.0,241.5 L 177.5,227.4 L 176.4,217.1 Z M 176.4,217.1 L 177.5,227.4 L 182.4,222.5 Z M 176.4,217.1 L 182.4,222.5 L 184.4,220.5 Z M 114.3,150.4 L 112.3,152.4 L 107.7,157.0 Z M 114.3,150.4 L 107.7,157.0 L 117.6,158.2 Z M 117.6,158.2 L 107.7,157.0 L 92.1,172.6 Z M 117.6,158.2 L 92.1,172.6 L 93.2,182.6 Z M 93.2,182.6 L 92.1,172.6 L 87.2,177.5 Z M 93.2,182.6 L 87.2,177.5 L 85.2,179.5 Z M 157.3,152.4 L 155.3,150.4 L 152.0,158.2 Z M 157.3,152.4 L 152.0,158.2 L 162.2,157.3 Z M 162.2,157.3 L 152.0,158.2 L 176.4,182.6 Z M 162.2,157.3 L 176.4,182.6 L 177.8,172.9 Z M 177.8,172.9 L 176.4,182.6 L 184.4,179.5 Z M 177.8,172.9 L 184.4,179.5 L 182.4,177.5 Z M 155.3,150.4 L 157.3,152.4 L 156.1,133.0 Z M 155.3,150.4 L 156.1,133.0 L 154.1,133.5 Z M 154.1,133.5 L 156.1,133.0 L 153.0,121.3 Z M 154.1,133.5 L 153.0,121.3 L 150.9,122.0 Z M 150.9,122.0 L 153.0,121.3 L 147.8,110.0 Z M 150.9,122.0 L 147.8,110.0 L 145.9,110.6 Z M 145.9,110.6 L 147.8,110.0 L 134.8,92.3 Z M 145.9,110.6 L 134.8,92.3 L 134.8,96.4 Z M 134.8,96.4 L 134.8,92.3 L 121.8,110.0 Z M 134.8,96.4 L 121.8,110.0 L 123.7,110.6 Z M 123.7,110.6 L 121.8,110.0 L 116.6,121.3 Z M 123.7,110.6 L 116.6,121.3 L 118.7,122.0 Z M 118.7,122.0 L 116.6,121.3 L 113.5,133.0 Z M 118.7,122.0 L 113.5,133.0 L 115.5,133.5 Z M 115.5,133.5 L 113.5,133.0 L 112.3,152.4 Z M 115.5,133.5 L 112.3,152.4 L 114.3,150.4 Z M 193.6,233.1 L 191.7,240.9 L 225.6,240.9 Z M 193.6,233.1 L 225.6,240.9 L 222.6,233.1 Z M 222.6,233.1 L 225.6,240.9 L 249.6,217.7 Z M 222.6,233.1 L 249.6,217.7 L 242.7,214.2 Z M 184.4,220.5 L 182.4,222.5 L 201.8,221.3 Z M 184.4,220.5 L 201.8,221.3 L 201.3,219.3 Z M 201.3,219.3 L 201.8,221.3 L 213.5,218.2 Z M 201.3,219.3 L 213.5,218.2 L 212.8,216.1 Z M 212.8,216.1 L 213.5,218.2 L 224.8,213.0 Z M 212.8,216.1 L 224.8,213.0 L 224.2,211.1 Z M 224.2,211.1 L 224.8,213.0 L 242.5,200.0 Z M 224.2,211.1 L 242.5,200.0 L 238.4,200.0 Z M 238.4,200.0 L 242.5,200.0 L 224.8,187.0 Z M 238.4,200.0 L 224.8,187.0 L 224.2,188.9 Z M 224.2,188.9 L 224.8,187.0 L 213.5,181.8 Z M 224.2,188.9 L 213.5,181.8 L 212.8,183.9 Z M 212.8,183.9 L 213.5,181.8 L 201.8,178.7 Z M 212.8,183.9 L 201.8,178.7 L 201.3,180.7 Z M 201.3,180.7 L 201.8,178.7 L 182.4,177.5 Z M 201.3,180.7 L 182.4,177.5 L 184.4,179.5 Z M 191.7,159.1 L 193.6,166.9 L 222.6,166.9 Z M 191.7,159.1 L 222.6,166.9 L 225.6,159.1 Z M 225.6,159.1 L 222.6,166.9 L 242.7,185.8 Z M 225.6,159.1 L 242.7,185.8 L 249.6,182.3 Z M 114.3,249.6 L 112.3,247.6 L 113.5,267.0 Z M 114.3,249.6 L 113.5,267.0 L 115.5,266.5 Z M 115.5,266.5 L 113.5,267.0 L 116.6,278.7 Z M 115.5,266.5 L 116.6,278.7 L 118.7,278.0 Z M 118.7,278.0 L 116.6,278.7 L 121.8,290.0 Z M 118.7,278.0 L 121.8,290.0 L 123.7,289.4 Z M 123.7,289.4 L 121.8,290.0 L 134.8,307.7 Z M 123.7,289.4 L 134.8,307.7 L 134.8,303.6 Z M 134.8,303.6 L 134.8,307.7 L 147.8,290.0 Z M 134.8,303.6 L 147.8,290.0 L 145.9,289.4 Z M 145.9,289.4 L 147.8,290.0 L 153.0,278.7 Z M 145.9,289.4 L 153.0,278.7 L 150.9,278.0 Z M 150.9,278.0 L 153.0,278.7 L 156.1,267.0 Z M 150.9,278.0 L 156.1,267.0 L 154.1,266.5 Z M 154.1,266.5 L 156.1,267.0 L 157.3,247.6 Z M 154.1,266.5 L 157.3,247.6 L 155.3,249.6 Z M 76.0,166.9 L 77.9,159.1 L 44.0,159.1 Z M 76.0,166.9 L 44.0,159.1 L 47.0,166.9 Z M 47.0,166.9 L 44.0,159.1 L 20.0,182.3 Z M 47.0,166.9 L 20.0,182.3 L 26.9,185.8 Z M 85.2,179.5 L 87.2,177.5 L 67.8,178.7 Z M 85.2,179.5 L 67.8,178.7 L 68.3,180.7 Z M 68.3,180.7 L 67.8,178.7 L 56.1,181.8 Z M 68.3,180.7 L 56.1,181.8 L 56.8,183.9 Z M 56.8,183.9 L 56.1,181.8 L 44.8,187.0 Z M 56.8,183.9 L 44.8,187.0 L 45.4,188.9 Z M 45.4,188.9 L 44.8,187.0 L 27.1,200.0 Z M 45.4,188.9 L 27.1,200.0 L 31.2,200.0 Z M 31.2,200.0 L 27.1,200.0 L 44.8,213.0 Z M 31.2,200.0 L 44.8,213.0 L 45.4,211.1 Z M 45.4,211.1 L 44.8,213.0 L 56.1,218.2 Z M 45.4,211.1 L 56.1,218.2 L 56.8,216.1 Z M 56.8,216.1 L 56.1,218.2 L 67.8,221.3 Z M 56.8,216.1 L 67.8,221.3 L 68.3,219.3 Z M 68.3,219.3 L 67.8,221.3 L 87.2,222.5 Z M 68.3,219.3 L 87.2,222.5 L 85.2,220.5 Z M 77.9,240.9 L 76.0,233.1 L 47.0,233.1 Z M 77.9,240.9 L 47.0,233.1 L 44.0,240.9 Z M 44.0,240.9 L 47.0,233.1 L 26.9,214.2 Z M 44.0,240.9 L 26.9,214.2 L 20.0,217.7 Z M 167.9,112.2 L 175.7,109.2 L 152.5,85.2 Z M 167.9,112.2 L 152.5,85.2 L 146.0,88.3 Z M 117.1,85.2 L 93.9,109.2 L 101.7,112.2 Z M 117.1,85.2 L 101.7,112.2 L 123.6,88.3 Z M 152.0,241.5 L 117.6,241.5 L 114.3,249.6 Z M 152.0,241.5 L 114.3,249.6 L 155.3,249.6 Z M 176.4,182.6 L 176.4,217.1 L 184.4,220.5 Z M 176.4,182.6 L 184.4,220.5 L 184.4,179.5 Z M 155.3,150.4 L 114.3,150.4 L 117.6,158.2 Z M 155.3,150.4 L 117.6,158.2 L 152.0,158.2 Z M 93.2,217.1 L 93.2,182.6 L 85.2,179.5 Z M 93.2,217.1 L 85.2,179.5 L 85.2,220.5 Z M 157.3,152.4 L 162.2,157.3 L 175.7,143.1 Z M 157.3,152.4 L 175.7,143.1 L 167.9,141.2 Z M 167.9,141.2 L 175.7,143.1 L 175.7,109.2 Z M 167.9,141.2 L 175.7,109.2 L 167.9,112.2 Z M 93.9,109.2 L 93.9,143.1 L 101.7,141.2 Z M 93.9,109.2 L 101.7,141.2 L 101.7,112.2 Z M 93.9,143.1 L 107.7,157.0 L 112.3,152.4 Z M 93.9,143.1 L 112.3,152.4 L 101.7,141.2 Z M 182.4,222.5 L 177.5,227.4 L 191.7,240.9 Z M 182.4,222.5 L 191.7,240.9 L 193.6,233.1 Z M 242.7,185.8 L 242.5,200.0 L 249.6,217.7 Z M 242.7,185.8 L 249.6,217.7 L 249.6,182.3 Z M 191.7,159.1 L 177.8,172.9 L 182.4,177.5 Z M 191.7,159.1 L 182.4,177.5 L 193.6,166.9 Z M 112.3,247.6 L 107.4,242.7 L 93.9,256.9 Z M 112.3,247.6 L 93.9,256.9 L 101.7,258.8 Z M 101.7,258.8 L 93.9,256.9 L 93.9,290.8 Z M 101.7,258.8 L 93.9,290.8 L 101.7,287.8 Z M 101.7,287.8 L 93.9,290.8 L 117.1,314.8 Z M 101.7,287.8 L 117.1,314.8 L 123.6,311.8 Z M 175.7,290.8 L 175.7,256.9 L 167.9,258.8 Z M 175.7,290.8 L 167.9,258.8 L 167.9,287.8 Z M 152.5,314.8 L 175.7,290.8 L 167.9,287.8 Z M 152.5,314.8 L 167.9,287.8 L 146.0,311.8 Z M 175.7,256.9 L 161.9,243.0 L 157.3,247.6 Z M 175.7,256.9 L 157.3,247.6 L 167.9,258.8 Z M 87.2,177.5 L 92.1,172.6 L 77.9,159.1 Z M 87.2,177.5 L 77.9,159.1 L 76.0,166.9 Z M 26.9,214.2 L 27.1,200.0 L 20.0,182.3 Z M 26.9,214.2 L 20.0,182.3 L 20.0,217.7 Z M 77.9,240.9 L 91.8,227.1 L 87.2,222.5 Z M 77.9,240.9 L 87.2,222.5 L 76.0,233.1 Z M 242.5,200.0 L 242.7,214.2 L 249.6,217.7 Z M 27.1,200.0 L 26.9,185.8 L 20.0,182.3 Z" fill="#2a2a4e" stroke="none"/>
  <path d="M 152.5,380.0 L 152.5,314.8 M 117.1,380.0 L 152.5,380.0 M 152.5,85.2 L 152.5,20.0 M 152.5,20.0 L 117.1,20.0 M 117.1,20.0 L 117.1,85.2 M 117.1,314.8 L 117.1,380.0 M 91.8,227.1 L 107.4,242.7 M 161.9,243.0 L 177.5,227.4 M 107.7,157.0 L 92.1,172.6 M 177.8,172.9 L 162.2,157.3 M 191.7,240.9 L 225.6,240.9 M 225.6,240.9 L 249.6,217.7 M 225.6,159.1 L 191.7,159.1 M 249.6,182.3 L 225.6,159.1 M 77.9,159.1 L 44.0,159.1 M 44.0,159.1 L 20.0,182.3 M 44.0,240.9 L 77.9,240.9 M 20.0,217.7 L 44.0,240.9 M 175.7,109.2 L 152.5,85.2 M 117.1,85.2 L 93.9,109.2 M 162.2,157.3 L 175.7,143.1 M 175.7,143.1 L 175.7,109.2 M 93.9,109.2 L 93.9,143.1 M 93.9,143.1 L 107.7,157.0 M 177.5,227.4 L 191.7,240.9 M 249.6,217.7 L 249.6,182.3 M 191.7,159.1 L 177.8,172.9 M 107.4,242.7 L 93.9,256.9 M 93.9,256.9 L 93.9,290.8 M 93.9,290.8 L 117.1,314.8 M 175.7,290.8 L 175.7,256.9 M 152.5,314.8 L 175.7,290.8 M 175.7,256.9 L 161.9,243.0 M 92.1,172.6 L 77.9,159.1 M 20.0,182.3 L 20.0,217.7 M 77.9,240.9 L 91.8,227.1" fill="none" stroke="white" stroke-width="2" stroke-linecap="round"/>
  <polygon points="136.47423714977845,309.0959625902752 144.47423714977845,317.0959625902752 136.47423714977845,325.0959625902752 128.47423714977845,317.0959625902752" fill="#4a9eff" stroke="white" stroke-width="1"/>
<polygon points="136.40419303033963,75.21524352076682 144.40419303033963,83.21524352076682 136.40419303033963,91.21524352076682 128.40419303033963,83.21524352076682" fill="#4a9eff" stroke="white" stroke-width="1"/>
</svg>