<svg xmlns="http://www.w3.org/2000/svg" viewBox="0 0 400 400">
  <rect width="400" height="400" fill="#1a1a2e"/>
  <path d="M 185.1,220.7 L 200.6,208.7 L 197.4,184.1 Z M 185.1,220.7 L 197.4,184.1 L 179.6,200.7 Z M 179.6,200.7 L 197.4,184.1 L 171.7,155.2 Z M 179.6,200.7 L 171.7,155.2 L 163.3,160.4 Z M 163.3,160.4 L 171.7,155.2 L 127.7,110.4 Z M 163.3,160.4 L 127.7,110.4 L 141.1,152.5 Z M 141.1,152.5 L 127.7,110.4 L 118.6,111.5 Z M 141.1,152.5 L 118.6,111.5 L 112.9,143.4 Z M 112.9,143.4 L 118.6,111.5 L 69.2,158.8 Z M 112.9,143.4 L 69.2,158.8 L 80.9,171.8 Z M 80.9,171.8 L 69.2,158.8 L 42.7,183.1 Z M 80.9,171.8 L 42.7,183.1 L 69.4,185.8 Z M 69.4,185.8 L 42.7,183.1 L 40.5,212.7 Z M 69.4,185.8 L 40.5,212.7 L 70.1,203.2 Z M 70.1,203.2 L 40.5,212.7 L 80.1,246.2 Z M 70.1,203.2 L 80.1,246.2 L 88.8,227.1 Z M 200.6,208.7 L 185.1,220.7 L 171.6,242.0 Z M 185.1,220.7 L 146.3,249.9 L 171.6,242.0 Z M 171.6,242.0 L 146.3,249.9 L 125.3,272.7 Z M 171.6,242.0 L 125.3,272.7 L 130.8,279.2 Z M 122.8,380.0 L 130.8,279.2 L 125.3,272.7 Z M 122.8,380.0 L 125.3,272.7 L 114.2,279.4 Z M 80.1,246.2 L 114.2,279.4 L 88.8,227.1 Z M 118.6,111.5 L 127.7,110.4 L 122.8,20.0 Z M 117.5,248.0 L 125.3,272.7 L 146.3,249.9 Z M 117.5,248.0 L 146.3,249.9 L 139.4,236.3 Z M 139.4,236.3 L 146.3,249.9 L 185.1,220.7 Z M 139.4,236.3 L 185.1,220.7 L 165.5,216.5 Z M 88.6,184.6 L 114.4,162.3 L 80.9,171.8 Z M 114.4,162.3 L 112.9,143.4 L 80.9,171.8 Z M 112.9,143.4 L 114.4,162.3 L 141.1,152.5 Z M 114.4,162.3 L 137.3,163.0 L 141.1,152.5 Z M 141.1,152.5 L 137.3,163.0 L 163.3,160.4 Z M 110.4,233.8 L 88.8,227.1 L 114.2,279.4 Z M 110.4,233.8 L 114.2,279.4 L 117.5,248.0 Z M 179.6,200.7 L 163.3,160.4 L 137.3,163.0 Z M 179.6,200.7 L 137.3,163.0 L 158.9,193.8 Z M 179.6,200.7 L 158.9,193.8 L 165.5,216.5 Z M 179.6,200.7 L 165.5,216.5 L 185.1,220.7 Z M 117.5,248.0 L 114.2,279.4 L 125.3,272.7 Z M 110.4,233.8 L 117.5,248.0 L 139.4,236.3 Z M 88.8,227.1 L 88.6,184.6 L 70.1,203.2 Z M 69.4,185.8 L 88.6,184.6 L 80.9,171.8 Z M 69.4,185.8 L 70.1,203.2 L 88.6,184.6 Z M 114.4,162.3 L 88.6,184.6 L 114.7,200.4 Z M 88.6,184.6 L 88.8,227.1 L 114.7,200.4 Z M 114.7,200.4 L 88.8,227.1 L 110.4,233.8 Z M 139.4,236.3 L 165.5,216.5 L 139.0,208.1 Z M 165.5,216.5 L 158.9,193.8 L 139.0,208.1 Z M 139.0,208.1 L 158.9,193.8 L 114.7,200.4 Z M 158.9,193.8 L 124.2,184.8 L 114.7,200.4 Z M 114.7,200.4 L 124.2,184.8 L 114.4,162.3 Z M 124.2,184.8 L 137.3,163.0 L 114.4,162.3 Z M 110.4,233.8 L 139.4,236.3 L 139.0,208.1 Z M 110.4,233.8 L 139.0,208.1 L 114.7,200.4 Z M 158.9,193.8 L 137.3,163.0 L 124.2,184.8 Z M 106.7,20.0 L 105.0,97.9 L 122.8,20.0 Z M 105.0,97.9 L 118.6,111.5 L 122.8,20.0 Z M 118.6,111.5 L 105.0,97.9 L 69.2,158.8 Z M 105.0,97.9 L 56.4,146.9 L 69.2,158.8 Z M 140.1,380.0 L 145.4,291.0 L 122.8,380.0 Z M 145.4,291.0 L 130.8,279.2 L 122.8,380.0 Z M 217.7,175.9 L 185.8,142.0 L 197.4,184.1 Z M 185.8,142.0 L 171.7,155.2 L 197.4,184.1 Z M 185.8,142.0 L 143.5,98.3 L 171.7,155.2 Z M 143.5,98.3 L 127.7,110.4 L 171.7,155.2 Z M 21.7,219.9 L 40.5,212.7 L 42.7,183.1 Z M 21.7,219.9 L 42.7,183.1 L 20.0,180.2 Z M 187.0,254.9 L 171.6,242.0 L 130.8,279.2 Z M 187.0,254.9 L 130.8,279.2 L 145.4,291.0 Z M 217.7,175.9 L 197.4,184.1 L 200.6,208.7 Z M 217.7,175.9 L 200.6,208.7 L 225.0,211.8 Z M 80.1,246.2 L 40.5,212.7 L 21.7,219.9 Z M 80.1,246.2 L 21.7,219.9 L 67.8,259.4 Z M 105.2,380.0 L 122.8,380.0 L 114.2,279.4 Z M 105.2,380.0 L 114.2,279.4 L 103.4,292.9 Z M 140.1,20.0 L 122.8,20.0 L 127.7,110.4 Z M 140.1,20.0 L 127.7,110.4 L 143.5,98.3 Z M 20.0,180.2 L 42.7,183.1 L 69.2,158.8 Z M 20.0,180.2 L 69.2,158.8 L 56.4,146.9 Z M 114.2,279.4 L 80.1,246.2 L 67.8,259.4 Z M 114.2,279.4 L 67.8,259.4 L 103.4,292.9 Z M 225.0,211.8 L 200.6,208.7 L 171.6,242.0 Z M 225.0,211.8 L 171.6,242.0 L 187.0,254.9 Z M 95.0,221.8 L 103.0,229.9 L 103.0,213.7 Z M 86.9,213.7 L 86.9,229.9 L 95.0,221.8 Z M 103.0,213.7 L 86.9,213.7 L 95.0,221.8 Z M 86.9,229.9 L 103.0,229.9 L 95.0,221.8 Z M 63.9,188.9 L 71.2,196.3 L 71.2,181.5 Z M 56.5,181.5 L 56.5,196.3 L 63.9,188.9 Z M 71.2,181.5 L 56.5,181.5 L 63.9,188.9 Z M 56.5,196.3 L 71.2,196.3 L 63.9,188.9 Z M 139.7,171.3 L 145.2,178.8 L 147.4,165.9 Z M 134.2,163.7 L 132.0,176.7 L 139.7,171.3 Z M 147.4,165.9 L 134.2,163.7 L 139.7,171.3 Z M 132.0,176.7 L 145.2,178.8 L 139.7,171.3 Z M 125.9,277.4 L 130.1,288.5 L 137.0,273.1 Z M 121.6,266.2 L 114.7,281.7 L 125.9,277.4 Z M 137.0,273.1 L 121.6,266.2 L 125.9,277.4 Z M 114.7,281.7 L 130.1,288.5 L 125.9,277.4 Z M 98.2,247.2 L 105.3,250.3 L 101.3,240.1 Z M 91.2,244.2 L 95.2,254.3 L 98.2,247.2 Z M 101.3,240.1 L 91.2,244.2 L 98.2,247.2 Z M 95.2,254.3 L 105.3,250.3 L 98.2,247.2 Z M 114.2,200.2 L 119.0,208.9 L 122.9,195.3 Z M 109.4,191.5 L 105.6,205.0 L 114.2,200.2 Z M 122.9,195.3 L 109.4,191.5 L 114.2,200.2 Z M 105.6,205.0 L 119.0,208.9 L 114.2,200.2 Z" fill="#2a2a4e" stroke="none"/>
  <path d="M 106.7,20.0 L 105.0,97.9 M 122.8,20.0 L 106.7,20.0 M 105.0,97.9 L 56.4,146.9 M 140.1,380.0 L 145.4,291.0 M 122.8,380.0 L 140.1,380.0 M 217.7,175.9 L 185.8,142.0 M 185.8,142.0 L 143.5,98.3 M 20.0,180.2 L 21.7,219.9 M 145.4,291.0 L 187.0,254.9 M 225.0,211.8 L 217.7,175.9 M 21.7,219.9 L 67.8,259.4 M 105.2,380.0 L 122.8,380.0 M 103.4,292.9 L 105.2,380.0 M 140.1,20.0 L 122.8,20.0 M 143.5,98.3 L 140.1,20.0 M 56.4,146.9 L 20.0,180.2 M 67.8,259.4 L 103.4,292.9 M 187.0,254.9 L 225.0,211.8 M 103.0,229.9 L 103.0,213.7 M 86.9,213.7 L 86.9,229.9 M 103.0,213.7 L 86.9,213.7 M 86.9,229.9 L 103.0,229.9 M 71.2,196.3 L 71.2,181.5 M 56.5,181.5 L 56.5,196.3 M 71.2,181.5 L 56.5,181.5 M 56.5,196.3 L 71.2,196.3 M 145.2,178.8 L 147.4,165.9 M 134.2,163.7 L 132.0,176.7 M 147.4,165.9 L 134.2,163.7 M 132.0,176.7 L 145.2,178.8 M 130.1,288.5 L 137.0,273.1 M 121.6,266.2 L 114.7,281.7 M 137.0,273.1 L 121.6,266.2 M 114.7,281.7 L 130.1,288.5 M 105.3,250.3 L 101.3,240.1 M 91.2,244.2 L 95.2,254.3 M 101.3,240.1 L 91.2,244.2 M 95.2,254.3 L 105.3,250.3 M 119.0,208.9 L 122.9,195.3 M 109.4,191.5 L 105.6,205.0 M 122.9,195.3 L 109.4,191.5 M 105.6,205.0 L 119.0,208.9" fill="none" stroke="white" stroke-width="2" stroke-linecap="round"/>
  <polygon points="123.4463280333058,292.9425270581338 131.4463280333058,300.9425270581338 123.4463280333058,308.9425270581338 115.4463280333058,300.9425270581338" fill="#4a9eff" stroke="white" stroke-width="1"/>
<polygon points="123.22689097604204,89.58547689362481 131.22689097604206,97.58547689362481 123.22689097604204,105.58547689362481 115.22689097604204,97.58547689362481" fill="#4a9eff" stroke="white" stroke-width="1"/>
</svg>