<svg xmlns="http://www.w3.org/2000/svg" viewBox="0 0 400 400">
  <rect width="400" height="400" fill="#1a1a2e"/>
  <path d="M 116.0,199.2 L 97.7,207.0 L 90.0,231.0 Z M 116.0,199.2 L 90.0,231.0 L 122.0,232.7 Z M 122.0,232.7 L 90.0,231.0 L 95.1,260.2 Z M 122.0,232.7 L 95.1,260.2 L 118.7,258.5 Z M 119.0,176.0 L 121.1,158.0 L 88.9,162.1 Z M 119.0,176.0 L 88.9,162.1 L 95.5,179.6 Z M 92.9,148.6 L 121.1,158.0 L 121.8,139.8 Z M 92.9,148.6 L 121.8,139.8 L 117.3,133.0 Z M 128.3,143.9 L 121.8,139.8 L 121.1,158.0 Z M 133.2,242.1 L 122.0,232.7 L 118.7,258.5 Z M 95.1,260.2 L 90.0,231.0 L 70.9,234.7 Z M 110.0,185.8 L 119.0,176.0 L 95.5,179.6 Z M 92.9,148.6 L 117.3,133.0 L 87.1,141.3 Z M 92.9,148.6 L 88.9,162.1 L 121.1,158.0 Z M 112.6,20.7 L 101.4,20.7 L 95.1,115.9 Z M 112.6,20.7 L 95.1,115.9 L 118.4,114.0 Z M 118.4,114.0 L 95.1,115.9 L 87.1,141.3 Z M 118.4,114.0 L 87.1,141.3 L 117.3,133.0 Z M 103.8,380.0 L 112.6,380.0 L 113.9,283.6 Z M 103.8,380.0 L 113.9,283.6 L 102.2,281.6 Z M 102.2,281.6 L 113.9,283.6 L 118.7,258.5 Z M 102.2,281.6 L 118.7,258.5 L 95.1,260.2 Z M 121.8,139.8 L 128.3,143.9 L 138.3,128.1 Z M 128.3,143.9 L 142.6,148.8 L 138.3,128.1 Z M 138.3,128.1 L 142.6,148.8 L 167.9,145.6 Z M 88.9,162.1 L 92.9,148.6 L 68.7,157.3 Z M 92.9,148.6 L 87.1,141.3 L 68.7,157.3 Z M 119.0,176.0 L 123.2,170.3 L 121.1,158.0 Z M 123.2,170.3 L 180.5,168.2 L 121.1,158.0 Z M 95.5,179.6 L 97.7,207.0 L 110.0,185.8 Z M 97.7,207.0 L 116.0,199.2 L 110.0,185.8 Z M 110.0,185.8 L 116.0,199.2 L 119.0,176.0 Z M 49.9,144.4 L 31.8,170.3 L 68.7,157.3 Z M 31.8,170.3 L 59.2,176.9 L 68.7,157.3 Z M 123.4,223.9 L 122.0,232.7 L 133.2,242.1 Z M 123.4,223.9 L 133.2,242.1 L 167.1,233.1 Z M 97.7,207.0 L 95.5,179.6 L 85.9,176.5 Z M 97.7,207.0 L 85.9,176.5 L 88.2,220.4 Z M 102.2,281.6 L 95.1,260.2 L 70.9,234.7 Z M 102.2,281.6 L 70.9,234.7 L 54.0,249.8 Z M 123.2,170.3 L 119.0,176.0 L 116.0,199.2 Z M 123.2,170.3 L 116.0,199.2 L 123.4,223.9 Z M 88.9,162.1 L 68.7,157.3 L 59.2,176.9 Z M 88.9,162.1 L 59.2,176.9 L 85.9,176.5 Z M 49.1,229.4 L 70.9,234.7 L 90.0,231.0 Z M 49.1,229.4 L 90.0,231.0 L 88.2,220.4 Z M 118.7,258.5 L 113.9,283.6 L 160.7,253.0 Z M 118.7,258.5 L 160.7,253.0 L 133.2,242.1 Z M 180.5,168.2 L 167.9,145.6 L 142.6,148.8 Z M 180.5,168.2 L 142.6,148.8 L 121.1,158.0 Z M 95.1,115.9 L 49.9,144.4 L 68.7,157.3 Z M 95.1,115.9 L 68.7,157.3 L 87.1,141.3 Z M 118.4,114.0 L 117.3,133.0 L 121.8,139.8 Z M 118.4,114.0 L 121.8,139.8 L 138.3,128.1 Z M 88.9,162.1 L 85.9,176.5 L 95.5,179.6 Z M 97.7,207.0 L 88.2,220.4 L 90.0,231.0 Z M 49.1,229.4 L 54.0,249.8 L 70.9,234.7 Z M 122.0,232.7 L 123.4,223.9 L 116.0,199.2 Z M 133.2,242.1 L 160.7,253.0 L 167.1,233.1 Z M 128.3,143.9 L 121.1,158.0 L 142.6,148.8 Z M 95.1,115.9 L 101.4,20.7 L 82.4,108.0 Z M 101.4,20.7 L 89.7,20.7 L 82.4,108.0 Z M 37.7,135.8 L 49.9,144.4 L 82.4,108.0 Z M 49.9,144.4 L 95.1,115.9 L 82.4,108.0 Z M 173.3,260.7 L 160.7,253.0 L 126.2,294.1 Z M 160.7,253.0 L 113.9,283.6 L 126.2,294.1 Z M 126.2,380.0 L 126.2,294.1 L 112.6,380.0 Z M 126.2,294.1 L 113.9,283.6 L 112.6,380.0 Z M 102.2,281.6 L 91.5,292.6 L 103.8,380.0 Z M 91.5,292.6 L 90.9,380.0 L 103.8,380.0 Z M 167.9,145.6 L 180.5,168.2 L 181.2,135.9 Z M 180.5,168.2 L 199.0,168.7 L 181.2,135.9 Z M 118.4,114.0 L 131.6,103.2 L 112.6,20.7 Z M 131.6,103.2 L 128.5,20.0 L 112.6,20.7 Z M 31.8,170.3 L 49.9,144.4 L 20.0,163.5 Z M 49.9,144.4 L 37.7,135.8 L 20.0,163.5 Z M 43.2,260.1 L 91.5,292.6 L 54.0,249.8 Z M 91.5,292.6 L 102.2,281.6 L 54.0,249.8 Z M 182.5,222.4 L 167.1,233.1 L 173.3,260.7 Z M 167.1,233.1 L 160.7,253.0 L 173.3,260.7 Z M 182.5,222.4 L 133.0,210.8 L 167.1,233.1 Z M 133.0,210.8 L 123.4,223.9 L 167.1,233.1 Z M 76.7,187.5 L 76.4,209.8 L 85.9,176.5 Z M 76.4,209.8 L 88.2,220.4 L 85.9,176.5 Z M 123.4,223.9 L 133.0,210.8 L 123.2,170.3 Z M 133.0,210.8 L 133.2,186.1 L 123.2,170.3 Z M 133.2,186.1 L 177.7,184.5 L 123.2,170.3 Z M 177.7,184.5 L 180.5,168.2 L 123.2,170.3 Z M 54.3,186.9 L 76.7,187.5 L 59.2,176.9 Z M 76.7,187.5 L 85.9,176.5 L 59.2,176.9 Z M 131.6,103.2 L 138.3,128.1 L 181.2,135.9 Z M 138.3,128.1 L 167.9,145.6 L 181.2,135.9 Z M 23.6,180.5 L 54.3,186.9 L 31.8,170.3 Z M 54.3,186.9 L 59.2,176.9 L 31.8,170.3 Z M 32.5,221.4 L 49.1,229.4 L 76.4,209.8 Z M 49.1,229.4 L 88.2,220.4 L 76.4,209.8 Z M 54.0,249.8 L 49.1,229.4 L 32.5,221.4 Z M 54.0,249.8 L 32.5,221.4 L 43.2,260.1 Z M 127.8,249.2 L 137.1,256.3 L 134.9,239.9 Z M 118.6,242.1 L 120.7,258.5 L 127.8,249.2 Z M 134.9,239.9 L 118.6,242.1 L 127.8,249.2 Z M 120.7,258.5 L 137.1,256.3 L 127.8,249.2 Z M 110.0,182.6 L 116.6,194.5 L 121.8,176.0 Z M 103.4,170.7 L 98.1,189.2 L 110.0,182.6 Z M 121.8,176.0 L 103.4,170.7 L 110.0,182.6 Z M 98.1,189.2 L 116.6,194.5 L 110.0,182.6 Z M 69.2,159.6 L 74.0,172.2 L 81.8,154.7 Z M 64.4,147.0 L 56.6,164.4 L 69.2,159.6 Z M 81.8,154.7 L 64.4,147.0 L 69.2,159.6 Z M 56.6,164.4 L 74.0,172.2 L 69.2,159.6 Z M 131.6,103.2 L 118.4,114.0 L 138.3,128.1 Z M 20.0,163.5 L 23.6,180.5 L 31.8,170.3 Z M 180.5,168.2 L 177.7,184.5 L 199.0,168.7 Z" fill="#2a2a4e" stroke="none"/>
  <path d="M 112.6,20.7 L 101.4,20.7 M 103.8,380.0 L 112.6,380.0 M 101.4,20.7 L 89.7,20.7 M 89.7,20.7 L 82.4,108.0 M 82.4,108.0 L 37.7,135.8 M 126.2,294.1 L 173.3,260.7 M 126.2,380.0 L 126.2,294.1 M 112.6,380.0 L 126.2,380.0 M 91.5,292.6 L 90.9,380.0 M 90.9,380.0 L 103.8,380.0 M 199.0,168.7 L 181.2,135.9 M 131.6,103.2 L 128.5,20.0 M 128.5,20.0 L 112.6,20.7 M 37.7,135.8 L 20.0,163.5 M 43.2,260.1 L 91.5,292.6 M 173.3,260.7 L 182.5,222.4 M 182.5,222.4 L 133.0,210.8 M 76.7,187.5 L 76.4,209.8 M 133.0,210.8 L 133.2,186.1 M 133.2,186.1 L 177.7,184.5 M 54.3,186.9 L 76.7,187.5 M 181.2,135.9 L 131.6,103.2 M 23.6,180.5 L 54.3,186.9 M 76.4,209.8 L 32.5,221.4 M 32.5,221.4 L 43.2,260.1 M 137.1,256.3 L 134.9,239.9 M 118.6,242.1 L 120.7,258.5 M 134.9,239.9 L 118.6,242.1 M 120.7,258.5 L 137.1,256.3 M 116.6,194.5 L 121.8,176.0 M 103.4,170.7 L 98.1,189.2 M 121.8,176.0 L 103.4,170.7 M 98.1,189.2 L 116.6,194.5 M 74.0,172.2 L 81.8,154.7 M 64.4,147.0 L 56.6,164.4 M 81.8,154.7 L 64.4,147.0 M 56.6,164.4 L 74.0,172.2 M 20.0,163.5 L 23.6,180.5 M 177.7,184.5 L 199.0,168.7" fill="none" stroke="white" stroke-width="2" stroke-linecap="round"/>
  <polygon points="105.44378179448589,90.23011859620226 113.44378179448589,98.23011859620226 105.44378179448589,106.23011859620226 97.44378179448589,98.23011859620226" fill="#4a9eff" stroke="white" stroke-width="1"/>
<polygon points="108.24328274493921,292.5770635553212 116.24328274493921,300.5770635553212 108.24328274493921,308.5770635553212 100.24328274493921,300.5770635553212" fill="#4a9eff" stroke="white" stroke-width="1"/>
</svg>