<svg xmlns="http://www.w3.org/2000/svg" viewBox="0 0 400 400">
  <rect width="400" height="400" fill="#1a1a2e"/>
  <path d="M 143.8,116.1 L 133.4,119.3 L 149.3,162.3 Z M 143.8,116.1 L 149.3,162.3 L 175.6,151.9 Z M 175.6,151.9 L 149.3,162.3 L 172.5,183.1 Z M 175.6,151.9 L 172.5,183.1 L 177.5,171.1 Z M 260.3,105.0 L 240.1,75.9 L 224.6,94.5 Z M 260.3,105.0 L 224.6,94.5 L 247.8,112.7 Z M 224.6,94.5 L 240.1,75.9 L 217.1,60.9 Z M 214.4,215.7 L 183.3,210.3 L 190.9,230.9 Z M 214.4,215.7 L 190.9,230.9 L 207.7,230.5 Z M 207.7,230.5 L 190.9,230.9 L 190.9,306.0 Z M 207.7,230.5 L 190.9,306.0 L 207.7,306.0 Z M 117.9,115.9 L 145.5,109.9 L 156.2,78.1 Z M 117.9,115.9 L 156.2,78.1 L 148.9,71.4 Z M 148.9,71.4 L 156.2,78.1 L 179.4,67.3 Z M 148.9,71.4 L 179.4,67.3 L 169.6,47.4 Z M 169.6,47.4 L 179.4,67.3 L 198.6,64.0 Z M 169.6,47.4 L 198.6,64.0 L 189.4,34.0 Z M 189.4,34.0 L 198.6,64.0 L 217.1,60.9 Z M 189.4,34.0 L 217.1,60.9 L 215.8,36.4 Z M 215.8,36.4 L 217.1,60.9 L 240.1,75.9 Z M 215.8,36.4 L 240.1,75.9 L 249.4,67.2 Z M 249.4,67.2 L 240.1,75.9 L 260.3,105.0 Z M 249.4,67.2 L 260.3,105.0 L 285.4,111.4 Z M 285.4,111.4 L 260.3,105.0 L 247.8,112.7 Z M 285.4,111.4 L 247.8,112.7 L 269.5,129.0 Z M 149.3,162.3 L 148.8,182.8 L 183.3,210.3 Z M 149.3,162.3 L 183.3,210.3 L 172.5,183.1 Z M 172.5,183.1 L 183.3,210.3 L 196.6,180.2 Z M 172.5,183.1 L 196.6,180.2 L 177.5,171.1 Z M 177.5,171.1 L 196.6,180.2 L 184.4,147.7 Z M 177.5,171.1 L 184.4,147.7 L 175.6,151.9 Z M 175.6,151.9 L 184.4,147.7 L 145.5,109.9 Z M 175.6,151.9 L 145.5,109.9 L 143.8,116.1 Z M 143.8,116.1 L 145.5,109.9 L 117.9,115.9 Z M 143.8,116.1 L 117.9,115.9 L 133.4,119.3 Z M 262.8,142.1 L 247.8,112.7 L 224.6,94.5 Z M 262.8,142.1 L 224.6,94.5 L 216.2,102.8 Z M 216.2,102.8 L 224.6,94.5 L 217.1,60.9 Z M 216.2,102.8 L 217.1,60.9 L 198.6,64.0 Z M 117.9,115.9 L 116.3,135.1 L 133.4,119.3 Z M 116.3,135.1 L 149.3,162.3 L 133.4,119.3 Z M 247.8,112.7 L 262.8,142.1 L 269.5,129.0 Z M 262.8,142.1 L 285.5,134.4 L 269.5,129.0 Z M 269.5,129.0 L 285.5,134.4 L 285.4,111.4 Z M 183.3,210.3 L 214.4,215.7 L 196.6,180.2 Z M 214.4,215.7 L 226.5,203.4 L 196.6,180.2 Z M 184.4,147.7 L 196.6,180.2 L 222.9,185.2 Z M 196.6,180.2 L 226.5,203.4 L 222.9,185.2 Z M 285.5,134.4 L 380.0,135.2 L 380.0,117.8 Z M 285.5,134.4 L 380.0,117.8 L 285.4,111.4 Z M 117.9,115.9 L 20.0,120.8 L 20.0,129.6 Z M 117.9,115.9 L 20.0,129.6 L 116.3,135.1 Z M 226.5,203.4 L 196.6,180.2 L 184.4,147.7 Z M 226.5,203.4 L 184.4,147.7 L 196.6,180.2 Z M 216.2,102.8 L 198.6,64.0 L 179.4,67.3 Z M 116.3,135.1 L 148.8,182.8 L 149.3,162.3 Z M 259.4,59.6 L 249.4,67.2 L 292.1,101.3 Z M 249.4,67.2 L 285.4,111.4 L 292.1,101.3 Z M 138.5,192.7 L 148.8,182.8 L 107.0,147.4 Z M 148.8,182.8 L 116.3,135.1 L 107.0,147.4 Z M 20.0,145.2 L 107.0,147.4 L 20.0,129.6 Z M 107.0,147.4 L 116.3,135.1 L 20.0,129.6 Z M 117.9,115.9 L 110.8,103.9 L 20.0,120.8 Z M 110.8,103.9 L 20.0,107.0 L 20.0,120.8 Z M 380.0,143.5 L 380.0,135.2 L 297.0,144.8 Z M 380.0,135.2 L 285.5,134.4 L 297.0,144.8 Z M 141.2,63.6 L 110.8,103.9 L 148.9,71.4 Z M 110.8,103.9 L 117.9,115.9 L 148.9,71.4 Z M 214.4,215.7 L 222.3,221.1 L 226.5,203.4 Z M 222.3,221.1 L 235.4,208.3 L 226.5,203.4 Z M 195.2,140.2 L 159.6,107.8 L 184.4,147.7 Z M 159.6,107.8 L 145.5,109.9 L 184.4,147.7 Z M 233.0,182.7 L 195.2,140.2 L 222.9,185.2 Z M 195.2,140.2 L 184.4,147.7 L 222.9,185.2 Z M 233.0,182.7 L 222.9,185.2 L 235.4,208.3 Z M 222.9,185.2 L 226.5,203.4 L 235.4,208.3 Z M 156.2,78.1 L 145.5,109.9 L 164.9,88.9 Z M 145.5,109.9 L 159.6,107.8 L 164.9,88.9 Z M 169.6,47.4 L 189.4,34.0 L 162.6,38.5 Z M 189.4,34.0 L 184.1,20.0 L 162.6,38.5 Z M 262.2,155.4 L 262.8,142.1 L 207.5,113.6 Z M 262.8,142.1 L 216.2,102.8 L 207.5,113.6 Z M 179.4,67.3 L 179.3,81.4 L 216.2,102.8 Z M 179.3,81.4 L 207.5,113.6 L 216.2,102.8 Z M 156.2,78.1 L 164.9,88.9 L 179.4,67.3 Z M 164.9,88.9 L 179.3,81.4 L 179.4,67.3 Z M 183.3,210.3 L 175.8,222.2 L 190.9,230.9 Z M 175.8,222.2 L 178.6,232.6 L 190.9,230.9 Z M 207.7,230.5 L 219.0,230.6 L 214.4,215.7 Z M 219.0,230.6 L 222.3,221.1 L 214.4,215.7 Z M 285.4,111.4 L 380.0,117.8 L 380.0,107.0 Z M 285.4,111.4 L 380.0,107.0 L 292.1,101.3 Z M 215.8,36.4 L 218.6,23.6 L 184.1,20.0 Z M 215.8,36.4 L 184.1,20.0 L 189.4,34.0 Z M 169.6,47.4 L 162.6,38.5 L 141.2,63.6 Z M 169.6,47.4 L 141.2,63.6 L 148.9,71.4 Z M 249.4,67.2 L 259.4,59.6 L 218.6,23.6 Z M 249.4,67.2 L 218.6,23.6 L 215.8,36.4 Z M 262.2,155.4 L 297.0,144.8 L 285.5,134.4 Z M 262.2,155.4 L 285.5,134.4 L 262.8,142.1 Z M 178.6,232.6 L 179.7,306.0 L 190.9,306.0 Z M 178.6,232.6 L 190.9,306.0 L 190.9,230.9 Z M 207.7,230.5 L 207.7,306.0 L 219.0,306.0 Z M 207.7,230.5 L 219.0,306.0 L 219.0,230.6 Z M 148.8,182.8 L 138.5,192.7 L 175.8,222.2 Z M 148.8,182.8 L 175.8,222.2 L 183.3,210.3 Z M 180.5,176.1 L 191.2,186.9 L 191.2,165.4 Z M 169.8,165.4 L 169.8,186.9 L 180.5,176.1 Z M 191.2,165.4 L 169.8,165.4 L 180.5,176.1 Z M 169.8,186.9 L 191.2,186.9 L 180.5,176.1 Z M 201.1,68.3 L 206.8,76.6 L 209.1,62.3 Z M 195.4,60.0 L 193.1,74.2 L 201.1,68.3 Z M 209.1,62.3 L 195.4,60.0 L 201.1,68.3 Z M 193.1,74.2 L 206.8,76.6 L 201.1,68.3 Z M 227.9,75.1 L 232.1,82.7 L 235.5,70.8 Z M 223.7,67.4 L 220.3,79.3 L 227.9,75.1 Z M 235.5,70.8 L 223.7,67.4 L 227.9,75.1 Z M 220.3,79.3 L 232.1,82.7 L 227.9,75.1 Z M 267.9,127.4 L 276.1,133.4 L 274.2,119.6 Z M 259.6,121.4 L 261.5,135.2 L 267.9,127.4 Z M 274.2,119.6 L 259.6,121.4 L 267.9,127.4 Z M 261.5,135.2 L 276.1,133.4 L 267.9,127.4 Z" fill="#2a2a4e" stroke="none"/>
  <path d="M 190.9,306.0 L 207.7,306.0 M 380.0,135.2 L 380.0,117.8 M 20.0,120.8 L 20.0,129.6 M 292.1,101.3 L 259.4,59.6 M 107.0,147.4 L 138.5,192.7 M 20.0,145.2 L 107.0,147.4 M 20.0,129.6 L 20.0,145.2 M 110.8,103.9 L 20.0,107.0 M 20.0,107.0 L 20.0,120.8 M 380.0,143.5 L 380.0,135.2 M 297.0,144.8 L 380.0,143.5 M 141.2,63.6 L 110.8,103.9 M 222.3,221.1 L 235.4,208.3 M 195.2,140.2 L 159.6,107.8 M 233.0,182.7 L 195.2,140.2 M 235.4,208.3 L 233.0,182.7 M 159.6,107.8 L 164.9,88.9 M 184.1,20.0 L 162.6,38.5 M 207.5,113.6 L 262.2,155.4 M 179.3,81.4 L 207.5,113.6 M 164.9,88.9 L 179.3,81.4 M 175.8,222.2 L 178.6,232.6 M 219.0,230.6 L 222.3,221.1 M 380.0,117.8 L 380.0,107.0 M 380.0,107.0 L 292.1,101.3 M 218.6,23.6 L 184.1,20.0 M 162.6,38.5 L 141.2,63.6 M 259.4,59.6 L 218.6,23.6 M 262.2,155.4 L 297.0,144.8 M 178.6,232.6 L 179.7,306.0 M 179.7,306.0 L 190.9,306.0 M 207.7,306.0 L 219.0,306.0 M 219.0,306.0 L 219.0,230.6 M 138.5,192.7 L 175.8,222.2 M 191.2,186.9 L 191.2,165.4 M 169.8,165.4 L 169.8,186.9 M 191.2,165.4 L 169.8,165.4 M 169.8,186.9 L 191.2,186.9 M 206.8,76.6 L 209.1,62.3 M 195.4,60.0 L 193.1,74.2 M 209.1,62.3 L 195.4,60.0 M 193.1,74.2 L 206.8,76.6 M 232.1,82.7 L 235.5,70.8 M 223.7,67.4 L 220.3,79.3 M 235.5,70.8 L 223.7,67.4 M 220.3,79.3 L 232.1,82.7 M 276.1,133.4 L 274.2,119.6 M 259.6,121.4 L 261.5,135.2 M 274.2,119.6 L 259.6,121.4 M 261.5,135.2 L 276.1,133.4" fill="none" stroke="white" stroke-width="2" stroke-linecap="round"/>
  <polygon points="104.93965864480191,117.11357406517948 112.93965864480191,125.11357406517948 104.93965864480191,133.11357406517948 96.93965864480191,125.11357406517948" fill="#4a9eff" stroke="white" stroke-width="1"/>
<polygon points="299.670427376427,115.25065120248202 307.670427376427,123.25065120248202 299.670427376427,131.250651202482 291.670427376427,123.25065120248202" fill="#4a9eff" stroke="white" stroke-width="1"/>
<polygon points="198.6036622295562,224.25140035042668 206.6036622295562,232.25140035042668 198.6036622295562,240.25140035042668 190.6036622295562,232.25140035042668" fill="#4a9eff" stroke="white" stroke-width="1"/>
</svg>