<svg xmlns="http://www.w3.org/2000/svg" viewBox="0 0 400 400">
  <rect width="400" height="400" fill="#1a1a2e"/>
  <path d="M 98.0,218.9 L 98.3,380.0 L 151.7,380.0 Z M 98.0,218.9 L 151.7,380.0 L 153.2,218.8 Z M 153.2,218.8 L 212.0,160.3 L 212.0,90.8 Z M 153.2,218.8 L 212.0,90.8 L 126.6,125.7 Z M 126.6,125.7 L 212.0,90.8 L 160.0,39.0 Z M 126.6,125.7 L 160.0,39.0 L 90.6,39.1 Z M 90.6,39.1 L 38.8,90.8 L 39.0,159.9 Z M 90.6,39.1 L 39.0,159.9 L 126.6,125.7 Z M 126.6,125.7 L 39.0,159.9 L 98.0,218.9 Z M 126.6,125.7 L 98.0,218.9 L 153.2,218.8 Z M 153.2,218.8 L 168.0,230.8 L 230.9,168.0 Z M 153.2,218.8 L 230.9,168.0 L 212.0,160.3 Z M 39.0,159.9 L 20.1,168.0 L 82.9,230.8 Z M 39.0,159.9 L 82.9,230.8 L 98.0,218.9 Z M 212.0,160.3 L 230.9,168.0 L 230.9,82.9 Z M 212.0,160.3 L 230.9,82.9 L 212.0,90.8 Z M 38.8,90.8 L 20.0,82.9 L 20.1,168.0 Z M 38.8,90.8 L 20.1,168.0 L 39.0,159.9 Z M 212.0,90.8 L 230.9,82.9 L 168.0,20.0 Z M 212.0,90.8 L 168.0,20.0 L 160.0,39.0 Z M 82.9,20.0 L 20.0,82.9 L 38.8,90.8 Z M 82.9,20.0 L 38.8,90.8 L 90.6,39.1 Z M 151.7,380.0 L 167.9,380.0 L 168.0,230.8 Z M 151.7,380.0 L 168.0,230.8 L 153.2,218.8 Z M 98.0,218.9 L 82.9,230.8 L 82.9,380.0 Z M 98.0,218.9 L 82.9,380.0 L 98.3,380.0 Z M 167.5,378.9 L 167.5,369.9 L 83.2,370.2 Z M 167.5,378.9 L 83.2,370.2 L 83.8,378.9 Z M 82.9,20.0 L 90.6,39.1 L 160.0,39.0 Z M 82.9,20.0 L 160.0,39.0 L 168.0,20.0 Z" fill="#2a2a4e" stroke="none"/>
  <path d="M 98.3,380.0 L 151.7,380.0 M 168.0,230.8 L 230.9,168.0 M 20.1,168.0 L 82.9,230.8 M 230.9,168.0 L 230.9,82.9 M 20.0,82.9 L 20.1,168.0 M 230.9,82.9 L 168.0,20.0 M 82.9,20.0 L 20.0,82.9 M 151.7,380.0 L 167.9,380.0 M 167.9,380.0 L 168.0,230.8 M 82.9,230.8 L 82.9,380.0 M 82.9,380.0 L 98.3,380.0 M 167.5,378.9 L 167.5,369.9 M 167.5,369.9 L 83.2,370.2 M 83.2,370.2 L 83.8,378.9 M 83.8,378.9 L 167.5,378.9 M 168.0,20.0 L 82.9,20.0" fill="none" stroke="white" stroke-width="2" stroke-linecap="round"/>
  <polygon points="126.73436755904525,227.46192698648522 134.73436755904527,235.46192698648522 126.73436755904525,243.46192698648522 118.73436755904525,235.46192698648522" fill="#4a9eff" stroke="white" stroke-width="1"/>
</svg>