<svg xmlns="http://www.w3.org/2000/svg" viewBox="0 0 400 400">
  <rect width="400" height="400" fill="#1a1a2e"/>
  <path d="M 152.6,60.1 L 123.1,77.0 L 110.8,101.6 Z M 152.6,60.1 L 110.8,101.6 L 155.6,96.9 Z M 155.6,96.9 L 110.8,101.6 L 119.7,124.4 Z M 155.6,96.9 L 119.7,124.4 L 152.8,119.9 Z M 149.0,149.4 L 125.7,159.3 L 115.9,190.0 Z M 149.0,149.4 L 115.9,190.0 L 152.4,190.9 Z M 152.4,190.9 L 115.9,190.0 L 122.4,227.3 Z M 152.4,190.9 L 122.4,227.3 L 152.5,226.3 Z M 165.7,84.0 L 152.6,60.1 L 155.6,96.9 Z M 170.9,204.1 L 152.4,190.9 L 152.5,226.3 Z M 122.4,227.3 L 115.9,190.0 L 91.5,194.7 Z M 141.4,132.3 L 152.8,119.9 L 119.7,124.4 Z M 133.5,380.0 L 144.7,380.0 L 151.3,257.5 Z M 133.5,380.0 L 151.3,257.5 L 124.6,256.9 Z M 124.6,256.9 L 151.3,257.5 L 152.5,226.3 Z M 124.6,256.9 L 152.5,226.3 L 122.4,227.3 Z M 165.7,84.0 L 182.4,55.6 L 161.3,36.9 Z M 165.7,84.0 L 161.3,36.9 L 152.6,60.1 Z M 152.6,60.1 L 161.3,36.9 L 119.8,36.0 Z M 152.6,60.1 L 119.8,36.0 L 123.1,77.0 Z M 123.1,77.0 L 119.8,36.0 L 58.9,67.1 Z M 123.1,77.0 L 58.9,67.1 L 88.7,95.9 Z M 70.5,226.5 L 91.5,194.7 L 53.7,202.9 Z M 91.5,194.7 L 53.7,186.4 L 53.7,202.9 Z M 152.8,119.9 L 158.0,119.7 L 155.6,96.9 Z M 158.0,119.7 L 238.5,121.5 L 155.6,96.9 Z M 155.6,96.9 L 238.5,121.5 L 183.0,85.1 Z M 238.5,121.5 L 226.9,77.4 L 183.0,85.1 Z M 183.0,85.1 L 226.9,77.4 L 182.4,55.6 Z M 119.7,124.4 L 125.7,159.3 L 141.4,132.3 Z M 125.7,159.3 L 149.0,149.4 L 141.4,132.3 Z M 141.4,132.3 L 149.0,149.4 L 152.8,119.9 Z M 183.8,242.3 L 208.8,215.8 L 170.9,204.1 Z M 208.8,215.8 L 214.9,183.6 L 170.9,204.1 Z M 155.6,96.9 L 183.0,85.1 L 165.7,84.0 Z M 183.0,85.1 L 182.4,55.6 L 165.7,84.0 Z M 58.9,67.1 L 35.9,101.3 L 88.7,95.9 Z M 35.9,101.3 L 66.9,120.2 L 88.7,95.9 Z M 170.9,204.1 L 214.9,183.6 L 158.8,176.6 Z M 170.9,204.1 L 158.8,176.6 L 152.4,190.9 Z M 110.7,120.4 L 113.6,176.4 L 125.7,159.3 Z M 110.7,120.4 L 125.7,159.3 L 119.7,124.4 Z M 91.5,194.7 L 70.5,226.5 L 124.6,256.9 Z M 91.5,194.7 L 124.6,256.9 L 122.4,227.3 Z M 149.0,149.4 L 158.8,176.6 L 158.0,119.7 Z M 149.0,149.4 L 158.0,119.7 L 152.8,119.9 Z M 66.9,120.2 L 110.7,120.4 L 110.8,101.6 Z M 66.9,120.2 L 110.8,101.6 L 88.7,95.9 Z M 115.9,190.0 L 113.6,176.4 L 53.7,186.4 Z M 115.9,190.0 L 53.7,186.4 L 91.5,194.7 Z M 183.8,242.3 L 170.9,204.1 L 152.5,226.3 Z M 183.8,242.3 L 152.5,226.3 L 151.3,257.5 Z M 110.8,101.6 L 110.7,120.4 L 119.7,124.4 Z M 125.7,159.3 L 113.6,176.4 L 115.9,190.0 Z M 152.4,190.9 L 158.8,176.6 L 149.0,149.4 Z M 88.7,95.9 L 110.8,101.6 L 123.1,77.0 Z M 161.9,380.0 L 166.8,265.8 L 144.7,380.0 Z M 166.8,265.8 L 151.3,257.5 L 144.7,380.0 Z M 124.6,256.9 L 112.3,266.7 L 133.5,380.0 Z M 112.3,266.7 L 115.5,380.0 L 133.5,380.0 Z M 60.5,234.7 L 112.3,266.7 L 70.5,226.5 Z M 112.3,266.7 L 124.6,256.9 L 70.5,226.5 Z M 70.5,226.5 L 53.7,202.9 L 60.5,234.7 Z M 53.7,202.9 L 39.7,206.5 L 60.5,234.7 Z M 214.9,183.6 L 208.8,215.8 L 228.7,175.6 Z M 208.8,215.8 L 224.7,222.9 L 228.7,175.6 Z M 228.7,175.6 L 172.0,166.7 L 214.9,183.6 Z M 172.0,166.7 L 158.8,176.6 L 214.9,183.6 Z M 172.0,166.7 L 169.5,131.5 L 158.8,176.6 Z M 169.5,131.5 L 158.0,119.7 L 158.8,176.6 Z M 238.6,131.5 L 238.5,121.5 L 169.5,131.5 Z M 238.5,121.5 L 158.0,119.7 L 169.5,131.5 Z M 58.6,133.7 L 98.5,134.7 L 66.9,120.2 Z M 98.5,134.7 L 110.7,120.4 L 66.9,120.2 Z M 110.7,120.4 L 98.5,134.7 L 113.6,176.4 Z M 98.5,134.7 L 99.1,163.7 L 113.6,176.4 Z M 40.9,175.3 L 53.7,186.4 L 99.1,163.7 Z M 53.7,186.4 L 113.6,176.4 L 99.1,163.7 Z M 238.6,71.3 L 190.7,43.0 L 226.9,77.4 Z M 190.7,43.0 L 182.4,55.6 L 226.9,77.4 Z M 119.8,36.0 L 114.7,20.0 L 47.8,51.5 Z M 119.8,36.0 L 47.8,51.5 L 58.9,67.1 Z M 183.8,242.3 L 191.9,254.9 L 224.7,222.9 Z M 183.8,242.3 L 224.7,222.9 L 208.8,215.8 Z M 226.9,77.4 L 238.5,121.5 L 253.0,119.1 Z M 226.9,77.4 L 253.0,119.1 L 238.6,71.3 Z M 161.3,36.9 L 182.4,55.6 L 190.7,43.0 Z M 161.3,36.9 L 190.7,43.0 L 167.6,24.4 Z M 20.0,94.6 L 35.9,101.3 L 58.9,67.1 Z M 20.0,94.6 L 58.9,67.1 L 47.8,51.5 Z M 66.9,120.2 L 35.9,101.3 L 27.1,115.3 Z M 66.9,120.2 L 27.1,115.3 L 58.6,133.7 Z M 114.7,20.0 L 119.8,36.0 L 161.3,36.9 Z M 114.7,20.0 L 161.3,36.9 L 167.6,24.4 Z M 53.7,202.9 L 53.7,186.4 L 40.9,175.3 Z M 53.7,202.9 L 40.9,175.3 L 39.7,206.5 Z M 191.9,254.9 L 183.8,242.3 L 151.3,257.5 Z M 191.9,254.9 L 151.3,257.5 L 166.8,265.8 Z M 168.9,209.8 L 174.0,224.2 L 183.3,204.7 Z M 163.9,195.4 L 154.6,214.9 L 168.9,209.8 Z M 183.3,204.7 L 163.9,195.4 L 168.9,209.8 Z M 154.6,214.9 L 174.0,224.2 L 168.9,209.8 Z M 164.1,87.1 L 174.4,101.6 L 178.6,76.7 Z M 153.7,72.5 L 149.6,97.5 L 164.1,87.1 Z M 178.6,76.7 L 153.7,72.5 L 164.1,87.1 Z M 149.6,97.5 L 174.4,101.6 L 164.1,87.1 Z M 113.0,214.3 L 128.8,218.3 L 117.0,198.5 Z M 97.2,210.2 L 109.0,230.0 L 113.0,214.3 Z M 117.0,198.5 L 97.2,210.2 L 113.0,214.3 Z M 109.0,230.0 L 128.8,218.3 L 113.0,214.3 Z M 139.2,131.0 L 141.8,143.8 L 152.0,128.4 Z M 136.7,118.1 L 126.4,133.6 L 139.2,131.0 Z M 152.0,128.4 L 136.7,118.1 L 139.2,131.0 Z M 126.4,133.6 L 141.8,143.8 L 139.2,131.0 Z M 85.8,102.6 L 92.0,118.9 L 102.1,96.4 Z M 79.6,86.3 L 69.5,108.9 L 85.8,102.6 Z M 102.1,96.4 L 79.6,86.3 L 85.8,102.6 Z M 69.5,108.9 L 92.0,118.9 L 85.8,102.6 Z M 20.0,94.6 L 27.1,115.3 L 35.9,101.3 Z M 238.5,121.5 L 238.6,131.5 L 253.0,119.1 Z" fill="#2a2a4e" stroke="none"/>
  <path d="M 133.5,380.0 L 144.7,380.0 M 161.9,380.0 L 166.8,265.8 M 144.7,380.0 L 161.9,380.0 M 112.3,266.7 L 115.5,380.0 M 115.5,380.0 L 133.5,380.0 M 60.5,234.7 L 112.3,266.7 M 39.7,206.5 L 60.5,234.7 M 224.7,222.9 L 228.7,175.6 M 228.7,175.6 L 172.0,166.7 M 172.0,166.7 L 169.5,131.5 M 169.5,131.5 L 238.6,131.5 M 58.6,133.7 L 98.5,134.7 M 98.5,134.7 L 99.1,163.7 M 99.1,163.7 L 40.9,175.3 M 238.6,71.3 L 190.7,43.0 M 114.7,20.0 L 47.8,51.5 M 191.9,254.9 L 224.7,222.9 M 253.0,119.1 L 238.6,71.3 M 190.7,43.0 L 167.6,24.4 M 47.8,51.5 L 20.0,94.6 M 27.1,115.3 L 58.6,133.7 M 167.6,24.4 L 114.7,20.0 M 40.9,175.3 L 39.7,206.5 M 166.8,265.8 L 191.9,254.9 M 174.0,224.2 L 183.3,204.7 M 163.9,195.4 L 154.6,214.9 M 183.3,204.7 L 163.9,195.4 M 154.6,214.9 L 174.0,224.2 M 174.4,101.6 L 178.6,76.7 M 153.7,72.5 L 149.6,97.5 M 178.6,76.7 L 153.7,72.5 M 149.6,97.5 L 174.4,101.6 M 128.8,218.3 L 117.0,198.5 M 97.2,210.2 L 109.0,230.0 M 117.0,198.5 L 97.2,210.2 M 109.0,230.0 L 128.8,218.3 M 141.8,143.8 L 152.0,128.4 M 136.7,118.1 L 126.4,133.6 M 152.0,128.4 L 136.7,118.1 M 126.4,133.6 L 141.8,143.8 M 92.0,118.9 L 102.1,96.4 M 79.6,86.3 L 69.5,108.9 M 102.1,96.4 L 79.6,86.3 M 69.5,108.9 L 92.0,118.9 M 20.0,94.6 L 27.1,115.3 M 238.6,131.5 L 253.0,119.1" fill="none" stroke="white" stroke-width="2" stroke-linecap="round"/>
  <polygon points="141.22864646299632,271.83571283632017 149.22864646299632,279.83571283632017 141.22864646299632,287.83571283632017 133.22864646299632,279.83571283632017" fill="#4a9eff" stroke="white" stroke-width="1"/>
</svg>