<svg xmlns="http://www.w3.org/2000/svg" viewBox="0 0 400 400">
  <rect width="400" height="400" fill="#1a1a2e"/>
  <path d="M 74.3,220.9 L 44.4,229.5 L 42.8,261.6 Z M 74.3,220.9 L 42.8,261.6 L 81.3,245.9 Z M 81.3,245.9 L 42.8,261.6 L 87.4,308.6 Z M 81.3,245.9 L 87.4,308.6 L 101.7,296.8 Z M 101.7,296.8 L 87.4,308.6 L 134.6,354.8 Z M 101.7,296.8 L 134.6,354.8 L 129.8,306.7 Z M 129.8,306.7 L 134.6,354.8 L 165.5,354.1 Z M 129.8,306.7 L 165.5,354.1 L 165.3,318.3 Z M 165.3,318.3 L 165.5,354.1 L 222.4,305.6 Z M 165.3,318.3 L 222.4,305.6 L 212.9,293.9 Z M 212.9,293.9 L 222.4,305.6 L 260.2,257.8 Z M 212.9,293.9 L 260.2,257.8 L 227.0,262.0 Z M 260.2,237.9 L 222.7,244.8 L 260.2,257.8 Z M 222.7,244.8 L 227.0,262.0 L 260.2,257.8 Z M 44.4,229.5 L 74.3,220.9 L 82.7,193.6 Z M 74.3,220.9 L 123.2,184.0 L 82.7,193.6 Z M 82.7,193.6 L 123.2,184.0 L 148.1,149.3 Z M 82.7,193.6 L 148.1,149.3 L 139.7,138.2 Z M 147.3,20.0 L 148.1,149.3 L 163.3,143.4 Z M 147.3,20.0 L 163.3,143.4 L 158.5,20.0 Z M 198.1,184.9 L 222.7,244.8 L 260.2,237.9 Z M 198.1,184.9 L 260.2,237.9 L 217.5,188.8 Z M 379.9,235.5 L 260.2,237.9 L 260.2,257.8 Z M 379.9,235.5 L 260.2,257.8 L 380.0,257.3 Z M 147.3,20.0 L 139.7,138.2 L 148.1,149.3 Z M 217.5,188.8 L 163.3,143.4 L 198.1,184.9 Z M 159.5,186.3 L 148.1,149.3 L 123.2,184.0 Z M 159.5,186.3 L 123.2,184.0 L 131.9,201.1 Z M 131.9,201.1 L 123.2,184.0 L 74.3,220.9 Z M 131.9,201.1 L 74.3,220.9 L 99.0,226.1 Z M 168.5,204.2 L 195.7,212.8 L 198.1,184.9 Z M 195.7,212.8 L 222.7,244.8 L 198.1,184.9 Z M 195.9,266.3 L 163.4,294.4 L 212.9,293.9 Z M 163.4,294.4 L 165.3,318.3 L 212.9,293.9 Z M 165.3,318.3 L 163.4,294.4 L 129.8,306.7 Z M 163.4,294.4 L 134.5,293.5 L 129.8,306.7 Z M 129.8,306.7 L 134.5,293.5 L 101.7,296.8 Z M 168.5,204.2 L 198.1,184.9 L 163.3,143.4 Z M 168.5,204.2 L 163.3,143.4 L 159.5,186.3 Z M 81.3,245.9 L 101.7,296.8 L 134.5,293.5 Z M 81.3,245.9 L 134.5,293.5 L 107.4,254.7 Z M 81.3,245.9 L 107.4,254.7 L 99.0,226.1 Z M 81.3,245.9 L 99.0,226.1 L 74.3,220.9 Z M 159.5,186.3 L 163.3,143.4 L 148.1,149.3 Z M 168.5,204.2 L 159.5,186.3 L 131.9,201.1 Z M 222.7,244.8 L 195.7,212.8 L 195.9,266.3 Z M 195.9,266.3 L 212.9,293.9 L 227.0,262.0 Z M 227.0,262.0 L 222.7,244.8 L 195.9,266.3 Z M 163.4,294.4 L 195.9,266.3 L 163.0,246.4 Z M 195.9,266.3 L 195.7,212.8 L 163.0,246.4 Z M 163.0,246.4 L 195.7,212.8 L 168.5,204.2 Z M 131.9,201.1 L 99.0,226.1 L 132.4,236.7 Z M 99.0,226.1 L 107.4,254.7 L 132.4,236.7 Z M 132.4,236.7 L 107.4,254.7 L 163.0,246.4 Z M 107.4,254.7 L 151.1,266.1 L 163.0,246.4 Z M 163.0,246.4 L 151.1,266.1 L 163.4,294.4 Z M 151.1,266.1 L 134.5,293.5 L 163.4,294.4 Z M 168.5,204.2 L 131.9,201.1 L 132.4,236.7 Z M 168.5,204.2 L 132.4,236.7 L 163.0,246.4 Z M 107.4,254.7 L 134.5,293.5 L 151.1,266.1 Z M 222.4,305.6 L 165.5,354.1 L 236.0,320.1 Z M 165.5,354.1 L 177.2,376.3 L 236.0,320.1 Z M 64.4,178.0 L 82.7,193.6 L 127.3,121.3 Z M 82.7,193.6 L 139.7,138.2 L 127.3,121.3 Z M 44.4,229.5 L 20.0,224.6 L 42.8,261.6 Z M 20.0,224.6 L 20.0,269.2 L 42.8,261.6 Z M 129.1,20.0 L 127.3,121.3 L 147.3,20.0 Z M 127.3,121.3 L 139.7,138.2 L 147.3,20.0 Z M 163.3,143.4 L 180.3,125.2 L 158.5,20.0 Z M 180.3,125.2 L 176.2,20.0 L 158.5,20.0 Z M 20.0,269.2 L 73.7,322.5 L 42.8,261.6 Z M 73.7,322.5 L 87.4,308.6 L 42.8,261.6 Z M 134.6,354.8 L 87.4,308.6 L 124.3,376.0 Z M 87.4,308.6 L 73.7,322.5 L 124.3,376.0 Z M 260.2,257.8 L 222.4,305.6 L 273.4,273.1 Z M 222.4,305.6 L 236.0,320.1 L 273.4,273.1 Z M 20.0,224.6 L 44.4,229.5 L 64.4,178.0 Z M 44.4,229.5 L 82.7,193.6 L 64.4,178.0 Z M 165.5,354.1 L 134.6,354.8 L 177.2,376.3 Z M 134.6,354.8 L 124.3,376.0 L 177.2,376.3 Z M 260.2,237.9 L 379.9,235.5 L 379.9,222.2 Z M 260.2,237.9 L 379.9,222.2 L 279.1,222.6 Z M 217.5,188.8 L 260.2,237.9 L 279.1,222.6 Z M 217.5,188.8 L 279.1,222.6 L 233.3,172.2 Z M 163.3,143.4 L 217.5,188.8 L 233.3,172.2 Z M 163.3,143.4 L 233.3,172.2 L 180.3,125.2 Z M 260.2,257.8 L 273.4,273.1 L 380.0,270.4 Z M 260.2,257.8 L 380.0,270.4 L 380.0,257.3 Z M 117.8,274.3 L 128.9,285.4 L 128.9,263.3 Z M 106.8,263.3 L 106.8,285.4 L 117.8,274.3 Z M 128.9,263.3 L 106.8,263.3 L 117.8,274.3 Z M 106.8,285.4 L 128.9,285.4 L 117.8,274.3 Z M 97.9,226.9 L 108.3,237.5 L 108.3,216.4 Z M 87.4,216.4 L 87.4,237.5 L 97.9,226.9 Z M 108.3,216.4 L 87.4,216.4 L 97.9,226.9 Z M 87.4,237.5 L 108.3,237.5 L 97.9,226.9 Z M 174.2,210.9 L 182.8,222.9 L 186.2,202.4 Z M 165.7,199.0 L 162.3,219.5 L 174.2,210.9 Z M 186.2,202.4 L 165.7,199.0 L 174.2,210.9 Z M 162.3,219.5 L 182.8,222.9 L 174.2,210.9 Z M 142.9,249.7 L 149.6,261.6 L 154.9,243.0 Z M 136.3,237.7 L 131.0,256.3 L 142.9,249.7 Z M 154.9,243.0 L 136.3,237.7 L 142.9,249.7 Z M 131.0,256.3 L 149.6,261.6 L 142.9,249.7 Z" fill="#2a2a4e" stroke="none"/>
  <path d="M 158.5,20.0 L 147.3,20.0 M 380.0,257.3 L 379.9,235.5 M 177.2,376.3 L 236.0,320.1 M 127.3,121.3 L 64.4,178.0 M 20.0,224.6 L 20.0,269.2 M 129.1,20.0 L 127.3,121.3 M 147.3,20.0 L 129.1,20.0 M 180.3,125.2 L 176.2,20.0 M 176.2,20.0 L 158.5,20.0 M 20.0,269.2 L 73.7,322.5 M 73.7,322.5 L 124.3,376.0 M 236.0,320.1 L 273.4,273.1 M 64.4,178.0 L 20.0,224.6 M 124.3,376.0 L 177.2,376.3 M 379.9,235.5 L 379.9,222.2 M 379.9,222.2 L 279.1,222.6 M 279.1,222.6 L 233.3,172.2 M 233.3,172.2 L 180.3,125.2 M 273.4,273.1 L 380.0,270.4 M 380.0,270.4 L 380.0,257.3 M 128.9,285.4 L 128.9,263.3 M 106.8,263.3 L 106.8,285.4 M 128.9,263.3 L 106.8,263.3 M 106.8,285.4 L 128.9,285.4 M 108.3,237.5 L 108.3,216.4 M 87.4,216.4 L 87.4,237.5 M 108.3,216.4 L 87.4,216.4 M 87.4,237.5 L 108.3,237.5 M 182.8,222.9 L 186.2,202.4 M 165.7,199.0 L 162.3,219.5 M 186.2,202.4 L 165.7,199.0 M 162.3,219.5 L 182.8,222.9 M 149.6,261.6 L 154.9,243.0 M 136.3,237.7 L 131.0,256.3 M 154.9,243.0 L 136.3,237.7 M 131.0,256.3 L 149.6,261.6" fill="none" stroke="white" stroke-width="2" stroke-linecap="round"/>
  <polygon points="280.21859718406193,233.87447538356525 288.21859718406193,241.87447538356525 280.21859718406193,249.87447538356525 272.21859718406193,241.87447538356525" fill="#4a9eff" stroke="white" stroke-width="1"/>
<polygon points="153.01300459945955,111.18454302210124 161.01300459945955,119.18454302210124 153.01300459945955,127.18454302210124 145.01300459945955,119.18454302210124" fill="#4a9eff" stroke="white" stroke-width="1"/>
</svg>