<svg xmlns="http://www.w3.org/2000/svg" viewBox="0 0 400 400">
  <rect width="400" height="400" fill="#1a1a2e"/>
  <path d="M 164.0,114.2 L 179.6,98.5 L 165.3,84.0 Z M 164.0,114.2 L 165.3,84.0 L 149.7,99.7 Z M 188.5,173.3 L 188.5,243.2 L 211.5,243.2 Z M 188.5,173.3 L 211.5,243.2 L 211.5,173.3 Z M 234.7,84.0 L 220.4,98.5 L 236.0,114.2 Z M 234.7,84.0 L 236.0,114.2 L 250.3,99.7 Z M 90.5,52.5 L 20.7,52.6 L 20.7,74.8 Z M 90.5,52.5 L 20.7,74.8 L 90.6,75.4 Z M 309.5,75.2 L 379.3,75.1 L 379.3,52.9 Z M 309.5,75.2 L 379.3,52.9 L 309.4,52.3 Z M 206.7,103.7 L 217.7,90.6 L 182.3,90.6 Z M 206.7,103.7 L 182.3,90.6 L 171.3,103.7 Z M 171.3,103.7 L 182.3,90.6 L 173.2,81.5 Z M 171.3,103.7 L 173.2,81.5 L 162.2,94.5 Z M 208.6,243.9 L 217.2,242.7 L 217.2,178.0 Z M 208.6,243.9 L 217.2,178.0 L 208.6,183.3 Z M 173.2,46.2 L 162.2,59.2 L 162.2,94.5 Z M 173.2,46.2 L 162.2,94.5 L 173.2,81.5 Z M 85.9,46.7 L 21.1,46.7 L 20.0,55.3 Z M 85.9,46.7 L 20.0,55.3 L 80.5,55.3 Z M 380.0,55.3 L 378.9,46.7 L 314.1,46.7 Z M 380.0,55.3 L 314.1,46.7 L 319.5,55.3 Z M 149.7,99.7 L 165.3,84.0 L 165.4,49.4 Z M 149.7,99.7 L 165.4,49.4 L 129.4,63.9 Z M 129.4,63.9 L 165.4,49.4 L 143.8,27.9 Z M 129.4,63.9 L 143.8,27.9 L 114.9,27.9 Z M 236.0,114.2 L 220.4,98.5 L 200.1,134.5 Z M 236.0,114.2 L 200.1,134.5 L 236.0,148.7 Z M 236.0,148.7 L 200.1,134.5 L 188.5,173.3 Z M 236.0,148.7 L 188.5,173.3 L 211.5,173.3 Z M 309.4,52.3 L 285.1,27.9 L 256.2,27.9 Z M 309.4,52.3 L 256.2,27.9 L 273.4,64.1 Z M 273.4,64.1 L 256.2,27.9 L 234.6,49.4 Z M 273.4,64.1 L 234.6,49.4 L 234.7,84.0 Z M 114.9,27.9 L 90.5,52.5 L 90.6,75.4 Z M 114.9,27.9 L 90.6,75.4 L 129.4,63.9 Z M 129.4,63.9 L 90.6,75.4 L 115.0,99.7 Z M 129.4,63.9 L 115.0,99.7 L 149.7,99.7 Z M 164.1,148.9 L 188.5,173.3 L 200.1,134.5 Z M 164.1,148.9 L 200.1,134.5 L 164.0,114.2 Z M 164.0,114.2 L 200.1,134.5 L 220.4,98.5 Z M 164.0,114.2 L 220.4,98.5 L 179.6,98.5 Z M 234.7,84.0 L 250.3,99.7 L 285.0,99.7 Z M 234.7,84.0 L 285.0,99.7 L 273.4,64.1 Z M 273.4,64.1 L 285.0,99.7 L 309.5,75.2 Z M 273.4,64.1 L 309.5,75.2 L 309.4,52.3 Z M 111.7,20.0 L 85.6,46.2 L 90.5,52.5 Z M 111.7,20.0 L 90.5,52.5 L 114.9,27.9 Z M 85.6,81.5 L 111.7,107.6 L 115.0,99.7 Z M 85.6,81.5 L 115.0,99.7 L 90.6,75.4 Z M 147.0,20.0 L 111.7,20.0 L 114.9,27.9 Z M 147.0,20.0 L 114.9,27.9 L 143.8,27.9 Z M 173.2,81.5 L 173.2,46.2 L 165.4,49.4 Z M 173.2,81.5 L 165.4,49.4 L 165.3,84.0 Z M 111.7,107.6 L 147.0,107.6 L 149.7,99.7 Z M 111.7,107.6 L 149.7,99.7 L 115.0,99.7 Z M 149.7,99.7 L 147.0,107.6 L 156.2,116.8 Z M 149.7,99.7 L 156.2,116.8 L 164.0,114.2 Z M 156.2,152.1 L 182.3,178.2 L 188.5,173.3 Z M 156.2,152.1 L 188.5,173.3 L 164.1,148.9 Z M 217.7,178.2 L 243.8,152.1 L 236.0,148.7 Z M 217.7,178.2 L 236.0,148.7 L 211.5,173.3 Z M 217.7,90.6 L 182.3,90.6 L 179.6,98.5 Z M 217.7,90.6 L 179.6,98.5 L 220.4,98.5 Z M 243.8,152.1 L 243.8,116.8 L 236.0,114.2 Z M 243.8,152.1 L 236.0,114.2 L 236.0,148.7 Z M 156.2,116.8 L 156.2,152.1 L 164.1,148.9 Z M 156.2,116.8 L 164.1,148.9 L 164.0,114.2 Z M 165.3,84.0 L 179.6,98.5 L 182.3,90.6 Z M 165.3,84.0 L 182.3,90.6 L 173.2,81.5 Z M 211.5,243.2 L 217.7,243.2 L 217.7,178.2 Z M 211.5,243.2 L 217.7,178.2 L 211.5,173.3 Z M 188.5,173.3 L 182.3,178.2 L 182.3,243.2 Z M 188.5,173.3 L 182.3,243.2 L 188.5,243.2 Z M 309.4,52.3 L 314.4,46.1 L 288.3,20.0 Z M 309.4,52.3 L 288.3,20.0 L 285.1,27.9 Z M 285.0,99.7 L 288.3,107.6 L 314.4,81.5 Z M 285.0,99.7 L 314.4,81.5 L 309.5,75.2 Z M 285.1,27.9 L 288.3,20.0 L 252.9,20.0 Z M 285.1,27.9 L 252.9,20.0 L 256.2,27.9 Z M 234.6,49.4 L 226.8,46.2 L 226.8,81.5 Z M 234.6,49.4 L 226.8,81.5 L 234.7,84.0 Z M 250.3,99.7 L 253.0,107.6 L 288.3,107.6 Z M 250.3,99.7 L 288.3,107.6 L 285.0,99.7 Z M 243.8,116.8 L 253.0,107.6 L 250.3,99.7 Z M 243.8,116.8 L 250.3,99.7 L 236.0,114.2 Z M 217.7,90.6 L 220.4,98.5 L 234.7,84.0 Z M 217.7,90.6 L 234.7,84.0 L 226.8,81.5 Z M 20.7,74.8 L 20.7,81.5 L 85.6,81.5 Z M 20.7,74.8 L 85.6,81.5 L 90.6,75.4 Z M 90.5,52.5 L 85.6,46.2 L 20.7,46.2 Z M 90.5,52.5 L 20.7,46.2 L 20.7,52.6 Z M 256.2,27.9 L 252.9,20.0 L 226.8,46.2 Z M 256.2,27.9 L 226.8,46.2 L 234.6,49.4 Z M 173.2,46.2 L 147.0,20.0 L 143.8,27.9 Z M 173.2,46.2 L 143.8,27.9 L 165.4,49.4 Z M 379.3,52.9 L 379.3,46.2 L 314.4,46.2 Z M 379.3,52.9 L 314.4,46.2 L 309.4,52.3 Z M 309.5,75.2 L 314.4,81.5 L 379.3,81.5 Z M 309.5,75.2 L 379.3,81.5 L 379.3,75.1 Z" fill="#2a2a4e" stroke="none"/>
  <path d="M 188.5,243.2 L 211.5,243.2 M 20.7,52.6 L 20.7,74.8 M 379.3,75.1 L 379.3,52.9 M 206.7,103.7 L 217.7,90.6 M 171.3,103.7 L 206.7,103.7 M 162.2,94.5 L 171.3,103.7 M 208.6,243.9 L 217.2,242.7 M 217.2,242.7 L 217.2,178.0 M 217.2,178.0 L 208.6,183.3 M 208.6,183.3 L 208.6,243.9 M 173.2,46.2 L 162.2,59.2 M 162.2,59.2 L 162.2,94.5 M 85.9,46.7 L 21.1,46.7 M 21.1,46.7 L 20.0,55.3 M 20.0,55.3 L 80.5,55.3 M 80.5,55.3 L 85.9,46.7 M 380.0,55.3 L 378.9,46.7 M 378.9,46.7 L 314.1,46.7 M 314.1,46.7 L 319.5,55.3 M 319.5,55.3 L 380.0,55.3 M 111.7,20.0 L 85.6,46.2 M 85.6,81.5 L 111.7,107.6 M 147.0,20.0 L 111.7,20.0 M 111.7,107.6 L 147.0,107.6 M 147.0,107.6 L 156.2,116.8 M 156.2,152.1 L 182.3,178.2 M 217.7,178.2 L 243.8,152.1 M 243.8,152.1 L 243.8,116.8 M 156.2,116.8 L 156.2,152.1 M 211.5,243.2 L 217.7,243.2 M 217.7,243.2 L 217.7,178.2 M 182.3,178.2 L 182.3,243.2 M 182.3,243.2 L 188.5,243.2 M 309.4,52.3 L 314.4,46.1 M 314.4,46.1 L 288.3,20.0 M 288.3,107.6 L 314.4,81.5 M 314.4,81.5 L 309.5,75.2 M 288.3,20.0 L 252.9,20.0 M 226.8,46.2 L 226.8,81.5 M 253.0,107.6 L 288.3,107.6 M 243.8,116.8 L 253.0,107.6 M 226.8,81.5 L 217.7,90.6 M 20.7,74.8 L 20.7,81.5 M 20.7,81.5 L 85.6,81.5 M 85.6,46.2 L 20.7,46.2 M 20.7,46.2 L 20.7,52.6 M 252.9,20.0 L 226.8,46.2 M 173.2,46.2 L 147.0,20.0 M 379.3,52.9 L 379.3,46.2 M 379.3,46.2 L 314.4,46.2 M 314.4,46.2 L 309.4,52.3 M 309.5,75.2 L 314.4,81.5 M 314.4,81.5 L 379.3,81.5 M 379.3,81.5 L 379.3,75.1" fill="none" stroke="white" stroke-width="2" stroke-linecap="round"/>
  <polygon points="200.7868444634911,177.22044916019328 208.7868444634911,185.22044916019328 200.7868444634911,193.22044916019328 192.7868444634911,185.22044916019328" fill="#4a9eff" stroke="white" stroke-width="1"/>
<polygon points="317.33588887055885,55.610520511735196 325.33588887055885,63.610520511735196 317.33588887055885,71.61052051173519 309.33588887055885,63.610520511735196" fill="#4a9eff" stroke="white" stroke-width="1"/>
<polygon points="82.48804954529447,55.79941218653714 90.48804954529447,63.79941218653714 82.48804954529447,71.79941218653714 74.48804954529447,63.79941218653714" fill="#4a9eff" stroke="white" stroke-width="1"/>
</svg>