<svg xmlns="http://www.w3.org/2000/svg" viewBox="0 0 400 400">
  <rect width="400" height="400" fill="#1a1a2e"/>
  <path d="M 131.6,369.3 L 122.7,320.5 L 78.9,276.7 Z M 131.6,369.3 L 78.9,276.7 L 28.8,266.5 Z M 28.8,266.5 L 78.9,276.7 L 181.6,174.0 Z M 28.8,266.5 L 181.6,174.0 L 180.9,142.2 Z M 28.8,232.4 L 28.8,266.5 L 164.5,125.9 Z M 28.8,232.4 L 164.5,125.9 L 135.3,125.9 Z M 135.3,125.9 L 164.5,125.9 L 163.7,20.2 Z M 135.3,125.9 L 163.7,20.2 L 135.7,20.2 Z M 138.4,321.0 L 142.4,334.2 L 197.3,314.0 Z M 138.4,321.0 L 197.3,314.0 L 184.0,280.5 Z M 184.0,280.5 L 197.3,314.0 L 223.7,284.4 Z M 184.0,280.5 L 223.7,284.4 L 208.5,278.1 Z M 379.2,235.2 L 273.5,234.8 L 273.5,264.0 Z M 379.2,235.2 L 273.5,264.0 L 379.2,263.2 Z M 273.5,234.8 L 257.2,218.5 L 225.4,217.8 Z M 273.5,234.8 L 225.4,217.8 L 273.5,264.0 Z M 131.6,369.3 L 168.3,369.3 L 273.5,264.0 Z M 131.6,369.3 L 273.5,264.0 L 122.7,320.5 Z M 110.9,218.1 L 134.1,188.6 L 124.2,172.6 Z M 110.9,218.1 L 124.2,172.6 L 87.2,198.4 Z M 180.9,142.2 L 164.5,125.9 L 28.8,266.5 Z M 225.4,217.8 L 122.7,320.5 L 273.5,264.0 Z M 110.9,218.1 L 87.2,198.4 L 68.0,227.6 Z M 138.1,354.0 L 124.1,316.8 L 90.0,305.2 Z M 138.1,354.0 L 90.0,305.2 L 84.6,310.0 Z M 84.6,310.0 L 90.0,305.2 L 76.2,275.6 Z M 84.6,310.0 L 76.2,275.6 L 56.7,283.5 Z M 56.7,283.5 L 76.2,275.6 L 72.0,251.3 Z M 56.7,283.5 L 72.0,251.3 L 41.5,256.4 Z M 41.5,256.4 L 72.0,251.3 L 68.0,227.6 Z M 41.5,256.4 L 68.0,227.6 L 46.9,235.6 Z M 46.9,235.6 L 68.0,227.6 L 87.2,198.4 Z M 46.9,235.6 L 87.2,198.4 L 78.0,189.3 Z M 78.0,189.3 L 87.2,198.4 L 124.2,172.6 Z M 78.0,189.3 L 124.2,172.6 L 136.4,146.7 Z M 136.4,146.7 L 124.2,172.6 L 134.1,188.6 Z M 136.4,146.7 L 134.1,188.6 L 154.8,160.9 Z M 197.3,314.0 L 222.9,312.6 L 271.9,264.8 Z M 197.3,314.0 L 271.9,264.8 L 223.7,284.4 Z M 223.7,284.4 L 271.9,264.8 L 220.0,253.7 Z M 223.7,284.4 L 220.0,253.7 L 208.5,278.1 Z M 208.5,278.1 L 220.0,253.7 L 182.4,275.6 Z M 208.5,278.1 L 182.4,275.6 L 184.0,280.5 Z M 184.0,280.5 L 182.4,275.6 L 124.1,316.8 Z M 184.0,280.5 L 124.1,316.8 L 138.4,321.0 Z M 138.4,321.0 L 124.1,316.8 L 138.1,354.0 Z M 138.4,321.0 L 138.1,354.0 L 142.4,334.2 Z M 167.9,171.1 L 134.1,188.6 L 110.9,218.1 Z M 167.9,171.1 L 110.9,218.1 L 124.0,230.1 Z M 124.0,230.1 L 110.9,218.1 L 68.0,227.6 Z M 124.0,230.1 L 68.0,227.6 L 72.0,251.3 Z M 235.9,220.0 L 182.4,275.6 L 220.0,253.7 Z M 235.9,220.0 L 220.0,253.7 L 255.7,223.7 Z M 255.7,223.7 L 220.0,253.7 L 271.9,264.8 Z M 255.7,223.7 L 271.9,264.8 L 265.9,233.0 Z M 265.9,233.0 L 271.9,264.8 L 291.2,262.2 Z M 265.9,233.0 L 291.2,262.2 L 282.9,236.5 Z M 282.9,236.5 L 291.2,262.2 L 380.0,262.2 Z M 282.9,236.5 L 380.0,262.2 L 380.0,236.7 Z M 138.1,354.0 L 161.4,356.9 L 142.4,334.2 Z M 161.4,356.9 L 197.3,314.0 L 142.4,334.2 Z M 134.1,188.6 L 167.9,171.1 L 154.8,160.9 Z M 167.9,171.1 L 161.1,144.3 L 154.8,160.9 Z M 154.8,160.9 L 161.1,144.3 L 136.4,146.7 Z M 144.3,20.0 L 136.4,146.7 L 161.1,144.3 Z M 144.3,20.0 L 161.1,144.3 L 155.6,20.0 Z M 124.0,230.1 L 72.0,251.3 L 76.2,275.6 Z M 161.4,356.9 L 222.9,312.6 L 197.3,314.0 Z M 20.0,227.9 L 28.8,232.4 L 135.3,125.9 Z M 20.0,227.9 L 135.3,125.9 L 126.6,121.4 Z M 127.4,20.2 L 126.6,121.4 L 135.3,125.9 Z M 127.4,20.2 L 135.3,125.9 L 135.7,20.2 Z M 20.0,227.9 L 20.0,270.9 L 28.8,266.5 Z M 20.0,227.9 L 28.8,266.5 L 28.8,232.4 Z M 278.0,272.8 L 273.5,264.0 L 168.3,369.3 Z M 278.0,272.8 L 168.3,369.3 L 173.3,377.5 Z M 131.6,369.3 L 28.8,266.5 L 20.0,270.9 Z M 131.6,369.3 L 20.0,270.9 L 126.6,377.5 Z M 172.5,20.2 L 163.7,20.2 L 164.5,125.9 Z M 172.5,20.2 L 164.5,125.9 L 173.3,121.4 Z M 122.0,309.2 L 90.2,277.3 L 78.9,276.7 Z M 122.0,309.2 L 78.9,276.7 L 122.7,320.5 Z M 379.2,226.9 L 278.0,226.1 L 273.5,234.8 Z M 379.2,226.9 L 273.5,234.8 L 379.2,235.2 Z M 379.2,272.0 L 379.2,263.2 L 273.5,264.0 Z M 379.2,272.0 L 273.5,264.0 L 278.0,272.8 Z M 173.3,121.4 L 164.5,125.9 L 180.9,142.2 Z M 173.3,121.4 L 180.9,142.2 L 189.7,137.7 Z M 181.6,174.0 L 78.9,276.7 L 90.2,277.3 Z M 181.6,174.0 L 90.2,277.3 L 189.8,177.7 Z M 189.8,177.7 L 189.7,137.7 L 180.9,142.2 Z M 189.8,177.7 L 180.9,142.2 L 181.6,174.0 Z M 257.2,218.5 L 273.5,234.8 L 278.0,226.1 Z M 257.2,218.5 L 278.0,226.1 L 261.6,209.7 Z M 122.0,309.2 L 122.7,320.5 L 225.4,217.8 Z M 122.0,309.2 L 225.4,217.8 L 221.7,209.6 Z M 257.2,218.5 L 261.6,209.7 L 221.7,209.6 Z M 257.2,218.5 L 221.7,209.6 L 225.4,217.8 Z M 168.3,369.3 L 131.6,369.3 L 126.6,377.5 Z M 168.3,369.3 L 126.6,377.5 L 173.3,377.5 Z M 136.4,146.7 L 144.3,20.0 L 122.9,129.0 Z M 144.3,20.0 L 129.1,20.0 L 122.9,129.0 Z M 63.3,177.9 L 78.0,189.3 L 122.9,129.0 Z M 78.0,189.3 L 136.4,146.7 L 122.9,129.0 Z M 20.4,258.6 L 41.5,256.4 L 25.5,227.2 Z M 41.5,256.4 L 46.9,235.6 L 25.5,227.2 Z M 71.5,323.5 L 84.6,310.0 L 41.5,295.0 Z M 84.6,310.0 L 56.7,283.5 L 41.5,295.0 Z M 46.9,235.6 L 78.0,189.3 L 25.5,227.2 Z M 78.0,189.3 L 63.3,177.9 L 25.5,227.2 Z M 138.1,354.0 L 84.6,310.0 L 125.6,369.8 Z M 84.6,310.0 L 71.5,323.5 L 125.6,369.8 Z M 229.5,207.1 L 235.9,220.0 L 264.0,211.2 Z M 235.9,220.0 L 255.7,223.7 L 264.0,211.2 Z M 171.7,264.3 L 124.1,300.4 L 182.4,275.6 Z M 124.1,300.4 L 124.1,316.8 L 182.4,275.6 Z M 90.0,305.2 L 105.7,292.3 L 76.2,275.6 Z M 105.7,292.3 L 94.2,276.4 L 76.2,275.6 Z M 56.7,283.5 L 41.5,256.4 L 41.5,295.0 Z M 41.5,256.4 L 20.4,258.6 L 41.5,295.0 Z M 167.1,373.8 L 161.4,356.9 L 125.6,369.8 Z M 161.4,356.9 L 138.1,354.0 L 125.6,369.8 Z M 229.5,207.1 L 171.7,264.3 L 235.9,220.0 Z M 171.7,264.3 L 182.4,275.6 L 235.9,220.0 Z M 285.5,273.9 L 380.0,272.0 L 291.2,262.2 Z M 380.0,272.0 L 380.0,262.2 L 291.2,262.2 Z M 278.7,226.5 L 282.9,236.5 L 380.0,226.5 Z M 282.9,236.5 L 380.0,236.7 L 380.0,226.5 Z M 161.4,356.9 L 167.1,373.8 L 222.9,312.6 Z M 167.1,373.8 L 233.6,323.7 L 222.9,312.6 Z M 222.9,312.6 L 233.6,323.7 L 271.9,264.8 Z M 233.6,323.7 L 285.5,273.9 L 271.9,264.8 Z M 173.0,20.0 L 155.6,20.0 L 161.1,144.3 Z M 173.0,20.0 L 161.1,144.3 L 175.7,131.4 Z M 175.7,131.4 L 161.1,144.3 L 167.9,171.1 Z M 175.7,131.4 L 167.9,171.1 L 183.8,175.8 Z M 183.8,175.8 L 167.9,171.1 L 124.0,230.1 Z M 183.8,175.8 L 124.0,230.1 L 135.3,237.6 Z M 135.3,237.6 L 124.0,230.1 L 76.2,275.6 Z M 135.3,237.6 L 76.2,275.6 L 94.2,276.4 Z M 124.1,316.8 L 124.1,300.4 L 105.7,292.3 Z M 124.1,316.8 L 105.7,292.3 L 90.0,305.2 Z M 278.7,226.5 L 264.0,211.2 L 255.7,223.7 Z M 278.7,226.5 L 255.7,223.7 L 265.9,233.0 Z M 225.1,259.3 L 238.5,272.8 L 238.5,245.9 Z M 211.7,245.9 L 211.7,272.8 L 225.1,259.3 Z M 238.5,245.9 L 211.7,245.9 L 225.1,259.3 Z M 211.7,272.8 L 238.5,272.8 L 225.1,259.3 Z M 146.7,331.9 L 156.9,339.8 L 154.5,321.7 Z M 136.4,324.1 L 138.8,342.2 L 146.7,331.9 Z M 154.5,321.7 L 136.4,324.1 L 146.7,331.9 Z M 138.8,342.2 L 156.9,339.8 L 146.7,331.9 Z M 68.0,250.9 L 82.9,257.3 L 74.4,236.1 Z M 53.2,244.5 L 61.7,265.8 L 68.0,250.9 Z M 74.4,236.1 L 53.2,244.5 L 68.0,250.9 Z M 61.7,265.8 L 82.9,257.3 L 68.0,250.9 Z M 148.2,162.3 L 154.3,178.1 L 164.1,156.2 Z M 142.2,146.4 L 132.4,168.3 L 148.2,162.3 Z M 164.1,156.2 L 142.2,146.4 L 148.2,162.3 Z M 132.4,168.3 L 154.3,178.1 L 148.2,162.3 Z M 265.9,233.0 L 282.9,236.5 L 278.7,226.5 Z M 271.9,264.8 L 285.5,273.9 L 291.2,262.2 Z" fill="#2a2a4e" stroke="none"/>
  <path d="M 163.7,20.2 L 135.7,20.2 M 379.2,263.2 L 379.2,235.2 M 380.0,262.2 L 380.0,236.7 M 155.6,20.0 L 144.3,20.0 M 126.6,121.4 L 20.0,227.9 M 127.4,20.2 L 126.6,121.4 M 135.7,20.2 L 127.4,20.2 M 20.0,227.9 L 20.0,270.9 M 173.3,377.5 L 278.0,272.8 M 20.0,270.9 L 126.6,377.5 M 172.5,20.2 L 163.7,20.2 M 173.3,121.4 L 172.5,20.2 M 122.0,309.2 L 90.2,277.3 M 379.2,226.9 L 278.0,226.1 M 379.2,235.2 L 379.2,226.9 M 379.2,272.0 L 379.2,263.2 M 278.0,272.8 L 379.2,272.0 M 189.7,137.7 L 173.3,121.4 M 90.2,277.3 L 189.8,177.7 M 189.8,177.7 L 189.7,137.7 M 278.0,226.1 L 261.6,209.7 M 221.7,209.6 L 122.0,309.2 M 261.6,209.7 L 221.7,209.6 M 126.6,377.5 L 173.3,377.5 M 144.3,20.0 L 129.1,20.0 M 129.1,20.0 L 122.9,129.0 M 122.9,129.0 L 63.3,177.9 M 25.5,227.2 L 20.4,258.6 M 41.5,295.0 L 71.5,323.5 M 63.3,177.9 L 25.5,227.2 M 71.5,323.5 L 125.6,369.8 M 264.0,211.2 L 229.5,207.1 M 171.7,264.3 L 124.1,300.4 M 105.7,292.3 L 94.2,276.4 M 20.4,258.6 L 41.5,295.0 M 125.6,369.8 L 167.1,373.8 M 229.5,207.1 L 171.7,264.3 M 285.5,273.9 L 380.0,272.0 M 380.0,272.0 L 380.0,262.2 M 380.0,226.5 L 278.7,226.5 M 380.0,236.7 L 380.0,226.5 M 167.1,373.8 L 233.6,323.7 M 233.6,323.7 L 285.5,273.9 M 173.0,20.0 L 155.6,20.0 M 175.7,131.4 L 173.0,20.0 M 183.8,175.8 L 175.7,131.4 M 135.3,237.6 L 183.8,175.8 M 94.2,276.4 L 135.3,237.6 M 124.1,300.4 L 105.7,292.3 M 278.7,226.5 L 264.0,211.2 M 238.5,272.8 L 238.5,245.9 M 211.7,245.9 L 211.7,272.8 M 238.5,245.9 L 211.7,245.9 M 211.7,272.8 L 238.5,272.8 M 156.9,339.8 L 154.5,321.7 M 136.4,324.1 L 138.8,342.2 M 154.5,321.7 L 136.4,324.1 M 138.8,342.2 L 156.9,339.8 M 82.9,257.3 L 74.4,236.1 M 53.2,244.5 L 61.7,265.8 M 74.4,236.1 L 53.2,244.5 M 61.7,265.8 L 82.9,257.3 M 154.3,178.1 L 164.1,156.2 M 142.2,146.4 L 132.4,168.3 M 164.1,156.2 L 142.2,146.4 M 132.4,168.3 L 154.3,178.1" fill="none" stroke="white" stroke-width="2" stroke-linecap="round"/>
  <polygon points="150.2650621276937,113.58749125344522 158.2650621276937,121.58749125344522 150.2650621276937,129.58749125344522 142.2650621276937,121.58749125344522" fill="#4a9eff" stroke="white" stroke-width="1"/>
<polygon points="280.5692917096915,242.1181858855392 288.5692917096915,250.1181858855392 280.5692917096915,258.1181858855392 272.5692917096915,250.1181858855392" fill="#4a9eff" stroke="white" stroke-width="1"/>
</svg>