<svg xmlns="http://www.w3.org/2000/svg" viewBox="0 0 400 400">
  <rect width="400" height="400" fill="#1a1a2e"/>
  <path d="M 52.8,227.2 L 71.8,227.2 L 85.2,213.8 Z M 52.8,227.2 L 85.2,213.8 L 39.5,213.8 Z M 39.5,213.8 L 85.2,213.8 L 85.2,194.9 Z M 39.5,213.8 L 85.2,194.9 L 39.5,194.9 Z M 39.5,194.9 L 85.2,194.9 L 71.8,181.4 Z M 39.5,194.9 L 71.8,181.4 L 52.8,181.4 Z M 52.2,368.9 L 72.3,377.4 L 72.3,239.8 Z M 52.2,368.9 L 72.3,239.8 L 52.4,239.8 Z M 72.7,20.0 L 52.7,20.0 L 52.3,168.8 Z M 72.7,20.0 L 52.3,168.8 L 72.2,168.8 Z M 26.9,189.7 L 39.5,194.9 L 52.8,181.4 Z M 26.9,189.7 L 52.8,181.4 L 47.6,168.8 Z M 26.9,219.1 L 39.5,213.8 L 39.5,194.9 Z M 26.9,219.1 L 39.5,194.9 L 26.9,189.7 Z M 47.6,239.8 L 52.8,227.2 L 39.5,213.8 Z M 47.6,239.8 L 39.5,213.8 L 26.9,219.1 Z M 97.8,219.1 L 85.2,213.8 L 71.8,227.2 Z M 97.8,219.1 L 71.8,227.2 L 77.0,239.8 Z M 97.8,189.7 L 85.2,194.9 L 85.2,213.8 Z M 97.8,189.7 L 85.2,213.8 L 97.8,219.1 Z M 77.0,168.8 L 71.8,181.4 L 85.2,194.9 Z M 77.0,168.8 L 85.2,194.9 L 97.8,189.7 Z M 72.3,239.8 L 71.8,227.2 L 52.8,227.2 Z M 72.3,239.8 L 52.8,227.2 L 52.4,239.8 Z M 52.3,168.8 L 52.8,181.4 L 71.8,181.4 Z M 52.3,168.8 L 71.8,181.4 L 72.2,168.8 Z M 52.8,227.2 L 47.6,239.8 L 52.4,239.8 Z M 72.3,239.8 L 77.0,239.8 L 71.8,227.2 Z M 71.8,181.4 L 77.0,168.8 L 72.2,168.8 Z M 52.3,168.8 L 47.6,168.8 L 52.8,181.4 Z M 26.9,219.1 L 20.0,221.8 L 44.8,246.6 Z M 26.9,219.1 L 44.8,246.6 L 47.6,239.8 Z M 47.6,239.8 L 44.8,246.6 L 47.2,246.6 Z M 47.6,239.8 L 47.2,246.6 L 52.4,239.8 Z M 44.8,162.0 L 20.0,186.7 L 26.9,189.7 Z M 44.8,162.0 L 26.9,189.7 L 47.6,168.8 Z M 97.8,219.1 L 77.0,239.8 L 79.8,246.6 Z M 97.8,219.1 L 79.8,246.6 L 104.6,221.8 Z M 77.0,168.8 L 97.8,189.7 L 104.6,186.7 Z M 77.0,168.8 L 104.6,186.7 L 79.8,162.0 Z M 26.9,219.1 L 26.9,189.7 L 20.0,186.7 Z M 26.9,219.1 L 20.0,186.7 L 20.0,221.8 Z M 104.6,221.8 L 104.6,186.7 L 97.8,189.7 Z M 104.6,221.8 L 97.8,189.7 L 97.8,219.1 Z M 79.8,246.6 L 77.0,239.8 L 72.3,239.8 Z M 79.8,246.6 L 72.3,239.8 L 77.4,246.6 Z M 47.2,246.6 L 47.0,364.9 L 52.2,368.9 Z M 47.2,246.6 L 52.2,368.9 L 52.4,239.8 Z M 77.4,380.0 L 77.4,246.6 L 72.3,239.8 Z M 77.4,380.0 L 72.3,239.8 L 72.3,377.4 Z M 44.8,162.0 L 47.6,168.8 L 52.3,168.8 Z M 44.8,162.0 L 52.3,168.8 L 47.2,161.9 Z M 79.8,162.0 L 77.4,161.9 L 72.2,168.8 Z M 79.8,162.0 L 72.2,168.8 L 77.0,168.8 Z M 77.4,161.9 L 78.0,20.0 L 72.7,20.0 Z M 77.4,161.9 L 72.7,20.0 L 72.2,168.8 Z M 47.5,20.0 L 47.2,161.9 L 52.3,168.8 Z M 47.5,20.0 L 52.3,168.8 L 52.7,20.0 Z" fill="#2a2a4e" stroke="none"/>
  <path d="M 52.2,368.9 L 72.3,377.4 M 72.7,20.0 L 52.7,20.0 M 20.0,221.8 L 44.8,246.6 M 44.8,246.6 L 47.2,246.6 M 44.8,162.0 L 20.0,186.7 M 79.8,246.6 L 104.6,221.8 M 104.6,186.7 L 79.8,162.0 M 20.0,186.7 L 20.0,221.8 M 104.6,221.8 L 104.6,186.7 M 77.4,246.6 L 79.8,246.6 M 47.2,246.6 L 47.0,364.9 M 47.0,364.9 L 52.2,368.9 M 77.4,380.0 L 77.4,246.6 M 72.3,377.4 L 77.4,380.0 M 47.2,161.9 L 44.8,162.0 M 79.8,162.0 L 77.4,161.9 M 77.4,161.9 L 78.0,20.0 M 78.0,20.0 L 72.7,20.0 M 47.5,20.0 L 47.2,161.9 M 52.7,20.0 L 47.5,20.0" fill="none" stroke="white" stroke-width="2" stroke-linecap="round"/>
  <polygon points="61.79669922030187,131.6661097142171 69.79669922030186,139.6661097142171 61.79669922030187,147.6661097142171 53.79669922030187,139.6661097142171" fill="#4a9eff" stroke="white" stroke-width="1"/>
<polygon points="62.40808805917914,296.93799945684736 70.40808805917914,304.93799945684736 62.40808805917914,312.93799945684736 54.40808805917914,304.93799945684736" fill="#4a9eff" stroke="white" stroke-width="1"/>
</svg>