<svg xmlns="http://www.w3.org/2000/svg" viewBox="0 0 400 400">
  <rect width="400" height="400" fill="#1a1a2e"/>
  <path d="M 211.2,88.3 L 217.7,85.2 L 217.7,20.0 Z M 211.2,88.3 L 217.7,20.0 L 200.0,92.3 Z M 200.0,92.3 L 217.7,20.0 L 182.3,20.0 Z M 200.0,92.3 L 182.3,20.0 L 188.8,88.3 Z M 314.8,182.3 L 311.8,188.8 L 307.7,200.0 Z M 314.8,182.3 L 307.7,200.0 L 380.0,182.3 Z M 380.0,182.3 L 307.7,200.0 L 311.8,211.2 Z M 380.0,182.3 L 311.8,211.2 L 380.0,217.7 Z M 85.2,217.7 L 88.2,211.2 L 92.3,200.0 Z M 85.2,217.7 L 92.3,200.0 L 20.0,217.7 Z M 20.0,217.7 L 92.3,200.0 L 88.2,188.8 Z M 20.0,217.7 L 88.2,188.8 L 20.0,182.3 Z M 200.0,307.7 L 217.7,380.0 L 217.7,314.8 Z M 200.0,307.7 L 217.7,314.8 L 211.2,311.8 Z M 188.8,311.8 L 182.3,314.8 L 182.3,380.0 Z M 188.8,311.8 L 182.3,380.0 L 200.0,307.7 Z M 188.8,88.3 L 182.3,20.0 L 182.3,85.2 Z M 182.3,380.0 L 217.7,380.0 L 200.0,307.7 Z M 311.8,211.2 L 314.8,217.7 L 380.0,217.7 Z M 88.2,188.8 L 85.2,182.3 L 20.0,182.3 Z M 211.1,110.6 L 188.9,110.6 L 183.9,122.0 Z M 211.1,110.6 L 183.9,122.0 L 216.1,122.0 Z M 216.1,122.0 L 183.9,122.0 L 180.7,133.5 Z M 216.1,122.0 L 180.7,133.5 L 219.3,133.5 Z M 219.3,133.5 L 180.7,133.5 L 179.5,150.4 Z M 219.3,133.5 L 179.5,150.4 L 220.5,150.4 Z M 249.6,179.5 L 249.6,220.5 L 266.5,219.3 Z M 249.6,179.5 L 266.5,219.3 L 266.5,180.7 Z M 266.5,180.7 L 266.5,219.3 L 278.0,216.1 Z M 266.5,180.7 L 278.0,216.1 L 278.0,183.9 Z M 278.0,183.9 L 278.0,216.1 L 289.4,211.1 Z M 278.0,183.9 L 289.4,211.1 L 289.4,188.9 Z M 220.5,249.6 L 179.5,249.6 L 180.7,266.5 Z M 220.5,249.6 L 180.7,266.5 L 219.3,266.5 Z M 219.3,266.5 L 180.7,266.5 L 183.9,278.0 Z M 219.3,266.5 L 183.9,278.0 L 216.1,278.0 Z M 216.1,278.0 L 183.9,278.0 L 188.9,289.4 Z M 216.1,278.0 L 188.9,289.4 L 211.1,289.4 Z M 150.4,220.5 L 150.4,179.5 L 133.5,180.7 Z M 150.4,220.5 L 133.5,180.7 L 133.5,219.3 Z M 133.5,219.3 L 133.5,180.7 L 122.0,183.9 Z M 133.5,219.3 L 122.0,183.9 L 122.0,216.1 Z M 122.0,216.1 L 122.0,183.9 L 110.6,188.9 Z M 122.0,216.1 L 110.6,188.9 L 110.6,211.1 Z M 217.2,158.2 L 182.8,158.2 L 158.4,182.6 Z M 217.2,158.2 L 158.4,182.6 L 241.6,182.6 Z M 241.6,182.6 L 158.4,182.6 L 158.4,217.1 Z M 241.6,182.6 L 158.4,217.1 L 241.6,217.1 Z M 241.6,217.1 L 158.4,217.1 L 182.8,241.5 Z M 241.6,217.1 L 182.8,241.5 L 217.2,241.5 Z M 188.9,289.4 L 200.0,303.6 L 211.1,289.4 Z M 211.1,110.6 L 200.0,96.4 L 188.9,110.6 Z M 289.4,211.1 L 303.6,200.0 L 289.4,188.9 Z M 110.6,188.9 L 96.4,200.0 L 110.6,211.1 Z M 267.0,221.3 L 258.8,233.1 L 288.5,233.6 Z M 267.0,221.3 L 288.5,233.6 L 278.7,218.2 Z M 278.7,218.2 L 288.5,233.6 L 311.8,211.2 Z M 278.7,218.2 L 311.8,211.2 L 290.0,213.0 Z M 188.8,311.8 L 187.0,290.0 L 181.8,278.7 Z M 188.8,311.8 L 181.8,278.7 L 166.3,288.4 Z M 166.3,288.4 L 181.8,278.7 L 178.7,267.0 Z M 166.3,288.4 L 178.7,267.0 L 166.9,258.8 Z M 233.1,258.8 L 221.3,267.0 L 218.2,278.7 Z M 233.1,258.8 L 218.2,278.7 L 233.7,288.4 Z M 233.7,288.4 L 218.2,278.7 L 213.0,290.0 Z M 233.7,288.4 L 213.0,290.0 L 211.2,311.8 Z M 110.0,213.0 L 88.2,211.2 L 111.5,233.6 Z M 110.0,213.0 L 111.5,233.6 L 121.3,218.2 Z M 121.3,218.2 L 111.5,233.6 L 141.2,233.1 Z M 121.3,218.2 L 141.2,233.1 L 133.0,221.3 Z M 177.5,247.6 L 152.4,222.5 L 141.2,233.1 Z M 177.5,247.6 L 141.2,233.1 L 166.9,258.8 Z M 166.9,258.8 L 141.2,233.1 L 111.5,233.6 Z M 166.9,258.8 L 111.5,233.6 L 166.3,288.4 Z M 247.6,222.5 L 222.5,247.6 L 233.1,258.8 Z M 247.6,222.5 L 233.1,258.8 L 258.8,233.1 Z M 258.8,233.1 L 233.1,258.8 L 233.7,288.4 Z M 258.8,233.1 L 233.7,288.4 L 288.5,233.6 Z M 121.3,181.8 L 133.0,178.7 L 141.2,166.9 Z M 121.3,181.8 L 141.2,166.9 L 111.5,166.4 Z M 111.5,166.4 L 141.2,166.9 L 166.9,141.2 Z M 111.5,166.4 L 166.9,141.2 L 166.3,111.6 Z M 166.3,111.6 L 166.9,141.2 L 178.7,133.0 Z M 166.3,111.6 L 178.7,133.0 L 181.8,121.3 Z M 218.2,121.3 L 221.3,133.0 L 233.1,141.2 Z M 218.2,121.3 L 233.1,141.2 L 233.7,111.6 Z M 233.7,111.6 L 233.1,141.2 L 258.8,166.9 Z M 233.7,111.6 L 258.8,166.9 L 288.5,166.4 Z M 288.5,166.4 L 258.8,166.9 L 267.0,178.7 Z M 288.5,166.4 L 267.0,178.7 L 278.7,181.8 Z M 211.2,88.3 L 213.0,110.0 L 218.2,121.3 Z M 211.2,88.3 L 218.2,121.3 L 233.7,111.6 Z M 181.8,121.3 L 187.0,110.0 L 188.8,88.3 Z M 181.8,121.3 L 188.8,88.3 L 166.3,111.6 Z M 278.7,181.8 L 290.0,187.0 L 311.8,188.8 Z M 278.7,181.8 L 311.8,188.8 L 288.5,166.4 Z M 88.2,188.8 L 110.0,187.0 L 121.3,181.8 Z M 88.2,188.8 L 121.3,181.8 L 111.5,166.4 Z M 141.2,166.9 L 152.4,177.5 L 177.5,152.4 Z M 141.2,166.9 L 177.5,152.4 L 166.9,141.2 Z M 233.1,141.2 L 222.5,152.4 L 247.6,177.5 Z M 233.1,141.2 L 247.6,177.5 L 258.8,166.9 Z M 211.2,88.3 L 200.0,92.3 L 213.0,110.0 Z M 267.0,221.3 L 247.6,222.5 L 258.8,233.1 Z M 178.7,267.0 L 177.5,247.6 L 166.9,258.8 Z M 188.8,311.8 L 200.0,307.7 L 187.0,290.0 Z M 221.3,267.0 L 233.1,258.8 L 222.5,247.6 Z M 211.2,311.8 L 213.0,290.0 L 200.0,307.7 Z M 133.0,221.3 L 141.2,233.1 L 152.4,222.5 Z M 187.0,110.0 L 200.0,92.3 L 188.8,88.3 Z M 133.0,178.7 L 152.4,177.5 L 141.2,166.9 Z M 178.7,133.0 L 166.9,141.2 L 177.5,152.4 Z M 221.3,133.0 L 222.5,152.4 L 233.1,141.2 Z M 267.0,178.7 L 258.8,166.9 L 247.6,177.5 Z M 311.8,211.2 L 307.7,200.0 L 290.0,213.0 Z M 311.8,188.8 L 290.0,187.0 L 307.7,200.0 Z M 88.2,188.8 L 92.3,200.0 L 110.0,187.0 Z M 88.2,211.2 L 110.0,213.0 L 92.3,200.0 Z M 220.5,150.4 L 222.5,152.4 L 221.3,133.0 Z M 220.5,150.4 L 221.3,133.0 L 219.3,133.5 Z M 219.3,133.5 L 221.3,133.0 L 218.2,121.3 Z M 219.3,133.5 L 218.2,121.3 L 216.1,122.0 Z M 216.1,122.0 L 218.2,121.3 L 213.0,110.0 Z M 216.1,122.0 L 213.0,110.0 L 211.1,110.6 Z M 211.1,110.6 L 213.0,110.0 L 200.0,92.3 Z M 211.1,110.6 L 200.0,92.3 L 200.0,96.4 Z M 200.0,96.4 L 200.0,92.3 L 187.0,110.0 Z M 200.0,96.4 L 187.0,110.0 L 188.9,110.6 Z M 188.9,110.6 L 187.0,110.0 L 181.8,121.3 Z M 188.9,110.6 L 181.8,121.3 L 183.9,122.0 Z M 183.9,122.0 L 181.8,121.3 L 178.7,133.0 Z M 183.9,122.0 L 178.7,133.0 L 180.7,133.5 Z M 180.7,133.5 L 178.7,133.0 L 177.5,152.4 Z M 180.7,133.5 L 177.5,152.4 L 179.5,150.4 Z M 249.6,220.5 L 247.6,222.5 L 267.0,221.3 Z M 249.6,220.5 L 267.0,221.3 L 266.5,219.3 Z M 266.5,219.3 L 267.0,221.3 L 278.7,218.2 Z M 266.5,219.3 L 278.7,218.2 L 278.0,216.1 Z M 278.0,216.1 L 278.7,218.2 L 290.0,213.0 Z M 278.0,216.1 L 290.0,213.0 L 289.4,211.1 Z M 289.4,211.1 L 290.0,213.0 L 307.7,200.0 Z M 289.4,211.1 L 307.7,200.0 L 303.6,200.0 Z M 303.6,200.0 L 307.7,200.0 L 290.0,187.0 Z M 303.6,200.0 L 290.0,187.0 L 289.4,188.9 Z M 289.4,188.9 L 290.0,187.0 L 278.7,181.8 Z M 289.4,188.9 L 278.7,181.8 L 278.0,183.9 Z M 278.0,183.9 L 278.7,181.8 L 267.0,178.7 Z M 278.0,183.9 L 267.0,178.7 L 266.5,180.7 Z M 266.5,180.7 L 267.0,178.7 L 247.6,177.5 Z M 266.5,180.7 L 247.6,177.5 L 249.6,179.5 Z M 179.5,249.6 L 177.5,247.6 L 178.7,267.0 Z M 179.5,249.6 L 178.7,267.0 L 180.7,266.5 Z M 180.7,266.5 L 178.7,267.0 L 181.8,278.7 Z M 180.7,266.5 L 181.8,278.7 L 183.9,278.0 Z M 183.9,278.0 L 181.8,278.7 L 187.0,290.0 Z M 183.9,278.0 L 187.0,290.0 L 188.9,289.4 Z M 188.9,289.4 L 187.0,290.0 L 200.0,307.7 Z M 188.9,289.4 L 200.0,307.7 L 200.0,303.6 Z M 200.0,303.6 L 200.0,307.7 L 213.0,290.0 Z M 200.0,303.6 L 213.0,290.0 L 211.1,289.4 Z M 211.1,289.4 L 213.0,290.0 L 218.2,278.7 Z M 211.1,289.4 L 218.2,278.7 L 216.1,278.0 Z M 216.1,278.0 L 218.2,278.7 L 221.3,267.0 Z M 216.1,278.0 L 221.3,267.0 L 219.3,266.5 Z M 219.3,266.5 L 221.3,267.0 L 222.5,247.6 Z M 219.3,266.5 L 222.5,247.6 L 220.5,249.6 Z M 150.4,179.5 L 152.4,177.5 L 133.0,178.7 Z M 150.4,179.5 L 133.0,178.7 L 133.5,180.7 Z M 133.5,180.7 L 133.0,178.7 L 121.3,181.8 Z M 133.5,180.7 L 121.3,181.8 L 122.0,183.9 Z M 122.0,183.9 L 121.3,181.8 L 110.0,187.0 Z M 122.0,183.9 L 110.0,187.0 L 110.6,188.9 Z M 110.6,188.9 L 110.0,187.0 L 92.3,200.0 Z M 110.6,188.9 L 92.3,200.0 L 96.4,200.0 Z M 96.4,200.0 L 92.3,200.0 L 110.0,213.0 Z M 96.4,200.0 L 110.0,213.0 L 110.6,211.1 Z M 110.6,211.1 L 110.0,213.0 L 121.3,218.2 Z M 110.6,211.1 L 121.3,218.2 L 122.0,216.1 Z M 122.0,216.1 L 121.3,218.2 L 133.0,221.3 Z M 122.0,216.1 L 133.0,221.3 L 133.5,219.3 Z M 133.5,219.3 L 133.0,221.3 L 152.4,222.5 Z M 133.5,219.3 L 152.4,222.5 L 150.4,220.5 Z M 179.5,249.6 L 220.5,249.6 L 217.2,241.5 Z M 179.5,249.6 L 217.2,241.5 L 182.8,241.5 Z M 241.6,182.8 L 241.6,217.1 L 249.6,220.5 Z M 241.6,182.8 L 249.6,220.5 L 249.6,179.5 Z M 182.8,158.3 L 217.2,158.4 L 220.5,150.4 Z M 182.8,158.3 L 220.5,150.4 L 179.5,150.4 Z M 158.4,217.1 L 158.5,182.7 L 150.4,179.5 Z M 158.4,217.1 L 150.4,179.5 L 150.4,220.5 Z M 241.6,217.1 L 217.2,241.5 L 222.5,247.6 Z M 241.6,217.1 L 222.5,247.6 L 247.6,222.5 Z M 182.3,85.2 L 85.2,182.3 L 111.5,166.4 Z M 182.3,85.2 L 111.5,166.4 L 166.3,111.6 Z M 288.5,166.4 L 314.8,182.3 L 217.7,85.2 Z M 288.5,166.4 L 217.7,85.2 L 233.7,111.6 Z M 217.7,314.8 L 314.8,217.7 L 288.5,233.6 Z M 217.7,314.8 L 288.5,233.6 L 233.7,288.4 Z M 111.5,233.6 L 85.2,217.7 L 182.3,314.8 Z M 111.5,233.6 L 182.3,314.8 L 166.3,288.4 Z M 247.6,177.5 L 222.5,152.4 L 217.2,158.4 Z M 247.6,177.5 L 217.2,158.4 L 241.6,182.8 Z M 158.5,182.7 L 182.8,158.3 L 177.5,152.4 Z M 158.5,182.7 L 177.5,152.4 L 152.4,177.5 Z M 182.8,241.5 L 158.4,217.1 L 152.4,222.5 Z M 182.8,241.5 L 152.4,222.5 L 177.5,247.6 Z M 85.2,182.3 L 88.2,188.8 L 111.5,166.4 Z M 158.4,217.1 L 150.4,220.5 L 152.4,222.5 Z M 182.8,158.3 L 179.5,150.4 L 177.5,152.4 Z M 222.5,152.4 L 220.5,150.4 L 217.2,158.4 Z M 166.3,111.6 L 188.8,88.3 L 182.3,85.2 Z M 314.8,182.3 L 288.5,166.4 L 311.8,188.8 Z M 233.7,111.6 L 217.7,85.2 L 211.2,88.3 Z M 314.8,217.7 L 311.8,211.2 L 288.5,233.6 Z M 233.7,288.4 L 211.2,311.7 L 217.7,314.8 Z M 85.2,217.7 L 111.5,233.6 L 88.2,211.2 Z M 166.3,288.4 L 182.3,314.8 L 188.8,311.7 Z M 152.4,177.5 L 150.4,179.5 L 158.5,182.7 Z M 177.5,247.6 L 179.5,249.6 L 182.8,241.5 Z M 217.2,241.5 L 220.5,249.6 L 222.5,247.6 Z M 247.6,222.5 L 249.6,220.5 L 241.6,217.1 Z M 241.6,182.8 L 249.6,179.5 L 247.6,177.5 Z" fill="#2a2a4e" stroke="none"/>
  <path d="M 217.7,85.2 L 217.7,20.0 M 217.7,20.0 L 182.3,20.0 M 380.0,182.3 L 314.8,182.3 M 380.0,217.7 L 380.0,182.3 M 20.0,217.7 L 85.2,217.7 M 20.0,182.3 L 20.0,217.7 M 217.7,380.0 L 217.7,314.8 M 217.7,314.8 L 211.2,311.8 M 188.8,311.8 L 182.3,314.8 M 182.3,314.8 L 182.3,380.0 M 182.3,20.0 L 182.3,85.2 M 182.3,380.0 L 217.7,380.0 M 314.8,217.7 L 380.0,217.7 M 85.2,182.3 L 20.0,182.3 M 217.2,158.2 L 182.8,158.2 M 182.8,158.2 L 158.4,182.6 M 241.6,182.6 L 217.2,158.2 M 158.4,182.6 L 158.4,217.1 M 241.6,217.1 L 241.6,182.6 M 166.3,288.4 L 188.8,311.8 M 211.2,311.8 L 233.7,288.4 M 241.6,182.8 L 241.6,217.1 M 182.8,158.3 L 217.2,158.4 M 158.4,217.1 L 158.5,182.7 M 182.3,85.2 L 85.2,182.3 M 314.8,182.3 L 217.7,85.2 M 217.7,314.8 L 314.8,217.7 M 85.2,217.7 L 182.3,314.8 M 217.2,158.4 L 241.6,182.8 M 158.5,182.7 L 182.8,158.3 M 233.7,288.4 L 211.2,311.7 M 211.2,311.7 L 217.7,314.8 M 182.3,314.8 L 188.8,311.7 M 188.8,311.7 L 166.3,288.4" fill="none" stroke="white" stroke-width="2" stroke-linecap="round"/>
  <polygon points="317.69923166367465,190.9611697084804 325.69923166367465,198.9611697084804 317.69923166367465,206.9611697084804 309.69923166367465,198.9611697084804" fill="#4a9eff" stroke="white" stroke-width="1"/>
<polygon points="200.130731686589,309.13591959307973 208.130731686589,317.13591959307973 200.130731686589,325.13591959307973 192.130731686589,317.13591959307973" fill="#4a9eff" stroke="white" stroke-width="1"/>
<polygon points="82.95855372433195,192.39831602960905 90.95855372433195,200.39831602960905 82.95855372433195,208.39831602960905 74.95855372433195,200.39831602960905" fill="#4a9eff" stroke="white" stroke-width="1"/>
<polygon points="200.0629886470101,76.59418138294896 208.0629886470101,84.59418138294896 200.0629886470101,92.59418138294896 192.0629886470101,84.59418138294896" fill="#4a9eff" stroke="white" stroke-width="1"/>
</svg>