<svg xmlns="http://www.w3.org/2000/svg" viewBox="0 0 400 400">
  <rect width="400" height="400" fill="#1a1a2e"/>
  <path d="M 184.4,202.3 L 203.7,221.4 L 221.4,203.9 Z M 184.4,202.3 L 221.4,203.9 L 202.2,184.8 Z M 221.4,115.9 L 203.7,98.5 L 184.4,117.5 Z M 221.4,115.9 L 184.4,117.5 L 202.2,135.0 Z M 173.2,379.2 L 174.0,293.7 L 145.9,293.8 Z M 173.2,379.2 L 145.9,293.8 L 146.1,379.2 Z M 135.2,117.5 L 116.0,98.5 L 98.3,115.9 Z M 135.2,117.5 L 98.3,115.9 L 117.5,135.0 Z M 98.3,203.9 L 116.0,221.4 L 135.2,202.3 Z M 98.3,203.9 L 135.2,202.3 L 117.5,184.8 Z M 195.9,34.8 L 181.4,20.0 L 138.2,20.0 Z M 195.9,34.8 L 138.2,20.0 L 152.7,34.8 Z M 152.7,34.8 L 138.2,20.0 L 106.2,52.0 Z M 152.7,34.8 L 106.2,52.0 L 120.8,66.8 Z M 20.0,138.3 L 34.5,153.1 L 66.5,121.2 Z M 20.0,138.3 L 66.5,121.2 L 52.0,106.4 Z M 52.0,106.4 L 66.5,121.2 L 109.7,121.2 Z M 52.0,106.4 L 109.7,121.2 L 95.1,106.4 Z M 208.6,151.8 L 192.6,138.3 L 192.6,181.5 Z M 208.6,151.8 L 192.6,181.5 L 208.6,195.0 Z M 208.6,195.0 L 192.6,181.5 L 181.4,192.7 Z M 208.6,195.0 L 181.4,192.7 L 197.3,206.2 Z M 282.3,121.2 L 267.7,106.4 L 224.6,106.4 Z M 282.3,121.2 L 224.6,106.4 L 239.1,121.2 Z M 106.2,52.0 L 106.3,95.2 L 120.8,110.0 Z M 106.2,52.0 L 120.8,110.0 L 120.8,66.8 Z M 109.7,121.2 L 120.8,110.0 L 106.3,95.2 Z M 109.7,121.2 L 106.3,95.2 L 95.1,106.4 Z M 20.0,181.5 L 34.5,196.3 L 34.5,153.1 Z M 20.0,181.5 L 34.5,153.1 L 20.0,138.3 Z M 138.3,192.7 L 154.2,206.2 L 197.3,206.2 Z M 138.3,192.7 L 197.3,206.2 L 181.4,192.7 Z M 138.9,299.4 L 138.9,378.6 L 149.4,380.0 Z M 138.9,299.4 L 149.4,380.0 L 149.4,306.0 Z M 116.8,235.3 L 106.3,224.7 L 106.2,267.9 Z M 116.8,235.3 L 106.2,267.9 L 116.8,278.5 Z M 203.7,221.4 L 184.4,202.3 L 135.2,202.3 Z M 203.7,221.4 L 135.2,202.3 L 159.8,246.3 Z M 159.8,246.3 L 135.2,202.3 L 116.0,221.4 Z M 159.8,246.3 L 116.0,221.4 L 115.8,264.0 Z M 202.2,135.0 L 202.2,184.8 L 221.4,203.9 Z M 202.2,135.0 L 221.4,203.9 L 221.4,115.9 Z M 221.4,115.9 L 221.4,203.9 L 263.8,203.8 Z M 221.4,115.9 L 263.8,203.8 L 263.6,115.9 Z M 263.6,115.9 L 263.8,203.8 L 290.1,177.5 Z M 263.6,115.9 L 290.1,177.5 L 290.0,142.3 Z M 115.8,55.8 L 116.0,98.5 L 135.2,117.5 Z M 115.8,55.8 L 135.2,117.5 L 142.2,29.6 Z M 142.2,29.6 L 135.2,117.5 L 184.4,117.5 Z M 142.2,29.6 L 184.4,117.5 L 177.5,29.6 Z M 177.5,29.6 L 184.4,117.5 L 203.7,98.5 Z M 177.5,29.6 L 203.7,98.5 L 203.7,56.0 Z M 115.8,264.0 L 145.9,293.8 L 174.0,293.7 Z M 115.8,264.0 L 174.0,293.7 L 159.8,246.3 Z M 159.8,246.3 L 174.0,293.7 L 203.7,263.8 Z M 159.8,246.3 L 203.7,263.8 L 203.7,221.4 Z M 117.5,184.8 L 117.5,135.0 L 98.3,115.9 Z M 117.5,184.8 L 98.3,115.9 L 98.3,203.9 Z M 98.3,203.9 L 98.3,115.9 L 55.9,116.0 Z M 98.3,203.9 L 55.9,116.0 L 56.1,203.9 Z M 56.1,203.9 L 55.9,116.0 L 29.6,142.3 Z M 56.1,203.9 L 29.6,142.3 L 29.7,177.5 Z M 213.3,52.0 L 203.7,56.0 L 203.7,98.5 Z M 213.3,52.0 L 203.7,98.5 L 213.3,95.1 Z M 213.3,95.1 L 203.7,98.5 L 221.4,115.9 Z M 213.3,95.1 L 221.4,115.9 L 224.6,106.4 Z M 145.9,293.8 L 115.8,264.0 L 106.2,267.9 Z M 145.9,293.8 L 106.2,267.9 L 138.2,299.8 Z M 203.7,263.8 L 174.0,293.7 L 181.4,299.8 Z M 203.7,263.8 L 181.4,299.8 L 213.3,267.9 Z M 115.8,264.0 L 116.0,221.4 L 106.3,224.7 Z M 115.8,264.0 L 106.3,224.7 L 106.2,267.9 Z M 135.2,202.3 L 184.4,202.3 L 181.4,192.7 Z M 135.2,202.3 L 181.4,192.7 L 138.3,192.7 Z M 203.7,221.4 L 203.7,263.8 L 213.3,267.9 Z M 203.7,221.4 L 213.3,267.9 L 213.3,224.7 Z M 224.6,213.5 L 221.4,203.9 L 203.7,221.4 Z M 224.6,213.5 L 203.7,221.4 L 213.3,224.7 Z M 290.1,177.5 L 263.8,203.8 L 267.7,213.5 Z M 290.1,177.5 L 267.7,213.5 L 299.7,181.5 Z M 263.6,115.9 L 290.0,142.3 L 299.7,138.3 Z M 263.6,115.9 L 299.7,138.3 L 267.7,106.4 Z M 202.2,184.8 L 202.2,135.0 L 192.6,138.3 Z M 202.2,184.8 L 192.6,138.3 L 192.6,181.5 Z M 221.4,115.9 L 263.6,115.9 L 267.7,106.4 Z M 221.4,115.9 L 267.7,106.4 L 224.6,106.4 Z M 263.8,203.8 L 221.4,203.9 L 224.6,213.5 Z M 263.8,203.8 L 224.6,213.5 L 267.7,213.5 Z M 192.6,181.5 L 181.4,192.7 L 184.4,202.3 Z M 192.6,181.5 L 184.4,202.3 L 202.2,184.8 Z M 106.2,52.0 L 115.8,55.8 L 142.2,29.6 Z M 106.2,52.0 L 142.2,29.6 L 138.2,20.0 Z M 181.4,20.0 L 177.5,29.6 L 203.7,56.0 Z M 181.4,20.0 L 203.7,56.0 L 213.3,52.0 Z M 106.3,95.2 L 116.0,98.5 L 115.8,55.8 Z M 106.3,95.2 L 115.8,55.8 L 106.2,52.0 Z M 181.4,127.1 L 184.4,117.5 L 135.2,117.5 Z M 181.4,127.1 L 135.2,117.5 L 138.3,127.1 Z M 138.2,20.0 L 142.2,29.6 L 177.5,29.6 Z M 138.2,20.0 L 177.5,29.6 L 181.4,20.0 Z M 184.4,117.5 L 181.4,127.1 L 192.6,138.3 Z M 184.4,117.5 L 192.6,138.3 L 202.2,135.0 Z M 181.4,299.8 L 174.0,293.7 L 173.2,379.2 Z M 181.4,299.8 L 173.2,379.2 L 181.4,379.2 Z M 138.3,379.2 L 146.1,379.2 L 145.9,293.8 Z M 138.3,379.2 L 145.9,293.8 L 138.2,299.8 Z M 95.1,106.4 L 98.3,115.9 L 116.0,98.5 Z M 95.1,106.4 L 116.0,98.5 L 106.3,95.2 Z M 29.6,142.3 L 55.9,116.0 L 52.0,106.4 Z M 29.6,142.3 L 52.0,106.4 L 20.0,138.3 Z M 56.1,203.9 L 29.7,177.5 L 20.0,181.5 Z M 56.1,203.9 L 20.0,181.5 L 52.0,213.5 Z M 117.5,135.0 L 117.5,184.8 L 127.1,181.5 Z M 117.5,135.0 L 127.1,181.5 L 127.1,138.3 Z M 98.3,203.9 L 56.1,203.9 L 52.0,213.5 Z M 98.3,203.9 L 52.0,213.5 L 95.1,213.5 Z M 55.9,116.0 L 98.3,115.9 L 95.1,106.4 Z M 55.9,116.0 L 95.1,106.4 L 52.0,106.4 Z M 127.1,138.3 L 138.3,127.1 L 135.2,117.5 Z M 127.1,138.3 L 135.2,117.5 L 117.5,135.0 Z M 116.0,221.4 L 98.3,203.9 L 95.1,213.5 Z M 116.0,221.4 L 95.1,213.5 L 106.3,224.7 Z M 135.2,202.3 L 138.3,192.7 L 127.1,181.5 Z M 135.2,202.3 L 127.1,181.5 L 117.5,184.8 Z M 20.0,138.3 L 20.0,181.5 L 29.7,177.5 Z M 20.0,138.3 L 29.7,177.5 L 29.6,142.3 Z M 290.0,142.3 L 290.1,177.5 L 299.7,181.5 Z M 290.0,142.3 L 299.7,181.5 L 299.7,138.3 Z" fill="#2a2a4e" stroke="none"/>
  <path d="M 146.1,379.2 L 173.2,379.2 M 195.9,34.8 L 181.4,20.0 M 152.7,34.8 L 195.9,34.8 M 120.8,66.8 L 152.7,34.8 M 34.5,153.1 L 66.5,121.2 M 66.5,121.2 L 109.7,121.2 M 208.6,151.8 L 192.6,138.3 M 208.6,195.0 L 208.6,151.8 M 197.3,206.2 L 208.6,195.0 M 282.3,121.2 L 267.7,106.4 M 224.6,106.4 L 239.1,121.2 M 239.1,121.2 L 282.3,121.2 M 120.8,110.0 L 120.8,66.8 M 109.7,121.2 L 120.8,110.0 M 20.0,181.5 L 34.5,196.3 M 34.5,196.3 L 34.5,153.1 M 138.3,192.7 L 154.2,206.2 M 154.2,206.2 L 197.3,206.2 M 138.9,299.4 L 138.9,378.6 M 138.9,378.6 L 149.4,380.0 M 149.4,380.0 L 149.4,306.0 M 149.4,306.0 L 138.9,299.4 M 116.8,235.3 L 106.3,224.7 M 106.2,267.9 L 116.8,278.5 M 116.8,278.5 L 116.8,235.3 M 213.3,95.1 L 213.3,52.0 M 224.6,106.4 L 213.3,95.1 M 106.2,267.9 L 138.2,299.8 M 181.4,299.8 L 213.3,267.9 M 213.3,267.9 L 213.3,224.7 M 213.3,224.7 L 224.6,213.5 M 267.7,213.5 L 299.7,181.5 M 299.7,138.3 L 267.7,106.4 M 224.6,213.5 L 267.7,213.5 M 213.3,52.0 L 181.4,20.0 M 138.3,127.1 L 181.4,127.1 M 181.4,127.1 L 192.6,138.3 M 173.2,379.2 L 181.4,379.2 M 181.4,379.2 L 181.4,299.8 M 138.3,379.2 L 146.1,379.2 M 138.2,299.8 L 138.3,379.2 M 20.0,181.5 L 52.0,213.5 M 127.1,181.5 L 127.1,138.3 M 52.0,213.5 L 95.1,213.5 M 127.1,138.3 L 138.3,127.1 M 95.1,213.5 L 106.3,224.7 M 138.3,192.7 L 127.1,181.5 M 299.7,181.5 L 299.7,138.3" fill="none" stroke="white" stroke-width="2" stroke-linecap="round"/>
  <polygon points="160.27570866282397,291.6372196691293 168.27570866282397,299.6372196691293 160.27570866282397,307.6372196691293 152.27570866282397,299.6372196691293" fill="#4a9eff" stroke="white" stroke-width="1"/>
</svg>