<svg xmlns="http://www.w3.org/2000/svg" viewBox="0 0 400 400">
  <rect width="400" height="400" fill="#1a1a2e"/>
  <path d="M 152.5,314.8 L 146.0,311.8 L 134.8,307.7 Z M 152.5,314.8 L 134.8,307.7 L 152.5,380.0 Z M 152.5,380.0 L 134.8,307.7 L 123.6,311.8 Z M 152.5,380.0 L 123.6,311.8 L 117.1,380.0 Z M 146.0,88.3 L 152.5,85.2 L 152.5,20.0 Z M 146.0,88.3 L 152.5,20.0 L 134.8,92.3 Z M 134.8,92.3 L 152.5,20.0 L 117.1,20.0 Z M 134.8,92.3 L 117.1,20.0 L 123.6,88.3 Z M 123.6,311.8 L 117.1,314.8 L 117.1,380.0 Z M 123.6,88.3 L 117.1,20.0 L 117.1,85.2 Z M 114.3,150.4 L 155.3,150.4 L 154.1,133.5 Z M 114.3,150.4 L 154.1,133.5 L 115.5,133.5 Z M 115.5,133.5 L 154.1,133.5 L 150.9,122.0 Z M 115.5,133.5 L 150.9,122.0 L 118.7,122.0 Z M 118.7,122.0 L 150.9,122.0 L 145.9,110.6 Z M 118.7,122.0 L 145.9,110.6 L 123.7,110.6 Z M 184.4,179.5 L 184.4,220.5 L 201.3,219.3 Z M 184.4,179.5 L 201.3,219.3 L 201.3,180.7 Z M 201.3,180.7 L 201.3,219.3 L 212.8,216.1 Z M 201.3,180.7 L 212.8,216.1 L 212.8,183.9 Z M 212.8,183.9 L 212.8,216.1 L 224.2,211.1 Z M 212.8,183.9 L 224.2,211.1 L 224.2,188.9 Z M 155.3,249.6 L 114.3,249.6 L 115.5,266.5 Z M 155.3,249.6 L 115.5,266.5 L 154.1,266.5 Z M 154.1,266.5 L 115.5,266.5 L 118.7,278.0 Z M 154.1,266.5 L 118.7,278.0 L 150.9,278.0 Z M 150.9,278.0 L 118.7,278.0 L 123.7,289.4 Z M 150.9,278.0 L 123.7,289.4 L 145.9,289.4 Z M 85.2,220.5 L 85.2,179.5 L 68.3,180.7 Z M 85.2,220.5 L 68.3,180.7 L 68.3,219.3 Z M 68.3,219.3 L 68.3,180.7 L 56.8,183.9 Z M 68.3,219.3 L 56.8,183.9 L 56.8,216.1 Z M 56.8,216.1 L 56.8,183.9 L 45.4,188.9 Z M 56.8,216.1 L 45.4,188.9 L 45.4,211.1 Z M 152.0,158.2 L 117.6,158.2 L 93.2,182.6 Z M 152.0,158.2 L 93.2,182.6 L 176.4,182.6 Z M 176.4,182.6 L 93.2,182.6 L 93.2,217.1 Z M 176.4,182.6 L 93.2,217.1 L 176.4,217.1 Z M 176.4,217.1 L 93.2,217.1 L 117.6,241.5 Z M 176.4,217.1 L 117.6,241.5 L 152.0,241.5 Z M 224.2,211.1 L 238.4,200.0 L 224.2,188.9 Z M 123.7,289.4 L 134.8,303.6 L 145.9,289.4 Z M 45.4,188.9 L 31.2,200.0 L 45.4,211.1 Z M 145.9,110.6 L 134.8,96.4 L 123.7,110.6 Z M 201.8,221.3 L 193.6,233.1 L 223.3,233.6 Z M 201.8,221.3 L 223.3,233.6 L 213.5,218.2 Z M 213.5,218.2 L 223.3,233.6 L 242.7,214.2 Z M 213.5,218.2 L 242.7,214.2 L 224.8,213.0 Z M 123.6,311.8 L 121.8,290.0 L 116.6,278.7 Z M 123.6,311.8 L 116.6,278.7 L 101.1,288.4 Z M 101.1,288.4 L 116.6,278.7 L 113.5,267.0 Z M 101.1,288.4 L 113.5,267.0 L 101.7,258.8 Z M 167.9,258.8 L 156.1,267.0 L 153.0,278.7 Z M 167.9,258.8 L 153.0,278.7 L 168.5,288.4 Z M 168.5,288.4 L 153.0,278.7 L 147.8,290.0 Z M 168.5,288.4 L 147.8,290.0 L 146.0,311.8 Z M 44.8,213.0 L 26.9,214.2 L 46.3,233.6 Z M 44.8,213.0 L 46.3,233.6 L 56.1,218.2 Z M 56.1,218.2 L 46.3,233.6 L 76.0,233.1 Z M 56.1,218.2 L 76.0,233.1 L 67.8,221.3 Z M 112.3,247.6 L 87.2,222.5 L 76.0,233.1 Z M 112.3,247.6 L 76.0,233.1 L 101.7,258.8 Z M 101.7,258.8 L 76.0,233.1 L 46.3,233.6 Z M 101.7,258.8 L 46.3,233.6 L 101.1,288.4 Z M 182.4,222.5 L 157.3,247.6 L 167.9,258.8 Z M 182.4,222.5 L 167.9,258.8 L 193.6,233.1 Z M 193.6,233.1 L 167.9,258.8 L 168.5,288.4 Z M 193.6,233.1 L 168.5,288.4 L 223.3,233.6 Z M 56.1,181.8 L 67.8,178.7 L 76.0,166.9 Z M 56.1,181.8 L 76.0,166.9 L 46.3,166.4 Z M 46.3,166.4 L 76.0,166.9 L 101.7,141.2 Z M 46.3,166.4 L 101.7,141.2 L 101.1,111.6 Z M 101.1,111.6 L 101.7,141.2 L 113.5,133.0 Z M 101.1,111.6 L 113.5,133.0 L 116.6,121.3 Z M 153.0,121.3 L 156.1,133.0 L 167.9,141.2 Z M 153.0,121.3 L 167.9,141.2 L 168.5,111.6 Z M 168.5,111.6 L 167.9,141.2 L 193.6,166.9 Z M 168.5,111.6 L 193.6,166.9 L 223.3,166.4 Z M 223.3,166.4 L 193.6,166.9 L 201.8,178.7 Z M 223.3,166.4 L 201.8,178.7 L 213.5,181.8 Z M 213.5,181.8 L 224.8,187.0 L 242.7,185.8 Z M 213.5,181.8 L 242.7,185.8 L 223.3,166.4 Z M 26.9,185.8 L 44.8,187.0 L 56.1,181.8 Z M 26.9,185.8 L 56.1,181.8 L 46.3,166.4 Z M 76.0,166.9 L 87.2,177.5 L 112.3,152.4 Z M 76.0,166.9 L 112.3,152.4 L 101.7,141.2 Z M 167.9,141.2 L 157.3,152.4 L 182.4,177.5 Z M 167.9,141.2 L 182.4,177.5 L 193.6,166.9 Z M 146.0,88.3 L 147.8,110.0 L 153.0,121.3 Z M 146.0,88.3 L 153.0,121.3 L 168.5,111.6 Z M 116.6,121.3 L 121.8,110.0 L 123.6,88.3 Z M 116.6,121.3 L 123.6,88.3 L 101.1,111.6 Z M 201.8,221.3 L 182.4,222.5 L 193.6,233.1 Z M 242.7,214.2 L 242.5,200.0 L 224.8,213.0 Z M 242.7,185.8 L 224.8,187.0 L 242.5,200.0 Z M 113.5,267.0 L 112.3,247.6 L 101.7,258.8 Z M 123.6,311.8 L 134.8,307.7 L 121.8,290.0 Z M 156.1,267.0 L 167.9,258.8 L 157.3,247.6 Z M 146.0,311.8 L 147.8,290.0 L 134.8,307.7 Z M 26.9,185.8 L 27.1,200.0 L 44.8,187.0 Z M 67.8,221.3 L 76.0,233.1 L 87.2,222.5 Z M 26.9,214.2 L 44.8,213.0 L 27.1,200.0 Z M 67.8,178.7 L 87.2,177.5 L 76.0,166.9 Z M 113.5,133.0 L 101.7,141.2 L 112.3,152.4 Z M 156.1,133.0 L 157.3,152.4 L 167.9,141.2 Z M 201.8,178.7 L 193.6,166.9 L 182.4,177.5 Z M 146.0,88.3 L 134.8,92.3 L 147.8,110.0 Z M 121.8,110.0 L 134.8,92.3 L 123.6,88.3 Z M 155.3,150.4 L 157.3,152.4 L 156.1,133.0 Z M 155.3,150.4 L 156.1,133.0 L 154.1,133.5 Z M 154.1,133.5 L 156.1,133.0 L 153.0,121.3 Z M 154.1,133.5 L 153.0,121.3 L 150.9,122.0 Z M 150.9,122.0 L 153.0,121.3 L 147.8,110.0 Z M 150.9,122.0 L 147.8,110.0 L 145.9,110.6 Z M 145.9,110.6 L 147.8,110.0 L 134.8,92.3 Z M 145.9,110.6 L 134.8,92.3 L 134.8,96.4 Z M 134.8,96.4 L 134.8,92.3 L 121.8,110.0 Z M 134.8,96.4 L 121.8,110.0 L 123.7,110.6 Z M 123.7,110.6 L 121.8,110.0 L 116.6,121.3 Z M 123.7,110.6 L 116.6,121.3 L 118.7,122.0 Z M 118.7,122.0 L 116.6,121.3 L 113.5,133.0 Z M 118.7,122.0 L 113.5,133.0 L 115.5,133.5 Z M 115.5,133.5 L 113.5,133.0 L 112.3,152.4 Z M 115.5,133.5 L 112.3,152.4 L 114.3,150.4 Z M 184.4,220.5 L 182.4,222.5 L 201.8,221.3 Z M 184.4,220.5 L 201.8,221.3 L 201.3,219.3 Z M 201.3,219.3 L 201.8,221.3 L 213.5,218.2 Z M 201.3,219.3 L 213.5,218.2 L 212.8,216.1 Z M 212.8,216.1 L 213.5,218.2 L 224.8,213.0 Z M 212.8,216.1 L 224.8,213.0 L 224.2,211.1 Z M 224.2,211.1 L 224.8,213.0 L 242.5,200.0 Z M 224.2,211.1 L 242.5,200.0 L 238.4,200.0 Z M 238.4,200.0 L 242.5,200.0 L 224.8,187.0 Z M 238.4,200.0 L 224.8,187.0 L 224.2,188.9 Z M 224.2,188.9 L 224.8,187.0 L 213.5,181.8 Z M 224.2,188.9 L 213.5,181.8 L 212.8,183.9 Z M 212.8,183.9 L 213.5,181.8 L 201.8,178.7 Z M 212.8,183.9 L 201.8,178.7 L 201.3,180.7 Z M 201.3,180.7 L 201.8,178.7 L 182.4,177.5 Z M 201.3,180.7 L 182.4,177.5 L 184.4,179.5 Z M 114.3,249.6 L 112.3,247.6 L 113.5,267.0 Z M 114.3,249.6 L 113.5,267.0 L 115.5,266.5 Z M 115.5,266.5 L 113.5,267.0 L 116.6,278.7 Z M 115.5,266.5 L 116.6,278.7 L 118.7,278.0 Z M 118.7,278.0 L 116.6,278.7 L 121.8,290.0 Z M 118.7,278.0 L 121.8,290.0 L 123.7,289.4 Z M 123.7,289.4 L 121.8,290.0 L 134.8,307.7 Z M 123.7,289.4 L 134.8,307.7 L 134.8,303.6 Z M 134.8,303.6 L 134.8,307.7 L 147.8,290.0 Z M 134.8,303.6 L 147.8,290.0 L 145.9,289.4 Z M 145.9,289.4 L 147.8,290.0 L 153.0,278.7 Z M 145.9,289.4 L 153.0,278.7 L 150.9,278.0 Z M 150.9,278.0 L 153.0,278.7 L 156.1,267.0 Z M 150.9,278.0 L 156.1,267.0 L 154.1,266.5 Z M 154.1,266.5 L 156.1,267.0 L 157.3,247.6 Z M 154.1,266.5 L 157.3,247.6 L 155.3,249.6 Z M 85.2,179.5 L 87.2,177.5 L 67.8,178.7 Z M 85.2,179.5 L 67.8,178.7 L 68.3,180.7 Z M 68.3,180.7 L 67.8,178.7 L 56.1,181.8 Z M 68.3,180.7 L 56.1,181.8 L 56.8,183.9 Z M 56.8,183.9 L 56.1,181.8 L 44.8,187.0 Z M 56.8,183.9 L 44.8,187.0 L 45.4,188.9 Z M 45.4,188.9 L 44.8,187.0 L 27.1,200.0 Z M 45.4,188.9 L 27.1,200.0 L 31.2,200.0 Z M 31.2,200.0 L 27.1,200.0 L 44.8,213.0 Z M 31.2,200.0 L 44.8,213.0 L 45.4,211.1 Z M 45.4,211.1 L 44.8,213.0 L 56.1,218.2 Z M 45.4,211.1 L 56.1,218.2 L 56.8,216.1 Z M 56.8,216.1 L 56.1,218.2 L 67.8,221.3 Z M 56.8,216.1 L 67.8,221.3 L 68.3,219.3 Z M 68.3,219.3 L 67.8,221.3 L 87.2,222.5 Z M 68.3,219.3 L 87.2,222.5 L 85.2,220.5 Z M 114.3,249.6 L 155.3,249.6 L 152.0,241.5 Z M 114.3,249.6 L 152.0,241.5 L 117.6,241.5 Z M 176.4,182.8 L 176.4,217.1 L 184.4,220.5 Z M 176.4,182.8 L 184.4,220.5 L 184.4,179.5 Z M 117.6,158.3 L 152.0,158.4 L 155.3,150.4 Z M 117.6,158.3 L 155.3,150.4 L 114.3,150.4 Z M 93.2,217.1 L 93.3,182.7 L 85.2,179.5 Z M 93.2,217.1 L 85.2,179.5 L 85.2,220.5 Z M 249.6,217.7 L 249.6,182.3 L 242.7,185.8 Z M 249.6,217.7 L 242.7,185.8 L 242.5,200.0 Z M 20.0,182.3 L 20.0,217.7 L 26.9,214.2 Z M 20.0,182.3 L 26.9,214.2 L 27.1,200.0 Z M 152.5,314.8 L 249.6,217.7 L 223.3,233.6 Z M 152.5,314.8 L 223.3,233.6 L 168.5,288.4 Z M 46.3,233.6 L 20.0,217.7 L 117.1,314.8 Z M 46.3,233.6 L 117.1,314.8 L 101.1,288.4 Z M 93.3,182.7 L 117.6,158.3 L 112.3,152.4 Z M 93.3,182.7 L 112.3,152.4 L 87.2,177.5 Z M 152.0,158.4 L 176.4,182.8 L 182.4,177.5 Z M 152.0,158.4 L 182.4,177.5 L 157.3,152.4 Z M 87.2,222.5 L 112.3,247.6 L 117.6,241.5 Z M 87.2,222.5 L 117.6,241.5 L 93.2,217.1 Z M 176.4,217.1 L 152.0,241.5 L 157.3,247.6 Z M 176.4,217.1 L 157.3,247.6 L 182.4,222.5 Z M 117.1,85.2 L 20.0,182.3 L 46.3,166.4 Z M 117.1,85.2 L 46.3,166.4 L 101.1,111.6 Z M 223.3,166.4 L 249.6,182.3 L 152.5,85.2 Z M 223.3,166.4 L 152.5,85.2 L 168.5,111.6 Z M 20.0,182.3 L 26.9,185.8 L 46.3,166.4 Z M 112.3,247.6 L 114.3,249.6 L 117.6,241.5 Z M 182.4,222.5 L 184.4,220.5 L 176.4,217.1 Z M 242.5,200.0 L 242.7,214.2 L 249.6,217.7 Z M 27.1,200.0 L 26.9,185.8 L 20.0,182.3 Z M 117.6,158.3 L 114.3,150.4 L 112.3,152.4 Z M 176.4,182.8 L 184.4,179.5 L 182.4,177.5 Z M 249.6,182.3 L 223.3,166.4 L 242.7,185.8 Z M 249.6,217.7 L 242.7,214.2 L 223.3,233.6 Z M 168.5,288.4 L 146.0,311.7 L 152.5,314.8 Z M 20.0,217.7 L 46.3,233.6 L 26.9,214.2 Z M 101.1,288.4 L 117.1,314.8 L 123.6,311.7 Z M 157.3,152.4 L 155.3,150.4 L 152.0,158.4 Z M 87.2,177.5 L 85.2,179.5 L 93.3,182.7 Z M 152.0,241.5 L 155.3,249.6 L 157.3,247.6 Z M 93.2,217.1 L 85.2,220.5 L 87.2,222.5 Z M 101.1,111.6 L 123.6,88.3 L 117.1,85.2 Z M 168.5,111.6 L 152.5,85.2 L 146.0,88.3 Z" fill="#2a2a4e" stroke="none"/>
  <path d="M 152.5,314.8 L 146.0,311.8 M 152.5,380.0 L 152.5,314.8 M 117.1,380.0 L 152.5,380.0 M 152.5,85.2 L 152.5,20.0 M 152.5,20.0 L 117.1,20.0 M 123.6,311.8 L 117.1,314.8 M 117.1,314.8 L 117.1,380.0 M 117.1,20.0 L 117.1,85.2 M 152.0,158.2 L 117.6,158.2 M 117.6,158.2 L 93.2,182.6 M 176.4,182.6 L 152.0,158.2 M 93.2,182.6 L 93.2,217.1 M 176.4,217.1 L 176.4,182.6 M 101.1,288.4 L 123.6,311.8 M 146.0,311.8 L 168.5,288.4 M 176.4,182.8 L 176.4,217.1 M 117.6,158.3 L 152.0,158.4 M 93.2,217.1 L 93.3,182.7 M 249.6,217.7 L 249.6,182.3 M 20.0,182.3 L 20.0,217.7 M 152.5,314.8 L 249.6,217.7 M 20.0,217.7 L 117.1,314.8 M 93.3,182.7 L 117.6,158.3 M 152.0,158.4 L 176.4,182.8 M 117.1,85.2 L 20.0,182.3 M 249.6,182.3 L 152.5,85.2 M 168.5,288.4 L 146.0,311.7 M 146.0,311.7 L 152.5,314.8 M 117.1,314.8 L 123.6,311.7 M 123.6,311.7 L 101.1,288.4" fill="none" stroke="white" stroke-width="2" stroke-linecap="round"/>
  <polygon points="132.74485451880315,77.26926968767336 140.74485451880315,85.26926968767336 132.74485451880315,93.26926968767336 124.74485451880315,85.26926968767336" fill="#4a9eff" stroke="white" stroke-width="1"/>
<polygon points="134.27796346704127,306.6822210191476 142.27796346704127,314.6822210191476 134.27796346704127,322.6822210191476 126.27796346704127,314.6822210191476" fill="#4a9eff" stroke="white" stroke-width="1"/>
</svg>