<svg xmlns="http://www.w3.org/2000/svg" viewBox="0 0 400 400">
  <rect width="400" height="400" fill="#1a1a2e"/>
  <path d="M 102.9,110.6 L 144.2,100.7 L 178.6,66.2 Z M 102.9,110.6 L 178.6,66.2 L 186.6,26.9 Z M 186.6,26.9 L 178.6,66.2 L 259.3,146.9 Z M 186.6,26.9 L 259.3,146.9 L 284.2,146.4 Z M 213.4,26.9 L 186.6,26.9 L 297.0,133.5 Z M 213.4,26.9 L 297.0,133.5 L 297.0,110.6 Z M 297.0,110.6 L 297.0,133.5 L 380.0,132.9 Z M 297.0,110.6 L 380.0,132.9 L 380.0,110.9 Z M 224.3,206.2 L 224.8,181.3 L 188.5,219.1 Z M 224.3,206.2 L 188.5,219.1 L 211.5,219.1 Z M 211.5,219.1 L 188.5,219.1 L 189.2,302.0 Z M 211.5,219.1 L 189.2,302.0 L 211.2,302.0 Z M 188.5,219.1 L 144.2,100.7 L 102.9,110.6 Z M 188.5,219.1 L 102.9,110.6 L 102.9,133.5 Z M 102.9,133.5 L 102.9,110.6 L 20.0,111.2 Z M 102.9,133.5 L 20.0,111.2 L 20.0,133.2 Z M 143.8,113.0 L 133.4,116.1 L 149.3,159.2 Z M 143.8,113.0 L 149.3,159.2 L 175.6,148.8 Z M 175.6,148.8 L 149.3,159.2 L 172.5,179.9 Z M 175.6,148.8 L 172.5,179.9 L 177.5,168.0 Z M 260.3,101.8 L 240.1,72.8 L 224.6,91.4 Z M 260.3,101.8 L 224.6,91.4 L 247.8,109.6 Z M 284.2,146.4 L 297.0,133.5 L 186.6,26.9 Z M 224.8,181.3 L 144.2,100.7 L 188.5,219.1 Z M 224.6,91.4 L 240.1,72.8 L 217.1,57.7 Z M 117.9,112.8 L 151.3,106.1 L 158.8,79.4 Z M 117.9,112.8 L 158.8,79.4 L 150.4,73.7 Z M 150.4,73.7 L 158.8,79.4 L 179.4,64.1 Z M 150.4,73.7 L 179.4,64.1 L 173.3,48.8 Z M 173.3,48.8 L 179.4,64.1 L 198.6,60.9 Z M 173.3,48.8 L 198.6,60.9 L 194.5,36.9 Z M 194.5,36.9 L 198.6,60.9 L 217.1,57.7 Z M 194.5,36.9 L 217.1,57.7 L 205.5,36.9 Z M 205.5,36.9 L 217.1,57.7 L 240.1,72.8 Z M 205.5,36.9 L 240.1,72.8 L 246.9,66.6 Z M 246.9,66.6 L 240.1,72.8 L 260.3,101.8 Z M 246.9,66.6 L 260.3,101.8 L 280.6,111.4 Z M 280.6,111.4 L 260.3,101.8 L 247.8,109.6 Z M 280.6,111.4 L 247.8,109.6 L 269.5,125.8 Z M 149.3,159.2 L 150.4,179.4 L 191.1,215.5 Z M 149.3,159.2 L 191.1,215.5 L 172.5,179.9 Z M 172.5,179.9 L 191.1,215.5 L 196.6,177.0 Z M 172.5,179.9 L 196.6,177.0 L 177.5,168.0 Z M 177.5,168.0 L 196.6,177.0 L 185.5,142.8 Z M 177.5,168.0 L 185.5,142.8 L 175.6,148.8 Z M 175.6,148.8 L 185.5,142.8 L 151.3,106.1 Z M 175.6,148.8 L 151.3,106.1 L 143.8,113.0 Z M 143.8,113.0 L 151.3,106.1 L 117.9,112.8 Z M 143.8,113.0 L 117.9,112.8 L 133.4,116.1 Z M 261.5,136.2 L 247.8,109.6 L 224.6,91.4 Z M 261.5,136.2 L 224.6,91.4 L 215.1,101.7 Z M 215.1,101.7 L 224.6,91.4 L 217.1,57.7 Z M 215.1,101.7 L 217.1,57.7 L 198.6,60.9 Z M 117.9,112.8 L 117.9,129.6 L 133.4,116.1 Z M 117.9,129.6 L 149.3,159.2 L 133.4,116.1 Z M 247.8,109.6 L 261.5,136.2 L 269.5,125.8 Z M 261.5,136.2 L 282.5,130.8 L 269.5,125.8 Z M 269.5,125.8 L 282.5,130.8 L 280.6,111.4 Z M 282.5,130.8 L 380.0,131.5 L 380.0,115.0 Z M 282.5,130.8 L 380.0,115.0 L 280.6,111.4 Z M 117.9,112.8 L 20.0,117.6 L 20.0,126.5 Z M 117.9,112.8 L 20.0,126.5 L 117.9,129.6 Z M 191.8,302.8 L 207.9,302.8 L 211.3,215.8 Z M 191.8,302.8 L 211.3,215.8 L 191.1,215.5 Z M 196.6,177.0 L 191.1,215.5 L 224.4,204.8 Z M 196.6,177.0 L 224.4,204.8 L 224.7,188.1 Z M 215.1,101.7 L 198.6,60.9 L 179.4,64.1 Z M 117.9,129.6 L 150.4,179.4 L 149.3,159.2 Z M 196.6,177.0 L 224.7,188.1 L 185.5,142.8 Z M 211.3,215.8 L 224.4,204.8 L 191.1,215.5 Z M 216.9,20.0 L 213.4,26.9 L 297.0,110.6 Z M 216.9,20.0 L 297.0,110.6 L 300.6,103.7 Z M 380.0,104.3 L 300.6,103.7 L 297.0,110.6 Z M 380.0,104.3 L 297.0,110.6 L 380.0,110.9 Z M 216.9,20.0 L 183.1,20.0 L 186.6,26.9 Z M 216.9,20.0 L 186.6,26.9 L 213.4,26.9 Z M 181.6,222.6 L 188.5,219.1 L 102.9,133.5 Z M 181.6,222.6 L 102.9,133.5 L 99.4,140.4 Z M 102.9,110.6 L 186.6,26.9 L 183.1,20.0 Z M 102.9,110.6 L 183.1,20.0 L 99.4,103.7 Z M 380.0,139.8 L 380.0,132.9 L 297.0,133.5 Z M 380.0,139.8 L 297.0,133.5 L 300.6,140.4 Z M 20.0,139.8 L 99.4,140.4 L 102.9,133.5 Z M 20.0,139.8 L 102.9,133.5 L 20.0,133.2 Z M 20.0,104.3 L 20.0,111.2 L 102.9,110.6 Z M 20.0,104.3 L 102.9,110.6 L 99.4,103.7 Z M 153.1,100.1 L 178.1,75.1 L 178.6,66.2 Z M 153.1,100.1 L 178.6,66.2 L 144.2,100.7 Z M 217.7,302.0 L 218.4,222.6 L 211.5,219.1 Z M 217.7,302.0 L 211.5,219.1 L 211.2,302.0 Z M 182.3,302.0 L 189.2,302.0 L 188.5,219.1 Z M 182.3,302.0 L 188.5,219.1 L 181.6,222.6 Z M 300.6,140.4 L 297.0,133.5 L 284.2,146.4 Z M 300.6,140.4 L 284.2,146.4 L 287.7,153.3 Z M 259.3,146.9 L 178.6,66.2 L 178.1,75.1 Z M 259.3,146.9 L 178.1,75.1 L 256.3,153.3 Z M 256.3,153.3 L 287.7,153.3 L 284.2,146.4 Z M 256.3,153.3 L 284.2,146.4 L 259.3,146.9 Z M 224.3,206.2 L 211.5,219.1 L 218.4,222.6 Z M 224.3,206.2 L 218.4,222.6 L 231.2,209.8 Z M 153.1,100.1 L 144.2,100.7 L 224.8,181.3 Z M 153.1,100.1 L 224.8,181.3 L 231.3,178.4 Z M 224.3,206.2 L 231.2,209.8 L 231.3,178.4 Z M 224.3,206.2 L 231.3,178.4 L 224.8,181.3 Z M 255.2,56.1 L 246.9,66.6 L 287.5,100.4 Z M 246.9,66.6 L 280.6,111.4 L 287.5,100.4 Z M 187.5,21.3 L 194.5,36.9 L 209.4,20.2 Z M 194.5,36.9 L 205.5,36.9 L 209.4,20.2 Z M 142.1,189.3 L 150.4,179.4 L 108.7,142.1 Z M 150.4,179.4 L 117.9,129.6 L 108.7,142.1 Z M 20.0,140.9 L 108.7,142.1 L 20.0,126.5 Z M 108.7,142.1 L 117.9,129.6 L 20.0,126.5 Z M 117.9,112.8 L 109.1,100.9 L 20.0,117.6 Z M 109.1,100.9 L 20.0,104.0 L 20.0,117.6 Z M 246.9,66.6 L 255.2,56.1 L 205.5,36.9 Z M 255.2,56.1 L 209.4,20.2 L 205.5,36.9 Z M 138.9,63.5 L 109.1,100.9 L 150.4,73.7 Z M 109.1,100.9 L 117.9,112.8 L 150.4,73.7 Z M 150.4,179.4 L 142.1,189.3 L 191.1,215.5 Z M 142.1,189.3 L 181.5,223.8 L 191.1,215.5 Z M 180.5,302.8 L 191.8,302.8 L 181.5,223.8 Z M 191.8,302.8 L 191.1,215.5 L 181.5,223.8 Z M 280.6,111.4 L 380.0,115.0 L 380.0,103.0 Z M 280.6,111.4 L 380.0,103.0 L 287.5,100.4 Z M 173.3,48.8 L 162.1,37.2 L 138.9,63.5 Z M 173.3,48.8 L 138.9,63.5 L 150.4,73.7 Z M 282.5,130.8 L 283.7,143.1 L 380.0,140.7 Z M 282.5,130.8 L 380.0,140.7 L 380.0,131.5 Z M 282.5,130.8 L 261.5,136.2 L 260.3,149.5 Z M 282.5,130.8 L 260.3,149.5 L 283.7,143.1 Z M 233.7,183.0 L 224.7,188.1 L 224.4,204.8 Z M 233.7,183.0 L 224.4,204.8 L 233.9,209.0 Z M 215.1,101.7 L 209.9,109.7 L 260.3,149.5 Z M 215.1,101.7 L 260.3,149.5 L 261.5,136.2 Z M 158.8,79.4 L 167.2,85.7 L 179.7,76.3 Z M 158.8,79.4 L 179.7,76.3 L 179.4,64.1 Z M 187.5,21.3 L 162.1,37.2 L 173.3,48.8 Z M 187.5,21.3 L 173.3,48.8 L 194.5,36.9 Z M 158.8,79.4 L 151.3,106.1 L 162.6,104.1 Z M 158.8,79.4 L 162.6,104.1 L 167.2,85.7 Z M 185.5,142.8 L 224.7,188.1 L 233.7,183.0 Z M 185.5,142.8 L 233.7,183.0 L 192.8,136.0 Z M 217.8,302.8 L 221.3,222.8 L 211.3,215.8 Z M 217.8,302.8 L 211.3,215.8 L 207.9,302.8 Z M 209.9,109.7 L 215.1,101.7 L 179.4,64.1 Z M 209.9,109.7 L 179.4,64.1 L 179.7,76.3 Z M 224.4,204.8 L 211.3,215.8 L 221.3,222.8 Z M 224.4,204.8 L 221.3,222.8 L 233.9,209.0 Z M 192.8,136.0 L 162.6,104.1 L 151.3,106.1 Z M 192.8,136.0 L 151.3,106.1 L 185.5,142.8 Z M 269.8,123.4 L 278.0,131.6 L 278.0,115.2 Z M 261.6,115.2 L 261.6,131.6 L 269.8,123.4 Z M 278.0,115.2 L 261.6,115.2 L 269.8,123.4 Z M 261.6,131.6 L 278.0,131.6 L 269.8,123.4 Z M 191.2,179.5 L 201.0,187.0 L 198.7,169.6 Z M 181.4,171.9 L 183.7,189.3 L 191.2,179.5 Z M 198.7,169.6 L 181.4,171.9 L 191.2,179.5 Z M 183.7,189.3 L 201.0,187.0 L 191.2,179.5 Z M 135.2,119.7 L 143.7,123.4 L 138.9,111.2 Z M 126.8,116.0 L 131.6,128.2 L 135.2,119.7 Z M 138.9,111.2 L 126.8,116.0 L 135.2,119.7 Z M 131.6,128.2 L 143.7,123.4 L 135.2,119.7 Z M 199.9,58.7 L 204.4,70.7 L 211.8,54.1 Z M 195.3,46.7 L 187.9,63.3 L 199.9,58.7 Z M 211.8,54.1 L 195.3,46.7 L 199.9,58.7 Z M 187.9,63.3 L 204.4,70.7 L 199.9,58.7 Z" fill="#2a2a4e" stroke="none"/>
  <path d="M 380.0,132.9 L 380.0,110.9 M 189.2,302.0 L 211.2,302.0 M 20.0,111.2 L 20.0,133.2 M 380.0,131.5 L 380.0,115.0 M 20.0,117.6 L 20.0,126.5 M 191.8,302.8 L 207.9,302.8 M 300.6,103.7 L 216.9,20.0 M 380.0,104.3 L 300.6,103.7 M 380.0,110.9 L 380.0,104.3 M 216.9,20.0 L 183.1,20.0 M 99.4,140.4 L 181.6,222.6 M 183.1,20.0 L 99.4,103.7 M 380.0,139.8 L 380.0,132.9 M 300.6,140.4 L 380.0,139.8 M 20.0,139.8 L 99.4,140.4 M 20.0,133.2 L 20.0,139.8 M 20.0,104.3 L 20.0,111.2 M 99.4,103.7 L 20.0,104.3 M 153.1,100.1 L 178.1,75.1 M 217.7,302.0 L 218.4,222.6 M 211.2,302.0 L 217.7,302.0 M 182.3,302.0 L 189.2,302.0 M 181.6,222.6 L 182.3,302.0 M 287.7,153.3 L 300.6,140.4 M 178.1,75.1 L 256.3,153.3 M 256.3,153.3 L 287.7,153.3 M 218.4,222.6 L 231.2,209.8 M 231.3,178.4 L 153.1,100.1 M 231.2,209.8 L 231.3,178.4 M 287.5,100.4 L 255.2,56.1 M 209.4,20.2 L 187.5,21.3 M 108.7,142.1 L 142.1,189.3 M 20.0,140.9 L 108.7,142.1 M 20.0,126.5 L 20.0,140.9 M 109.1,100.9 L 20.0,104.0 M 20.0,104.0 L 20.0,117.6 M 255.2,56.1 L 209.4,20.2 M 138.9,63.5 L 109.1,100.9 M 142.1,189.3 L 181.5,223.8 M 180.5,302.8 L 191.8,302.8 M 181.5,223.8 L 180.5,302.8 M 380.0,115.0 L 380.0,103.0 M 380.0,103.0 L 287.5,100.4 M 162.1,37.2 L 138.9,63.5 M 283.7,143.1 L 380.0,140.7 M 380.0,140.7 L 380.0,131.5 M 260.3,149.5 L 283.7,143.1 M 233.9,209.0 L 233.7,183.0 M 209.9,109.7 L 260.3,149.5 M 167.2,85.7 L 179.7,76.3 M 187.5,21.3 L 162.1,37.2 M 162.6,104.1 L 167.2,85.7 M 233.7,183.0 L 192.8,136.0 M 217.8,302.8 L 221.3,222.8 M 207.9,302.8 L 217.8,302.8 M 179.7,76.3 L 209.9,109.7 M 221.3,222.8 L 233.9,209.0 M 192.8,136.0 L 162.6,104.1 M 278.0,131.6 L 278.0,115.2 M 261.6,115.2 L 261.6,131.6 M 278.0,115.2 L 261.6,115.2 M 261.6,131.6 L 278.0,131.6 M 201.0,187.0 L 198.7,169.6 M 181.4,171.9 L 183.7,189.3 M 198.7,169.6 L 181.4,171.9 M 183.7,189.3 L 201.0,187.0 M 143.7,123.4 L 138.9,111.2 M 126.8,116.0 L 131.6,128.2 M 138.9,111.2 L 126.8,116.0 M 131.6,128.2 L 143.7,123.4 M 204.4,70.7 L 211.8,54.1 M 195.3,46.7 L 187.9,63.3 M 211.8,54.1 L 195.3,46.7 M 187.9,63.3 L 204.4,70.7" fill="none" stroke="white" stroke-width="2" stroke-linecap="round"/>
  <polygon points="200.97559223546642,217.3759606639613 208.97559223546642,225.3759606639613 200.97559223546642,233.3759606639613 192.97559223546642,225.3759606639613" fill="#4a9eff" stroke="white" stroke-width="1"/>
<polygon points="98.64692086742866,114.00843042018421 106.64692086742866,122.00843042018421 98.64692086742866,130.0084304201842 90.64692086742866,122.00843042018421" fill="#4a9eff" stroke="white" stroke-width="1"/>
<polygon points="299.8531913746379,113.57831144613958 307.8531913746379,121.57831144613958 299.8531913746379,129.5783114461396 291.8531913746379,121.57831144613958" fill="#4a9eff" stroke="white" stroke-width="1"/>
</svg>