<svg xmlns="http://www.w3.org/2000/svg" viewBox="0 0 400 400">
  <rect width="400" height="400" fill="#1a1a2e"/>
  <path d="M 213.2,210.3 L 211.8,193.0 L 187.7,187.0 Z M 213.2,210.3 L 187.7,187.0 L 183.8,202.5 Z M 183.8,202.5 L 187.7,187.0 L 168.6,183.4 Z M 183.8,202.5 L 168.6,183.4 L 168.0,204.0 Z M 34.8,210.2 L 58.1,212.7 L 70.5,195.8 Z M 34.8,210.2 L 70.5,195.8 L 35.7,191.7 Z M 35.7,191.7 L 70.5,195.8 L 79.1,159.1 Z M 35.7,191.7 L 79.1,159.1 L 67.2,152.3 Z M 113.6,282.1 L 135.6,288.7 L 126.7,277.4 Z M 135.6,288.7 L 151.3,239.8 L 126.7,277.4 Z M 126.3,126.8 L 142.6,146.8 L 130.1,114.8 Z M 142.6,146.8 L 179.2,149.7 L 130.1,114.8 Z M 213.2,210.3 L 183.8,202.5 L 167.4,223.6 Z M 183.8,202.5 L 168.0,204.0 L 167.4,223.6 Z M 113.6,282.1 L 94.2,257.9 L 66.1,249.7 Z M 94.2,257.9 L 85.2,241.6 L 66.1,249.7 Z M 167.4,223.6 L 151.3,239.8 L 180.3,251.8 Z M 167.4,223.6 L 180.3,251.8 L 213.2,210.3 Z M 127.3,20.0 L 112.2,119.4 L 126.3,126.8 Z M 127.3,20.0 L 126.3,126.8 L 130.1,114.8 Z M 179.2,149.7 L 158.3,165.1 L 168.6,183.4 Z M 179.2,149.7 L 168.6,183.4 L 187.7,187.0 Z M 85.2,241.6 L 70.4,221.8 L 58.1,212.7 Z M 85.2,241.6 L 58.1,212.7 L 66.1,249.7 Z M 127.3,380.0 L 135.6,288.7 L 113.6,282.1 Z M 127.3,380.0 L 113.6,282.1 L 118.4,380.0 Z M 112.2,119.4 L 67.2,152.3 L 79.1,159.1 Z M 127.3,20.0 L 118.4,20.0 L 112.2,119.4 Z M 142.6,146.8 L 158.3,165.1 L 179.2,149.7 Z M 151.3,239.8 L 135.6,288.7 L 180.3,251.8 Z M 34.8,210.2 L 66.1,249.7 L 58.1,212.7 Z M 187.7,187.0 L 211.8,193.0 L 179.2,149.7 Z M 58.1,212.7 L 70.4,221.8 L 70.5,195.8 Z M 122.9,126.2 L 111.6,103.2 L 26.9,185.8 Z M 122.9,126.2 L 26.9,185.8 L 57.9,187.0 Z M 57.9,187.0 L 26.9,185.8 L 26.9,214.2 Z M 57.9,187.0 L 26.9,214.2 L 57.9,213.0 Z M 57.9,213.0 L 26.9,214.2 L 111.6,296.8 Z M 57.9,213.0 L 111.6,296.8 L 122.9,273.8 Z M 134.1,103.2 L 122.9,126.2 L 187.8,187.0 Z M 134.1,103.2 L 187.8,187.0 L 218.8,185.8 Z M 218.8,185.8 L 187.8,187.0 L 187.8,213.0 Z M 218.8,185.8 L 187.8,213.0 L 218.8,214.2 Z M 218.8,214.2 L 187.8,213.0 L 122.9,273.8 Z M 218.8,214.2 L 122.9,273.8 L 134.1,296.8 Z M 135.3,207.4 L 113.4,205.3 L 101.6,233.9 Z M 135.3,207.4 L 101.6,233.9 L 133.0,227.3 Z M 133.0,227.3 L 101.6,233.9 L 113.6,282.1 Z M 133.0,227.3 L 113.6,282.1 L 126.7,277.4 Z M 158.3,165.1 L 135.6,172.2 L 151.9,191.6 Z M 158.3,165.1 L 151.9,191.6 L 168.6,183.4 Z M 168.6,183.4 L 151.9,191.6 L 152.2,209.1 Z M 168.6,183.4 L 152.2,209.1 L 168.0,204.0 Z M 116.0,177.4 L 79.1,159.1 L 70.5,195.8 Z M 116.0,177.4 L 70.5,195.8 L 83.8,202.4 Z M 83.8,202.4 L 70.5,195.8 L 70.4,221.8 Z M 83.8,202.4 L 70.4,221.8 L 101.6,233.9 Z M 113.4,205.3 L 128.3,187.2 L 135.6,172.2 Z M 113.4,205.3 L 135.6,172.2 L 116.0,177.4 Z M 116.0,177.4 L 135.6,172.2 L 142.6,146.8 Z M 116.0,177.4 L 142.6,146.8 L 126.3,126.8 Z M 70.4,221.8 L 85.2,241.6 L 101.6,233.9 Z M 85.2,241.6 L 94.2,257.9 L 101.6,233.9 Z M 101.6,233.9 L 94.2,257.9 L 113.6,282.1 Z M 126.3,126.8 L 112.2,119.4 L 116.0,177.4 Z M 112.2,119.4 L 79.1,159.1 L 116.0,177.4 Z M 135.6,172.2 L 128.3,187.2 L 151.9,191.6 Z M 128.3,187.2 L 135.3,207.4 L 151.9,191.6 Z M 151.9,191.6 L 135.3,207.4 L 152.2,209.1 Z M 135.3,207.4 L 133.0,227.3 L 152.2,209.1 Z M 116.0,177.4 L 83.8,202.4 L 113.4,205.3 Z M 83.8,202.4 L 101.6,233.9 L 113.4,205.3 Z M 134.1,103.2 L 133.7,20.0 L 111.7,20.0 Z M 134.1,103.2 L 111.7,20.0 L 111.6,103.2 Z M 134.0,380.0 L 134.1,296.8 L 111.6,296.8 Z M 134.0,380.0 L 111.6,296.8 L 112.0,380.0 Z M 167.4,223.6 L 152.2,209.1 L 133.0,227.3 Z M 167.4,223.6 L 133.0,227.3 L 151.3,239.8 Z M 134.1,296.8 L 122.9,273.8 L 111.6,296.8 Z M 111.6,103.2 L 122.9,126.2 L 134.1,103.2 Z M 151.3,239.8 L 133.0,227.3 L 126.7,277.4 Z M 142.6,146.8 L 135.6,172.2 L 158.3,165.1 Z M 168.0,204.0 L 152.2,209.1 L 167.4,223.6 Z M 113.4,205.3 L 135.3,207.4 L 128.3,187.2 Z M 111.6,103.2 L 105.2,100.1 L 20.0,182.3 Z M 111.6,103.2 L 20.0,182.3 L 26.9,185.8 Z M 111.6,103.2 L 111.7,20.0 L 105.2,20.0 Z M 111.6,103.2 L 105.2,20.0 L 105.2,100.1 Z M 218.8,185.8 L 218.8,214.2 L 225.7,217.7 Z M 218.8,185.8 L 225.7,217.7 L 225.7,182.3 Z M 26.9,214.2 L 26.9,185.8 L 20.0,182.3 Z M 26.9,214.2 L 20.0,182.3 L 20.0,217.7 Z M 140.6,100.1 L 134.1,103.2 L 218.8,185.8 Z M 140.6,100.1 L 218.8,185.8 L 225.7,182.3 Z M 134.1,296.8 L 140.6,299.9 L 225.7,217.7 Z M 134.1,296.8 L 225.7,217.7 L 218.8,214.2 Z M 105.2,299.9 L 111.6,296.8 L 26.9,214.2 Z M 105.2,299.9 L 26.9,214.2 L 20.0,217.7 Z M 134.1,103.2 L 140.6,100.1 L 140.6,20.0 Z M 134.1,103.2 L 140.6,20.0 L 133.7,20.0 Z M 134.1,296.8 L 134.0,380.0 L 140.6,380.0 Z M 134.1,296.8 L 140.6,380.0 L 140.6,299.9 Z M 111.6,296.8 L 105.2,299.9 L 105.2,380.0 Z M 111.6,296.8 L 105.2,380.0 L 112.0,380.0 Z M 55.0,144.4 L 67.2,152.3 L 98.4,109.4 Z M 67.2,152.3 L 112.2,119.4 L 98.4,109.4 Z M 135.6,288.7 L 148.3,296.0 L 180.3,251.8 Z M 148.3,296.0 L 187.7,261.9 L 180.3,251.8 Z M 211.8,193.0 L 213.2,210.3 L 228.3,187.9 Z M 213.2,210.3 L 227.5,216.8 L 228.3,187.9 Z M 141.1,380.0 L 148.3,296.0 L 127.3,380.0 Z M 148.3,296.0 L 135.6,288.7 L 127.3,380.0 Z M 57.9,258.4 L 66.1,249.7 L 23.1,213.9 Z M 66.1,249.7 L 34.8,210.2 L 23.1,213.9 Z M 113.6,282.1 L 100.3,288.8 L 118.4,380.0 Z M 100.3,288.8 L 105.9,380.0 L 118.4,380.0 Z M 189.2,139.9 L 179.2,149.7 L 228.3,187.9 Z M 179.2,149.7 L 211.8,193.0 L 228.3,187.9 Z M 130.1,114.8 L 179.2,149.7 L 141.4,106.5 Z M 179.2,149.7 L 189.2,139.9 L 141.4,106.5 Z M 22.9,187.1 L 35.7,191.7 L 55.0,144.4 Z M 35.7,191.7 L 67.2,152.3 L 55.0,144.4 Z M 113.6,282.1 L 66.1,249.7 L 100.3,288.8 Z M 66.1,249.7 L 57.9,258.4 L 100.3,288.8 Z M 227.5,216.8 L 213.2,210.3 L 187.7,261.9 Z M 213.2,210.3 L 180.3,251.8 L 187.7,261.9 Z M 105.3,20.0 L 98.4,109.4 L 112.2,119.4 Z M 105.3,20.0 L 112.2,119.4 L 118.4,20.0 Z M 23.1,213.9 L 34.8,210.2 L 35.7,191.7 Z M 23.1,213.9 L 35.7,191.7 L 22.9,187.1 Z M 141.0,20.3 L 127.3,20.0 L 130.1,114.8 Z M 141.0,20.3 L 130.1,114.8 L 141.4,106.5 Z M 89.6,237.7 L 97.9,245.9 L 97.9,229.4 Z M 81.4,229.4 L 81.4,245.9 L 89.6,237.7 Z M 97.9,229.4 L 81.4,229.4 L 89.6,237.7 Z M 81.4,245.9 L 97.9,245.9 L 89.6,237.7 Z M 131.0,183.6 L 137.5,192.8 L 140.1,177.0 Z M 124.4,174.4 L 121.8,190.1 L 131.0,183.6 Z M 140.1,177.0 L 124.4,174.4 L 131.0,183.6 Z M 121.8,190.1 L 137.5,192.8 L 131.0,183.6 Z M 164.9,195.5 L 174.0,202.5 L 171.9,186.4 Z M 155.8,188.5 L 158.0,204.6 L 164.9,195.5 Z M 171.9,186.4 L 155.8,188.5 L 164.9,195.5 Z M 158.0,204.6 L 174.0,202.5 L 164.9,195.5 Z M 144.4,147.1 L 148.4,157.6 L 154.8,143.1 Z M 140.4,136.7 L 134.0,151.1 L 144.4,147.1 Z M 154.8,143.1 L 140.4,136.7 L 144.4,147.1 Z M 134.0,151.1 L 148.4,157.6 L 144.4,147.1 Z M 88.4,166.1 L 92.1,175.7 L 98.1,162.4 Z M 84.7,156.4 L 78.7,169.8 L 88.4,166.1 Z M 98.1,162.4 L 84.7,156.4 L 88.4,166.1 Z M 78.7,169.8 L 92.1,175.7 L 88.4,166.1 Z" fill="#2a2a4e" stroke="none"/>
  <path d="M 118.4,380.0 L 127.3,380.0 M 127.3,20.0 L 118.4,20.0 M 57.9,187.0 L 122.9,126.2 M 57.9,213.0 L 57.9,187.0 M 111.6,296.8 L 122.9,273.8 M 122.9,273.8 L 57.9,213.0 M 122.9,126.2 L 187.8,187.0 M 187.8,187.0 L 187.8,213.0 M 187.8,213.0 L 122.9,273.8 M 122.9,273.8 L 134.1,296.8 M 133.7,20.0 L 111.7,20.0 M 112.0,380.0 L 134.0,380.0 M 134.1,296.8 L 122.9,273.8 M 122.9,273.8 L 111.6,296.8 M 105.2,100.1 L 20.0,182.3 M 111.7,20.0 L 105.2,20.0 M 105.2,20.0 L 105.2,100.1 M 225.7,217.7 L 225.7,182.3 M 20.0,182.3 L 20.0,217.7 M 225.7,182.3 L 140.6,100.1 M 134.1,296.8 L 140.6,299.9 M 140.6,299.9 L 225.7,217.7 M 105.2,299.9 L 111.6,296.8 M 20.0,217.7 L 105.2,299.9 M 140.6,100.1 L 140.6,20.0 M 140.6,20.0 L 133.7,20.0 M 134.0,380.0 L 140.6,380.0 M 140.6,380.0 L 140.6,299.9 M 140.6,299.9 L 134.1,296.8 M 111.6,296.8 L 105.2,299.9 M 105.2,299.9 L 105.2,380.0 M 105.2,380.0 L 112.0,380.0 M 98.4,109.4 L 55.0,144.4 M 148.3,296.0 L 187.7,261.9 M 227.5,216.8 L 228.3,187.9 M 141.1,380.0 L 148.3,296.0 M 127.3,380.0 L 141.1,380.0 M 23.1,213.9 L 57.9,258.4 M 100.3,288.8 L 105.9,380.0 M 105.9,380.0 L 118.4,380.0 M 228.3,187.9 L 189.2,139.9 M 189.2,139.9 L 141.4,106.5 M 55.0,144.4 L 22.9,187.1 M 57.9,258.4 L 100.3,288.8 M 187.7,261.9 L 227.5,216.8 M 105.3,20.0 L 98.4,109.4 M 118.4,20.0 L 105.3,20.0 M 22.9,187.1 L 23.1,213.9 M 141.0,20.3 L 127.3,20.0 M 141.4,106.5 L 141.0,20.3 M 97.9,245.9 L 97.9,229.4 M 81.4,229.4 L 81.4,245.9 M 97.9,229.4 L 81.4,229.4 M 81.4,245.9 L 97.9,245.9 M 137.5,192.8 L 140.1,177.0 M 124.4,174.4 L 121.8,190.1 M 140.1,177.0 L 124.4,174.4 M 121.8,190.1 L 137.5,192.8 M 174.0,202.5 L 171.9,186.4 M 155.8,188.5 L 158.0,204.6 M 171.9,186.4 L 155.8,188.5 M 158.0,204.6 L 174.0,202.5 M 148.4,157.6 L 154.8,143.1 M 140.4,136.7 L 134.0,151.1 M 154.8,143.1 L 140.4,136.7 M 134.0,151.1 L 148.4,157.6 M 92.1,175.7 L 98.1,162.4 M 84.7,156.4 L 78.7,169.8 M 98.1,162.4 L 84.7,156.4 M 78.7,169.8 L 92.1,175.7" fill="none" stroke="white" stroke-width="2" stroke-linecap="round"/>
  <polygon points="123.53091682317465,292.21996395233907 131.53091682317466,300.21996395233907 123.53091682317465,308.21996395233907 115.53091682317465,300.21996395233907" fill="#4a9eff" stroke="white" stroke-width="1"/>
<polygon points="122.56977753167122,93.29129418015087 130.5697775316712,101.29129418015087 122.56977753167122,109.29129418015087 114.56977753167122,101.29129418015087" fill="#4a9eff" stroke="white" stroke-width="1"/>
</svg>