<svg xmlns="http://www.w3.org/2000/svg" viewBox="0 0 400 400">
  <rect width="400" height="400" fill="#1a1a2e"/>
  <path d="M 165.6,84.1 L 150.0,99.8 L 164.3,114.4 Z M 165.6,84.1 L 164.3,114.4 L 179.9,98.6 Z M 211.8,243.6 L 211.8,173.6 L 188.8,173.6 Z M 211.8,243.6 L 188.8,173.6 L 188.8,243.6 Z M 236.4,114.4 L 250.7,99.8 L 235.1,84.1 Z M 236.4,114.4 L 235.1,84.1 L 220.7,98.6 Z M 20.7,74.9 L 90.7,75.5 L 90.7,52.5 Z M 20.7,74.9 L 90.7,52.5 L 20.7,52.7 Z M 380.0,53.0 L 310.0,52.4 L 310.0,75.3 Z M 380.0,53.0 L 310.0,75.3 L 380.0,75.2 Z M 207.0,103.8 L 218.0,90.8 L 182.6,90.8 Z M 207.0,103.8 L 182.6,90.8 L 171.6,103.8 Z M 171.6,103.8 L 182.6,90.8 L 173.4,81.6 Z M 171.6,103.8 L 173.4,81.6 L 161.7,94.6 Z M 314.7,46.7 L 379.5,46.7 L 374.6,55.4 Z M 314.7,46.7 L 374.6,55.4 L 309.5,55.4 Z M 217.5,178.3 L 217.5,243.1 L 208.9,244.3 Z M 217.5,178.3 L 208.9,244.3 L 208.9,183.6 Z M 173.4,46.2 L 161.7,59.4 L 161.7,94.6 Z M 173.4,46.2 L 161.7,94.6 L 173.4,81.6 Z M 20.0,55.4 L 21.1,46.7 L 86.0,46.7 Z M 20.0,55.4 L 86.0,46.7 L 80.6,55.4 Z M 150.0,99.8 L 165.6,84.1 L 165.6,49.4 Z M 150.0,99.8 L 165.6,49.4 L 129.6,63.9 Z M 129.6,63.9 L 165.6,49.4 L 144.0,27.9 Z M 129.6,63.9 L 144.0,27.9 L 115.1,27.9 Z M 220.7,98.6 L 179.9,98.6 L 164.3,114.4 Z M 220.7,98.6 L 164.3,114.4 L 236.4,114.4 Z M 236.4,114.4 L 164.3,114.4 L 164.4,149.1 Z M 236.4,114.4 L 164.4,149.1 L 236.4,149.0 Z M 236.4,149.0 L 164.4,149.1 L 188.8,173.6 Z M 236.4,149.0 L 188.8,173.6 L 211.8,173.6 Z M 285.6,27.9 L 256.7,27.9 L 235.0,49.4 Z M 285.6,27.9 L 235.0,49.4 L 310.0,52.4 Z M 310.0,52.4 L 235.0,49.4 L 235.1,84.1 Z M 310.0,52.4 L 235.1,84.1 L 310.0,75.3 Z M 310.0,75.3 L 235.1,84.1 L 250.7,99.8 Z M 310.0,75.3 L 250.7,99.8 L 285.4,99.9 Z M 115.1,27.9 L 90.7,52.5 L 90.7,75.5 Z M 115.1,27.9 L 90.7,75.5 L 129.6,63.9 Z M 129.6,63.9 L 90.7,75.5 L 115.2,99.9 Z M 129.6,63.9 L 115.2,99.9 L 150.0,99.8 Z M 90.7,52.5 L 115.1,27.9 L 111.9,20.0 Z M 90.7,52.5 L 111.9,20.0 L 85.7,46.2 Z M 115.2,99.9 L 90.7,75.5 L 85.7,81.6 Z M 115.2,99.9 L 85.7,81.6 L 111.9,107.7 Z M 115.1,27.9 L 144.0,27.9 L 147.3,20.0 Z M 115.1,27.9 L 147.3,20.0 L 111.9,20.0 Z M 165.6,49.4 L 165.6,84.1 L 173.4,81.6 Z M 165.6,49.4 L 173.4,81.6 L 173.4,46.2 Z M 150.0,99.8 L 115.2,99.9 L 111.9,107.7 Z M 150.0,99.8 L 111.9,107.7 L 147.3,107.7 Z M 156.5,117.0 L 164.3,114.4 L 150.0,99.8 Z M 156.5,117.0 L 150.0,99.8 L 147.3,107.7 Z M 188.8,173.6 L 164.4,149.1 L 156.5,152.3 Z M 188.8,173.6 L 156.5,152.3 L 182.6,178.5 Z M 236.4,149.0 L 211.8,173.6 L 218.0,178.5 Z M 236.4,149.0 L 218.0,178.5 L 244.2,152.3 Z M 179.9,98.6 L 220.7,98.6 L 218.0,90.8 Z M 179.9,98.6 L 218.0,90.8 L 182.6,90.8 Z M 236.4,114.4 L 236.4,149.0 L 244.2,152.3 Z M 236.4,114.4 L 244.2,152.3 L 244.2,117.0 Z M 164.4,149.1 L 164.3,114.4 L 156.5,117.0 Z M 164.4,149.1 L 156.5,117.0 L 156.5,152.3 Z M 182.6,90.8 L 173.4,81.6 L 165.6,84.1 Z M 182.6,90.8 L 165.6,84.1 L 179.9,98.6 Z M 218.0,178.5 L 211.8,173.6 L 211.8,243.6 Z M 218.0,178.5 L 211.8,243.6 L 218.0,243.6 Z M 182.6,243.6 L 188.8,243.6 L 188.8,173.6 Z M 182.6,243.6 L 188.8,173.6 L 182.6,178.5 Z M 288.8,20.0 L 285.6,27.9 L 310.0,52.4 Z M 288.8,20.0 L 310.0,52.4 L 315.0,46.2 Z M 315.0,81.6 L 310.0,75.3 L 285.4,99.9 Z M 315.0,81.6 L 285.4,99.9 L 288.8,107.7 Z M 253.4,20.0 L 256.7,27.9 L 285.6,27.9 Z M 253.4,20.0 L 285.6,27.9 L 288.8,20.0 Z M 227.2,81.6 L 235.1,84.1 L 235.0,49.4 Z M 227.2,81.6 L 235.0,49.4 L 227.2,46.2 Z M 288.8,107.7 L 285.4,99.9 L 250.7,99.8 Z M 288.8,107.7 L 250.7,99.8 L 253.4,107.7 Z M 250.7,99.8 L 236.4,114.4 L 244.2,117.0 Z M 250.7,99.8 L 244.2,117.0 L 253.4,107.7 Z M 235.1,84.1 L 227.2,81.6 L 218.0,90.8 Z M 235.1,84.1 L 218.0,90.8 L 220.7,98.6 Z M 85.7,81.6 L 90.7,75.5 L 20.7,74.9 Z M 85.7,81.6 L 20.7,74.9 L 20.7,81.6 Z M 20.7,46.2 L 20.7,52.7 L 90.7,52.5 Z M 20.7,46.2 L 90.7,52.5 L 85.7,46.2 Z M 227.2,46.2 L 235.0,49.4 L 256.7,27.9 Z M 227.2,46.2 L 256.7,27.9 L 253.4,20.0 Z M 144.0,27.9 L 165.6,49.4 L 173.4,46.2 Z M 144.0,27.9 L 173.4,46.2 L 147.3,20.0 Z M 314.9,46.3 L 310.0,52.4 L 380.0,53.0 Z M 314.9,46.3 L 380.0,53.0 L 380.0,46.2 Z M 380.0,81.6 L 380.0,75.2 L 310.0,75.3 Z M 380.0,81.6 L 310.0,75.3 L 314.9,81.7 Z" fill="#2a2a4e" stroke="none"/>
  <path d="M 188.8,243.6 L 211.8,243.6 M 20.7,52.7 L 20.7,74.9 M 380.0,75.2 L 380.0,53.0 M 207.0,103.8 L 218.0,90.8 M 171.6,103.8 L 207.0,103.8 M 161.7,94.6 L 171.6,103.8 M 314.7,46.7 L 379.5,46.7 M 379.5,46.7 L 374.6,55.4 M 374.6,55.4 L 309.5,55.4 M 309.5,55.4 L 314.7,46.7 M 217.5,178.3 L 217.5,243.1 M 217.5,243.1 L 208.9,244.3 M 208.9,244.3 L 208.9,183.6 M 208.9,183.6 L 217.5,178.3 M 173.4,46.2 L 161.7,59.4 M 161.7,59.4 L 161.7,94.6 M 20.0,55.4 L 21.1,46.7 M 21.1,46.7 L 86.0,46.7 M 86.0,46.7 L 80.6,55.4 M 80.6,55.4 L 20.0,55.4 M 111.9,20.0 L 85.7,46.2 M 85.7,81.6 L 111.9,107.7 M 147.3,20.0 L 111.9,20.0 M 111.9,107.7 L 147.3,107.7 M 147.3,107.7 L 156.5,117.0 M 156.5,152.3 L 182.6,178.5 M 218.0,178.5 L 244.2,152.3 M 244.2,152.3 L 244.2,117.0 M 156.5,117.0 L 156.5,152.3 M 211.8,243.6 L 218.0,243.6 M 218.0,243.6 L 218.0,178.5 M 182.6,243.6 L 188.8,243.6 M 182.6,178.5 L 182.6,243.6 M 310.0,52.4 L 315.0,46.2 M 315.0,46.2 L 288.8,20.0 M 315.0,81.6 L 310.0,75.3 M 288.8,107.7 L 315.0,81.6 M 288.8,20.0 L 253.4,20.0 M 227.2,46.2 L 227.2,81.6 M 253.4,107.7 L 288.8,107.7 M 244.2,117.0 L 253.4,107.7 M 227.2,81.6 L 218.0,90.8 M 20.7,74.9 L 20.7,81.6 M 20.7,81.6 L 85.7,81.6 M 20.7,46.2 L 20.7,52.7 M 85.7,46.2 L 20.7,46.2 M 253.4,20.0 L 227.2,46.2 M 173.4,46.2 L 147.3,20.0 M 314.9,46.3 L 310.0,52.4 M 380.0,53.0 L 380.0,46.2 M 380.0,46.2 L 314.9,46.3 M 380.0,81.6 L 380.0,75.2 M 310.0,75.3 L 314.9,81.7 M 314.9,81.7 L 380.0,81.6" fill="none" stroke="white" stroke-width="2" stroke-linecap="round"/>
  <polygon points="85.93199083861185,57.223000252965875 93.93199083861185,65.22300025296587 85.93199083861185,73.22300025296587 77.93199083861185,65.22300025296587" fill="#4a9eff" stroke="white" stroke-width="1"/>
<polygon points="200.7313301380002,172.62338293247865 208.7313301380002,180.62338293247865 200.7313301380002,188.62338293247865 192.7313301380002,180.62338293247865" fill="#4a9eff" stroke="white" stroke-width="1"/>
<polygon points="315.1154845601728,55.62310519163131 323.1154845601728,63.62310519163131 315.1154845601728,71.62310519163131 307.1154845601728,63.62310519163131" fill="#4a9eff" stroke="white" stroke-width="1"/>
</svg>