<svg xmlns="http://www.w3.org/2000/svg" viewBox="0 0 400 400">
  <rect width="400" height="400" fill="#1a1a2e"/>
  <path d="M 41.7,223.6 L 41.7,246.7 L 99.9,296.8 Z M 41.7,223.6 L 99.9,296.8 L 99.3,223.6 Z M 99.3,223.6 L 99.9,296.8 L 122.3,296.8 Z M 99.3,223.6 L 122.3,296.8 L 122.9,223.6 Z M 122.9,223.6 L 122.3,296.8 L 177.6,246.7 Z M 122.9,223.6 L 177.6,246.7 L 177.6,223.6 Z M 29.9,153.3 L 29.9,176.4 L 99.3,176.4 Z M 29.9,153.3 L 99.3,176.4 L 99.9,103.2 Z M 99.9,103.2 L 99.3,176.4 L 122.9,176.4 Z M 99.9,103.2 L 122.9,176.4 L 122.3,103.2 Z M 122.3,103.2 L 122.9,176.4 L 195.3,176.4 Z M 122.3,103.2 L 195.3,176.4 L 195.3,153.3 Z M 121.9,136.9 L 96.5,138.5 L 91.8,161.7 Z M 121.9,136.9 L 91.8,161.7 L 124.1,157.6 Z M 124.1,157.6 L 91.8,161.7 L 97.4,176.9 Z M 124.1,157.6 L 97.4,176.9 L 121.9,175.6 Z M 118.9,198.9 L 100.6,206.6 L 92.9,230.8 Z M 118.9,198.9 L 92.9,230.8 L 125.0,232.4 Z M 125.0,232.4 L 92.9,230.8 L 98.0,260.0 Z M 125.0,232.4 L 98.0,260.0 L 121.7,258.3 Z M 97.4,176.9 L 100.6,206.6 L 112.9,185.4 Z M 100.6,206.6 L 118.9,198.9 L 112.9,185.4 Z M 112.9,185.4 L 118.9,198.9 L 121.9,175.6 Z M 122.3,380.0 L 122.3,296.8 L 99.9,296.8 Z M 122.3,380.0 L 99.9,296.8 L 100.3,380.0 Z M 99.9,20.0 L 99.9,103.2 L 122.3,103.2 Z M 99.9,20.0 L 122.3,103.2 L 122.0,20.0 Z M 99.3,223.6 L 122.9,223.6 L 122.9,176.4 Z M 99.3,223.6 L 122.9,176.4 L 99.3,176.4 Z M 71.5,156.8 L 91.8,161.7 L 96.5,138.5 Z M 132.0,147.5 L 121.9,136.9 L 124.1,157.6 Z M 136.1,241.8 L 125.0,232.4 L 121.7,258.3 Z M 98.0,260.0 L 92.9,230.8 L 73.7,234.4 Z M 112.9,185.4 L 121.9,175.6 L 97.4,176.9 Z M 119.0,20.0 L 102.7,20.0 L 97.1,118.1 Z M 119.0,20.0 L 97.1,118.1 L 121.5,111.3 Z M 121.5,111.3 L 97.1,118.1 L 96.5,138.5 Z M 121.5,111.3 L 96.5,138.5 L 121.9,136.9 Z M 105.2,380.0 L 118.0,380.0 L 118.7,284.7 Z M 105.2,380.0 L 118.7,284.7 L 100.9,282.6 Z M 100.9,282.6 L 118.7,284.7 L 121.7,258.3 Z M 100.9,282.6 L 121.7,258.3 L 98.0,260.0 Z M 97.4,176.9 L 92.6,174.7 L 98.6,206.6 Z M 97.4,176.9 L 98.6,206.6 L 100.6,206.6 Z M 100.6,206.6 L 98.6,206.6 L 90.1,228.2 Z M 100.6,206.6 L 90.1,228.2 L 92.9,230.8 Z M 92.9,230.8 L 90.1,228.2 L 56.4,230.7 Z M 92.9,230.8 L 56.4,230.7 L 73.7,234.4 Z M 124.1,157.6 L 121.9,175.6 L 179.2,174.4 Z M 124.1,157.6 L 179.2,174.4 L 145.6,148.3 Z M 145.6,148.3 L 179.2,174.4 L 189.8,167.2 Z M 145.6,148.3 L 189.8,167.2 L 187.2,151.7 Z M 97.4,176.9 L 91.8,161.7 L 92.6,174.7 Z M 91.8,161.7 L 71.5,156.8 L 92.6,174.7 Z M 125.0,232.4 L 125.7,221.3 L 118.9,198.9 Z M 125.7,221.3 L 121.9,175.6 L 118.9,198.9 Z M 92.6,174.7 L 71.5,156.8 L 58.3,176.7 Z M 71.5,156.8 L 33.5,173.3 L 58.3,176.7 Z M 53.2,136.4 L 31.7,155.7 L 71.5,156.8 Z M 31.7,155.7 L 33.5,173.3 L 71.5,156.8 Z M 136.1,241.8 L 168.4,224.4 L 125.7,221.3 Z M 136.1,241.8 L 125.7,221.3 L 125.0,232.4 Z M 132.0,147.5 L 145.6,148.3 L 146.6,122.1 Z M 132.0,147.5 L 146.6,122.1 L 121.9,136.9 Z M 73.7,234.4 L 56.9,249.5 L 100.9,282.6 Z M 73.7,234.4 L 100.9,282.6 L 98.0,260.0 Z M 170.6,251.6 L 136.1,241.8 L 121.7,258.3 Z M 170.6,251.6 L 121.7,258.3 L 118.7,284.7 Z M 71.5,156.8 L 96.5,138.5 L 97.1,118.1 Z M 71.5,156.8 L 97.1,118.1 L 53.2,136.4 Z M 56.4,230.7 L 56.9,249.5 L 73.7,234.4 Z M 92.6,174.7 L 71.5,156.8 L 71.5,156.8 Z M 136.1,241.8 L 170.6,251.6 L 168.4,224.4 Z M 132.0,147.5 L 124.1,157.6 L 145.6,148.3 Z M 145.6,148.3 L 187.2,151.7 L 146.6,122.1 Z M 146.6,122.1 L 121.5,111.3 L 121.9,136.9 Z M 33.5,173.3 L 71.5,156.8 L 71.5,156.8 Z M 41.7,223.6 L 34.8,217.7 L 34.8,250.2 Z M 41.7,223.6 L 34.8,250.2 L 41.7,246.7 Z M 184.5,250.2 L 177.6,246.7 L 122.3,296.8 Z M 184.5,250.2 L 122.3,296.8 L 128.8,299.9 Z M 41.7,246.7 L 34.8,250.2 L 93.4,299.9 Z M 41.7,246.7 L 93.4,299.9 L 99.9,296.8 Z M 128.8,380.0 L 128.8,299.9 L 122.3,296.8 Z M 128.8,380.0 L 122.3,296.8 L 122.3,380.0 Z M 93.4,380.0 L 100.3,380.0 L 99.9,296.8 Z M 93.4,380.0 L 99.9,296.8 L 93.4,299.9 Z M 184.5,250.2 L 184.5,217.7 L 177.6,223.6 Z M 184.5,250.2 L 177.6,223.6 L 177.6,246.7 Z M 99.3,223.6 L 93.4,217.7 L 34.8,217.7 Z M 99.3,223.6 L 34.8,217.7 L 41.7,223.6 Z M 122.9,223.6 L 177.6,223.6 L 184.5,217.7 Z M 122.9,223.6 L 184.5,217.7 L 128.8,217.7 Z M 195.3,176.4 L 202.2,182.3 L 202.2,149.8 Z M 195.3,176.4 L 202.2,149.8 L 195.3,153.3 Z M 23.0,149.8 L 29.9,153.3 L 99.9,103.2 Z M 23.0,149.8 L 99.9,103.2 L 93.4,100.1 Z M 195.3,153.3 L 202.2,149.8 L 128.8,100.1 Z M 195.3,153.3 L 128.8,100.1 L 122.3,103.2 Z M 93.4,20.0 L 93.4,100.1 L 99.9,103.2 Z M 93.4,20.0 L 99.9,103.2 L 99.9,20.0 Z M 128.8,20.0 L 122.0,20.0 L 122.3,103.2 Z M 128.8,20.0 L 122.3,103.2 L 128.8,100.1 Z M 23.0,149.8 L 23.0,182.3 L 29.9,176.4 Z M 23.0,149.8 L 29.9,176.4 L 29.9,153.3 Z M 122.9,223.6 L 128.8,217.7 L 128.8,182.3 Z M 122.9,223.6 L 128.8,182.3 L 122.9,176.4 Z M 122.9,176.4 L 128.8,182.3 L 202.2,182.3 Z M 122.9,176.4 L 202.2,182.3 L 195.3,176.4 Z M 99.3,176.4 L 29.9,176.4 L 23.0,182.3 Z M 99.3,176.4 L 23.0,182.3 L 93.4,182.3 Z M 99.3,176.4 L 93.4,182.3 L 93.4,217.7 Z M 99.3,176.4 L 93.4,217.7 L 99.3,223.6 Z M 97.1,118.1 L 102.7,20.0 L 88.4,109.5 Z M 102.7,20.0 L 93.1,20.0 L 88.4,109.5 Z M 182.2,256.6 L 170.6,251.6 L 128.6,292.7 Z M 170.6,251.6 L 118.7,284.7 L 128.6,292.7 Z M 187.2,151.7 L 189.8,167.2 L 199.7,145.8 Z M 189.8,167.2 L 204.6,172.6 L 199.7,145.8 Z M 121.5,111.3 L 131.7,104.5 L 119.0,20.0 Z M 131.7,104.5 L 128.1,20.0 L 119.0,20.0 Z M 121.5,111.3 L 146.6,122.1 L 131.7,104.5 Z M 146.6,122.1 L 153.8,114.0 L 131.7,104.5 Z M 44.1,255.3 L 88.7,289.1 L 56.9,249.5 Z M 88.7,289.1 L 100.9,282.6 L 56.9,249.5 Z M 89.7,204.2 L 84.7,218.1 L 98.6,206.6 Z M 84.7,218.1 L 90.1,228.2 L 98.6,206.6 Z M 56.9,249.5 L 56.4,230.7 L 44.1,255.3 Z M 56.4,230.7 L 43.5,219.4 L 44.1,255.3 Z M 168.4,224.4 L 170.6,251.6 L 179.7,215.1 Z M 170.6,251.6 L 182.2,256.6 L 179.7,215.1 Z M 125.7,221.3 L 168.4,224.4 L 133.4,212.2 Z M 168.4,224.4 L 179.7,215.1 L 133.4,212.2 Z M 125.7,221.3 L 133.4,212.2 L 121.9,175.6 Z M 133.4,212.2 L 133.0,185.1 L 121.9,175.6 Z M 179.2,174.4 L 186.0,183.2 L 189.8,167.2 Z M 186.0,183.2 L 204.6,172.6 L 189.8,167.2 Z M 57.6,186.4 L 85.4,184.5 L 58.3,176.7 Z M 85.4,184.5 L 92.6,174.7 L 58.3,176.7 Z M 23.6,181.1 L 57.6,186.4 L 33.5,173.3 Z M 57.6,186.4 L 58.3,176.7 L 33.5,173.3 Z M 121.9,175.6 L 133.0,185.1 L 179.2,174.4 Z M 133.0,185.1 L 186.0,183.2 L 179.2,174.4 Z M 146.6,122.1 L 187.2,151.7 L 153.8,114.0 Z M 187.2,151.7 L 199.7,145.8 L 153.8,114.0 Z M 43.5,219.4 L 56.4,230.7 L 84.7,218.1 Z M 56.4,230.7 L 90.1,228.2 L 84.7,218.1 Z M 85.4,184.5 L 89.7,204.2 L 92.6,174.7 Z M 89.7,204.2 L 98.6,206.6 L 92.6,174.7 Z M 97.1,118.1 L 88.4,109.5 L 46.9,127.3 Z M 97.1,118.1 L 46.9,127.3 L 53.2,136.4 Z M 128.5,380.0 L 128.6,292.7 L 118.7,284.7 Z M 128.5,380.0 L 118.7,284.7 L 118.0,380.0 Z M 100.9,282.6 L 88.7,289.1 L 95.4,380.0 Z M 100.9,282.6 L 95.4,380.0 L 105.2,380.0 Z M 20.0,152.9 L 31.7,155.7 L 53.2,136.4 Z M 20.0,152.9 L 53.2,136.4 L 46.9,127.3 Z M 33.5,173.3 L 31.7,155.7 L 20.0,152.9 Z M 33.5,173.3 L 20.0,152.9 L 23.6,181.1 Z M 128.0,254.0 L 136.9,263.0 L 136.9,245.1 Z M 119.1,245.1 L 119.1,263.0 L 128.0,254.0 Z M 136.9,245.1 L 119.1,245.1 L 128.0,254.0 Z M 119.1,263.0 L 136.9,263.0 L 128.0,254.0 Z M 113.8,185.9 L 122.1,197.6 L 125.4,177.6 Z M 105.6,174.3 L 102.2,194.2 L 113.8,185.9 Z M 125.4,177.6 L 105.6,174.3 L 113.8,185.9 Z M 102.2,194.2 L 122.1,197.6 L 113.8,185.9 Z M 131.9,147.2 L 136.2,158.4 L 143.1,142.8 Z M 127.6,135.9 L 120.6,151.5 L 131.9,147.2 Z M 143.1,142.8 L 127.6,135.9 L 131.9,147.2 Z M 120.6,151.5 L 136.2,158.4 L 131.9,147.2 Z M 74.7,242.1 L 86.1,247.0 L 79.6,230.7 Z M 63.3,237.2 L 69.8,253.5 L 74.7,242.1 Z M 79.6,230.7 L 63.3,237.2 L 74.7,242.1 Z M 69.8,253.5 L 86.1,247.0 L 74.7,242.1 Z M 72.2,159.2 L 76.7,171.1 L 84.1,154.7 Z M 67.7,147.3 L 60.3,163.8 L 72.2,159.2 Z M 84.1,154.7 L 67.7,147.3 L 72.2,159.2 Z M 60.3,163.8 L 76.7,171.1 L 72.2,159.2 Z" fill="#2a2a4e" stroke="none"/>
  <path d="M 100.3,380.0 L 122.3,380.0 M 122.0,20.0 L 99.9,20.0 M 119.0,20.0 L 102.7,20.0 M 105.2,380.0 L 118.0,380.0 M 34.8,217.7 L 34.8,250.2 M 128.8,299.9 L 184.5,250.2 M 34.8,250.2 L 93.4,299.9 M 128.8,380.0 L 128.8,299.9 M 122.3,380.0 L 128.8,380.0 M 93.4,380.0 L 100.3,380.0 M 93.4,299.9 L 93.4,380.0 M 184.5,250.2 L 184.5,217.7 M 93.4,217.7 L 34.8,217.7 M 184.5,217.7 L 128.8,217.7 M 202.2,182.3 L 202.2,149.8 M 93.4,100.1 L 23.0,149.8 M 202.2,149.8 L 128.8,100.1 M 93.4,20.0 L 93.4,100.1 M 99.9,20.0 L 93.4,20.0 M 128.8,20.0 L 122.0,20.0 M 128.8,100.1 L 128.8,20.0 M 23.0,149.8 L 23.0,182.3 M 128.8,217.7 L 128.8,182.3 M 128.8,182.3 L 202.2,182.3 M 23.0,182.3 L 93.4,182.3 M 93.4,182.3 L 93.4,217.7 M 102.7,20.0 L 93.1,20.0 M 93.1,20.0 L 88.4,109.5 M 128.6,292.7 L 182.2,256.6 M 204.6,172.6 L 199.7,145.8 M 131.7,104.5 L 128.1,20.0 M 128.1,20.0 L 119.0,20.0 M 153.8,114.0 L 131.7,104.5 M 44.1,255.3 L 88.7,289.1 M 89.7,204.2 L 84.7,218.1 M 43.5,219.4 L 44.1,255.3 M 182.2,256.6 L 179.7,215.1 M 179.7,215.1 L 133.4,212.2 M 133.4,212.2 L 133.0,185.1 M 186.0,183.2 L 204.6,172.6 M 57.6,186.4 L 85.4,184.5 M 23.6,181.1 L 57.6,186.4 M 133.0,185.1 L 186.0,183.2 M 199.7,145.8 L 153.8,114.0 M 84.7,218.1 L 43.5,219.4 M 85.4,184.5 L 89.7,204.2 M 88.4,109.5 L 46.9,127.3 M 128.5,380.0 L 128.6,292.7 M 118.0,380.0 L 128.5,380.0 M 88.7,289.1 L 95.4,380.0 M 95.4,380.0 L 105.2,380.0 M 46.9,127.3 L 20.0,152.9 M 20.0,152.9 L 23.6,181.1 M 136.9,263.0 L 136.9,245.1 M 119.1,245.1 L 119.1,263.0 M 136.9,245.1 L 119.1,245.1 M 119.1,263.0 L 136.9,263.0 M 122.1,197.6 L 125.4,177.6 M 105.6,174.3 L 102.2,194.2 M 125.4,177.6 L 105.6,174.3 M 102.2,194.2 L 122.1,197.6 M 136.2,158.4 L 143.1,142.8 M 127.6,135.9 L 120.6,151.5 M 143.1,142.8 L 127.6,135.9 M 120.6,151.5 L 136.2,158.4 M 86.1,247.0 L 79.6,230.7 M 63.3,237.2 L 69.8,253.5 M 79.6,230.7 L 63.3,237.2 M 69.8,253.5 L 86.1,247.0 M 76.7,171.1 L 84.1,154.7 M 67.7,147.3 L 60.3,163.8 M 84.1,154.7 L 67.7,147.3 M 60.3,163.8 L 76.7,171.1" fill="none" stroke="white" stroke-width="2" stroke-linecap="round"/>
  <polygon points="113.17601597272599,93.8489128546811 121.17601597272599,101.8489128546811 113.17601597272599,109.8489128546811 105.17601597272599,101.8489128546811" fill="#4a9eff" stroke="white" stroke-width="1"/>
<polygon points="110.8382738040991,291.2635178148233 118.8382738040991,299.2635178148233 110.8382738040991,307.2635178148233 102.8382738040991,299.2635178148233" fill="#4a9eff" stroke="white" stroke-width="1"/>
</svg>