<svg xmlns="http://www.w3.org/2000/svg" viewBox="0 0 400 400">
  <rect width="400" height="400" fill="#1a1a2e"/>
  <path d="M 44.7,178.9 L 44.7,208.5 L 119.5,273.0 Z M 44.7,178.9 L 119.5,273.0 L 118.8,178.9 Z M 118.8,178.9 L 119.5,273.0 L 148.4,273.0 Z M 118.8,178.9 L 148.4,273.0 L 149.2,178.9 Z M 149.2,178.9 L 148.4,273.0 L 219.4,208.5 Z M 149.2,178.9 L 219.4,208.5 L 219.4,178.9 Z M 29.5,88.5 L 29.5,118.1 L 118.8,118.1 Z M 29.5,88.5 L 118.8,118.1 L 115.8,27.8 Z M 115.8,27.8 L 118.8,118.1 L 149.2,118.1 Z M 115.8,27.8 L 149.2,118.1 L 152.2,27.8 Z M 152.2,27.8 L 149.2,118.1 L 242.2,118.1 Z M 152.2,27.8 L 242.2,118.1 L 242.2,88.5 Z M 147.8,67.4 L 115.2,69.5 L 109.1,99.2 Z M 147.8,67.4 L 109.1,99.2 L 150.6,93.9 Z M 150.6,93.9 L 109.1,99.2 L 123.8,115.3 Z M 150.6,93.9 L 123.8,115.3 L 147.8,117.2 Z M 144.0,147.0 L 124.7,174.7 L 110.6,188.1 Z M 144.0,147.0 L 110.6,188.1 L 151.8,190.2 Z M 151.8,190.2 L 110.6,188.1 L 117.1,225.7 Z M 151.8,190.2 L 117.1,225.7 L 147.6,223.5 Z M 123.8,115.3 L 124.7,174.7 L 136.3,129.7 Z M 124.7,174.7 L 144.0,147.0 L 136.3,129.7 Z M 136.3,129.7 L 144.0,147.0 L 147.8,117.2 Z M 148.4,380.0 L 148.4,273.0 L 119.5,273.0 Z M 148.4,380.0 L 119.5,273.0 L 120.0,380.0 Z M 118.8,178.9 L 149.2,178.9 L 149.2,118.1 Z M 118.8,178.9 L 149.2,118.1 L 118.8,118.1 Z M 83.0,93.0 L 109.1,99.2 L 115.2,69.5 Z M 160.8,80.9 L 147.8,67.4 L 150.6,93.9 Z M 166.1,202.2 L 151.8,190.2 L 147.6,223.5 Z M 117.1,225.7 L 110.6,188.1 L 85.9,192.8 Z M 136.3,129.7 L 147.8,117.2 L 123.8,115.3 Z M 125.9,380.0 L 143.9,380.0 L 148.4,261.6 Z M 125.9,380.0 L 148.4,261.6 L 119.1,259.2 Z M 119.1,259.2 L 148.4,261.6 L 147.6,223.5 Z M 119.1,259.2 L 147.6,223.5 L 117.1,225.7 Z M 147.8,67.4 L 149.7,38.0 L 98.4,42.1 Z M 147.8,67.4 L 98.4,42.1 L 115.2,69.5 Z M 115.2,69.5 L 98.4,42.1 L 47.9,80.7 Z M 115.2,69.5 L 47.9,80.7 L 83.0,93.0 Z M 57.4,176.7 L 47.6,191.3 L 85.9,192.8 Z M 57.4,176.7 L 85.9,192.8 L 83.1,178.6 Z M 83.1,178.6 L 85.9,192.8 L 110.6,188.1 Z M 83.1,178.6 L 110.6,188.1 L 116.8,172.8 Z M 147.6,223.5 L 148.4,261.6 L 207.7,212.3 Z M 147.6,223.5 L 207.7,212.3 L 166.1,202.2 Z M 166.1,202.2 L 207.7,212.3 L 214.2,190.8 Z M 166.1,202.2 L 214.2,190.8 L 206.5,177.7 Z M 47.9,80.7 L 37.4,117.3 L 83.0,93.0 Z M 37.4,117.3 L 71.8,114.5 L 83.0,93.0 Z M 150.8,167.6 L 151.8,190.2 L 166.1,202.2 Z M 150.8,167.6 L 166.1,202.2 L 172.8,175.6 Z M 115.2,121.9 L 116.8,172.8 L 124.7,174.7 Z M 115.2,121.9 L 124.7,174.7 L 123.8,115.3 Z M 160.8,80.9 L 178.3,82.0 L 184.7,50.2 Z M 160.8,80.9 L 184.7,50.2 L 147.8,67.4 Z M 85.9,192.8 L 58.4,214.7 L 119.1,259.2 Z M 85.9,192.8 L 119.1,259.2 L 117.1,225.7 Z M 144.0,147.0 L 150.8,167.6 L 148.4,117.9 Z M 144.0,147.0 L 148.4,117.9 L 147.8,117.2 Z M 83.0,93.0 L 71.8,114.5 L 115.2,121.9 Z M 83.0,93.0 L 115.2,121.9 L 109.1,99.2 Z M 150.6,93.9 L 148.4,117.9 L 186.0,115.0 Z M 150.6,93.9 L 186.0,115.0 L 178.3,82.0 Z M 229.6,105.3 L 218.4,78.4 L 178.3,82.0 Z M 229.6,105.3 L 178.3,82.0 L 223.6,112.2 Z M 109.1,99.2 L 115.2,121.9 L 123.8,115.3 Z M 124.7,174.7 L 116.8,172.8 L 110.6,188.1 Z M 47.6,191.3 L 58.4,214.7 L 85.9,192.8 Z M 151.8,190.2 L 150.8,167.6 L 144.0,147.0 Z M 147.8,117.2 L 148.4,117.9 L 150.6,93.9 Z M 160.8,80.9 L 150.6,93.9 L 178.3,82.0 Z M 178.3,82.0 L 218.4,78.4 L 184.7,50.2 Z M 184.7,50.2 L 149.7,38.0 L 147.8,67.4 Z M 166.1,202.2 L 206.5,177.7 L 172.8,175.6 Z M 186.0,115.0 L 223.6,112.2 L 178.3,82.0 Z M 20.7,84.0 L 29.5,88.5 L 115.8,27.8 Z M 20.7,84.0 L 115.8,27.8 L 111.2,20.0 Z M 111.2,20.0 L 115.8,27.8 L 152.2,27.8 Z M 111.2,20.0 L 152.2,27.8 L 156.7,20.0 Z M 44.7,178.9 L 35.8,171.3 L 35.8,213.0 Z M 44.7,178.9 L 35.8,213.0 L 44.7,208.5 Z M 228.3,213.0 L 219.4,208.5 L 148.4,273.0 Z M 228.3,213.0 L 148.4,273.0 L 156.7,277.0 Z M 44.7,208.5 L 35.8,213.0 L 111.2,277.0 Z M 44.7,208.5 L 111.2,277.0 L 119.5,273.0 Z M 156.7,380.0 L 156.7,277.0 L 148.4,273.0 Z M 156.7,380.0 L 148.4,273.0 L 148.4,380.0 Z M 111.2,380.0 L 120.0,380.0 L 119.5,273.0 Z M 111.2,380.0 L 119.5,273.0 L 111.2,277.0 Z M 228.3,213.0 L 228.3,171.3 L 219.4,178.9 Z M 228.3,213.0 L 219.4,178.9 L 219.4,208.5 Z M 118.8,178.9 L 111.2,171.3 L 35.8,171.3 Z M 118.8,178.9 L 35.8,171.3 L 44.7,178.9 Z M 149.2,178.9 L 219.4,178.9 L 228.3,171.3 Z M 149.2,178.9 L 228.3,171.3 L 156.7,171.3 Z M 242.2,118.1 L 251.1,125.7 L 251.1,84.0 Z M 242.2,118.1 L 251.1,84.0 L 242.2,88.5 Z M 242.2,88.5 L 251.1,84.0 L 156.7,20.0 Z M 242.2,88.5 L 156.7,20.0 L 152.2,27.8 Z M 20.7,84.0 L 20.7,125.7 L 29.5,118.1 Z M 20.7,84.0 L 29.5,118.1 L 29.5,88.5 Z M 149.2,178.9 L 156.7,171.3 L 156.7,125.7 Z M 149.2,178.9 L 156.7,125.7 L 149.2,118.1 Z M 149.2,118.1 L 156.7,125.7 L 251.1,125.7 Z M 149.2,118.1 L 251.1,125.7 L 242.2,118.1 Z M 118.8,118.1 L 29.5,118.1 L 20.7,125.7 Z M 118.8,118.1 L 20.7,125.7 L 111.2,125.7 Z M 118.8,118.1 L 111.2,125.7 L 111.2,171.3 Z M 118.8,118.1 L 111.2,171.3 L 118.8,178.9 Z M 148.4,117.9 L 159.1,129.5 L 196.6,128.4 Z M 148.4,117.9 L 196.6,128.4 L 186.0,115.0 Z M 186.0,115.0 L 196.6,128.4 L 234.1,127.3 Z M 186.0,115.0 L 234.1,127.3 L 223.6,112.2 Z M 156.9,380.0 L 161.0,268.3 L 143.9,380.0 Z M 161.0,268.3 L 148.4,261.6 L 143.9,380.0 Z M 218.4,78.4 L 229.6,105.3 L 232.2,68.0 Z M 229.6,105.3 L 248.8,114.9 L 232.2,68.0 Z M 176.0,163.3 L 161.2,157.6 L 172.8,175.6 Z M 161.2,157.6 L 150.8,167.6 L 172.8,175.6 Z M 223.6,112.2 L 234.1,127.3 L 229.6,105.3 Z M 234.1,127.3 L 248.8,114.9 L 229.6,105.3 Z M 98.4,42.1 L 94.8,26.8 L 35.4,71.7 Z M 98.4,42.1 L 35.4,71.7 L 47.9,80.7 Z M 148.4,261.6 L 161.0,268.3 L 219.4,221.5 Z M 148.4,261.6 L 219.4,221.5 L 207.7,212.3 Z M 119.1,259.2 L 105.4,269.1 L 110.0,380.0 Z M 119.1,259.2 L 110.0,380.0 L 125.9,380.0 Z M 196.5,37.9 L 158.3,20.0 L 149.7,38.0 Z M 196.5,37.9 L 149.7,38.0 L 184.7,50.2 Z M 20.0,117.7 L 37.4,117.3 L 47.9,80.7 Z M 20.0,117.7 L 47.9,80.7 L 35.4,71.7 Z M 48.2,226.1 L 105.4,269.1 L 119.1,259.2 Z M 48.2,226.1 L 119.1,259.2 L 58.4,214.7 Z M 34.8,185.2 L 47.6,191.3 L 57.4,176.7 Z M 34.8,185.2 L 57.4,176.7 L 47.3,167.2 Z M 34.8,185.2 L 48.2,226.1 L 58.4,214.7 Z M 34.8,185.2 L 58.4,214.7 L 47.6,191.3 Z M 216.5,165.5 L 206.5,177.7 L 214.2,190.8 Z M 216.5,165.5 L 214.2,190.8 L 228.6,190.8 Z M 106.6,165.6 L 116.8,172.8 L 115.2,121.9 Z M 106.6,165.6 L 115.2,121.9 L 104.5,132.9 Z M 159.1,129.5 L 148.4,117.9 L 150.8,167.6 Z M 159.1,129.5 L 150.8,167.6 L 161.2,157.6 Z M 115.2,121.9 L 71.8,114.5 L 67.4,127.5 Z M 115.2,121.9 L 67.4,127.5 L 104.5,132.9 Z M 29.5,130.0 L 67.4,127.5 L 71.8,114.5 Z M 29.5,130.0 L 71.8,114.5 L 37.4,117.3 Z M 94.8,26.8 L 98.4,42.1 L 149.7,38.0 Z M 94.8,26.8 L 149.7,38.0 L 158.3,20.0 Z M 83.1,178.6 L 81.7,169.8 L 47.3,167.2 Z M 83.1,178.6 L 47.3,167.2 L 57.4,176.7 Z M 214.2,190.8 L 207.7,212.3 L 219.4,221.5 Z M 214.2,190.8 L 219.4,221.5 L 228.6,190.8 Z M 172.8,175.6 L 206.5,177.7 L 216.5,165.5 Z M 172.8,175.6 L 216.5,165.5 L 176.0,163.3 Z M 116.8,172.8 L 106.6,165.6 L 81.7,169.8 Z M 116.8,172.8 L 81.7,169.8 L 83.1,178.6 Z M 232.2,68.0 L 196.5,37.9 L 184.7,50.2 Z M 232.2,68.0 L 184.7,50.2 L 218.4,78.4 Z M 164.2,205.2 L 173.4,214.4 L 173.4,195.9 Z M 155.0,195.9 L 155.0,214.4 L 164.2,205.2 Z M 173.4,195.9 L 155.0,195.9 L 164.2,205.2 Z M 155.0,214.4 L 173.4,214.4 L 164.2,205.2 Z M 135.4,131.7 L 142.7,141.9 L 145.6,124.4 Z M 128.1,121.4 L 125.2,139.0 L 135.4,131.7 Z M 145.6,124.4 L 128.1,121.4 L 135.4,131.7 Z M 125.2,139.0 L 142.7,141.9 L 135.4,131.7 Z M 123.2,255.6 L 131.8,262.3 L 129.8,247.0 Z M 114.6,249.0 L 116.6,264.3 L 123.2,255.6 Z M 129.8,247.0 L 114.6,249.0 L 123.2,255.6 Z M 116.6,264.3 L 131.8,262.3 L 123.2,255.6 Z M 161.0,80.3 L 165.2,91.1 L 171.8,76.1 Z M 156.9,69.5 L 150.2,84.4 L 161.0,80.3 Z M 171.8,76.1 L 156.9,69.5 L 161.0,80.3 Z M 150.2,84.4 L 165.2,91.1 L 161.0,80.3 Z M 90.4,197.9 L 104.1,203.8 L 96.3,184.3 Z M 76.8,192.0 L 84.6,211.6 L 90.4,197.9 Z M 96.3,184.3 L 76.8,192.0 L 90.4,197.9 Z M 84.6,211.6 L 104.1,203.8 L 90.4,197.9 Z M 87.3,92.0 L 92.7,106.2 L 101.5,86.6 Z M 82.0,77.8 L 73.2,97.4 L 87.3,92.0 Z M 101.5,86.6 L 82.0,77.8 L 87.3,92.0 Z M 73.2,97.4 L 92.7,106.2 L 87.3,92.0 Z M 20.0,117.7 L 29.5,130.0 L 37.4,117.3 Z" fill="#2a2a4e" stroke="none"/>
  <path d="M 120.0,380.0 L 148.4,380.0 M 125.9,380.0 L 143.9,380.0 M 111.2,20.0 L 20.7,84.0 M 156.7,20.0 L 111.2,20.0 M 35.8,171.3 L 35.8,213.0 M 156.7,277.0 L 228.3,213.0 M 35.8,213.0 L 111.2,277.0 M 156.7,380.0 L 156.7,277.0 M 148.4,380.0 L 156.7,380.0 M 111.2,380.0 L 120.0,380.0 M 111.2,277.0 L 111.2,380.0 M 228.3,213.0 L 228.3,171.3 M 111.2,171.3 L 35.8,171.3 M 228.3,171.3 L 156.7,171.3 M 251.1,125.7 L 251.1,84.0 M 251.1,84.0 L 156.7,20.0 M 20.7,84.0 L 20.7,125.7 M 156.7,171.3 L 156.7,125.7 M 156.7,125.7 L 251.1,125.7 M 20.7,125.7 L 111.2,125.7 M 111.2,125.7 L 111.2,171.3 M 159.1,129.5 L 196.6,128.4 M 196.6,128.4 L 234.1,127.3 M 156.9,380.0 L 161.0,268.3 M 143.9,380.0 L 156.9,380.0 M 248.8,114.9 L 232.2,68.0 M 176.0,163.3 L 161.2,157.6 M 234.1,127.3 L 248.8,114.9 M 94.8,26.8 L 35.4,71.7 M 161.0,268.3 L 219.4,221.5 M 105.4,269.1 L 110.0,380.0 M 110.0,380.0 L 125.9,380.0 M 196.5,37.9 L 158.3,20.0 M 35.4,71.7 L 20.0,117.7 M 48.2,226.1 L 105.4,269.1 M 47.3,167.2 L 34.8,185.2 M 34.8,185.2 L 48.2,226.1 M 228.6,190.8 L 216.5,165.5 M 104.5,132.9 L 106.6,165.6 M 161.2,157.6 L 159.1,129.5 M 67.4,127.5 L 104.5,132.9 M 29.5,130.0 L 67.4,127.5 M 158.3,20.0 L 94.8,26.8 M 81.7,169.8 L 47.3,167.2 M 219.4,221.5 L 228.6,190.8 M 216.5,165.5 L 176.0,163.3 M 106.6,165.6 L 81.7,169.8 M 232.2,68.0 L 196.5,37.9 M 173.4,214.4 L 173.4,195.9 M 155.0,195.9 L 155.0,214.4 M 173.4,195.9 L 155.0,195.9 M 155.0,214.4 L 173.4,214.4 M 142.7,141.9 L 145.6,124.4 M 128.1,121.4 L 125.2,139.0 M 145.6,124.4 L 128.1,121.4 M 125.2,139.0 L 142.7,141.9 M 131.8,262.3 L 129.8,247.0 M 114.6,249.0 L 116.6,264.3 M 129.8,247.0 L 114.6,249.0 M 116.6,264.3 L 131.8,262.3 M 165.2,91.1 L 171.8,76.1 M 156.9,69.5 L 150.2,84.4 M 171.8,76.1 L 156.9,69.5 M 150.2,84.4 L 165.2,91.1 M 104.1,203.8 L 96.3,184.3 M 76.8,192.0 L 84.6,211.6 M 96.3,184.3 L 76.8,192.0 M 84.6,211.6 L 104.1,203.8 M 92.7,106.2 L 101.5,86.6 M 82.0,77.8 L 73.2,97.4 M 101.5,86.6 L 82.0,77.8 M 73.2,97.4 L 92.7,106.2 M 20.0,117.7 L 29.5,130.0" fill="none" stroke="white" stroke-width="2" stroke-linecap="round"/>
  <polygon points="134.11888694209253,268.78383641140323 142.11888694209253,276.78383641140323 134.11888694209253,284.78383641140323 126.11888694209253,276.78383641140323" fill="#4a9eff" stroke="white" stroke-width="1"/>
</svg>