<svg xmlns="http://www.w3.org/2000/svg" viewBox="0 0 400 400">
  <rect width="400" height="400" fill="#1a1a2e"/>
  <path d="M 256.2,259.3 L 256.2,238.0 L 234.4,231.1 Z M 256.2,259.3 L 234.4,231.1 L 229.5,250.7 Z M 229.5,250.7 L 234.4,231.1 L 210.3,226.6 Z M 229.5,250.7 L 210.3,226.6 L 209.5,252.7 Z M 44.7,254.5 L 70.5,263.6 L 86.2,242.3 Z M 44.7,254.5 L 86.2,242.3 L 44.7,240.7 Z M 44.7,240.7 L 86.2,242.3 L 97.0,195.9 Z M 44.7,240.7 L 97.0,195.9 L 85.0,187.5 Z M 140.7,351.4 L 163.5,354.8 L 157.2,345.5 Z M 163.5,354.8 L 188.3,297.9 L 157.2,345.5 Z M 156.7,155.0 L 177.3,180.3 L 163.4,143.2 Z M 177.3,180.3 L 223.7,184.0 L 163.4,143.2 Z M 256.2,259.3 L 229.5,250.7 L 201.5,273.7 Z M 229.5,250.7 L 209.5,252.7 L 201.5,273.7 Z M 140.7,351.4 L 116.2,320.8 L 83.8,310.2 Z M 116.2,320.8 L 104.8,300.3 L 83.8,310.2 Z M 201.5,273.7 L 188.3,297.9 L 224.9,310.3 Z M 201.5,273.7 L 224.9,310.3 L 256.2,259.3 Z M 158.0,20.0 L 139.0,145.6 L 156.7,155.0 Z M 158.0,20.0 L 156.7,155.0 L 163.4,143.2 Z M 223.7,184.0 L 197.2,203.5 L 210.3,226.6 Z M 223.7,184.0 L 210.3,226.6 L 234.4,231.1 Z M 104.8,300.3 L 86.1,275.1 L 70.5,263.6 Z M 104.8,300.3 L 70.5,263.6 L 83.8,310.2 Z M 256.2,259.3 L 380.0,253.2 L 380.0,242.0 Z M 256.2,259.3 L 380.0,242.0 L 256.2,238.0 Z M 139.0,145.6 L 85.0,187.5 L 97.0,195.9 Z M 158.0,20.0 L 146.8,20.0 L 139.0,145.6 Z M 177.3,180.3 L 197.2,203.5 L 223.7,184.0 Z M 188.3,297.9 L 163.5,354.8 L 224.9,310.3 Z M 44.7,254.5 L 83.8,310.2 L 70.5,263.6 Z M 234.4,231.1 L 256.2,238.0 L 223.7,184.0 Z M 70.5,263.6 L 86.1,275.1 L 86.2,242.3 Z M 152.4,154.3 L 138.2,125.2 L 31.1,229.6 Z M 152.4,154.3 L 31.1,229.6 L 70.3,231.1 Z M 70.3,231.1 L 31.1,229.6 L 31.1,265.6 Z M 70.3,231.1 L 31.1,265.6 L 70.3,264.1 Z M 70.3,264.1 L 31.1,265.6 L 134.4,368.9 Z M 70.3,264.1 L 134.4,368.9 L 152.4,340.9 Z M 166.6,125.2 L 152.4,154.3 L 234.5,231.1 Z M 166.6,125.2 L 234.5,231.1 L 274.8,233.4 Z M 274.8,233.4 L 234.5,231.1 L 234.5,264.1 Z M 274.8,233.4 L 234.5,264.1 L 274.8,261.8 Z M 274.8,261.8 L 234.5,264.1 L 152.4,340.9 Z M 274.8,261.8 L 152.4,340.9 L 170.4,368.9 Z M 168.1,257.0 L 140.5,254.3 L 125.4,290.5 Z M 168.1,257.0 L 125.4,290.5 L 165.3,282.1 Z M 165.3,282.1 L 125.4,290.5 L 140.7,351.4 Z M 165.3,282.1 L 140.7,351.4 L 157.2,345.5 Z M 197.2,203.5 L 168.5,212.4 L 189.1,237.0 Z M 197.2,203.5 L 189.1,237.0 L 210.3,226.6 Z M 210.3,226.6 L 189.1,237.0 L 189.4,259.1 Z M 210.3,226.6 L 189.4,259.1 L 209.5,252.7 Z M 143.7,219.0 L 97.0,195.9 L 86.2,242.3 Z M 143.7,219.0 L 86.2,242.3 L 102.9,250.6 Z M 102.9,250.6 L 86.2,242.3 L 86.1,275.1 Z M 102.9,250.6 L 86.1,275.1 L 125.4,290.5 Z M 140.5,254.3 L 159.3,231.4 L 168.5,212.4 Z M 140.5,254.3 L 168.5,212.4 L 143.7,219.0 Z M 143.7,219.0 L 168.5,212.4 L 177.3,180.3 Z M 143.7,219.0 L 177.3,180.3 L 156.7,155.0 Z M 86.1,275.1 L 104.8,300.3 L 125.4,290.5 Z M 104.8,300.3 L 116.2,320.8 L 125.4,290.5 Z M 125.4,290.5 L 116.2,320.8 L 140.7,351.4 Z M 156.7,155.0 L 139.0,145.6 L 143.7,219.0 Z M 139.0,145.6 L 97.0,195.9 L 143.7,219.0 Z M 168.5,212.4 L 159.3,231.4 L 189.1,237.0 Z M 159.3,231.4 L 168.1,257.0 L 189.1,237.0 Z M 189.1,237.0 L 168.1,257.0 L 189.4,259.1 Z M 168.1,257.0 L 165.3,282.1 L 189.4,259.1 Z M 143.7,219.0 L 102.9,250.6 L 140.5,254.3 Z M 102.9,250.6 L 125.4,290.5 L 140.5,254.3 Z M 166.6,125.2 L 166.1,20.0 L 138.3,20.0 Z M 166.6,125.2 L 138.3,20.0 L 138.2,125.2 Z M 274.8,261.8 L 380.0,261.3 L 380.0,233.5 Z M 274.8,261.8 L 380.0,233.5 L 274.8,233.4 Z M 201.5,273.7 L 189.4,259.1 L 165.3,282.1 Z M 201.5,273.7 L 165.3,282.1 L 188.3,297.9 Z M 170.4,368.9 L 152.4,340.9 L 134.4,368.9 Z M 138.2,125.2 L 152.4,154.3 L 166.6,125.2 Z M 188.3,297.9 L 165.3,282.1 L 157.2,345.5 Z M 177.3,180.3 L 168.5,212.4 L 197.2,203.5 Z M 209.5,252.7 L 189.4,259.1 L 201.5,273.7 Z M 140.5,254.3 L 168.1,257.0 L 159.3,231.4 Z M 138.2,125.2 L 130.0,121.3 L 22.3,225.2 Z M 138.2,125.2 L 22.3,225.2 L 31.1,229.6 Z M 138.2,125.2 L 138.3,20.0 L 130.0,20.0 Z M 138.2,125.2 L 130.0,20.0 L 130.0,121.3 Z M 31.1,265.6 L 31.1,229.6 L 22.3,225.2 Z M 31.1,265.6 L 22.3,225.2 L 22.3,270.0 Z M 174.8,121.3 L 166.6,125.2 L 274.8,233.4 Z M 174.8,121.3 L 274.8,233.4 L 278.7,225.2 Z M 170.4,368.9 L 174.8,377.7 L 278.7,270.0 Z M 170.4,368.9 L 278.7,270.0 L 274.8,261.8 Z M 130.0,377.7 L 134.4,368.9 L 31.1,265.6 Z M 130.0,377.7 L 31.1,265.6 L 22.3,270.0 Z M 166.6,125.2 L 174.8,121.3 L 174.8,20.0 Z M 166.6,125.2 L 174.8,20.0 L 166.1,20.0 Z M 170.4,368.9 L 134.4,368.9 L 130.0,377.7 Z M 170.4,368.9 L 130.0,377.7 L 174.8,377.7 Z M 274.8,233.4 L 380.0,233.5 L 380.0,225.2 Z M 274.8,233.4 L 380.0,225.2 L 278.7,225.2 Z M 274.8,261.8 L 278.7,270.0 L 380.0,270.0 Z M 274.8,261.8 L 380.0,270.0 L 380.0,261.3 Z M 139.0,145.6 L 146.8,20.0 L 119.6,132.2 Z M 146.8,20.0 L 129.3,20.0 L 119.6,132.2 Z M 139.0,145.6 L 119.6,132.2 L 85.0,187.5 Z M 119.6,132.2 L 67.6,171.2 L 85.0,187.5 Z M 44.7,254.5 L 44.7,240.7 L 20.0,262.4 Z M 44.7,240.7 L 22.6,232.4 L 20.0,262.4 Z M 238.2,325.6 L 224.9,310.3 L 171.2,373.4 Z M 224.9,310.3 L 163.5,354.8 L 171.2,373.4 Z M 83.8,310.2 L 44.7,254.5 L 71.4,327.0 Z M 44.7,254.5 L 20.0,262.4 L 71.4,327.0 Z M 256.2,238.0 L 271.6,221.5 L 223.7,184.0 Z M 271.6,221.5 L 239.6,174.8 L 223.7,184.0 Z M 163.4,143.2 L 178.1,131.2 L 158.0,20.0 Z M 178.1,131.2 L 176.9,20.0 L 158.0,20.0 Z M 163.4,143.2 L 223.7,184.0 L 178.1,131.2 Z M 223.7,184.0 L 239.6,174.8 L 178.1,131.2 Z M 44.7,240.7 L 85.0,187.5 L 22.6,232.4 Z M 85.0,187.5 L 67.6,171.2 L 22.6,232.4 Z M 83.8,310.2 L 71.4,327.0 L 140.7,351.4 Z M 71.4,327.0 L 130.5,373.6 L 140.7,351.4 Z M 256.2,259.3 L 224.9,310.3 L 270.0,276.8 Z M 224.9,310.3 L 238.2,325.6 L 270.0,276.8 Z M 163.5,354.8 L 140.7,351.4 L 171.2,373.4 Z M 140.7,351.4 L 130.5,373.6 L 171.2,373.4 Z M 380.0,225.4 L 271.6,221.5 L 380.0,242.0 Z M 271.6,221.5 L 256.2,238.0 L 380.0,242.0 Z M 256.2,259.3 L 270.0,276.8 L 380.0,253.2 Z M 270.0,276.8 L 380.0,271.3 L 380.0,253.2 Z M 162.6,226.8 L 173.1,241.5 L 177.3,216.3 Z M 152.2,212.1 L 148.0,237.3 L 162.6,226.8 Z M 177.3,216.3 L 152.2,212.1 L 162.6,226.8 Z M 148.0,237.3 L 173.1,241.5 L 162.6,226.8 Z M 179.6,180.7 L 185.0,195.0 L 193.8,175.3 Z M 174.2,166.5 L 165.4,186.2 L 179.6,180.7 Z M 193.8,175.3 L 174.2,166.5 L 179.6,180.7 Z M 165.4,186.2 L 185.0,195.0 L 179.6,180.7 Z M 107.8,297.2 L 129.0,306.4 L 116.9,275.8 Z M 86.5,287.9 L 98.6,318.5 L 107.8,297.2 Z M 116.9,275.8 L 86.5,287.9 L 107.8,297.2 Z M 98.6,318.5 L 129.0,306.4 L 107.8,297.2 Z" fill="#2a2a4e" stroke="none"/>
  <path d="M 380.0,253.2 L 380.0,242.0 M 158.0,20.0 L 146.8,20.0 M 70.3,231.1 L 152.4,154.3 M 70.3,264.1 L 70.3,231.1 M 134.4,368.9 L 152.4,340.9 M 152.4,340.9 L 70.3,264.1 M 152.4,154.3 L 234.5,231.1 M 234.5,231.1 L 234.5,264.1 M 234.5,264.1 L 152.4,340.9 M 166.1,20.0 L 138.3,20.0 M 380.0,261.3 L 380.0,233.5 M 152.4,340.9 L 134.4,368.9 M 134.4,368.9 L 170.4,368.9 M 130.0,121.3 L 22.3,225.2 M 138.3,20.0 L 130.0,20.0 M 130.0,20.0 L 130.0,121.3 M 22.3,225.2 L 22.3,270.0 M 278.7,225.2 L 174.8,121.3 M 174.8,377.7 L 278.7,270.0 M 22.3,270.0 L 130.0,377.7 M 174.8,121.3 L 174.8,20.0 M 174.8,20.0 L 166.1,20.0 M 170.4,368.9 L 134.4,368.9 M 130.0,377.7 L 174.8,377.7 M 380.0,233.5 L 380.0,225.2 M 380.0,225.2 L 278.7,225.2 M 278.7,270.0 L 380.0,270.0 M 380.0,270.0 L 380.0,261.3 M 146.8,20.0 L 129.3,20.0 M 129.3,20.0 L 119.6,132.2 M 119.6,132.2 L 67.6,171.2 M 22.6,232.4 L 20.0,262.4 M 171.2,373.4 L 238.2,325.6 M 20.0,262.4 L 71.4,327.0 M 271.6,221.5 L 239.6,174.8 M 178.1,131.2 L 176.9,20.0 M 176.9,20.0 L 158.0,20.0 M 239.6,174.8 L 178.1,131.2 M 67.6,171.2 L 22.6,232.4 M 71.4,327.0 L 130.5,373.6 M 238.2,325.6 L 270.0,276.8 M 130.5,373.6 L 171.2,373.4 M 380.0,225.4 L 271.6,221.5 M 380.0,242.0 L 380.0,225.4 M 270.0,276.8 L 380.0,271.3 M 380.0,271.3 L 380.0,253.2 M 173.1,241.5 L 177.3,216.3 M 152.2,212.1 L 148.0,237.3 M 177.3,216.3 L 152.2,212.1 M 148.0,237.3 L 173.1,241.5 M 185.0,195.0 L 193.8,175.3 M 174.2,166.5 L 165.4,186.2 M 193.8,175.3 L 174.2,166.5 M 165.4,186.2 L 185.0,195.0 M 129.0,306.4 L 116.9,275.8 M 86.5,287.9 L 98.6,318.5 M 116.9,275.8 L 86.5,287.9 M 98.6,318.5 L 129.0,306.4" fill="none" stroke="white" stroke-width="2" stroke-linecap="round"/>
  <polygon points="277.740335077638,242.11201016925082 285.740335077638,250.11201016925082 277.740335077638,258.1120101692508 269.740335077638,250.11201016925082" fill="#4a9eff" stroke="white" stroke-width="1"/>
<polygon points="152.49131336757387,110.12805700373472 160.49131336757387,118.12805700373472 152.49131336757387,126.12805700373472 144.49131336757387,118.12805700373472" fill="#4a9eff" stroke="white" stroke-width="1"/>
</svg>