<svg xmlns="http://www.w3.org/2000/svg" viewBox="0 0 400 400">
  <rect width="400" height="400" fill="#1a1a2e"/>
  <path d="M 151.0,229.4 L 170.6,248.9 L 197.6,221.7 Z M 151.0,229.4 L 197.6,221.7 L 178.3,202.5 Z M 178.3,202.5 L 197.6,221.7 L 224.7,194.7 Z M 178.3,202.5 L 224.7,194.7 L 205.2,175.1 Z M 234.8,106.0 L 262.4,106.1 L 261.7,21.8 Z M 234.8,106.0 L 261.7,21.8 L 235.0,21.8 Z M 44.4,374.3 L 104.5,315.2 L 84.9,295.7 Z M 44.4,374.3 L 84.9,295.7 L 25.5,355.4 Z M 104.5,315.2 L 146.0,315.3 L 170.6,290.7 Z M 104.5,315.2 L 170.6,290.7 L 128.1,272.8 Z M 128.1,272.8 L 170.6,290.7 L 170.6,248.9 Z M 128.1,272.8 L 170.6,248.9 L 151.0,229.4 Z M 151.0,229.4 L 109.3,229.3 L 84.9,253.9 Z M 151.0,229.4 L 84.9,253.9 L 128.1,272.8 Z M 128.1,272.8 L 84.9,253.9 L 84.9,295.7 Z M 128.1,272.8 L 84.9,295.7 L 104.5,315.2 Z M 291.9,135.4 L 262.4,106.1 L 249.1,152.8 Z M 291.9,135.4 L 249.1,152.8 L 291.9,170.2 Z M 291.9,170.2 L 249.1,152.8 L 224.7,194.7 Z M 291.9,170.2 L 224.7,194.7 L 266.4,194.9 Z M 205.2,175.1 L 224.7,194.7 L 249.1,152.8 Z M 205.2,175.1 L 249.1,152.8 L 205.3,135.6 Z M 205.3,135.6 L 249.1,152.8 L 262.4,106.1 Z M 205.3,135.6 L 262.4,106.1 L 234.8,106.0 Z M 150.0,219.9 L 151.0,229.4 L 178.3,202.5 Z M 150.0,219.9 L 178.3,202.5 L 172.9,197.0 Z M 172.9,197.0 L 178.3,202.5 L 205.2,175.1 Z M 172.9,197.0 L 205.2,175.1 L 195.7,174.2 Z M 170.6,248.9 L 180.1,250.0 L 203.0,227.2 Z M 170.6,248.9 L 203.0,227.2 L 197.6,221.7 Z M 197.6,221.7 L 203.0,227.2 L 225.8,204.3 Z M 197.6,221.7 L 225.8,204.3 L 224.7,194.7 Z M 150.0,324.7 L 146.0,315.3 L 104.5,315.2 Z M 150.0,324.7 L 104.5,315.2 L 105.5,324.7 Z M 75.4,294.6 L 84.9,295.7 L 84.9,253.9 Z M 75.4,294.6 L 84.9,253.9 L 75.4,250.0 Z M 180.1,294.6 L 170.6,290.7 L 146.0,315.3 Z M 180.1,294.6 L 146.0,315.3 L 150.0,324.7 Z M 75.4,250.0 L 84.9,253.9 L 109.3,229.3 Z M 75.4,250.0 L 109.3,229.3 L 105.5,219.9 Z M 180.1,250.0 L 170.6,248.9 L 170.6,290.7 Z M 180.1,250.0 L 170.6,290.7 L 180.1,294.6 Z M 109.3,229.3 L 151.0,229.4 L 150.0,219.9 Z M 109.3,229.3 L 150.0,219.9 L 105.5,219.9 Z M 270.4,204.3 L 266.4,194.9 L 224.7,194.7 Z M 270.4,204.3 L 224.7,194.7 L 225.8,204.3 Z M 262.4,106.1 L 291.9,135.4 L 301.4,131.6 Z M 262.4,106.1 L 301.4,131.6 L 269.8,100.1 Z M 205.3,135.6 L 234.8,106.0 L 227.3,100.1 Z M 205.3,135.6 L 227.3,100.1 L 195.8,131.6 Z M 291.9,135.4 L 291.9,170.2 L 301.4,174.2 Z M 291.9,135.4 L 301.4,174.2 L 301.4,131.6 Z M 205.2,175.1 L 205.3,135.6 L 195.8,131.6 Z M 205.2,175.1 L 195.8,131.6 L 195.7,174.2 Z M 291.9,170.2 L 266.4,194.9 L 270.4,204.3 Z M 291.9,170.2 L 270.4,204.3 L 301.4,174.2 Z M 261.7,21.8 L 262.4,106.1 L 269.8,100.1 Z M 261.7,21.8 L 269.8,100.1 L 269.8,21.8 Z M 234.8,106.0 L 235.0,21.8 L 227.2,21.8 Z M 234.8,106.0 L 227.2,21.8 L 227.3,100.1 Z M 105.5,324.7 L 104.5,315.2 L 44.4,374.3 Z M 105.5,324.7 L 44.4,374.3 L 50.1,380.0 Z M 20.0,349.9 L 25.5,355.4 L 84.9,295.7 Z M 20.0,349.9 L 84.9,295.7 L 75.4,294.6 Z M 227.4,20.2 L 227.7,24.5 L 269.6,24.6 Z M 227.4,20.2 L 269.6,24.6 L 269.6,20.0 Z M 23.6,346.5 L 20.7,349.8 L 50.4,379.5 Z M 23.6,346.5 L 50.4,379.5 L 53.6,376.3 Z" fill="#2a2a4e" stroke="none"/>
  <path d="M 261.7,21.8 L 235.0,21.8 M 25.5,355.4 L 44.4,374.3 M 172.9,197.0 L 150.0,219.9 M 195.7,174.2 L 172.9,197.0 M 180.1,250.0 L 203.0,227.2 M 203.0,227.2 L 225.8,204.3 M 105.5,324.7 L 150.0,324.7 M 75.4,250.0 L 75.4,294.6 M 150.0,324.7 L 180.1,294.6 M 105.5,219.9 L 75.4,250.0 M 180.1,294.6 L 180.1,250.0 M 150.0,219.9 L 105.5,219.9 M 225.8,204.3 L 270.4,204.3 M 301.4,131.6 L 269.8,100.1 M 227.3,100.1 L 195.8,131.6 M 301.4,174.2 L 301.4,131.6 M 195.8,131.6 L 195.7,174.2 M 270.4,204.3 L 301.4,174.2 M 269.8,100.1 L 269.8,21.8 M 269.8,21.8 L 261.7,21.8 M 235.0,21.8 L 227.2,21.8 M 227.2,21.8 L 227.3,100.1 M 44.4,374.3 L 50.1,380.0 M 50.1,380.0 L 105.5,324.7 M 20.0,349.9 L 25.5,355.4 M 75.4,294.6 L 20.0,349.9 M 227.4,20.2 L 227.7,24.5 M 227.7,24.5 L 269.6,24.6 M 269.6,24.6 L 269.6,20.0 M 269.6,20.0 L 227.4,20.2 M 23.6,346.5 L 20.7,349.8 M 20.7,349.8 L 50.4,379.5 M 50.4,379.5 L 53.6,376.3 M 53.6,376.3 L 23.6,346.5" fill="none" stroke="white" stroke-width="2" stroke-linecap="round"/>
  <polygon points="245.35515062677734,79.97346425741047 253.35515062677734,87.97346425741047 245.35515062677734,95.97346425741047 237.35515062677734,87.97346425741047" fill="#4a9eff" stroke="white" stroke-width="1"/>
<polygon points="81.03837835174102,312.4223942489907 89.03837835174102,320.4223942489907 81.03837835174102,328.4223942489907 73.03837835174102,320.4223942489907" fill="#4a9eff" stroke="white" stroke-width="1"/>
</svg>