<svg xmlns="http://www.w3.org/2000/svg" viewBox="0 0 400 400">
  <rect width="400" height="400" fill="#1a1a2e"/>
  <path d="M 380.0,20.0 L 308.0,20.0 L 308.0,92.0 Z M 380.0,20.0 L 308.0,92.0 L 380.0,380.0 Z M 380.0,380.0 L 308.0,92.0 L 92.0,92.0 Z M 380.0,380.0 L 92.0,92.0 L 20.0,380.0 Z M 20.0,380.0 L 92.0,92.0 L 92.0,20.0 Z M 20.0,380.0 L 92.0,20.0 L 20.0,20.0 Z M 308.0,92.0 L 236.0,92.0 L 164.0,92.0 Z M 308.0,92.0 L 164.0,92.0 L 92.0,92.0 Z M 92.0,20.0 L 92.0,92.0 L 92.0,92.0 Z M 308.0,92.0 L 308.0,20.0 L 308.0,92.0 Z M 308.0,92.0 L 308.0,92.0 L 236.0,92.0 Z M 92.0,92.0 L 164.0,92.0 L 92.0,92.0 Z" fill="#2a2a4e" stroke="none"/>
  <path d="M 380.0,20.0 L 308.0,20.0 M 380.0,380.0 L 380.0,20.0 M 20.0,380.0 L 380.0,380.0 M 92.0,20.0 L 20.0,20.0 M 20.0,20.0 L 20.0,380.0 M 236.0,92.0 L 164.0,92.0" fill="none" stroke="white" stroke-width="2" stroke-linecap="round"/>
  
</svg>