<svg xmlns="http://www.w3.org/2000/svg" viewBox="0 0 400 400">
  <rect width="400" height="400" fill="#1a1a2e"/>
  <path d="M 159.8,269.6 L 200.0,280.4 L 240.2,269.6 Z M 159.8,269.6 L 240.2,269.6 L 200.0,200.0 Z M 200.0,200.0 L 240.2,269.6 L 269.6,240.2 Z M 200.0,200.0 L 269.6,240.2 L 280.4,200.0 Z M 280.4,200.0 L 269.6,159.8 L 240.2,130.4 Z M 280.4,200.0 L 240.2,130.4 L 200.0,200.0 Z M 200.0,200.0 L 240.2,130.4 L 200.0,119.6 Z M 200.0,200.0 L 200.0,119.6 L 159.8,130.4 Z M 130.4,240.2 L 159.8,269.6 L 200.0,200.0 Z M 130.4,240.2 L 200.0,200.0 L 119.6,200.0 Z M 119.6,200.0 L 200.0,200.0 L 159.8,130.4 Z M 119.6,200.0 L 159.8,130.4 L 130.4,159.8 Z M 343.8,283.0 L 262.2,235.9 L 235.9,262.2 Z M 343.8,283.0 L 235.9,262.2 L 283.0,343.8 Z M 366.0,200.0 L 271.8,200.0 L 262.2,235.9 Z M 366.0,200.0 L 262.2,235.9 L 343.8,283.0 Z M 343.8,117.0 L 262.2,164.1 L 271.8,200.0 Z M 343.8,117.0 L 271.8,200.0 L 366.0,200.0 Z M 283.0,56.2 L 235.9,137.8 L 262.2,164.1 Z M 283.0,56.2 L 262.2,164.1 L 343.8,117.0 Z M 200.0,34.0 L 200.0,128.2 L 235.9,137.8 Z M 200.0,34.0 L 235.9,137.8 L 283.0,56.2 Z M 164.1,137.8 L 200.0,128.2 L 200.0,34.0 Z M 164.1,137.8 L 200.0,34.0 L 117.0,56.2 Z M 56.2,117.0 L 137.8,164.1 L 164.1,137.8 Z M 56.2,117.0 L 164.1,137.8 L 117.0,56.2 Z M 34.0,200.0 L 128.2,200.0 L 137.8,164.1 Z M 34.0,200.0 L 137.8,164.1 L 56.2,117.0 Z M 56.2,283.0 L 137.8,235.9 L 128.2,200.0 Z M 56.2,283.0 L 128.2,200.0 L 34.0,200.0 Z M 117.0,343.8 L 164.1,262.2 L 137.8,235.9 Z M 117.0,343.8 L 137.8,235.9 L 56.2,283.0 Z M 200.0,366.0 L 200.0,271.8 L 164.1,262.2 Z M 200.0,366.0 L 164.1,262.2 L 117.0,343.8 Z M 283.0,343.8 L 235.9,262.2 L 200.0,271.8 Z M 283.0,343.8 L 200.0,271.8 L 200.0,366.0 Z M 285.1,347.3 L 290.0,355.9 L 355.9,290.0 Z M 285.1,347.3 L 355.9,290.0 L 347.3,285.1 Z M 347.3,285.1 L 355.9,290.0 L 380.0,200.0 Z M 347.3,285.1 L 380.0,200.0 L 370.1,200.0 Z M 380.0,200.0 L 355.9,110.0 L 347.3,114.9 Z M 380.0,200.0 L 347.3,114.9 L 370.1,200.0 Z M 370.1,200.0 L 347.3,114.9 L 287.0,149.8 Z M 370.1,200.0 L 287.0,149.8 L 300.4,200.0 Z M 355.9,110.0 L 290.0,44.1 L 285.1,52.7 Z M 355.9,110.0 L 285.1,52.7 L 347.3,114.9 Z M 347.3,114.9 L 285.1,52.7 L 250.2,113.0 Z M 347.3,114.9 L 250.2,113.0 L 287.0,149.8 Z M 285.1,52.7 L 290.0,44.1 L 200.0,20.0 Z M 285.1,52.7 L 200.0,20.0 L 200.0,29.9 Z M 200.0,29.9 L 200.0,20.0 L 110.0,44.1 Z M 200.0,29.9 L 110.0,44.1 L 114.9,52.7 Z M 110.0,44.1 L 44.1,110.0 L 52.7,114.9 Z M 110.0,44.1 L 52.7,114.9 L 114.9,52.7 Z M 114.9,52.7 L 52.7,114.9 L 113.0,149.8 Z M 114.9,52.7 L 113.0,149.8 L 149.8,113.0 Z M 44.1,110.0 L 20.0,200.0 L 29.9,200.0 Z M 44.1,110.0 L 29.9,200.0 L 52.7,114.9 Z M 52.7,114.9 L 29.9,200.0 L 99.6,200.0 Z M 52.7,114.9 L 99.6,200.0 L 113.0,149.8 Z M 20.0,200.0 L 44.1,290.0 L 52.7,285.1 Z M 20.0,200.0 L 52.7,285.1 L 29.9,200.0 Z M 29.9,200.0 L 52.7,285.1 L 113.0,250.2 Z M 29.9,200.0 L 113.0,250.2 L 99.6,200.0 Z M 44.1,290.0 L 110.0,355.9 L 114.9,347.3 Z M 44.1,290.0 L 114.9,347.3 L 52.7,285.1 Z M 52.7,285.1 L 114.9,347.3 L 149.8,287.0 Z M 52.7,285.1 L 149.8,287.0 L 113.0,250.2 Z M 110.0,355.9 L 200.0,380.0 L 200.0,370.1 Z M 110.0,355.9 L 200.0,370.1 L 114.9,347.3 Z M 114.9,347.3 L 200.0,370.1 L 200.0,300.4 Z M 114.9,347.3 L 200.0,300.4 L 149.8,287.0 Z M 200.0,380.0 L 290.0,355.9 L 285.1,347.3 Z M 200.0,380.0 L 285.1,347.3 L 200.0,370.1 Z M 200.0,370.1 L 285.1,347.3 L 250.2,287.0 Z M 200.0,370.1 L 250.2,287.0 L 200.0,300.4 Z M 250.2,287.0 L 285.1,347.3 L 347.3,285.1 Z M 250.2,287.0 L 347.3,285.1 L 287.0,250.2 Z M 287.0,250.2 L 347.3,285.1 L 370.1,200.0 Z M 287.0,250.2 L 370.1,200.0 L 300.4,200.0 Z M 250.2,113.0 L 285.1,52.7 L 200.0,29.9 Z M 250.2,113.0 L 200.0,29.9 L 200.0,99.6 Z M 200.0,99.6 L 200.0,29.9 L 114.9,52.7 Z M 200.0,99.6 L 114.9,52.7 L 149.8,113.0 Z" fill="#2a2a4e" stroke="none"/>
  <path d="M 159.8,269.6 L 200.0,280.4 M 200.0,280.4 L 240.2,269.6 M 240.2,269.6 L 269.6,240.2 M 269.6,240.2 L 280.4,200.0 M 280.4,200.0 L 269.6,159.8 M 269.6,159.8 L 240.2,130.4 M 240.2,130.4 L 200.0,119.6 M 200.0,119.6 L 159.8,130.4 M 130.4,240.2 L 159.8,269.6 M 119.6,200.0 L 130.4,240.2 M 159.8,130.4 L 130.4,159.8 M 130.4,159.8 L 119.6,200.0 M 262.2,235.9 L 235.9,262.2 M 283.0,343.8 L 343.8,283.0 M 271.8,200.0 L 262.2,235.9 M 343.8,283.0 L 366.0,200.0 M 262.2,164.1 L 271.8,200.0 M 366.0,200.0 L 343.8,117.0 M 235.9,137.8 L 262.2,164.1 M 343.8,117.0 L 283.0,56.2 M 200.0,128.2 L 235.9,137.8 M 283.0,56.2 L 200.0,34.0 M 164.1,137.8 L 200.0,128.2 M 200.0,34.0 L 117.0,56.2 M 137.8,164.1 L 164.1,137.8 M 117.0,56.2 L 56.2,117.0 M 128.2,200.0 L 137.8,164.1 M 56.2,117.0 L 34.0,200.0 M 137.8,235.9 L 128.2,200.0 M 34.0,200.0 L 56.2,283.0 M 164.1,262.2 L 137.8,235.9 M 56.2,283.0 L 117.0,343.8 M 200.0,271.8 L 164.1,262.2 M 117.0,343.8 L 200.0,366.0 M 235.9,262.2 L 200.0,271.8 M 200.0,366.0 L 283.0,343.8 M 290.0,355.9 L 355.9,290.0 M 355.9,290.0 L 380.0,200.0 M 380.0,200.0 L 355.9,110.0 M 287.0,149.8 L 300.4,200.0 M 355.9,110.0 L 290.0,44.1 M 250.2,113.0 L 287.0,149.8 M 290.0,44.1 L 200.0,20.0 M 200.0,20.0 L 110.0,44.1 M 110.0,44.1 L 44.1,110.0 M 113.0,149.8 L 149.8,113.0 M 44.1,110.0 L 20.0,200.0 M 99.6,200.0 L 113.0,149.8 M 20.0,200.0 L 44.1,290.0 M 113.0,250.2 L 99.6,200.0 M 44.1,290.0 L 110.0,355.9 M 149.8,287.0 L 113.0,250.2 M 110.0,355.9 L 200.0,380.0 M 200.0,300.4 L 149.8,287.0 M 200.0,380.0 L 290.0,355.9 M 250.2,287.0 L 200.0,300.4 M 287.0,250.2 L 250.2,287.0 M 300.4,200.0 L 287.0,250.2 M 200.0,99.6 L 250.2,113.0 M 149.8,113.0 L 200.0,99.6" fill="none" stroke="white" stroke-width="2" stroke-linecap="round"/>
  
</svg>