<svg xmlns="http://www.w3.org/2000/svg" viewBox="0 0 400 400">
  <rect width="400" height="400" fill="#1a1a2e"/>
  <path d="M 45.6,309.0 L 28.9,324.8 L 56.9,309.3 Z M 28.9,324.8 L 58.5,333.6 L 56.9,309.3 Z M 42.2,224.9 L 38.4,250.1 L 54.9,266.8 Z M 42.2,224.9 L 54.9,266.8 L 68.7,264.4 Z M 131.4,365.4 L 144.2,339.8 L 96.5,360.5 Z M 215.0,250.8 L 169.2,258.1 L 197.7,281.7 Z M 48.1,370.7 L 96.5,360.5 L 91.4,344.5 Z M 155.7,279.3 L 169.2,258.1 L 144.5,217.8 Z M 155.7,279.3 L 144.5,217.8 L 115.8,253.1 Z M 115.8,253.1 L 144.5,217.8 L 72.1,204.8 Z M 115.8,253.1 L 72.1,204.8 L 68.7,264.4 Z M 68.7,264.4 L 72.1,204.8 L 62.8,204.8 Z M 68.7,264.4 L 62.8,204.8 L 42.2,224.9 Z M 143.3,327.6 L 109.0,308.5 L 91.4,344.5 Z M 109.0,308.5 L 56.9,309.3 L 91.4,344.5 Z M 91.4,344.5 L 56.9,309.3 L 58.5,333.6 Z M 144.5,217.8 L 169.2,258.1 L 190.9,216.5 Z M 169.2,258.1 L 215.0,250.8 L 190.9,216.5 Z M 29.1,351.6 L 48.1,370.7 L 91.4,344.5 Z M 29.1,351.6 L 91.4,344.5 L 58.5,333.6 Z M 96.5,360.5 L 144.2,339.8 L 143.3,327.6 Z M 96.5,360.5 L 143.3,327.6 L 91.4,344.5 Z M 28.9,324.8 L 29.1,351.6 L 58.5,333.6 Z M 169.2,258.1 L 155.7,279.3 L 197.7,281.7 Z M 151.7,320.4 L 153.7,345.1 L 229.9,345.1 Z M 151.7,320.4 L 229.9,345.1 L 225.8,320.4 Z M 225.8,320.4 L 229.9,345.1 L 291.6,300.9 Z M 225.8,320.4 L 291.6,300.9 L 287.5,276.2 Z M 151.7,320.4 L 143.3,327.6 L 153.7,345.1 Z M 143.3,327.6 L 144.2,339.8 L 153.7,345.1 Z M 79.7,194.9 L 55.0,194.9 L 72.1,204.8 Z M 55.0,194.9 L 62.8,204.8 L 72.1,204.8 Z M 45.6,309.0 L 56.9,309.3 L 38.9,299.5 Z M 56.9,309.3 L 67.7,299.5 L 38.9,299.5 Z M 38.9,299.5 L 67.7,299.5 L 48.8,278.6 Z M 67.7,299.5 L 78.9,273.3 L 48.8,278.6 Z M 48.8,278.6 L 78.9,273.3 L 54.9,266.8 Z M 78.9,273.3 L 68.7,264.4 L 54.9,266.8 Z M 197.4,20.0 L 189.8,20.0 L 105.7,63.2 Z M 79.7,155.8 L 55.0,162.0 L 55.0,194.9 Z M 79.7,155.8 L 55.0,194.9 L 79.7,194.9 Z M 67.7,299.5 L 56.9,309.3 L 109.0,308.5 Z M 67.7,299.5 L 109.0,308.5 L 112.9,299.6 Z M 112.9,299.6 L 109.0,308.5 L 143.3,327.6 Z M 112.9,299.6 L 143.3,327.6 L 151.7,320.4 Z M 137.3,373.3 L 131.4,365.4 L 96.5,360.5 Z M 137.3,373.3 L 96.5,360.5 L 97.7,369.2 Z M 97.7,369.2 L 96.5,360.5 L 48.1,370.7 Z M 97.7,369.2 L 48.1,370.7 L 44.5,380.0 Z M 190.9,216.5 L 215.0,250.8 L 225.8,249.9 Z M 190.9,216.5 L 225.8,249.9 L 197.1,206.8 Z M 155.7,279.3 L 149.6,288.9 L 202.1,292.8 Z M 155.7,279.3 L 202.1,292.8 L 197.7,281.7 Z M 115.8,253.1 L 112.9,263.2 L 149.6,288.9 Z M 115.8,253.1 L 149.6,288.9 L 155.7,279.3 Z M 215.0,250.8 L 197.7,281.7 L 202.1,292.8 Z M 215.0,250.8 L 202.1,292.8 L 225.8,249.9 Z M 190.9,216.5 L 197.1,206.8 L 147.6,207.3 Z M 190.9,216.5 L 147.6,207.3 L 144.5,217.8 Z M 31.3,218.7 L 27.4,255.4 L 38.4,250.1 Z M 31.3,218.7 L 38.4,250.1 L 42.2,224.9 Z M 54.9,266.8 L 38.4,250.1 L 27.4,255.4 Z M 54.9,266.8 L 27.4,255.4 L 48.8,278.6 Z M 68.7,264.4 L 78.9,273.3 L 112.9,263.2 Z M 68.7,264.4 L 112.9,263.2 L 115.8,253.1 Z M 147.6,207.3 L 79.7,194.9 L 72.1,204.8 Z M 147.6,207.3 L 72.1,204.8 L 144.5,217.8 Z M 62.8,204.8 L 55.0,194.9 L 31.3,218.7 Z M 62.8,204.8 L 31.3,218.7 L 42.2,224.9 Z M 28.9,324.8 L 45.6,309.0 L 38.9,299.5 Z M 28.9,324.8 L 38.9,299.5 L 20.0,319.6 Z M 131.4,365.4 L 137.3,373.3 L 153.7,345.1 Z M 131.4,365.4 L 153.7,345.1 L 144.2,339.8 Z M 44.5,380.0 L 48.1,370.7 L 29.1,351.6 Z M 44.5,380.0 L 29.1,351.6 L 20.0,355.2 Z M 28.9,324.8 L 20.0,319.6 L 20.0,355.2 Z M 28.9,324.8 L 20.0,355.2 L 29.1,351.6 Z" fill="#2a2a4e" stroke="none"/>
  <path d="M 153.7,345.1 L 229.9,345.1 M 225.8,320.4 L 151.7,320.4 M 229.9,345.1 L 291.6,300.9 M 291.6,300.9 L 287.5,276.2 M 287.5,276.2 L 225.8,320.4 M 48.8,278.6 L 38.9,299.5 M 67.7,299.5 L 78.9,273.3 M 197.4,20.0 L 189.8,20.0 M 189.8,20.0 L 105.7,63.2 M 105.7,63.2 L 197.4,20.0 M 79.7,155.8 L 55.0,162.0 M 55.0,162.0 L 55.0,194.9 M 79.7,194.9 L 79.7,155.8 M 112.9,299.6 L 67.7,299.5 M 151.7,320.4 L 112.9,299.6 M 97.7,369.2 L 137.3,373.3 M 44.5,380.0 L 97.7,369.2 M 225.8,249.9 L 197.1,206.8 M 149.6,288.9 L 202.1,292.8 M 112.9,263.2 L 149.6,288.9 M 202.1,292.8 L 225.8,249.9 M 197.1,206.8 L 147.6,207.3 M 31.3,218.7 L 27.4,255.4 M 27.4,255.4 L 48.8,278.6 M 78.9,273.3 L 112.9,263.2 M 147.6,207.3 L 79.7,194.9 M 55.0,194.9 L 31.3,218.7 M 38.9,299.5 L 20.0,319.6 M 137.3,373.3 L 153.7,345.1 M 20.0,355.2 L 44.5,380.0 M 20.0,319.6 L 20.0,355.2" fill="none" stroke="white" stroke-width="2" stroke-linecap="round"/>
  <polygon points="67.54921368799779,185.04536695142406 75.54921368799779,193.04536695142406 67.54921368799779,201.04536695142406 59.54921368799779,193.04536695142406" fill="#4a9eff" stroke="white" stroke-width="1"/>
<polygon points="193.27282559124723,323.62690931503477 201.27282559124723,331.62690931503477 193.27282559124723,339.62690931503477 185.27282559124723,331.62690931503477" fill="#4a9eff" stroke="white" stroke-width="1"/>
</svg>