<svg xmlns="http://www.w3.org/2000/svg" viewBox="0 0 400 400">
  <rect width="400" height="400" fill="#1a1a2e"/>
  <path d="M 46.9,239.5 L 45.5,223.5 L 26.2,233.3 Z M 45.5,223.5 L 36.4,223.3 L 26.2,233.3 Z M 45.8,192.1 L 55.2,190.7 L 35.5,163.4 Z M 45.8,192.1 L 35.5,163.4 L 34.6,181.0 Z M 98.4,259.9 L 105.7,243.4 L 73.6,258.3 Z M 156.4,181.5 L 124.4,186.6 L 144.4,203.2 Z M 39.7,265.4 L 73.6,258.3 L 69.9,247.1 Z M 115.0,201.5 L 124.4,186.6 L 107.1,158.5 Z M 115.0,201.5 L 107.1,158.5 L 87.0,183.2 Z M 87.0,183.2 L 107.1,158.5 L 57.2,149.9 Z M 87.0,183.2 L 57.2,149.9 L 55.2,190.7 Z M 55.2,190.7 L 57.2,149.9 L 50.5,150.2 Z M 55.2,190.7 L 50.5,150.2 L 35.5,163.4 Z M 104.7,234.8 L 82.3,221.9 L 69.9,247.1 Z M 82.3,221.9 L 45.5,223.5 L 69.9,247.1 Z M 69.9,247.1 L 45.5,223.5 L 46.9,239.5 Z M 107.1,158.5 L 124.4,186.6 L 139.6,157.5 Z M 124.4,186.6 L 156.4,181.5 L 139.6,157.5 Z M 69.9,247.1 L 46.9,239.5 L 26.3,252.0 Z M 69.9,247.1 L 26.3,252.0 L 39.7,265.4 Z M 104.7,234.8 L 69.9,247.1 L 73.6,258.3 Z M 104.7,234.8 L 73.6,258.3 L 105.7,243.4 Z M 26.2,233.3 L 26.3,252.0 L 46.9,239.5 Z M 124.4,186.6 L 115.0,201.5 L 144.4,203.2 Z M 149.3,243.4 L 137.1,255.6 L 138.1,257.7 Z M 149.3,243.4 L 138.1,257.7 L 155.4,257.7 Z M 155.4,257.7 L 138.1,257.7 L 138.1,280.6 Z M 155.4,257.7 L 138.1,280.6 L 155.4,280.6 Z M 105.7,243.4 L 113.6,247.5 L 104.7,234.8 Z M 113.6,247.5 L 112.2,229.5 L 104.7,234.8 Z M 50.5,150.2 L 57.2,149.9 L 44.5,142.4 Z M 57.2,149.9 L 61.8,142.4 L 44.5,142.4 Z M 55.2,190.7 L 45.8,192.1 L 61.3,197.3 Z M 45.8,192.1 L 40.2,201.0 L 61.3,197.3 Z M 61.3,197.3 L 40.2,201.0 L 53.4,215.6 Z M 40.2,201.0 L 33.3,215.6 L 53.4,215.6 Z M 53.4,215.6 L 33.3,215.6 L 45.5,223.5 Z M 33.3,215.6 L 36.4,223.3 L 45.5,223.5 Z M 112.2,229.5 L 113.6,247.5 L 149.3,243.4 Z M 113.6,247.5 L 137.1,255.6 L 149.3,243.4 Z M 80.0,50.2 L 144.1,20.0 L 138.8,20.0 Z M 44.5,142.4 L 61.8,142.4 L 61.8,115.0 Z M 44.5,142.4 L 61.8,115.0 L 44.5,119.4 Z M 74.3,380.0 L 197.8,380.0 L 117.7,356.3 Z M 164.0,180.9 L 143.9,150.7 L 139.6,157.5 Z M 164.0,180.9 L 139.6,157.5 L 156.4,181.5 Z M 147.5,210.9 L 144.4,203.2 L 115.0,201.5 Z M 147.5,210.9 L 115.0,201.5 L 110.7,208.2 Z M 110.7,208.2 L 115.0,201.5 L 87.0,183.2 Z M 110.7,208.2 L 87.0,183.2 L 85.0,190.2 Z M 147.5,210.9 L 164.0,180.9 L 156.4,181.5 Z M 147.5,210.9 L 156.4,181.5 L 144.4,203.2 Z M 109.3,151.1 L 107.1,158.5 L 139.6,157.5 Z M 109.3,151.1 L 139.6,157.5 L 143.9,150.7 Z M 34.6,181.0 L 35.5,163.4 L 27.9,159.1 Z M 34.6,181.0 L 27.9,159.1 L 25.2,184.7 Z M 25.2,184.7 L 40.2,201.0 L 45.8,192.1 Z M 25.2,184.7 L 45.8,192.1 L 34.6,181.0 Z M 85.0,190.2 L 87.0,183.2 L 55.2,190.7 Z M 85.0,190.2 L 55.2,190.7 L 61.3,197.3 Z M 57.2,149.9 L 107.1,158.5 L 109.3,151.1 Z M 57.2,149.9 L 109.3,151.1 L 61.8,142.4 Z M 27.9,159.1 L 35.5,163.4 L 50.5,150.2 Z M 27.9,159.1 L 50.5,150.2 L 44.5,142.4 Z M 45.5,223.5 L 82.3,221.9 L 85.0,215.7 Z M 45.5,223.5 L 85.0,215.7 L 53.4,215.6 Z M 33.3,215.6 L 20.0,229.7 L 26.2,233.3 Z M 33.3,215.6 L 26.2,233.3 L 36.4,223.3 Z M 113.6,247.5 L 105.7,243.4 L 98.4,259.9 Z M 113.6,247.5 L 98.4,259.9 L 102.1,267.3 Z M 73.6,258.3 L 74.4,264.4 L 102.1,267.3 Z M 73.6,258.3 L 102.1,267.3 L 98.4,259.9 Z M 26.3,252.0 L 20.0,254.6 L 37.2,271.9 Z M 26.3,252.0 L 37.2,271.9 L 39.7,265.4 Z M 20.0,254.6 L 26.3,252.0 L 26.2,233.3 Z M 20.0,254.6 L 26.2,233.3 L 20.0,229.7 Z M 37.2,271.9 L 74.4,264.4 L 73.6,258.3 Z M 37.2,271.9 L 73.6,258.3 L 39.7,265.4 Z M 112.2,229.5 L 85.0,215.7 L 82.3,221.9 Z M 112.2,229.5 L 82.3,221.9 L 104.7,234.8 Z" fill="#2a2a4e" stroke="none"/>
  <path d="M 137.1,255.6 L 138.1,257.7 M 155.4,257.7 L 149.3,243.4 M 138.1,257.7 L 138.1,280.6 M 138.1,280.6 L 155.4,280.6 M 155.4,280.6 L 155.4,257.7 M 53.4,215.6 L 61.3,197.3 M 40.2,201.0 L 33.3,215.6 M 149.3,243.4 L 112.2,229.5 M 113.6,247.5 L 137.1,255.6 M 80.0,50.2 L 144.1,20.0 M 144.1,20.0 L 138.8,20.0 M 138.8,20.0 L 80.0,50.2 M 61.8,142.4 L 61.8,115.0 M 61.8,115.0 L 44.5,119.4 M 44.5,119.4 L 44.5,142.4 M 74.3,380.0 L 197.8,380.0 M 197.8,380.0 L 117.7,356.3 M 117.7,356.3 L 74.3,380.0 M 164.0,180.9 L 143.9,150.7 M 110.7,208.2 L 147.5,210.9 M 85.0,190.2 L 110.7,208.2 M 147.5,210.9 L 164.0,180.9 M 143.9,150.7 L 109.3,151.1 M 27.9,159.1 L 25.2,184.7 M 25.2,184.7 L 40.2,201.0 M 61.3,197.3 L 85.0,190.2 M 109.3,151.1 L 61.8,142.4 M 44.5,142.4 L 27.9,159.1 M 85.0,215.7 L 53.4,215.6 M 33.3,215.6 L 20.0,229.7 M 102.1,267.3 L 113.6,247.5 M 74.4,264.4 L 102.1,267.3 M 20.0,254.6 L 37.2,271.9 M 20.0,229.7 L 20.0,254.6 M 37.2,271.9 L 74.4,264.4 M 112.2,229.5 L 85.0,215.7" fill="none" stroke="white" stroke-width="2" stroke-linecap="round"/>
  <polygon points="53.26514344847573,132.81000353016594 61.26514344847573,140.81000353016594 53.26514344847573,148.81000353016594 45.26514344847573,140.81000353016594" fill="#4a9eff" stroke="white" stroke-width="1"/>
<polygon points="146.97951343363115,249.66947188698964 154.97951343363115,257.66947188698964 146.97951343363115,265.66947188698964 138.97951343363115,257.66947188698964" fill="#4a9eff" stroke="white" stroke-width="1"/>
</svg>