<svg xmlns="http://www.w3.org/2000/svg" viewBox="0 0 400 400">
  <rect width="400" height="400" fill="#1a1a2e"/>
  <path d="M 177.6,78.1 L 156.6,96.4 L 208.3,113.0 Z M 177.6,78.1 L 208.3,113.0 L 207.6,101.8 Z M 63.9,75.3 L 51.8,75.3 L 36.3,114.5 Z M 63.9,75.3 L 36.3,114.5 L 79.6,117.1 Z M 132.9,219.3 L 125.2,173.6 L 94.9,171.3 Z M 132.9,219.3 L 94.9,171.3 L 95.1,202.8 Z M 132.8,131.0 L 140.2,162.1 L 175.6,173.3 Z M 132.8,131.0 L 175.6,173.3 L 159.6,113.2 Z M 20.2,219.1 L 46.8,248.4 L 79.5,211.0 Z M 20.2,219.1 L 79.5,211.0 L 79.3,179.4 Z M 27.5,162.1 L 20.2,219.1 L 79.3,179.4 Z M 46.8,248.4 L 127.0,235.1 L 79.5,211.0 Z M 189.7,125.7 L 159.6,113.2 L 175.6,173.3 Z M 36.3,114.5 L 42.0,150.8 L 94.9,171.3 Z M 36.3,114.5 L 94.9,171.3 L 79.6,117.1 Z M 79.6,117.1 L 94.9,171.3 L 125.2,173.6 Z M 79.6,117.1 L 125.2,173.6 L 115.1,123.9 Z M 188.5,228.4 L 215.4,196.4 L 186.7,195.7 Z M 215.4,196.4 L 208.3,113.0 L 186.7,195.7 Z M 177.6,78.1 L 101.8,86.6 L 156.6,96.4 Z M 101.8,86.6 L 115.1,123.9 L 156.6,96.4 Z M 125.2,173.6 L 132.9,219.3 L 188.5,228.4 Z M 125.2,173.6 L 188.5,228.4 L 186.7,195.7 Z M 115.1,123.9 L 101.8,86.6 L 63.9,75.3 Z M 115.1,123.9 L 63.9,75.3 L 79.6,117.1 Z M 51.8,75.3 L 63.9,75.3 L 71.3,62.7 Z M 51.8,75.3 L 71.3,62.7 L 43.4,62.7 Z M 43.4,62.7 L 71.3,62.7 L 71.3,20.0 Z M 43.4,62.7 L 71.3,20.0 L 43.4,25.5 Z M 224.5,120.7 L 224.5,92.8 L 207.6,101.8 Z M 224.5,120.7 L 207.6,101.8 L 208.3,113.0 Z M 322.2,80.3 L 312.9,52.5 L 271.0,92.8 Z M 322.2,80.3 L 271.0,92.8 L 280.3,120.7 Z M 271.0,92.8 L 224.5,92.8 L 224.5,120.7 Z M 271.0,92.8 L 224.5,120.7 L 280.3,120.7 Z M 185.0,380.0 L 268.6,285.9 L 201.3,289.1 Z M 185.0,380.0 L 116.5,323.6 L 20.0,312.1 Z M 185.0,380.0 L 201.3,289.1 L 116.5,323.6 Z M 132.9,219.3 L 127.0,235.1 L 195.4,246.2 Z M 132.9,219.3 L 195.4,246.2 L 188.5,228.4 Z M 101.8,86.6 L 102.5,71.3 L 71.3,62.7 Z M 101.8,86.6 L 71.3,62.7 L 63.9,75.3 Z M 94.9,171.3 L 42.0,150.8 L 27.5,162.1 Z M 94.9,171.3 L 27.5,162.1 L 79.3,179.4 Z M 224.5,92.8 L 179.4,62.7 L 177.6,78.1 Z M 224.5,92.8 L 177.6,78.1 L 207.6,101.8 Z M 51.8,75.3 L 43.4,62.7 L 20.2,111.7 Z M 51.8,75.3 L 20.2,111.7 L 36.3,114.5 Z M 177.6,78.1 L 179.4,62.7 L 102.5,71.3 Z M 177.6,78.1 L 102.5,71.3 L 101.8,86.6 Z M 188.5,228.4 L 195.4,246.2 L 234.0,205.1 Z M 188.5,228.4 L 234.0,205.1 L 215.4,196.4 Z M 115.1,123.9 L 132.8,131.0 L 159.6,113.2 Z M 115.1,123.9 L 159.6,113.2 L 156.6,96.4 Z M 140.2,162.1 L 125.2,173.6 L 186.7,195.7 Z M 140.2,162.1 L 186.7,195.7 L 175.6,173.3 Z M 186.7,195.7 L 208.3,113.0 L 189.7,125.7 Z M 186.7,195.7 L 189.7,125.7 L 175.6,173.3 Z M 115.1,123.9 L 125.2,173.6 L 140.2,162.1 Z M 115.1,123.9 L 140.2,162.1 L 132.8,131.0 Z M 79.3,179.4 L 79.5,211.0 L 95.1,202.8 Z M 79.3,179.4 L 95.1,202.8 L 94.9,171.3 Z M 36.3,114.5 L 20.2,111.7 L 27.5,162.1 Z M 36.3,114.5 L 27.5,162.1 L 42.0,150.8 Z M 208.3,113.0 L 215.4,196.4 L 234.0,205.1 Z M 208.3,113.0 L 234.0,205.1 L 224.5,120.7 Z M 132.9,219.3 L 95.1,202.8 L 79.5,211.0 Z M 132.9,219.3 L 79.5,211.0 L 127.0,235.1 Z M 156.6,96.4 L 159.6,113.2 L 189.7,125.7 Z M 156.6,96.4 L 189.7,125.7 L 208.3,113.0 Z" fill="#2a2a4e" stroke="none"/>
  <path d="M 20.2,219.1 L 46.8,248.4 M 27.5,162.1 L 20.2,219.1 M 46.8,248.4 L 127.0,235.1 M 71.3,62.7 L 71.3,20.0 M 71.3,20.0 L 43.4,25.5 M 43.4,25.5 L 43.4,62.7 M 322.2,80.3 L 312.9,52.5 M 312.9,52.5 L 271.0,92.8 M 280.3,120.7 L 322.2,80.3 M 271.0,92.8 L 224.5,92.8 M 224.5,120.7 L 280.3,120.7 M 185.0,380.0 L 268.6,285.9 M 268.6,285.9 L 201.3,289.1 M 116.5,323.6 L 20.0,312.1 M 20.0,312.1 L 185.0,380.0 M 201.3,289.1 L 116.5,323.6 M 127.0,235.1 L 195.4,246.2 M 102.5,71.3 L 71.3,62.7 M 224.5,92.8 L 179.4,62.7 M 43.4,62.7 L 20.2,111.7 M 179.4,62.7 L 102.5,71.3 M 195.4,246.2 L 234.0,205.1 M 20.2,111.7 L 27.5,162.1 M 234.0,205.1 L 224.5,120.7" fill="none" stroke="white" stroke-width="2" stroke-linecap="round"/>
  <polygon points="58.221573396518345,51.131531236117716 66.22157339651835,59.131531236117716 58.221573396518345,67.13153123611772 50.221573396518345,59.131531236117716" fill="#4a9eff" stroke="white" stroke-width="1"/>
<polygon points="229.35578285131487,99.5727397887701 237.35578285131487,107.5727397887701 229.35578285131487,115.5727397887701 221.35578285131487,107.5727397887701" fill="#4a9eff" stroke="white" stroke-width="1"/>
</svg>