<svg xmlns="http://www.w3.org/2000/svg" viewBox="0 0 400 400">
  <rect width="400" height="400" fill="#1a1a2e"/>
  <path d="M 116.6,137.4 L 104.8,137.0 L 91.2,161.8 Z M 116.6,137.4 L 91.2,161.8 L 120.7,159.6 Z M 206.8,227.2 L 217.4,253.6 L 231.9,223.3 Z M 147.8,244.2 L 148.8,249.9 L 208.7,257.6 Z M 147.8,244.2 L 208.7,257.6 L 169.2,227.2 Z M 169.2,227.2 L 208.7,257.6 L 217.4,253.6 Z M 169.2,227.2 L 217.4,253.6 L 206.8,227.2 Z M 124.7,181.9 L 150.9,159.9 L 143.6,144.1 Z M 124.7,181.9 L 143.6,144.1 L 120.7,159.6 Z M 220.6,192.1 L 206.8,227.2 L 231.9,223.3 Z M 220.6,192.1 L 231.9,223.3 L 231.9,191.1 Z M 91.2,161.8 L 124.7,181.9 L 120.7,159.6 Z M 143.6,144.1 L 116.6,137.4 L 120.7,159.6 Z M 204.7,135.3 L 191.3,154.3 L 209.0,175.3 Z M 204.7,135.3 L 209.0,175.3 L 222.9,157.8 Z M 222.9,157.8 L 209.0,175.3 L 214.0,184.2 Z M 222.9,157.8 L 214.0,184.2 L 240.2,177.9 Z M 209.0,175.3 L 144.1,210.7 L 164.5,217.8 Z M 144.1,210.7 L 135.5,239.3 L 164.5,217.8 Z M 94.3,218.2 L 115.2,189.3 L 81.4,165.5 Z M 94.3,218.2 L 81.4,165.5 L 81.4,214.1 Z M 149.9,136.2 L 163.0,160.7 L 191.3,154.3 Z M 149.9,136.2 L 191.3,154.3 L 183.7,127.4 Z M 214.0,184.2 L 209.0,175.3 L 164.5,217.8 Z M 214.0,184.2 L 164.5,217.8 L 200.0,216.7 Z M 191.3,154.3 L 204.7,135.3 L 183.7,127.4 Z M 217.4,253.6 L 208.7,257.6 L 204.1,270.3 Z M 217.4,253.6 L 204.1,270.3 L 225.8,264.5 Z M 225.8,264.5 L 204.1,270.3 L 204.1,306.2 Z M 225.8,264.5 L 204.1,306.2 L 225.8,300.6 Z M 29.0,246.5 L 20.0,268.2 L 99.4,268.2 Z M 29.0,246.5 L 99.4,268.2 L 99.4,246.5 Z M 99.4,246.5 L 99.4,268.2 L 137.3,260.9 Z M 99.4,246.5 L 137.3,260.9 L 135.5,239.3 Z M 104.8,137.0 L 116.6,137.4 L 99.4,127.4 Z M 116.6,137.4 L 121.1,127.4 L 99.4,127.4 Z M 147.8,244.2 L 135.5,239.3 L 148.8,249.9 Z M 135.5,239.3 L 137.3,260.9 L 148.8,249.9 Z M 195.9,372.3 L 208.9,380.0 L 225.8,300.6 Z M 195.9,372.3 L 225.8,300.6 L 204.1,306.2 Z M 99.4,98.5 L 121.1,94.2 L 134.9,27.2 Z M 99.4,98.5 L 134.9,27.2 L 121.4,20.0 Z M 121.1,127.4 L 121.1,94.2 L 99.4,98.5 Z M 121.1,127.4 L 99.4,98.5 L 99.4,127.4 Z M 279.9,177.9 L 279.9,199.6 L 316.0,183.4 Z M 279.9,177.9 L 316.0,183.4 L 316.0,161.7 Z M 243.8,199.6 L 279.9,199.6 L 279.9,177.9 Z M 243.8,199.6 L 279.9,177.9 L 240.2,177.9 Z M 243.8,199.6 L 240.2,177.9 L 231.9,191.1 Z M 121.1,127.4 L 116.6,137.4 L 143.6,144.1 Z M 121.1,127.4 L 143.6,144.1 L 149.9,136.2 Z M 81.4,165.5 L 91.2,161.8 L 104.8,137.0 Z M 81.4,165.5 L 104.8,137.0 L 99.4,127.4 Z M 240.2,177.9 L 214.0,184.2 L 220.6,192.1 Z M 240.2,177.9 L 220.6,192.1 L 231.9,191.1 Z M 200.0,216.7 L 164.5,217.8 L 169.2,227.2 Z M 200.0,216.7 L 169.2,227.2 L 206.8,227.2 Z M 81.4,165.5 L 115.2,189.3 L 124.7,181.9 Z M 81.4,165.5 L 124.7,181.9 L 91.2,161.8 Z M 150.9,159.9 L 163.0,160.7 L 149.9,136.2 Z M 150.9,159.9 L 149.9,136.2 L 143.6,144.1 Z M 133.6,188.4 L 163.0,160.7 L 150.9,159.9 Z M 133.6,188.4 L 150.9,159.9 L 124.7,181.9 Z M 231.9,191.1 L 231.9,223.3 L 242.4,230.4 Z M 231.9,191.1 L 242.4,230.4 L 243.8,199.6 Z M 137.3,260.9 L 204.1,270.3 L 208.7,257.6 Z M 137.3,260.9 L 208.7,257.6 L 148.8,249.9 Z M 135.5,239.3 L 147.8,244.2 L 169.2,227.2 Z M 135.5,239.3 L 169.2,227.2 L 164.5,217.8 Z M 206.8,227.2 L 220.6,192.1 L 214.0,184.2 Z M 206.8,227.2 L 214.0,184.2 L 200.0,216.7 Z M 231.9,223.3 L 217.4,253.6 L 225.8,264.5 Z M 231.9,223.3 L 225.8,264.5 L 242.4,230.4 Z M 124.7,181.9 L 115.2,189.3 L 133.6,188.4 Z" fill="#2a2a4e" stroke="none"/>
  <path d="M 191.3,154.3 L 209.0,175.3 M 222.9,157.8 L 204.7,135.3 M 240.2,177.9 L 222.9,157.8 M 209.0,175.3 L 144.1,210.7 M 144.1,210.7 L 135.5,239.3 M 94.3,218.2 L 115.2,189.3 M 81.4,165.5 L 81.4,214.1 M 81.4,214.1 L 94.3,218.2 M 163.0,160.7 L 191.3,154.3 M 183.7,127.4 L 149.9,136.2 M 204.7,135.3 L 183.7,127.4 M 204.1,270.3 L 204.1,306.2 M 225.8,300.6 L 225.8,264.5 M 29.0,246.5 L 20.0,268.2 M 20.0,268.2 L 99.4,268.2 M 99.4,246.5 L 29.0,246.5 M 99.4,268.2 L 137.3,260.9 M 135.5,239.3 L 99.4,246.5 M 195.9,372.3 L 208.9,380.0 M 208.9,380.0 L 225.8,300.6 M 204.1,306.2 L 195.9,372.3 M 121.1,94.2 L 134.9,27.2 M 134.9,27.2 L 121.4,20.0 M 121.4,20.0 L 99.4,98.5 M 121.1,127.4 L 121.1,94.2 M 99.4,98.5 L 99.4,127.4 M 279.9,199.6 L 316.0,183.4 M 316.0,183.4 L 316.0,161.7 M 316.0,161.7 L 279.9,177.9 M 243.8,199.6 L 279.9,199.6 M 279.9,177.9 L 240.2,177.9 M 149.9,136.2 L 121.1,127.4 M 99.4,127.4 L 81.4,165.5 M 133.6,188.4 L 163.0,160.7 M 242.4,230.4 L 243.8,199.6 M 137.3,260.9 L 204.1,270.3 M 225.8,264.5 L 242.4,230.4 M 115.2,189.3 L 133.6,188.4" fill="none" stroke="white" stroke-width="2" stroke-linecap="round"/>
  <polygon points="64.97050612884512,250.4884808507354 72.97050612884512,258.4884808507354 64.97050612884512,266.4884808507354 56.970506128845116,258.4884808507354" fill="#4a9eff" stroke="white" stroke-width="1"/>
<polygon points="214.86885447632986,268.0692318688084 222.86885447632986,276.0692318688084 214.86885447632986,284.0692318688084 206.86885447632986,276.0692318688084" fill="#4a9eff" stroke="white" stroke-width="1"/>
<polygon points="111.68637730864026,113.99257004526802 119.68637730864026,121.99257004526802 111.68637730864026,129.99257004526802 103.68637730864026,121.99257004526802" fill="#4a9eff" stroke="white" stroke-width="1"/>
<polygon points="246.28239046981213,180.50364128297144 254.28239046981213,188.50364128297144 246.28239046981213,196.50364128297144 238.28239046981213,188.50364128297144" fill="#4a9eff" stroke="white" stroke-width="1"/>
</svg>