<svg xmlns="http://www.w3.org/2000/svg" viewBox="0 0 400 400">
  <rect width="400" height="400" fill="#1a1a2e"/>
  <path d="M 158.1,70.0 L 193.4,67.8 L 202.8,42.2 Z M 158.1,70.0 L 202.8,42.2 L 182.7,32.1 Z M 82.3,41.9 L 82.3,68.2 L 100.8,79.3 Z M 82.3,41.9 L 100.8,79.3 L 90.5,32.1 Z M 109.9,140.2 L 111.7,160.6 L 142.7,159.1 Z M 255.5,153.7 L 224.0,147.1 L 264.8,179.6 Z M 109.9,140.2 L 95.4,141.6 L 85.1,172.6 Z M 109.9,140.2 L 85.1,172.6 L 111.7,160.6 Z M 111.7,160.6 L 85.1,172.6 L 105.5,193.2 Z M 111.7,160.6 L 105.5,193.2 L 121.7,193.2 Z M 203.4,183.8 L 221.5,213.5 L 250.5,209.4 Z M 203.4,183.8 L 250.5,209.4 L 202.6,170.1 Z M 202.6,170.1 L 250.5,209.4 L 264.8,179.6 Z M 202.6,170.1 L 264.8,179.6 L 224.0,147.1 Z M 182.7,32.1 L 136.6,32.1 L 158.1,70.0 Z M 136.6,32.1 L 120.5,79.6 L 158.1,70.0 Z M 142.2,174.1 L 142.7,159.1 L 111.7,160.6 Z M 142.2,174.1 L 111.7,160.6 L 121.7,193.2 Z M 136.6,32.1 L 90.5,32.1 L 100.8,79.3 Z M 136.6,32.1 L 100.8,79.3 L 120.5,79.6 Z M 113.6,129.4 L 88.9,129.4 L 109.9,140.2 Z M 88.9,129.4 L 95.4,141.6 L 109.9,140.2 Z M 101.3,205.3 L 125.9,205.3 L 105.5,193.2 Z M 125.9,205.3 L 121.7,193.2 L 105.5,193.2 Z M 142.7,159.1 L 142.2,174.1 L 155.1,153.7 Z M 142.2,174.1 L 155.1,178.4 L 155.1,153.7 Z M 120.5,79.6 L 100.8,79.3 L 121.8,92.2 Z M 100.8,79.3 L 97.1,92.2 L 121.8,92.2 Z M 203.4,183.8 L 202.6,170.1 L 191.1,188.7 Z M 202.6,170.1 L 191.1,164.0 L 191.1,188.7 Z M 267.2,380.0 L 162.5,326.6 L 147.4,337.8 Z M 267.2,380.0 L 147.4,337.8 L 238.1,380.0 Z M 191.1,188.7 L 191.1,164.0 L 155.1,153.7 Z M 191.1,188.7 L 155.1,153.7 L 155.1,178.4 Z M 88.9,129.4 L 113.6,129.4 L 121.8,92.2 Z M 88.9,129.4 L 121.8,92.2 L 97.1,92.2 Z M 101.3,244.6 L 125.9,248.7 L 125.9,205.3 Z M 101.3,244.6 L 125.9,205.3 L 101.3,205.3 Z M 20.0,380.0 L 238.1,380.0 L 147.4,337.8 Z M 142.7,159.1 L 155.1,153.7 L 113.6,129.4 Z M 142.7,159.1 L 113.6,129.4 L 109.9,140.2 Z M 142.2,174.1 L 121.7,193.2 L 125.9,205.3 Z M 142.2,174.1 L 125.9,205.3 L 155.1,178.4 Z M 88.9,129.4 L 70.7,174.8 L 85.1,172.6 Z M 88.9,129.4 L 85.1,172.6 L 95.4,141.6 Z M 70.7,174.8 L 101.3,205.3 L 105.5,193.2 Z M 70.7,174.8 L 105.5,193.2 L 85.1,172.6 Z M 203.2,77.2 L 217.2,37.6 L 202.8,42.2 Z M 203.2,77.2 L 202.8,42.2 L 193.4,67.8 Z M 163.8,79.3 L 158.1,70.0 L 120.5,79.6 Z M 163.8,79.3 L 120.5,79.6 L 121.8,92.2 Z M 100.8,79.3 L 82.3,68.2 L 70.5,75.0 Z M 100.8,79.3 L 70.5,75.0 L 97.1,92.2 Z M 182.7,32.1 L 202.8,42.2 L 217.2,37.6 Z M 182.7,32.1 L 217.2,37.6 L 189.3,20.0 Z M 189.3,20.0 L 137.0,20.0 L 136.6,32.1 Z M 189.3,20.0 L 136.6,32.1 L 182.7,32.1 Z M 84.6,20.0 L 70.5,36.5 L 82.3,41.9 Z M 84.6,20.0 L 82.3,41.9 L 90.5,32.1 Z M 70.5,36.5 L 70.5,75.0 L 82.3,68.2 Z M 70.5,36.5 L 82.3,68.2 L 82.3,41.9 Z M 264.6,144.3 L 220.4,135.8 L 224.0,147.1 Z M 264.6,144.3 L 224.0,147.1 L 255.5,153.7 Z M 264.8,179.6 L 277.1,181.0 L 264.6,144.3 Z M 264.8,179.6 L 264.6,144.3 L 255.5,153.7 Z M 202.6,170.1 L 224.0,147.1 L 220.4,135.8 Z M 202.6,170.1 L 220.4,135.8 L 191.1,164.0 Z M 191.1,188.7 L 214.8,225.6 L 221.5,213.5 Z M 191.1,188.7 L 221.5,213.5 L 203.4,183.8 Z M 214.8,225.6 L 259.3,220.4 L 250.5,209.4 Z M 214.8,225.6 L 250.5,209.4 L 221.5,213.5 Z M 264.8,179.6 L 250.5,209.4 L 259.3,220.4 Z M 264.8,179.6 L 259.3,220.4 L 277.1,181.0 Z M 203.2,77.2 L 193.4,67.8 L 158.1,70.0 Z M 203.2,77.2 L 158.1,70.0 L 163.8,79.3 Z M 84.6,20.0 L 90.5,32.1 L 136.6,32.1 Z M 84.6,20.0 L 136.6,32.1 L 137.0,20.0 Z" fill="#2a2a4e" stroke="none"/>
  <path d="M 267.2,380.0 L 162.5,326.6 M 162.5,326.6 L 147.4,337.8 M 238.1,380.0 L 267.2,380.0 M 191.1,164.0 L 155.1,153.7 M 155.1,178.4 L 191.1,188.7 M 113.6,129.4 L 121.8,92.2 M 97.1,92.2 L 88.9,129.4 M 101.3,244.6 L 125.9,248.7 M 125.9,248.7 L 125.9,205.3 M 101.3,205.3 L 101.3,244.6 M 20.0,380.0 L 238.1,380.0 M 147.4,337.8 L 20.0,380.0 M 155.1,153.7 L 113.6,129.4 M 125.9,205.3 L 155.1,178.4 M 88.9,129.4 L 70.7,174.8 M 70.7,174.8 L 101.3,205.3 M 203.2,77.2 L 217.2,37.6 M 121.8,92.2 L 163.8,79.3 M 70.5,75.0 L 97.1,92.2 M 217.2,37.6 L 189.3,20.0 M 189.3,20.0 L 137.0,20.0 M 84.6,20.0 L 70.5,36.5 M 70.5,36.5 L 70.5,75.0 M 264.6,144.3 L 220.4,135.8 M 277.1,181.0 L 264.6,144.3 M 220.4,135.8 L 191.1,164.0 M 191.1,188.7 L 214.8,225.6 M 214.8,225.6 L 259.3,220.4 M 259.3,220.4 L 277.1,181.0 M 163.8,79.3 L 203.2,77.2 M 137.0,20.0 L 84.6,20.0" fill="none" stroke="white" stroke-width="2" stroke-linecap="round"/>
  <polygon points="112.9910489048481,202.43824807119904 120.9910489048481,210.43824807119904 112.9910489048481,218.43824807119904 104.9910489048481,210.43824807119904" fill="#4a9eff" stroke="white" stroke-width="1"/>
</svg>