<svg xmlns="http://www.w3.org/2000/svg" viewBox="0 0 400 400">
  <rect width="400" height="400" fill="#1a1a2e"/>
  <path d="M 224.4,177.3 L 237.9,223.6 L 245.6,187.7 Z M 237.9,223.6 L 245.6,214.4 L 245.6,187.7 Z M 132.9,178.2 L 105.2,177.3 L 114.0,203.3 Z M 105.2,177.3 L 93.1,203.4 L 114.0,203.3 Z M 206.2,125.8 L 212.0,98.7 L 185.0,104.2 Z M 91.3,105.7 L 106.5,105.7 L 77.1,82.9 Z M 229.2,92.2 L 220.4,70.9 L 211.2,70.7 Z M 229.2,92.2 L 211.2,70.7 L 212.0,98.7 Z M 212.0,98.7 L 211.2,70.7 L 185.5,90.1 Z M 212.0,98.7 L 185.5,90.1 L 185.0,104.2 Z M 174.4,198.0 L 173.0,214.1 L 184.0,223.6 Z M 174.4,198.0 L 184.0,223.6 L 205.9,177.0 Z M 205.9,177.0 L 184.0,223.6 L 237.9,223.6 Z M 205.9,177.0 L 237.9,223.6 L 224.4,177.3 Z M 132.9,178.2 L 125.9,158.5 L 95.8,151.0 Z M 132.9,178.2 L 95.8,151.0 L 105.2,177.3 Z M 105.2,177.3 L 95.8,151.0 L 83.3,153.0 Z M 105.2,177.3 L 83.3,153.0 L 75.2,183.6 Z M 131.8,76.8 L 114.9,53.1 L 87.6,57.0 Z M 131.8,76.8 L 87.6,57.0 L 132.6,93.9 Z M 132.6,93.9 L 87.6,57.0 L 77.1,82.9 Z M 132.6,93.9 L 77.1,82.9 L 106.5,105.7 Z M 229.1,104.0 L 212.0,98.7 L 206.2,125.8 Z M 229.1,104.0 L 206.2,125.8 L 219.8,124.6 Z M 229.2,92.2 L 212.0,98.7 L 229.1,104.0 Z M 105.2,177.3 L 75.2,183.6 L 93.1,203.4 Z M 219.8,124.6 L 206.2,125.8 L 225.9,136.0 Z M 206.2,125.8 L 202.7,136.0 L 225.9,136.0 Z M 211.2,70.7 L 220.4,70.9 L 204.7,60.8 Z M 220.4,70.9 L 227.9,60.8 L 204.7,60.8 Z M 173.4,86.1 L 173.4,109.3 L 185.5,90.1 Z M 173.4,109.3 L 185.0,104.2 L 185.5,90.1 Z M 227.9,165.2 L 204.7,165.2 L 224.4,177.3 Z M 204.7,165.2 L 205.9,177.0 L 224.4,177.3 Z M 83.3,153.0 L 95.8,151.0 L 77.0,143.0 Z M 95.8,151.0 L 100.2,143.0 L 77.0,143.0 Z M 106.5,105.7 L 91.3,105.7 L 109.9,116.3 Z M 91.3,105.7 L 86.7,116.3 L 109.9,116.3 Z M 143.4,99.6 L 143.4,76.4 L 132.6,93.9 Z M 143.4,76.4 L 131.8,76.8 L 132.6,93.9 Z M 229.2,92.2 L 229.1,104.0 L 239.5,86.1 Z M 229.1,104.0 L 239.5,109.3 L 239.5,86.1 Z M 173.4,109.3 L 173.4,86.1 L 143.4,76.4 Z M 173.4,109.3 L 143.4,76.4 L 143.4,99.6 Z M 100.2,143.0 L 109.9,116.3 L 86.7,116.3 Z M 100.2,143.0 L 86.7,116.3 L 77.0,143.0 Z M 204.7,165.2 L 227.9,165.2 L 225.9,136.0 Z M 204.7,165.2 L 225.9,136.0 L 202.7,136.0 Z M 204.7,60.8 L 227.9,60.8 L 227.9,23.9 Z M 204.7,60.8 L 227.9,23.9 L 204.7,20.0 Z M 239.5,86.1 L 239.5,109.3 L 302.3,109.3 Z M 239.5,86.1 L 302.3,109.3 L 302.3,86.1 Z M 20.0,380.0 L 123.7,330.0 L 87.1,267.5 Z M 202.7,136.0 L 206.2,125.8 L 185.0,104.2 Z M 202.7,136.0 L 185.0,104.2 L 173.4,109.3 Z M 204.7,60.8 L 173.4,86.1 L 185.5,90.1 Z M 204.7,60.8 L 185.5,90.1 L 211.2,70.7 Z M 220.4,70.9 L 229.2,92.2 L 239.5,86.1 Z M 220.4,70.9 L 239.5,86.1 L 227.9,60.8 Z M 173.0,214.1 L 174.4,198.0 L 162.3,192.4 Z M 173.0,214.1 L 162.3,192.4 L 162.3,219.5 Z M 162.3,192.4 L 174.4,198.0 L 205.9,177.0 Z M 162.3,192.4 L 205.9,177.0 L 204.7,165.2 Z M 256.7,181.3 L 227.9,165.2 L 224.4,177.3 Z M 256.7,181.3 L 224.4,177.3 L 245.6,187.7 Z M 162.3,219.5 L 177.7,235.0 L 184.0,223.6 Z M 162.3,219.5 L 184.0,223.6 L 173.0,214.1 Z M 177.7,235.0 L 243.5,235.0 L 237.9,223.6 Z M 177.7,235.0 L 237.9,223.6 L 184.0,223.6 Z M 245.6,214.4 L 237.9,223.6 L 243.5,235.0 Z M 245.6,214.4 L 243.5,235.0 L 256.7,219.5 Z M 245.6,187.7 L 245.6,214.4 L 256.7,219.5 Z M 245.6,187.7 L 256.7,219.5 L 256.7,181.3 Z M 77.0,143.0 L 65.5,184.6 L 75.2,183.6 Z M 77.0,143.0 L 75.2,183.6 L 83.3,153.0 Z M 88.6,211.8 L 93.1,203.4 L 75.2,183.6 Z M 88.6,211.8 L 75.2,183.6 L 65.5,184.6 Z M 143.9,179.5 L 132.9,178.2 L 114.0,203.3 Z M 143.9,179.5 L 114.0,203.3 L 118.0,212.5 Z M 125.9,158.5 L 132.9,178.2 L 143.9,179.5 Z M 125.9,158.5 L 143.9,179.5 L 136.2,152.3 Z M 86.7,116.3 L 91.3,105.7 L 77.1,82.9 Z M 86.7,116.3 L 77.1,82.9 L 65.9,83.7 Z M 109.9,116.3 L 143.4,99.6 L 132.6,93.9 Z M 109.9,116.3 L 132.6,93.9 L 106.5,105.7 Z M 114.9,53.1 L 131.8,76.8 L 143.4,76.4 Z M 114.9,53.1 L 143.4,76.4 L 121.1,41.7 Z M 87.6,57.0 L 114.9,53.1 L 121.1,41.7 Z M 87.6,57.0 L 121.1,41.7 L 79.3,46.6 Z M 79.3,46.6 L 65.9,83.7 L 77.1,82.9 Z M 79.3,46.6 L 77.1,82.9 L 87.6,57.0 Z M 136.2,152.3 L 100.2,143.0 L 95.8,151.0 Z M 136.2,152.3 L 95.8,151.0 L 125.9,158.5 Z M 114.0,203.3 L 93.1,203.4 L 88.6,211.8 Z M 114.0,203.3 L 88.6,211.8 L 118.0,212.5 Z M 229.1,104.0 L 219.8,124.6 L 225.9,136.0 Z M 229.1,104.0 L 225.9,136.0 L 239.5,109.3 Z" fill="#2a2a4e" stroke="none"/>
  <path d="M 173.4,86.1 L 143.4,76.4 M 143.4,99.6 L 173.4,109.3 M 100.2,143.0 L 109.9,116.3 M 86.7,116.3 L 77.0,143.0 M 227.9,165.2 L 225.9,136.0 M 202.7,136.0 L 204.7,165.2 M 227.9,60.8 L 227.9,23.9 M 227.9,23.9 L 204.7,20.0 M 204.7,20.0 L 204.7,60.8 M 239.5,109.3 L 302.3,109.3 M 302.3,109.3 L 302.3,86.1 M 302.3,86.1 L 239.5,86.1 M 20.0,380.0 L 123.7,330.0 M 123.7,330.0 L 87.1,267.5 M 87.1,267.5 L 20.0,380.0 M 173.4,109.3 L 202.7,136.0 M 204.7,60.8 L 173.4,86.1 M 239.5,86.1 L 227.9,60.8 M 162.3,192.4 L 162.3,219.5 M 204.7,165.2 L 162.3,192.4 M 256.7,181.3 L 227.9,165.2 M 162.3,219.5 L 177.7,235.0 M 177.7,235.0 L 243.5,235.0 M 243.5,235.0 L 256.7,219.5 M 256.7,219.5 L 256.7,181.3 M 77.0,143.0 L 65.5,184.6 M 65.5,184.6 L 88.6,211.8 M 118.0,212.5 L 143.9,179.5 M 143.9,179.5 L 136.2,152.3 M 65.9,83.7 L 86.7,116.3 M 109.9,116.3 L 143.4,99.6 M 143.4,76.4 L 121.1,41.7 M 121.1,41.7 L 79.3,46.6 M 79.3,46.6 L 65.9,83.7 M 136.2,152.3 L 100.2,143.0 M 88.6,211.8 L 118.0,212.5 M 225.9,136.0 L 239.5,109.3" fill="none" stroke="white" stroke-width="2" stroke-linecap="round"/>
  <polygon points="216.2949546454931,47.11585885725096 224.2949546454931,55.11585885725096 216.2949546454931,63.11585885725096 208.2949546454931,55.11585885725096" fill="#4a9eff" stroke="white" stroke-width="1"/>
<polygon points="247.47269845318027,90.77799469499017 255.47269845318027,98.77799469499017 247.47269845318027,106.77799469499017 239.47269845318027,98.77799469499017" fill="#4a9eff" stroke="white" stroke-width="1"/>
</svg>