<svg xmlns="http://www.w3.org/2000/svg" viewBox="0 0 400 400">
  <rect width="400" height="400" fill="#1a1a2e"/>
  <path d="M 122.0,62.0 L 128.1,100.0 L 169.9,48.4 Z M 128.1,100.0 L 176.7,83.9 L 169.9,48.4 Z M 304.1,297.8 L 323.8,244.1 L 258.8,180.2 Z M 304.1,297.8 L 258.8,180.2 L 281.4,296.9 Z M 281.4,296.9 L 258.8,180.2 L 215.5,253.6 Z M 281.4,296.9 L 215.5,253.6 L 229.4,284.0 Z M 38.3,157.1 L 100.8,153.4 L 128.1,100.0 Z M 38.3,157.1 L 128.1,100.0 L 39.7,111.9 Z M 39.7,111.9 L 128.1,100.0 L 122.0,62.0 Z M 39.7,111.9 L 122.0,62.0 L 80.2,59.6 Z M 304.1,297.8 L 281.4,296.9 L 272.8,316.2 Z M 304.1,297.8 L 272.8,316.2 L 314.4,316.2 Z M 314.4,316.2 L 272.8,316.2 L 272.8,380.0 Z M 314.4,316.2 L 272.8,380.0 L 314.4,371.8 Z M 198.0,97.1 L 141.9,115.7 L 115.3,172.6 Z M 198.0,97.1 L 115.3,172.6 L 154.9,188.3 Z M 154.9,188.3 L 115.3,172.6 L 20.0,178.8 Z M 154.9,188.3 L 20.0,178.8 L 103.7,224.1 Z M 103.7,224.1 L 20.0,178.8 L 47.6,245.8 Z M 103.7,224.1 L 47.6,245.8 L 77.0,257.7 Z M 343.3,111.3 L 313.9,103.3 L 273.6,165.8 Z M 343.3,111.3 L 273.6,165.8 L 340.4,167.6 Z M 198.0,97.1 L 248.6,66.8 L 244.6,40.2 Z M 198.0,97.1 L 244.6,40.2 L 188.7,20.0 Z M 137.7,264.4 L 152.3,316.2 L 217.4,299.3 Z M 137.7,264.4 L 217.4,299.3 L 192.2,252.1 Z M 77.0,257.7 L 111.9,300.9 L 137.7,264.4 Z M 77.0,257.7 L 137.7,264.4 L 103.7,224.1 Z M 137.7,264.4 L 111.9,300.9 L 152.3,316.2 Z M 273.6,165.8 L 347.4,242.9 L 340.4,167.6 Z M 71.5,38.5 L 80.2,59.6 L 122.0,62.0 Z M 71.5,38.5 L 122.0,62.0 L 124.5,41.4 Z M 229.4,284.0 L 217.4,299.3 L 272.8,316.2 Z M 229.4,284.0 L 272.8,316.2 L 281.4,296.9 Z M 304.1,297.8 L 314.4,316.2 L 347.4,242.9 Z M 304.1,297.8 L 347.4,242.9 L 323.8,244.1 Z M 38.3,157.1 L 20.0,178.8 L 115.3,172.6 Z M 38.3,157.1 L 115.3,172.6 L 100.8,153.4 Z M 128.1,100.0 L 100.8,153.4 L 115.3,172.6 Z M 128.1,100.0 L 115.3,172.6 L 141.9,115.7 Z M 258.8,180.2 L 323.8,244.1 L 347.4,242.9 Z M 258.8,180.2 L 347.4,242.9 L 273.6,165.8 Z M 217.4,299.3 L 229.4,284.0 L 215.5,253.6 Z M 217.4,299.3 L 215.5,253.6 L 192.2,252.1 Z M 215.5,253.6 L 258.8,180.2 L 241.7,167.6 Z M 215.5,253.6 L 241.7,167.6 L 192.2,252.1 Z M 198.0,97.1 L 188.7,20.0 L 169.9,48.4 Z M 198.0,97.1 L 169.9,48.4 L 176.7,83.9 Z M 22.6,103.4 L 39.7,111.9 L 80.2,59.6 Z M 22.6,103.4 L 80.2,59.6 L 71.5,38.5 Z M 20.0,178.8 L 38.3,157.1 L 39.7,111.9 Z M 20.0,178.8 L 39.7,111.9 L 22.6,103.4 Z M 122.0,62.0 L 169.9,48.4 L 188.7,20.0 Z M 122.0,62.0 L 188.7,20.0 L 124.5,41.4 Z M 128.1,100.0 L 141.9,115.7 L 198.0,97.1 Z M 128.1,100.0 L 198.0,97.1 L 176.7,83.9 Z M 258.8,180.2 L 273.6,165.8 L 241.7,167.6 Z" fill="#2a2a4e" stroke="none"/>
  <path d="M 272.8,316.2 L 272.8,380.0 M 272.8,380.0 L 314.4,371.8 M 314.4,371.8 L 314.4,316.2 M 154.9,188.3 L 198.0,97.1 M 103.7,224.1 L 154.9,188.3 M 20.0,178.8 L 47.6,245.8 M 47.6,245.8 L 77.0,257.7 M 343.3,111.3 L 313.9,103.3 M 313.9,103.3 L 273.6,165.8 M 340.4,167.6 L 343.3,111.3 M 198.0,97.1 L 248.6,66.8 M 248.6,66.8 L 244.6,40.2 M 244.6,40.2 L 188.7,20.0 M 152.3,316.2 L 217.4,299.3 M 192.2,252.1 L 137.7,264.4 M 77.0,257.7 L 111.9,300.9 M 137.7,264.4 L 103.7,224.1 M 111.9,300.9 L 152.3,316.2 M 347.4,242.9 L 340.4,167.6 M 124.5,41.4 L 71.5,38.5 M 217.4,299.3 L 272.8,316.2 M 314.4,316.2 L 347.4,242.9 M 241.7,167.6 L 192.2,252.1 M 71.5,38.5 L 22.6,103.4 M 22.6,103.4 L 20.0,178.8 M 188.7,20.0 L 124.5,41.4 M 273.6,165.8 L 241.7,167.6" fill="none" stroke="white" stroke-width="2" stroke-linecap="round"/>
  <polygon points="292.99284695631053,310.5208748692296 300.99284695631053,318.5208748692296 292.99284695631053,326.5208748692296 284.99284695631053,318.5208748692296" fill="#4a9eff" stroke="white" stroke-width="1"/>
</svg>