<svg xmlns="http://www.w3.org/2000/svg" viewBox="0 0 400 400">
  <rect width="400" height="400" fill="#1a1a2e"/>
  <path d="M 228.2,58.2 L 220.9,81.2 L 242.4,76.9 Z M 228.2,58.2 L 242.4,76.9 L 254.3,58.4 Z M 114.7,152.3 L 139.1,146.0 L 132.1,121.7 Z M 114.7,152.3 L 132.1,121.7 L 114.7,143.5 Z M 276.5,182.4 L 274.2,154.4 L 247.1,171.6 Z M 244.5,32.1 L 191.2,32.1 L 201.9,51.8 Z M 140.6,209.9 L 160.8,190.4 L 132.9,187.6 Z M 123.9,208.5 L 140.6,209.9 L 132.9,187.6 Z M 123.9,208.5 L 132.9,187.6 L 113.2,197.6 Z M 113.2,197.6 L 132.9,187.6 L 139.1,146.0 Z M 113.2,197.6 L 139.1,146.0 L 114.7,152.3 Z M 265.8,193.3 L 276.5,182.4 L 247.1,171.6 Z M 265.8,193.3 L 247.1,171.6 L 257.6,194.0 Z M 257.6,194.0 L 247.1,171.6 L 215.9,170.1 Z M 257.6,194.0 L 215.9,170.1 L 225.5,187.8 Z M 274.2,154.4 L 257.3,135.6 L 247.1,171.6 Z M 257.3,135.6 L 241.8,133.8 L 247.1,171.6 Z M 244.5,32.1 L 228.2,58.2 L 254.3,58.4 Z M 244.5,32.1 L 254.3,58.4 L 255.0,48.6 Z M 179.6,42.2 L 181.1,59.3 L 201.9,51.8 Z M 179.6,42.2 L 201.9,51.8 L 191.2,32.1 Z M 161.5,144.9 L 146.1,120.6 L 132.1,121.7 Z M 161.5,144.9 L 132.1,121.7 L 139.1,146.0 Z M 201.9,51.8 L 206.6,81.8 L 220.9,81.2 Z M 201.9,51.8 L 220.9,81.2 L 228.2,58.2 Z M 139.1,146.0 L 132.9,187.6 L 160.8,190.4 Z M 139.1,146.0 L 160.8,190.4 L 161.4,157.0 Z M 247.1,171.6 L 241.8,133.8 L 227.2,133.7 Z M 247.1,171.6 L 227.2,133.7 L 215.8,155.7 Z M 139.1,146.0 L 161.4,157.0 L 161.5,144.9 Z M 215.9,170.1 L 247.1,171.6 L 215.8,155.7 Z M 181.1,59.3 L 206.6,81.8 L 201.9,51.8 Z M 244.5,32.1 L 201.9,51.8 L 228.2,58.2 Z M 250.4,252.5 L 275.1,248.3 L 275.1,205.1 Z M 250.4,252.5 L 275.1,205.1 L 250.4,205.1 Z M 250.4,205.1 L 275.1,205.1 L 265.8,193.3 Z M 250.4,205.1 L 265.8,193.3 L 257.6,194.0 Z M 20.0,122.9 L 20.0,147.5 L 59.9,159.9 Z M 20.0,122.9 L 59.9,159.9 L 59.9,135.2 Z M 59.9,135.2 L 59.9,159.9 L 102.3,159.9 Z M 59.9,135.2 L 102.3,159.9 L 102.3,135.2 Z M 102.3,135.2 L 102.3,159.9 L 114.7,152.3 Z M 102.3,135.2 L 114.7,152.3 L 114.7,143.5 Z M 334.9,65.3 L 322.5,40.6 L 266.9,40.6 Z M 334.9,65.3 L 266.9,40.6 L 266.9,65.3 Z M 266.9,65.3 L 266.9,40.6 L 255.0,48.6 Z M 266.9,65.3 L 255.0,48.6 L 254.3,58.4 Z M 161.4,157.0 L 174.3,164.0 L 161.5,144.9 Z M 174.3,164.0 L 174.3,139.3 L 161.5,144.9 Z M 246.3,122.9 L 221.6,122.9 L 241.8,133.8 Z M 221.6,122.9 L 227.2,133.7 L 241.8,133.8 Z M 215.8,155.7 L 205.1,149.6 L 215.9,170.1 Z M 205.1,149.6 L 205.1,174.3 L 215.9,170.1 Z M 220.9,81.2 L 206.6,81.8 L 225.7,94.1 Z M 206.6,81.8 L 201.0,94.1 L 225.7,94.1 Z M 205.1,149.6 L 174.3,139.3 L 174.3,164.0 Z M 205.1,149.6 L 174.3,164.0 L 205.1,174.3 Z M 246.3,122.9 L 225.7,94.1 L 201.0,94.1 Z M 246.3,122.9 L 201.0,94.1 L 221.6,122.9 Z M 159.3,380.0 L 335.8,380.0 L 221.3,346.2 Z M 205.1,174.3 L 215.4,199.0 L 225.5,187.8 Z M 205.1,174.3 L 225.5,187.8 L 215.9,170.1 Z M 114.7,152.3 L 102.3,159.9 L 100.2,205.1 Z M 114.7,152.3 L 100.2,205.1 L 113.2,197.6 Z M 168.1,65.3 L 181.1,59.3 L 179.6,42.2 Z M 168.1,65.3 L 179.6,42.2 L 168.1,36.5 Z M 146.1,120.6 L 161.5,144.9 L 174.3,139.3 Z M 146.1,120.6 L 174.3,139.3 L 151.7,108.5 Z M 100.2,205.1 L 116.7,221.6 L 123.9,208.5 Z M 100.2,205.1 L 123.9,208.5 L 113.2,197.6 Z M 160.8,190.4 L 174.3,196.9 L 174.3,164.0 Z M 160.8,190.4 L 174.3,164.0 L 161.4,157.0 Z M 140.6,209.9 L 147.5,223.7 L 174.3,196.9 Z M 140.6,209.9 L 174.3,196.9 L 160.8,190.4 Z M 146.1,120.6 L 151.7,108.5 L 124.6,110.5 Z M 146.1,120.6 L 124.6,110.5 L 132.1,121.7 Z M 114.7,143.5 L 132.1,121.7 L 124.6,110.5 Z M 114.7,143.5 L 124.6,110.5 L 102.3,135.2 Z M 123.9,208.5 L 116.7,221.6 L 147.5,223.7 Z M 123.9,208.5 L 147.5,223.7 L 140.6,209.9 Z M 287.4,188.7 L 287.4,149.6 L 274.2,154.4 Z M 287.4,188.7 L 274.2,154.4 L 276.5,182.4 Z M 287.4,149.6 L 260.7,122.9 L 257.3,135.6 Z M 287.4,149.6 L 257.3,135.6 L 274.2,154.4 Z M 257.3,135.6 L 260.7,122.9 L 246.3,122.9 Z M 257.3,135.6 L 246.3,122.9 L 241.8,133.8 Z M 227.2,133.7 L 221.6,122.9 L 205.1,149.6 Z M 227.2,133.7 L 205.1,149.6 L 215.8,155.7 Z M 215.4,199.0 L 250.4,205.1 L 257.6,194.0 Z M 215.4,199.0 L 257.6,194.0 L 225.5,187.8 Z M 265.8,193.3 L 275.1,205.1 L 287.4,188.7 Z M 265.8,193.3 L 287.4,188.7 L 276.5,182.4 Z M 206.6,81.8 L 181.1,59.3 L 168.1,65.3 Z M 206.6,81.8 L 168.1,65.3 L 201.0,94.1 Z M 242.4,76.9 L 250.4,87.9 L 266.9,65.3 Z M 242.4,76.9 L 266.9,65.3 L 254.3,58.4 Z M 191.2,32.1 L 184.6,20.0 L 168.1,36.5 Z M 191.2,32.1 L 168.1,36.5 L 179.6,42.2 Z M 244.5,32.1 L 250.4,20.0 L 184.6,20.0 Z M 244.5,32.1 L 184.6,20.0 L 191.2,32.1 Z M 250.4,20.0 L 244.5,32.1 L 255.0,48.6 Z M 250.4,20.0 L 255.0,48.6 L 266.9,40.6 Z M 220.9,81.2 L 225.7,94.1 L 250.4,87.9 Z M 220.9,81.2 L 250.4,87.9 L 242.4,76.9 Z" fill="#2a2a4e" stroke="none"/>
  <path d="M 250.4,252.5 L 275.1,248.3 M 275.1,248.3 L 275.1,205.1 M 250.4,205.1 L 250.4,252.5 M 20.0,122.9 L 20.0,147.5 M 20.0,147.5 L 59.9,159.9 M 59.9,135.2 L 20.0,122.9 M 59.9,159.9 L 102.3,159.9 M 102.3,135.2 L 59.9,135.2 M 334.9,65.3 L 322.5,40.6 M 322.5,40.6 L 266.9,40.6 M 266.9,65.3 L 334.9,65.3 M 205.1,149.6 L 174.3,139.3 M 174.3,164.0 L 205.1,174.3 M 246.3,122.9 L 225.7,94.1 M 201.0,94.1 L 221.6,122.9 M 159.3,380.0 L 335.8,380.0 M 335.8,380.0 L 221.3,346.2 M 221.3,346.2 L 159.3,380.0 M 205.1,174.3 L 215.4,199.0 M 102.3,159.9 L 100.2,205.1 M 168.1,36.5 L 168.1,65.3 M 174.3,139.3 L 151.7,108.5 M 100.2,205.1 L 116.7,221.6 M 174.3,196.9 L 174.3,164.0 M 147.5,223.7 L 174.3,196.9 M 151.7,108.5 L 124.6,110.5 M 124.6,110.5 L 102.3,135.2 M 116.7,221.6 L 147.5,223.7 M 287.4,188.7 L 287.4,149.6 M 287.4,149.6 L 260.7,122.9 M 260.7,122.9 L 246.3,122.9 M 221.6,122.9 L 205.1,149.6 M 215.4,199.0 L 250.4,205.1 M 275.1,205.1 L 287.4,188.7 M 168.1,65.3 L 201.0,94.1 M 250.4,87.9 L 266.9,65.3 M 184.6,20.0 L 168.1,36.5 M 250.4,20.0 L 184.6,20.0 M 266.9,40.6 L 250.4,20.0 M 225.7,94.1 L 250.4,87.9" fill="none" stroke="white" stroke-width="2" stroke-linecap="round"/>
  <polygon points="262.5078030639032,198.88955285118348 270.5078030639032,206.88955285118348 262.5078030639032,214.88955285118348 254.50780306390322,206.88955285118348" fill="#4a9eff" stroke="white" stroke-width="1"/>
<polygon points="287.8664549162296,45.16657431368088 295.8664549162296,53.16657431368088 287.8664549162296,61.16657431368088 279.8664549162296,53.16657431368088" fill="#4a9eff" stroke="white" stroke-width="1"/>
<polygon points="91.3000492721288,139.4201380168119 99.3000492721288,147.4201380168119 91.3000492721288,155.4201380168119 83.3000492721288,147.4201380168119" fill="#4a9eff" stroke="white" stroke-width="1"/>
</svg>