<svg xmlns="http://www.w3.org/2000/svg" viewBox="0 0 400 400">
  <rect width="400" height="400" fill="#1a1a2e"/>
  <path d="M 90.6,165.7 L 86.0,130.4 L 59.9,172.7 Z M 86.0,130.4 L 43.4,136.1 L 59.9,172.7 Z M 171.9,70.3 L 203.0,63.8 L 168.4,35.3 Z M 228.9,108.8 L 163.0,126.7 L 212.4,152.1 Z M 163.0,126.7 L 163.3,165.6 L 212.4,152.1 Z M 67.4,71.3 L 36.9,80.1 L 20.0,124.5 Z M 67.4,71.3 L 20.0,124.5 L 91.6,109.7 Z M 163.0,126.7 L 91.6,109.7 L 163.3,165.6 Z M 134.6,207.8 L 125.9,193.6 L 98.1,207.6 Z M 125.9,193.6 L 104.0,193.8 L 98.1,207.6 Z M 134.6,370.8 L 134.6,207.8 L 98.1,207.6 Z M 134.6,370.8 L 98.1,207.6 L 98.1,380.0 Z M 140.4,166.9 L 86.0,130.4 L 90.6,165.7 Z M 140.4,166.9 L 90.6,165.7 L 125.9,193.6 Z M 125.9,193.6 L 90.6,165.7 L 59.9,172.7 Z M 125.9,193.6 L 59.9,172.7 L 104.0,193.8 Z M 108.5,41.9 L 103.7,91.7 L 171.9,70.3 Z M 108.5,41.9 L 171.9,70.3 L 168.4,35.3 Z M 203.0,63.8 L 171.9,70.3 L 161.8,109.3 Z M 203.0,63.8 L 161.8,109.3 L 209.4,97.2 Z M 108.5,41.9 L 91.6,72.1 L 103.7,91.7 Z M 171.9,70.3 L 103.7,91.7 L 161.8,109.3 Z M 91.6,72.1 L 108.5,41.9 L 67.4,71.3 Z M 108.5,41.9 L 100.1,26.9 L 67.4,71.3 Z M 42.8,183.3 L 59.9,172.7 L 43.4,136.1 Z M 42.8,183.3 L 43.4,136.1 L 20.0,124.5 Z M 98.1,207.6 L 104.0,193.8 L 59.9,172.7 Z M 98.1,207.6 L 59.9,172.7 L 42.8,183.3 Z M 67.4,71.3 L 91.6,109.7 L 103.7,91.7 Z M 67.4,71.3 L 103.7,91.7 L 91.6,72.1 Z M 140.4,166.9 L 125.9,193.6 L 134.6,207.8 Z M 140.4,166.9 L 134.6,207.8 L 163.3,165.6 Z M 86.0,130.4 L 91.6,109.7 L 20.0,124.5 Z M 86.0,130.4 L 20.0,124.5 L 43.4,136.1 Z M 86.0,130.4 L 140.4,166.9 L 163.3,165.6 Z M 86.0,130.4 L 163.3,165.6 L 91.6,109.7 Z M 228.9,108.8 L 209.4,97.2 L 161.8,109.3 Z M 228.9,108.8 L 161.8,109.3 L 163.0,126.7 Z M 203.0,63.8 L 217.6,59.7 L 175.3,20.0 Z M 203.0,63.8 L 175.3,20.0 L 168.4,35.3 Z M 108.5,41.9 L 168.4,35.3 L 175.3,20.0 Z M 108.5,41.9 L 175.3,20.0 L 100.1,26.9 Z M 228.9,108.8 L 217.6,59.7 L 203.0,63.8 Z M 228.9,108.8 L 203.0,63.8 L 209.4,97.2 Z M 163.0,126.7 L 161.8,109.3 L 103.7,91.7 Z M 163.0,126.7 L 103.7,91.7 L 91.6,109.7 Z" fill="#2a2a4e" stroke="none"/>
  <path d="M 212.4,152.1 L 228.9,108.8 M 163.3,165.6 L 212.4,152.1 M 67.4,71.3 L 36.9,80.1 M 36.9,80.1 L 20.0,124.5 M 134.6,370.8 L 134.6,207.8 M 98.1,207.6 L 98.1,380.0 M 98.1,380.0 L 134.6,370.8 M 100.1,26.9 L 67.4,71.3 M 20.0,124.5 L 42.8,183.3 M 42.8,183.3 L 98.1,207.6 M 134.6,207.8 L 163.3,165.6 M 217.6,59.7 L 175.3,20.0 M 175.3,20.0 L 100.1,26.9 M 228.9,108.8 L 217.6,59.7" fill="none" stroke="white" stroke-width="2" stroke-linecap="round"/>
  <polygon points="116.39917853809936,314.753833369663 124.39917853809936,322.753833369663 116.39917853809936,330.753833369663 108.39917853809936,322.753833369663" fill="#4a9eff" stroke="white" stroke-width="1"/>
</svg>