<svg xmlns="http://www.w3.org/2000/svg" viewBox="0 0 400 400">
  <rect width="400" height="400" fill="#1a1a2e"/>
  <path d="M 148.2,212.1 L 140.0,234.8 L 180.0,233.6 Z M 42.5,137.0 L 32.3,164.9 L 73.3,198.1 Z M 42.5,137.0 L 73.3,198.1 L 54.3,137.4 Z M 54.3,137.4 L 73.3,198.1 L 88.6,159.9 Z M 54.3,137.4 L 88.6,159.9 L 81.4,144.1 Z M 159.0,260.8 L 180.0,233.6 L 140.0,234.8 Z M 159.0,260.8 L 140.0,234.8 L 147.6,259.9 Z M 147.6,259.9 L 140.0,234.8 L 108.8,248.2 Z M 147.6,259.9 L 108.8,248.2 L 111.9,264.8 Z M 148.2,212.1 L 180.0,233.6 L 180.7,210.1 Z M 97.7,241.3 L 132.8,226.6 L 140.7,202.1 Z M 97.7,241.3 L 140.7,202.1 L 120.1,193.9 Z M 120.1,193.9 L 140.7,202.1 L 190.3,198.8 Z M 120.1,193.9 L 190.3,198.8 L 146.7,175.3 Z M 146.7,175.3 L 190.3,198.8 L 175.9,164.0 Z M 146.7,175.3 L 175.9,164.0 L 160.6,157.8 Z M 65.6,205.6 L 25.5,204.7 L 20.3,233.9 Z M 65.6,205.6 L 20.3,233.9 L 35.6,238.1 Z M 73.5,270.9 L 102.1,276.6 L 97.7,241.3 Z M 73.5,270.9 L 97.7,241.3 L 71.4,257.1 Z M 87.6,136.2 L 100.7,160.7 L 129.1,154.3 Z M 87.6,136.2 L 129.1,154.3 L 121.4,127.4 Z M 129.1,154.3 L 146.7,175.3 L 160.6,157.8 Z M 129.1,154.3 L 160.6,157.8 L 142.5,135.3 Z M 129.1,154.3 L 142.5,135.3 L 121.4,127.4 Z M 65.6,205.6 L 20.0,165.5 L 25.5,204.7 Z M 42.5,137.0 L 54.3,137.4 L 58.8,127.4 Z M 42.5,137.0 L 58.8,127.4 L 37.1,127.4 Z M 37.1,127.4 L 58.8,127.4 L 58.8,94.2 Z M 37.1,127.4 L 58.8,94.2 L 37.1,98.5 Z M 147.6,259.9 L 141.8,270.3 L 159.0,260.8 Z M 141.8,270.3 L 163.5,271.8 L 159.0,260.8 Z M 163.5,300.6 L 141.8,306.2 L 133.6,372.3 Z M 163.5,300.6 L 133.6,372.3 L 146.6,380.0 Z M 72.6,27.2 L 59.1,20.0 L 37.1,98.5 Z M 72.6,27.2 L 37.1,98.5 L 58.8,94.2 Z M 141.8,270.3 L 141.8,306.2 L 163.5,300.6 Z M 141.8,270.3 L 163.5,300.6 L 163.5,271.8 Z M 58.8,127.4 L 54.3,137.4 L 81.4,144.1 Z M 58.8,127.4 L 81.4,144.1 L 87.6,136.2 Z M 20.0,165.5 L 32.3,164.9 L 42.5,137.0 Z M 20.0,165.5 L 42.5,137.0 L 37.1,127.4 Z M 140.7,202.1 L 148.2,212.1 L 180.7,210.1 Z M 140.7,202.1 L 180.7,210.1 L 190.3,198.8 Z M 140.7,202.1 L 132.8,226.6 L 140.0,234.8 Z M 140.7,202.1 L 140.0,234.8 L 148.2,212.1 Z M 20.0,165.5 L 65.6,205.6 L 73.3,198.1 Z M 20.0,165.5 L 73.3,198.1 L 32.3,164.9 Z M 88.6,159.9 L 100.7,160.7 L 87.6,136.2 Z M 88.6,159.9 L 87.6,136.2 L 81.4,144.1 Z M 82.2,204.6 L 100.7,160.7 L 88.6,159.9 Z M 82.2,204.6 L 88.6,159.9 L 73.3,198.1 Z M 111.9,264.8 L 108.8,248.2 L 97.7,241.3 Z M 111.9,264.8 L 97.7,241.3 L 102.1,276.6 Z M 159.0,260.8 L 163.5,271.8 L 188.9,238.1 Z M 159.0,260.8 L 188.9,238.1 L 180.0,233.6 Z M 180.0,233.6 L 188.9,238.1 L 190.3,198.8 Z M 180.0,233.6 L 190.3,198.8 L 180.7,210.1 Z M 102.1,276.6 L 141.8,270.3 L 147.6,259.9 Z M 102.1,276.6 L 147.6,259.9 L 111.9,264.8 Z M 97.7,241.3 L 108.8,248.2 L 140.0,234.8 Z M 97.7,241.3 L 140.0,234.8 L 132.8,226.6 Z M 73.3,198.1 L 65.6,205.6 L 82.2,204.6 Z" fill="#2a2a4e" stroke="none"/>
  <path d="M 120.1,193.9 L 97.7,241.3 M 146.7,175.3 L 120.1,193.9 M 190.3,198.8 L 175.9,164.0 M 175.9,164.0 L 160.6,157.8 M 25.5,204.7 L 20.3,233.9 M 20.3,233.9 L 35.6,238.1 M 35.6,238.1 L 65.6,205.6 M 73.5,270.9 L 102.1,276.6 M 97.7,241.3 L 71.4,257.1 M 71.4,257.1 L 73.5,270.9 M 100.7,160.7 L 129.1,154.3 M 121.4,127.4 L 87.6,136.2 M 129.1,154.3 L 146.7,175.3 M 160.6,157.8 L 142.5,135.3 M 142.5,135.3 L 121.4,127.4 M 20.0,165.5 L 25.5,204.7 M 58.8,127.4 L 58.8,94.2 M 37.1,98.5 L 37.1,127.4 M 141.8,306.2 L 133.6,372.3 M 133.6,372.3 L 146.6,380.0 M 146.6,380.0 L 163.5,300.6 M 72.6,27.2 L 59.1,20.0 M 59.1,20.0 L 37.1,98.5 M 58.8,94.2 L 72.6,27.2 M 141.8,270.3 L 141.8,306.2 M 163.5,300.6 L 163.5,271.8 M 87.6,136.2 L 58.8,127.4 M 37.1,127.4 L 20.0,165.5 M 82.2,204.6 L 100.7,160.7 M 163.5,271.8 L 188.9,238.1 M 188.9,238.1 L 190.3,198.8 M 102.1,276.6 L 141.8,270.3 M 65.6,205.6 L 82.2,204.6" fill="none" stroke="white" stroke-width="2" stroke-linecap="round"/>
  <polygon points="152.09959014853345,268.4233747264006 160.09959014853345,276.4233747264006 152.09959014853345,284.4233747264006 144.09959014853345,276.4233747264006" fill="#4a9eff" stroke="white" stroke-width="1"/>
<polygon points="47.98570327176115,117.44892377143809 55.98570327176115,125.44892377143809 47.98570327176115,133.4489237714381 39.98570327176115,125.44892377143809" fill="#4a9eff" stroke="white" stroke-width="1"/>
</svg>