<svg xmlns="http://www.w3.org/2000/svg" viewBox="0 0 400 400">
  <rect width="400" height="400" fill="#1a1a2e"/>
  <path d="M 54.3,247.0 L 29.1,255.2 L 36.6,262.9 Z M 54.3,247.0 L 36.6,262.9 L 61.2,262.4 Z M 113.8,223.0 L 113.9,233.1 L 132.1,207.7 Z M 113.8,223.0 L 132.1,207.7 L 121.9,207.6 Z M 32.4,193.2 L 28.8,201.7 L 52.0,213.4 Z M 32.4,193.2 L 52.0,213.4 L 41.1,193.6 Z M 156.3,241.7 L 154.7,222.1 L 135.8,234.1 Z M 141.2,136.4 L 101.0,136.4 L 108.5,150.3 Z M 148.9,249.3 L 156.3,241.7 L 135.8,234.1 Z M 148.9,249.3 L 135.8,234.1 L 143.2,249.4 Z M 143.2,249.4 L 135.8,234.1 L 113.9,233.1 Z M 143.2,249.4 L 113.9,233.1 L 120.6,245.4 Z M 148.3,144.2 L 141.2,136.4 L 108.5,150.3 Z M 148.3,144.2 L 108.5,150.3 L 140.1,156.2 Z M 140.1,156.2 L 108.5,150.3 L 114.6,177.0 Z M 140.1,156.2 L 114.6,177.0 L 124.7,176.6 Z M 54.5,193.4 L 41.1,193.6 L 52.0,213.4 Z M 54.5,193.4 L 52.0,213.4 L 76.4,213.3 Z M 76.4,213.3 L 52.0,213.4 L 54.2,225.9 Z M 76.4,213.3 L 54.2,225.9 L 76.6,225.0 Z M 76.6,225.0 L 54.2,225.9 L 54.3,247.0 Z M 76.6,225.0 L 54.3,247.0 L 75.3,248.7 Z M 52.0,213.4 L 28.8,201.7 L 33.7,228.7 Z M 52.0,213.4 L 33.7,228.7 L 54.2,225.9 Z M 54.2,225.9 L 33.7,228.7 L 29.1,255.2 Z M 54.2,225.9 L 29.1,255.2 L 54.3,247.0 Z M 57.8,41.4 L 144.1,20.0 L 138.8,20.0 Z M 142.7,176.6 L 148.4,170.2 L 140.1,156.2 Z M 142.7,176.6 L 140.1,156.2 L 124.7,176.6 Z M 108.5,150.3 L 101.0,136.4 L 92.8,143.6 Z M 108.5,150.3 L 92.8,143.6 L 93.9,155.5 Z M 142.9,208.9 L 132.1,207.7 L 113.9,233.1 Z M 142.9,208.9 L 113.9,233.1 L 135.8,234.1 Z M 135.8,234.1 L 154.7,222.1 L 142.9,208.9 Z M 93.9,155.5 L 114.6,177.0 L 108.5,150.3 Z M 148.4,170.2 L 148.3,144.2 L 140.1,156.2 Z M 61.2,262.4 L 75.3,248.7 L 54.3,247.0 Z M 138.1,280.6 L 155.4,280.6 L 155.4,257.6 Z M 138.1,280.6 L 155.4,257.6 L 138.1,257.6 Z M 138.1,257.6 L 155.4,257.6 L 148.9,249.3 Z M 138.1,257.6 L 148.9,249.3 L 143.2,249.4 Z M 41.1,193.6 L 45.9,185.6 L 32.4,193.2 Z M 45.9,185.6 L 28.6,185.6 L 32.4,193.2 Z M 84.8,211.5 L 76.4,213.3 L 84.8,228.8 Z M 76.4,213.3 L 76.6,225.0 L 84.8,228.8 Z M 121.9,207.6 L 132.1,207.7 L 117.9,200.0 Z M 132.1,207.7 L 135.2,200.0 L 117.9,200.0 Z M 106.4,236.0 L 113.9,233.1 L 106.4,218.7 Z M 113.9,233.1 L 113.8,223.0 L 106.4,218.7 Z M 110.7,185.6 L 128.0,185.6 L 114.6,177.0 Z M 128.0,185.6 L 124.7,176.6 L 114.6,177.0 Z M 28.6,185.6 L 45.9,185.6 L 45.9,119.4 Z M 28.6,185.6 L 45.9,119.4 L 28.6,119.4 Z M 84.8,228.8 L 106.4,236.0 L 106.4,218.7 Z M 84.8,228.8 L 106.4,218.7 L 84.8,211.5 Z M 110.7,185.6 L 117.9,200.0 L 135.2,200.0 Z M 110.7,185.6 L 135.2,200.0 L 128.0,185.6 Z M 74.3,380.0 L 197.8,380.0 L 117.7,356.3 Z M 20.0,260.5 L 29.1,255.2 L 33.7,228.7 Z M 20.0,260.5 L 33.7,228.7 L 24.9,228.8 Z M 24.9,228.8 L 33.7,228.7 L 28.8,201.7 Z M 24.9,228.8 L 28.8,201.7 L 20.0,197.1 Z M 120.6,245.4 L 113.9,233.1 L 106.4,236.0 Z M 120.6,245.4 L 106.4,236.0 L 113.6,253.3 Z M 92.8,143.6 L 84.8,139.5 L 84.8,159.7 Z M 92.8,143.6 L 84.8,159.7 L 93.9,155.5 Z M 84.8,211.5 L 58.9,185.6 L 54.5,193.4 Z M 84.8,211.5 L 54.5,193.4 L 76.4,213.3 Z M 36.6,262.9 L 29.1,255.2 L 20.0,260.5 Z M 36.6,262.9 L 20.0,260.5 L 31.5,272.0 Z M 84.8,228.8 L 76.6,225.0 L 75.3,248.7 Z M 84.8,228.8 L 75.3,248.7 L 84.8,253.3 Z M 84.8,253.3 L 75.3,248.7 L 61.2,262.4 Z M 84.8,253.3 L 61.2,262.4 L 66.1,272.0 Z M 45.9,185.6 L 41.1,193.6 L 54.5,193.4 Z M 45.9,185.6 L 54.5,193.4 L 58.9,185.6 Z M 28.6,185.6 L 20.0,197.1 L 28.8,201.7 Z M 28.6,185.6 L 28.8,201.7 L 32.4,193.2 Z M 66.1,272.0 L 61.2,262.4 L 36.6,262.9 Z M 66.1,272.0 L 36.6,262.9 L 31.5,272.0 Z M 154.7,222.1 L 156.3,241.7 L 164.0,246.1 Z M 154.7,222.1 L 164.0,246.1 L 164.0,218.7 Z M 142.9,208.9 L 154.7,222.1 L 164.0,218.7 Z M 142.9,208.9 L 164.0,218.7 L 145.3,200.0 Z M 135.2,200.0 L 132.1,207.7 L 142.9,208.9 Z M 135.2,200.0 L 142.9,208.9 L 145.3,200.0 Z M 106.4,218.7 L 113.8,223.0 L 121.9,207.6 Z M 106.4,218.7 L 121.9,207.6 L 117.9,200.0 Z M 143.2,249.4 L 120.6,245.4 L 113.6,253.3 Z M 143.2,249.4 L 113.6,253.3 L 138.1,257.6 Z M 164.0,246.1 L 156.3,241.7 L 148.9,249.3 Z M 164.0,246.1 L 148.9,249.3 L 155.4,257.6 Z M 84.8,159.7 L 110.7,185.6 L 114.6,177.0 Z M 84.8,159.7 L 114.6,177.0 L 93.9,155.5 Z M 156.8,174.1 L 148.4,170.2 L 142.7,176.6 Z M 156.8,174.1 L 142.7,176.6 L 145.3,185.6 Z M 84.8,139.5 L 92.8,143.6 L 101.0,136.4 Z M 84.8,139.5 L 101.0,136.4 L 96.3,128.0 Z M 96.3,128.0 L 101.0,136.4 L 141.2,136.4 Z M 96.3,128.0 L 141.2,136.4 L 145.3,128.0 Z M 148.3,144.2 L 156.8,139.5 L 145.3,128.0 Z M 148.3,144.2 L 145.3,128.0 L 141.2,136.4 Z M 148.4,170.2 L 156.8,174.1 L 156.8,139.5 Z M 148.4,170.2 L 156.8,139.5 L 148.3,144.2 Z M 145.3,185.6 L 142.7,176.6 L 124.7,176.6 Z M 145.3,185.6 L 124.7,176.6 L 128.0,185.6 Z" fill="#2a2a4e" stroke="none"/>
  <path d="M 57.8,41.4 L 144.1,20.0 M 144.1,20.0 L 138.8,20.0 M 138.8,20.0 L 57.8,41.4 M 138.1,280.6 L 155.4,280.6 M 155.4,280.6 L 155.4,257.6 M 138.1,257.6 L 138.1,280.6 M 45.9,185.6 L 45.9,119.4 M 45.9,119.4 L 28.6,119.4 M 28.6,119.4 L 28.6,185.6 M 84.8,228.8 L 106.4,236.0 M 106.4,218.7 L 84.8,211.5 M 110.7,185.6 L 117.9,200.0 M 135.2,200.0 L 128.0,185.6 M 74.3,380.0 L 197.8,380.0 M 197.8,380.0 L 117.7,356.3 M 117.7,356.3 L 74.3,380.0 M 24.9,228.8 L 20.0,260.5 M 20.0,197.1 L 24.9,228.8 M 106.4,236.0 L 113.6,253.3 M 84.8,139.5 L 84.8,159.7 M 84.8,211.5 L 58.9,185.6 M 20.0,260.5 L 31.5,272.0 M 84.8,253.3 L 84.8,228.8 M 66.1,272.0 L 84.8,253.3 M 58.9,185.6 L 45.9,185.6 M 28.6,185.6 L 20.0,197.1 M 31.5,272.0 L 66.1,272.0 M 164.0,246.1 L 164.0,218.7 M 164.0,218.7 L 145.3,200.0 M 145.3,200.0 L 135.2,200.0 M 117.9,200.0 L 106.4,218.7 M 113.6,253.3 L 138.1,257.6 M 155.4,257.6 L 164.0,246.1 M 84.8,159.7 L 110.7,185.6 M 145.3,185.6 L 156.8,174.1 M 96.3,128.0 L 84.8,139.5 M 145.3,128.0 L 96.3,128.0 M 156.8,139.5 L 145.3,128.0 M 156.8,174.1 L 156.8,139.5 M 128.0,185.6 L 145.3,185.6" fill="none" stroke="white" stroke-width="2" stroke-linecap="round"/>
  <polygon points="37.07526322287018,133.16982975967764 45.07526322287018,141.16982975967764 37.07526322287018,149.16982975967764 29.075263222870177,141.16982975967764" fill="#4a9eff" stroke="white" stroke-width="1"/>
<polygon points="146.61673822752084,249.8662322322407 154.61673822752084,257.8662322322407 146.61673822752084,265.8662322322407 138.61673822752084,257.8662322322407" fill="#4a9eff" stroke="white" stroke-width="1"/>
</svg>