<svg xmlns="http://www.w3.org/2000/svg" viewBox="0 0 400 400">
  <rect width="400" height="400" fill="#1a1a2e"/>
  <path d="M 309.4,283.3 L 352.0,283.3 L 319.7,262.8 Z M 352.0,283.3 L 340.6,262.5 L 319.7,262.8 Z M 309.4,380.0 L 352.0,380.0 L 352.0,283.3 Z M 309.4,380.0 L 352.0,283.3 L 309.4,283.3 Z M 167.2,199.8 L 139.8,128.7 L 101.9,157.7 Z M 167.2,199.8 L 101.9,157.7 L 112.2,203.0 Z M 112.2,203.0 L 101.9,157.7 L 53.2,158.5 Z M 112.2,203.0 L 53.2,158.5 L 59.5,181.6 Z M 228.0,208.0 L 215.3,217.3 L 231.4,237.9 Z M 228.0,208.0 L 231.4,237.9 L 261.2,218.0 Z M 261.2,218.0 L 231.4,237.9 L 319.7,262.8 Z M 261.2,218.0 L 319.7,262.8 L 307.8,215.9 Z M 319.7,262.8 L 340.6,262.5 L 307.8,215.9 Z M 167.2,199.8 L 174.4,160.3 L 139.8,128.7 Z M 266.7,198.8 L 317.0,196.1 L 303.4,120.7 Z M 266.7,198.8 L 303.4,120.7 L 219.3,182.4 Z M 219.3,182.4 L 303.4,120.7 L 246.9,44.3 Z M 219.3,182.4 L 246.9,44.3 L 201.1,150.7 Z M 201.1,150.7 L 246.9,44.3 L 139.4,99.8 Z M 246.9,44.3 L 134.7,20.0 L 139.4,99.8 Z M 139.4,99.8 L 134.7,20.0 L 56.7,37.4 Z M 303.4,120.7 L 317.0,196.1 L 356.1,159.0 Z M 317.0,196.1 L 360.4,253.9 L 356.1,159.0 Z M 139.4,99.8 L 56.7,37.4 L 20.0,135.2 Z M 139.4,99.8 L 20.0,135.2 L 92.4,136.8 Z M 201.1,150.7 L 183.4,220.3 L 219.3,182.4 Z M 183.4,220.3 L 214.1,257.3 L 231.4,237.9 Z M 183.4,220.3 L 231.4,237.9 L 215.3,217.3 Z M 59.5,181.6 L 53.2,158.5 L 20.0,135.2 Z M 59.5,181.6 L 20.0,135.2 L 39.2,199.7 Z M 112.2,203.0 L 108.5,227.9 L 183.4,220.3 Z M 112.2,203.0 L 183.4,220.3 L 167.2,199.8 Z M 167.2,199.8 L 183.4,220.3 L 201.1,150.7 Z M 167.2,199.8 L 201.1,150.7 L 174.4,160.3 Z M 108.5,227.9 L 112.2,203.0 L 59.5,181.6 Z M 108.5,227.9 L 59.5,181.6 L 39.2,199.7 Z M 360.4,253.9 L 317.0,196.1 L 307.8,215.9 Z M 360.4,253.9 L 307.8,215.9 L 340.6,262.5 Z M 261.2,218.0 L 266.7,198.8 L 219.3,182.4 Z M 261.2,218.0 L 219.3,182.4 L 228.0,208.0 Z M 214.1,257.3 L 309.4,283.3 L 319.7,262.8 Z M 214.1,257.3 L 319.7,262.8 L 231.4,237.9 Z M 201.1,150.7 L 139.4,99.8 L 139.8,128.7 Z M 201.1,150.7 L 139.8,128.7 L 174.4,160.3 Z M 20.0,135.2 L 53.2,158.5 L 101.9,157.7 Z M 20.0,135.2 L 101.9,157.7 L 92.4,136.8 Z M 101.9,157.7 L 139.8,128.7 L 139.4,99.8 Z M 101.9,157.7 L 139.4,99.8 L 92.4,136.8 Z M 261.2,218.0 L 307.8,215.9 L 317.0,196.1 Z M 261.2,218.0 L 317.0,196.1 L 266.7,198.8 Z M 228.0,208.0 L 219.3,182.4 L 183.4,220.3 Z M 228.0,208.0 L 183.4,220.3 L 215.3,217.3 Z M 340.6,262.5 L 352.0,283.3 L 360.4,253.9 Z" fill="#2a2a4e" stroke="none"/>
  <path d="M 309.4,380.0 L 352.0,380.0 M 352.0,380.0 L 352.0,283.3 M 309.4,283.3 L 309.4,380.0 M 303.4,120.7 L 246.9,44.3 M 246.9,44.3 L 134.7,20.0 M 134.7,20.0 L 56.7,37.4 M 356.1,159.0 L 303.4,120.7 M 360.4,253.9 L 356.1,159.0 M 56.7,37.4 L 20.0,135.2 M 183.4,220.3 L 214.1,257.3 M 20.0,135.2 L 39.2,199.7 M 108.5,227.9 L 183.4,220.3 M 39.2,199.7 L 108.5,227.9 M 214.1,257.3 L 309.4,283.3 M 352.0,283.3 L 360.4,253.9" fill="none" stroke="white" stroke-width="2" stroke-linecap="round"/>
  <polygon points="331.04187691196006,291.7738513741113 339.04187691196006,299.7738513741113 331.04187691196006,307.7738513741113 323.04187691196006,299.7738513741113" fill="#4a9eff" stroke="white" stroke-width="1"/>
</svg>