<svg xmlns="http://www.w3.org/2000/svg" viewBox="0 0 400 400">
  <rect width="400" height="400" fill="#1a1a2e"/>
  <path d="M 130.9,184.7 L 104.4,195.5 L 126.3,221.4 Z M 130.9,184.7 L 126.3,221.4 L 140.1,221.5 Z M 262.5,169.4 L 286.5,146.2 L 284.8,131.7 Z M 262.5,169.4 L 284.8,131.7 L 250.5,149.1 Z M 104.2,122.1 L 118.9,148.1 L 170.4,124.3 Z M 104.2,122.1 L 170.4,124.3 L 150.0,72.5 Z M 170.4,124.3 L 192.6,156.5 L 204.8,124.5 Z M 269.4,55.6 L 228.0,65.1 L 256.3,87.7 Z M 100.4,115.0 L 100.4,130.5 L 126.2,134.8 Z M 100.4,115.0 L 126.2,134.8 L 126.2,117.1 Z M 126.2,117.1 L 126.2,134.8 L 152.1,129.0 Z M 126.2,117.1 L 152.1,129.0 L 152.1,112.2 Z M 152.1,112.2 L 152.1,129.0 L 178.0,131.8 Z M 152.1,112.2 L 178.0,131.8 L 178.0,115.0 Z M 220.3,135.4 L 238.6,135.4 L 242.9,109.6 Z M 220.3,135.4 L 242.9,109.6 L 225.1,109.6 Z M 225.1,109.6 L 242.9,109.6 L 237.1,83.7 Z M 225.1,109.6 L 237.1,83.7 L 220.3,83.7 Z M 220.3,83.7 L 237.1,83.7 L 239.9,57.8 Z M 220.3,83.7 L 239.9,57.8 L 223.1,57.8 Z M 231.6,187.3 L 245.7,208.6 L 260.9,198.2 Z M 231.6,187.3 L 260.9,198.2 L 246.1,177.1 Z M 140.1,221.5 L 126.3,221.4 L 117.2,236.6 Z M 140.1,221.5 L 117.2,236.6 L 148.3,236.6 Z M 148.3,236.6 L 117.2,236.6 L 117.2,286.0 Z M 148.3,236.6 L 117.2,286.0 L 148.3,291.2 Z M 126.6,58.2 L 127.9,43.9 L 109.5,34.6 Z M 126.6,58.2 L 109.5,34.6 L 109.5,65.6 Z M 109.5,65.6 L 109.5,34.6 L 20.0,34.6 Z M 109.5,65.6 L 20.0,34.6 L 30.3,65.6 Z M 284.8,131.7 L 286.5,146.2 L 300.9,122.5 Z M 286.5,146.2 L 300.9,153.6 L 300.9,122.5 Z M 374.8,153.6 L 380.0,122.5 L 300.9,122.5 Z M 374.8,153.6 L 300.9,122.5 L 300.9,153.6 Z M 269.4,55.6 L 256.3,87.7 L 300.1,77.3 Z M 256.3,87.7 L 284.8,131.7 L 300.1,77.3 Z M 204.8,124.5 L 192.6,156.5 L 250.5,149.1 Z M 192.6,156.5 L 199.7,198.7 L 250.5,149.1 Z M 199.7,198.7 L 242.9,200.4 L 262.5,169.4 Z M 199.7,198.7 L 262.5,169.4 L 250.5,149.1 Z M 130.9,184.7 L 199.7,198.7 L 192.6,156.5 Z M 130.9,184.7 L 192.6,156.5 L 118.9,148.1 Z M 250.5,149.1 L 284.8,131.7 L 256.3,87.7 Z M 250.5,149.1 L 256.3,87.7 L 204.8,124.5 Z M 150.0,72.5 L 145.7,37.6 L 127.9,43.9 Z M 150.0,72.5 L 127.9,43.9 L 126.6,58.2 Z M 228.0,65.1 L 150.0,72.5 L 170.4,124.3 Z M 228.0,65.1 L 170.4,124.3 L 204.8,124.5 Z M 104.4,195.5 L 130.9,184.7 L 118.9,148.1 Z M 145.7,37.6 L 150.0,72.5 L 228.0,65.1 Z M 126.6,58.2 L 104.2,122.1 L 150.0,72.5 Z M 199.7,198.7 L 130.9,184.7 L 140.1,221.5 Z M 118.9,148.1 L 192.6,156.5 L 170.4,124.3 Z M 256.3,87.7 L 228.0,65.1 L 204.8,124.5 Z M 300.9,153.6 L 286.5,146.2 L 262.5,169.4 Z M 300.9,153.6 L 262.5,169.4 L 270.3,182.4 Z M 270.3,182.4 L 262.5,169.4 L 242.9,200.4 Z M 270.3,182.4 L 242.9,200.4 L 250.2,215.9 Z M 199.7,198.7 L 140.1,221.5 L 148.3,236.6 Z M 199.7,198.7 L 148.3,236.6 L 198.8,215.3 Z M 100.9,149.1 L 86.3,198.2 L 104.4,195.5 Z M 100.9,149.1 L 104.4,195.5 L 118.9,148.1 Z M 86.3,198.2 L 117.2,236.6 L 126.3,221.4 Z M 86.3,198.2 L 126.3,221.4 L 104.4,195.5 Z M 145.7,37.6 L 228.0,65.1 L 231.5,46.5 Z M 145.7,37.6 L 231.5,46.5 L 147.8,20.0 Z M 118.9,148.1 L 104.2,122.1 L 87.6,120.7 Z M 118.9,148.1 L 87.6,120.7 L 100.9,149.1 Z M 127.9,43.9 L 145.7,37.6 L 147.8,20.0 Z M 127.9,43.9 L 147.8,20.0 L 109.5,34.6 Z M 109.5,65.6 L 87.6,120.7 L 104.2,122.1 Z M 109.5,65.6 L 104.2,122.1 L 126.6,58.2 Z M 284.8,131.7 L 300.9,122.5 L 314.7,71.1 Z M 284.8,131.7 L 314.7,71.1 L 300.1,77.3 Z M 314.7,71.1 L 276.5,38.3 L 269.4,55.6 Z M 314.7,71.1 L 269.4,55.6 L 300.1,77.3 Z M 276.5,38.3 L 231.5,46.5 L 228.0,65.1 Z M 276.5,38.3 L 228.0,65.1 L 269.4,55.6 Z M 198.8,215.3 L 250.2,215.9 L 242.9,200.4 Z M 198.8,215.3 L 242.9,200.4 L 199.7,198.7 Z" fill="#2a2a4e" stroke="none"/>
  <path d="M 100.4,115.0 L 100.4,130.5 M 100.4,130.5 L 126.2,134.8 M 126.2,117.1 L 100.4,115.0 M 126.2,134.8 L 152.1,129.0 M 152.1,112.2 L 126.2,117.1 M 152.1,129.0 L 178.0,131.8 M 178.0,131.8 L 178.0,115.0 M 178.0,115.0 L 152.1,112.2 M 220.3,135.4 L 238.6,135.4 M 238.6,135.4 L 242.9,109.6 M 225.1,109.6 L 220.3,135.4 M 242.9,109.6 L 237.1,83.7 M 220.3,83.7 L 225.1,109.6 M 237.1,83.7 L 239.9,57.8 M 239.9,57.8 L 223.1,57.8 M 223.1,57.8 L 220.3,83.7 M 231.6,187.3 L 245.7,208.6 M 245.7,208.6 L 260.9,198.2 M 260.9,198.2 L 246.1,177.1 M 246.1,177.1 L 231.6,187.3 M 117.2,236.6 L 117.2,286.0 M 117.2,286.0 L 148.3,291.2 M 148.3,291.2 L 148.3,236.6 M 109.5,34.6 L 20.0,34.6 M 20.0,34.6 L 30.3,65.6 M 30.3,65.6 L 109.5,65.6 M 374.8,153.6 L 380.0,122.5 M 380.0,122.5 L 300.9,122.5 M 300.9,153.6 L 374.8,153.6 M 270.3,182.4 L 300.9,153.6 M 250.2,215.9 L 270.3,182.4 M 148.3,236.6 L 198.8,215.3 M 100.9,149.1 L 86.3,198.2 M 86.3,198.2 L 117.2,236.6 M 231.5,46.5 L 147.8,20.0 M 87.6,120.7 L 100.9,149.1 M 147.8,20.0 L 109.5,34.6 M 109.5,65.6 L 87.6,120.7 M 300.9,122.5 L 314.7,71.1 M 314.7,71.1 L 276.5,38.3 M 276.5,38.3 L 231.5,46.5 M 198.8,215.3 L 250.2,215.9" fill="none" stroke="white" stroke-width="2" stroke-linecap="round"/>
  <polygon points="93.70301027727243,42.56959415627615 101.70301027727243,50.56959415627615 93.70301027727243,58.56959415627615 85.70301027727243,50.56959415627615" fill="#4a9eff" stroke="white" stroke-width="1"/>
<polygon points="311.3389995681718,129.7938972040008 319.3389995681718,137.7938972040008 311.3389995681718,145.7938972040008 303.3389995681718,137.7938972040008" fill="#4a9eff" stroke="white" stroke-width="1"/>
<polygon points="133.0121381291367,234.27537971730476 141.0121381291367,242.27537971730476 133.0121381291367,250.27537971730476 125.0121381291367,242.27537971730476" fill="#4a9eff" stroke="white" stroke-width="1"/>
</svg>