<svg xmlns="http://www.w3.org/2000/svg" viewBox="0 0 400 400">
  <rect width="400" height="400" fill="#1a1a2e"/>
  <path d="M 269.6,215.8 L 263.0,178.3 L 237.8,211.9 Z M 119.9,192.9 L 154.7,188.6 L 130.4,148.4 Z M 198.6,175.9 L 154.7,188.6 L 190.7,225.8 Z M 184.5,95.8 L 184.5,111.2 L 210.3,115.5 Z M 184.5,95.8 L 210.3,115.5 L 210.3,97.8 Z M 210.3,97.8 L 210.3,115.5 L 236.1,109.7 Z M 210.3,97.8 L 236.1,109.7 L 236.1,93.0 Z M 236.1,93.0 L 236.1,109.7 L 258.0,112.5 Z M 236.1,93.0 L 258.0,112.5 L 258.0,95.8 Z M 178.6,231.1 L 196.9,231.1 L 201.2,210.7 Z M 178.6,231.1 L 201.2,210.7 L 183.4,210.7 Z M 183.4,210.7 L 201.2,210.7 L 195.3,184.9 Z M 183.4,210.7 L 195.3,184.9 L 178.6,184.9 Z M 178.6,184.9 L 195.3,184.9 L 198.2,159.1 Z M 178.6,184.9 L 198.2,159.1 L 181.4,159.1 Z M 230.6,226.8 L 248.9,226.8 L 256.9,201.0 Z M 230.6,226.8 L 256.9,201.0 L 239.2,201.0 Z M 239.2,201.0 L 256.9,201.0 L 255.7,175.2 Z M 239.2,201.0 L 255.7,175.2 L 239.0,175.2 Z M 239.0,175.2 L 255.7,175.2 L 250.2,141.5 Z M 239.0,175.2 L 250.2,141.5 L 233.4,141.5 Z M 140.0,210.6 L 126.2,210.6 L 116.8,229.0 Z M 140.0,210.6 L 116.8,229.0 L 147.8,229.0 Z M 147.8,229.0 L 116.8,229.0 L 116.8,309.0 Z M 147.8,229.0 L 116.8,309.0 L 147.8,303.8 Z M 130.4,148.4 L 130.4,135.7 L 115.6,123.2 Z M 130.4,148.4 L 115.6,123.2 L 115.6,154.2 Z M 115.6,154.2 L 115.6,123.2 L 35.5,123.2 Z M 115.6,154.2 L 35.5,123.2 L 20.0,154.2 Z M 295.9,184.4 L 310.3,190.3 L 295.9,166.6 Z M 310.3,190.3 L 310.3,159.3 L 295.9,166.6 Z M 310.3,159.3 L 310.3,190.3 L 380.0,190.3 Z M 310.3,159.3 L 380.0,190.3 L 372.3,159.3 Z M 154.7,188.6 L 198.6,175.9 L 208.2,134.8 Z M 154.7,188.6 L 208.2,134.8 L 130.4,148.4 Z M 130.4,148.4 L 208.2,134.8 L 197.1,118.4 Z M 130.4,148.4 L 197.1,118.4 L 130.4,135.7 Z M 270.4,126.9 L 275.8,87.7 L 208.2,134.8 Z M 270.4,126.9 L 208.2,134.8 L 234.2,156.8 Z M 234.2,156.8 L 208.2,134.8 L 198.6,175.9 Z M 234.2,156.8 L 198.6,175.9 L 237.8,211.9 Z M 295.9,166.6 L 270.4,126.9 L 263.0,178.3 Z M 270.4,126.9 L 234.2,156.8 L 263.0,178.3 Z M 263.0,178.3 L 234.2,156.8 L 237.8,211.9 Z M 206.9,58.9 L 197.1,118.4 L 275.8,87.7 Z M 197.1,118.4 L 208.2,134.8 L 275.8,87.7 Z M 295.9,184.4 L 295.9,166.6 L 263.0,178.3 Z M 295.9,184.4 L 263.0,178.3 L 269.6,215.8 Z M 126.2,210.6 L 140.0,210.6 L 154.7,188.6 Z M 126.2,210.6 L 154.7,188.6 L 119.9,192.9 Z M 239.5,39.0 L 206.9,58.9 L 275.8,87.7 Z M 239.5,39.0 L 275.8,87.7 L 260.6,41.4 Z M 140.0,210.6 L 190.7,225.8 L 154.7,188.6 Z M 237.8,211.9 L 198.6,175.9 L 190.7,225.8 Z M 310.3,159.3 L 288.6,124.8 L 270.4,126.9 Z M 310.3,159.3 L 270.4,126.9 L 295.9,166.6 Z M 269.6,215.8 L 237.8,211.9 L 238.8,229.8 Z M 269.6,215.8 L 238.8,229.8 L 274.9,234.0 Z M 295.9,184.4 L 269.6,215.8 L 274.9,234.0 Z M 295.9,184.4 L 274.9,234.0 L 310.3,190.3 Z M 115.6,154.2 L 102.3,192.5 L 119.9,192.9 Z M 115.6,154.2 L 119.9,192.9 L 130.4,148.4 Z M 195.0,243.0 L 238.8,229.8 L 237.8,211.9 Z M 195.0,243.0 L 237.8,211.9 L 190.7,225.8 Z M 102.3,192.5 L 116.8,229.0 L 126.2,210.6 Z M 102.3,192.5 L 126.2,210.6 L 119.9,192.9 Z M 190.7,225.8 L 140.0,210.6 L 147.8,229.0 Z M 190.7,225.8 L 147.8,229.0 L 195.0,243.0 Z M 191.2,49.1 L 182.4,107.5 L 197.1,118.4 Z M 191.2,49.1 L 197.1,118.4 L 206.9,58.9 Z M 130.4,135.7 L 197.1,118.4 L 182.4,107.5 Z M 130.4,135.7 L 182.4,107.5 L 115.6,123.2 Z M 293.1,85.2 L 275.8,87.7 L 270.4,126.9 Z M 293.1,85.2 L 270.4,126.9 L 288.6,124.8 Z M 239.5,39.0 L 260.6,41.4 L 271.5,24.8 Z M 239.5,39.0 L 271.5,24.8 L 232.9,20.0 Z M 271.5,24.8 L 260.6,41.4 L 275.8,87.7 Z M 271.5,24.8 L 275.8,87.7 L 293.1,85.2 Z M 232.9,20.0 L 191.2,49.1 L 206.9,58.9 Z M 232.9,20.0 L 206.9,58.9 L 239.5,39.0 Z" fill="#2a2a4e" stroke="none"/>
  <path d="M 184.5,95.8 L 184.5,111.2 M 184.5,111.2 L 210.3,115.5 M 210.3,97.8 L 184.5,95.8 M 210.3,115.5 L 236.1,109.7 M 236.1,93.0 L 210.3,97.8 M 236.1,109.7 L 258.0,112.5 M 258.0,112.5 L 258.0,95.8 M 258.0,95.8 L 236.1,93.0 M 178.6,231.1 L 196.9,231.1 M 196.9,231.1 L 201.2,210.7 M 183.4,210.7 L 178.6,231.1 M 201.2,210.7 L 195.3,184.9 M 178.6,184.9 L 183.4,210.7 M 195.3,184.9 L 198.2,159.1 M 198.2,159.1 L 181.4,159.1 M 181.4,159.1 L 178.6,184.9 M 230.6,226.8 L 248.9,226.8 M 248.9,226.8 L 256.9,201.0 M 239.2,201.0 L 230.6,226.8 M 256.9,201.0 L 255.7,175.2 M 239.0,175.2 L 239.2,201.0 M 255.7,175.2 L 250.2,141.5 M 250.2,141.5 L 233.4,141.5 M 233.4,141.5 L 239.0,175.2 M 116.8,229.0 L 116.8,309.0 M 116.8,309.0 L 147.8,303.8 M 147.8,303.8 L 147.8,229.0 M 115.6,123.2 L 35.5,123.2 M 35.5,123.2 L 20.0,154.2 M 20.0,154.2 L 115.6,154.2 M 310.3,190.3 L 380.0,190.3 M 380.0,190.3 L 372.3,159.3 M 372.3,159.3 L 310.3,159.3 M 310.3,159.3 L 288.6,124.8 M 238.8,229.8 L 274.9,234.0 M 274.9,234.0 L 310.3,190.3 M 115.6,154.2 L 102.3,192.5 M 195.0,243.0 L 238.8,229.8 M 102.3,192.5 L 116.8,229.0 M 147.8,229.0 L 195.0,243.0 M 191.2,49.1 L 182.4,107.5 M 182.4,107.5 L 115.6,123.2 M 288.6,124.8 L 293.1,85.2 M 271.5,24.8 L 232.9,20.0 M 293.1,85.2 L 271.5,24.8 M 232.9,20.0 L 191.2,49.1" fill="none" stroke="white" stroke-width="2" stroke-linecap="round"/>
  <polygon points="132.8046782094013,240.56586030553746 140.8046782094013,248.56586030553746 132.8046782094013,256.56586030553746 124.80467820940129,248.56586030553746" fill="#4a9eff" stroke="white" stroke-width="1"/>
<polygon points="104.70194071454432,128.10280194209173 112.70194071454432,136.10280194209173 104.70194071454432,144.10280194209173 96.70194071454432,136.10280194209173" fill="#4a9eff" stroke="white" stroke-width="1"/>
<polygon points="313.421598025226,166.44570331869414 321.421598025226,174.44570331869414 313.421598025226,182.44570331869414 305.421598025226,174.44570331869414" fill="#4a9eff" stroke="white" stroke-width="1"/>
</svg>