<svg xmlns="http://www.w3.org/2000/svg" viewBox="0 0 400 400">
  <rect width="400" height="400" fill="#1a1a2e"/>
  <path d="M 62.8,279.0 L 72.5,252.0 L 35.6,276.2 Z M 72.5,252.0 L 32.4,248.8 L 35.6,276.2 Z M 147.6,194.4 L 171.0,189.5 L 144.9,167.9 Z M 147.6,194.4 L 131.2,195.6 L 139.5,224.7 Z M 147.6,194.4 L 144.9,167.9 L 112.1,161.4 Z M 147.6,194.4 L 112.1,161.4 L 131.2,195.6 Z M 131.2,195.6 L 112.1,161.4 L 101.0,161.4 Z M 131.2,195.6 L 101.0,161.4 L 87.5,178.6 Z M 88.9,286.1 L 72.5,252.0 L 62.8,279.0 Z M 88.9,286.1 L 62.8,279.0 L 78.3,300.4 Z M 78.3,300.4 L 62.8,279.0 L 35.6,276.2 Z M 78.3,300.4 L 35.6,276.2 L 61.7,300.6 Z M 139.5,224.7 L 175.5,215.6 L 171.0,189.5 Z M 139.5,224.7 L 171.0,189.5 L 147.6,194.4 Z M 101.8,286.7 L 133.4,268.2 L 132.6,237.9 Z M 101.8,286.7 L 132.6,237.9 L 78.8,241.2 Z M 78.8,241.2 L 132.6,237.9 L 122.4,205.9 Z M 78.8,241.2 L 122.4,205.9 L 71.0,181.8 Z M 133.4,268.2 L 170.3,263.9 L 132.6,237.9 Z M 170.3,263.9 L 190.2,224.4 L 132.6,237.9 Z M 20.0,238.3 L 78.8,241.2 L 71.0,181.8 Z M 20.0,238.3 L 71.0,181.8 L 39.8,190.0 Z M 101.0,161.4 L 112.1,161.4 L 120.7,150.7 Z M 101.0,161.4 L 120.7,150.7 L 93.2,150.8 Z M 93.2,150.8 L 120.7,150.7 L 120.7,90.4 Z M 93.2,150.8 L 120.7,90.4 L 93.2,90.4 Z M 61.7,300.6 L 56.5,311.0 L 78.3,300.4 Z M 56.5,311.0 L 84.0,311.1 L 78.3,300.4 Z M 56.5,311.0 L 56.5,380.0 L 84.0,373.0 Z M 56.5,311.0 L 84.0,373.0 L 84.0,311.1 Z M 93.2,90.4 L 120.7,90.4 L 79.5,20.0 Z M 93.2,90.4 L 79.5,20.0 L 56.5,29.2 Z M 32.4,248.8 L 20.0,238.3 L 24.1,278.9 Z M 32.4,248.8 L 24.1,278.9 L 35.6,276.2 Z M 35.6,276.2 L 24.1,278.9 L 56.5,311.0 Z M 35.6,276.2 L 56.5,311.0 L 61.7,300.6 Z M 101.0,161.4 L 93.2,150.8 L 71.0,181.8 Z M 101.0,161.4 L 71.0,181.8 L 87.5,178.6 Z M 131.2,195.6 L 87.5,178.6 L 71.0,181.8 Z M 131.2,195.6 L 71.0,181.8 L 122.4,205.9 Z M 84.0,311.1 L 101.8,286.7 L 88.9,286.1 Z M 84.0,311.1 L 88.9,286.1 L 78.3,300.4 Z M 20.0,238.3 L 32.4,248.8 L 72.5,252.0 Z M 20.0,238.3 L 72.5,252.0 L 78.8,241.2 Z M 101.8,286.7 L 78.8,241.2 L 72.5,252.0 Z M 101.8,286.7 L 72.5,252.0 L 88.9,286.1 Z M 139.5,224.7 L 132.6,237.9 L 190.2,224.4 Z M 139.5,224.7 L 190.2,224.4 L 175.5,215.6 Z M 150.2,156.4 L 144.9,167.9 L 171.0,189.5 Z M 150.2,156.4 L 171.0,189.5 L 182.1,186.4 Z M 150.2,156.4 L 120.7,150.7 L 112.1,161.4 Z M 150.2,156.4 L 112.1,161.4 L 144.9,167.9 Z M 171.0,189.5 L 175.5,215.6 L 190.2,224.4 Z M 171.0,189.5 L 190.2,224.4 L 182.1,186.4 Z M 131.2,195.6 L 122.4,205.9 L 132.6,237.9 Z M 131.2,195.6 L 132.6,237.9 L 139.5,224.7 Z" fill="#2a2a4e" stroke="none"/>
  <path d="M 101.8,286.7 L 133.4,268.2 M 133.4,268.2 L 170.3,263.9 M 170.3,263.9 L 190.2,224.4 M 71.0,181.8 L 39.8,190.0 M 39.8,190.0 L 20.0,238.3 M 120.7,150.7 L 120.7,90.4 M 93.2,90.4 L 93.2,150.8 M 56.5,311.0 L 56.5,380.0 M 56.5,380.0 L 84.0,373.0 M 84.0,373.0 L 84.0,311.1 M 120.7,90.4 L 79.5,20.0 M 79.5,20.0 L 56.5,29.2 M 56.5,29.2 L 93.2,90.4 M 20.0,238.3 L 24.1,278.9 M 24.1,278.9 L 56.5,311.0 M 93.2,150.8 L 71.0,181.8 M 84.0,311.1 L 101.8,286.7 M 182.1,186.4 L 150.2,156.4 M 150.2,156.4 L 120.7,150.7 M 190.2,224.4 L 182.1,186.4" fill="none" stroke="white" stroke-width="2" stroke-linecap="round"/>
  <polygon points="106.84860868526422,142.70413541764282 114.84860868526422,150.70413541764282 106.84860868526422,158.70413541764282 98.84860868526422,150.70413541764282" fill="#4a9eff" stroke="white" stroke-width="1"/>
<polygon points="69.6908021176125,303.2043405273664 77.6908021176125,311.2043405273664 69.6908021176125,319.2043405273664 61.690802117612506,311.2043405273664" fill="#4a9eff" stroke="white" stroke-width="1"/>
</svg>