<svg xmlns="http://www.w3.org/2000/svg" viewBox="0 0 400 400">
  <rect width="400" height="400" fill="#1a1a2e"/>
  <path d="M 250.4,182.8 L 227.3,154.5 L 194.9,167.2 Z M 250.4,182.8 L 194.9,167.2 L 205.3,196.5 Z M 121.7,61.8 L 107.1,34.4 L 90.0,61.3 Z M 92.4,79.3 L 80.4,129.9 L 106.5,110.0 Z M 123.0,140.6 L 140.0,97.1 L 106.5,110.0 Z M 136.1,174.9 L 165.5,197.5 L 187.9,155.5 Z M 136.1,174.9 L 187.9,155.5 L 129.5,151.9 Z M 129.5,151.9 L 187.9,155.5 L 191.5,70.9 Z M 129.5,151.9 L 191.5,70.9 L 148.0,104.6 Z M 191.5,70.9 L 187.9,155.5 L 229.7,139.7 Z M 191.5,70.9 L 229.7,139.7 L 239.3,80.0 Z M 239.3,80.0 L 229.7,139.7 L 262.0,159.2 Z M 239.3,80.0 L 262.0,159.2 L 267.1,116.6 Z M 129.5,151.9 L 66.8,137.1 L 76.8,184.8 Z M 129.5,151.9 L 76.8,184.8 L 95.9,187.7 Z M 95.9,187.7 L 136.1,174.9 L 129.5,151.9 Z M 90.0,61.3 L 92.4,79.3 L 140.0,97.1 Z M 90.0,61.3 L 140.0,97.1 L 121.7,61.8 Z M 121.7,61.8 L 140.0,97.1 L 176.2,65.8 Z M 121.7,61.8 L 176.2,65.8 L 161.2,33.0 Z M 178.7,197.6 L 188.6,219.9 L 206.5,220.1 Z M 178.7,197.6 L 206.5,220.1 L 205.3,196.5 Z M 107.1,34.4 L 121.7,61.8 L 161.2,33.0 Z M 92.4,79.3 L 106.5,110.0 L 140.0,97.1 Z M 194.9,167.2 L 178.7,197.6 L 205.3,196.5 Z M 206.5,220.1 L 250.4,182.8 L 205.3,196.5 Z M 80.4,129.9 L 123.0,140.6 L 106.5,110.0 Z M 250.4,182.8 L 250.7,164.9 L 227.3,154.5 Z M 78.1,57.0 L 80.2,86.9 L 90.0,61.3 Z M 80.2,86.9 L 92.4,79.3 L 90.0,61.3 Z M 206.5,220.1 L 188.6,219.9 L 212.2,231.4 Z M 188.6,219.9 L 182.3,231.5 L 212.2,231.4 Z M 250.7,164.9 L 250.4,182.8 L 262.0,159.2 Z M 250.4,182.8 L 262.1,189.1 L 262.0,159.2 Z M 27.7,57.0 L 20.0,86.9 L 80.2,86.9 Z M 27.7,57.0 L 80.2,86.9 L 78.1,57.0 Z M 212.2,231.4 L 182.3,231.5 L 182.3,298.8 Z M 212.2,231.4 L 182.3,298.8 L 212.2,306.4 Z M 318.0,159.2 L 262.0,159.2 L 262.1,189.1 Z M 318.0,159.2 L 262.1,189.1 L 325.4,189.1 Z M 372.5,132.5 L 318.0,159.2 L 325.4,189.1 Z M 372.5,132.5 L 325.4,189.1 L 380.0,162.4 Z M 250.4,182.8 L 206.5,220.1 L 212.2,231.4 Z M 250.4,182.8 L 212.2,231.4 L 262.1,189.1 Z M 161.2,33.0 L 176.2,65.8 L 191.5,70.9 Z M 161.2,33.0 L 191.5,70.9 L 168.4,20.0 Z M 140.0,97.1 L 148.0,104.6 L 191.5,70.9 Z M 140.0,97.1 L 191.5,70.9 L 176.2,65.8 Z M 182.3,231.5 L 188.6,219.9 L 178.7,197.6 Z M 182.3,231.5 L 178.7,197.6 L 165.5,197.5 Z M 227.3,154.5 L 229.7,139.7 L 187.9,155.5 Z M 227.3,154.5 L 187.9,155.5 L 194.9,167.2 Z M 165.5,197.5 L 178.7,197.6 L 194.9,167.2 Z M 165.5,197.5 L 194.9,167.2 L 187.9,155.5 Z M 123.0,140.6 L 80.4,129.9 L 66.8,137.1 Z M 123.0,140.6 L 66.8,137.1 L 129.5,151.9 Z M 101.4,21.9 L 78.1,57.0 L 90.0,61.3 Z M 101.4,21.9 L 90.0,61.3 L 107.1,34.4 Z M 168.4,20.0 L 101.4,21.9 L 107.1,34.4 Z M 168.4,20.0 L 107.1,34.4 L 161.2,33.0 Z M 92.4,79.3 L 80.2,86.9 L 66.8,137.1 Z M 92.4,79.3 L 66.8,137.1 L 80.4,129.9 Z M 140.0,97.1 L 123.0,140.6 L 129.5,151.9 Z M 140.0,97.1 L 129.5,151.9 L 148.0,104.6 Z M 262.0,159.2 L 229.7,139.7 L 227.3,154.5 Z M 262.0,159.2 L 227.3,154.5 L 250.7,164.9 Z" fill="#2a2a4e" stroke="none"/>
  <path d="M 136.1,174.9 L 165.5,197.5 M 239.3,80.0 L 191.5,70.9 M 262.0,159.2 L 267.1,116.6 M 267.1,116.6 L 239.3,80.0 M 66.8,137.1 L 76.8,184.8 M 76.8,184.8 L 95.9,187.7 M 95.9,187.7 L 136.1,174.9 M 27.7,57.0 L 20.0,86.9 M 20.0,86.9 L 80.2,86.9 M 78.1,57.0 L 27.7,57.0 M 182.3,231.5 L 182.3,298.8 M 182.3,298.8 L 212.2,306.4 M 212.2,306.4 L 212.2,231.4 M 318.0,159.2 L 262.0,159.2 M 262.1,189.1 L 325.4,189.1 M 372.5,132.5 L 318.0,159.2 M 325.4,189.1 L 380.0,162.4 M 380.0,162.4 L 372.5,132.5 M 212.2,231.4 L 262.1,189.1 M 191.5,70.9 L 168.4,20.0 M 165.5,197.5 L 182.3,231.5 M 101.4,21.9 L 78.1,57.0 M 168.4,20.0 L 101.4,21.9 M 80.2,86.9 L 66.8,137.1" fill="none" stroke="white" stroke-width="2" stroke-linecap="round"/>
  <polygon points="198.21134611587104,228.1333204208286 206.21134611587104,236.1333204208286 198.21134611587104,244.1333204208286 190.21134611587104,236.1333204208286" fill="#4a9eff" stroke="white" stroke-width="1"/>
<polygon points="75.62281239534133,66.13208131748033 83.62281239534133,74.13208131748033 75.62281239534133,82.13208131748033 67.62281239534133,74.13208131748033" fill="#4a9eff" stroke="white" stroke-width="1"/>
<polygon points="272.245300692085,165.7574312477987 280.245300692085,173.7574312477987 272.245300692085,181.7574312477987 264.245300692085,173.7574312477987" fill="#4a9eff" stroke="white" stroke-width="1"/>
</svg>