<svg xmlns="http://www.w3.org/2000/svg" viewBox="0 0 400 400">
  <rect width="400" height="400" fill="#1a1a2e"/>
  <path d="M 75.2,173.3 L 63.6,141.0 L 32.7,174.4 Z M 63.6,141.0 L 33.8,144.3 L 32.7,174.4 Z M 155.8,289.4 L 171.9,319.5 L 190.7,289.9 Z M 188.1,270.1 L 201.2,214.4 L 172.5,236.2 Z M 154.3,202.6 L 135.7,250.5 L 172.5,236.2 Z M 139.9,164.9 L 107.6,140.0 L 82.8,186.2 Z M 139.9,164.9 L 82.8,186.2 L 147.2,190.2 Z M 147.2,190.2 L 82.8,186.2 L 78.9,271.1 Z M 147.2,190.2 L 78.9,271.1 L 126.8,242.2 Z M 20.6,187.0 L 47.1,261.3 L 78.9,271.1 Z M 20.6,187.0 L 78.9,271.1 L 82.8,186.2 Z M 147.2,190.2 L 216.2,206.4 L 205.2,153.9 Z M 147.2,190.2 L 205.2,153.9 L 184.2,150.8 Z M 184.2,150.8 L 139.9,164.9 L 147.2,190.2 Z M 190.7,289.9 L 188.1,270.1 L 135.7,250.5 Z M 190.7,289.9 L 135.7,250.5 L 155.8,289.4 Z M 155.8,289.4 L 135.7,250.5 L 95.7,276.7 Z M 155.8,289.4 L 95.7,276.7 L 112.3,321.1 Z M 92.9,139.8 L 82.1,115.3 L 62.3,115.1 Z M 92.9,139.8 L 62.3,115.1 L 63.6,141.0 Z M 171.9,319.5 L 155.8,289.4 L 112.3,321.1 Z M 188.1,270.1 L 172.5,236.2 L 135.7,250.5 Z M 75.2,173.3 L 92.9,139.8 L 63.6,141.0 Z M 62.3,115.1 L 33.8,144.3 L 63.6,141.0 Z M 201.2,214.4 L 154.3,202.6 L 172.5,236.2 Z M 203.8,294.7 L 201.5,261.7 L 190.7,289.9 Z M 201.5,261.7 L 188.1,270.1 L 190.7,289.9 Z M 62.3,115.1 L 82.1,115.3 L 56.1,102.6 Z M 82.1,115.3 L 89.0,102.5 L 56.1,102.6 Z M 259.3,294.7 L 380.0,261.9 L 368.2,236.2 Z M 259.3,294.7 L 368.2,236.2 L 267.7,261.7 Z M 259.3,294.7 L 267.7,261.7 L 201.5,261.7 Z M 259.3,294.7 L 201.5,261.7 L 203.8,294.7 Z M 56.1,102.6 L 89.0,102.5 L 89.0,28.4 Z M 56.1,102.6 L 89.0,28.4 L 56.1,20.0 Z M 32.7,174.4 L 33.8,144.3 L 20.0,141.1 Z M 32.7,174.4 L 20.0,141.1 L 20.6,187.0 Z M 33.8,144.3 L 62.3,115.1 L 56.1,102.6 Z M 33.8,144.3 L 56.1,102.6 L 20.0,141.1 Z M 112.3,321.1 L 95.7,276.7 L 78.9,271.1 Z M 112.3,321.1 L 78.9,271.1 L 104.4,335.4 Z M 135.7,250.5 L 126.8,242.2 L 78.9,271.1 Z M 135.7,250.5 L 78.9,271.1 L 95.7,276.7 Z M 89.0,102.5 L 82.1,115.3 L 92.9,139.8 Z M 89.0,102.5 L 92.9,139.8 L 107.6,140.0 Z M 20.6,187.0 L 82.8,186.2 L 75.2,173.3 Z M 20.6,187.0 L 75.2,173.3 L 32.7,174.4 Z M 107.6,140.0 L 92.9,139.8 L 75.2,173.3 Z M 107.6,140.0 L 75.2,173.3 L 82.8,186.2 Z M 154.3,202.6 L 201.2,214.4 L 216.2,206.4 Z M 154.3,202.6 L 216.2,206.4 L 147.2,190.2 Z M 178.1,333.3 L 203.8,294.7 L 190.7,289.9 Z M 178.1,333.3 L 190.7,289.9 L 171.9,319.5 Z M 104.4,335.4 L 178.1,333.3 L 171.9,319.5 Z M 104.4,335.4 L 171.9,319.5 L 112.3,321.1 Z M 188.1,270.1 L 201.5,261.7 L 216.2,206.4 Z M 188.1,270.1 L 216.2,206.4 L 201.2,214.4 Z M 135.7,250.5 L 154.3,202.6 L 147.2,190.2 Z M 135.7,250.5 L 147.2,190.2 L 126.8,242.2 Z" fill="#2a2a4e" stroke="none"/>
  <path d="M 139.9,164.9 L 107.6,140.0 M 20.6,187.0 L 47.1,261.3 M 47.1,261.3 L 78.9,271.1 M 216.2,206.4 L 205.2,153.9 M 205.2,153.9 L 184.2,150.8 M 184.2,150.8 L 139.9,164.9 M 259.3,294.7 L 380.0,261.9 M 380.0,261.9 L 368.2,236.2 M 368.2,236.2 L 267.7,261.7 M 267.7,261.7 L 201.5,261.7 M 203.8,294.7 L 259.3,294.7 M 89.0,102.5 L 89.0,28.4 M 89.0,28.4 L 56.1,20.0 M 56.1,20.0 L 56.1,102.6 M 20.0,141.1 L 20.6,187.0 M 56.1,102.6 L 20.0,141.1 M 78.9,271.1 L 104.4,335.4 M 107.6,140.0 L 89.0,102.5 M 178.1,333.3 L 203.8,294.7 M 104.4,335.4 L 178.1,333.3 M 201.5,261.7 L 216.2,206.4" fill="none" stroke="white" stroke-width="2" stroke-linecap="round"/>
  <polygon points="71.92741329399925,94.0887682842411 79.92741329399925,102.0887682842411 71.92741329399925,110.0887682842411 63.92741329399925,102.0887682842411" fill="#4a9eff" stroke="white" stroke-width="1"/>
<polygon points="209.42297757903088,269.90430675825047 217.42297757903088,277.90430675825047 209.42297757903088,285.90430675825047 201.42297757903088,277.90430675825047" fill="#4a9eff" stroke="white" stroke-width="1"/>
</svg>