<svg xmlns="http://www.w3.org/2000/svg" viewBox="0 0 400 400">
  <rect width="400" height="400" fill="#1a1a2e"/>
  <path d="M 168.2,158.7 L 143.9,140.8 L 131.3,163.8 Z M 168.2,158.7 L 131.3,163.8 L 157.5,178.7 Z M 32.8,169.4 L 66.9,171.4 L 54.5,138.5 Z M 32.8,169.4 L 54.5,138.5 L 45.0,138.5 Z M 78.9,214.0 L 79.0,238.9 L 108.8,251.8 Z M 78.9,214.0 L 108.8,251.8 L 102.7,215.9 Z M 152.4,212.5 L 146.9,183.7 L 106.8,182.4 Z M 152.4,212.5 L 106.8,182.4 L 114.5,206.9 Z M 66.8,245.3 L 66.7,220.5 L 20.2,251.6 Z M 66.8,245.3 L 20.2,251.6 L 41.0,274.7 Z M 25.9,206.8 L 20.2,251.6 L 66.7,220.5 Z M 41.0,274.7 L 104.2,264.2 L 66.8,245.3 Z M 102.7,215.9 L 92.9,176.8 L 66.9,171.4 Z M 102.7,215.9 L 66.9,171.4 L 78.9,214.0 Z M 78.9,214.0 L 66.9,171.4 L 32.8,169.4 Z M 78.9,214.0 L 32.8,169.4 L 37.3,197.9 Z M 131.3,163.8 L 143.9,140.8 L 84.3,147.5 Z M 131.3,163.8 L 84.3,147.5 L 92.9,176.8 Z M 92.9,176.8 L 84.3,147.5 L 54.5,138.5 Z M 92.9,176.8 L 54.5,138.5 L 66.9,171.4 Z M 166.6,261.4 L 177.4,233.8 L 154.7,233.3 Z M 166.6,261.4 L 154.7,233.3 L 157.7,261.9 Z M 157.7,261.9 L 154.7,233.3 L 102.7,215.9 Z M 157.7,261.9 L 102.7,215.9 L 108.8,251.8 Z M 177.4,233.8 L 169.1,212.5 L 154.7,233.3 Z M 169.1,212.5 L 168.2,158.7 L 157.5,178.7 Z M 45.0,138.5 L 54.5,138.5 L 60.3,128.6 Z M 45.0,138.5 L 60.3,128.6 L 38.4,128.6 Z M 38.4,128.6 L 60.3,128.6 L 60.3,95.1 Z M 38.4,128.6 L 60.3,95.1 L 38.4,99.4 Z M 173.6,303.9 L 151.7,309.6 L 141.0,376.4 Z M 173.6,303.9 L 141.0,376.4 L 158.6,380.0 Z M 70.4,27.9 L 60.6,20.0 L 38.4,99.4 Z M 70.4,27.9 L 38.4,99.4 L 60.3,95.1 Z M 166.6,261.4 L 157.7,261.9 L 151.7,274.7 Z M 166.6,261.4 L 151.7,274.7 L 173.6,274.7 Z M 151.7,274.7 L 151.7,309.6 L 173.6,303.9 Z M 151.7,274.7 L 173.6,303.9 L 173.6,274.7 Z M 215.5,304.2 L 173.6,303.9 L 158.6,380.0 Z M 20.0,324.8 L 141.0,376.4 L 95.9,333.8 Z M 60.3,95.1 L 127.0,88.0 L 70.4,27.9 Z M 141.0,376.4 L 151.7,309.6 L 95.9,333.8 Z M 146.9,183.7 L 131.3,163.8 L 106.8,182.4 Z M 131.3,163.8 L 92.9,176.8 L 106.8,182.4 Z M 151.7,274.7 L 157.7,261.9 L 108.8,251.8 Z M 151.7,274.7 L 108.8,251.8 L 104.2,264.2 Z M 60.3,128.6 L 54.5,138.5 L 84.3,147.5 Z M 60.3,128.6 L 84.3,147.5 L 84.9,135.4 Z M 25.9,206.8 L 66.7,220.5 L 78.9,214.0 Z M 25.9,206.8 L 78.9,214.0 L 37.3,197.9 Z M 143.9,140.8 L 168.2,158.7 L 178.0,152.2 Z M 143.9,140.8 L 178.0,152.2 L 145.3,128.6 Z M 20.2,167.2 L 32.8,169.4 L 45.0,138.5 Z M 20.2,167.2 L 45.0,138.5 L 38.4,128.6 Z M 169.1,212.5 L 180.7,211.1 L 178.0,152.2 Z M 169.1,212.5 L 178.0,152.2 L 168.2,158.7 Z M 84.9,135.4 L 84.3,147.5 L 143.9,140.8 Z M 84.9,135.4 L 143.9,140.8 L 145.3,128.6 Z M 192.0,240.6 L 177.4,233.8 L 166.6,261.4 Z M 192.0,240.6 L 166.6,261.4 L 173.6,274.7 Z M 154.7,233.3 L 152.4,212.5 L 114.5,206.9 Z M 154.7,233.3 L 114.5,206.9 L 102.7,215.9 Z M 114.5,206.9 L 106.8,182.4 L 92.9,176.8 Z M 114.5,206.9 L 92.9,176.8 L 102.7,215.9 Z M 152.4,212.5 L 169.1,212.5 L 157.5,178.7 Z M 152.4,212.5 L 157.5,178.7 L 146.9,183.7 Z M 79.0,238.9 L 78.9,214.0 L 66.7,220.5 Z M 79.0,238.9 L 66.7,220.5 L 66.8,245.3 Z M 25.9,206.8 L 37.3,197.9 L 32.8,169.4 Z M 25.9,206.8 L 32.8,169.4 L 20.2,167.2 Z M 192.0,240.6 L 180.7,211.1 L 169.1,212.5 Z M 192.0,240.6 L 169.1,212.5 L 177.4,233.8 Z M 66.8,245.3 L 104.2,264.2 L 108.8,251.8 Z M 66.8,245.3 L 108.8,251.8 L 79.0,238.9 Z M 169.1,212.5 L 152.4,212.5 L 154.7,233.3 Z M 146.9,183.7 L 157.5,178.7 L 131.3,163.8 Z" fill="#2a2a4e" stroke="none"/>
  <path d="M 20.2,251.6 L 41.0,274.7 M 25.9,206.8 L 20.2,251.6 M 41.0,274.7 L 104.2,264.2 M 60.3,128.6 L 60.3,95.1 M 38.4,99.4 L 38.4,128.6 M 141.0,376.4 L 158.6,380.0 M 70.4,27.9 L 60.6,20.0 M 60.6,20.0 L 38.4,99.4 M 151.7,274.7 L 151.7,309.6 M 173.6,303.9 L 173.6,274.7 M 215.5,304.2 L 173.6,303.9 M 158.6,380.0 L 215.5,304.2 M 20.0,324.8 L 141.0,376.4 M 95.9,333.8 L 20.0,324.8 M 60.3,95.1 L 127.0,88.0 M 127.0,88.0 L 70.4,27.9 M 151.7,309.6 L 95.9,333.8 M 104.2,264.2 L 151.7,274.7 M 84.9,135.4 L 60.3,128.6 M 178.0,152.2 L 145.3,128.6 M 38.4,128.6 L 20.2,167.2 M 180.7,211.1 L 178.0,152.2 M 145.3,128.6 L 84.9,135.4 M 173.6,274.7 L 192.0,240.6 M 20.2,167.2 L 25.9,206.8 M 192.0,240.6 L 180.7,211.1" fill="none" stroke="white" stroke-width="2" stroke-linecap="round"/>
  <polygon points="49.363565399686394,117.25584633438486 57.363565399686394,125.25584633438486 49.363565399686394,133.25584633438484 41.363565399686394,125.25584633438486" fill="#4a9eff" stroke="white" stroke-width="1"/>
<polygon points="162.7854386204153,269.806248084295 170.7854386204153,277.806248084295 162.7854386204153,285.806248084295 154.7854386204153,277.806248084295" fill="#4a9eff" stroke="white" stroke-width="1"/>
</svg>