<svg xmlns="http://www.w3.org/2000/svg" viewBox="0 0 400 400">
  <rect width="400" height="400" fill="#1a1a2e"/>
  <path d="M 172.5,219.0 L 165.0,195.0 L 135.7,165.3 Z M 172.5,219.0 L 135.7,165.3 L 147.4,232.8 Z M 147.4,232.8 L 96.7,167.9 L 84.7,190.5 Z M 147.4,232.8 L 84.7,190.5 L 103.2,230.8 Z M 140.6,81.3 L 122.9,100.2 L 126.7,119.1 Z M 140.6,81.3 L 126.7,119.1 L 140.9,125.3 Z M 269.2,48.4 L 239.2,41.7 L 244.2,82.1 Z M 269.2,48.4 L 244.2,82.1 L 266.4,66.1 Z M 244.2,82.1 L 239.2,41.7 L 175.8,78.7 Z M 140.9,125.3 L 175.8,78.7 L 140.6,81.3 Z M 287.4,73.9 L 242.6,101.6 L 262.3,148.5 Z M 287.4,73.9 L 262.3,148.5 L 313.1,145.9 Z M 313.1,145.9 L 262.3,148.5 L 241.0,174.2 Z M 313.1,145.9 L 241.0,174.2 L 313.1,183.9 Z M 198.5,226.8 L 239.6,243.4 L 280.7,224.0 Z M 198.5,226.8 L 280.7,224.0 L 241.0,174.2 Z M 184.8,187.6 L 198.5,226.8 L 241.0,174.2 Z M 313.1,183.9 L 241.0,174.2 L 280.7,224.0 Z M 145.5,146.8 L 100.4,131.4 L 81.8,149.4 Z M 22.6,351.9 L 20.0,372.5 L 92.0,380.0 Z M 22.6,351.9 L 92.0,380.0 L 80.5,355.6 Z M 112.7,248.7 L 112.7,323.2 L 143.5,333.5 Z M 112.7,248.7 L 143.5,333.5 L 143.5,248.7 Z M 143.5,333.5 L 112.7,323.2 L 80.5,355.6 Z M 143.5,333.5 L 80.5,355.6 L 92.0,380.0 Z M 175.8,78.7 L 182.1,98.6 L 242.6,101.6 Z M 175.8,78.7 L 242.6,101.6 L 244.2,82.1 Z M 266.4,66.1 L 287.4,73.9 L 287.4,38.0 Z M 266.4,66.1 L 287.4,38.0 L 269.2,48.4 Z M 96.7,167.9 L 135.7,165.3 L 145.5,146.8 Z M 96.7,167.9 L 145.5,146.8 L 81.8,149.4 Z M 140.6,81.3 L 175.8,78.7 L 169.3,61.1 Z M 140.6,81.3 L 169.3,61.1 L 130.2,61.1 Z M 100.4,131.4 L 145.5,146.8 L 140.9,125.3 Z M 100.4,131.4 L 140.9,125.3 L 126.7,119.1 Z M 63.8,190.0 L 81.8,230.7 L 103.2,230.8 Z M 63.8,190.0 L 103.2,230.8 L 84.7,190.5 Z M 198.5,226.8 L 172.5,219.0 L 147.4,232.8 Z M 198.5,226.8 L 147.4,232.8 L 156.4,248.7 Z M 165.0,195.0 L 172.5,219.0 L 198.5,226.8 Z M 165.0,195.0 L 198.5,226.8 L 184.8,187.6 Z M 135.7,165.3 L 165.0,195.0 L 184.8,187.6 Z M 135.7,165.3 L 184.8,187.6 L 145.5,146.8 Z M 156.4,248.7 L 147.4,232.8 L 103.2,230.8 Z M 156.4,248.7 L 103.2,230.8 L 99.8,248.7 Z M 145.5,146.8 L 182.1,98.6 L 175.8,78.7 Z M 145.5,146.8 L 175.8,78.7 L 140.9,125.3 Z M 122.9,100.2 L 104.6,96.2 L 100.4,131.4 Z M 122.9,100.2 L 100.4,131.4 L 126.7,119.1 Z M 238.6,20.0 L 239.2,41.7 L 269.2,48.4 Z M 238.6,20.0 L 269.2,48.4 L 287.4,38.0 Z M 238.6,20.0 L 169.3,61.1 L 175.8,78.7 Z M 238.6,20.0 L 175.8,78.7 L 239.2,41.7 Z M 244.2,82.1 L 242.6,101.6 L 287.4,73.9 Z M 244.2,82.1 L 287.4,73.9 L 266.4,66.1 Z M 130.2,61.1 L 104.6,96.2 L 122.9,100.2 Z M 130.2,61.1 L 122.9,100.2 L 140.6,81.3 Z M 81.8,149.4 L 63.8,190.0 L 84.7,190.5 Z M 81.8,149.4 L 84.7,190.5 L 96.7,167.9 Z M 81.8,230.7 L 99.8,248.7 L 103.2,230.8 Z" fill="#2a2a4e" stroke="none"/>
  <path d="M 135.7,165.3 L 147.4,232.8 M 147.4,232.8 L 96.7,167.9 M 242.6,101.6 L 262.3,148.5 M 313.1,145.9 L 287.4,73.9 M 262.3,148.5 L 241.0,174.2 M 313.1,183.9 L 313.1,145.9 M 198.5,226.8 L 239.6,243.4 M 239.6,243.4 L 280.7,224.0 M 241.0,174.2 L 184.8,187.6 M 280.7,224.0 L 313.1,183.9 M 100.4,131.4 L 81.8,149.4 M 22.6,351.9 L 20.0,372.5 M 20.0,372.5 L 92.0,380.0 M 80.5,355.6 L 22.6,351.9 M 112.7,248.7 L 112.7,323.2 M 143.5,333.5 L 143.5,248.7 M 143.5,248.7 L 112.7,248.7 M 112.7,323.2 L 80.5,355.6 M 92.0,380.0 L 143.5,333.5 M 182.1,98.6 L 242.6,101.6 M 287.4,73.9 L 287.4,38.0 M 96.7,167.9 L 135.7,165.3 M 169.3,61.1 L 130.2,61.1 M 63.8,190.0 L 81.8,230.7 M 156.4,248.7 L 198.5,226.8 M 184.8,187.6 L 145.5,146.8 M 99.8,248.7 L 156.4,248.7 M 145.5,146.8 L 182.1,98.6 M 104.6,96.2 L 100.4,131.4 M 287.4,38.0 L 238.6,20.0 M 238.6,20.0 L 169.3,61.1 M 130.2,61.1 L 104.6,96.2 M 81.8,149.4 L 63.8,190.0 M 81.8,230.7 L 99.8,248.7" fill="none" stroke="white" stroke-width="2" stroke-linecap="round"/>
  <polygon points="127.91297893065024,242.18552565923684 135.91297893065024,250.18552565923684 127.91297893065024,258.1855256592369 119.91297893065024,250.18552565923684" fill="#4a9eff" stroke="white" stroke-width="1"/>
</svg>