<svg xmlns="http://www.w3.org/2000/svg" viewBox="0 0 400 400">
  <rect width="400" height="400" fill="#1a1a2e"/>
  <path d="M 37.1,186.6 L 80.4,230.4 L 95.6,171.3 Z M 37.1,186.6 L 95.6,171.3 L 46.7,149.6 Z M 46.7,149.6 L 95.6,171.3 L 89.8,149.7 Z M 46.7,149.6 L 89.8,149.7 L 70.9,140.7 Z M 190.1,348.6 L 190.3,319.8 L 157.1,310.7 Z M 190.1,348.6 L 157.1,310.7 L 172.3,361.6 Z M 172.3,361.6 L 157.1,310.7 L 142.6,332.4 Z M 172.3,361.6 L 142.6,332.4 L 150.6,361.6 Z M 189.3,221.7 L 212.6,165.6 L 178.0,194.5 Z M 212.6,165.6 L 178.5,166.0 L 178.0,194.5 Z M 241.5,227.8 L 234.5,179.8 L 212.6,165.6 Z M 241.5,227.8 L 212.6,165.6 L 189.3,221.7 Z M 189.3,221.7 L 224.4,241.0 L 241.5,227.8 Z M 37.1,186.6 L 48.8,230.4 L 80.4,230.4 Z M 80.4,230.4 L 95.6,210.7 L 95.6,171.3 Z M 254.3,171.1 L 261.2,234.3 L 277.1,212.9 Z M 261.2,234.3 L 277.1,256.6 L 277.1,212.9 Z M 135.0,380.0 L 121.7,329.2 L 44.2,359.5 Z M 121.7,329.2 L 33.8,329.3 L 44.2,359.5 Z M 33.8,329.3 L 121.7,329.2 L 52.3,299.0 Z M 121.7,329.2 L 99.0,299.0 L 52.3,299.0 Z M 277.1,256.6 L 261.2,234.3 L 230.3,264.3 Z M 149.7,290.1 L 99.0,299.0 L 121.7,329.2 Z M 46.7,149.6 L 35.1,135.7 L 20.0,184.9 Z M 46.7,149.6 L 20.0,184.9 L 37.1,186.6 Z M 89.8,149.7 L 104.9,140.0 L 73.7,122.9 Z M 89.8,149.7 L 73.7,122.9 L 70.9,140.7 Z M 70.9,140.7 L 73.7,122.9 L 35.1,135.7 Z M 70.9,140.7 L 35.1,135.7 L 46.7,149.6 Z M 95.6,171.3 L 111.0,170.2 L 104.9,140.0 Z M 95.6,171.3 L 104.9,140.0 L 89.8,149.7 Z M 111.0,218.6 L 95.6,210.7 L 80.4,230.4 Z M 111.0,218.6 L 80.4,230.4 L 85.8,248.6 Z M 189.3,221.7 L 176.0,233.1 L 230.3,264.3 Z M 189.3,221.7 L 230.3,264.3 L 224.4,241.0 Z M 161.7,166.4 L 161.7,202.6 L 178.0,194.5 Z M 161.7,166.4 L 178.0,194.5 L 178.5,166.0 Z M 212.6,165.6 L 234.5,179.8 L 254.3,171.1 Z M 212.6,165.6 L 254.3,171.1 L 223.1,148.6 Z M 223.1,148.6 L 178.5,148.6 L 178.5,166.0 Z M 223.1,148.6 L 178.5,166.0 L 212.6,165.6 Z M 241.5,227.8 L 224.4,241.0 L 230.3,264.3 Z M 241.5,227.8 L 230.3,264.3 L 261.2,234.3 Z M 241.5,227.8 L 261.2,234.3 L 254.3,171.1 Z M 241.5,227.8 L 254.3,171.1 L 234.5,179.8 Z M 161.7,202.6 L 176.0,233.1 L 189.3,221.7 Z M 161.7,202.6 L 189.3,221.7 L 178.0,194.5 Z M 142.6,332.4 L 157.1,310.7 L 149.7,290.1 Z M 142.6,332.4 L 149.7,290.1 L 121.7,329.2 Z M 205.1,354.6 L 205.1,308.5 L 190.3,319.8 Z M 205.1,354.6 L 190.3,319.8 L 190.1,348.6 Z M 172.3,361.6 L 150.6,361.6 L 135.0,380.0 Z M 172.3,361.6 L 135.0,380.0 L 175.6,380.0 Z M 190.1,348.6 L 172.3,361.6 L 175.6,380.0 Z M 190.1,348.6 L 175.6,380.0 L 205.1,354.6 Z M 142.6,332.4 L 121.7,329.2 L 135.0,380.0 Z M 142.6,332.4 L 135.0,380.0 L 150.6,361.6 Z M 205.1,308.5 L 149.7,290.1 L 157.1,310.7 Z M 205.1,308.5 L 157.1,310.7 L 190.3,319.8 Z M 20.0,184.9 L 36.2,248.6 L 48.8,230.4 Z M 20.0,184.9 L 48.8,230.4 L 37.1,186.6 Z M 36.2,248.6 L 85.8,248.6 L 80.4,230.4 Z M 36.2,248.6 L 80.4,230.4 L 48.8,230.4 Z M 111.0,218.6 L 111.0,170.2 L 95.6,171.3 Z M 111.0,218.6 L 95.6,171.3 L 95.6,210.7 Z M 178.5,148.6 L 161.7,166.4 L 178.5,166.0 Z M 302.3,346.6 L 302.3,315.7 L 205.1,315.7 Z M 302.3,346.6 L 205.1,315.7 L 205.1,346.6 Z M 184.6,32.9 L 184.6,148.6 L 215.4,148.6 Z M 184.6,32.9 L 215.4,148.6 L 215.4,20.0 Z M 161.7,202.6 L 161.7,171.7 L 111.0,171.7 Z M 161.7,202.6 L 111.0,171.7 L 111.0,202.6 Z M 53.4,248.7 L 53.4,299.0 L 84.3,299.0 Z M 53.4,248.7 L 84.3,299.0 L 84.3,248.7 Z" fill="#2a2a4e" stroke="none"/>
  <path d="M 277.1,212.9 L 254.3,171.1 M 277.1,256.6 L 277.1,212.9 M 44.2,359.5 L 135.0,380.0 M 33.8,329.3 L 44.2,359.5 M 52.3,299.0 L 33.8,329.3 M 99.0,299.0 L 52.3,299.0 M 230.3,264.3 L 277.1,256.6 M 149.7,290.1 L 99.0,299.0 M 35.1,135.7 L 20.0,184.9 M 104.9,140.0 L 73.7,122.9 M 73.7,122.9 L 35.1,135.7 M 111.0,170.2 L 104.9,140.0 M 85.8,248.6 L 111.0,218.6 M 176.0,233.1 L 230.3,264.3 M 161.7,166.4 L 161.7,202.6 M 254.3,171.1 L 223.1,148.6 M 223.1,148.6 L 178.5,148.6 M 161.7,202.6 L 176.0,233.1 M 205.1,354.6 L 205.1,308.5 M 135.0,380.0 L 175.6,380.0 M 175.6,380.0 L 205.1,354.6 M 205.1,308.5 L 149.7,290.1 M 20.0,184.9 L 36.2,248.6 M 36.2,248.6 L 85.8,248.6 M 111.0,218.6 L 111.0,170.2 M 178.5,148.6 L 161.7,166.4 M 302.3,346.6 L 302.3,315.7 M 302.3,315.7 L 205.1,315.7 M 205.1,315.7 L 205.1,346.6 M 205.1,346.6 L 302.3,346.6 M 184.6,32.9 L 184.6,148.6 M 184.6,148.6 L 215.4,148.6 M 215.4,148.6 L 215.4,20.0 M 215.4,20.0 L 184.6,32.9 M 161.7,202.6 L 161.7,171.7 M 161.7,171.7 L 111.0,171.7 M 111.0,171.7 L 111.0,202.6 M 111.0,202.6 L 161.7,202.6 M 53.4,248.7 L 53.4,299.0 M 53.4,299.0 L 84.3,299.0 M 84.3,299.0 L 84.3,248.7 M 84.3,248.7 L 53.4,248.7" fill="none" stroke="white" stroke-width="2" stroke-linecap="round"/>
  <polygon points="199.975149327687,140.8840441189503 207.975149327687,148.8840441189503 199.975149327687,156.8840441189503 191.975149327687,148.8840441189503" fill="#4a9eff" stroke="white" stroke-width="1"/>
<polygon points="205.86147265103025,326.0809929996526 213.86147265103025,334.0809929996526 205.86147265103025,342.0809929996526 197.86147265103025,334.0809929996526" fill="#4a9eff" stroke="white" stroke-width="1"/>
</svg>