<svg xmlns="http://www.w3.org/2000/svg" viewBox="0 0 400 400">
  <rect width="400" height="400" fill="#1a1a2e"/>
  <path d="M 159.8,228.5 L 184.4,262.2 L 228.5,266.4 Z M 159.8,228.5 L 228.5,266.4 L 204.9,224.4 Z M 204.9,224.4 L 228.5,266.4 L 242.1,232.7 Z M 204.9,224.4 L 242.1,232.7 L 207.3,178.7 Z M 95.5,203.6 L 137.9,284.3 L 133.8,199.5 Z M 137.9,284.3 L 159.8,228.5 L 133.8,199.5 Z M 95.5,203.6 L 77.0,244.3 L 88.7,273.4 Z M 95.5,203.6 L 88.7,273.4 L 137.9,284.3 Z M 172.3,161.4 L 220.4,140.3 L 194.3,116.5 Z M 172.3,161.4 L 194.3,116.5 L 176.5,125.0 Z M 172.3,161.4 L 207.3,178.7 L 220.4,140.3 Z M 159.8,228.5 L 137.9,284.3 L 184.4,262.2 Z M 20.0,280.8 L 39.1,300.0 L 59.2,244.7 Z M 20.0,280.8 L 59.2,244.7 L 28.0,237.6 Z M 28.0,237.6 L 59.2,244.7 L 84.2,188.6 Z M 28.0,237.6 L 84.2,188.6 L 20.0,153.1 Z M 20.0,153.1 L 84.2,188.6 L 72.6,122.9 Z M 20.0,153.1 L 72.6,122.9 L 43.9,122.9 Z M 156.4,168.6 L 164.8,116.6 L 134.9,111.0 Z M 156.4,168.6 L 134.9,111.0 L 140.8,183.3 Z M 140.8,183.3 L 134.9,111.0 L 72.6,122.9 Z M 140.8,183.3 L 72.6,122.9 L 84.2,188.6 Z M 235.3,137.2 L 235.3,79.8 L 196.5,100.7 Z M 235.3,79.8 L 216.2,60.7 L 196.5,100.7 Z M 216.2,60.7 L 158.8,60.7 L 164.8,116.6 Z M 216.2,60.7 L 164.8,116.6 L 196.5,100.7 Z M 156.4,168.6 L 167.2,214.4 L 191.1,212.1 Z M 156.4,168.6 L 191.1,212.1 L 190.4,186.7 Z M 59.2,244.7 L 39.1,300.0 L 80.2,289.9 Z M 156.4,168.6 L 140.8,183.3 L 167.2,214.4 Z M 158.8,60.7 L 134.9,111.0 L 164.8,116.6 Z M 43.9,122.9 L 72.6,122.9 L 72.6,60.7 Z M 43.9,122.9 L 72.6,60.7 L 43.9,60.7 Z M 43.9,60.7 L 72.6,60.7 L 80.2,20.0 Z M 43.9,60.7 L 80.2,20.0 L 51.5,20.0 Z M 235.3,84.6 L 235.3,113.3 L 310.7,113.3 Z M 235.3,84.6 L 310.7,113.3 L 310.7,84.6 Z M 310.7,84.6 L 310.7,113.3 L 380.0,74.1 Z M 310.7,84.6 L 380.0,74.1 L 380.0,45.4 Z M 156.4,168.6 L 190.4,186.7 L 207.3,178.7 Z M 156.4,168.6 L 207.3,178.7 L 172.3,161.4 Z M 137.1,300.0 L 137.9,284.3 L 88.7,273.4 Z M 137.1,300.0 L 88.7,273.4 L 80.2,289.9 Z M 184.4,262.2 L 137.9,284.3 L 137.1,300.0 Z M 184.4,262.2 L 137.1,300.0 L 188.6,277.2 Z M 259.3,232.9 L 223.5,178.5 L 207.3,178.7 Z M 259.3,232.9 L 207.3,178.7 L 242.1,232.7 Z M 228.5,266.4 L 237.7,280.8 L 259.3,232.9 Z M 228.5,266.4 L 259.3,232.9 L 242.1,232.7 Z M 194.3,116.5 L 220.4,140.3 L 235.3,137.2 Z M 194.3,116.5 L 235.3,137.2 L 196.5,100.7 Z M 235.3,137.2 L 220.4,140.3 L 207.3,178.7 Z M 235.3,137.2 L 207.3,178.7 L 223.5,178.5 Z M 204.9,224.4 L 191.1,212.1 L 167.2,214.4 Z M 204.9,224.4 L 167.2,214.4 L 159.8,228.5 Z M 204.9,224.4 L 207.3,178.7 L 190.4,186.7 Z M 204.9,224.4 L 190.4,186.7 L 191.1,212.1 Z M 80.2,289.9 L 88.7,273.4 L 77.0,244.3 Z M 80.2,289.9 L 77.0,244.3 L 59.2,244.7 Z M 167.2,214.4 L 140.8,183.3 L 133.8,199.5 Z M 167.2,214.4 L 133.8,199.5 L 159.8,228.5 Z M 156.4,168.6 L 172.3,161.4 L 176.5,125.0 Z M 156.4,168.6 L 176.5,125.0 L 164.8,116.6 Z M 176.5,125.0 L 194.3,116.5 L 196.5,100.7 Z M 176.5,125.0 L 196.5,100.7 L 164.8,116.6 Z M 95.5,203.6 L 84.2,188.6 L 59.2,244.7 Z M 95.5,203.6 L 59.2,244.7 L 77.0,244.3 Z M 140.8,183.3 L 84.2,188.6 L 95.5,203.6 Z M 140.8,183.3 L 95.5,203.6 L 133.8,199.5 Z M 237.7,280.8 L 228.5,266.4 L 184.4,262.2 Z M 237.7,280.8 L 184.4,262.2 L 188.6,277.2 Z" fill="#2a2a4e" stroke="none"/>
  <path d="M 20.0,280.8 L 39.1,300.0 M 28.0,237.6 L 20.0,280.8 M 20.0,153.1 L 28.0,237.6 M 43.9,122.9 L 20.0,153.1 M 134.9,111.0 L 72.6,122.9 M 235.3,137.2 L 235.3,79.8 M 235.3,79.8 L 216.2,60.7 M 216.2,60.7 L 158.8,60.7 M 39.1,300.0 L 80.2,289.9 M 158.8,60.7 L 134.9,111.0 M 72.6,122.9 L 72.6,60.7 M 43.9,60.7 L 43.9,122.9 M 72.6,60.7 L 80.2,20.0 M 80.2,20.0 L 51.5,20.0 M 51.5,20.0 L 43.9,60.7 M 235.3,84.6 L 235.3,113.3 M 235.3,113.3 L 310.7,113.3 M 310.7,84.6 L 235.3,84.6 M 310.7,113.3 L 380.0,74.1 M 380.0,74.1 L 380.0,45.4 M 380.0,45.4 L 310.7,84.6 M 80.2,289.9 L 137.1,300.0 M 137.1,300.0 L 188.6,277.2 M 259.3,232.9 L 223.5,178.5 M 237.7,280.8 L 259.3,232.9 M 223.5,178.5 L 235.3,137.2 M 188.6,277.2 L 237.7,280.8" fill="none" stroke="white" stroke-width="2" stroke-linecap="round"/>
  <polygon points="58.72869157303591,112.05767590377184 66.72869157303592,120.05767590377184 58.72869157303591,128.05767590377184 50.72869157303591,120.05767590377184" fill="#4a9eff" stroke="white" stroke-width="1"/>
<polygon points="235.70793086614526,90.98217347984688 243.70793086614526,98.98217347984688 235.70793086614526,106.98217347984688 227.70793086614526,98.98217347984688" fill="#4a9eff" stroke="white" stroke-width="1"/>
</svg>