<svg xmlns="http://www.w3.org/2000/svg" viewBox="0 0 400 400">
  <rect width="400" height="400" fill="#1a1a2e"/>
  <path d="M 149.3,176.5 L 140.9,126.5 L 121.7,136.1 Z M 149.3,176.5 L 121.7,136.1 L 126.7,154.9 Z M 187.7,158.8 L 174.7,127.8 L 140.9,126.5 Z M 187.7,158.8 L 140.9,126.5 L 179.3,174.7 Z M 155.9,210.2 L 145.6,205.7 L 145.8,237.8 Z M 155.9,210.2 L 145.8,237.8 L 158.7,224.0 Z M 73.2,235.3 L 52.1,248.3 L 52.0,261.8 Z M 73.2,235.3 L 52.0,261.8 L 73.9,266.6 Z M 73.2,235.3 L 73.9,266.6 L 120.1,239.6 Z M 145.6,205.7 L 120.1,239.6 L 145.8,237.8 Z M 140.9,126.5 L 149.3,176.5 L 179.3,174.7 Z M 38.7,243.1 L 71.4,223.0 L 57.0,188.8 Z M 38.7,243.1 L 57.0,188.8 L 20.0,190.7 Z M 20.0,190.7 L 57.0,188.8 L 72.6,170.0 Z M 20.0,190.7 L 72.6,170.0 L 20.0,163.0 Z M 43.7,133.7 L 72.6,170.0 L 103.6,131.7 Z M 43.7,133.7 L 103.6,131.7 L 73.6,119.6 Z M 113.5,160.2 L 103.6,131.7 L 72.6,170.0 Z M 20.0,163.0 L 72.6,170.0 L 43.7,133.7 Z M 142.2,190.0 L 175.1,201.3 L 188.6,188.2 Z M 153.0,252.5 L 130.5,252.5 L 130.5,295.6 Z M 153.0,252.5 L 130.5,295.6 L 153.0,295.6 Z M 153.0,295.6 L 130.5,295.6 L 105.4,335.9 Z M 153.0,295.6 L 105.4,335.9 L 125.4,335.9 Z M 125.4,335.9 L 105.4,335.9 L 112.1,380.0 Z M 125.4,335.9 L 112.1,380.0 L 127.7,368.7 Z M 166.1,115.7 L 166.1,61.4 L 143.7,53.9 Z M 166.1,115.7 L 143.7,53.9 L 143.7,115.7 Z M 143.7,53.9 L 166.1,61.4 L 189.6,37.8 Z M 143.7,53.9 L 189.6,37.8 L 181.2,20.0 Z M 153.0,252.5 L 145.8,237.8 L 120.1,239.6 Z M 153.0,252.5 L 120.1,239.6 L 124.9,252.5 Z M 124.9,252.5 L 120.1,239.6 L 73.9,266.6 Z M 124.9,252.5 L 73.9,266.6 L 74.3,282.5 Z M 71.4,223.0 L 73.2,235.3 L 120.1,239.6 Z M 71.4,223.0 L 120.1,239.6 L 115.5,225.1 Z M 38.7,269.4 L 52.0,261.8 L 52.1,248.3 Z M 38.7,269.4 L 52.1,248.3 L 38.7,243.1 Z M 142.2,190.0 L 188.6,188.2 L 179.3,174.7 Z M 142.2,190.0 L 179.3,174.7 L 149.3,176.5 Z M 145.6,205.7 L 155.9,210.2 L 175.1,201.3 Z M 145.6,205.7 L 175.1,201.3 L 142.2,190.0 Z M 174.7,127.8 L 187.7,158.8 L 201.7,158.5 Z M 174.7,127.8 L 201.7,158.5 L 188.6,128.8 Z M 140.9,126.5 L 134.3,115.7 L 103.6,131.7 Z M 140.9,126.5 L 103.6,131.7 L 121.7,136.1 Z M 103.6,131.7 L 113.5,160.2 L 126.7,154.9 Z M 103.6,131.7 L 126.7,154.9 L 121.7,136.1 Z M 113.5,160.2 L 142.2,190.0 L 149.3,176.5 Z M 113.5,160.2 L 149.3,176.5 L 126.7,154.9 Z M 174.7,127.8 L 175.5,115.7 L 134.3,115.7 Z M 174.7,127.8 L 134.3,115.7 L 140.9,126.5 Z M 120.1,239.6 L 145.6,205.7 L 142.2,190.0 Z M 120.1,239.6 L 142.2,190.0 L 115.5,225.1 Z M 175.1,201.3 L 155.9,210.2 L 158.7,224.0 Z M 175.1,201.3 L 158.7,224.0 L 172.1,226.9 Z M 52.0,261.8 L 38.7,269.4 L 74.3,282.5 Z M 52.0,261.8 L 74.3,282.5 L 73.9,266.6 Z M 38.7,243.1 L 52.1,248.3 L 73.2,235.3 Z M 38.7,243.1 L 73.2,235.3 L 71.4,223.0 Z M 158.7,224.0 L 145.8,237.8 L 153.0,252.5 Z M 158.7,224.0 L 153.0,252.5 L 172.1,226.9 Z M 187.7,158.8 L 179.3,174.7 L 188.6,188.2 Z M 187.7,158.8 L 188.6,188.2 L 201.7,158.5 Z M 188.6,128.8 L 175.5,115.7 L 174.7,127.8 Z" fill="#2a2a4e" stroke="none"/>
  <path d="M 71.4,223.0 L 57.0,188.8 M 20.0,190.7 L 38.7,243.1 M 57.0,188.8 L 72.6,170.0 M 20.0,163.0 L 20.0,190.7 M 103.6,131.7 L 73.6,119.6 M 73.6,119.6 L 43.7,133.7 M 72.6,170.0 L 113.5,160.2 M 43.7,133.7 L 20.0,163.0 M 175.1,201.3 L 188.6,188.2 M 153.0,252.5 L 130.5,252.5 M 130.5,252.5 L 130.5,295.6 M 153.0,295.6 L 153.0,252.5 M 130.5,295.6 L 105.4,335.9 M 125.4,335.9 L 153.0,295.6 M 105.4,335.9 L 112.1,380.0 M 112.1,380.0 L 127.7,368.7 M 127.7,368.7 L 125.4,335.9 M 166.1,115.7 L 166.1,61.4 M 143.7,53.9 L 143.7,115.7 M 143.7,115.7 L 166.1,115.7 M 166.1,61.4 L 189.6,37.8 M 189.6,37.8 L 181.2,20.0 M 181.2,20.0 L 143.7,53.9 M 124.9,252.5 L 153.0,252.5 M 74.3,282.5 L 124.9,252.5 M 115.5,225.1 L 71.4,223.0 M 38.7,243.1 L 38.7,269.4 M 201.7,158.5 L 188.6,128.8 M 134.3,115.7 L 103.6,131.7 M 113.5,160.2 L 142.2,190.0 M 175.5,115.7 L 134.3,115.7 M 142.2,190.0 L 115.5,225.1 M 172.1,226.9 L 175.1,201.3 M 38.7,269.4 L 74.3,282.5 M 153.0,252.5 L 172.1,226.9 M 188.6,188.2 L 201.7,158.5 M 188.6,128.8 L 175.5,115.7" fill="none" stroke="white" stroke-width="2" stroke-linecap="round"/>
  <polygon points="141.08890789783925,245.598972310621 149.08890789783925,253.598972310621 141.08890789783925,261.598972310621 133.08890789783925,253.598972310621" fill="#4a9eff" stroke="white" stroke-width="1"/>
<polygon points="155.41384550534647,104.5186871518486 163.41384550534647,112.5186871518486 155.41384550534647,120.5186871518486 147.41384550534647,112.5186871518486" fill="#4a9eff" stroke="white" stroke-width="1"/>
</svg>