<svg xmlns="http://www.w3.org/2000/svg" viewBox="0 0 400 400">
  <rect width="400" height="400" fill="#1a1a2e"/>
  <path d="M 199.7,124.3 L 197.3,147.4 L 232.4,155.0 Z M 199.7,124.3 L 232.4,155.0 L 228.5,120.3 Z M 228.5,120.3 L 232.4,155.0 L 256.7,146.1 Z M 228.5,120.3 L 256.7,146.1 L 251.0,131.4 Z M 289.7,106.5 L 316.0,106.5 L 297.2,72.6 Z M 289.7,106.5 L 297.2,72.6 L 270.9,72.6 Z M 270.9,72.6 L 297.2,72.6 L 297.2,31.3 Z M 270.9,72.6 L 297.2,31.3 L 282.2,20.0 Z M 262.8,120.2 L 316.0,131.0 L 289.7,106.5 Z M 316.0,131.0 L 316.0,106.5 L 289.7,106.5 Z M 232.1,167.9 L 182.1,157.2 L 201.3,200.6 Z M 182.1,157.2 L 150.5,183.6 L 201.3,200.6 Z M 201.3,200.6 L 150.5,183.6 L 159.9,200.6 Z M 240.4,66.2 L 270.9,72.6 L 257.4,20.0 Z M 240.4,66.2 L 257.4,20.0 L 240.3,51.1 Z M 316.0,131.0 L 262.8,120.2 L 272.8,155.4 Z M 316.0,131.0 L 272.8,155.4 L 299.1,155.4 Z M 186.6,112.8 L 150.5,148.5 L 150.5,183.6 Z M 186.6,112.8 L 150.5,183.6 L 182.1,157.2 Z M 270.9,72.6 L 282.2,20.0 L 257.4,20.0 Z M 232.1,167.9 L 232.4,155.0 L 197.3,147.4 Z M 232.1,167.9 L 197.3,147.4 L 182.1,157.2 Z M 256.7,146.1 L 272.8,155.4 L 262.8,120.2 Z M 256.7,146.1 L 262.8,120.2 L 251.0,131.4 Z M 228.5,120.3 L 230.4,105.1 L 186.6,112.8 Z M 228.5,120.3 L 186.6,112.8 L 199.7,124.3 Z M 197.3,147.4 L 199.7,124.3 L 186.6,112.8 Z M 197.3,147.4 L 186.6,112.8 L 182.1,157.2 Z M 256.7,146.1 L 232.4,155.0 L 232.1,167.9 Z M 256.7,146.1 L 232.1,167.9 L 272.8,155.4 Z M 251.0,131.4 L 262.8,120.2 L 230.4,105.1 Z M 251.0,131.4 L 230.4,105.1 L 228.5,120.3 Z M 150.5,181.8 L 150.5,159.2 L 122.3,159.2 Z M 150.5,181.8 L 122.3,159.2 L 122.3,181.8 Z M 122.3,181.8 L 122.3,159.2 L 36.8,118.0 Z M 122.3,181.8 L 36.8,118.0 L 20.0,126.7 Z M 297.2,155.4 L 274.6,155.4 L 274.6,206.2 Z M 297.2,155.4 L 274.6,206.2 L 297.2,206.2 Z M 297.2,206.2 L 274.6,206.2 L 312.7,301.0 Z M 297.2,206.2 L 312.7,301.0 L 335.2,301.0 Z M 380.0,63.2 L 366.8,40.7 L 297.2,40.7 Z M 380.0,63.2 L 297.2,40.7 L 297.2,63.2 Z" fill="#2a2a4e" stroke="none"/>
  <path d="M 316.0,106.5 L 297.2,72.6 M 270.9,72.6 L 289.7,106.5 M 297.2,72.6 L 297.2,31.3 M 297.2,31.3 L 282.2,20.0 M 289.7,106.5 L 262.8,120.2 M 316.0,131.0 L 316.0,106.5 M 201.3,200.6 L 232.1,167.9 M 150.5,183.6 L 159.9,200.6 M 159.9,200.6 L 201.3,200.6 M 240.4,66.2 L 270.9,72.6 M 257.4,20.0 L 240.3,51.1 M 240.3,51.1 L 240.4,66.2 M 272.8,155.4 L 299.1,155.4 M 299.1,155.4 L 316.0,131.0 M 186.6,112.8 L 150.5,148.5 M 150.5,148.5 L 150.5,183.6 M 282.2,20.0 L 257.4,20.0 M 230.4,105.1 L 186.6,112.8 M 232.1,167.9 L 272.8,155.4 M 262.8,120.2 L 230.4,105.1 M 150.5,181.8 L 150.5,159.2 M 150.5,159.2 L 122.3,159.2 M 122.3,181.8 L 150.5,181.8 M 122.3,159.2 L 36.8,118.0 M 36.8,118.0 L 20.0,126.7 M 20.0,126.7 L 122.3,181.8 M 297.2,155.4 L 274.6,155.4 M 274.6,155.4 L 274.6,206.2 M 297.2,206.2 L 297.2,155.4 M 274.6,206.2 L 312.7,301.0 M 312.7,301.0 L 335.2,301.0 M 335.2,301.0 L 297.2,206.2 M 380.0,63.2 L 366.8,40.7 M 366.8,40.7 L 297.2,40.7 M 297.2,40.7 L 297.2,63.2 M 297.2,63.2 L 380.0,63.2" fill="none" stroke="white" stroke-width="2" stroke-linecap="round"/>
  <polygon points="286.2868576883308,148.80396561195823 294.2868576883308,156.80396561195823 286.2868576883308,164.80396561195823 278.2868576883308,156.80396561195823" fill="#4a9eff" stroke="white" stroke-width="1"/>
<polygon points="299.26055019892885,43.592846977186596 307.26055019892885,51.592846977186596 299.26055019892885,59.592846977186596 291.26055019892885,51.592846977186596" fill="#4a9eff" stroke="white" stroke-width="1"/>
<polygon points="149.21176131761592,162.55839504768866 157.21176131761592,170.55839504768866 149.21176131761592,178.55839504768866 141.21176131761592,170.55839504768866" fill="#4a9eff" stroke="white" stroke-width="1"/>
</svg>