<svg xmlns="http://www.w3.org/2000/svg" viewBox="0 0 400 400">
  <rect width="400" height="400" fill="#1a1a2e"/>
  <path d="M 251.5,92.4 L 226.5,73.5 L 213.5,100.5 Z M 251.5,92.4 L 213.5,100.5 L 251.5,121.7 Z M 251.5,121.7 L 213.5,100.5 L 197.6,111.3 Z M 251.5,121.7 L 197.6,111.3 L 214.2,150.0 Z M 184.7,29.4 L 167.7,33.1 L 152.2,45.1 Z M 184.7,29.4 L 152.2,45.1 L 201.9,54.4 Z M 201.9,54.4 L 152.2,45.1 L 180.9,91.6 Z M 201.9,54.4 L 180.9,91.6 L 203.1,73.2 Z M 203.1,73.2 L 180.9,91.6 L 197.6,111.3 Z M 203.1,73.2 L 197.6,111.3 L 213.5,100.5 Z M 232.8,158.7 L 251.5,149.0 L 251.5,121.7 Z M 232.8,158.7 L 251.5,121.7 L 214.2,150.0 Z M 158.7,88.3 L 180.9,91.6 L 152.2,45.1 Z M 158.7,88.3 L 152.2,45.1 L 147.9,69.5 Z M 203.1,73.2 L 213.5,100.5 L 226.5,73.5 Z M 209.9,52.4 L 210.8,66.0 L 230.5,65.8 Z M 209.9,52.4 L 230.5,65.8 L 237.3,56.3 Z M 177.4,98.8 L 152.2,95.0 L 139.6,98.4 Z M 177.4,98.8 L 139.6,98.4 L 149.3,115.3 Z M 160.8,26.8 L 144.8,20.0 L 130.7,35.1 Z M 160.8,26.8 L 130.7,35.1 L 145.0,41.5 Z M 139.6,69.1 L 139.6,98.4 L 152.2,95.0 Z M 191.0,115.3 L 177.4,98.8 L 149.3,115.3 Z M 139.6,69.1 L 145.0,41.5 L 130.7,35.1 Z M 144.8,20.0 L 160.8,26.8 L 187.9,20.0 Z M 260.5,86.0 L 237.3,56.3 L 230.5,65.8 Z M 139.6,69.1 L 147.9,69.5 L 152.2,45.1 Z M 139.6,69.1 L 152.2,45.1 L 145.0,41.5 Z M 145.0,41.5 L 152.2,45.1 L 167.7,33.1 Z M 145.0,41.5 L 167.7,33.1 L 160.8,26.8 Z M 260.5,86.0 L 251.5,92.4 L 251.5,121.7 Z M 260.5,86.0 L 251.5,121.7 L 260.5,121.7 Z M 260.5,121.7 L 251.5,121.7 L 251.5,149.0 Z M 260.5,121.7 L 251.5,149.0 L 260.5,155.6 Z M 187.9,20.0 L 184.7,29.4 L 201.9,54.4 Z M 187.9,20.0 L 201.9,54.4 L 209.9,52.4 Z M 197.6,111.3 L 191.0,115.3 L 207.6,159.1 Z M 197.6,111.3 L 207.6,159.1 L 214.2,150.0 Z M 180.9,91.6 L 177.4,98.8 L 191.0,115.3 Z M 180.9,91.6 L 191.0,115.3 L 197.6,111.3 Z M 226.5,73.5 L 251.5,92.4 L 260.5,86.0 Z M 226.5,73.5 L 260.5,86.0 L 230.5,65.8 Z M 232.8,158.7 L 214.2,150.0 L 207.6,159.1 Z M 232.8,158.7 L 207.6,159.1 L 234.1,167.9 Z M 152.2,95.0 L 158.7,88.3 L 147.9,69.5 Z M 152.2,95.0 L 147.9,69.5 L 139.6,69.1 Z M 180.9,91.6 L 158.7,88.3 L 152.2,95.0 Z M 180.9,91.6 L 152.2,95.0 L 177.4,98.8 Z M 167.7,33.1 L 184.7,29.4 L 187.9,20.0 Z M 167.7,33.1 L 187.9,20.0 L 160.8,26.8 Z M 260.5,155.6 L 251.5,149.0 L 232.8,158.7 Z M 260.5,155.6 L 232.8,158.7 L 234.1,167.9 Z M 203.1,73.2 L 210.8,66.0 L 209.9,52.4 Z M 203.1,73.2 L 209.9,52.4 L 201.9,54.4 Z M 226.5,73.5 L 230.5,65.8 L 210.8,66.0 Z M 226.5,73.5 L 210.8,66.0 L 203.1,73.2 Z M 139.6,95.6 L 139.6,77.5 L 83.6,77.5 Z M 139.6,95.6 L 83.6,77.5 L 83.6,95.6 Z M 83.6,95.6 L 83.6,77.5 L 32.4,48.3 Z M 83.6,95.6 L 32.4,48.3 L 20.0,56.4 Z M 260.5,121.3 L 315.0,121.3 L 315.0,103.2 Z M 260.5,121.3 L 315.0,103.2 L 260.5,103.2 Z M 150.1,115.3 L 150.1,207.5 L 168.3,207.5 Z M 150.1,115.3 L 168.3,207.5 L 168.3,115.3 Z M 315.0,121.3 L 380.0,65.5 L 380.0,47.4 Z M 315.0,121.3 L 380.0,47.4 L 315.0,103.2 Z" fill="#2a2a4e" stroke="none"/>
  <path d="M 237.3,56.3 L 209.9,52.4 M 139.6,98.4 L 149.3,115.3 M 144.8,20.0 L 130.7,35.1 M 139.6,69.1 L 139.6,98.4 M 149.3,115.3 L 191.0,115.3 M 130.7,35.1 L 139.6,69.1 M 187.9,20.0 L 144.8,20.0 M 260.5,86.0 L 237.3,56.3 M 260.5,121.7 L 260.5,86.0 M 260.5,155.6 L 260.5,121.7 M 209.9,52.4 L 187.9,20.0 M 191.0,115.3 L 207.6,159.1 M 207.6,159.1 L 234.1,167.9 M 234.1,167.9 L 260.5,155.6 M 139.6,95.6 L 139.6,77.5 M 139.6,77.5 L 83.6,77.5 M 83.6,95.6 L 139.6,95.6 M 83.6,77.5 L 32.4,48.3 M 32.4,48.3 L 20.0,56.4 M 20.0,56.4 L 83.6,95.6 M 260.5,121.3 L 315.0,121.3 M 315.0,103.2 L 260.5,103.2 M 260.5,103.2 L 260.5,121.3 M 150.1,115.3 L 150.1,207.5 M 150.1,207.5 L 168.3,207.5 M 168.3,207.5 L 168.3,115.3 M 168.3,115.3 L 150.1,115.3 M 315.0,121.3 L 380.0,65.5 M 380.0,65.5 L 380.0,47.4 M 380.0,47.4 L 315.0,103.2" fill="none" stroke="white" stroke-width="2" stroke-linecap="round"/>
  <polygon points="159.62840581422503,108.46100806797304 167.62840581422503,116.46100806797304 159.62840581422503,124.46100806797304 151.62840581422503,116.46100806797304" fill="#4a9eff" stroke="white" stroke-width="1"/>
<polygon points="138.18440456057252,79.96029879417785 146.18440456057252,87.96029879417785 138.18440456057252,95.96029879417785 130.18440456057252,87.96029879417785" fill="#4a9eff" stroke="white" stroke-width="1"/>
<polygon points="260.2556470880228,104.30948607827848 268.2556470880228,112.30948607827848 260.2556470880228,120.30948607827848 252.25564708802278,112.30948607827848" fill="#4a9eff" stroke="white" stroke-width="1"/>
</svg>