<svg xmlns="http://www.w3.org/2000/svg" viewBox="0 0 400 400">
  <rect width="400" height="400" fill="#1a1a2e"/>
  <path d="M 135.0,115.7 L 113.2,41.7 L 70.2,71.4 Z M 135.0,115.7 L 70.2,71.4 L 67.6,100.0 Z M 176.2,111.6 L 187.8,73.9 L 155.7,41.7 Z M 176.2,111.6 L 155.7,41.7 L 113.2,41.7 Z M 135.0,115.7 L 45.7,142.6 L 63.3,174.3 Z M 135.0,115.7 L 63.3,174.3 L 101.3,166.6 Z M 135.0,115.7 L 176.2,111.6 L 113.2,41.7 Z M 135.0,115.7 L 67.6,100.0 L 45.7,142.6 Z M 251.3,354.2 L 288.8,326.1 L 288.8,207.3 Z M 251.3,354.2 L 288.8,207.3 L 251.3,207.3 Z M 251.3,207.3 L 288.8,207.3 L 288.8,113.6 Z M 251.3,207.3 L 288.8,113.6 L 251.3,151.1 Z M 288.8,326.1 L 251.3,354.2 L 380.0,342.0 Z M 288.8,326.1 L 380.0,342.0 L 380.0,317.0 Z M 288.8,113.6 L 204.4,113.6 L 204.4,151.1 Z M 288.8,113.6 L 204.4,151.1 L 251.3,151.1 Z M 20.0,144.8 L 20.0,207.3 L 53.9,198.7 Z M 20.0,207.3 L 45.0,232.3 L 53.9,198.7 Z M 204.4,69.4 L 189.8,130.6 L 204.4,153.5 Z M 189.8,130.6 L 154.4,188.5 L 204.4,153.5 Z M 45.0,232.3 L 116.9,232.3 L 114.7,184.3 Z M 45.0,232.3 L 114.7,184.3 L 53.9,198.7 Z M 189.8,130.6 L 148.5,138.6 L 114.7,184.3 Z M 189.8,130.6 L 114.7,184.3 L 154.4,188.5 Z M 116.9,232.3 L 154.4,188.5 L 114.7,184.3 Z M 103.8,20.0 L 113.2,41.7 L 155.7,41.7 Z M 103.8,20.0 L 155.7,41.7 L 167.3,20.0 Z M 113.2,41.7 L 103.8,20.0 L 52.0,55.8 Z M 113.2,41.7 L 52.0,55.8 L 70.2,71.4 Z M 67.6,100.0 L 70.2,71.4 L 52.0,55.8 Z M 67.6,100.0 L 52.0,55.8 L 44.9,100.2 Z M 63.3,174.3 L 45.7,142.6 L 20.0,144.8 Z M 63.3,174.3 L 20.0,144.8 L 53.9,198.7 Z M 20.0,144.8 L 45.7,142.6 L 67.6,100.0 Z M 20.0,144.8 L 67.6,100.0 L 44.9,100.2 Z M 167.3,20.0 L 155.7,41.7 L 187.8,73.9 Z M 167.3,20.0 L 187.8,73.9 L 204.4,69.4 Z M 176.2,111.6 L 135.0,115.7 L 148.5,138.6 Z M 176.2,111.6 L 148.5,138.6 L 189.8,130.6 Z M 148.5,138.6 L 135.0,115.7 L 101.3,166.6 Z M 148.5,138.6 L 101.3,166.6 L 114.7,184.3 Z M 101.3,166.6 L 63.3,174.3 L 53.9,198.7 Z M 101.3,166.6 L 53.9,198.7 L 114.7,184.3 Z M 176.2,111.6 L 189.8,130.6 L 204.4,69.4 Z M 176.2,111.6 L 204.4,69.4 L 187.8,73.9 Z" fill="#2a2a4e" stroke="none"/>
  <path d="M 288.8,326.1 L 288.8,207.3 M 251.3,207.3 L 251.3,354.2 M 288.8,207.3 L 288.8,113.6 M 251.3,151.1 L 251.3,207.3 M 251.3,354.2 L 380.0,342.0 M 380.0,342.0 L 380.0,317.0 M 380.0,317.0 L 288.8,326.1 M 288.8,113.6 L 204.4,113.6 M 204.4,113.6 L 204.4,151.1 M 204.4,151.1 L 251.3,151.1 M 20.0,144.8 L 20.0,207.3 M 20.0,207.3 L 45.0,232.3 M 204.4,153.5 L 204.4,69.4 M 154.4,188.5 L 204.4,153.5 M 45.0,232.3 L 116.9,232.3 M 116.9,232.3 L 154.4,188.5 M 167.3,20.0 L 103.8,20.0 M 103.8,20.0 L 52.0,55.8 M 52.0,55.8 L 44.9,100.2 M 44.9,100.2 L 20.0,144.8 M 204.4,69.4 L 167.3,20.0" fill="none" stroke="white" stroke-width="2" stroke-linecap="round"/>
  <polygon points="206.35262602340197,124.0898890810958 214.35262602340197,132.0898890810958 206.35262602340197,140.0898890810958 198.35262602340197,132.0898890810958" fill="#4a9eff" stroke="white" stroke-width="1"/>
</svg>