<svg xmlns="http://www.w3.org/2000/svg" viewBox="0 0 400 400">
  <rect width="400" height="400" fill="#1a1a2e"/>
  <path d="M 77.7,186.1 L 39.8,187.2 L 68.7,242.8 Z M 77.7,186.1 L 68.7,242.8 L 117.3,233.0 Z M 117.3,233.0 L 68.7,242.8 L 77.4,268.1 Z M 117.3,233.0 L 77.4,268.1 L 152.3,283.9 Z M 39.8,187.2 L 77.7,186.1 L 54.0,144.0 Z M 77.7,186.1 L 97.2,138.2 L 54.0,144.0 Z M 54.0,144.0 L 97.2,138.2 L 83.7,123.0 Z M 168.5,183.1 L 157.4,218.1 L 187.5,240.2 Z M 157.4,218.1 L 170.8,284.2 L 187.5,240.2 Z M 152.3,283.9 L 170.8,284.2 L 157.4,218.1 Z M 152.3,283.9 L 157.4,218.1 L 117.3,233.0 Z M 187.5,240.2 L 231.4,212.9 L 196.5,165.7 Z M 187.5,240.2 L 196.5,165.7 L 168.5,183.1 Z M 196.5,165.7 L 231.4,212.9 L 230.5,178.2 Z M 250.1,223.7 L 200.4,253.3 L 240.8,267.5 Z M 200.4,253.3 L 184.2,302.0 L 240.8,267.5 Z M 121.5,209.4 L 139.7,205.6 L 99.5,184.7 Z M 139.7,205.6 L 150.2,174.9 L 99.5,184.7 Z M 99.5,184.7 L 150.2,174.9 L 120.8,134.2 Z M 150.2,174.9 L 196.6,148.5 L 120.8,134.2 Z M 193.6,110.2 L 124.2,98.0 L 120.8,134.2 Z M 193.6,110.2 L 120.8,134.2 L 196.6,148.5 Z M 148.2,380.0 L 184.2,380.0 L 184.2,302.0 Z M 148.2,380.0 L 184.2,302.0 L 148.2,302.0 Z M 124.2,98.0 L 124.2,39.5 L 88.2,39.5 Z M 124.2,98.0 L 88.2,39.5 L 88.2,98.0 Z M 250.2,168.4 L 193.6,110.2 L 196.6,148.5 Z M 124.2,98.0 L 88.2,98.0 L 120.8,134.2 Z M 65.2,282.1 L 148.2,302.0 L 152.3,283.9 Z M 65.2,282.1 L 152.3,283.9 L 77.4,268.1 Z M 148.2,302.0 L 184.2,302.0 L 170.8,284.2 Z M 148.2,302.0 L 170.8,284.2 L 152.3,283.9 Z M 196.6,148.5 L 196.5,165.7 L 230.5,178.2 Z M 196.6,148.5 L 230.5,178.2 L 250.2,168.4 Z M 250.2,168.4 L 230.5,178.2 L 231.4,212.9 Z M 250.2,168.4 L 231.4,212.9 L 250.1,223.7 Z M 54.0,144.0 L 83.7,123.0 L 88.2,98.0 Z M 54.0,144.0 L 88.2,98.0 L 41.2,130.9 Z M 39.8,187.2 L 20.0,189.4 L 54.5,249.0 Z M 39.8,187.2 L 54.5,249.0 L 68.7,242.8 Z M 41.2,130.9 L 20.0,189.4 L 39.8,187.2 Z M 41.2,130.9 L 39.8,187.2 L 54.0,144.0 Z M 54.5,249.0 L 65.2,282.1 L 77.4,268.1 Z M 54.5,249.0 L 77.4,268.1 L 68.7,242.8 Z M 231.4,212.9 L 187.5,240.2 L 200.4,253.3 Z M 231.4,212.9 L 200.4,253.3 L 250.1,223.7 Z M 200.4,253.3 L 187.5,240.2 L 170.8,284.2 Z M 200.4,253.3 L 170.8,284.2 L 184.2,302.0 Z M 121.5,209.4 L 99.5,184.7 L 77.7,186.1 Z M 121.5,209.4 L 77.7,186.1 L 117.3,233.0 Z M 157.4,218.1 L 139.7,205.6 L 121.5,209.4 Z M 157.4,218.1 L 121.5,209.4 L 117.3,233.0 Z M 120.8,134.2 L 97.2,138.2 L 77.7,186.1 Z M 120.8,134.2 L 77.7,186.1 L 99.5,184.7 Z M 150.2,174.9 L 139.7,205.6 L 157.4,218.1 Z M 150.2,174.9 L 157.4,218.1 L 168.5,183.1 Z M 97.2,138.2 L 120.8,134.2 L 88.2,98.0 Z M 97.2,138.2 L 88.2,98.0 L 83.7,123.0 Z M 168.5,183.1 L 196.5,165.7 L 196.6,148.5 Z M 168.5,183.1 L 196.6,148.5 L 150.2,174.9 Z M 124.2,39.5 L 124.2,20.0 L 88.2,20.0 Z M 124.2,39.5 L 88.2,20.0 L 88.2,39.5 Z" fill="#2a2a4e" stroke="none"/>
  <path d="M 240.8,267.5 L 250.1,223.7 M 184.2,302.0 L 240.8,267.5 M 193.6,110.2 L 124.2,98.0 M 148.2,380.0 L 184.2,380.0 M 184.2,380.0 L 184.2,302.0 M 148.2,302.0 L 148.2,380.0 M 124.2,98.0 L 124.2,39.5 M 88.2,39.5 L 88.2,98.0 M 250.2,168.4 L 193.6,110.2 M 65.2,282.1 L 148.2,302.0 M 250.1,223.7 L 250.2,168.4 M 88.2,98.0 L 41.2,130.9 M 20.0,189.4 L 54.5,249.0 M 41.2,130.9 L 20.0,189.4 M 54.5,249.0 L 65.2,282.1 M 124.2,39.5 L 124.2,20.0 M 124.2,20.0 L 88.2,20.0 M 88.2,20.0 L 88.2,39.5" fill="none" stroke="white" stroke-width="2" stroke-linecap="round"/>
  <polygon points="106.73643123117128,67.09674398873396 114.73643123117128,75.09674398873396 106.73643123117128,83.09674398873396 98.73643123117128,75.09674398873396" fill="#4a9eff" stroke="white" stroke-width="1"/>
<polygon points="167.29191667086164,297.27489521136533 175.29191667086164,305.27489521136533 167.29191667086164,313.27489521136533 159.29191667086164,305.27489521136533" fill="#4a9eff" stroke="white" stroke-width="1"/>
</svg>