<svg xmlns="http://www.w3.org/2000/svg" viewBox="0 0 400 400">
  <rect width="400" height="400" fill="#1a1a2e"/>
  <path d="M 175.4,162.0 L 151.1,191.3 L 160.6,210.3 Z M 151.1,191.3 L 151.1,218.7 L 160.6,210.3 Z M 248.6,77.1 L 230.3,58.9 L 218.3,75.0 Z M 248.6,77.1 L 218.3,75.0 L 215.7,100.1 Z M 175.4,162.0 L 160.6,210.3 L 190.3,203.5 Z M 175.4,162.0 L 190.3,203.5 L 200.5,178.1 Z M 70.3,118.3 L 42.9,118.3 L 20.0,147.2 Z M 70.3,118.3 L 20.0,147.2 L 57.5,167.4 Z M 38.3,287.4 L 64.9,237.9 L 27.6,227.9 Z M 38.3,287.4 L 27.6,227.9 L 20.0,269.1 Z M 64.9,237.9 L 38.3,287.4 L 77.5,282.4 Z M 248.6,132.0 L 248.6,77.1 L 215.7,100.1 Z M 103.9,140.6 L 70.3,118.3 L 57.5,167.4 Z M 82.5,256.4 L 107.3,217.2 L 108.1,194.5 Z M 82.5,256.4 L 108.1,194.5 L 74.0,232.0 Z M 74.0,232.0 L 108.1,194.5 L 97.1,155.7 Z M 74.0,232.0 L 97.1,155.7 L 59.3,178.9 Z M 212.6,171.6 L 234.3,135.0 L 205.5,105.7 Z M 212.6,171.6 L 205.5,105.7 L 184.1,152.9 Z M 184.1,152.9 L 205.5,105.7 L 146.7,82.5 Z M 184.1,152.9 L 146.7,82.5 L 146.4,104.1 Z M 212.6,171.6 L 199.2,214.0 L 213.9,225.5 Z M 199.2,214.0 L 194.0,255.4 L 213.9,225.5 Z M 164.1,221.5 L 172.1,253.0 L 194.0,255.4 Z M 164.1,221.5 L 194.0,255.4 L 199.2,214.0 Z M 146.7,82.5 L 205.5,105.7 L 206.6,70.7 Z M 146.7,82.5 L 206.6,70.7 L 158.6,70.8 Z M 37.8,220.6 L 74.0,232.0 L 59.3,178.9 Z M 37.8,220.6 L 59.3,178.9 L 32.5,165.6 Z M 175.4,162.0 L 184.1,152.9 L 146.4,104.1 Z M 175.4,162.0 L 146.4,104.1 L 134.3,109.3 Z M 134.3,109.3 L 146.4,104.1 L 146.7,82.5 Z M 134.3,109.3 L 146.7,82.5 L 134.3,77.1 Z M 206.6,70.7 L 230.3,58.9 L 152.6,58.9 Z M 206.6,70.7 L 152.6,58.9 L 158.6,70.8 Z M 158.6,70.8 L 152.6,58.9 L 134.3,77.1 Z M 158.6,70.8 L 134.3,77.1 L 146.7,82.5 Z M 175.4,162.0 L 200.5,178.1 L 212.6,171.6 Z M 175.4,162.0 L 212.6,171.6 L 184.1,152.9 Z M 74.0,232.0 L 37.8,220.6 L 27.6,227.9 Z M 74.0,232.0 L 27.6,227.9 L 64.9,237.9 Z M 37.8,220.6 L 32.5,165.6 L 20.0,147.2 Z M 37.8,220.6 L 20.0,147.2 L 27.6,227.9 Z M 121.4,218.7 L 107.3,217.2 L 82.5,256.4 Z M 121.4,218.7 L 82.5,256.4 L 77.5,282.4 Z M 108.1,194.5 L 121.4,191.3 L 103.9,140.6 Z M 108.1,194.5 L 103.9,140.6 L 97.1,155.7 Z M 107.3,217.2 L 121.4,218.7 L 121.4,191.3 Z M 107.3,217.2 L 121.4,191.3 L 108.1,194.5 Z M 194.0,255.4 L 172.1,253.0 L 165.2,264.6 Z M 194.0,255.4 L 165.2,264.6 L 198.3,269.1 Z M 225.7,227.9 L 225.7,171.4 L 212.6,171.6 Z M 225.7,227.9 L 212.6,171.6 L 213.9,225.5 Z M 165.2,264.6 L 172.1,253.0 L 164.1,221.5 Z M 165.2,264.6 L 164.1,221.5 L 151.1,218.7 Z M 218.3,75.0 L 206.6,70.7 L 205.5,105.7 Z M 218.3,75.0 L 205.5,105.7 L 215.7,100.1 Z M 194.0,255.4 L 198.3,269.1 L 225.7,227.9 Z M 194.0,255.4 L 225.7,227.9 L 213.9,225.5 Z M 205.5,105.7 L 234.3,135.0 L 248.6,132.0 Z M 205.5,105.7 L 248.6,132.0 L 215.7,100.1 Z M 248.6,132.0 L 234.3,135.0 L 212.6,171.6 Z M 248.6,132.0 L 212.6,171.6 L 225.7,171.4 Z M 199.2,214.0 L 190.3,203.5 L 160.6,210.3 Z M 199.2,214.0 L 160.6,210.3 L 164.1,221.5 Z M 199.2,214.0 L 212.6,171.6 L 200.5,178.1 Z M 199.2,214.0 L 200.5,178.1 L 190.3,203.5 Z M 59.3,178.9 L 57.5,167.4 L 20.0,147.2 Z M 59.3,178.9 L 20.0,147.2 L 32.5,165.6 Z M 59.3,178.9 L 97.1,155.7 L 103.9,140.6 Z M 59.3,178.9 L 103.9,140.6 L 57.5,167.4 Z M 77.5,282.4 L 82.5,256.4 L 74.0,232.0 Z M 77.5,282.4 L 74.0,232.0 L 64.9,237.9 Z M 206.6,70.7 L 218.3,75.0 L 230.3,58.9 Z M 164.1,221.5 L 160.6,210.3 L 151.1,218.7 Z M 42.9,118.3 L 70.3,118.3 L 70.3,58.9 Z M 42.9,118.3 L 70.3,58.9 L 42.9,58.9 Z M 42.9,58.9 L 70.3,58.9 L 77.5,20.0 Z M 42.9,58.9 L 77.5,20.0 L 50.1,20.0 Z M 310.3,170.9 L 225.7,170.9 L 225.7,198.3 Z M 310.3,170.9 L 225.7,198.3 L 310.3,198.3 Z M 368.6,117.4 L 310.3,170.9 L 310.3,198.3 Z M 368.6,117.4 L 310.3,198.3 L 380.0,131.1 Z M 121.4,218.6 L 151.1,218.6 L 151.1,191.2 Z M 121.4,218.6 L 151.1,191.2 L 121.4,191.2 Z" fill="#2a2a4e" stroke="none"/>
  <path d="M 175.4,162.0 L 151.1,191.3 M 151.1,191.3 L 151.1,218.7 M 248.6,77.1 L 230.3,58.9 M 42.9,118.3 L 20.0,147.2 M 27.6,227.9 L 20.0,269.1 M 20.0,269.1 L 38.3,287.4 M 38.3,287.4 L 77.5,282.4 M 248.6,132.0 L 248.6,77.1 M 103.9,140.6 L 70.3,118.3 M 134.3,109.3 L 175.4,162.0 M 134.3,77.1 L 134.3,109.3 M 230.3,58.9 L 152.6,58.9 M 152.6,58.9 L 134.3,77.1 M 20.0,147.2 L 27.6,227.9 M 77.5,282.4 L 121.4,218.7 M 121.4,191.3 L 103.9,140.6 M 121.4,218.7 L 121.4,191.3 M 165.2,264.6 L 198.3,269.1 M 225.7,227.9 L 225.7,171.4 M 151.1,218.7 L 165.2,264.6 M 198.3,269.1 L 225.7,227.9 M 225.7,171.4 L 248.6,132.0 M 70.3,118.3 L 70.3,58.9 M 42.9,58.9 L 42.9,118.3 M 70.3,58.9 L 77.5,20.0 M 77.5,20.0 L 50.1,20.0 M 50.1,20.0 L 42.9,58.9 M 310.3,170.9 L 225.7,170.9 M 225.7,170.9 L 225.7,198.3 M 225.7,198.3 L 310.3,198.3 M 368.6,117.4 L 310.3,170.9 M 310.3,198.3 L 380.0,131.1 M 380.0,131.1 L 368.6,117.4 M 121.4,218.6 L 151.1,218.6 M 151.1,218.6 L 151.1,191.2 M 151.1,191.2 L 121.4,191.2 M 121.4,191.2 L 121.4,218.6" fill="none" stroke="white" stroke-width="2" stroke-linecap="round"/>
  <polygon points="56.97504757075439,108.014758658953 64.97504757075438,116.014758658953 56.97504757075439,124.014758658953 48.97504757075439,116.014758658953" fill="#4a9eff" stroke="white" stroke-width="1"/>
<polygon points="228.34619123584326,176.33593024432062 236.34619123584326,184.33593024432062 228.34619123584326,192.33593024432062 220.34619123584326,184.33593024432062" fill="#4a9eff" stroke="white" stroke-width="1"/>
</svg>