<svg xmlns="http://www.w3.org/2000/svg" viewBox="0 0 400 400">
  <rect width="400" height="400" fill="#1a1a2e"/>
  <path d="M 63.4,122.5 L 32.9,123.7 L 56.7,165.2 Z M 63.4,122.5 L 56.7,165.2 L 82.9,156.2 Z M 82.9,156.2 L 56.7,165.2 L 60.1,181.2 Z M 82.9,156.2 L 60.1,181.2 L 96.5,195.9 Z M 82.9,156.2 L 96.5,195.9 L 129.4,163.1 Z M 82.9,156.2 L 129.4,163.1 L 128.7,140.3 Z M 128.7,140.3 L 129.4,163.1 L 162.5,158.3 Z M 128.7,140.3 L 162.5,158.3 L 180.3,133.1 Z M 74.7,97.6 L 63.6,84.5 L 63.4,122.5 Z M 63.6,84.5 L 43.7,94.1 L 63.4,122.5 Z M 63.4,122.5 L 43.7,94.1 L 32.9,123.7 Z M 131.9,120.3 L 128.7,140.3 L 153.0,107.1 Z M 128.7,140.3 L 180.3,133.1 L 153.0,107.1 Z M 153.0,107.1 L 180.3,133.1 L 178.6,116.6 Z M 193.3,132.9 L 172.3,168.2 L 197.9,169.1 Z M 172.3,168.2 L 160.2,209.8 L 197.9,169.1 Z M 102.2,209.8 L 160.2,209.8 L 134.6,173.9 Z M 160.2,209.8 L 172.3,168.2 L 134.6,173.9 Z M 91.5,95.6 L 118.1,114.1 L 66.2,68.4 Z M 118.1,114.1 L 153.0,94.2 L 66.2,68.4 Z M 66.2,68.4 L 153.0,94.2 L 154.8,34.7 Z M 125.6,20.0 L 76.6,39.1 L 66.2,68.4 Z M 125.6,20.0 L 66.2,68.4 L 154.8,34.7 Z M 154.8,34.7 L 153.0,94.2 L 208.7,52.2 Z M 154.8,34.7 L 208.7,52.2 L 180.9,20.0 Z M 118.1,114.1 L 91.5,95.6 L 77.8,121.5 Z M 118.1,114.1 L 77.8,121.5 L 115.4,130.8 Z M 193.4,109.2 L 208.7,52.2 L 153.0,94.2 Z M 180.9,20.0 L 125.6,20.0 L 154.8,34.7 Z M 90.3,142.0 L 115.4,130.8 L 77.8,121.5 Z M 143.7,209.8 L 116.5,209.8 L 116.5,300.2 Z M 143.7,209.8 L 116.5,300.2 L 143.7,300.2 Z M 143.7,300.2 L 116.5,300.2 L 214.7,380.0 Z M 143.7,300.2 L 214.7,380.0 L 223.5,367.3 Z M 214.7,380.0 L 304.7,379.2 L 310.0,369.3 Z M 214.7,380.0 L 310.0,369.3 L 223.5,367.3 Z M 96.5,195.9 L 60.1,181.2 L 54.0,194.8 Z M 96.5,195.9 L 54.0,194.8 L 102.2,209.8 Z M 129.4,163.1 L 96.5,195.9 L 102.2,209.8 Z M 129.4,163.1 L 102.2,209.8 L 134.6,173.9 Z M 178.6,116.6 L 193.4,109.2 L 153.0,94.2 Z M 178.6,116.6 L 153.0,94.2 L 153.0,107.1 Z M 180.3,133.1 L 193.3,132.9 L 193.4,109.2 Z M 180.3,133.1 L 193.4,109.2 L 178.6,116.6 Z M 66.2,68.4 L 35.9,80.9 L 43.7,94.1 Z M 66.2,68.4 L 43.7,94.1 L 63.6,84.5 Z M 45.9,169.9 L 56.7,165.2 L 32.9,123.7 Z M 45.9,169.9 L 32.9,123.7 L 20.0,125.0 Z M 32.9,123.7 L 43.7,94.1 L 35.9,80.9 Z M 32.9,123.7 L 35.9,80.9 L 20.0,125.0 Z M 60.1,181.2 L 56.7,165.2 L 45.9,169.9 Z M 60.1,181.2 L 45.9,169.9 L 54.0,194.8 Z M 172.3,168.2 L 193.3,132.9 L 180.3,133.1 Z M 172.3,168.2 L 180.3,133.1 L 162.5,158.3 Z M 129.4,163.1 L 134.6,173.9 L 172.3,168.2 Z M 129.4,163.1 L 172.3,168.2 L 162.5,158.3 Z M 63.4,122.5 L 82.9,156.2 L 90.3,142.0 Z M 63.4,122.5 L 90.3,142.0 L 77.8,121.5 Z M 90.3,142.0 L 82.9,156.2 L 128.7,140.3 Z M 90.3,142.0 L 128.7,140.3 L 115.4,130.8 Z M 63.4,122.5 L 77.8,121.5 L 91.5,95.6 Z M 63.4,122.5 L 91.5,95.6 L 74.7,97.6 Z M 128.7,140.3 L 131.9,120.3 L 118.1,114.1 Z M 128.7,140.3 L 118.1,114.1 L 115.4,130.8 Z M 66.2,68.4 L 63.6,84.5 L 74.7,97.6 Z M 66.2,68.4 L 74.7,97.6 L 91.5,95.6 Z M 153.0,94.2 L 118.1,114.1 L 131.9,120.3 Z M 153.0,94.2 L 131.9,120.3 L 153.0,107.1 Z" fill="#2a2a4e" stroke="none"/>
  <path d="M 197.9,169.1 L 193.3,132.9 M 160.2,209.8 L 197.9,169.1 M 102.2,209.8 L 160.2,209.8 M 125.6,20.0 L 76.6,39.1 M 76.6,39.1 L 66.2,68.4 M 208.7,52.2 L 180.9,20.0 M 193.4,109.2 L 208.7,52.2 M 180.9,20.0 L 125.6,20.0 M 143.7,209.8 L 116.5,209.8 M 116.5,209.8 L 116.5,300.2 M 143.7,300.2 L 143.7,209.8 M 116.5,300.2 L 214.7,380.0 M 223.5,367.3 L 143.7,300.2 M 214.7,380.0 L 304.7,379.2 M 304.7,379.2 L 310.0,369.3 M 310.0,369.3 L 223.5,367.3 M 54.0,194.8 L 102.2,209.8 M 193.3,132.9 L 193.4,109.2 M 66.2,68.4 L 35.9,80.9 M 20.0,125.0 L 45.9,169.9 M 35.9,80.9 L 20.0,125.0 M 45.9,169.9 L 54.0,194.8" fill="none" stroke="white" stroke-width="2" stroke-linecap="round"/>
  <polygon points="130.47890242438,226.32819564635508 138.47890242438,234.32819564635508 130.47890242438,242.32819564635508 122.47890242438001,234.32819564635508" fill="#4a9eff" stroke="white" stroke-width="1"/>
</svg>