<svg xmlns="http://www.w3.org/2000/svg" viewBox="0 0 400 400">
  <rect width="400" height="400" fill="#1a1a2e"/>
  <path d="M 244.7,119.2 L 228.0,114.6 L 205.4,118.0 Z M 244.7,119.2 L 205.4,118.0 L 231.2,143.6 Z M 239.3,40.7 L 228.5,29.9 L 213.5,38.7 Z M 239.3,40.7 L 213.5,38.7 L 222.3,68.0 Z M 170.1,87.9 L 189.9,96.3 L 188.5,79.6 Z M 170.1,87.9 L 188.5,79.6 L 181.0,75.2 Z M 232.6,97.5 L 228.0,114.6 L 244.7,119.2 Z M 185.2,143.6 L 231.2,143.6 L 205.4,118.0 Z M 239.3,73.8 L 239.3,40.7 L 222.3,68.0 Z M 228.5,29.9 L 196.0,29.9 L 213.5,38.7 Z M 174.9,103.0 L 189.9,96.3 L 170.1,87.9 Z M 198.9,39.7 L 180.4,66.8 L 195.4,74.3 Z M 198.9,39.7 L 195.4,74.3 L 207.4,44.3 Z M 207.4,44.3 L 195.4,74.3 L 197.9,101.9 Z M 207.4,44.3 L 197.9,101.9 L 217.2,74.0 Z M 217.2,74.0 L 197.9,101.9 L 224.8,97.6 Z M 217.2,74.0 L 224.8,97.6 L 230.4,78.2 Z M 180.4,66.8 L 156.5,70.2 L 140.5,92.0 Z M 180.4,66.8 L 140.5,92.0 L 161.5,85.9 Z M 161.5,85.9 L 140.5,92.0 L 140.5,127.9 Z M 161.5,85.9 L 140.5,127.9 L 170.4,111.4 Z M 170.4,111.4 L 140.5,127.9 L 159.0,143.5 Z M 170.4,111.4 L 159.0,143.5 L 180.6,137.3 Z M 170.4,111.4 L 180.6,137.3 L 202.3,111.6 Z M 170.4,111.4 L 202.3,111.6 L 197.9,101.9 Z M 197.9,101.9 L 202.3,111.6 L 222.2,108.6 Z M 197.9,101.9 L 222.2,108.6 L 224.8,97.6 Z M 180.4,66.8 L 198.9,39.7 L 196.0,29.9 Z M 180.4,66.8 L 196.0,29.9 L 176.3,58.9 Z M 155.4,151.7 L 185.2,143.6 L 180.6,137.3 Z M 155.4,151.7 L 180.6,137.3 L 159.0,143.5 Z M 185.2,143.6 L 205.4,118.0 L 202.3,111.6 Z M 185.2,143.6 L 202.3,111.6 L 180.6,137.3 Z M 222.3,68.0 L 217.2,74.0 L 230.4,78.2 Z M 222.3,68.0 L 230.4,78.2 L 239.3,73.8 Z M 239.3,73.8 L 230.4,78.2 L 224.8,97.6 Z M 239.3,73.8 L 224.8,97.6 L 232.6,97.5 Z M 176.3,58.9 L 151.8,62.4 L 156.5,70.2 Z M 176.3,58.9 L 156.5,70.2 L 180.4,66.8 Z M 140.5,92.0 L 131.0,88.9 L 131.0,132.3 Z M 140.5,92.0 L 131.0,132.3 L 140.5,127.9 Z M 151.8,62.4 L 131.0,88.9 L 140.5,92.0 Z M 151.8,62.4 L 140.5,92.0 L 156.5,70.2 Z M 131.0,132.3 L 155.4,151.7 L 159.0,143.5 Z M 131.0,132.3 L 159.0,143.5 L 140.5,127.9 Z M 224.8,97.6 L 222.2,108.6 L 228.0,114.6 Z M 224.8,97.6 L 228.0,114.6 L 232.6,97.5 Z M 228.0,114.6 L 222.2,108.6 L 202.3,111.6 Z M 228.0,114.6 L 202.3,111.6 L 205.4,118.0 Z M 213.5,38.7 L 207.4,44.3 L 217.2,74.0 Z M 213.5,38.7 L 217.2,74.0 L 222.3,68.0 Z M 196.0,29.9 L 198.9,39.7 L 207.4,44.3 Z M 196.0,29.9 L 207.4,44.3 L 213.5,38.7 Z M 181.0,75.2 L 188.5,79.6 L 195.4,74.3 Z M 181.0,75.2 L 195.4,74.3 L 180.4,66.8 Z M 174.9,103.0 L 170.1,87.9 L 161.5,85.9 Z M 174.9,103.0 L 161.5,85.9 L 170.4,111.4 Z M 197.9,101.9 L 189.9,96.3 L 174.9,103.0 Z M 197.9,101.9 L 174.9,103.0 L 170.4,111.4 Z M 161.5,85.9 L 170.1,87.9 L 181.0,75.2 Z M 161.5,85.9 L 181.0,75.2 L 180.4,66.8 Z M 188.5,79.6 L 189.9,96.3 L 197.9,101.9 Z M 188.5,79.6 L 197.9,101.9 L 195.4,74.3 Z M 239.3,54.2 L 239.3,70.5 L 288.0,70.5 Z M 239.3,54.2 L 288.0,70.5 L 288.0,54.2 Z M 288.0,54.2 L 288.0,70.5 L 331.3,44.9 Z M 288.0,54.2 L 331.3,44.9 L 331.3,28.7 Z M 331.3,28.7 L 331.3,44.9 L 380.0,88.4 Z M 331.3,28.7 L 380.0,88.4 L 380.0,78.9 Z M 223.0,143.6 L 206.8,143.6 L 206.8,197.7 Z M 223.0,143.6 L 206.8,197.7 L 223.0,197.7 Z M 223.0,197.7 L 206.8,197.7 L 249.4,245.5 Z M 223.0,197.7 L 249.4,245.5 L 254.6,235.1 Z M 249.4,245.5 L 303.3,245.0 L 308.6,235.6 Z M 249.4,245.5 L 308.6,235.6 L 254.6,235.1 Z M 81.0,123.3 L 131.0,123.3 L 131.0,107.0 Z M 81.0,123.3 L 131.0,107.0 L 81.0,107.0 Z M 31.1,20.0 L 23.4,26.9 L 20.0,88.1 Z M 31.1,20.0 L 20.0,88.1 L 29.7,80.9 Z M 29.7,80.9 L 20.0,88.1 L 81.0,123.3 Z M 29.7,80.9 L 81.0,123.3 L 81.0,107.0 Z" fill="#2a2a4e" stroke="none"/>
  <path d="M 231.2,143.6 L 244.7,119.2 M 239.3,40.7 L 228.5,29.9 M 244.7,119.2 L 232.6,97.5 M 185.2,143.6 L 231.2,143.6 M 239.3,73.8 L 239.3,40.7 M 228.5,29.9 L 196.0,29.9 M 196.0,29.9 L 176.3,58.9 M 155.4,151.7 L 185.2,143.6 M 232.6,97.5 L 239.3,73.8 M 176.3,58.9 L 151.8,62.4 M 131.0,88.9 L 131.0,132.3 M 151.8,62.4 L 131.0,88.9 M 131.0,132.3 L 155.4,151.7 M 239.3,54.2 L 239.3,70.5 M 239.3,70.5 L 288.0,70.5 M 288.0,54.2 L 239.3,54.2 M 288.0,70.5 L 331.3,44.9 M 331.3,28.7 L 288.0,54.2 M 331.3,44.9 L 380.0,88.4 M 380.0,88.4 L 380.0,78.9 M 380.0,78.9 L 331.3,28.7 M 223.0,143.6 L 206.8,143.6 M 206.8,143.6 L 206.8,197.7 M 223.0,197.7 L 223.0,143.6 M 206.8,197.7 L 249.4,245.5 M 254.6,235.1 L 223.0,197.7 M 249.4,245.5 L 303.3,245.0 M 303.3,245.0 L 308.6,235.6 M 308.6,235.6 L 254.6,235.1 M 81.0,123.3 L 131.0,123.3 M 131.0,123.3 L 131.0,107.0 M 131.0,107.0 L 81.0,107.0 M 31.1,20.0 L 23.4,26.9 M 23.4,26.9 L 20.0,88.1 M 29.7,80.9 L 31.1,20.0 M 20.0,88.1 L 81.0,123.3 M 81.0,107.0 L 29.7,80.9" fill="none" stroke="white" stroke-width="2" stroke-linecap="round"/>
  <polygon points="215.29462726559487,136.7384448051444 223.29462726559487,144.7384448051444 215.29462726559487,152.7384448051444 207.29462726559487,144.7384448051444" fill="#4a9eff" stroke="white" stroke-width="1"/>
<polygon points="129.34002517975915,106.74222848875267 137.34002517975915,114.74222848875267 129.34002517975915,122.74222848875267 121.34002517975915,114.74222848875267" fill="#4a9eff" stroke="white" stroke-width="1"/>
<polygon points="242.4265146172151,54.153023377904326 250.4265146172151,62.153023377904326 242.4265146172151,70.15302337790433 234.4265146172151,62.153023377904326" fill="#4a9eff" stroke="white" stroke-width="1"/>
</svg>