<svg xmlns="http://www.w3.org/2000/svg" viewBox="0 0 400 400">
  <rect width="400" height="400" fill="#1a1a2e"/>
  <path d="M 190.9,154.0 L 182.3,129.3 L 140.9,145.3 Z M 190.9,154.0 L 140.9,145.3 L 184.5,176.1 Z M 184.5,176.1 L 140.9,145.3 L 136.9,166.6 Z M 184.5,176.1 L 136.9,166.6 L 151.1,181.5 Z M 186.0,286.9 L 208.6,270.3 L 177.0,231.4 Z M 186.0,286.9 L 177.0,231.4 L 153.4,287.5 Z M 153.4,287.5 L 177.0,231.4 L 145.7,237.9 Z M 153.4,287.5 L 145.7,237.9 L 141.2,272.5 Z M 41.1,246.0 L 49.7,268.6 L 83.1,254.7 Z M 41.1,246.0 L 83.1,254.7 L 48.7,223.4 Z M 48.7,223.4 L 83.1,254.7 L 83.1,233.4 Z M 48.7,223.4 L 83.1,233.4 L 69.1,223.4 Z M 73.9,121.4 L 59.6,113.9 L 40.8,120.8 Z M 73.9,121.4 L 40.8,120.8 L 84.8,142.0 Z M 84.8,142.0 L 40.8,120.8 L 33.3,149.6 Z M 84.8,142.0 L 33.3,149.6 L 40.1,176.6 Z M 81.5,164.8 L 84.8,142.0 L 40.1,176.6 Z M 81.5,164.8 L 40.1,176.6 L 67.4,176.3 Z M 182.3,129.3 L 160.0,131.1 L 140.9,145.3 Z M 208.6,270.3 L 207.9,251.2 L 177.0,231.4 Z M 49.7,268.6 L 68.8,267.9 L 83.1,254.7 Z M 204.1,155.3 L 190.9,154.0 L 184.5,176.1 Z M 204.1,155.3 L 184.5,176.1 L 193.6,186.9 Z M 146.5,195.0 L 151.1,181.5 L 136.9,166.6 Z M 146.5,195.0 L 136.9,166.6 L 123.5,171.9 Z M 193.6,186.9 L 184.5,176.1 L 151.1,181.5 Z M 193.6,186.9 L 151.1,181.5 L 146.5,195.0 Z M 123.5,171.9 L 136.9,166.6 L 140.9,145.3 Z M 123.5,171.9 L 140.9,145.3 L 128.1,139.6 Z M 182.3,129.3 L 191.7,120.0 L 153.0,120.0 Z M 182.3,129.3 L 153.0,120.0 L 160.0,131.1 Z M 204.1,155.3 L 191.7,120.0 L 182.3,129.3 Z M 204.1,155.3 L 182.3,129.3 L 190.9,154.0 Z M 140.9,145.3 L 160.0,131.1 L 153.0,120.0 Z M 140.9,145.3 L 153.0,120.0 L 128.1,139.6 Z M 184.7,300.0 L 186.0,286.9 L 153.4,287.5 Z M 184.7,300.0 L 153.4,287.5 L 142.8,300.0 Z M 128.0,272.5 L 141.2,272.5 L 145.7,237.9 Z M 128.0,272.5 L 145.7,237.9 L 135.0,226.6 Z M 142.8,300.0 L 153.4,287.5 L 141.2,272.5 Z M 142.8,300.0 L 141.2,272.5 L 128.0,272.5 Z M 135.0,226.6 L 145.7,237.9 L 177.0,231.4 Z M 135.0,226.6 L 177.0,231.4 L 178.8,218.2 Z M 208.6,270.3 L 220.0,280.0 L 220.0,241.0 Z M 208.6,270.3 L 220.0,241.0 L 207.9,251.2 Z M 186.0,286.9 L 184.7,300.0 L 220.0,280.0 Z M 186.0,286.9 L 220.0,280.0 L 208.6,270.3 Z M 177.0,231.4 L 207.9,251.2 L 220.0,241.0 Z M 177.0,231.4 L 220.0,241.0 L 178.8,218.2 Z M 27.9,244.7 L 41.1,246.0 L 48.7,223.4 Z M 27.9,244.7 L 48.7,223.4 L 39.6,212.8 Z M 69.6,212.8 L 69.1,223.4 L 83.1,233.4 Z M 69.6,212.8 L 83.1,233.4 L 96.2,226.1 Z M 39.6,212.8 L 48.7,223.4 L 69.1,223.4 Z M 39.6,212.8 L 69.1,223.4 L 69.6,212.8 Z M 96.2,226.1 L 83.1,233.4 L 83.1,254.7 Z M 96.2,226.1 L 83.1,254.7 L 96.2,256.4 Z M 49.7,268.6 L 40.0,280.0 L 79.0,280.0 Z M 49.7,268.6 L 79.0,280.0 L 68.8,267.9 Z M 41.1,246.0 L 27.9,244.7 L 40.0,280.0 Z M 41.1,246.0 L 40.0,280.0 L 49.7,268.6 Z M 83.1,254.7 L 68.8,267.9 L 79.0,280.0 Z M 83.1,254.7 L 79.0,280.0 L 96.2,256.4 Z M 20.0,148.2 L 33.3,149.6 L 40.8,120.8 Z M 20.0,148.2 L 40.8,120.8 L 31.8,110.0 Z M 61.8,100.0 L 59.6,113.9 L 73.9,121.4 Z M 61.8,100.0 L 73.9,121.4 L 86.0,113.3 Z M 31.8,110.0 L 40.8,120.8 L 59.6,113.9 Z M 31.8,110.0 L 59.6,113.9 L 61.8,100.0 Z M 86.0,113.3 L 73.9,121.4 L 84.8,142.0 Z M 86.0,113.3 L 84.8,142.0 L 97.6,141.8 Z M 93.2,173.9 L 81.5,164.8 L 67.4,176.3 Z M 93.2,173.9 L 67.4,176.3 L 71.0,188.5 Z M 20.0,148.2 L 28.2,188.5 L 40.1,176.6 Z M 20.0,148.2 L 40.1,176.6 L 33.3,149.6 Z M 84.8,142.0 L 81.5,164.8 L 93.2,173.9 Z M 84.8,142.0 L 93.2,173.9 L 97.6,141.8 Z M 67.4,176.3 L 40.1,176.6 L 28.2,188.5 Z M 67.4,176.3 L 28.2,188.5 L 71.0,188.5 Z M 78.0,370.0 L 78.0,280.0 L 54.0,280.0 Z M 78.0,370.0 L 54.0,280.0 L 54.0,380.0 Z M 62.5,188.5 L 38.5,188.5 L 40.7,212.8 Z M 62.5,188.5 L 40.7,212.8 L 64.7,212.8 Z M 124.3,166.2 L 127.6,142.4 L 97.3,144.5 Z M 124.3,166.2 L 97.3,144.5 L 94.0,168.3 Z M 155.0,222.9 L 178.5,218.3 L 175.7,189.9 Z M 155.0,222.9 L 175.7,189.9 L 152.1,194.0 Z M 166.0,30.0 L 166.0,120.0 L 190.0,120.0 Z M 166.0,30.0 L 190.0,120.0 L 190.0,20.0 Z" fill="#2a2a4e" stroke="none"/>
  <path d="M 193.6,186.9 L 204.1,155.3 M 123.5,171.9 L 146.5,195.0 M 146.5,195.0 L 193.6,186.9 M 128.1,139.6 L 123.5,171.9 M 191.7,120.0 L 153.0,120.0 M 204.1,155.3 L 191.7,120.0 M 153.0,120.0 L 128.1,139.6 M 142.8,300.0 L 184.7,300.0 M 135.0,226.6 L 128.0,272.5 M 128.0,272.5 L 142.8,300.0 M 178.8,218.2 L 135.0,226.6 M 220.0,280.0 L 220.0,241.0 M 184.7,300.0 L 220.0,280.0 M 220.0,241.0 L 178.8,218.2 M 39.6,212.8 L 27.9,244.7 M 96.2,226.1 L 69.6,212.8 M 69.6,212.8 L 39.6,212.8 M 96.2,256.4 L 96.2,226.1 M 40.0,280.0 L 79.0,280.0 M 27.9,244.7 L 40.0,280.0 M 79.0,280.0 L 96.2,256.4 M 31.8,110.0 L 20.0,148.2 M 86.0,113.3 L 61.8,100.0 M 61.8,100.0 L 31.8,110.0 M 97.6,141.8 L 86.0,113.3 M 71.0,188.5 L 93.2,173.9 M 20.0,148.2 L 28.2,188.5 M 93.2,173.9 L 97.6,141.8 M 28.2,188.5 L 71.0,188.5 M 78.0,370.0 L 78.0,280.0 M 78.0,280.0 L 54.0,280.0 M 54.0,280.0 L 54.0,380.0 M 54.0,380.0 L 78.0,370.0 M 62.5,188.5 L 38.5,188.5 M 38.5,188.5 L 40.7,212.8 M 40.7,212.8 L 64.7,212.8 M 64.7,212.8 L 62.5,188.5 M 124.3,166.2 L 127.6,142.4 M 127.6,142.4 L 97.3,144.5 M 97.3,144.5 L 94.0,168.3 M 94.0,168.3 L 124.3,166.2 M 155.0,222.9 L 178.5,218.3 M 178.5,218.3 L 175.7,189.9 M 175.7,189.9 L 152.1,194.0 M 152.1,194.0 L 155.0,222.9 M 166.0,30.0 L 166.0,120.0 M 166.0,120.0 L 190.0,120.0 M 190.0,120.0 L 190.0,20.0 M 190.0,20.0 L 166.0,30.0" fill="none" stroke="white" stroke-width="2" stroke-linecap="round"/>
  <polygon points="176.4027189002734,110.46874307877545 184.4027189002734,118.46874307877545 176.4027189002734,126.46874307877545 168.4027189002734,118.46874307877545" fill="#4a9eff" stroke="white" stroke-width="1"/>
<polygon points="66.62802827448192,274.5074006664149 74.62802827448192,282.5074006664149 66.62802827448192,290.5074006664149 58.62802827448192,282.5074006664149" fill="#4a9eff" stroke="white" stroke-width="1"/>
</svg>