<svg xmlns="http://www.w3.org/2000/svg" viewBox="0 0 400 400">
  <rect width="400" height="400" fill="#1a1a2e"/>
  <path d="M 174.2,221.0 L 179.1,188.4 L 137.0,186.1 Z M 174.2,221.0 L 137.0,186.1 L 137.1,225.5 Z M 137.1,225.5 L 137.0,186.1 L 109.4,196.2 Z M 137.1,225.5 L 109.4,196.2 L 111.5,212.9 Z M 67.5,241.3 L 41.8,241.3 L 59.0,279.8 Z M 67.5,241.3 L 59.0,279.8 L 84.6,279.8 Z M 84.6,279.8 L 59.0,279.8 L 50.4,309.8 Z M 84.6,279.8 L 50.4,309.8 L 67.5,326.8 Z M 98.1,225.7 L 40.3,213.5 L 67.5,241.3 Z M 40.3,213.5 L 41.8,241.3 L 67.5,241.3 Z M 137.3,171.5 L 196.3,177.2 L 172.4,134.3 Z M 196.3,177.2 L 230.2,155.7 L 172.4,134.3 Z M 172.4,134.3 L 230.2,155.7 L 219.5,134.3 Z M 95.7,326.8 L 123.7,304.3 L 123.6,287.1 Z M 95.7,326.8 L 123.6,287.1 L 84.6,279.8 Z M 91.1,185.6 L 59.0,185.6 L 40.3,213.5 Z M 91.1,185.6 L 40.3,213.5 L 98.1,225.7 Z M 230.2,155.7 L 196.3,177.2 L 189.0,234.1 Z M 230.2,155.7 L 189.0,234.1 L 230.2,199.9 Z M 84.6,279.8 L 67.5,326.8 L 95.7,326.8 Z M 230.2,155.7 L 230.2,181.3 L 305.1,181.3 Z M 230.2,155.7 L 305.1,181.3 L 305.1,155.7 Z M 305.1,155.7 L 305.1,181.3 L 359.5,228.2 Z M 305.1,155.7 L 359.5,228.2 L 378.6,224.7 Z M 63.2,185.6 L 88.9,185.6 L 88.9,127.8 Z M 63.2,185.6 L 88.9,127.8 L 63.2,127.8 Z M 63.2,127.8 L 88.9,127.8 L 45.7,20.0 Z M 63.2,127.8 L 45.7,20.0 L 20.0,20.0 Z M 378.6,224.7 L 359.5,228.2 L 370.8,327.8 Z M 378.6,224.7 L 370.8,327.8 L 380.0,327.7 Z M 179.1,188.4 L 196.3,177.2 L 137.3,171.5 Z M 179.1,188.4 L 137.3,171.5 L 137.0,186.1 Z M 98.1,225.7 L 111.5,212.9 L 109.4,196.2 Z M 98.1,225.7 L 109.4,196.2 L 91.1,185.6 Z M 189.0,234.1 L 174.2,221.0 L 137.1,225.5 Z M 189.0,234.1 L 137.1,225.5 L 135.0,242.9 Z M 189.0,234.1 L 196.3,177.2 L 179.1,188.4 Z M 189.0,234.1 L 179.1,188.4 L 174.2,221.0 Z M 137.3,171.5 L 91.1,185.6 L 109.4,196.2 Z M 137.3,171.5 L 109.4,196.2 L 137.0,186.1 Z M 135.0,242.9 L 137.1,225.5 L 111.5,212.9 Z M 135.0,242.9 L 111.5,212.9 L 98.1,225.7 Z" fill="#2a2a4e" stroke="none"/>
  <path d="M 41.8,241.3 L 59.0,279.8 M 84.6,279.8 L 67.5,241.3 M 59.0,279.8 L 50.4,309.8 M 50.4,309.8 L 67.5,326.8 M 67.5,241.3 L 98.1,225.7 M 40.3,213.5 L 41.8,241.3 M 172.4,134.3 L 137.3,171.5 M 230.2,155.7 L 219.5,134.3 M 219.5,134.3 L 172.4,134.3 M 95.7,326.8 L 123.7,304.3 M 123.7,304.3 L 123.6,287.1 M 123.6,287.1 L 84.6,279.8 M 91.1,185.6 L 59.0,185.6 M 59.0,185.6 L 40.3,213.5 M 189.0,234.1 L 230.2,199.9 M 230.2,199.9 L 230.2,155.7 M 67.5,326.8 L 95.7,326.8 M 230.2,155.7 L 230.2,181.3 M 230.2,181.3 L 305.1,181.3 M 305.1,155.7 L 230.2,155.7 M 305.1,181.3 L 359.5,228.2 M 378.6,224.7 L 305.1,155.7 M 63.2,185.6 L 88.9,185.6 M 88.9,185.6 L 88.9,127.8 M 63.2,127.8 L 63.2,185.6 M 88.9,127.8 L 45.7,20.0 M 45.7,20.0 L 20.0,20.0 M 20.0,20.0 L 63.2,127.8 M 359.5,228.2 L 370.8,327.8 M 370.8,327.8 L 380.0,327.7 M 380.0,327.7 L 378.6,224.7 M 135.0,242.9 L 189.0,234.1 M 137.3,171.5 L 91.1,185.6 M 98.1,225.7 L 135.0,242.9" fill="none" stroke="white" stroke-width="2" stroke-linecap="round"/>
  <polygon points="76.2362238059331,176.48289893297402 84.2362238059331,184.48289893297402 76.2362238059331,192.48289893297402 68.2362238059331,184.48289893297402" fill="#4a9eff" stroke="white" stroke-width="1"/>
<polygon points="231.53448303715462,160.55684641651087 239.53448303715462,168.55684641651087 231.53448303715462,176.55684641651087 223.53448303715462,168.55684641651087" fill="#4a9eff" stroke="white" stroke-width="1"/>
</svg>