<svg xmlns="http://www.w3.org/2000/svg" viewBox="0 0 400 400">
  <rect width="400" height="400" fill="#1a1a2e"/>
  <path d="M 126.2,49.2 L 115.8,83.2 L 126.3,104.0 Z M 126.2,49.2 L 126.3,104.0 L 166.8,73.6 Z M 166.8,73.6 L 126.3,104.0 L 161.3,109.2 Z M 166.8,73.6 L 161.3,109.2 L 170.5,96.6 Z M 236.8,144.2 L 231.0,149.1 L 230.9,171.6 Z M 236.8,144.2 L 230.9,171.6 L 258.2,144.2 Z M 258.2,144.2 L 230.9,171.6 L 278.6,174.9 Z M 258.2,144.2 L 278.6,174.9 L 279.6,156.3 Z M 253.6,52.7 L 222.0,53.5 L 213.4,72.7 Z M 253.6,52.7 L 213.4,72.7 L 261.2,75.8 Z M 261.2,75.8 L 213.4,72.7 L 216.2,92.4 Z M 261.2,75.8 L 216.2,92.4 L 236.5,103.7 Z M 165.0,201.5 L 145.5,151.2 L 139.6,161.9 Z M 165.0,201.5 L 139.6,161.9 L 139.6,187.9 Z M 237.3,184.6 L 263.8,184.6 L 278.6,174.9 Z M 237.3,184.6 L 278.6,174.9 L 230.9,171.6 Z M 182.3,201.5 L 191.1,187.3 L 169.5,156.1 Z M 182.3,201.5 L 169.5,156.1 L 165.0,201.5 Z M 255.1,103.7 L 261.2,96.3 L 261.2,75.8 Z M 255.1,103.7 L 261.2,75.8 L 236.5,103.7 Z M 126.2,49.2 L 166.8,73.6 L 149.6,49.2 Z M 165.0,201.5 L 169.5,156.1 L 145.5,151.2 Z M 253.6,52.7 L 236.3,46.4 L 222.0,53.5 Z M 260.8,44.6 L 253.6,52.7 L 261.2,75.8 Z M 260.8,44.6 L 261.2,75.8 L 271.1,74.6 Z M 271.1,74.6 L 261.2,75.8 L 261.2,96.3 Z M 271.1,74.6 L 261.2,96.3 L 271.1,98.6 Z M 126.3,104.0 L 115.8,83.2 L 105.9,84.4 Z M 126.3,104.0 L 105.9,84.4 L 118.7,112.1 Z M 170.5,96.6 L 161.3,109.2 L 165.3,119.2 Z M 170.5,96.6 L 165.3,119.2 L 180.2,98.9 Z M 161.3,109.2 L 126.3,104.0 L 118.7,112.1 Z M 161.3,109.2 L 118.7,112.1 L 165.3,119.2 Z M 166.8,73.6 L 170.5,96.6 L 180.2,98.9 Z M 166.8,73.6 L 180.2,98.9 L 176.2,70.6 Z M 156.1,41.1 L 120.4,41.1 L 126.2,49.2 Z M 156.1,41.1 L 126.2,49.2 L 149.6,49.2 Z M 126.2,49.2 L 120.4,41.1 L 105.9,84.4 Z M 126.2,49.2 L 105.9,84.4 L 115.8,83.2 Z M 156.1,41.1 L 149.6,49.2 L 166.8,73.6 Z M 156.1,41.1 L 166.8,73.6 L 176.2,70.6 Z M 182.3,201.5 L 165.0,201.5 L 161.7,211.4 Z M 182.3,201.5 L 161.7,211.4 L 189.7,211.4 Z M 169.5,156.1 L 191.1,187.3 L 202.6,187.3 Z M 169.5,156.1 L 202.6,187.3 L 176.8,148.1 Z M 191.1,187.3 L 182.3,201.5 L 189.7,211.4 Z M 191.1,187.3 L 189.7,211.4 L 202.6,187.3 Z M 145.5,151.2 L 169.5,156.1 L 176.8,148.1 Z M 145.5,151.2 L 176.8,148.1 L 142.3,141.2 Z M 130.6,159.6 L 130.6,193.8 L 139.6,187.9 Z M 130.6,159.6 L 139.6,187.9 L 139.6,161.9 Z M 130.6,193.8 L 161.7,211.4 L 165.0,201.5 Z M 130.6,193.8 L 165.0,201.5 L 139.6,187.9 Z M 130.6,159.6 L 139.6,161.9 L 145.5,151.2 Z M 130.6,159.6 L 145.5,151.2 L 142.3,141.2 Z M 258.2,144.2 L 279.6,156.3 L 288.7,150.5 Z M 258.2,144.2 L 288.7,150.5 L 260.9,134.8 Z M 231.0,149.1 L 236.8,144.2 L 234.6,134.8 Z M 231.0,149.1 L 234.6,134.8 L 221.8,146.5 Z M 236.8,144.2 L 258.2,144.2 L 260.9,134.8 Z M 236.8,144.2 L 260.9,134.8 L 234.6,134.8 Z M 230.9,171.6 L 231.0,149.1 L 221.8,146.5 Z M 230.9,171.6 L 221.8,146.5 L 221.8,173.1 Z M 263.8,184.6 L 267.0,193.8 L 286.9,181.6 Z M 263.8,184.6 L 286.9,181.6 L 278.6,174.9 Z M 286.9,181.6 L 288.7,150.5 L 279.6,156.3 Z M 286.9,181.6 L 279.6,156.3 L 278.6,174.9 Z M 231.6,193.8 L 237.3,184.6 L 230.9,171.6 Z M 231.6,193.8 L 230.9,171.6 L 221.8,173.1 Z M 222.0,53.5 L 236.3,46.4 L 234.4,35.8 Z M 222.0,53.5 L 234.4,35.8 L 213.1,47.5 Z M 236.3,46.4 L 253.6,52.7 L 260.8,44.6 Z M 236.3,46.4 L 260.8,44.6 L 234.4,35.8 Z M 213.4,72.7 L 222.0,53.5 L 213.1,47.5 Z M 213.4,72.7 L 213.1,47.5 L 203.0,72.5 Z M 236.5,103.7 L 216.2,92.4 L 206.8,100.7 Z M 236.5,103.7 L 206.8,100.7 L 233.4,113.5 Z M 261.2,96.3 L 255.1,103.7 L 260.0,113.5 Z M 261.2,96.3 L 260.0,113.5 L 271.1,98.6 Z M 206.8,100.7 L 216.2,92.4 L 213.4,72.7 Z M 206.8,100.7 L 213.4,72.7 L 203.0,72.5 Z M 260.0,113.5 L 255.1,103.7 L 236.5,103.7 Z M 260.0,113.5 L 236.5,103.7 L 233.4,113.5 Z M 231.6,193.8 L 267.0,193.8 L 263.8,184.6 Z M 231.6,193.8 L 263.8,184.6 L 237.3,184.6 Z M 130.6,188.6 L 130.6,167.5 L 88.9,167.5 Z M 130.6,188.6 L 88.9,167.5 L 88.9,188.6 Z M 88.9,188.6 L 88.9,167.5 L 32.3,139.4 Z M 88.9,188.6 L 32.3,139.4 L 20.0,153.5 Z M 332.6,74.4 L 271.1,74.4 L 271.1,95.5 Z M 332.6,74.4 L 271.1,95.5 L 337.8,95.5 Z M 253.6,235.9 L 253.6,193.8 L 232.5,193.8 Z M 253.6,235.9 L 232.5,193.8 L 232.5,235.9 Z M 260.0,134.8 L 256.6,113.5 L 235.5,113.5 Z M 260.0,134.8 L 235.5,113.5 L 238.9,134.8 Z M 203.3,74.9 L 176.6,73.0 L 179.6,93.9 Z M 203.3,74.9 L 179.6,93.9 L 206.1,95.8 Z M 142.3,115.7 L 142.6,141.3 L 163.2,145.3 Z M 142.3,115.7 L 163.2,145.3 L 163.1,118.8 Z M 364.2,20.0 L 332.6,74.4 L 337.8,95.5 Z M 364.2,20.0 L 337.8,95.5 L 380.0,22.4 Z M 293.9,292.2 L 253.6,235.9 L 232.5,235.9 Z M 293.9,292.2 L 232.5,235.9 L 279.9,292.2 Z" fill="#2a2a4e" stroke="none"/>
  <path d="M 271.1,74.6 L 260.8,44.6 M 271.1,98.6 L 271.1,74.6 M 105.9,84.4 L 118.7,112.1 M 165.3,119.2 L 180.2,98.9 M 118.7,112.1 L 165.3,119.2 M 180.2,98.9 L 176.2,70.6 M 156.1,41.1 L 120.4,41.1 M 120.4,41.1 L 105.9,84.4 M 176.2,70.6 L 156.1,41.1 M 161.7,211.4 L 189.7,211.4 M 202.6,187.3 L 176.8,148.1 M 189.7,211.4 L 202.6,187.3 M 176.8,148.1 L 142.3,141.2 M 130.6,159.6 L 130.6,193.8 M 130.6,193.8 L 161.7,211.4 M 142.3,141.2 L 130.6,159.6 M 288.7,150.5 L 260.9,134.8 M 234.6,134.8 L 221.8,146.5 M 260.9,134.8 L 234.6,134.8 M 221.8,146.5 L 221.8,173.1 M 267.0,193.8 L 286.9,181.6 M 286.9,181.6 L 288.7,150.5 M 221.8,173.1 L 231.6,193.8 M 234.4,35.8 L 213.1,47.5 M 260.8,44.6 L 234.4,35.8 M 213.1,47.5 L 203.0,72.5 M 206.8,100.7 L 233.4,113.5 M 260.0,113.5 L 271.1,98.6 M 203.0,72.5 L 206.8,100.7 M 233.4,113.5 L 260.0,113.5 M 231.6,193.8 L 267.0,193.8 M 130.6,188.6 L 130.6,167.5 M 130.6,167.5 L 88.9,167.5 M 88.9,188.6 L 130.6,188.6 M 88.9,167.5 L 32.3,139.4 M 32.3,139.4 L 20.0,153.5 M 20.0,153.5 L 88.9,188.6 M 332.6,74.4 L 271.1,74.4 M 271.1,74.4 L 271.1,95.5 M 271.1,95.5 L 337.8,95.5 M 253.6,235.9 L 253.6,193.8 M 253.6,193.8 L 232.5,193.8 M 232.5,193.8 L 232.5,235.9 M 260.0,134.8 L 256.6,113.5 M 256.6,113.5 L 235.5,113.5 M 235.5,113.5 L 238.9,134.8 M 238.9,134.8 L 260.0,134.8 M 203.3,74.9 L 176.6,73.0 M 176.6,73.0 L 179.6,93.9 M 179.6,93.9 L 206.1,95.8 M 206.1,95.8 L 203.3,74.9 M 142.3,115.7 L 142.6,141.3 M 142.6,141.3 L 163.2,145.3 M 163.2,145.3 L 163.1,118.8 M 163.1,118.8 L 142.3,115.7 M 364.2,20.0 L 332.6,74.4 M 337.8,95.5 L 380.0,22.4 M 380.0,22.4 L 364.2,20.0 M 293.9,292.2 L 253.6,235.9 M 232.5,235.9 L 279.9,292.2 M 279.9,292.2 L 293.9,292.2" fill="none" stroke="white" stroke-width="2" stroke-linecap="round"/>
  <polygon points="242.60447949985848,186.15790639706464 250.60447949985848,194.15790639706464 242.60447949985848,202.15790639706464 234.60447949985848,194.15790639706464" fill="#4a9eff" stroke="white" stroke-width="1"/>
<polygon points="270.7580016448617,76.90792843445301 278.7580016448617,84.90792843445301 270.7580016448617,92.90792843445301 262.7580016448617,84.90792843445301" fill="#4a9eff" stroke="white" stroke-width="1"/>
<polygon points="127.09422239925601,168.97385044128458 135.094222399256,176.97385044128458 127.09422239925601,184.97385044128458 119.09422239925601,176.97385044128458" fill="#4a9eff" stroke="white" stroke-width="1"/>
</svg>