<svg xmlns="http://www.w3.org/2000/svg" viewBox="0 0 400 400">
  <rect width="400" height="400" fill="#1a1a2e"/>
  <path d="M 236.1,212.6 L 236.1,188.1 L 197.9,172.7 Z M 236.1,212.6 L 197.9,172.7 L 211.3,224.4 Z M 211.3,224.4 L 197.9,172.7 L 146.6,172.7 Z M 211.3,224.4 L 146.6,172.7 L 178.5,213.5 Z M 178.5,213.5 L 146.6,172.7 L 122.5,208.0 Z M 178.5,213.5 L 122.5,208.0 L 145.6,224.4 Z M 292.5,157.5 L 322.5,160.0 L 297.5,115.0 Z M 292.5,157.5 L 297.5,115.0 L 262.5,115.0 Z M 262.5,115.0 L 297.5,115.0 L 297.5,60.0 Z M 262.5,115.0 L 297.5,60.0 L 277.5,45.0 Z M 244.6,45.0 L 221.9,73.9 L 222.0,106.4 Z M 244.6,45.0 L 222.0,106.4 L 262.5,115.0 Z M 262.5,115.0 L 222.0,106.4 L 198.7,155.8 Z M 262.5,115.0 L 198.7,155.8 L 251.7,175.7 Z M 97.5,262.5 L 115.0,285.0 L 170.0,285.0 Z M 97.5,262.5 L 170.0,285.0 L 140.2,244.8 Z M 140.2,244.8 L 170.0,285.0 L 211.0,241.6 Z M 140.2,244.8 L 211.0,241.6 L 177.5,230.3 Z M 322.5,160.0 L 292.5,157.5 L 322.5,192.5 Z M 292.5,157.5 L 251.7,175.7 L 322.5,192.5 Z M 322.5,192.5 L 251.7,175.7 L 252.5,225.0 Z M 322.5,192.5 L 252.5,225.0 L 300.0,225.0 Z M 262.5,115.0 L 277.5,45.0 L 244.6,45.0 Z M 262.5,115.0 L 251.7,175.7 L 292.5,157.5 Z M 140.2,244.8 L 97.5,215.9 L 97.5,262.5 Z M 133.1,155.8 L 146.6,172.7 L 197.9,172.7 Z M 133.1,155.8 L 197.9,172.7 L 198.7,155.8 Z M 198.7,155.8 L 197.9,172.7 L 236.1,188.1 Z M 198.7,155.8 L 236.1,188.1 L 251.7,175.7 Z M 97.5,215.9 L 140.2,244.8 L 145.6,224.4 Z M 97.5,215.9 L 145.6,224.4 L 122.5,208.0 Z M 236.1,212.6 L 252.5,225.0 L 251.7,175.7 Z M 236.1,212.6 L 251.7,175.7 L 236.1,188.1 Z M 122.5,208.0 L 146.6,172.7 L 133.1,155.8 Z M 122.5,208.0 L 133.1,155.8 L 97.5,215.9 Z M 236.1,212.6 L 211.3,224.4 L 211.0,241.6 Z M 236.1,212.6 L 211.0,241.6 L 252.5,225.0 Z M 140.2,244.8 L 177.5,230.3 L 178.5,213.5 Z M 140.2,244.8 L 178.5,213.5 L 145.6,224.4 Z M 177.5,230.3 L 211.0,241.6 L 211.3,224.4 Z M 177.5,230.3 L 211.3,224.4 L 178.5,213.5 Z M 297.5,225.0 L 267.5,225.0 L 267.5,292.5 Z M 297.5,225.0 L 267.5,292.5 L 297.5,292.5 Z M 97.5,230.0 L 20.0,230.0 L 20.0,260.0 Z M 97.5,230.0 L 20.0,260.0 L 97.5,260.0 Z M 297.5,72.5 L 297.5,102.5 L 380.0,102.5 Z M 297.5,72.5 L 380.0,102.5 L 362.5,72.5 Z M 165.0,155.0 L 165.0,20.0 L 135.0,20.0 Z M 165.0,155.0 L 135.0,20.0 L 135.0,155.0 Z" fill="#2a2a4e" stroke="none"/>
  <path d="M 322.5,160.0 L 297.5,115.0 M 297.5,115.0 L 297.5,60.0 M 297.5,60.0 L 277.5,45.0 M 244.6,45.0 L 221.9,73.9 M 221.9,73.9 L 222.0,106.4 M 222.0,106.4 L 198.7,155.8 M 97.5,262.5 L 115.0,285.0 M 115.0,285.0 L 170.0,285.0 M 170.0,285.0 L 211.0,241.6 M 322.5,192.5 L 322.5,160.0 M 252.5,225.0 L 300.0,225.0 M 300.0,225.0 L 322.5,192.5 M 277.5,45.0 L 244.6,45.0 M 97.5,215.9 L 97.5,262.5 M 198.7,155.8 L 133.1,155.8 M 133.1,155.8 L 97.5,215.9 M 211.0,241.6 L 252.5,225.0 M 297.5,225.0 L 267.5,225.0 M 267.5,225.0 L 267.5,292.5 M 267.5,292.5 L 297.5,292.5 M 297.5,292.5 L 297.5,225.0 M 97.5,230.0 L 20.0,230.0 M 20.0,230.0 L 20.0,260.0 M 20.0,260.0 L 97.5,260.0 M 97.5,260.0 L 97.5,230.0 M 297.5,72.5 L 297.5,102.5 M 297.5,102.5 L 380.0,102.5 M 380.0,102.5 L 362.5,72.5 M 362.5,72.5 L 297.5,72.5 M 165.0,155.0 L 165.0,20.0 M 165.0,20.0 L 135.0,20.0 M 135.0,20.0 L 135.0,155.0 M 135.0,155.0 L 165.0,155.0" fill="none" stroke="white" stroke-width="2" stroke-linecap="round"/>
  <polygon points="150.60472314481592,146.07131570279333 158.60472314481592,154.07131570279333 150.60472314481592,162.07131570279333 142.60472314481592,154.07131570279333" fill="#4a9eff" stroke="white" stroke-width="1"/>
<polygon points="282.38775647425484,224.275929890544 290.38775647425484,232.275929890544 282.38775647425484,240.275929890544 274.38775647425484,232.275929890544" fill="#4a9eff" stroke="white" stroke-width="1"/>
<polygon points="94.2704240671879,238.23287772238712 102.2704240671879,246.23287772238712 94.2704240671879,254.23287772238712 86.2704240671879,246.23287772238712" fill="#4a9eff" stroke="white" stroke-width="1"/>
<polygon points="297.7643691560619,79.72710167371483 305.7643691560619,87.72710167371483 297.7643691560619,95.72710167371483 289.7643691560619,87.72710167371483" fill="#4a9eff" stroke="white" stroke-width="1"/>
</svg>