<svg xmlns="http://www.w3.org/2000/svg" viewBox="0 0 400 400">
  <rect width="400" height="400" fill="#1a1a2e"/>
  <path d="M 166.1,235.3 L 141.4,205.0 L 143.2,266.2 Z M 141.4,205.0 L 96.4,209.3 L 143.2,266.2 Z M 96.4,209.3 L 74.5,254.3 L 89.3,289.7 Z M 96.4,209.3 L 89.3,289.7 L 143.2,266.2 Z M 204.2,167.8 L 254.3,145.7 L 227.1,120.8 Z M 204.2,167.8 L 227.1,120.8 L 208.5,129.7 Z M 166.1,235.3 L 143.2,266.2 L 220.9,267.7 Z M 166.1,235.3 L 220.9,267.7 L 228.2,233.6 Z M 257.0,244.7 L 243.2,185.8 L 228.2,233.6 Z M 257.0,244.7 L 228.2,233.6 L 238.0,267.1 Z M 238.0,267.1 L 228.2,233.6 L 220.9,267.7 Z M 204.2,167.8 L 243.2,185.8 L 254.3,145.7 Z M 20.0,292.5 L 40.0,312.5 L 61.0,254.8 Z M 20.0,292.5 L 61.0,254.8 L 28.3,247.4 Z M 28.3,247.4 L 61.0,254.8 L 87.1,196.1 Z M 28.3,247.4 L 87.1,196.1 L 20.0,159.1 Z M 20.0,159.1 L 87.1,196.1 L 75.0,127.5 Z M 20.0,159.1 L 75.0,127.5 L 45.0,127.5 Z M 190.0,175.3 L 196.3,120.9 L 140.0,115.0 Z M 190.0,175.3 L 140.0,115.0 L 146.2,190.6 Z M 146.2,190.6 L 140.0,115.0 L 75.0,127.5 Z M 146.2,190.6 L 75.0,127.5 L 87.1,196.1 Z M 270.0,142.5 L 270.0,82.5 L 229.4,104.3 Z M 270.0,82.5 L 250.0,62.5 L 229.4,104.3 Z M 250.0,62.5 L 165.0,62.5 L 196.3,120.9 Z M 250.0,62.5 L 196.3,120.9 L 229.4,104.3 Z M 190.0,175.3 L 173.8,223.1 L 218.8,220.7 Z M 190.0,175.3 L 218.8,220.7 L 228.0,191.6 Z M 61.0,254.8 L 40.0,312.5 L 82.9,307.0 Z M 190.0,175.3 L 146.2,190.6 L 173.8,223.1 Z M 165.0,62.5 L 140.0,115.0 L 196.3,120.9 Z M 45.0,127.5 L 75.0,127.5 L 75.0,62.5 Z M 45.0,127.5 L 75.0,62.5 L 45.0,62.5 Z M 45.0,62.5 L 75.0,62.5 L 82.9,20.0 Z M 45.0,62.5 L 82.9,20.0 L 52.9,20.0 Z M 245.0,280.0 L 215.0,280.0 L 215.0,312.5 Z M 245.0,280.0 L 215.0,312.5 L 245.0,312.5 Z M 245.0,312.5 L 215.0,312.5 L 196.9,380.0 Z M 245.0,312.5 L 196.9,380.0 L 226.9,380.0 Z M 143.2,266.2 L 142.3,278.2 L 215.0,280.0 Z M 143.2,266.2 L 215.0,280.0 L 220.9,267.7 Z M 220.9,267.7 L 215.0,280.0 L 245.0,280.0 Z M 220.9,267.7 L 245.0,280.0 L 238.0,267.1 Z M 190.0,175.3 L 228.0,191.6 L 243.2,185.8 Z M 190.0,175.3 L 243.2,185.8 L 204.2,167.8 Z M 142.3,278.2 L 143.2,266.2 L 89.3,289.7 Z M 142.3,278.2 L 89.3,289.7 L 82.9,307.0 Z M 270.0,247.4 L 257.6,185.6 L 243.2,185.8 Z M 270.0,247.4 L 243.2,185.8 L 257.0,244.7 Z M 238.0,267.1 L 245.0,280.0 L 270.0,247.4 Z M 238.0,267.1 L 270.0,247.4 L 257.0,244.7 Z M 227.1,120.8 L 254.3,145.7 L 270.0,142.5 Z M 227.1,120.8 L 270.0,142.5 L 229.4,104.3 Z M 270.0,142.5 L 254.3,145.7 L 243.2,185.8 Z M 270.0,142.5 L 243.2,185.8 L 257.6,185.6 Z M 228.2,233.6 L 218.8,220.7 L 173.8,223.1 Z M 228.2,233.6 L 173.8,223.1 L 166.1,235.3 Z M 228.2,233.6 L 243.2,185.8 L 228.0,191.6 Z M 228.2,233.6 L 228.0,191.6 L 218.8,220.7 Z M 82.9,307.0 L 89.3,289.7 L 74.5,254.3 Z M 82.9,307.0 L 74.5,254.3 L 61.0,254.8 Z M 173.8,223.1 L 146.2,190.6 L 141.4,205.0 Z M 173.8,223.1 L 141.4,205.0 L 166.1,235.3 Z M 190.0,175.3 L 204.2,167.8 L 208.5,129.7 Z M 190.0,175.3 L 208.5,129.7 L 196.3,120.9 Z M 208.5,129.7 L 227.1,120.8 L 229.4,104.3 Z M 208.5,129.7 L 229.4,104.3 L 196.3,120.9 Z M 96.4,209.3 L 87.1,196.1 L 61.0,254.8 Z M 96.4,209.3 L 61.0,254.8 L 74.5,254.3 Z M 146.2,190.6 L 87.1,196.1 L 96.4,209.3 Z M 146.2,190.6 L 96.4,209.3 L 141.4,205.0 Z" fill="#2a2a4e" stroke="none"/>
  <path d="M 20.0,292.5 L 40.0,312.5 M 28.3,247.4 L 20.0,292.5 M 20.0,159.1 L 28.3,247.4 M 45.0,127.5 L 20.0,159.1 M 140.0,115.0 L 75.0,127.5 M 270.0,142.5 L 270.0,82.5 M 270.0,82.5 L 250.0,62.5 M 250.0,62.5 L 165.0,62.5 M 40.0,312.5 L 82.9,307.0 M 165.0,62.5 L 140.0,115.0 M 75.0,127.5 L 75.0,62.5 M 45.0,62.5 L 45.0,127.5 M 75.0,62.5 L 82.9,20.0 M 82.9,20.0 L 52.9,20.0 M 52.9,20.0 L 45.0,62.5 M 215.0,280.0 L 215.0,312.5 M 245.0,312.5 L 245.0,280.0 M 215.0,312.5 L 196.9,380.0 M 196.9,380.0 L 226.9,380.0 M 226.9,380.0 L 245.0,312.5 M 142.3,278.2 L 215.0,280.0 M 82.9,307.0 L 142.3,278.2 M 270.0,247.4 L 257.6,185.6 M 245.0,280.0 L 270.0,247.4 M 257.6,185.6 L 270.0,142.5" fill="none" stroke="white" stroke-width="2" stroke-linecap="round"/>
  <polygon points="60.55476859347978,79.94914557279517 68.55476859347978,87.94914557279517 60.55476859347978,95.94914557279517 52.55476859347978,87.94914557279517" fill="#4a9eff" stroke="white" stroke-width="1"/>
<polygon points="230.0937291685946,276.63975668393755 238.0937291685946,284.63975668393755 230.0937291685946,292.63975668393755 222.0937291685946,284.63975668393755" fill="#4a9eff" stroke="white" stroke-width="1"/>
</svg>