<svg xmlns="http://www.w3.org/2000/svg" viewBox="0 0 400 400">
  <rect width="400" height="400" fill="#1a1a2e"/>
  <path d="M 218.8,220.7 L 230.0,192.9 L 190.0,175.3 Z M 218.8,220.7 L 190.0,175.3 L 173.8,228.1 Z M 173.8,228.1 L 190.0,175.3 L 163.4,207.3 Z M 173.8,228.1 L 163.4,207.3 L 163.4,237.3 Z M 270.0,82.5 L 250.0,62.5 L 236.9,80.2 Z M 270.0,82.5 L 236.9,80.2 L 234.1,107.6 Z M 75.0,127.5 L 45.0,127.5 L 20.0,159.1 Z M 75.0,127.5 L 20.0,159.1 L 61.0,181.3 Z M 40.0,312.5 L 69.1,258.3 L 28.3,247.4 Z M 40.0,312.5 L 28.3,247.4 L 20.0,292.5 Z M 69.1,258.3 L 40.0,312.5 L 82.9,307.0 Z M 270.0,142.5 L 270.0,82.5 L 234.1,107.6 Z M 111.8,151.9 L 75.0,127.5 L 61.0,181.3 Z M 177.6,240.4 L 193.9,267.4 L 242.8,267.5 Z M 177.6,240.4 L 242.8,267.5 L 228.5,232.2 Z M 228.5,232.2 L 242.8,267.5 L 257.0,244.7 Z M 228.5,232.2 L 257.0,244.7 L 243.2,185.8 Z M 88.3,278.5 L 123.0,235.7 L 123.8,210.8 Z M 88.3,278.5 L 123.8,210.8 L 79.0,251.9 Z M 79.0,251.9 L 123.8,210.8 L 104.3,168.4 Z M 79.0,251.9 L 104.3,168.4 L 63.0,193.8 Z M 243.2,185.8 L 254.3,145.7 L 222.9,113.7 Z M 243.2,185.8 L 222.9,113.7 L 199.5,165.4 Z M 199.5,165.4 L 222.9,113.7 L 158.6,88.4 Z M 199.5,165.4 L 158.6,88.4 L 158.2,112.0 Z M 158.6,88.4 L 222.9,113.7 L 224.0,75.5 Z M 158.6,88.4 L 224.0,75.5 L 171.6,75.6 Z M 39.5,239.5 L 79.0,251.9 L 63.0,193.8 Z M 39.5,239.5 L 63.0,193.8 L 33.7,179.2 Z M 190.0,175.3 L 199.5,165.4 L 158.2,112.0 Z M 190.0,175.3 L 158.2,112.0 L 145.0,117.7 Z M 145.0,117.7 L 158.2,112.0 L 158.6,88.4 Z M 145.0,117.7 L 158.6,88.4 L 145.0,82.5 Z M 224.0,75.5 L 250.0,62.5 L 165.0,62.5 Z M 224.0,75.5 L 165.0,62.5 L 171.6,75.6 Z M 171.6,75.6 L 165.0,62.5 L 145.0,82.5 Z M 171.6,75.6 L 145.0,82.5 L 158.6,88.4 Z M 257.0,244.7 L 270.0,247.4 L 257.6,185.6 Z M 257.0,244.7 L 257.6,185.6 L 243.2,185.8 Z M 243.2,185.8 L 257.6,185.6 L 270.0,142.5 Z M 243.2,185.8 L 270.0,142.5 L 254.3,145.7 Z M 190.0,175.3 L 230.0,192.9 L 243.2,185.8 Z M 190.0,175.3 L 243.2,185.8 L 199.5,165.4 Z M 79.0,251.9 L 39.5,239.5 L 28.3,247.4 Z M 79.0,251.9 L 28.3,247.4 L 69.1,258.3 Z M 39.5,239.5 L 33.7,179.2 L 20.0,159.1 Z M 39.5,239.5 L 20.0,159.1 L 28.3,247.4 Z M 138.4,237.3 L 123.0,235.7 L 88.3,278.5 Z M 138.4,237.3 L 88.3,278.5 L 82.9,307.0 Z M 123.8,210.8 L 138.4,207.3 L 111.8,151.9 Z M 123.8,210.8 L 111.8,151.9 L 104.3,168.4 Z M 123.0,235.7 L 138.4,237.3 L 138.4,207.3 Z M 123.0,235.7 L 138.4,207.3 L 123.8,210.8 Z M 242.8,267.5 L 193.9,267.4 L 186.3,280.0 Z M 242.8,267.5 L 186.3,280.0 L 245.0,280.0 Z M 186.3,280.0 L 193.9,267.4 L 177.6,240.4 Z M 186.3,280.0 L 177.6,240.4 L 163.4,237.3 Z M 236.9,80.2 L 224.0,75.5 L 222.9,113.7 Z M 236.9,80.2 L 222.9,113.7 L 234.1,107.6 Z M 242.8,267.5 L 245.0,280.0 L 270.0,247.4 Z M 242.8,267.5 L 270.0,247.4 L 257.0,244.7 Z M 222.9,113.7 L 254.3,145.7 L 270.0,142.5 Z M 222.9,113.7 L 270.0,142.5 L 234.1,107.6 Z M 228.5,232.2 L 218.8,220.7 L 173.8,228.1 Z M 228.5,232.2 L 173.8,228.1 L 177.6,240.4 Z M 228.5,232.2 L 243.2,185.8 L 230.0,192.9 Z M 228.5,232.2 L 230.0,192.9 L 218.8,220.7 Z M 63.0,193.8 L 61.0,181.3 L 20.0,159.1 Z M 63.0,193.8 L 20.0,159.1 L 33.7,179.2 Z M 63.0,193.8 L 104.3,168.4 L 111.8,151.9 Z M 63.0,193.8 L 111.8,151.9 L 61.0,181.3 Z M 82.9,307.0 L 88.3,278.5 L 79.0,251.9 Z M 82.9,307.0 L 79.0,251.9 L 69.1,258.3 Z M 224.0,75.5 L 236.9,80.2 L 250.0,62.5 Z M 177.6,240.4 L 173.8,228.1 L 163.4,237.3 Z M 45.0,127.5 L 75.0,127.5 L 75.0,62.5 Z M 45.0,127.5 L 75.0,62.5 L 45.0,62.5 Z M 45.0,62.5 L 75.0,62.5 L 82.9,20.0 Z M 45.0,62.5 L 82.9,20.0 L 52.9,20.0 Z M 245.0,280.0 L 215.0,280.0 L 215.0,312.5 Z M 245.0,280.0 L 215.0,312.5 L 245.0,312.5 Z M 245.0,312.5 L 215.0,312.5 L 196.9,380.0 Z M 245.0,312.5 L 196.9,380.0 L 226.9,380.0 Z M 138.4,237.2 L 163.4,237.2 L 163.4,207.2 Z M 138.4,237.2 L 163.4,207.2 L 138.4,207.2 Z" fill="#2a2a4e" stroke="none"/>
  <path d="M 190.0,175.3 L 163.4,207.3 M 163.4,207.3 L 163.4,237.3 M 270.0,82.5 L 250.0,62.5 M 45.0,127.5 L 20.0,159.1 M 28.3,247.4 L 20.0,292.5 M 20.0,292.5 L 40.0,312.5 M 40.0,312.5 L 82.9,307.0 M 270.0,142.5 L 270.0,82.5 M 111.8,151.9 L 75.0,127.5 M 145.0,117.7 L 190.0,175.3 M 145.0,82.5 L 145.0,117.7 M 250.0,62.5 L 165.0,62.5 M 165.0,62.5 L 145.0,82.5 M 270.0,247.4 L 257.6,185.6 M 257.6,185.6 L 270.0,142.5 M 20.0,159.1 L 28.3,247.4 M 82.9,307.0 L 138.4,237.3 M 138.4,207.3 L 111.8,151.9 M 138.4,237.3 L 138.4,207.3 M 186.3,280.0 L 245.0,280.0 M 163.4,237.3 L 186.3,280.0 M 245.0,280.0 L 270.0,247.4 M 75.0,127.5 L 75.0,62.5 M 45.0,62.5 L 45.0,127.5 M 75.0,62.5 L 82.9,20.0 M 82.9,20.0 L 52.9,20.0 M 52.9,20.0 L 45.0,62.5 M 245.0,280.0 L 215.0,280.0 M 215.0,280.0 L 215.0,312.5 M 245.0,312.5 L 245.0,280.0 M 215.0,312.5 L 196.9,380.0 M 196.9,380.0 L 226.9,380.0 M 226.9,380.0 L 245.0,312.5 M 138.4,237.2 L 163.4,237.2 M 163.4,237.2 L 163.4,207.2 M 163.4,207.2 L 138.4,207.2 M 138.4,207.2 L 138.4,237.2" fill="none" stroke="white" stroke-width="2" stroke-linecap="round"/>
  <polygon points="59.9924147380497,117.61091857318253 67.9924147380497,125.61091857318253 59.9924147380497,133.61091857318252 51.9924147380497,125.61091857318253" fill="#4a9eff" stroke="white" stroke-width="1"/>
<polygon points="229.88483772161396,273.78870632541305 237.88483772161396,281.78870632541305 229.88483772161396,289.78870632541305 221.88483772161396,281.78870632541305" fill="#4a9eff" stroke="white" stroke-width="1"/>
</svg>