<svg xmlns="http://www.w3.org/2000/svg" viewBox="0 0 400 400">
  <rect width="400" height="400" fill="#1a1a2e"/>
  <path d="M 215.4,177.4 L 180.2,141.8 L 167.8,189.9 Z M 215.4,177.4 L 167.8,189.9 L 207.5,207.5 Z M 207.5,207.5 L 167.8,189.9 L 172.5,207.4 Z M 207.5,207.5 L 172.5,207.4 L 187.9,214.8 Z M 100.3,194.1 L 100.7,171.0 L 91.5,148.9 Z M 100.3,194.1 L 91.5,148.9 L 72.5,194.5 Z M 72.5,194.5 L 91.5,148.9 L 49.0,143.9 Z M 72.5,194.5 L 49.0,143.9 L 54.7,182.9 Z M 90.8,45.6 L 90.7,69.0 L 117.7,76.4 Z M 90.8,45.6 L 117.7,76.4 L 105.3,34.9 Z M 105.3,34.9 L 117.7,76.4 L 129.5,58.8 Z M 105.3,34.9 L 129.5,58.8 L 123.0,34.9 Z M 91.5,148.9 L 63.0,133.2 L 49.0,143.9 Z M 215.4,177.4 L 205.9,141.8 L 180.2,141.8 Z M 180.2,141.8 L 167.8,157.8 L 167.8,189.9 Z M 38.6,190.0 L 33.0,138.6 L 20.0,156.0 Z M 33.0,138.6 L 20.0,120.5 L 20.0,156.0 Z M 135.7,20.0 L 146.5,61.3 L 207.1,36.7 Z M 146.5,61.3 L 216.3,61.3 L 207.1,36.7 Z M 216.3,61.3 L 146.5,61.3 L 203.0,85.9 Z M 146.5,61.3 L 165.0,85.9 L 203.0,85.9 Z M 20.0,120.5 L 33.0,138.6 L 58.1,114.2 Z M 123.8,93.1 L 165.0,85.9 L 146.5,61.3 Z M 207.5,207.5 L 217.0,218.8 L 229.3,178.8 Z M 207.5,207.5 L 229.3,178.8 L 215.4,177.4 Z M 172.5,207.4 L 160.2,215.3 L 185.6,229.3 Z M 172.5,207.4 L 185.6,229.3 L 187.9,214.8 Z M 187.9,214.8 L 185.6,229.3 L 217.0,218.8 Z M 187.9,214.8 L 217.0,218.8 L 207.5,207.5 Z M 167.8,189.9 L 155.2,190.8 L 160.2,215.3 Z M 167.8,189.9 L 160.2,215.3 L 172.5,207.4 Z M 155.2,151.3 L 167.8,157.8 L 180.2,141.8 Z M 155.2,151.3 L 180.2,141.8 L 175.8,126.9 Z M 91.5,148.9 L 102.4,139.6 L 58.1,114.2 Z M 91.5,148.9 L 58.1,114.2 L 63.0,133.2 Z M 114.0,193.9 L 114.0,164.4 L 100.7,171.0 Z M 114.0,193.9 L 100.7,171.0 L 100.3,194.1 Z M 72.5,194.5 L 54.7,182.9 L 38.6,190.0 Z M 72.5,194.5 L 38.6,190.0 L 64.0,208.4 Z M 64.0,208.4 L 100.3,208.4 L 100.3,194.1 Z M 64.0,208.4 L 100.3,194.1 L 72.5,194.5 Z M 49.0,143.9 L 63.0,133.2 L 58.1,114.2 Z M 49.0,143.9 L 58.1,114.2 L 33.0,138.6 Z M 49.0,143.9 L 33.0,138.6 L 38.6,190.0 Z M 49.0,143.9 L 38.6,190.0 L 54.7,182.9 Z M 114.0,164.4 L 102.4,139.6 L 91.5,148.9 Z M 114.0,164.4 L 91.5,148.9 L 100.7,171.0 Z M 129.5,58.8 L 117.7,76.4 L 123.8,93.1 Z M 129.5,58.8 L 123.8,93.1 L 146.5,61.3 Z M 78.6,40.7 L 78.6,78.2 L 90.7,69.0 Z M 78.6,40.7 L 90.7,69.0 L 90.8,45.6 Z M 105.3,34.9 L 123.0,34.9 L 135.7,20.0 Z M 105.3,34.9 L 135.7,20.0 L 102.7,20.0 Z M 90.8,45.6 L 105.3,34.9 L 102.7,20.0 Z M 90.8,45.6 L 102.7,20.0 L 78.6,40.7 Z M 129.5,58.8 L 146.5,61.3 L 135.7,20.0 Z M 129.5,58.8 L 135.7,20.0 L 123.0,34.9 Z M 78.6,78.2 L 123.8,93.1 L 117.7,76.4 Z M 78.6,78.2 L 117.7,76.4 L 90.7,69.0 Z M 229.3,178.8 L 216.2,126.9 L 205.9,141.8 Z M 229.3,178.8 L 205.9,141.8 L 215.4,177.4 Z M 216.2,126.9 L 175.8,126.9 L 180.2,141.8 Z M 216.2,126.9 L 180.2,141.8 L 205.9,141.8 Z M 155.2,151.3 L 155.2,190.8 L 167.8,189.9 Z M 155.2,151.3 L 167.8,189.9 L 167.8,157.8 Z M 100.3,208.4 L 114.0,193.9 L 100.3,194.1 Z M 95.3,302.6 L 95.3,208.4 L 70.2,208.4 Z M 95.3,302.6 L 70.2,208.4 L 70.2,313.0 Z M 168.1,380.0 L 95.3,302.6 L 70.2,313.0 Z M 168.1,380.0 L 70.2,313.0 L 149.3,380.0 Z M 114.0,164.4 L 114.0,189.5 L 155.2,189.5 Z M 114.0,164.4 L 155.2,189.5 L 155.2,164.4 Z M 202.1,126.9 L 202.1,85.9 L 177.0,85.9 Z M 202.1,126.9 L 177.0,85.9 L 177.0,126.9 Z" fill="#2a2a4e" stroke="none"/>
  <path d="M 20.0,156.0 L 38.6,190.0 M 20.0,120.5 L 20.0,156.0 M 207.1,36.7 L 135.7,20.0 M 216.3,61.3 L 207.1,36.7 M 203.0,85.9 L 216.3,61.3 M 165.0,85.9 L 203.0,85.9 M 58.1,114.2 L 20.0,120.5 M 123.8,93.1 L 165.0,85.9 M 217.0,218.8 L 229.3,178.8 M 160.2,215.3 L 185.6,229.3 M 185.6,229.3 L 217.0,218.8 M 155.2,190.8 L 160.2,215.3 M 175.8,126.9 L 155.2,151.3 M 102.4,139.6 L 58.1,114.2 M 114.0,193.9 L 114.0,164.4 M 38.6,190.0 L 64.0,208.4 M 64.0,208.4 L 100.3,208.4 M 114.0,164.4 L 102.4,139.6 M 78.6,40.7 L 78.6,78.2 M 135.7,20.0 L 102.7,20.0 M 102.7,20.0 L 78.6,40.7 M 78.6,78.2 L 123.8,93.1 M 229.3,178.8 L 216.2,126.9 M 216.2,126.9 L 175.8,126.9 M 155.2,151.3 L 155.2,190.8 M 100.3,208.4 L 114.0,193.9 M 95.3,302.6 L 95.3,208.4 M 95.3,208.4 L 70.2,208.4 M 70.2,208.4 L 70.2,313.0 M 168.1,380.0 L 95.3,302.6 M 70.2,313.0 L 149.3,380.0 M 149.3,380.0 L 168.1,380.0 M 114.0,164.4 L 114.0,189.5 M 114.0,189.5 L 155.2,189.5 M 155.2,189.5 L 155.2,164.4 M 155.2,164.4 L 114.0,164.4 M 202.1,126.9 L 202.1,85.9 M 202.1,85.9 L 177.0,85.9 M 177.0,85.9 L 177.0,126.9 M 177.0,126.9 L 202.1,126.9" fill="none" stroke="white" stroke-width="2" stroke-linecap="round"/>
  <polygon points="83.35489499235648,201.73878756673778 91.35489499235648,209.73878756673778 83.35489499235648,217.73878756673778 75.35489499235648,209.73878756673778" fill="#4a9eff" stroke="white" stroke-width="1"/>
</svg>