<svg xmlns="http://www.w3.org/2000/svg" viewBox="0 0 400 400">
  <rect width="400" height="400" fill="#1a1a2e"/>
  <path d="M 54.0,244.0 L 93.5,266.7 L 81.5,237.5 Z M 126.7,200.4 L 127.6,225.6 L 157.4,210.8 Z M 116.5,269.8 L 93.5,266.7 L 90.1,291.7 Z M 145.5,286.0 L 130.6,254.3 L 116.5,269.8 Z M 145.5,286.0 L 116.5,269.8 L 134.4,316.3 Z M 134.4,316.3 L 116.5,269.8 L 90.1,291.7 Z M 134.4,316.3 L 90.1,291.7 L 96.3,311.3 Z M 81.5,237.5 L 100.9,218.3 L 94.1,191.5 Z M 81.5,237.5 L 94.1,191.5 L 66.7,209.4 Z M 127.6,225.6 L 126.7,200.4 L 103.6,191.5 Z M 127.6,225.6 L 103.6,191.5 L 100.9,218.3 Z M 126.7,200.4 L 157.4,210.8 L 151.1,197.6 Z M 54.0,244.0 L 81.5,237.5 L 66.7,209.4 Z M 134.4,316.3 L 141.6,316.0 L 145.5,286.0 Z M 145.5,286.0 L 157.6,274.5 L 130.6,254.3 Z M 100.9,218.3 L 103.6,191.5 L 94.1,191.5 Z M 127.8,380.0 L 149.6,380.0 L 149.6,327.2 Z M 127.8,380.0 L 149.6,327.2 L 127.8,327.2 Z M 109.6,141.6 L 87.8,136.1 L 87.8,181.6 Z M 109.6,141.6 L 87.8,181.6 L 109.6,181.6 Z M 109.6,181.6 L 87.8,181.6 L 94.1,191.5 Z M 109.6,181.6 L 94.1,191.5 L 103.6,191.5 Z M 127.8,327.2 L 149.6,327.2 L 141.6,316.0 Z M 127.8,327.2 L 141.6,316.0 L 134.4,316.3 Z M 141.4,231.2 L 142.8,247.6 L 174.9,271.6 Z M 141.4,231.2 L 174.9,271.6 L 171.3,215.2 Z M 171.3,215.2 L 174.9,271.6 L 195.0,242.5 Z M 171.3,215.2 L 195.0,242.5 L 192.3,205.1 Z M 117.1,233.4 L 103.6,229.6 L 92.9,239.6 Z M 117.1,233.4 L 92.9,239.6 L 119.5,250.6 Z M 119.5,250.6 L 92.9,239.6 L 100.1,257.5 Z M 119.5,250.6 L 100.1,257.5 L 112.0,259.0 Z M 40.7,250.2 L 49.5,290.1 L 81.3,273.2 Z M 49.5,290.1 L 76.8,297.0 L 81.3,273.2 Z M 155.6,291.4 L 184.6,318.3 L 206.2,287.8 Z M 155.6,291.4 L 206.2,287.8 L 174.9,271.6 Z M 192.3,205.1 L 159.7,185.8 L 171.3,215.2 Z M 174.9,271.6 L 206.2,287.8 L 195.0,242.5 Z M 149.6,327.2 L 184.6,318.3 L 155.6,291.4 Z M 49.5,290.1 L 85.1,320.8 L 76.8,297.0 Z M 44.3,20.0 L 20.0,93.0 L 68.2,58.1 Z M 96.3,311.3 L 85.1,320.8 L 127.8,327.2 Z M 96.3,311.3 L 127.8,327.2 L 134.4,316.3 Z M 126.7,200.4 L 127.3,188.4 L 109.6,181.6 Z M 126.7,200.4 L 109.6,181.6 L 103.6,191.5 Z M 93.5,266.7 L 54.0,244.0 L 40.7,250.2 Z M 93.5,266.7 L 40.7,250.2 L 81.3,273.2 Z M 94.1,191.5 L 87.8,181.6 L 57.3,198.8 Z M 94.1,191.5 L 57.3,198.8 L 66.7,209.4 Z M 151.1,197.6 L 159.7,185.8 L 127.3,188.4 Z M 151.1,197.6 L 127.3,188.4 L 126.7,200.4 Z M 145.5,286.0 L 141.6,316.0 L 149.6,327.2 Z M 145.5,286.0 L 149.6,327.2 L 155.6,291.4 Z M 130.6,254.3 L 127.6,225.6 L 117.1,233.4 Z M 130.6,254.3 L 117.1,233.4 L 119.5,250.6 Z M 127.6,225.6 L 141.4,231.2 L 171.3,215.2 Z M 127.6,225.6 L 171.3,215.2 L 157.4,210.8 Z M 142.8,247.6 L 130.6,254.3 L 157.6,274.5 Z M 142.8,247.6 L 157.6,274.5 L 174.9,271.6 Z M 127.6,225.6 L 130.6,254.3 L 142.8,247.6 Z M 127.6,225.6 L 142.8,247.6 L 141.4,231.2 Z M 76.8,297.0 L 90.1,291.7 L 93.5,266.7 Z M 76.8,297.0 L 93.5,266.7 L 81.3,273.2 Z M 66.7,209.4 L 57.3,198.8 L 40.7,250.2 Z M 66.7,209.4 L 40.7,250.2 L 54.0,244.0 Z M 159.7,185.8 L 151.1,197.6 L 157.4,210.8 Z M 159.7,185.8 L 157.4,210.8 L 171.3,215.2 Z M 145.5,286.0 L 155.6,291.4 L 174.9,271.6 Z M 145.5,286.0 L 174.9,271.6 L 157.6,274.5 Z M 81.5,237.5 L 93.5,266.7 L 100.1,257.5 Z M 81.5,237.5 L 100.1,257.5 L 92.9,239.6 Z M 103.6,229.6 L 100.9,218.3 L 81.5,237.5 Z M 103.6,229.6 L 81.5,237.5 L 92.9,239.6 Z M 117.1,233.4 L 127.6,225.6 L 100.9,218.3 Z M 117.1,233.4 L 100.9,218.3 L 103.6,229.6 Z M 93.5,266.7 L 116.5,269.8 L 112.0,259.0 Z M 93.5,266.7 L 112.0,259.0 L 100.1,257.5 Z M 112.0,259.0 L 116.5,269.8 L 130.6,254.3 Z M 112.0,259.0 L 130.6,254.3 L 119.5,250.6 Z M 85.1,320.8 L 96.3,311.3 L 90.1,291.7 Z M 85.1,320.8 L 90.1,291.7 L 76.8,297.0 Z" fill="#2a2a4e" stroke="none"/>
  <path d="M 127.8,380.0 L 149.6,380.0 M 149.6,380.0 L 149.6,327.2 M 127.8,327.2 L 127.8,380.0 M 109.6,141.6 L 87.8,136.1 M 87.8,136.1 L 87.8,181.6 M 109.6,181.6 L 109.6,141.6 M 195.0,242.5 L 192.3,205.1 M 40.7,250.2 L 49.5,290.1 M 184.6,318.3 L 206.2,287.8 M 192.3,205.1 L 159.7,185.8 M 206.2,287.8 L 195.0,242.5 M 149.6,327.2 L 184.6,318.3 M 49.5,290.1 L 85.1,320.8 M 44.3,20.0 L 20.0,93.0 M 20.0,93.0 L 68.2,58.1 M 68.2,58.1 L 44.3,20.0 M 85.1,320.8 L 127.8,327.2 M 127.3,188.4 L 109.6,181.6 M 87.8,181.6 L 57.3,198.8 M 159.7,185.8 L 127.3,188.4 M 57.3,198.8 L 40.7,250.2" fill="none" stroke="white" stroke-width="2" stroke-linecap="round"/>
  <polygon points="98.92581327582513,172.4621017183177 106.92581327582513,180.4621017183177 98.92581327582513,188.4621017183177 90.92581327582513,180.4621017183177" fill="#4a9eff" stroke="white" stroke-width="1"/>
<polygon points="138.0253039564558,323.48493858148606 146.0253039564558,331.48493858148606 138.0253039564558,339.48493858148606 130.0253039564558,331.48493858148606" fill="#4a9eff" stroke="white" stroke-width="1"/>
</svg>