<svg xmlns="http://www.w3.org/2000/svg" viewBox="0 0 400 400">
  <rect width="400" height="400" fill="#1a1a2e"/>
  <path d="M 124.5,380.0 L 117.1,218.3 L 101.5,218.9 Z M 124.5,380.0 L 101.5,218.9 L 108.2,380.0 Z M 108.2,380.0 L 101.5,218.9 L 85.9,219.6 Z M 108.2,380.0 L 85.9,219.6 L 91.9,380.0 Z M 117.1,218.3 L 124.5,380.0 L 130.5,223.8 Z M 102.5,205.0 L 101.8,131.8 L 51.4,77.5 Z M 102.5,205.0 L 51.4,77.5 L 58.8,231.4 Z M 58.8,231.4 L 51.4,77.5 L 20.0,108.2 Z M 58.8,231.4 L 20.0,108.2 L 23.0,193.4 Z M 99.1,59.4 L 152.2,61.7 L 177.8,20.0 Z M 152.2,61.7 L 201.5,60.9 L 177.8,20.0 Z M 177.8,20.0 L 201.5,60.9 L 246.2,98.1 Z M 201.5,60.9 L 202.6,104.4 L 246.2,98.1 Z M 246.2,98.1 L 202.6,104.4 L 247.5,169.6 Z M 247.5,169.6 L 153.3,164.1 L 210.5,189.6 Z M 153.3,164.1 L 177.9,230.8 L 210.5,189.6 Z M 51.4,77.5 L 99.1,59.4 L 90.8,20.3 Z M 99.1,59.4 L 177.8,20.0 L 90.8,20.3 Z M 247.5,169.6 L 202.6,104.4 L 150.7,110.9 Z M 247.5,169.6 L 150.7,110.9 L 153.3,164.1 Z M 102.5,205.0 L 153.3,164.1 L 150.7,110.9 Z M 102.5,205.0 L 150.7,110.9 L 101.8,131.8 Z M 101.8,131.8 L 150.7,110.9 L 152.2,61.7 Z M 101.8,131.8 L 152.2,61.7 L 99.1,59.4 Z M 58.8,231.4 L 177.9,230.8 L 102.5,205.0 Z M 177.9,230.8 L 153.3,164.1 L 102.5,205.0 Z M 152.2,61.7 L 150.7,110.9 L 202.6,104.4 Z M 152.2,61.7 L 202.6,104.4 L 201.5,60.9 Z M 101.8,131.8 L 99.1,59.4 L 51.4,77.5 Z" fill="#2a2a4e" stroke="none"/>
  <path d="M 117.1,218.3 L 101.5,218.9 M 108.2,380.0 L 124.5,380.0 M 101.5,218.9 L 85.9,219.6 M 85.9,219.6 L 91.9,380.0 M 91.9,380.0 L 108.2,380.0 M 124.5,380.0 L 130.5,223.8 M 130.5,223.8 L 117.1,218.3 M 51.4,77.5 L 20.0,108.2 M 20.0,108.2 L 23.0,193.4 M 23.0,193.4 L 58.8,231.4 M 246.2,98.1 L 177.8,20.0 M 247.5,169.6 L 246.2,98.1 M 210.5,189.6 L 247.5,169.6 M 177.9,230.8 L 210.5,189.6 M 90.8,20.3 L 51.4,77.5 M 177.8,20.0 L 90.8,20.3 M 58.8,231.4 L 177.9,230.8" fill="none" stroke="white" stroke-width="2" stroke-linecap="round"/>
  <polygon points="108.56716712013423,221.7772751339517 116.56716712013423,229.7772751339517 108.56716712013423,237.7772751339517 100.56716712013423,229.7772751339517" fill="#4a9eff" stroke="white" stroke-width="1"/>
</svg>