<svg xmlns="http://www.w3.org/2000/svg" viewBox="0 0 400 400">
  <rect width="400" height="400" fill="#1a1a2e"/>
  <path d="M 164.9,181.3 L 165.0,235.0 L 191.8,208.2 Z M 165.0,235.0 L 218.7,235.1 L 191.8,208.2 Z M 191.8,208.2 L 218.7,235.1 L 255.7,197.6 Z M 255.7,197.6 L 202.4,144.3 L 191.8,208.2 Z M 202.4,144.3 L 164.9,181.3 L 191.8,208.2 Z M 247.9,322.4 L 157.8,322.7 L 139.8,340.7 Z M 247.9,322.4 L 139.8,340.7 L 247.9,340.1 Z M 77.6,152.1 L 59.9,152.1 L 59.3,260.2 Z M 77.6,152.1 L 59.3,260.2 L 77.3,242.2 Z M 221.7,242.3 L 218.7,235.1 L 165.0,235.0 Z M 221.7,242.3 L 165.0,235.0 L 157.7,242.3 Z M 157.7,242.3 L 165.0,235.0 L 164.9,181.3 Z M 157.7,242.3 L 164.9,181.3 L 157.7,178.3 Z M 354.6,248.3 L 380.0,248.3 L 380.0,222.9 Z M 354.6,248.3 L 380.0,222.9 L 354.6,222.9 Z M 354.6,222.9 L 380.0,222.9 L 380.0,197.5 Z M 354.6,222.9 L 380.0,197.5 L 354.6,197.5 Z M 202.5,45.4 L 202.5,20.0 L 177.1,20.0 Z M 202.5,45.4 L 177.1,20.0 L 177.1,45.4 Z M 177.1,45.4 L 177.1,20.0 L 151.7,20.0 Z M 177.1,45.4 L 151.7,20.0 L 151.7,45.4 Z M 354.6,248.3 L 354.6,222.9 L 303.0,248.3 Z M 354.6,222.9 L 282.3,197.5 L 303.0,248.3 Z M 151.7,45.4 L 151.7,97.0 L 177.1,45.4 Z M 151.7,97.0 L 202.5,117.7 L 177.1,45.4 Z M 177.1,45.4 L 202.5,117.7 L 202.5,45.4 Z M 41.7,277.8 L 81.9,318.1 L 113.3,278.3 Z M 81.9,318.1 L 121.7,286.7 L 113.3,278.3 Z M 266.0,197.6 L 255.7,197.6 L 218.7,235.1 Z M 266.0,197.6 L 218.7,235.1 L 221.7,242.3 Z M 164.9,181.3 L 202.4,144.3 L 202.5,134.1 Z M 164.9,181.3 L 202.5,134.1 L 157.7,178.3 Z M 202.4,144.3 L 255.7,197.6 L 266.0,197.6 Z M 202.4,144.3 L 266.0,197.6 L 202.5,134.1 Z M 247.9,304.6 L 303.0,248.3 L 282.3,197.5 Z M 247.9,304.6 L 282.3,197.5 L 226.6,253.9 Z M 175.8,304.6 L 247.9,304.6 L 226.6,253.9 Z M 175.8,304.6 L 226.6,253.9 L 154.5,253.9 Z M 154.5,253.9 L 121.7,286.7 L 122.2,358.3 Z M 154.5,253.9 L 122.2,358.3 L 175.8,304.6 Z M 146.1,173.4 L 95.4,152.1 L 95.4,224.2 Z M 146.1,173.4 L 95.4,224.2 L 146.1,245.5 Z M 146.1,245.5 L 95.4,224.2 L 41.7,277.8 Z M 146.1,245.5 L 41.7,277.8 L 113.3,278.3 Z M 202.5,117.7 L 151.7,97.0 L 95.4,152.1 Z M 202.5,117.7 L 95.4,152.1 L 146.1,173.4 Z M 354.6,222.9 L 354.6,197.5 L 282.3,197.5 Z M 81.9,318.1 L 122.2,358.3 L 121.7,286.7 Z M 115.3,371.5 L 122.2,358.3 L 81.9,318.1 Z M 115.3,371.5 L 81.9,318.1 L 71.9,328.1 Z M 71.9,328.1 L 81.9,318.1 L 41.7,277.8 Z M 71.9,328.1 L 41.7,277.8 L 28.5,284.7 Z M 122.2,358.3 L 115.3,371.5 L 260.4,371.5 Z M 122.2,358.3 L 260.4,371.5 L 247.9,357.9 Z M 260.4,371.5 L 260.4,309.9 L 247.9,304.6 Z M 260.4,371.5 L 247.9,304.6 L 247.9,357.9 Z M 247.9,304.6 L 260.4,309.9 L 322.0,248.3 Z M 247.9,304.6 L 322.0,248.3 L 303.0,248.3 Z M 28.5,139.6 L 28.5,284.7 L 41.7,277.8 Z M 28.5,139.6 L 41.7,277.8 L 42.1,152.1 Z M 95.4,152.1 L 90.1,139.6 L 28.5,139.6 Z M 95.4,152.1 L 28.5,139.6 L 42.1,152.1 Z M 151.7,78.0 L 90.1,139.6 L 95.4,152.1 Z M 151.7,78.0 L 95.4,152.1 L 151.7,97.0 Z M 28.5,284.7 L 28.5,139.6 L 20.0,139.6 Z M 28.5,284.7 L 20.0,139.6 L 20.0,288.3 Z M 111.7,380.0 L 260.4,380.0 L 260.4,371.5 Z M 111.7,380.0 L 260.4,371.5 L 115.3,371.5 Z M 309.5,185.0 L 270.0,184.9 L 266.0,197.6 Z M 309.5,185.0 L 266.0,197.6 L 322.0,197.5 Z M 202.4,134.0 L 266.0,197.6 L 270.0,184.9 Z M 202.4,134.0 L 270.0,184.9 L 215.1,130.0 Z M 202.5,78.0 L 202.4,134.0 L 215.1,130.0 Z M 202.5,78.0 L 215.1,130.0 L 215.0,90.5 Z M 282.3,197.5 L 202.5,117.7 L 146.1,173.4 Z M 282.3,197.5 L 146.1,173.4 L 226.6,253.9 Z M 226.6,253.9 L 146.1,173.4 L 113.3,278.3 Z M 226.6,253.9 L 113.3,278.3 L 121.7,286.7 Z M 122.2,358.3 L 247.9,357.9 L 247.9,304.6 Z M 122.2,358.3 L 247.9,304.6 L 175.8,304.6 Z M 95.4,152.1 L 42.1,152.1 L 41.7,277.8 Z M 95.4,152.1 L 41.7,277.8 L 95.4,224.2 Z" fill="#2a2a4e" stroke="none"/>
  <path d="M 247.9,322.4 L 157.8,322.7 M 157.8,322.7 L 139.8,340.7 M 139.8,340.7 L 247.9,340.1 M 247.9,340.1 L 247.9,322.4 M 77.6,152.1 L 59.9,152.1 M 59.9,152.1 L 59.3,260.2 M 59.3,260.2 L 77.3,242.2 M 77.3,242.2 L 77.6,152.1 M 157.7,242.3 L 221.7,242.3 M 157.7,178.3 L 157.7,242.3 M 354.6,248.3 L 380.0,248.3 M 380.0,248.3 L 380.0,222.9 M 380.0,222.9 L 380.0,197.5 M 380.0,197.5 L 354.6,197.5 M 202.5,45.4 L 202.5,20.0 M 202.5,20.0 L 177.1,20.0 M 177.1,20.0 L 151.7,20.0 M 151.7,20.0 L 151.7,45.4 M 303.0,248.3 L 354.6,248.3 M 151.7,45.4 L 151.7,97.0 M 202.5,117.7 L 202.5,45.4 M 221.7,242.3 L 266.0,197.6 M 202.5,134.1 L 157.7,178.3 M 266.0,197.6 L 202.5,134.1 M 226.6,253.9 L 154.5,253.9 M 154.5,253.9 L 121.7,286.7 M 146.1,245.5 L 146.1,173.4 M 113.3,278.3 L 146.1,245.5 M 354.6,197.5 L 282.3,197.5 M 71.9,328.1 L 115.3,371.5 M 28.5,284.7 L 71.9,328.1 M 260.4,371.5 L 260.4,309.9 M 260.4,309.9 L 322.0,248.3 M 322.0,248.3 L 303.0,248.3 M 90.1,139.6 L 28.5,139.6 M 151.7,78.0 L 90.1,139.6 M 151.7,97.0 L 151.7,78.0 M 28.5,139.6 L 20.0,139.6 M 20.0,139.6 L 20.0,288.3 M 20.0,288.3 L 28.5,284.7 M 111.7,380.0 L 260.4,380.0 M 260.4,380.0 L 260.4,371.5 M 115.3,371.5 L 111.7,380.0 M 309.5,185.0 L 270.0,184.9 M 266.0,197.6 L 322.0,197.5 M 322.0,197.5 L 309.5,185.0 M 202.4,134.0 L 266.0,197.6 M 270.0,184.9 L 215.1,130.0 M 202.5,78.0 L 202.4,134.0 M 215.1,130.0 L 215.0,90.5 M 215.0,90.5 L 202.5,78.0 M 282.3,197.5 L 202.5,117.7 M 146.1,173.4 L 113.3,278.3 M 121.7,286.7 L 226.6,253.9" fill="none" stroke="white" stroke-width="2" stroke-linecap="round"/>
  <polygon points="324.4923614716539,216.51720014568136 332.4923614716539,224.51720014568136 324.4923614716539,232.51720014568136 316.4923614716539,224.51720014568136" fill="#4a9eff" stroke="white" stroke-width="1"/>
<polygon points="177.1805759681566,73.4486633257724 185.1805759681566,81.4486633257724 177.1805759681566,89.4486633257724 169.1805759681566,81.4486633257724" fill="#4a9eff" stroke="white" stroke-width="1"/>
</svg>