<svg xmlns="http://www.w3.org/2000/svg" viewBox="0 0 400 400">
  <rect width="400" height="400" fill="#1a1a2e"/>
  <path d="M 94.0,290.2 L 94.0,341.6 L 132.4,341.6 Z M 94.0,290.2 L 132.4,341.6 L 132.4,290.2 Z M 132.4,290.2 L 132.4,341.6 L 170.8,341.6 Z M 132.4,290.2 L 170.8,341.6 L 170.8,290.2 Z M 94.0,341.6 L 94.0,380.0 L 132.4,380.0 Z M 94.0,341.6 L 132.4,380.0 L 132.4,341.6 Z M 132.4,341.6 L 132.4,380.0 L 170.8,380.0 Z M 132.4,341.6 L 170.8,380.0 L 170.8,341.6 Z M 170.8,80.2 L 170.8,58.3 L 132.4,58.3 Z M 170.8,80.2 L 132.4,58.3 L 132.4,80.2 Z M 132.4,80.2 L 132.4,58.3 L 94.0,58.3 Z M 132.4,80.2 L 94.0,58.3 L 94.0,80.2 Z M 170.8,58.3 L 170.8,20.2 L 132.4,20.2 Z M 170.8,58.3 L 132.4,20.2 L 132.4,58.3 Z M 132.4,58.3 L 132.4,20.2 L 94.0,20.2 Z M 132.4,58.3 L 94.0,20.2 L 94.0,58.3 Z M 170.8,290.2 L 170.8,259.1 L 132.4,243.3 Z M 170.8,290.2 L 132.4,243.3 L 132.4,290.2 Z M 132.4,290.2 L 132.4,243.3 L 94.0,259.1 Z M 132.4,290.2 L 94.0,259.1 L 94.0,290.2 Z M 94.0,80.2 L 94.0,111.2 L 132.4,127.0 Z M 94.0,80.2 L 132.4,127.0 L 132.4,80.2 Z M 132.4,80.2 L 132.4,127.0 L 170.8,111.2 Z M 132.4,80.2 L 170.8,111.2 L 170.8,80.2 Z M 222.8,207.0 L 222.8,163.1 L 184.4,179.0 Z M 222.8,207.0 L 184.4,179.0 L 184.4,191.3 Z M 222.8,163.1 L 170.8,111.1 L 132.4,127.0 Z M 222.8,163.1 L 132.4,127.0 L 184.4,179.0 Z M 132.4,243.3 L 170.8,259.1 L 222.8,207.0 Z M 132.4,243.3 L 222.8,207.0 L 184.4,191.3 Z M 41.9,163.3 L 41.9,207.1 L 80.3,191.3 Z M 41.9,163.3 L 80.3,191.3 L 80.3,179.0 Z M 41.9,207.1 L 94.0,259.1 L 132.4,243.3 Z M 41.9,207.1 L 132.4,243.3 L 80.3,191.3 Z M 132.4,127.0 L 94.0,111.2 L 41.9,163.3 Z M 132.4,127.0 L 41.9,163.3 L 80.3,179.0 Z M 41.9,163.3 L 94.0,111.2 L 94.0,80.2 Z M 41.9,163.3 L 94.0,80.2 L 20.0,154.2 Z M 94.0,290.2 L 94.0,259.1 L 41.9,207.1 Z M 94.0,290.2 L 41.9,207.1 L 20.0,216.2 Z M 170.8,80.2 L 170.8,111.2 L 222.8,163.3 Z M 170.8,80.2 L 222.8,163.3 L 244.7,154.2 Z M 222.8,207.1 L 170.8,259.1 L 170.8,290.2 Z M 222.8,207.1 L 170.8,290.2 L 244.7,216.2 Z M 244.7,154.2 L 222.8,163.3 L 222.8,207.1 Z M 244.7,154.2 L 222.8,207.1 L 244.7,216.2 Z M 41.9,207.1 L 41.9,163.3 L 20.0,154.2 Z M 41.9,207.1 L 20.0,154.2 L 20.0,216.2 Z M 94.0,42.2 L 94.0,20.2 L 76.1,20.0 Z M 94.0,42.2 L 76.1,20.0 L 76.1,42.2 Z M 188.7,42.2 L 188.7,20.4 L 170.8,20.2 Z M 188.7,42.2 L 170.8,20.2 L 170.8,42.2 Z M 132.4,214.2 L 132.4,243.3 L 190.6,185.1 Z M 132.4,214.2 L 190.6,185.1 L 161.5,185.1 Z M 161.5,185.1 L 190.6,185.1 L 132.4,127.0 Z M 161.5,185.1 L 132.4,127.0 L 132.4,156.0 Z M 132.4,156.0 L 132.4,127.0 L 74.2,185.1 Z M 132.4,156.0 L 74.2,185.1 L 103.3,185.1 Z M 103.3,185.1 L 74.2,185.1 L 132.4,243.3 Z M 103.3,185.1 L 132.4,243.3 L 132.4,214.2 Z M 103.3,185.1 L 132.4,214.2 L 161.5,185.1 Z M 103.3,185.1 L 161.5,185.1 L 132.4,156.0 Z" fill="#2a2a4e" stroke="none"/>
  <path d="M 94.0,290.2 L 94.0,341.6 M 170.8,341.6 L 170.8,290.2 M 94.0,341.6 L 94.0,380.0 M 94.0,380.0 L 132.4,380.0 M 132.4,380.0 L 170.8,380.0 M 170.8,380.0 L 170.8,341.6 M 170.8,80.2 L 170.8,58.3 M 94.0,58.3 L 94.0,80.2 M 170.8,58.3 L 170.8,20.2 M 170.8,20.2 L 132.4,20.2 M 132.4,20.2 L 94.0,20.2 M 94.0,20.2 L 94.0,58.3 M 132.4,127.0 L 170.8,111.2 M 222.8,207.0 L 222.8,163.1 M 184.4,179.0 L 184.4,191.3 M 222.8,163.1 L 170.8,111.1 M 170.8,111.1 L 132.4,127.0 M 132.4,127.0 L 184.4,179.0 M 170.8,259.1 L 222.8,207.0 M 184.4,191.3 L 132.4,243.3 M 80.3,191.3 L 80.3,179.0 M 132.4,243.3 L 80.3,191.3 M 80.3,179.0 L 132.4,127.0 M 94.0,80.2 L 20.0,154.2 M 20.0,216.2 L 94.0,290.2 M 170.8,111.2 L 222.8,163.3 M 244.7,154.2 L 170.8,80.2 M 222.8,207.1 L 170.8,259.1 M 170.8,290.2 L 244.7,216.2 M 222.8,163.3 L 222.8,207.1 M 244.7,216.2 L 244.7,154.2 M 20.0,154.2 L 20.0,216.2 M 94.0,42.2 L 94.0,20.2 M 94.0,20.2 L 76.1,20.0 M 76.1,20.0 L 76.1,42.2 M 76.1,42.2 L 94.0,42.2 M 188.7,42.2 L 188.7,20.4 M 188.7,20.4 L 170.8,20.2 M 170.8,20.2 L 170.8,42.2 M 170.8,42.2 L 188.7,42.2 M 132.4,243.3 L 190.6,185.1 M 190.6,185.1 L 132.4,127.0 M 132.4,127.0 L 74.2,185.1 M 74.2,185.1 L 132.4,243.3" fill="none" stroke="white" stroke-width="2" stroke-linecap="round"/>
  <polygon points="133.01177071433116,95.55661795279266 141.01177071433116,103.55661795279266 133.01177071433116,111.55661795279266 125.01177071433116,103.55661795279266" fill="#4a9eff" stroke="white" stroke-width="1"/>
<polygon points="131.0856051319189,266.53684021858703 139.0856051319189,274.53684021858703 131.0856051319189,282.53684021858703 123.0856051319189,274.53684021858703" fill="#4a9eff" stroke="white" stroke-width="1"/>
</svg>