<svg xmlns="http://www.w3.org/2000/svg" viewBox="0 0 400 400">
  <rect width="400" height="400" fill="#1a1a2e"/>
  <path d="M 188.8,341.6 L 188.8,290.1 L 150.4,290.1 Z M 188.8,341.6 L 150.4,290.1 L 150.4,341.6 Z M 150.4,341.6 L 150.4,290.1 L 112.0,290.1 Z M 150.4,341.6 L 112.0,290.1 L 112.0,341.6 Z M 188.8,380.0 L 188.8,341.6 L 150.4,341.6 Z M 188.8,380.0 L 150.4,341.6 L 150.4,380.0 Z M 150.4,380.0 L 150.4,341.6 L 112.0,341.6 Z M 150.4,380.0 L 112.0,341.6 L 112.0,380.0 Z M 112.0,58.1 L 112.0,80.0 L 150.4,80.0 Z M 112.0,58.1 L 150.4,80.0 L 150.4,58.1 Z M 150.4,58.1 L 150.4,80.0 L 188.8,80.0 Z M 150.4,58.1 L 188.8,80.0 L 188.8,58.1 Z M 112.0,20.0 L 112.0,58.1 L 150.4,58.1 Z M 112.0,20.0 L 150.4,58.1 L 150.4,20.0 Z M 150.4,20.0 L 150.4,58.1 L 188.8,58.1 Z M 150.4,20.0 L 188.8,58.1 L 188.8,20.0 Z M 112.0,259.0 L 112.0,290.1 L 150.4,290.1 Z M 112.0,259.0 L 150.4,290.1 L 150.4,243.2 Z M 150.4,243.2 L 150.4,290.1 L 188.8,290.1 Z M 150.4,243.2 L 188.8,290.1 L 188.8,259.0 Z M 188.8,111.1 L 188.8,80.0 L 150.4,80.0 Z M 188.8,111.1 L 150.4,80.0 L 150.4,126.8 Z M 150.4,126.8 L 150.4,80.0 L 112.0,80.0 Z M 150.4,126.8 L 112.0,80.0 L 112.0,111.1 Z M 59.9,206.9 L 98.3,191.2 L 98.3,178.9 Z M 59.9,206.9 L 98.3,178.9 L 59.9,163.0 Z M 59.9,163.0 L 98.3,178.9 L 150.4,126.8 Z M 59.9,163.0 L 150.4,126.8 L 112.0,110.9 Z M 150.4,243.2 L 98.3,191.2 L 59.9,206.9 Z M 150.4,243.2 L 59.9,206.9 L 112.0,259.0 Z M 240.9,163.1 L 202.4,178.9 L 202.4,191.2 Z M 240.9,163.1 L 202.4,191.2 L 240.9,207.0 Z M 240.9,207.0 L 202.4,191.2 L 150.4,243.2 Z M 240.9,207.0 L 150.4,243.2 L 188.8,259.0 Z M 150.4,126.8 L 202.4,178.9 L 240.9,163.1 Z M 150.4,126.8 L 240.9,163.1 L 188.8,111.1 Z M 240.9,163.1 L 262.8,154.0 L 188.8,80.0 Z M 240.9,163.1 L 188.8,80.0 L 188.8,111.1 Z M 188.8,290.1 L 262.8,216.1 L 240.9,207.0 Z M 188.8,290.1 L 240.9,207.0 L 188.8,259.0 Z M 112.0,80.0 L 38.0,154.0 L 59.9,163.1 Z M 112.0,80.0 L 59.9,163.1 L 112.0,111.1 Z M 59.9,207.0 L 38.0,216.1 L 112.0,290.1 Z M 59.9,207.0 L 112.0,290.1 L 112.0,259.0 Z M 38.0,154.0 L 38.0,216.1 L 59.9,207.0 Z M 38.0,154.0 L 59.9,207.0 L 59.9,163.1 Z M 240.9,207.0 L 262.8,216.1 L 262.8,154.0 Z M 240.9,207.0 L 262.8,154.0 L 240.9,163.1 Z M 188.8,42.0 L 206.7,42.0 L 206.7,20.2 Z M 188.8,42.0 L 206.7,20.2 L 188.8,20.0 Z M 20.0,146.6 L 38.0,154.0 L 112.0,80.0 Z M 20.0,146.6 L 112.0,80.0 L 94.0,72.6 Z M 20.0,146.6 L 20.0,185.1 L 38.0,185.1 Z M 20.0,146.6 L 38.0,185.1 L 38.0,154.0 Z M 94.0,20.0 L 94.0,72.6 L 112.0,80.0 Z M 94.0,20.0 L 112.0,80.0 L 112.0,20.0 Z M 150.4,214.1 L 150.4,243.2 L 208.6,185.0 Z M 150.4,214.1 L 208.6,185.0 L 179.5,185.0 Z M 179.5,185.0 L 208.6,185.0 L 150.4,126.8 Z M 179.5,185.0 L 150.4,126.8 L 150.4,155.9 Z M 150.4,155.9 L 150.4,126.8 L 92.2,185.0 Z M 150.4,155.9 L 92.2,185.0 L 121.3,185.0 Z M 121.3,185.0 L 92.2,185.0 L 150.4,243.2 Z M 121.3,185.0 L 150.4,243.2 L 150.4,214.1 Z M 179.5,185.0 L 150.4,155.9 L 121.3,185.0 Z M 179.5,185.0 L 121.3,185.0 L 150.4,214.1 Z" fill="#2a2a4e" stroke="none"/>
  <path d="M 188.8,341.6 L 188.8,290.1 M 112.0,290.1 L 112.0,341.6 M 188.8,380.0 L 188.8,341.6 M 150.4,380.0 L 188.8,380.0 M 112.0,341.6 L 112.0,380.0 M 112.0,380.0 L 150.4,380.0 M 112.0,58.1 L 112.0,80.0 M 188.8,80.0 L 188.8,58.1 M 112.0,20.0 L 112.0,58.1 M 150.4,20.0 L 112.0,20.0 M 188.8,58.1 L 188.8,20.0 M 188.8,20.0 L 150.4,20.0 M 112.0,111.1 L 150.4,126.8 M 98.3,191.2 L 98.3,178.9 M 59.9,163.0 L 59.9,206.9 M 98.3,178.9 L 150.4,126.8 M 150.4,126.8 L 112.0,110.9 M 112.0,110.9 L 59.9,163.0 M 150.4,243.2 L 98.3,191.2 M 59.9,206.9 L 112.0,259.0 M 202.4,178.9 L 202.4,191.2 M 202.4,191.2 L 150.4,243.2 M 150.4,126.8 L 202.4,178.9 M 262.8,154.0 L 188.8,80.0 M 188.8,290.1 L 262.8,216.1 M 59.9,163.1 L 112.0,111.1 M 38.0,216.1 L 112.0,290.1 M 112.0,259.0 L 59.9,207.0 M 38.0,154.0 L 38.0,216.1 M 59.9,207.0 L 59.9,163.1 M 262.8,216.1 L 262.8,154.0 M 188.8,42.0 L 206.7,42.0 M 206.7,42.0 L 206.7,20.2 M 206.7,20.2 L 188.8,20.0 M 188.8,20.0 L 188.8,42.0 M 94.0,72.6 L 20.0,146.6 M 20.0,146.6 L 20.0,185.1 M 20.0,185.1 L 38.0,185.1 M 38.0,185.1 L 38.0,154.0 M 94.0,20.0 L 94.0,72.6 M 112.0,80.0 L 112.0,20.0 M 112.0,20.0 L 94.0,20.0 M 150.4,243.2 L 208.6,185.0 M 208.6,185.0 L 150.4,126.8 M 150.4,126.8 L 92.2,185.0 M 92.2,185.0 L 150.4,243.2" fill="none" stroke="white" stroke-width="2" stroke-linecap="round"/>
  <polygon points="145.33151952895037,254.03479566288888 153.33151952895037,262.0347956628889 145.33151952895037,270.0347956628889 137.33151952895037,262.0347956628889" fill="#4a9eff" stroke="white" stroke-width="1"/>
<polygon points="146.37964019036488,100.05486583070366 154.37964019036488,108.05486583070366 146.37964019036488,116.05486583070366 138.37964019036488,108.05486583070366" fill="#4a9eff" stroke="white" stroke-width="1"/>
</svg>