<svg xmlns="http://www.w3.org/2000/svg" viewBox="0 0 400 400">
  <rect width="400" height="400" fill="#1a1a2e"/>
  <path d="M 91.8,138.7 L 64.3,166.2 L 91.8,166.2 Z M 64.3,166.2 L 91.8,193.7 L 91.8,166.2 Z M 91.8,166.2 L 91.8,193.7 L 119.3,166.2 Z M 91.8,138.7 L 91.8,166.2 L 119.3,166.2 Z M 110.1,218.3 L 91.8,210.7 L 91.8,256.8 Z M 110.1,218.3 L 91.8,256.8 L 110.1,256.8 Z M 110.1,256.8 L 91.8,256.8 L 91.8,294.1 Z M 110.1,256.8 L 91.8,294.1 L 110.1,294.1 Z M 91.8,38.3 L 73.5,38.3 L 73.5,75.6 Z M 91.8,38.3 L 73.5,75.6 L 91.8,75.6 Z M 91.8,75.6 L 73.5,75.6 L 73.5,114.0 Z M 91.8,75.6 L 73.5,114.0 L 91.8,121.6 Z M 73.5,294.1 L 91.8,294.1 L 91.8,256.8 Z M 73.5,294.1 L 91.8,256.8 L 73.5,256.8 Z M 73.5,256.8 L 91.8,256.8 L 91.8,210.7 Z M 73.5,256.8 L 91.8,210.7 L 73.5,218.3 Z M 73.5,294.1 L 73.5,312.3 L 91.8,312.3 Z M 73.5,294.1 L 91.8,312.3 L 91.8,294.1 Z M 91.8,294.1 L 91.8,312.3 L 110.1,312.3 Z M 91.8,294.1 L 110.1,312.3 L 110.1,294.1 Z M 110.1,38.3 L 110.1,20.0 L 91.8,20.0 Z M 110.1,38.3 L 91.8,20.0 L 91.8,38.3 Z M 91.8,38.3 L 91.8,20.0 L 73.5,20.0 Z M 91.8,38.3 L 73.5,20.0 L 73.5,38.3 Z M 110.1,38.3 L 91.8,38.3 L 91.8,75.6 Z M 110.1,38.3 L 91.8,75.6 L 110.1,75.6 Z M 110.1,75.6 L 91.8,75.6 L 91.8,121.6 Z M 110.1,75.6 L 91.8,121.6 L 110.1,114.0 Z M 73.5,218.3 L 91.8,210.7 L 38.9,183.7 Z M 91.8,210.7 L 47.2,166.2 L 38.9,183.7 Z M 38.9,183.7 L 47.2,166.2 L 38.9,166.2 Z M 47.2,166.2 L 38.9,148.6 L 38.9,166.2 Z M 144.6,183.7 L 144.6,166.2 L 136.3,166.2 Z M 144.6,166.2 L 144.6,148.6 L 136.3,166.2 Z M 136.3,166.2 L 144.6,148.6 L 91.8,121.6 Z M 144.6,148.6 L 110.1,114.0 L 91.8,121.6 Z M 110.1,218.3 L 144.6,183.7 L 91.8,210.7 Z M 144.6,183.7 L 136.3,166.2 L 91.8,210.7 Z M 47.2,166.2 L 91.8,121.6 L 38.9,148.6 Z M 91.8,121.6 L 73.5,114.0 L 38.9,148.6 Z M 144.6,193.3 L 110.1,227.9 L 110.1,247.1 Z M 144.6,193.3 L 110.1,247.1 L 144.6,212.5 Z M 38.9,193.3 L 38.9,212.5 L 73.5,247.1 Z M 38.9,193.3 L 73.5,247.1 L 73.5,227.9 Z M 38.9,139.0 L 73.5,104.4 L 73.5,85.2 Z M 38.9,139.0 L 73.5,85.2 L 38.9,119.8 Z M 144.6,139.0 L 144.6,119.8 L 110.1,85.2 Z M 144.6,139.0 L 110.1,85.2 L 110.1,104.4 Z M 38.9,110.2 L 29.1,106.1 L 29.1,166.2 Z M 38.9,110.2 L 29.1,166.2 L 38.9,166.2 Z M 38.9,166.2 L 29.1,166.2 L 29.1,226.2 Z M 38.9,166.2 L 29.1,226.2 L 38.9,222.2 Z M 154.4,106.1 L 144.6,110.2 L 144.6,166.2 Z M 154.4,106.1 L 144.6,166.2 L 154.4,166.2 Z M 154.4,166.2 L 144.6,166.2 L 144.6,222.2 Z M 154.4,166.2 L 144.6,222.2 L 154.4,226.2 Z M 73.5,270.6 L 64.4,274.2 L 64.4,312.3 Z M 73.5,270.6 L 64.4,312.3 L 73.5,312.3 Z M 73.5,312.3 L 64.4,312.3 L 64.4,380.0 Z M 73.5,312.3 L 64.4,380.0 L 73.5,380.0 Z M 119.2,274.2 L 110.1,270.6 L 110.1,312.3 Z M 119.2,274.2 L 110.1,312.3 L 119.2,312.3 Z M 119.2,312.3 L 110.1,312.3 L 110.1,380.0 Z M 119.2,312.3 L 110.1,380.0 L 119.2,380.0 Z M 163.6,102.7 L 154.4,106.1 L 163.6,166.2 Z M 154.4,106.1 L 154.4,166.2 L 163.6,166.2 Z M 163.6,166.2 L 154.4,166.2 L 154.4,226.2 Z M 20.0,229.7 L 29.1,226.2 L 20.0,166.2 Z M 29.1,226.2 L 29.1,166.2 L 20.0,166.2 Z M 20.0,166.2 L 29.1,166.2 L 29.1,106.1 Z M 73.5,256.8 L 38.9,222.2 L 29.1,226.2 Z M 73.5,256.8 L 29.1,226.2 L 66.6,263.6 Z M 73.5,75.6 L 66.6,68.7 L 29.1,106.1 Z M 73.5,75.6 L 29.1,106.1 L 38.9,110.2 Z M 154.4,226.2 L 144.6,222.2 L 110.1,256.8 Z M 154.4,226.2 L 110.1,256.8 L 117.0,263.6 Z M 154.4,106.1 L 117.0,68.7 L 110.1,75.6 Z M 154.4,106.1 L 110.1,75.6 L 144.6,110.2 Z M 64.4,58.2 L 73.5,61.8 L 73.5,20.0 Z M 64.4,58.2 L 73.5,20.0 L 64.4,20.0 Z M 110.1,20.0 L 110.1,61.8 L 119.2,58.2 Z M 110.1,20.0 L 119.2,58.2 L 119.2,20.0 Z M 73.5,256.8 L 66.6,263.6 L 73.5,270.6 Z M 66.6,68.7 L 73.5,75.6 L 73.5,61.8 Z M 110.1,256.8 L 110.1,270.6 L 117.0,263.6 Z M 117.0,68.7 L 110.1,61.8 L 110.1,75.6 Z M 163.6,166.2 L 154.4,226.2 L 163.6,226.2 Z M 20.0,166.2 L 29.1,106.1 L 20.0,106.1 Z M 119.3,166.2 L 136.3,166.2 L 91.8,121.6 Z M 119.3,166.2 L 91.8,121.6 L 91.8,138.7 Z M 91.8,138.7 L 91.8,121.6 L 47.2,166.2 Z M 91.8,138.7 L 47.2,166.2 L 64.3,166.2 Z M 64.3,166.2 L 47.2,166.2 L 91.8,210.7 Z M 64.3,166.2 L 91.8,210.7 L 91.8,193.7 Z M 91.8,193.7 L 91.8,210.7 L 119.3,166.2 Z M 91.8,210.7 L 136.3,166.2 L 119.3,166.2 Z M 119.3,166.2 L 136.3,166.2 L 136.3,166.2 Z M 73.5,75.6 L 38.9,110.2 L 38.9,148.6 Z M 73.5,75.6 L 38.9,148.6 L 73.5,114.0 Z M 144.6,148.6 L 144.6,110.2 L 110.1,75.6 Z M 144.6,148.6 L 110.1,75.6 L 110.1,114.0 Z M 38.9,183.7 L 38.9,222.2 L 73.5,256.8 Z M 38.9,183.7 L 73.5,256.8 L 73.5,218.3 Z M 110.1,256.8 L 144.6,222.2 L 144.6,183.7 Z M 110.1,256.8 L 144.6,183.7 L 110.1,218.3 Z" fill="#2a2a4e" stroke="none"/>
  <path d="M 110.1,294.1 L 110.1,256.8 M 73.5,38.3 L 73.5,75.6 M 73.5,256.8 L 73.5,294.1 M 73.5,294.1 L 73.5,312.3 M 73.5,312.3 L 91.8,312.3 M 91.8,312.3 L 110.1,312.3 M 110.1,312.3 L 110.1,294.1 M 110.1,38.3 L 110.1,20.0 M 110.1,20.0 L 91.8,20.0 M 91.8,20.0 L 73.5,20.0 M 73.5,20.0 L 73.5,38.3 M 110.1,75.6 L 110.1,38.3 M 38.9,166.2 L 38.9,183.7 M 38.9,148.6 L 38.9,166.2 M 144.6,183.7 L 144.6,166.2 M 144.6,166.2 L 144.6,148.6 M 144.6,193.3 L 110.1,227.9 M 110.1,227.9 L 110.1,247.1 M 110.1,247.1 L 144.6,212.5 M 144.6,212.5 L 144.6,193.3 M 38.9,193.3 L 38.9,212.5 M 38.9,212.5 L 73.5,247.1 M 73.5,247.1 L 73.5,227.9 M 73.5,227.9 L 38.9,193.3 M 38.9,139.0 L 73.5,104.4 M 73.5,104.4 L 73.5,85.2 M 73.5,85.2 L 38.9,119.8 M 38.9,119.8 L 38.9,139.0 M 144.6,139.0 L 144.6,119.8 M 144.6,119.8 L 110.1,85.2 M 110.1,85.2 L 110.1,104.4 M 110.1,104.4 L 144.6,139.0 M 38.9,166.2 L 38.9,110.2 M 38.9,222.2 L 38.9,166.2 M 144.6,110.2 L 144.6,166.2 M 144.6,166.2 L 144.6,222.2 M 73.5,270.6 L 64.4,274.2 M 64.4,274.2 L 64.4,312.3 M 73.5,312.3 L 73.5,270.6 M 64.4,312.3 L 64.4,380.0 M 64.4,380.0 L 73.5,380.0 M 73.5,380.0 L 73.5,312.3 M 119.2,274.2 L 110.1,270.6 M 110.1,270.6 L 110.1,312.3 M 119.2,312.3 L 119.2,274.2 M 110.1,312.3 L 110.1,380.0 M 110.1,380.0 L 119.2,380.0 M 119.2,380.0 L 119.2,312.3 M 163.6,102.7 L 154.4,106.1 M 163.6,166.2 L 163.6,102.7 M 20.0,229.7 L 29.1,226.2 M 20.0,166.2 L 20.0,229.7 M 29.1,226.2 L 66.6,263.6 M 66.6,68.7 L 29.1,106.1 M 117.0,263.6 L 154.4,226.2 M 154.4,106.1 L 117.0,68.7 M 64.4,58.2 L 73.5,61.8 M 73.5,61.8 L 73.5,20.0 M 73.5,20.0 L 64.4,20.0 M 64.4,20.0 L 64.4,58.2 M 110.1,20.0 L 110.1,61.8 M 110.1,61.8 L 119.2,58.2 M 119.2,58.2 L 119.2,20.0 M 119.2,20.0 L 110.1,20.0 M 66.6,263.6 L 73.5,270.6 M 73.5,270.6 L 73.5,256.8 M 73.5,75.6 L 73.5,61.8 M 73.5,61.8 L 66.6,68.7 M 110.1,256.8 L 110.1,270.6 M 110.1,270.6 L 117.0,263.6 M 117.0,68.7 L 110.1,61.8 M 110.1,61.8 L 110.1,75.6 M 154.4,226.2 L 163.6,226.2 M 163.6,226.2 L 163.6,166.2 M 29.1,106.1 L 20.0,106.1 M 20.0,106.1 L 20.0,166.2 M 136.3,166.2 L 136.3,166.2 M 38.9,110.2 L 38.9,148.6 M 144.6,148.6 L 144.6,110.2 M 38.9,183.7 L 38.9,222.2 M 144.6,222.2 L 144.6,183.7" fill="none" stroke="white" stroke-width="2" stroke-linecap="round"/>
  <polygon points="93.58560393385011,53.46385478175915 101.58560393385011,61.46385478175915 93.58560393385011,69.46385478175915 85.58560393385011,61.46385478175915" fill="#4a9eff" stroke="white" stroke-width="1"/>
<polygon points="92.05501805362351,265.73089083620226 100.05501805362351,273.73089083620226 92.05501805362351,281.73089083620226 84.05501805362351,273.73089083620226" fill="#4a9eff" stroke="white" stroke-width="1"/>
</svg>