<svg xmlns="http://www.w3.org/2000/svg" viewBox="0 0 400 400">
  <rect width="400" height="400" fill="#1a1a2e"/>
  <path d="M 197.7,310.2 L 171.8,310.2 L 197.7,354.1 Z M 171.8,310.2 L 145.9,354.1 L 197.7,354.1 Z M 310.2,227.9 L 254.0,171.8 L 203.5,194.9 Z M 310.2,227.9 L 203.5,194.9 L 237.0,228.4 Z M 227.9,310.2 L 228.4,237.0 L 194.9,203.5 Z M 227.9,310.2 L 194.9,203.5 L 171.8,254.0 Z M 227.9,310.2 L 310.2,227.9 L 237.0,228.4 Z M 227.9,310.2 L 237.0,228.4 L 228.4,237.0 Z M 227.9,33.4 L 171.8,89.6 L 194.9,140.2 Z M 227.9,33.4 L 194.9,140.2 L 228.4,106.6 Z M 310.2,115.7 L 237.0,115.2 L 203.5,148.7 Z M 310.2,115.7 L 203.5,148.7 L 254.0,171.8 Z M 310.2,115.7 L 227.9,33.4 L 228.4,106.6 Z M 310.2,115.7 L 228.4,106.6 L 237.0,115.2 Z M 33.4,115.7 L 89.6,171.8 L 140.2,148.7 Z M 33.4,115.7 L 140.2,148.7 L 106.6,115.2 Z M 115.7,33.4 L 115.2,106.6 L 148.7,140.2 Z M 115.7,33.4 L 148.7,140.2 L 171.8,89.6 Z M 115.7,33.4 L 33.4,115.7 L 106.6,115.2 Z M 115.7,33.4 L 106.6,115.2 L 115.2,106.6 Z M 115.7,310.2 L 171.8,254.0 L 148.7,203.5 Z M 115.7,310.2 L 148.7,203.5 L 115.2,237.0 Z M 33.4,227.9 L 106.6,228.4 L 140.2,194.9 Z M 33.4,227.9 L 140.2,194.9 L 89.6,171.8 Z M 33.4,227.9 L 115.7,310.2 L 115.2,237.0 Z M 33.4,227.9 L 115.2,237.0 L 106.6,228.4 Z M 145.9,354.1 L 145.9,380.0 L 197.7,380.0 Z M 145.9,354.1 L 197.7,380.0 L 197.7,354.1 Z M 148.7,203.5 L 171.8,254.0 L 194.9,203.5 Z M 140.2,148.7 L 89.6,171.8 L 140.2,194.9 Z M 194.9,140.2 L 171.8,89.6 L 148.7,140.2 Z M 203.5,194.9 L 254.0,171.8 L 203.5,148.7 Z M 197.7,310.2 L 171.8,284.3 L 171.8,310.2 Z M 171.8,284.3 L 145.9,310.2 L 171.8,310.2 Z M 171.8,310.2 L 145.9,310.2 L 145.9,354.1 Z M 178.5,24.5 L 178.5,22.8 L 167.0,22.8 Z M 178.5,24.5 L 167.0,22.8 L 167.0,24.5 Z M 72.4,62.9 L 71.2,61.7 L 63.0,69.9 Z M 72.4,62.9 L 63.0,69.9 L 64.2,71.1 Z M 271.2,280.8 L 272.4,282.0 L 280.7,273.8 Z M 271.2,280.8 L 280.7,273.8 L 279.4,272.6 Z M 24.5,165.1 L 22.8,165.1 L 22.8,176.7 Z M 24.5,165.1 L 22.8,176.7 L 24.5,176.7 Z M 280.8,72.4 L 282.0,71.2 L 273.8,63.0 Z M 280.8,72.4 L 273.8,63.0 L 272.6,64.2 Z M 319.1,178.5 L 320.9,178.5 L 320.9,167.0 Z M 319.1,178.5 L 320.9,167.0 L 319.1,167.0 Z M 62.9,271.2 L 61.7,272.4 L 69.9,280.7 Z M 62.9,271.2 L 69.9,280.7 L 71.1,279.4 Z M 227.9,33.4 L 310.2,115.7 L 323.6,108.6 Z M 227.9,33.4 L 323.6,108.6 L 235.0,20.0 Z M 310.2,227.9 L 227.9,310.2 L 235.0,323.6 Z M 310.2,227.9 L 235.0,323.6 L 323.6,235.0 Z M 323.6,235.0 L 323.6,108.6 L 310.2,115.7 Z M 323.6,235.0 L 310.2,115.7 L 310.2,227.9 Z M 115.7,310.2 L 33.4,227.9 L 20.0,235.0 Z M 115.7,310.2 L 20.0,235.0 L 106.9,323.6 Z M 33.4,115.7 L 115.7,33.4 L 108.6,20.0 Z M 33.4,115.7 L 108.6,20.0 L 20.0,108.6 Z M 20.0,108.6 L 20.0,235.0 L 33.4,227.9 Z M 20.0,108.6 L 33.4,227.9 L 33.4,115.7 Z M 115.7,33.4 L 227.9,33.4 L 235.0,20.0 Z M 115.7,33.4 L 235.0,20.0 L 108.6,20.0 Z M 235.0,323.6 L 227.9,310.2 L 197.7,310.2 Z M 235.0,323.6 L 197.7,310.2 L 197.7,323.6 Z M 145.9,310.2 L 115.7,310.2 L 106.9,323.6 Z M 145.9,310.2 L 106.9,323.6 L 145.9,323.6 Z M 132.9,380.0 L 145.9,380.0 L 145.9,354.1 Z M 132.9,380.0 L 145.9,354.1 L 132.9,354.1 Z M 210.7,354.1 L 197.7,354.1 L 197.7,380.0 Z M 210.7,354.1 L 197.7,380.0 L 210.7,380.0 Z M 197.7,310.2 L 227.9,310.2 L 171.8,254.0 Z M 197.7,310.2 L 171.8,254.0 L 171.8,284.3 Z M 171.8,284.3 L 171.8,254.0 L 115.7,310.2 Z M 171.8,284.3 L 115.7,310.2 L 145.9,310.2 Z M 34.3,113.7 L 34.3,230.0 L 89.6,171.8 Z M 310.2,227.9 L 310.2,115.7 L 254.0,171.8 Z M 227.9,33.4 L 115.7,33.4 L 171.8,89.6 Z" fill="#2a2a4e" stroke="none"/>
  <path d="M 197.7,354.1 L 197.7,310.2 M 203.5,194.9 L 237.0,228.4 M 228.4,237.0 L 194.9,203.5 M 237.0,228.4 L 228.4,237.0 M 194.9,140.2 L 228.4,106.6 M 237.0,115.2 L 203.5,148.7 M 228.4,106.6 L 237.0,115.2 M 33.4,115.7 L 89.6,171.8 M 140.2,148.7 L 106.6,115.2 M 115.2,106.6 L 148.7,140.2 M 106.6,115.2 L 115.2,106.6 M 148.7,203.5 L 115.2,237.0 M 106.6,228.4 L 140.2,194.9 M 89.6,171.8 L 33.4,227.9 M 115.2,237.0 L 106.6,228.4 M 145.9,380.0 L 197.7,380.0 M 194.9,203.5 L 148.7,203.5 M 140.2,194.9 L 140.2,148.7 M 148.7,140.2 L 194.9,140.2 M 203.5,148.7 L 203.5,194.9 M 145.9,310.2 L 145.9,354.1 M 178.5,24.5 L 178.5,22.8 M 178.5,22.8 L 167.0,22.8 M 167.0,22.8 L 167.0,24.5 M 167.0,24.5 L 178.5,24.5 M 72.4,62.9 L 71.2,61.7 M 71.2,61.7 L 63.0,69.9 M 63.0,69.9 L 64.2,71.1 M 64.2,71.1 L 72.4,62.9 M 271.2,280.8 L 272.4,282.0 M 272.4,282.0 L 280.7,273.8 M 280.7,273.8 L 279.4,272.6 M 279.4,272.6 L 271.2,280.8 M 24.5,165.1 L 22.8,165.1 M 22.8,165.1 L 22.8,176.7 M 22.8,176.7 L 24.5,176.7 M 24.5,176.7 L 24.5,165.1 M 280.8,72.4 L 282.0,71.2 M 282.0,71.2 L 273.8,63.0 M 273.8,63.0 L 272.6,64.2 M 272.6,64.2 L 280.8,72.4 M 319.1,178.5 L 320.9,178.5 M 320.9,178.5 L 320.9,167.0 M 320.9,167.0 L 319.1,167.0 M 319.1,167.0 L 319.1,178.5 M 62.9,271.2 L 61.7,272.4 M 61.7,272.4 L 69.9,280.7 M 69.9,280.7 L 71.1,279.4 M 71.1,279.4 L 62.9,271.2 M 323.6,108.6 L 235.0,20.0 M 235.0,323.6 L 323.6,235.0 M 323.6,235.0 L 323.6,108.6 M 20.0,235.0 L 106.9,323.6 M 108.6,20.0 L 20.0,108.6 M 20.0,108.6 L 20.0,235.0 M 33.4,227.9 L 33.4,115.7 M 235.0,20.0 L 108.6,20.0 M 197.7,310.2 L 197.7,323.6 M 197.7,323.6 L 235.0,323.6 M 106.9,323.6 L 145.9,323.6 M 145.9,323.6 L 145.9,310.2 M 132.9,380.0 L 145.9,380.0 M 145.9,354.1 L 132.9,354.1 M 132.9,354.1 L 132.9,380.0 M 210.7,354.1 L 197.7,354.1 M 197.7,380.0 L 210.7,380.0 M 210.7,380.0 L 210.7,354.1 M 34.3,113.7 L 34.3,230.0 M 34.3,230.0 L 89.6,171.8 M 89.6,171.8 L 34.3,113.7" fill="none" stroke="white" stroke-width="2" stroke-linecap="round"/>
  
</svg>