<svg xmlns="http://www.w3.org/2000/svg" viewBox="0 0 400 400">
  <rect width="400" height="400" fill="#1a1a2e"/>
  <path d="M 22.5,158.4 L 22.5,241.6 L 151.1,200.0 Z M 22.5,241.6 L 109.5,328.6 L 151.1,200.0 Z M 151.1,200.0 L 109.5,328.6 L 192.6,328.6 Z M 22.5,158.4 L 151.1,200.0 L 109.5,71.4 Z M 151.1,200.0 L 192.6,71.4 L 109.5,71.4 Z M 192.6,328.6 L 279.6,241.6 L 151.1,200.0 Z M 279.6,241.6 L 279.6,158.4 L 151.1,200.0 Z M 151.1,200.0 L 279.6,158.4 L 192.6,71.4 Z M 76.5,250.5 L 54.2,250.5 L 100.6,297.3 Z M 76.5,250.5 L 100.6,297.3 L 100.6,274.7 Z M 100.6,125.4 L 100.6,103.2 L 53.7,149.5 Z M 100.6,125.4 L 53.7,149.5 L 76.4,149.5 Z M 225.6,149.5 L 247.9,149.5 L 201.5,102.7 Z M 225.6,149.5 L 201.5,102.7 L 201.5,125.3 Z M 201.5,274.6 L 201.5,296.8 L 248.4,250.5 Z M 201.5,274.6 L 248.4,250.5 L 225.8,250.5 Z M 173.6,380.0 L 173.6,357.5 L 151.1,357.5 Z M 173.6,380.0 L 151.1,357.5 L 151.1,380.0 Z M 151.1,380.0 L 151.1,357.5 L 128.6,357.5 Z M 151.1,380.0 L 128.6,357.5 L 128.6,380.0 Z M 128.6,20.0 L 128.6,42.5 L 151.1,42.5 Z M 128.6,20.0 L 151.1,42.5 L 151.1,20.0 Z M 151.1,20.0 L 151.1,42.5 L 173.6,42.5 Z M 151.1,20.0 L 173.6,42.5 L 173.6,20.0 Z M 123.2,102.9 L 145.8,125.3 L 151.1,102.9 Z M 145.8,125.3 L 156.3,125.3 L 151.1,102.9 Z M 151.1,102.9 L 156.3,125.3 L 178.9,102.9 Z M 151.1,102.9 L 151.1,42.5 L 128.6,80.6 Z M 151.1,42.5 L 128.6,42.5 L 128.6,80.6 Z M 173.6,42.5 L 151.1,42.5 L 173.6,80.6 Z M 151.1,42.5 L 151.1,102.9 L 173.6,80.6 Z M 178.9,297.1 L 156.3,274.7 L 151.1,297.1 Z M 156.3,274.7 L 145.8,274.7 L 151.1,297.1 Z M 151.1,297.1 L 145.8,274.7 L 123.2,297.1 Z M 151.1,297.1 L 151.1,357.5 L 173.6,319.4 Z M 151.1,357.5 L 173.6,357.5 L 173.6,319.4 Z M 128.6,357.5 L 151.1,357.5 L 128.6,319.4 Z M 151.1,357.5 L 151.1,297.1 L 128.6,319.4 Z M 184.7,194.7 L 225.8,194.7 L 270.5,149.5 Z M 184.7,194.7 L 270.5,149.5 L 201.5,149.5 Z M 184.7,205.3 L 201.5,250.5 L 270.5,250.5 Z M 184.7,205.3 L 270.5,250.5 L 225.8,205.3 Z M 225.8,194.7 L 225.8,205.3 L 270.5,250.5 Z M 225.8,194.7 L 270.5,250.5 L 270.5,149.5 Z M 123.2,102.9 L 100.6,149.5 L 145.8,166.4 Z M 123.2,102.9 L 145.8,166.4 L 145.8,125.3 Z M 178.9,102.9 L 156.3,125.3 L 156.3,166.4 Z M 178.9,102.9 L 156.3,166.4 L 201.5,149.5 Z M 117.5,205.3 L 76.3,205.3 L 31.7,250.5 Z M 117.5,205.3 L 31.7,250.5 L 100.6,250.5 Z M 117.5,194.7 L 100.6,149.5 L 31.7,149.5 Z M 117.5,194.7 L 31.7,149.5 L 76.3,194.7 Z M 76.3,205.3 L 76.3,194.7 L 31.7,149.5 Z M 76.3,205.3 L 31.7,149.5 L 31.7,250.5 Z M 145.8,233.6 L 100.6,250.5 L 123.2,297.1 Z M 145.8,233.6 L 123.2,297.1 L 145.8,274.7 Z M 100.6,80.6 L 123.2,102.9 L 151.1,102.9 Z M 100.6,80.6 L 151.1,102.9 L 128.6,80.6 Z M 201.5,80.6 L 173.6,80.6 L 151.1,102.9 Z M 201.5,80.6 L 151.1,102.9 L 178.9,102.9 Z M 201.5,319.4 L 178.9,297.1 L 151.1,297.1 Z M 201.5,319.4 L 151.1,297.1 L 173.6,319.4 Z M 100.6,319.4 L 128.6,319.4 L 151.1,297.1 Z M 100.6,319.4 L 151.1,297.1 L 123.2,297.1 Z M 156.3,233.6 L 156.3,274.7 L 178.9,297.1 Z M 156.3,233.6 L 178.9,297.1 L 201.5,250.5 Z M 117.5,205.3 L 100.6,250.5 L 145.8,233.6 Z M 145.8,166.4 L 100.6,149.5 L 117.5,194.7 Z M 178.9,297.1 L 201.5,319.4 L 201.5,250.5 Z M 184.7,194.7 L 201.5,149.5 L 156.3,166.4 Z M 156.3,233.6 L 201.5,250.5 L 184.7,205.3 Z M 201.5,149.5 L 201.5,80.6 L 178.9,102.9 Z M 123.2,102.9 L 100.6,80.6 L 100.6,149.5 Z M 100.6,250.5 L 100.6,319.4 L 123.2,297.1 Z M 128.6,319.4 L 116.9,331.1 L 128.6,357.5 Z M 116.9,331.1 L 116.9,380.0 L 128.6,357.5 Z M 128.6,357.5 L 116.9,380.0 L 128.6,380.0 Z M 173.6,80.6 L 185.2,68.9 L 173.6,42.5 Z M 185.2,68.9 L 185.2,20.0 L 173.6,42.5 Z M 173.6,42.5 L 185.2,20.0 L 173.6,20.0 Z M 128.6,80.6 L 128.6,42.5 L 116.9,68.9 Z M 128.6,42.5 L 116.9,20.0 L 116.9,68.9 Z M 173.6,319.4 L 173.6,357.5 L 185.2,331.1 Z M 173.6,357.5 L 185.2,380.0 L 185.2,331.1 Z M 20.0,256.6 L 94.4,331.1 L 100.6,319.4 Z M 20.0,256.6 L 100.6,319.4 L 31.7,250.5 Z M 94.4,68.9 L 20.0,143.4 L 31.7,149.5 Z M 94.4,68.9 L 31.7,149.5 L 100.6,80.6 Z M 31.7,250.5 L 31.7,149.5 L 20.0,143.4 Z M 31.7,250.5 L 20.0,143.4 L 20.0,256.6 Z M 128.6,80.6 L 116.9,68.9 L 94.4,68.9 Z M 128.6,80.6 L 94.4,68.9 L 100.6,80.6 Z M 94.4,331.1 L 116.9,331.1 L 128.6,319.4 Z M 94.4,331.1 L 128.6,319.4 L 100.6,319.4 Z M 282.1,143.4 L 207.7,68.9 L 201.5,80.6 Z M 282.1,143.4 L 201.5,80.6 L 270.5,149.5 Z M 207.7,331.1 L 282.1,256.6 L 270.5,250.5 Z M 207.7,331.1 L 270.5,250.5 L 201.5,319.4 Z M 270.5,149.5 L 270.5,250.5 L 282.1,256.6 Z M 270.5,149.5 L 282.1,256.6 L 282.1,143.4 Z M 173.6,319.4 L 185.2,331.1 L 207.7,331.1 Z M 173.6,319.4 L 207.7,331.1 L 201.5,319.4 Z M 207.7,68.9 L 185.2,68.9 L 173.6,80.6 Z M 207.7,68.9 L 173.6,80.6 L 201.5,80.6 Z M 128.6,42.5 L 128.6,20.0 L 116.9,20.0 Z M 173.6,357.5 L 173.6,380.0 L 185.2,380.0 Z" fill="#2a2a4e" stroke="none"/>
  <path d="M 22.5,158.4 L 22.5,241.6 M 22.5,241.6 L 109.5,328.6 M 109.5,328.6 L 192.6,328.6 M 109.5,71.4 L 22.5,158.4 M 192.6,71.4 L 109.5,71.4 M 192.6,328.6 L 279.6,241.6 M 279.6,241.6 L 279.6,158.4 M 279.6,158.4 L 192.6,71.4 M 76.5,250.5 L 54.2,250.5 M 54.2,250.5 L 100.6,297.3 M 100.6,297.3 L 100.6,274.7 M 100.6,274.7 L 76.5,250.5 M 100.6,125.4 L 100.6,103.2 M 100.6,103.2 L 53.7,149.5 M 53.7,149.5 L 76.4,149.5 M 76.4,149.5 L 100.6,125.4 M 225.6,149.5 L 247.9,149.5 M 247.9,149.5 L 201.5,102.7 M 201.5,102.7 L 201.5,125.3 M 201.5,125.3 L 225.6,149.5 M 201.5,274.6 L 201.5,296.8 M 201.5,296.8 L 248.4,250.5 M 248.4,250.5 L 225.8,250.5 M 225.8,250.5 L 201.5,274.6 M 151.1,380.0 L 173.6,380.0 M 128.6,380.0 L 151.1,380.0 M 151.1,20.0 L 128.6,20.0 M 173.6,20.0 L 151.1,20.0 M 145.8,125.3 L 156.3,125.3 M 156.3,274.7 L 145.8,274.7 M 184.7,194.7 L 225.8,194.7 M 270.5,149.5 L 201.5,149.5 M 201.5,250.5 L 270.5,250.5 M 225.8,205.3 L 184.7,205.3 M 225.8,194.7 L 225.8,205.3 M 145.8,166.4 L 145.8,125.3 M 156.3,125.3 L 156.3,166.4 M 117.5,205.3 L 76.3,205.3 M 31.7,250.5 L 100.6,250.5 M 100.6,149.5 L 31.7,149.5 M 76.3,194.7 L 117.5,194.7 M 76.3,205.3 L 76.3,194.7 M 145.8,274.7 L 145.8,233.6 M 156.3,233.6 L 156.3,274.7 M 145.8,233.6 L 117.5,205.3 M 117.5,194.7 L 145.8,166.4 M 201.5,319.4 L 201.5,250.5 M 156.3,166.4 L 184.7,194.7 M 184.7,205.3 L 156.3,233.6 M 201.5,149.5 L 201.5,80.6 M 100.6,80.6 L 100.6,149.5 M 100.6,250.5 L 100.6,319.4 M 116.9,331.1 L 116.9,380.0 M 116.9,380.0 L 128.6,380.0 M 185.2,68.9 L 185.2,20.0 M 185.2,20.0 L 173.6,20.0 M 116.9,20.0 L 116.9,68.9 M 185.2,380.0 L 185.2,331.1 M 20.0,256.6 L 94.4,331.1 M 100.6,319.4 L 31.7,250.5 M 94.4,68.9 L 20.0,143.4 M 31.7,149.5 L 100.6,80.6 M 20.0,143.4 L 20.0,256.6 M 116.9,68.9 L 94.4,68.9 M 94.4,331.1 L 116.9,331.1 M 282.1,143.4 L 207.7,68.9 M 201.5,80.6 L 270.5,149.5 M 207.7,331.1 L 282.1,256.6 M 270.5,250.5 L 201.5,319.4 M 282.1,256.6 L 282.1,143.4 M 185.2,331.1 L 207.7,331.1 M 207.7,68.9 L 185.2,68.9 M 128.6,20.0 L 116.9,20.0 M 173.6,380.0 L 185.2,380.0" fill="none" stroke="white" stroke-width="2" stroke-linecap="round"/>
  <polygon points="151.44338200681455,318.3856809766918 159.44338200681455,326.3856809766918 151.44338200681455,334.3856809766918 143.44338200681455,326.3856809766918" fill="#4a9eff" stroke="white" stroke-width="1"/>
<polygon points="147.95889976164764,67.98679034581157 155.95889976164764,75.98679034581157 147.95889976164764,83.98679034581157 139.95889976164764,75.98679034581157" fill="#4a9eff" stroke="white" stroke-width="1"/>
</svg>