<svg xmlns="http://www.w3.org/2000/svg" viewBox="0 0 400 400" data-rotation="0" data-scale="5.200609" data-offset-x="124.01" data-offset-y="194.55" data-center-x="200.0" data-center-y="200.0">
  <rect width="400" height="400" fill="#1a1a2e"/>
  
  <path d="M 170.9,205.3 L 204.0,182.3 L 187.8,159.0 Z M 170.9,205.3 L 187.8,159.0 L 149.7,182.9 Z M 149.7,182.9 L 187.8,159.0 L 154.2,144.1 Z M 149.7,182.9 L 154.2,144.1 L 130.4,181.6 Z M 130.4,181.6 L 154.2,144.1 L 124.8,115.9 Z M 130.4,181.6 L 124.8,115.9 L 83.4,130.1 Z M 130.4,181.6 L 83.4,130.1 L 66.3,165.7 Z M 130.4,181.6 L 66.3,165.7 L 116.0,199.8 Z M 116.0,199.8 L 66.3,165.7 L 58.6,195.4 Z M 116.0,199.8 L 58.6,195.4 L 69.7,222.1 Z M 116.0,199.8 L 69.7,222.1 L 90.7,245.1 Z M 116.0,199.8 L 90.7,245.1 L 106.4,223.6 Z M 106.4,223.6 L 90.7,245.1 L 108.7,269.0 Z M 106.4,223.6 L 108.7,269.0 L 119.1,253.5 Z M 119.1,253.5 L 108.7,269.0 L 133.0,278.7 Z M 119.1,253.5 L 133.0,278.7 L 141.1,265.5 Z M 141.1,265.5 L 133.0,278.7 L 163.7,274.9 Z M 141.1,265.5 L 163.7,274.9 L 160.4,263.4 Z M 160.4,263.4 L 163.7,274.9 L 187.6,255.0 Z M 160.4,263.4 L 187.6,255.0 L 173.7,246.1 Z M 77.2,90.5 L 83.4,130.1 L 108.4,90.5 Z M 83.4,130.1 L 124.8,115.9 L 108.4,90.5 Z M 170.9,205.3 L 173.7,246.1 L 204.3,234.4 Z M 170.9,205.3 L 204.3,234.4 L 205.7,211.9 Z M 173.7,246.1 L 187.6,255.0 L 204.3,234.4 Z M 205.7,211.9 L 204.0,182.3 L 170.9,205.3 Z M 41.1,196.7 L 20.0,194.5 L 25.3,256.3 Z M 41.1,196.7 L 25.3,256.3 L 55.0,231.2 Z M 55.0,231.2 L 25.3,256.3 L 55.5,284.0 Z M 55.0,231.2 L 55.5,284.0 L 74.0,255.9 Z M 144.8,251.7 L 156.3,249.4 L 161.0,238.0 Z M 144.8,251.7 L 161.0,238.0 L 130.6,243.8 Z M 141.2,90.7 L 170.1,127.8 L 199.5,99.9 Z M 222.8,131.6 L 201.4,144.8 L 223.5,168.0 Z M 50.3,159.3 L 24.0,131.6 L 20.0,173.7 Z M 68.5,119.6 L 67.4,96.1 L 46.7,103.7 Z M 127.4,298.6 L 165.9,298.6 L 133.0,278.7 Z M 165.9,298.6 L 163.7,274.9 L 133.0,278.7 Z M 170.1,127.8 L 187.8,159.0 L 201.4,144.8 Z M 187.8,159.0 L 223.5,168.0 L 201.4,144.8 Z M 170.1,127.8 L 201.4,144.8 L 199.5,99.9 Z M 201.4,144.8 L 222.8,131.6 L 199.5,99.9 Z M 55.0,231.2 L 74.0,255.9 L 69.7,222.1 Z M 74.0,255.9 L 90.7,245.1 L 69.7,222.1 Z M 100.6,291.1 L 108.7,269.0 L 74.0,255.9 Z M 108.7,269.0 L 90.7,245.1 L 74.0,255.9 Z M 223.5,168.0 L 204.0,182.3 L 228.0,215.3 Z M 204.0,182.3 L 205.7,211.9 L 228.0,215.3 Z M 141.2,90.7 L 124.8,115.9 L 170.1,127.8 Z M 124.8,115.9 L 154.2,144.1 L 170.1,127.8 Z M 170.1,127.8 L 154.2,144.1 L 187.8,159.0 Z M 67.4,96.1 L 68.5,119.6 L 77.2,90.5 Z M 68.5,119.6 L 83.4,130.1 L 77.2,90.5 Z M 228.0,236.2 L 204.3,234.4 L 221.2,251.5 Z M 204.3,234.4 L 187.6,255.0 L 221.2,251.5 Z M 50.3,159.3 L 68.5,119.6 L 24.0,131.6 Z M 68.5,119.6 L 46.7,103.7 L 24.0,131.6 Z M 160.4,263.4 L 173.7,246.1 L 156.3,249.4 Z M 173.7,246.1 L 161.0,238.0 L 156.3,249.4 Z M 106.4,223.6 L 123.2,227.4 L 116.0,199.8 Z M 123.2,227.4 L 134.2,216.0 L 116.0,199.8 Z M 130.6,243.8 L 123.2,227.4 L 119.1,253.5 Z M 123.2,227.4 L 106.4,223.6 L 119.1,253.5 Z M 170.9,205.3 L 159.8,215.1 L 173.7,246.1 Z M 159.8,215.1 L 161.0,238.0 L 173.7,246.1 Z M 149.7,182.9 L 130.4,181.6 L 146.3,199.8 Z M 130.4,181.6 L 135.6,203.1 L 146.3,199.8 Z M 66.3,165.7 L 83.4,130.1 L 68.5,119.6 Z M 66.3,165.7 L 68.5,119.6 L 50.3,159.3 Z M 108.7,269.0 L 100.6,291.1 L 127.4,298.6 Z M 108.7,269.0 L 127.4,298.6 L 133.0,278.7 Z M 66.3,165.7 L 50.3,159.3 L 41.1,196.7 Z M 66.3,165.7 L 41.1,196.7 L 58.6,195.4 Z M 163.7,274.9 L 165.9,298.6 L 221.2,251.5 Z M 163.7,274.9 L 221.2,251.5 L 187.6,255.0 Z M 58.6,195.4 L 41.1,196.7 L 55.0,231.2 Z M 58.6,195.4 L 55.0,231.2 L 69.7,222.1 Z M 41.1,196.7 L 50.3,159.3 L 20.0,173.7 Z M 41.1,196.7 L 20.0,173.7 L 20.0,194.5 Z M 161.0,238.0 L 159.8,215.1 L 123.2,227.4 Z M 161.0,238.0 L 123.2,227.4 L 130.6,243.8 Z M 144.8,251.7 L 130.6,243.8 L 119.1,253.5 Z M 144.8,251.7 L 119.1,253.5 L 141.1,265.5 Z M 156.3,249.4 L 144.8,251.7 L 141.1,265.5 Z M 156.3,249.4 L 141.1,265.5 L 160.4,263.4 Z M 146.3,199.8 L 135.6,203.1 L 134.2,216.0 Z M 146.3,199.8 L 134.2,216.0 L 159.8,215.1 Z M 159.8,215.1 L 170.9,205.3 L 149.7,182.9 Z M 159.8,215.1 L 149.7,182.9 L 146.3,199.8 Z M 204.3,234.4 L 228.0,236.2 L 228.0,215.3 Z M 204.3,234.4 L 228.0,215.3 L 205.7,211.9 Z M 124.8,115.9 L 141.2,90.7 L 108.4,90.5 Z M 55.5,284.0 L 100.6,291.1 L 74.0,255.9 Z M 116.0,199.8 L 134.2,216.0 L 135.6,203.1 Z M 134.2,216.0 L 123.2,227.4 L 159.8,215.1 Z M 135.6,203.1 L 130.4,181.6 L 116.0,199.8 Z M 187.8,159.0 L 204.0,182.3 L 223.5,168.0 Z M 63.5,118.9 L 61.6,126.0 L 64.9,128.0 Z M 63.5,118.9 L 64.9,128.0 L 68.5,121.8 Z M 185.2,130.7 L 189.4,125.8 L 187.4,123.0 Z M 185.2,130.7 L 187.4,123.0 L 182.3,126.6 Z M 158.1,118.2 L 165.3,118.2 L 166.3,114.5 Z M 158.1,118.2 L 166.3,114.5 L 159.5,112.7 Z M 147.6,251.5 L 154.9,248.8 L 154.5,244.7 Z M 147.6,251.5 L 154.5,244.7 L 147.1,245.4 Z M 145.0,246.6 L 147.7,241.6 L 145.5,239.5 Z M 145.0,246.6 L 145.5,239.5 L 141.8,243.5 Z M 67.7,262.8 L 72.3,256.7 L 69.8,253.5 Z M 67.7,262.8 L 69.8,253.5 L 64.0,258.1 Z M 67.1,265.3 L 66.7,259.7 L 63.7,259.2 Z M 67.1,265.3 L 63.7,259.2 L 62.8,264.5 Z M 63.4,128.2 L 64.1,122.0 L 61.1,120.8 Z M 63.4,128.2 L 61.1,120.8 L 58.8,126.4 Z M 43.3,222.8 L 47.0,218.3 L 45.2,215.9 Z M 43.3,222.8 L 45.2,215.9 L 40.7,219.0 Z M 77.2,90.5 L 108.4,90.5 L 108.4,56.9 Z M 77.2,90.5 L 108.4,56.9 L 77.2,56.9 Z M 77.2,56.9 L 108.4,56.9 L 108.5,20.0 Z M 77.2,56.9 L 108.5,20.0 L 77.3,20.0 Z M 159.9,334.8 L 159.9,298.6 L 128.7,298.6 Z M 159.9,334.8 L 128.7,298.6 L 128.9,334.9 Z M 159.9,380.0 L 159.9,334.8 L 128.9,334.9 Z M 159.9,380.0 L 128.9,334.9 L 129.2,370.6 Z" fill="#2a2a4e" stroke="none"/>
  <path d="M 20.0,194.5 L 25.3,256.3 M 25.3,256.3 L 55.5,284.0 M 199.5,99.9 L 141.2,90.7 M 223.5,168.0 L 222.8,131.6 M 24.0,131.6 L 20.0,173.7 M 67.4,96.1 L 46.7,103.7 M 127.4,298.6 L 165.9,298.6 M 222.8,131.6 L 199.5,99.9 M 228.0,215.3 L 223.5,168.0 M 77.2,90.5 L 67.4,96.1 M 221.2,251.5 L 228.0,236.2 M 46.7,103.7 L 24.0,131.6 M 100.6,291.1 L 127.4,298.6 M 165.9,298.6 L 221.2,251.5 M 20.0,173.7 L 20.0,194.5 M 228.0,236.2 L 228.0,215.3 M 141.2,90.7 L 108.4,90.5 M 55.5,284.0 L 100.6,291.1 M 63.5,118.9 L 61.6,126.0 M 61.6,126.0 L 64.9,128.0 M 64.9,128.0 L 68.5,121.8 M 68.5,121.8 L 63.5,118.9 M 185.2,130.7 L 189.4,125.8 M 189.4,125.8 L 187.4,123.0 M 187.4,123.0 L 182.3,126.6 M 182.3,126.6 L 185.2,130.7 M 158.1,118.2 L 165.3,118.2 M 165.3,118.2 L 166.3,114.5 M 166.3,114.5 L 159.5,112.7 M 159.5,112.7 L 158.1,118.2 M 147.6,251.5 L 154.9,248.8 M 154.9,248.8 L 154.5,244.7 M 154.5,244.7 L 147.1,245.4 M 147.1,245.4 L 147.6,251.5 M 145.0,246.6 L 147.7,241.6 M 147.7,241.6 L 145.5,239.5 M 145.5,239.5 L 141.8,243.5 M 141.8,243.5 L 145.0,246.6 M 67.7,262.8 L 72.3,256.7 M 72.3,256.7 L 69.8,253.5 M 69.8,253.5 L 64.0,258.1 M 64.0,258.1 L 67.7,262.8 M 67.1,265.3 L 66.7,259.7 M 66.7,259.7 L 63.7,259.2 M 63.7,259.2 L 62.8,264.5 M 62.8,264.5 L 67.1,265.3 M 63.4,128.2 L 64.1,122.0 M 64.1,122.0 L 61.1,120.8 M 61.1,120.8 L 58.8,126.4 M 58.8,126.4 L 63.4,128.2 M 43.3,222.8 L 47.0,218.3 M 47.0,218.3 L 45.2,215.9 M 45.2,215.9 L 40.7,219.0 M 40.7,219.0 L 43.3,222.8 M 108.4,90.5 L 108.4,56.9 M 77.2,56.9 L 77.2,90.5 M 108.4,56.9 L 108.5,20.0 M 108.5,20.0 L 77.3,20.0 M 77.3,20.0 L 77.2,56.9 M 159.9,334.8 L 159.9,298.6 M 159.9,298.6 L 128.7,298.6 M 128.7,298.6 L 128.9,334.9 M 159.9,380.0 L 159.9,334.8 M 128.9,334.9 L 129.2,370.6 M 129.2,370.6 L 159.9,380.0" fill="none" stroke="white" stroke-width="2" stroke-linecap="round"/>
  <rect x="68.7" y="77.0" width="48" height="8" fill="#ff4444" stroke="white" stroke-width="1" data-gate="true" data-gate-dir="north"/>
<text x="92.7" y="65.0" text-anchor="middle" font-size="10" fill="#ffaaaa" font-family="sans-serif">N</text>
<rect x="120.3" y="303.6" width="48" height="8" fill="#ff4444" stroke="white" stroke-width="1" data-gate="true" data-gate-dir="south"/>
<text x="144.3" y="331.6" text-anchor="middle" font-size="10" fill="#ffaaaa" font-family="sans-serif">S</text>
  <circle cx="124.0" cy="194.5" r="0" data-origin="true" fill="none"/>
  
</svg>