<svg xmlns="http://www.w3.org/2000/svg" viewBox="0 0 400 400">
  <rect width="400" height="400" fill="#1a1a2e"/>
  <path d="M 176.6,169.5 L 207.4,169.5 L 207.4,123.2 Z M 176.6,169.5 L 207.4,123.2 L 176.6,123.2 Z M 176.6,169.5 L 207.4,169.5 L 207.4,123.2 Z M 176.6,169.5 L 207.4,123.2 L 176.6,123.2 Z M 277.9,177.5 L 306.2,177.5 L 306.2,175.5 Z M 277.9,177.5 L 306.2,175.5 L 277.9,152.9 Z M 277.9,152.9 L 306.2,175.5 L 306.2,149.2 Z M 277.9,152.9 L 306.2,149.2 L 277.9,149.2 Z M 154.0,65.5 L 181.1,78.2 L 186.9,65.7 Z M 154.0,65.5 L 186.9,65.7 L 154.6,64.1 Z M 154.6,64.1 L 186.9,65.7 L 188.5,62.4 Z M 154.6,64.1 L 188.5,62.4 L 169.5,39.9 Z M 172.8,171.2 L 182.7,188.3 L 190.0,161.3 Z M 182.7,188.3 L 199.9,178.4 L 190.0,161.3 Z M 188.5,62.4 L 193.8,51.2 L 169.5,39.9 Z M 169.5,39.9 L 166.6,38.5 L 154.6,64.1 Z M 192.3,239.8 L 161.4,239.8 L 161.4,270.7 Z M 192.3,239.8 L 161.4,270.7 L 192.3,270.7 Z M 192.3,270.7 L 161.4,270.7 L 161.4,319.5 Z M 192.3,270.7 L 161.4,319.5 L 192.3,319.5 Z M 233.4,52.1 L 233.4,83.0 L 273.3,83.0 Z M 233.4,52.1 L 273.3,83.0 L 273.3,52.1 Z M 273.3,52.1 L 273.3,83.0 L 380.0,83.0 Z M 273.3,52.1 L 380.0,83.0 L 380.0,52.1 Z M 104.9,224.4 L 104.9,193.5 L 65.0,193.5 Z M 104.9,224.4 L 65.0,193.5 L 65.0,224.4 Z M 65.0,224.4 L 65.0,193.5 L 20.0,193.5 Z M 65.0,224.4 L 20.0,193.5 L 20.0,224.4 Z M 176.6,123.2 L 207.4,123.2 L 207.4,116.8 Z M 176.6,123.2 L 207.4,116.8 L 176.6,116.8 Z M 176.6,123.2 L 207.4,123.2 L 207.4,116.8 Z M 176.6,123.2 L 207.4,116.8 L 176.6,116.8 Z M 207.4,169.5 L 176.6,169.5 L 176.6,175.9 Z M 207.4,169.5 L 176.6,175.9 L 207.4,175.9 Z M 207.4,169.5 L 176.6,169.5 L 176.6,175.9 Z M 207.4,169.5 L 176.6,175.9 L 207.4,175.9 Z M 207.2,105.5 L 211.6,120.4 L 237.5,95.3 Z M 207.2,105.5 L 237.5,95.3 L 222.6,90.0 Z M 155.7,20.0 L 165.5,35.0 L 213.1,35.0 Z M 155.7,20.0 L 213.1,35.0 L 222.2,20.0 Z M 237.5,95.3 L 237.5,49.5 L 222.6,52.3 Z M 237.5,95.3 L 222.6,52.3 L 222.6,90.0 Z M 155.7,20.0 L 131.8,64.1 L 150.3,64.1 Z M 155.7,20.0 L 150.3,64.1 L 165.5,35.0 Z M 309.0,240.8 L 295.5,232.1 L 256.3,251.1 Z M 309.0,240.8 L 256.3,251.1 L 257.4,268.3 Z M 275.3,150.7 L 290.0,113.8 L 280.9,96.2 Z M 275.3,150.7 L 280.9,96.2 L 265.4,140.7 Z M 309.1,177.8 L 324.1,178.9 L 319.4,108.2 Z M 309.1,177.8 L 319.4,108.2 L 305.9,118.3 Z M 220.9,231.2 L 214.1,245.8 L 257.4,268.3 Z M 220.9,231.2 L 257.4,268.3 L 256.3,251.1 Z M 98.3,229.4 L 134.8,245.8 L 139.8,231.2 Z M 98.3,229.4 L 139.8,231.2 L 114.3,220.9 Z M 140.5,153.8 L 128.6,161.8 L 172.6,183.2 Z M 140.5,153.8 L 172.6,183.2 L 176.9,170.1 Z M 114.3,184.3 L 98.3,186.1 L 98.3,229.4 Z M 114.3,184.3 L 98.3,229.4 L 114.3,220.9 Z M 225.7,170.1 L 229.3,183.2 L 275.3,150.7 Z M 225.7,170.1 L 275.3,150.7 L 265.4,140.7 Z M 169.8,120.4 L 179.6,105.4 L 150.3,64.1 Z M 169.8,120.4 L 150.3,64.1 L 131.8,64.1 Z M 134.8,245.8 L 214.1,245.8 L 220.9,231.2 Z M 134.8,245.8 L 220.9,231.2 L 139.8,231.2 Z M 222.2,20.0 L 213.1,35.0 L 222.6,52.3 Z M 222.2,20.0 L 222.6,52.3 L 237.5,49.5 Z M 225.7,170.1 L 176.9,170.1 L 172.6,183.2 Z M 225.7,170.1 L 172.6,183.2 L 229.3,183.2 Z M 169.8,120.4 L 211.6,120.4 L 207.2,105.5 Z M 169.8,120.4 L 207.2,105.5 L 179.6,105.4 Z M 319.4,108.2 L 280.9,96.2 L 290.0,113.8 Z M 319.4,108.2 L 290.0,113.8 L 305.9,118.3 Z M 309.0,240.8 L 324.1,178.9 L 309.1,177.8 Z M 309.0,240.8 L 309.1,177.8 L 295.5,232.1 Z M 104.4,101.6 L 76.3,137.1 L 93.4,139.2 Z M 104.4,101.6 L 93.4,139.2 L 107.6,119.9 Z M 76.3,137.1 L 98.3,186.1 L 114.3,184.3 Z M 76.3,137.1 L 114.3,184.3 L 93.4,139.2 Z M 133.8,118.4 L 121.5,127.5 L 128.6,161.8 Z M 133.8,118.4 L 128.6,161.8 L 140.5,153.8 Z M 104.4,101.6 L 107.6,119.9 L 121.5,127.5 Z M 104.4,101.6 L 121.5,127.5 L 133.8,118.4 Z M 207.2,105.5 L 222.6,90.0 L 191.7,66.0 Z M 222.6,90.0 L 222.6,52.3 L 191.7,66.0 Z M 191.7,66.0 L 222.6,52.3 L 213.1,35.0 Z M 213.1,35.0 L 165.5,35.0 L 191.7,66.0 Z M 165.5,35.0 L 150.3,64.1 L 191.7,66.0 Z M 191.7,66.0 L 150.3,64.1 L 179.6,105.4 Z M 220.9,231.2 L 256.3,251.1 L 269.1,209.6 Z M 256.3,251.1 L 295.5,232.1 L 269.1,209.6 Z M 269.1,209.6 L 295.5,232.1 L 309.1,177.8 Z M 155.2,210.2 L 220.9,231.2 L 229.3,183.2 Z M 220.9,231.2 L 269.1,209.6 L 229.3,183.2 Z M 229.3,183.2 L 269.1,209.6 L 275.3,150.7 Z M 269.1,209.6 L 309.1,177.8 L 275.3,150.7 Z M 114.3,184.3 L 114.3,220.9 L 155.2,210.2 Z M 114.3,220.9 L 139.8,231.2 L 155.2,210.2 Z M 155.2,210.2 L 139.8,231.2 L 220.9,231.2 Z M 93.4,139.2 L 114.3,184.3 L 128.6,161.8 Z M 114.3,184.3 L 155.2,210.2 L 128.6,161.8 Z M 128.6,161.8 L 155.2,210.2 L 172.6,183.2 Z M 155.2,210.2 L 229.3,183.2 L 172.6,183.2 Z M 309.1,177.8 L 305.9,118.3 L 290.0,113.8 Z M 309.1,177.8 L 290.0,113.8 L 275.3,150.7 Z M 128.6,161.8 L 121.5,127.5 L 107.6,119.9 Z M 128.6,161.8 L 107.6,119.9 L 93.4,139.2 Z M 191.7,66.0 L 179.6,105.4 L 207.2,105.5 Z" fill="#2a2a4e" stroke="none"/>
  <path d="M 277.9,177.5 L 306.2,177.5 M 306.2,177.5 L 306.2,175.5 M 277.9,152.9 L 277.9,177.5 M 306.2,175.5 L 306.2,149.2 M 306.2,149.2 L 277.9,149.2 M 277.9,149.2 L 277.9,152.9 M 154.0,65.5 L 181.1,78.2 M 181.1,78.2 L 186.9,65.7 M 154.6,64.1 L 154.0,65.5 M 186.9,65.7 L 188.5,62.4 M 172.8,171.2 L 182.7,188.3 M 190.0,161.3 L 172.8,171.2 M 182.7,188.3 L 199.9,178.4 M 199.9,178.4 L 190.0,161.3 M 188.5,62.4 L 193.8,51.2 M 193.8,51.2 L 169.5,39.9 M 169.5,39.9 L 166.6,38.5 M 166.6,38.5 L 154.6,64.1 M 192.3,239.8 L 161.4,239.8 M 161.4,239.8 L 161.4,270.7 M 192.3,270.7 L 192.3,239.8 M 161.4,270.7 L 161.4,319.5 M 161.4,319.5 L 192.3,319.5 M 192.3,319.5 L 192.3,270.7 M 233.4,52.1 L 233.4,83.0 M 233.4,83.0 L 273.3,83.0 M 273.3,52.1 L 233.4,52.1 M 273.3,83.0 L 380.0,83.0 M 380.0,83.0 L 380.0,52.1 M 380.0,52.1 L 273.3,52.1 M 104.9,224.4 L 104.9,193.5 M 104.9,193.5 L 65.0,193.5 M 65.0,224.4 L 104.9,224.4 M 65.0,193.5 L 20.0,193.5 M 20.0,193.5 L 20.0,224.4 M 20.0,224.4 L 65.0,224.4 M 211.6,120.4 L 237.5,95.3 M 222.2,20.0 L 155.7,20.0 M 237.5,95.3 L 237.5,49.5 M 155.7,20.0 L 131.8,64.1 M 257.4,268.3 L 309.0,240.8 M 280.9,96.2 L 265.4,140.7 M 324.1,178.9 L 319.4,108.2 M 214.1,245.8 L 257.4,268.3 M 98.3,229.4 L 134.8,245.8 M 176.9,170.1 L 140.5,153.8 M 98.3,186.1 L 98.3,229.4 M 265.4,140.7 L 225.7,170.1 M 131.8,64.1 L 169.8,120.4 M 134.8,245.8 L 214.1,245.8 M 237.5,49.5 L 222.2,20.0 M 225.7,170.1 L 176.9,170.1 M 169.8,120.4 L 211.6,120.4 M 319.4,108.2 L 280.9,96.2 M 309.0,240.8 L 324.1,178.9 M 104.4,101.6 L 76.3,137.1 M 76.3,137.1 L 98.3,186.1 M 140.5,153.8 L 133.8,118.4 M 133.8,118.4 L 104.4,101.6" fill="none" stroke="white" stroke-width="2" stroke-linecap="round"/>
  <polygon points="175.79387148946853,242.97067389938434 183.79387148946853,250.97067389938434 175.79387148946853,258.97067389938434 167.79387148946853,250.97067389938434" fill="#4a9eff" stroke="white" stroke-width="1"/>
<polygon points="91.05882877127115,200.35834918372439 99.05882877127115,208.35834918372439 91.05882877127115,216.35834918372439 83.05882877127115,208.35834918372439" fill="#4a9eff" stroke="white" stroke-width="1"/>
<polygon points="254.70496285674588,59.506860414967406 262.70496285674585,67.5068604149674 254.70496285674588,75.5068604149674 246.70496285674588,67.5068604149674" fill="#4a9eff" stroke="white" stroke-width="1"/>
</svg>