<svg xmlns="http://www.w3.org/2000/svg" viewBox="0 0 400 400">
  <rect width="400" height="400" fill="#1a1a2e"/>
  <path d="M 106.0,265.9 L 73.2,254.0 L 39.1,345.8 Z M 106.0,265.9 L 39.1,345.8 L 71.9,357.7 Z M 106.0,265.9 L 73.2,254.0 L 39.1,345.8 Z M 106.0,265.9 L 39.1,345.8 L 71.9,357.7 Z M 109.6,187.8 L 74.6,187.8 L 74.6,240.6 Z M 109.6,187.8 L 74.6,240.6 L 109.6,240.6 Z M 109.6,187.8 L 74.6,187.8 L 74.6,240.6 Z M 109.6,187.8 L 74.6,240.6 L 109.6,240.6 Z M 86.5,107.9 L 104.3,107.9 L 90.4,92.8 Z M 104.3,107.9 L 116.7,91.2 L 90.4,92.8 Z M 90.4,92.8 L 116.7,91.2 L 98.9,88.3 Z M 86.5,107.9 L 90.4,92.8 L 59.6,87.8 Z M 90.4,92.8 L 60.2,71.9 L 59.6,87.8 Z M 98.9,88.3 L 85.0,65.4 L 90.4,92.8 Z M 85.0,65.4 L 60.2,71.9 L 90.4,92.8 Z M 75.5,235.9 L 98.4,252.0 L 114.5,229.0 Z M 75.5,235.9 L 114.5,229.0 L 91.5,212.9 Z M 67.6,278.1 L 95.7,278.1 L 95.7,250.1 Z M 67.6,278.1 L 95.7,250.1 L 67.6,250.1 Z M 38.2,380.0 L 88.3,361.8 L 70.1,311.7 Z M 38.2,380.0 L 70.1,311.7 L 20.0,329.9 Z M 89.3,113.0 L 86.0,94.1 L 67.1,97.4 Z M 89.3,113.0 L 67.1,97.4 L 70.4,116.4 Z M 59.5,61.8 L 72.0,72.3 L 82.5,59.8 Z M 59.5,61.8 L 82.5,59.8 L 70.0,49.3 Z M 96.9,97.2 L 113.3,110.9 L 127.1,94.6 Z M 96.9,97.2 L 127.1,94.6 L 110.7,80.9 Z M 106.2,81.4 L 103.3,64.6 L 86.5,67.6 Z M 106.2,81.4 L 86.5,67.6 L 89.4,84.4 Z M 108.5,259.1 L 75.7,247.2 L 73.2,254.0 Z M 108.5,259.1 L 73.2,254.0 L 106.0,265.9 Z M 108.5,259.1 L 75.7,247.2 L 73.2,254.0 Z M 108.5,259.1 L 73.2,254.0 L 106.0,265.9 Z M 36.6,352.7 L 69.4,364.6 L 71.9,357.7 Z M 36.6,352.7 L 71.9,357.7 L 39.1,345.8 Z M 36.6,352.7 L 69.4,364.6 L 71.9,357.7 Z M 36.6,352.7 L 71.9,357.7 L 39.1,345.8 Z M 109.6,180.5 L 74.6,180.5 L 74.6,187.8 Z M 109.6,180.5 L 74.6,187.8 L 109.6,187.8 Z M 109.6,180.5 L 74.6,180.5 L 74.6,187.8 Z M 109.6,180.5 L 74.6,187.8 L 109.6,187.8 Z M 74.6,247.8 L 109.6,247.8 L 109.6,240.6 Z M 74.6,247.8 L 109.6,240.6 L 74.6,240.6 Z M 74.6,247.8 L 109.6,247.8 L 109.6,240.6 Z M 74.6,247.8 L 109.6,240.6 L 74.6,240.6 Z M 104.3,107.9 L 111.0,119.4 L 133.9,85.1 Z M 104.3,107.9 L 133.9,85.1 L 116.7,91.2 Z M 85.0,65.4 L 90.2,51.2 L 49.4,62.7 Z M 85.0,65.4 L 49.4,62.7 L 60.2,71.9 Z M 49.4,62.7 L 47.9,92.7 L 59.6,87.8 Z M 49.4,62.7 L 59.6,87.8 L 60.2,71.9 Z M 133.9,85.1 L 108.7,79.2 L 98.9,88.3 Z M 133.9,85.1 L 98.9,88.3 L 116.7,91.2 Z M 86.5,107.9 L 82.6,119.4 L 111.0,119.4 Z M 86.5,107.9 L 111.0,119.4 L 104.3,107.9 Z M 59.6,87.8 L 47.9,92.7 L 82.6,119.4 Z M 59.6,87.8 L 82.6,119.4 L 86.5,107.9 Z M 108.7,79.2 L 90.2,51.2 L 85.0,65.4 Z M 108.7,79.2 L 85.0,65.4 L 98.9,88.3 Z M 109.7,206.7 L 109.7,136.9 L 92.3,136.9 Z M 109.7,206.7 L 92.3,136.9 L 92.3,206.7 Z M 92.3,206.7 L 92.3,136.9 L 74.8,136.9 Z M 92.3,206.7 L 74.8,136.9 L 74.8,206.7 Z M 109.7,250.4 L 109.7,206.7 L 92.3,206.7 Z M 109.7,250.4 L 92.3,206.7 L 92.3,250.4 Z M 92.3,250.4 L 92.3,206.7 L 74.8,206.7 Z M 92.3,250.4 L 74.8,206.7 L 74.8,250.4 Z M 147.0,117.4 L 158.4,75.8 L 133.9,85.1 Z M 158.4,75.8 L 141.6,34.2 L 133.9,85.1 Z M 133.9,85.1 L 141.6,34.2 L 108.7,79.2 Z M 141.6,34.2 L 90.2,51.2 L 108.7,79.2 Z M 67.0,20.0 L 32.5,60.7 L 49.4,62.7 Z M 32.5,60.7 L 47.9,92.7 L 49.4,62.7 Z M 109.7,136.9 L 111.0,119.4 L 92.3,136.9 Z M 111.0,119.4 L 82.6,119.4 L 92.3,136.9 Z M 92.3,136.9 L 82.6,119.4 L 74.8,136.9 Z M 82.6,119.4 L 39.2,116.2 L 74.8,136.9 Z M 74.8,250.4 L 38.4,348.1 L 92.3,250.4 Z M 38.4,348.1 L 74.4,355.5 L 92.3,250.4 Z M 92.3,250.4 L 74.4,355.5 L 109.7,250.4 Z M 82.6,119.4 L 47.9,92.7 L 39.2,116.2 Z M 47.9,92.7 L 32.5,60.7 L 39.2,116.2 Z M 141.6,34.2 L 67.0,20.0 L 90.2,51.2 Z M 67.0,20.0 L 49.4,62.7 L 90.2,51.2 Z M 133.9,85.1 L 111.0,119.4 L 109.7,136.9 Z M 133.9,85.1 L 109.7,136.9 L 147.0,117.4 Z" fill="#2a2a4e" stroke="none"/>
  <path d="M 75.5,235.9 L 98.4,252.0 M 98.4,252.0 L 114.5,229.0 M 114.5,229.0 L 91.5,212.9 M 91.5,212.9 L 75.5,235.9 M 67.6,278.1 L 95.7,278.1 M 95.7,278.1 L 95.7,250.1 M 95.7,250.1 L 67.6,250.1 M 67.6,250.1 L 67.6,278.1 M 38.2,380.0 L 88.3,361.8 M 88.3,361.8 L 70.1,311.7 M 70.1,311.7 L 20.0,329.9 M 20.0,329.9 L 38.2,380.0 M 89.3,113.0 L 86.0,94.1 M 86.0,94.1 L 67.1,97.4 M 67.1,97.4 L 70.4,116.4 M 70.4,116.4 L 89.3,113.0 M 59.5,61.8 L 72.0,72.3 M 72.0,72.3 L 82.5,59.8 M 82.5,59.8 L 70.0,49.3 M 70.0,49.3 L 59.5,61.8 M 96.9,97.2 L 113.3,110.9 M 113.3,110.9 L 127.1,94.6 M 127.1,94.6 L 110.7,80.9 M 110.7,80.9 L 96.9,97.2 M 106.2,81.4 L 103.3,64.6 M 103.3,64.6 L 86.5,67.6 M 86.5,67.6 L 89.4,84.4 M 89.4,84.4 L 106.2,81.4 M 109.7,206.7 L 109.7,136.9 M 74.8,136.9 L 74.8,206.7 M 109.7,250.4 L 109.7,206.7 M 74.8,206.7 L 74.8,250.4 M 147.0,117.4 L 158.4,75.8 M 158.4,75.8 L 141.6,34.2 M 67.0,20.0 L 32.5,60.7 M 39.2,116.2 L 74.8,136.9 M 74.8,250.4 L 38.4,348.1 M 38.4,348.1 L 74.4,355.5 M 74.4,355.5 L 109.7,250.4 M 32.5,60.7 L 39.2,116.2 M 141.6,34.2 L 67.0,20.0 M 109.7,136.9 L 147.0,117.4" fill="none" stroke="white" stroke-width="2" stroke-linecap="round"/>
  <polygon points="90.92471145610274,132.53186111188344 98.92471145610274,140.53186111188344 90.92471145610274,148.53186111188344 82.92471145610274,140.53186111188344" fill="#4a9eff" stroke="white" stroke-width="1"/>
</svg>