<svg xmlns="http://www.w3.org/2000/svg" viewBox="0 0 400 400">
  <rect width="400" height="400" fill="#1a1a2e"/>
  <path d="M 123.6,199.4 L 123.6,232.2 L 172.7,232.2 Z M 123.6,199.4 L 172.7,232.2 L 172.7,199.4 Z M 123.6,199.4 L 123.6,232.2 L 172.7,232.2 Z M 123.6,199.4 L 172.7,232.2 L 172.7,199.4 Z M 209.2,193.6 L 242.0,193.6 L 242.0,144.5 Z M 209.2,193.6 L 242.0,144.5 L 209.2,144.5 Z M 209.2,193.6 L 242.0,193.6 L 242.0,144.5 Z M 209.2,193.6 L 242.0,144.5 L 209.2,144.5 Z M 259.2,214.3 L 227.4,214.3 L 259.2,246.0 Z M 227.4,214.3 L 227.4,246.0 L 259.2,246.0 Z M 245.9,151.8 L 235.4,133.6 L 227.7,162.4 Z M 235.4,133.6 L 217.2,144.1 L 227.7,162.4 Z M 168.4,236.1 L 186.6,225.6 L 157.9,217.9 Z M 186.6,225.6 L 176.1,207.4 L 157.9,217.9 Z M 66.9,208.1 L 66.9,178.1 L 36.9,178.1 Z M 66.9,208.1 L 36.9,178.1 L 36.9,208.1 Z M 91.1,241.4 L 91.1,209.6 L 59.3,209.6 Z M 91.1,241.4 L 59.3,209.6 L 59.3,241.4 Z M 251.5,103.7 L 251.5,71.9 L 219.7,71.9 Z M 251.5,103.7 L 219.7,71.9 L 219.7,103.7 Z M 209.3,128.4 L 209.3,97.4 L 195.3,97.4 Z M 209.3,128.4 L 195.3,97.4 L 195.3,128.4 Z M 225.9,290.0 L 193.2,290.0 L 193.2,332.3 Z M 225.9,290.0 L 193.2,332.3 L 225.9,332.3 Z M 225.9,332.3 L 193.2,332.3 L 193.2,380.0 Z M 225.9,332.3 L 193.2,380.0 L 225.9,380.0 Z M 81.4,129.1 L 114.1,129.1 L 114.1,96.4 Z M 81.4,129.1 L 114.1,96.4 L 81.4,96.4 Z M 81.4,96.4 L 114.1,96.4 L 114.1,20.0 Z M 81.4,96.4 L 114.1,20.0 L 81.4,20.0 Z M 172.7,199.4 L 172.7,232.2 L 179.5,232.2 Z M 172.7,199.4 L 179.5,232.2 L 179.5,199.4 Z M 172.7,199.4 L 172.7,232.2 L 179.5,232.2 Z M 172.7,199.4 L 179.5,232.2 L 179.5,199.4 Z M 123.6,232.2 L 123.6,199.4 L 116.8,199.4 Z M 123.6,232.2 L 116.8,199.4 L 116.8,232.2 Z M 123.6,232.2 L 123.6,199.4 L 116.8,199.4 Z M 123.6,232.2 L 116.8,199.4 L 116.8,232.2 Z M 209.2,144.5 L 242.0,144.5 L 242.0,137.7 Z M 209.2,144.5 L 242.0,137.7 L 209.2,137.7 Z M 209.2,144.5 L 242.0,144.5 L 242.0,137.7 Z M 209.2,144.5 L 242.0,137.7 L 209.2,137.7 Z M 242.0,193.6 L 209.2,193.6 L 209.2,200.4 Z M 242.0,193.6 L 209.2,200.4 L 242.0,200.4 Z M 242.0,193.6 L 209.2,193.6 L 209.2,200.4 Z M 242.0,193.6 L 209.2,200.4 L 242.0,200.4 Z M 252.3,205.0 L 263.0,252.9 L 265.7,189.1 Z M 263.0,252.9 L 279.5,258.3 L 265.7,189.1 Z M 110.4,190.5 L 126.4,190.5 L 115.5,123.6 Z M 110.4,190.5 L 115.5,123.6 L 102.3,139.2 Z M 20.0,243.6 L 35.9,233.2 L 35.9,163.3 Z M 20.0,243.6 L 35.9,163.3 L 20.0,153.6 Z M 115.5,123.6 L 67.7,123.6 L 70.7,139.6 Z M 115.5,123.6 L 70.7,139.6 L 102.3,139.2 Z M 20.0,243.6 L 78.6,268.8 L 78.6,249.2 Z M 20.0,243.6 L 78.6,249.2 L 35.9,233.2 Z M 258.6,60.9 L 245.4,76.8 L 257.0,129.4 Z M 258.6,60.9 L 257.0,129.4 L 275.0,137.3 Z M 188.2,60.9 L 163.3,111.5 L 181.1,111.4 Z M 188.2,60.9 L 181.1,111.4 L 198.2,76.8 Z M 188.2,60.9 L 198.2,76.8 L 245.4,76.8 Z M 188.2,60.9 L 245.4,76.8 L 258.6,60.9 Z M 238.0,143.2 L 245.0,159.1 L 275.0,137.3 Z M 238.0,143.2 L 275.0,137.3 L 257.0,129.4 Z M 233.9,295.5 L 279.5,258.3 L 263.0,252.9 Z M 233.9,295.5 L 263.0,252.9 L 230.8,279.5 Z M 183.2,239.5 L 167.3,239.5 L 186.4,295.5 Z M 183.2,239.5 L 186.4,295.5 L 197.7,279.5 Z M 172.7,189.1 L 186.3,205.0 L 252.3,205.0 Z M 172.7,189.1 L 252.3,205.0 L 265.7,189.1 Z M 233.9,295.5 L 230.8,279.5 L 197.7,279.5 Z M 233.9,295.5 L 197.7,279.5 L 186.4,295.5 Z M 188.2,159.1 L 198.2,143.2 L 181.1,111.4 Z M 188.2,159.1 L 181.1,111.4 L 163.3,111.5 Z M 126.4,243.6 L 110.4,233.2 L 78.6,249.2 Z M 126.4,243.6 L 78.6,249.2 L 78.6,268.8 Z M 20.0,153.6 L 35.9,163.3 L 70.7,139.6 Z M 20.0,153.6 L 70.7,139.6 L 67.7,123.6 Z M 188.2,159.1 L 245.0,159.1 L 238.0,143.2 Z M 188.2,159.1 L 238.0,143.2 L 198.2,143.2 Z M 172.7,189.1 L 167.3,239.5 L 183.2,239.5 Z M 172.7,189.1 L 183.2,239.5 L 186.3,205.0 Z M 126.4,243.6 L 126.4,190.5 L 110.4,190.5 Z M 126.4,243.6 L 110.4,190.5 L 110.4,233.2 Z M 110.4,190.5 L 102.3,139.2 L 78.6,190.3 Z M 102.3,139.2 L 70.7,139.6 L 78.6,190.3 Z M 78.6,190.3 L 70.7,139.6 L 35.9,163.3 Z M 35.9,163.3 L 35.9,233.2 L 78.6,190.3 Z M 35.9,233.2 L 78.6,249.2 L 78.6,190.3 Z M 78.6,190.3 L 78.6,249.2 L 110.4,233.2 Z M 198.2,76.8 L 221.8,111.4 L 245.4,76.8 Z M 221.8,111.4 L 257.0,129.4 L 245.4,76.8 Z M 257.0,129.4 L 221.8,111.4 L 238.0,143.2 Z M 221.8,111.4 L 198.2,143.2 L 238.0,143.2 Z M 263.0,252.9 L 252.3,205.0 L 219.6,241.3 Z M 252.3,205.0 L 186.3,205.0 L 219.6,241.3 Z M 219.6,241.3 L 186.3,205.0 L 183.2,239.5 Z M 183.2,239.5 L 197.7,279.5 L 219.6,241.3 Z M 197.7,279.5 L 230.8,279.5 L 219.6,241.3 Z M 219.6,241.3 L 230.8,279.5 L 263.0,252.9 Z M 198.2,76.8 L 181.1,111.4 L 198.2,143.2 Z M 198.2,76.8 L 198.2,143.2 L 221.8,111.4 Z M 78.6,190.3 L 110.4,233.2 L 110.4,190.5 Z" fill="#2a2a4e" stroke="none"/>
  <path d="M 259.2,214.3 L 227.4,214.3 M 259.2,246.0 L 259.2,214.3 M 227.4,214.3 L 227.4,246.0 M 227.4,246.0 L 259.2,246.0 M 245.9,151.8 L 235.4,133.6 M 227.7,162.4 L 245.9,151.8 M 235.4,133.6 L 217.2,144.1 M 217.2,144.1 L 227.7,162.4 M 168.4,236.1 L 186.6,225.6 M 157.9,217.9 L 168.4,236.1 M 186.6,225.6 L 176.1,207.4 M 176.1,207.4 L 157.9,217.9 M 66.9,208.1 L 66.9,178.1 M 66.9,178.1 L 36.9,178.1 M 36.9,178.1 L 36.9,208.1 M 36.9,208.1 L 66.9,208.1 M 91.1,241.4 L 91.1,209.6 M 91.1,209.6 L 59.3,209.6 M 59.3,209.6 L 59.3,241.4 M 59.3,241.4 L 91.1,241.4 M 251.5,103.7 L 251.5,71.9 M 251.5,71.9 L 219.7,71.9 M 219.7,71.9 L 219.7,103.7 M 219.7,103.7 L 251.5,103.7 M 209.3,128.4 L 209.3,97.4 M 209.3,97.4 L 195.3,97.4 M 195.3,97.4 L 195.3,128.4 M 195.3,128.4 L 209.3,128.4 M 225.9,290.0 L 193.2,290.0 M 193.2,290.0 L 193.2,332.3 M 225.9,332.3 L 225.9,290.0 M 193.2,332.3 L 193.2,380.0 M 193.2,380.0 L 225.9,380.0 M 225.9,380.0 L 225.9,332.3 M 81.4,129.1 L 114.1,129.1 M 114.1,129.1 L 114.1,96.4 M 81.4,96.4 L 81.4,129.1 M 114.1,96.4 L 114.1,20.0 M 114.1,20.0 L 81.4,20.0 M 81.4,20.0 L 81.4,96.4 M 279.5,258.3 L 265.7,189.1 M 126.4,190.5 L 115.5,123.6 M 20.0,153.6 L 20.0,243.6 M 115.5,123.6 L 67.7,123.6 M 20.0,243.6 L 78.6,268.8 M 275.0,137.3 L 258.6,60.9 M 188.2,60.9 L 163.3,111.5 M 258.6,60.9 L 188.2,60.9 M 245.0,159.1 L 275.0,137.3 M 233.9,295.5 L 279.5,258.3 M 167.3,239.5 L 186.4,295.5 M 265.7,189.1 L 172.7,189.1 M 186.4,295.5 L 233.9,295.5 M 163.3,111.5 L 188.2,159.1 M 78.6,268.8 L 126.4,243.6 M 67.7,123.6 L 20.0,153.6 M 188.2,159.1 L 245.0,159.1 M 172.7,189.1 L 167.3,239.5 M 126.4,243.6 L 126.4,190.5" fill="none" stroke="white" stroke-width="2" stroke-linecap="round"/>
  <polygon points="210.98572734190347,294.8780649079371 218.98572734190347,302.8780649079371 210.98572734190347,310.8780649079371 202.98572734190347,302.8780649079371" fill="#4a9eff" stroke="white" stroke-width="1"/>
<polygon points="96.42816348087644,106.09782055551563 104.42816348087644,114.09782055551563 96.42816348087644,122.09782055551563 88.42816348087644,114.09782055551563" fill="#4a9eff" stroke="white" stroke-width="1"/>
</svg>