<svg xmlns="http://www.w3.org/2000/svg" viewBox="0 0 400 400">
  <rect width="400" height="400" fill="#1a1a2e"/>
  <path d="M 111.8,199.1 L 106.1,167.0 L 74.1,172.7 Z M 111.8,199.1 L 74.1,172.7 L 79.7,204.8 Z M 88.6,111.6 L 110.8,130.2 L 129.4,108.0 Z M 88.6,111.6 L 129.4,108.0 L 107.2,89.4 Z M 155.7,175.9 L 179.0,195.4 L 198.6,172.2 Z M 155.7,175.9 L 198.6,172.2 L 175.3,152.6 Z M 167.3,136.7 L 163.1,112.8 L 139.2,117.0 Z M 167.3,136.7 L 139.2,117.0 L 143.4,140.9 Z M 128.7,101.1 L 156.7,93.6 L 149.2,65.6 Z M 128.7,101.1 L 149.2,65.6 L 121.1,73.1 Z M 121.9,144.5 L 116.9,173.0 L 145.4,178.0 Z M 121.9,144.5 L 145.4,178.0 L 150.4,149.5 Z M 117.2,198.0 L 112.2,226.5 L 140.7,231.5 Z M 117.2,198.0 L 140.7,231.5 L 145.7,203.0 Z M 131.7,213.9 L 129.8,163.0 L 108.1,169.3 Z M 129.8,163.0 L 112.1,108.3 L 108.1,169.3 Z M 108.1,169.3 L 112.1,108.3 L 77.8,116.0 Z M 131.7,213.9 L 108.1,169.3 L 85.5,179.9 Z M 108.1,169.3 L 77.8,116.0 L 85.5,179.9 Z M 183.9,173.4 L 129.8,163.0 L 131.7,213.9 Z M 183.9,173.4 L 131.7,213.9 L 165.2,207.7 Z M 164.9,120.0 L 163.8,70.0 L 136.1,90.6 Z M 164.9,120.0 L 136.1,90.6 L 150.1,129.1 Z M 163.8,70.0 L 146.6,67.4 L 136.1,90.6 Z M 165.2,207.7 L 174.7,224.1 L 207.0,162.9 Z M 165.2,207.7 L 207.0,162.9 L 183.9,173.4 Z M 112.1,108.3 L 119.6,88.0 L 61.5,104.4 Z M 112.1,108.3 L 61.5,104.4 L 77.8,116.0 Z M 142.8,149.9 L 150.1,129.1 L 136.1,90.6 Z M 142.8,149.9 L 136.1,90.6 L 119.6,88.0 Z M 61.5,104.4 L 69.0,187.8 L 85.5,179.9 Z M 61.5,104.4 L 85.5,179.9 L 77.8,116.0 Z M 207.0,162.9 L 142.8,149.9 L 129.8,163.0 Z M 207.0,162.9 L 129.8,163.0 L 183.9,173.4 Z M 131.7,213.9 L 126.2,230.3 L 174.7,224.1 Z M 131.7,213.9 L 174.7,224.1 L 165.2,207.7 Z M 85.5,179.9 L 69.0,187.8 L 126.2,230.3 Z M 85.5,179.9 L 126.2,230.3 L 131.7,213.9 Z M 142.8,149.9 L 119.6,88.0 L 112.1,108.3 Z M 142.8,149.9 L 112.1,108.3 L 129.8,163.0 Z M 164.9,120.0 L 150.1,129.1 L 142.8,149.9 Z M 164.9,120.0 L 142.8,149.9 L 179.6,133.1 Z M 163.8,70.0 L 164.9,120.0 L 179.6,133.1 Z M 163.8,70.0 L 179.6,133.1 L 179.9,59.4 Z M 136.1,90.6 L 146.6,67.4 L 140.2,51.9 Z M 136.1,90.6 L 140.2,51.9 L 119.6,88.0 Z M 140.2,51.9 L 146.6,67.4 L 163.8,70.0 Z M 140.2,51.9 L 163.8,70.0 L 179.9,59.4 Z M 185.0,380.0 L 185.0,260.0 L 160.1,260.0 Z M 185.0,380.0 L 160.1,260.0 L 160.1,380.0 Z M 160.1,380.0 L 160.1,260.0 L 135.3,260.0 Z M 160.1,380.0 L 135.3,260.0 L 135.3,380.0 Z M 185.0,260.0 L 174.7,224.1 L 160.1,260.0 Z M 174.7,224.1 L 126.2,230.3 L 160.1,260.0 Z M 160.1,260.0 L 126.2,230.3 L 135.3,260.0 Z M 126.2,230.3 L 31.3,216.8 L 135.3,260.0 Z M 126.2,230.3 L 69.0,187.8 L 31.3,216.8 Z M 69.0,187.8 L 20.0,114.4 L 31.3,216.8 Z M 61.5,104.4 L 119.6,88.0 L 65.0,33.5 Z M 119.6,88.0 L 140.2,51.9 L 65.0,33.5 Z M 65.0,33.5 L 140.2,51.9 L 175.9,20.0 Z M 140.2,51.9 L 179.9,59.4 L 175.9,20.0 Z M 175.9,20.0 L 179.9,59.4 L 257.9,77.5 Z M 179.9,59.4 L 179.6,133.1 L 257.9,77.5 Z M 257.9,77.5 L 179.6,133.1 L 207.0,162.9 Z M 179.6,133.1 L 142.8,149.9 L 207.0,162.9 Z M 69.0,187.8 L 61.5,104.4 L 20.0,114.4 Z M 61.5,104.4 L 65.0,33.5 L 20.0,114.4 Z M 207.0,162.9 L 174.7,224.1 L 185.0,260.0 Z M 207.0,162.9 L 185.0,260.0 L 255.3,193.3 Z M 207.0,162.9 L 255.3,193.3 L 257.9,77.5 Z" fill="#2a2a4e" stroke="none"/>
  <path d="M 111.8,199.1 L 106.1,167.0 M 106.1,167.0 L 74.1,172.7 M 74.1,172.7 L 79.7,204.8 M 79.7,204.8 L 111.8,199.1 M 88.6,111.6 L 110.8,130.2 M 110.8,130.2 L 129.4,108.0 M 129.4,108.0 L 107.2,89.4 M 107.2,89.4 L 88.6,111.6 M 155.7,175.9 L 179.0,195.4 M 179.0,195.4 L 198.6,172.2 M 198.6,172.2 L 175.3,152.6 M 175.3,152.6 L 155.7,175.9 M 167.3,136.7 L 163.1,112.8 M 163.1,112.8 L 139.2,117.0 M 139.2,117.0 L 143.4,140.9 M 143.4,140.9 L 167.3,136.7 M 128.7,101.1 L 156.7,93.6 M 156.7,93.6 L 149.2,65.6 M 149.2,65.6 L 121.1,73.1 M 121.1,73.1 L 128.7,101.1 M 121.9,144.5 L 116.9,173.0 M 116.9,173.0 L 145.4,178.0 M 145.4,178.0 L 150.4,149.5 M 150.4,149.5 L 121.9,144.5 M 117.2,198.0 L 112.2,226.5 M 112.2,226.5 L 140.7,231.5 M 140.7,231.5 L 145.7,203.0 M 145.7,203.0 L 117.2,198.0 M 185.0,380.0 L 185.0,260.0 M 160.1,380.0 L 185.0,380.0 M 135.3,260.0 L 135.3,380.0 M 135.3,380.0 L 160.1,380.0 M 31.3,216.8 L 135.3,260.0 M 20.0,114.4 L 31.3,216.8 M 175.9,20.0 L 65.0,33.5 M 257.9,77.5 L 175.9,20.0 M 65.0,33.5 L 20.0,114.4 M 185.0,260.0 L 255.3,193.3 M 255.3,193.3 L 257.9,77.5" fill="none" stroke="white" stroke-width="2" stroke-linecap="round"/>
  <polygon points="161.27475628416494,297.12229458623995 169.27475628416494,305.12229458623995 161.27475628416494,313.12229458623995 153.27475628416494,305.12229458623995" fill="#4a9eff" stroke="white" stroke-width="1"/>
</svg>