<svg xmlns="http://www.w3.org/2000/svg" viewBox="0 0 400 400">
  <rect width="400" height="400" fill="#1a1a2e"/>
  <path d="M 60.4,140.0 L 95.5,140.0 L 95.5,87.3 Z M 60.4,140.0 L 95.5,87.3 L 60.4,87.3 Z M 60.4,87.3 L 95.5,87.3 L 95.5,20.0 Z M 60.4,87.3 L 95.5,20.0 L 60.4,20.0 Z M 86.7,236.6 L 51.6,236.6 L 51.6,292.2 Z M 86.7,236.6 L 51.6,292.2 L 86.7,292.2 Z M 86.7,292.2 L 51.6,292.2 L 51.6,380.0 Z M 86.7,292.2 L 51.6,380.0 L 86.7,380.0 Z M 41.8,195.3 L 38.7,212.7 L 71.2,188.9 Z M 38.7,212.7 L 52.6,227.4 L 71.2,188.9 Z M 71.2,188.9 L 52.6,227.4 L 89.7,227.4 Z M 100.2,161.9 L 71.2,188.9 L 106.1,203.7 Z M 71.2,188.9 L 89.7,227.4 L 106.1,203.7 Z M 41.8,195.3 L 71.2,188.9 L 35.7,167.5 Z M 71.2,188.9 L 52.1,148.9 L 35.7,167.5 Z M 52.1,148.9 L 71.2,188.9 L 90.3,149.0 Z M 71.2,188.9 L 100.2,161.9 L 90.3,149.0 Z M 26.4,195.3 L 41.8,195.3 L 35.7,167.5 Z M 26.4,195.3 L 35.7,167.5 L 20.0,161.7 Z M 35.7,167.5 L 52.1,148.9 L 45.8,134.1 Z M 35.7,167.5 L 45.8,134.1 L 20.0,161.7 Z M 97.0,134.1 L 45.8,134.1 L 52.1,148.9 Z M 97.0,134.1 L 52.1,148.9 L 90.3,149.0 Z M 115.0,154.9 L 97.0,134.1 L 90.3,149.0 Z M 115.0,154.9 L 90.3,149.0 L 100.2,161.9 Z M 26.4,195.3 L 23.2,219.4 L 38.7,212.7 Z M 26.4,195.3 L 38.7,212.7 L 41.8,195.3 Z M 45.7,242.4 L 52.6,227.4 L 38.7,212.7 Z M 45.7,242.4 L 38.7,212.7 L 23.2,219.4 Z M 95.5,242.4 L 89.7,227.4 L 52.6,227.4 Z M 95.5,242.4 L 52.6,227.4 L 45.7,242.4 Z M 106.1,203.7 L 121.5,207.8 L 115.0,154.9 Z M 106.1,203.7 L 115.0,154.9 L 100.2,161.9 Z M 106.1,203.7 L 89.7,227.4 L 95.5,242.4 Z M 106.1,203.7 L 95.5,242.4 L 121.5,207.8 Z" fill="#2a2a4e" stroke="none"/>
  <path d="M 60.4,140.0 L 95.5,140.0 M 95.5,140.0 L 95.5,87.3 M 60.4,87.3 L 60.4,140.0 M 95.5,87.3 L 95.5,20.0 M 95.5,20.0 L 60.4,20.0 M 60.4,20.0 L 60.4,87.3 M 86.7,236.6 L 51.6,236.6 M 51.6,236.6 L 51.6,292.2 M 86.7,292.2 L 86.7,236.6 M 51.6,292.2 L 51.6,380.0 M 51.6,380.0 L 86.7,380.0 M 86.7,380.0 L 86.7,292.2 M 20.0,161.7 L 26.4,195.3 M 45.8,134.1 L 20.0,161.7 M 97.0,134.1 L 45.8,134.1 M 115.0,154.9 L 97.0,134.1 M 26.4,195.3 L 23.2,219.4 M 23.2,219.4 L 45.7,242.4 M 45.7,242.4 L 95.5,242.4 M 121.5,207.8 L 115.0,154.9 M 95.5,242.4 L 121.5,207.8" fill="none" stroke="white" stroke-width="2" stroke-linecap="round"/>
  <polygon points="78.09630795608004,101.0362772472644 86.09630795608004,109.0362772472644 78.09630795608004,117.0362772472644 70.09630795608004,109.0362772472644" fill="#4a9eff" stroke="white" stroke-width="1"/>
<polygon points="67.88538020043937,268.31290253166173 75.88538020043937,276.31290253166173 67.88538020043937,284.31290253166173 59.88538020043937,276.31290253166173" fill="#4a9eff" stroke="white" stroke-width="1"/>
</svg>