<svg xmlns="http://www.w3.org/2000/svg" viewBox="0 0 400 400">
  <rect width="400" height="400" fill="#1a1a2e"/>
  <path d="M 100.9,106.3 L 85.8,127.8 L 129.0,158.0 Z M 100.9,106.3 L 129.0,158.0 L 144.1,136.5 Z M 100.9,106.3 L 85.8,127.8 L 129.0,158.0 Z M 100.9,106.3 L 129.0,158.0 L 144.1,136.5 Z M 167.3,112.3 L 173.4,146.9 L 225.3,137.7 Z M 167.3,112.3 L 225.3,137.7 L 219.2,103.2 Z M 167.3,112.3 L 173.4,146.9 L 225.3,137.7 Z M 167.3,112.3 L 225.3,137.7 L 219.2,103.2 Z M 78.5,122.1 L 78.5,87.0 L 49.3,87.0 Z M 78.5,122.1 L 49.3,87.0 L 49.3,122.1 Z M 49.3,122.1 L 49.3,87.0 L 20.0,87.0 Z M 49.3,122.1 L 20.0,87.0 L 20.0,122.1 Z M 172.2,259.7 L 137.1,259.7 L 137.1,299.2 Z M 172.2,259.7 L 137.1,299.2 L 172.2,299.2 Z M 172.2,299.2 L 137.1,299.2 L 137.1,338.7 Z M 172.2,299.2 L 137.1,338.7 L 172.2,338.7 Z M 301.0,57.7 L 301.0,92.8 L 340.5,92.8 Z M 301.0,57.7 L 340.5,92.8 L 340.5,57.7 Z M 340.5,57.7 L 340.5,92.8 L 380.0,92.8 Z M 340.5,57.7 L 380.0,92.8 L 380.0,57.7 Z M 132.1,138.2 L 115.7,152.0 L 129.4,168.4 Z M 132.1,138.2 L 129.4,168.4 L 145.9,154.6 Z M 102.3,97.1 L 87.8,109.3 L 100.0,123.9 Z M 102.3,97.1 L 100.0,123.9 L 114.5,111.7 Z M 228.3,112.5 L 208.4,129.1 L 225.1,149.0 Z M 228.3,112.5 L 225.1,149.0 L 244.9,132.3 Z M 165.2,104.7 L 152.9,122.3 L 170.5,134.5 Z M 165.2,104.7 L 170.5,134.5 L 182.8,117.0 Z M 172.0,183.4 L 148.8,161.2 L 126.7,184.4 Z M 172.0,183.4 L 126.7,184.4 L 149.8,206.5 Z M 217.9,75.1 L 247.1,88.3 L 260.4,59.1 Z M 217.9,75.1 L 260.4,59.1 L 231.2,45.9 Z M 128.1,94.9 L 113.6,94.6 L 112.9,126.6 Z M 128.1,94.9 L 112.9,126.6 L 127.5,126.9 Z M 107.3,225.0 L 149.8,206.5 L 126.7,184.4 Z M 107.3,225.0 L 126.7,184.4 L 110.7,182.9 Z M 110.7,182.9 L 126.7,184.4 L 112.9,126.6 Z M 110.7,182.9 L 112.9,126.6 L 93.4,126.7 Z M 93.4,126.7 L 112.9,126.6 L 113.6,94.6 Z M 93.4,126.7 L 113.6,94.6 L 93.2,78.1 Z M 150.7,82.2 L 128.1,94.9 L 127.5,126.9 Z M 150.7,82.2 L 127.5,126.9 L 148.8,161.2 Z M 148.8,161.2 L 127.5,126.9 L 112.9,126.6 Z M 148.8,161.2 L 112.9,126.6 L 126.7,184.4 Z M 287.7,100.4 L 247.1,88.3 L 258.0,147.1 Z M 247.1,88.3 L 235.0,143.5 L 258.0,147.1 Z M 172.0,183.4 L 149.8,206.5 L 218.9,218.1 Z M 149.8,206.5 L 209.6,245.2 L 218.9,218.1 Z M 209.6,245.2 L 149.8,206.5 L 133.2,245.2 Z M 149.8,206.5 L 107.3,225.0 L 133.2,245.2 Z M 260.4,59.1 L 247.1,88.3 L 287.7,100.4 Z M 260.4,59.1 L 287.7,100.4 L 287.7,63.2 Z M 126.7,49.7 L 107.7,52.2 L 113.6,94.6 Z M 126.7,49.7 L 113.6,94.6 L 128.1,94.9 Z M 264.8,38.4 L 233.1,41.2 L 231.2,45.9 Z M 264.8,38.4 L 231.2,45.9 L 260.4,59.1 Z M 235.0,143.5 L 247.1,88.3 L 217.9,75.1 Z M 93.2,78.1 L 113.6,94.6 L 107.7,52.2 Z M 128.1,94.9 L 150.7,82.2 L 126.7,49.7 Z M 148.8,161.2 L 172.0,183.4 L 150.7,82.2 Z M 287.7,63.2 L 264.8,38.4 L 260.4,59.1 Z M 144.1,136.5 L 129.0,158.0 L 135.0,162.2 Z M 144.1,136.5 L 135.0,162.2 L 150.1,140.7 Z M 144.1,136.5 L 129.0,158.0 L 135.0,162.2 Z M 144.1,136.5 L 135.0,162.2 L 150.1,140.7 Z M 85.8,127.8 L 100.9,106.3 L 94.9,102.0 Z M 85.8,127.8 L 94.9,102.0 L 79.8,123.6 Z M 85.8,127.8 L 100.9,106.3 L 94.9,102.0 Z M 85.8,127.8 L 94.9,102.0 L 79.8,123.6 Z M 219.2,103.2 L 225.3,137.7 L 232.5,136.5 Z M 219.2,103.2 L 232.5,136.5 L 226.4,101.9 Z M 219.2,103.2 L 225.3,137.7 L 232.5,136.5 Z M 219.2,103.2 L 232.5,136.5 L 226.4,101.9 Z M 173.4,146.9 L 167.3,112.3 L 160.1,113.6 Z M 173.4,146.9 L 160.1,113.6 L 166.2,148.2 Z M 173.4,146.9 L 167.3,112.3 L 160.1,113.6 Z M 173.4,146.9 L 160.1,113.6 L 166.2,148.2 Z M 217.9,75.1 L 231.2,45.9 L 222.8,23.1 Z M 217.9,75.1 L 222.8,23.1 L 200.7,68.8 Z M 217.9,75.1 L 200.7,68.8 L 221.8,161.1 Z M 217.9,75.1 L 221.8,161.1 L 235.0,143.5 Z M 305.1,104.5 L 287.7,100.4 L 258.0,147.1 Z M 305.1,104.5 L 258.0,147.1 L 268.0,168.7 Z M 305.1,55.7 L 287.7,63.2 L 287.7,100.4 Z M 305.1,55.7 L 287.7,100.4 L 305.1,104.5 Z M 222.8,23.1 L 233.1,41.2 L 264.8,38.4 Z M 222.8,23.1 L 264.8,38.4 L 273.1,20.0 Z M 264.8,38.4 L 287.7,63.2 L 305.1,55.7 Z M 264.8,38.4 L 305.1,55.7 L 273.1,20.0 Z M 268.0,168.7 L 258.0,147.1 L 235.0,143.5 Z M 268.0,168.7 L 235.0,143.5 L 221.8,161.1 Z M 241.5,211.3 L 218.9,218.1 L 209.6,245.2 Z M 241.5,211.3 L 209.6,245.2 L 225.2,263.6 Z M 209.6,245.2 L 133.2,245.2 L 126.0,263.6 Z M 209.6,245.2 L 126.0,263.6 L 225.2,263.6 Z M 107.3,225.0 L 110.7,182.9 L 93.7,188.7 Z M 107.3,225.0 L 93.7,188.7 L 89.8,235.3 Z M 75.6,128.2 L 93.7,188.7 L 110.7,182.9 Z M 75.6,128.2 L 110.7,182.9 L 93.4,126.7 Z M 93.4,126.7 L 93.2,78.1 L 75.6,73.5 Z M 93.4,126.7 L 75.6,73.5 L 75.6,128.2 Z M 95.4,33.6 L 75.6,73.5 L 93.2,78.1 Z M 95.4,33.6 L 93.2,78.1 L 107.7,52.2 Z M 89.8,235.3 L 126.0,263.6 L 133.2,245.2 Z M 89.8,235.3 L 133.2,245.2 L 107.3,225.0 Z M 189.7,175.2 L 172.0,183.4 L 218.9,218.1 Z M 189.7,175.2 L 218.9,218.1 L 241.5,211.3 Z M 137.1,27.3 L 126.7,49.7 L 150.7,82.2 Z M 137.1,27.3 L 150.7,82.2 L 168.6,71.6 Z M 168.6,71.6 L 150.7,82.2 L 172.0,183.4 Z M 168.6,71.6 L 172.0,183.4 L 189.7,175.2 Z M 95.4,33.6 L 107.7,52.2 L 126.7,49.7 Z M 95.4,33.6 L 126.7,49.7 L 137.1,27.3 Z M 231.2,45.9 L 233.1,41.2 L 222.8,23.1 Z" fill="#2a2a4e" stroke="none"/>
  <path d="M 78.5,122.1 L 78.5,87.0 M 78.5,87.0 L 49.3,87.0 M 49.3,122.1 L 78.5,122.1 M 49.3,87.0 L 20.0,87.0 M 20.0,87.0 L 20.0,122.1 M 20.0,122.1 L 49.3,122.1 M 172.2,259.7 L 137.1,259.7 M 137.1,259.7 L 137.1,299.2 M 172.2,299.2 L 172.2,259.7 M 137.1,299.2 L 137.1,338.7 M 137.1,338.7 L 172.2,338.7 M 172.2,338.7 L 172.2,299.2 M 301.0,57.7 L 301.0,92.8 M 301.0,92.8 L 340.5,92.8 M 340.5,57.7 L 301.0,57.7 M 340.5,92.8 L 380.0,92.8 M 380.0,92.8 L 380.0,57.7 M 380.0,57.7 L 340.5,57.7 M 132.1,138.2 L 115.7,152.0 M 115.7,152.0 L 129.4,168.4 M 129.4,168.4 L 145.9,154.6 M 145.9,154.6 L 132.1,138.2 M 102.3,97.1 L 87.8,109.3 M 87.8,109.3 L 100.0,123.9 M 100.0,123.9 L 114.5,111.7 M 114.5,111.7 L 102.3,97.1 M 228.3,112.5 L 208.4,129.1 M 208.4,129.1 L 225.1,149.0 M 225.1,149.0 L 244.9,132.3 M 244.9,132.3 L 228.3,112.5 M 165.2,104.7 L 152.9,122.3 M 152.9,122.3 L 170.5,134.5 M 170.5,134.5 L 182.8,117.0 M 182.8,117.0 L 165.2,104.7 M 222.8,23.1 L 200.7,68.8 M 200.7,68.8 L 221.8,161.1 M 268.0,168.7 L 305.1,104.5 M 305.1,104.5 L 305.1,55.7 M 273.1,20.0 L 222.8,23.1 M 305.1,55.7 L 273.1,20.0 M 221.8,161.1 L 268.0,168.7 M 225.2,263.6 L 241.5,211.3 M 126.0,263.6 L 225.2,263.6 M 93.7,188.7 L 89.8,235.3 M 75.6,128.2 L 93.7,188.7 M 75.6,73.5 L 75.6,128.2 M 95.4,33.6 L 75.6,73.5 M 89.8,235.3 L 126.0,263.6 M 241.5,211.3 L 189.7,175.2 M 168.6,71.6 L 137.1,27.3 M 189.7,175.2 L 168.6,71.6 M 137.1,27.3 L 95.4,33.6" fill="none" stroke="white" stroke-width="2" stroke-linecap="round"/>
  <polygon points="310.60508287941497,66.1981517001716 318.60508287941497,74.1981517001716 310.60508287941497,82.1981517001716 302.60508287941497,74.1981517001716" fill="#4a9eff" stroke="white" stroke-width="1"/>
<polygon points="155.12625215403898,260.9925761632877 163.12625215403898,268.9925761632877 155.12625215403898,276.9925761632877 147.12625215403898,268.9925761632877" fill="#4a9eff" stroke="white" stroke-width="1"/>
<polygon points="67.8214624651844,97.5702325297047 75.8214624651844,105.5702325297047 67.8214624651844,113.5702325297047 59.821462465184396,105.5702325297047" fill="#4a9eff" stroke="white" stroke-width="1"/>
</svg>