<svg xmlns="http://www.w3.org/2000/svg" viewBox="0 0 400 400">
  <rect width="400" height="400" fill="#1a1a2e"/>
  <path d="M 180.7,170.8 L 132.8,144.0 L 160.1,181.3 Z M 132.8,144.0 L 140.8,172.1 L 160.1,181.3 Z M 180.7,170.8 L 223.9,187.3 L 253.6,142.8 Z M 223.9,187.3 L 256.2,176.8 L 253.6,142.8 Z M 245.1,34.8 L 219.6,35.5 L 210.4,67.7 Z M 245.1,34.8 L 210.4,67.7 L 231.5,69.4 Z M 112.9,131.5 L 132.8,144.0 L 129.3,108.4 Z M 219.4,63.1 L 229.7,80.9 L 247.5,70.6 Z M 219.4,63.1 L 247.5,70.6 L 237.2,52.8 Z M 196.6,176.2 L 187.4,157.9 L 169.0,167.1 Z M 196.6,176.2 L 169.0,167.1 L 178.2,185.5 Z M 260.7,179.6 L 251.5,161.2 L 233.1,170.4 Z M 260.7,179.6 L 233.1,170.4 L 242.4,188.8 Z M 119.0,125.1 L 115.6,145.4 L 135.9,148.8 Z M 119.0,125.1 L 135.9,148.8 L 139.3,128.5 Z M 208.3,45.4 L 228.3,49.9 L 232.8,29.8 Z M 208.3,45.4 L 232.8,29.8 L 212.8,25.3 Z M 162.2,95.9 L 172.6,113.6 L 190.3,103.2 Z M 162.2,95.9 L 190.3,103.2 L 179.9,85.5 Z M 247.7,78.0 L 244.2,98.3 L 264.5,101.7 Z M 247.7,78.0 L 264.5,101.7 L 267.9,81.5 Z M 255.2,132.0 L 237.3,142.1 L 247.4,160.0 Z M 255.2,132.0 L 247.4,160.0 L 265.3,149.8 Z M 163.0,187.3 L 160.8,166.9 L 140.4,169.1 Z M 163.0,187.3 L 140.4,169.1 L 142.6,189.5 Z M 132.8,144.0 L 180.7,170.8 L 182.5,157.7 Z M 132.8,144.0 L 182.5,157.7 L 143.3,134.2 Z M 180.7,170.8 L 253.6,142.8 L 242.7,133.9 Z M 180.7,170.8 L 242.7,133.9 L 182.5,157.7 Z M 191.9,110.0 L 215.0,84.0 L 210.4,67.7 Z M 191.9,110.0 L 210.4,67.7 L 179.9,100.9 Z M 262.7,98.2 L 253.6,142.8 L 267.8,143.1 Z M 262.7,98.2 L 267.8,143.1 L 278.4,96.0 Z M 129.3,108.4 L 122.1,95.8 L 96.3,135.2 Z M 129.3,108.4 L 96.3,135.2 L 112.9,131.5 Z M 142.1,118.4 L 129.3,108.4 L 132.8,144.0 Z M 142.1,118.4 L 132.8,144.0 L 143.3,134.2 Z M 270.2,185.8 L 267.8,143.1 L 253.6,142.8 Z M 270.2,185.8 L 253.6,142.8 L 256.2,176.8 Z M 248.6,102.1 L 262.7,98.2 L 231.5,69.4 Z M 248.6,102.1 L 231.5,69.4 L 225.6,84.8 Z M 256.2,176.8 L 223.9,187.3 L 224.6,202.0 Z M 256.2,176.8 L 224.6,202.0 L 270.2,185.8 Z M 129.3,108.4 L 179.9,100.9 L 169.6,90.3 Z M 129.3,108.4 L 169.6,90.3 L 122.1,95.8 Z M 132.8,144.0 L 112.9,131.5 L 96.3,135.2 Z M 132.8,144.0 L 96.3,135.2 L 121.7,151.3 Z M 267.0,20.0 L 208.5,22.1 L 219.6,35.5 Z M 267.0,20.0 L 219.6,35.5 L 245.1,34.8 Z M 245.1,34.8 L 231.5,69.4 L 247.6,68.8 Z M 245.1,34.8 L 247.6,68.8 L 267.0,20.0 Z M 160.1,181.3 L 140.8,172.1 L 128.9,181.2 Z M 160.1,181.3 L 128.9,181.2 L 159.2,196.2 Z M 160.1,181.3 L 159.2,196.2 L 179.9,185.6 Z M 160.1,181.3 L 179.9,185.6 L 180.7,170.8 Z M 223.9,187.3 L 180.7,170.8 L 179.9,185.6 Z M 223.9,187.3 L 179.9,185.6 L 224.6,202.0 Z M 132.8,144.0 L 121.7,151.3 L 128.9,181.2 Z M 132.8,144.0 L 128.9,181.2 L 140.8,172.1 Z M 129.3,108.4 L 142.1,118.4 L 191.9,110.0 Z M 129.3,108.4 L 191.9,110.0 L 179.9,100.9 Z M 208.5,22.1 L 197.6,60.3 L 210.4,67.7 Z M 208.5,22.1 L 210.4,67.7 L 219.6,35.5 Z M 231.5,69.4 L 262.7,98.2 L 278.4,96.0 Z M 231.5,69.4 L 278.4,96.0 L 247.6,68.8 Z M 253.6,142.8 L 262.7,98.2 L 248.6,102.1 Z M 253.6,142.8 L 248.6,102.1 L 242.7,133.9 Z M 179.9,100.9 L 210.4,67.7 L 197.6,60.3 Z M 179.9,100.9 L 197.6,60.3 L 169.6,90.3 Z M 231.5,69.4 L 210.4,67.7 L 215.0,84.0 Z M 231.5,69.4 L 215.0,84.0 L 225.6,84.8 Z M 244.0,123.8 L 268.8,138.1 L 274.0,129.1 Z M 244.0,123.8 L 274.0,129.1 L 249.2,114.8 Z M 244.0,123.8 L 268.8,138.1 L 274.0,129.1 Z M 244.0,123.8 L 274.0,129.1 L 249.2,114.8 Z M 207.4,129.8 L 235.6,124.9 L 233.8,114.6 Z M 207.4,129.8 L 233.8,114.6 L 205.6,119.6 Z M 207.4,129.8 L 235.6,124.9 L 233.8,114.6 Z M 207.4,129.8 L 233.8,114.6 L 205.6,119.6 Z M 137.7,190.1 L 127.9,217.0 L 137.7,220.6 Z M 137.7,190.1 L 137.7,220.6 L 147.5,193.7 Z M 137.7,190.1 L 127.9,217.0 L 137.7,220.6 Z M 137.7,190.1 L 137.7,220.6 L 147.5,193.7 Z M 196.0,303.2 L 196.0,229.6 L 180.0,229.6 Z M 196.0,303.2 L 180.0,229.6 L 180.0,303.2 Z M 180.0,303.2 L 180.0,229.6 L 164.0,229.6 Z M 180.0,303.2 L 164.0,229.6 L 164.0,303.2 Z M 293.1,108.5 L 380.0,108.5 L 380.0,92.5 Z M 293.1,108.5 L 380.0,92.5 L 293.1,92.5 Z M 293.1,92.5 L 380.0,92.5 L 380.0,76.5 Z M 293.1,92.5 L 380.0,76.5 L 293.1,76.5 Z M 96.3,135.2 L 20.0,135.2 L 20.0,151.2 Z M 96.3,135.2 L 20.0,151.2 L 96.3,151.2 Z M 96.3,151.2 L 20.0,151.2 L 20.0,167.2 Z M 96.3,151.2 L 20.0,167.2 L 96.3,167.2 Z M 182.5,157.7 L 242.7,133.9 L 248.6,102.1 Z M 182.5,157.7 L 248.6,102.1 L 191.9,110.0 Z M 191.9,110.0 L 248.6,102.1 L 225.6,84.8 Z M 191.9,110.0 L 225.6,84.8 L 215.0,84.0 Z M 164.0,229.6 L 180.0,229.6 L 159.2,196.2 Z M 180.0,229.6 L 179.9,185.6 L 159.2,196.2 Z M 224.6,202.0 L 179.9,185.6 L 196.0,229.6 Z M 179.9,185.6 L 180.0,229.6 L 196.0,229.6 Z M 267.0,20.0 L 247.6,68.8 L 293.1,76.5 Z M 247.6,68.8 L 278.4,96.0 L 293.1,76.5 Z M 293.1,76.5 L 278.4,96.0 L 293.1,92.5 Z M 278.4,96.0 L 293.1,108.5 L 293.1,92.5 Z M 128.4,221.0 L 128.9,181.2 L 96.3,167.2 Z M 128.9,181.2 L 121.7,151.3 L 96.3,167.2 Z M 96.3,167.2 L 121.7,151.3 L 96.3,151.2 Z M 121.7,151.3 L 96.3,135.2 L 96.3,151.2 Z M 142.1,118.4 L 143.3,134.2 L 191.9,110.0 Z M 143.3,134.2 L 182.5,157.7 L 191.9,110.0 Z M 159.2,196.2 L 128.9,181.2 L 128.4,221.0 Z M 159.2,196.2 L 128.4,221.0 L 164.0,229.6 Z M 267.8,143.1 L 293.1,108.5 L 278.4,96.0 Z" fill="#2a2a4e" stroke="none"/>
  <path d="M 219.4,63.1 L 229.7,80.9 M 229.7,80.9 L 247.5,70.6 M 247.5,70.6 L 237.2,52.8 M 237.2,52.8 L 219.4,63.1 M 196.6,176.2 L 187.4,157.9 M 187.4,157.9 L 169.0,167.1 M 169.0,167.1 L 178.2,185.5 M 178.2,185.5 L 196.6,176.2 M 260.7,179.6 L 251.5,161.2 M 251.5,161.2 L 233.1,170.4 M 233.1,170.4 L 242.4,188.8 M 242.4,188.8 L 260.7,179.6 M 119.0,125.1 L 115.6,145.4 M 115.6,145.4 L 135.9,148.8 M 135.9,148.8 L 139.3,128.5 M 139.3,128.5 L 119.0,125.1 M 208.3,45.4 L 228.3,49.9 M 228.3,49.9 L 232.8,29.8 M 232.8,29.8 L 212.8,25.3 M 212.8,25.3 L 208.3,45.4 M 162.2,95.9 L 172.6,113.6 M 172.6,113.6 L 190.3,103.2 M 190.3,103.2 L 179.9,85.5 M 179.9,85.5 L 162.2,95.9 M 247.7,78.0 L 244.2,98.3 M 244.2,98.3 L 264.5,101.7 M 264.5,101.7 L 267.9,81.5 M 267.9,81.5 L 247.7,78.0 M 255.2,132.0 L 237.3,142.1 M 237.3,142.1 L 247.4,160.0 M 247.4,160.0 L 265.3,149.8 M 265.3,149.8 L 255.2,132.0 M 163.0,187.3 L 160.8,166.9 M 160.8,166.9 L 140.4,169.1 M 140.4,169.1 L 142.6,189.5 M 142.6,189.5 L 163.0,187.3 M 122.1,95.8 L 96.3,135.2 M 270.2,185.8 L 267.8,143.1 M 224.6,202.0 L 270.2,185.8 M 169.6,90.3 L 122.1,95.8 M 267.0,20.0 L 208.5,22.1 M 208.5,22.1 L 197.6,60.3 M 197.6,60.3 L 169.6,90.3 M 196.0,303.2 L 196.0,229.6 M 180.0,303.2 L 196.0,303.2 M 164.0,229.6 L 164.0,303.2 M 164.0,303.2 L 180.0,303.2 M 293.1,108.5 L 380.0,108.5 M 380.0,108.5 L 380.0,92.5 M 380.0,92.5 L 380.0,76.5 M 380.0,76.5 L 293.1,76.5 M 96.3,135.2 L 20.0,135.2 M 20.0,135.2 L 20.0,151.2 M 20.0,151.2 L 20.0,167.2 M 20.0,167.2 L 96.3,167.2 M 196.0,229.6 L 224.6,202.0 M 293.1,76.5 L 267.0,20.0 M 96.3,167.2 L 128.4,221.0 M 128.4,221.0 L 164.0,229.6 M 267.8,143.1 L 293.1,108.5" fill="none" stroke="white" stroke-width="2" stroke-linecap="round"/>
  
</svg>