<svg xmlns="http://www.w3.org/2000/svg" viewBox="0 0 400 400">
  <rect width="400" height="400" fill="#1a1a2e"/>
  <path d="M 125.9,214.1 L 89.8,214.1 L 89.8,268.2 Z M 125.9,214.1 L 89.8,268.2 L 125.9,268.2 Z M 125.9,214.1 L 89.8,214.1 L 89.8,268.2 Z M 125.9,214.1 L 89.8,268.2 L 125.9,268.2 Z M 132.4,302.5 L 132.4,338.6 L 186.5,338.6 Z M 132.4,302.5 L 186.5,338.6 L 186.5,302.5 Z M 132.4,302.5 L 132.4,338.6 L 186.5,338.6 Z M 132.4,302.5 L 186.5,338.6 L 186.5,302.5 Z M 92.2,119.3 L 128.3,119.3 L 128.3,72.7 Z M 92.2,119.3 L 128.3,72.7 L 92.2,72.7 Z M 92.2,72.7 L 128.3,72.7 L 128.3,20.0 Z M 92.2,72.7 L 128.3,20.0 L 92.2,20.0 Z M 203.5,161.4 L 203.5,197.5 L 239.6,197.5 Z M 203.5,161.4 L 239.6,197.5 L 239.6,161.4 Z M 239.6,161.4 L 239.6,197.5 L 323.9,197.5 Z M 239.6,161.4 L 323.9,197.5 L 323.9,161.4 Z M 176.6,342.2 L 196.6,330.7 L 164.9,322.2 Z M 196.6,330.7 L 185.0,310.6 L 164.9,322.2 Z M 88.4,258.9 L 100.0,279.0 L 108.5,247.3 Z M 100.0,279.0 L 120.1,267.4 L 108.5,247.3 Z M 205.0,297.8 L 239.2,297.8 L 239.2,282.3 Z M 205.0,297.8 L 239.2,282.3 L 205.0,282.3 Z M 125.3,163.8 L 90.2,163.8 L 90.2,198.8 Z M 125.3,163.8 L 90.2,198.8 L 125.3,172.5 Z M 239.4,305.3 L 223.4,316.5 L 258.5,340.4 Z M 239.4,305.3 L 258.5,340.4 L 258.5,305.3 Z M 82.6,312.8 L 82.6,316.8 L 117.6,347.9 Z M 82.6,312.8 L 117.6,347.9 L 117.6,312.8 Z M 125.3,198.8 L 125.3,172.5 L 90.2,198.8 Z M 117.6,347.9 L 82.6,316.8 L 82.6,347.9 Z M 258.5,340.4 L 223.4,316.5 L 223.4,340.4 Z M 239.4,305.3 L 223.4,305.3 L 223.4,316.5 Z M 125.9,268.2 L 89.8,268.2 L 89.8,275.7 Z M 125.9,268.2 L 89.8,275.7 L 125.9,275.7 Z M 125.9,268.2 L 89.8,268.2 L 89.8,275.7 Z M 125.9,268.2 L 89.8,275.7 L 125.9,275.7 Z M 89.8,214.1 L 125.9,214.1 L 125.9,206.5 Z M 89.8,214.1 L 125.9,206.5 L 89.8,206.5 Z M 89.8,214.1 L 125.9,214.1 L 125.9,206.5 Z M 89.8,214.1 L 125.9,206.5 L 89.8,206.5 Z M 186.5,302.5 L 186.5,338.6 L 194.1,338.6 Z M 186.5,302.5 L 194.1,338.6 L 194.1,302.5 Z M 186.5,302.5 L 186.5,338.6 L 194.1,338.6 Z M 186.5,302.5 L 194.1,338.6 L 194.1,302.5 Z M 132.4,338.6 L 132.4,302.5 L 124.9,302.5 Z M 132.4,338.6 L 124.9,302.5 L 124.9,338.6 Z M 132.4,338.6 L 132.4,302.5 L 124.9,302.5 Z M 132.4,338.6 L 124.9,302.5 L 124.9,338.6 Z M 77.2,113.3 L 87.3,130.9 L 128.4,130.8 Z M 77.2,113.3 L 128.4,130.8 L 126.9,113.3 Z M 126.9,113.3 L 128.4,130.8 L 169.6,130.8 Z M 126.9,113.3 L 169.6,130.8 L 176.5,113.3 Z M 135.8,199.5 L 135.8,217.1 L 209.6,199.0 Z M 135.8,199.5 L 209.6,199.0 L 192.4,184.5 Z M 209.6,199.0 L 209.6,146.4 L 192.0,151.7 Z M 209.6,199.0 L 192.0,151.7 L 192.4,184.5 Z M 77.2,113.3 L 49.4,158.4 L 69.0,158.4 Z M 77.2,113.3 L 69.0,158.4 L 87.3,130.9 Z M 278.8,357.0 L 261.2,342.4 L 203.2,355.1 Z M 278.8,357.0 L 203.2,355.1 L 194.5,375.0 Z M 278.8,279.2 L 222.9,251.8 L 223.1,271.4 Z M 278.8,279.2 L 223.1,271.4 L 261.2,290.3 Z M 278.8,279.2 L 261.2,290.3 L 261.2,342.4 Z M 278.8,279.2 L 261.2,342.4 L 278.8,357.0 Z M 188.0,334.2 L 170.4,341.9 L 194.5,375.0 Z M 188.0,334.2 L 194.5,375.0 L 203.2,355.1 Z M 20.0,329.7 L 61.0,380.0 L 66.9,361.8 Z M 20.0,329.7 L 66.9,361.8 L 37.6,326.3 Z M 81.7,279.8 L 81.7,262.2 L 20.0,283.3 Z M 81.7,279.8 L 20.0,283.3 L 37.6,295.8 Z M 137.3,268.2 L 119.8,283.2 L 119.7,350.0 Z M 137.3,268.2 L 119.7,350.0 L 137.3,364.7 Z M 20.0,329.7 L 37.6,326.3 L 37.6,295.8 Z M 20.0,329.7 L 37.6,295.8 L 20.0,283.3 Z M 170.4,279.2 L 188.0,290.3 L 223.1,271.4 Z M 170.4,279.2 L 223.1,271.4 L 222.9,251.8 Z M 77.2,217.1 L 88.7,199.5 L 69.0,158.4 Z M 77.2,217.1 L 69.0,158.4 L 49.4,158.4 Z M 61.0,380.0 L 137.3,364.7 L 119.7,350.0 Z M 61.0,380.0 L 119.7,350.0 L 66.9,361.8 Z M 176.5,113.3 L 169.6,130.8 L 192.0,151.7 Z M 176.5,113.3 L 192.0,151.7 L 209.6,146.4 Z M 170.4,279.2 L 170.4,341.9 L 188.0,334.2 Z M 170.4,279.2 L 188.0,334.2 L 188.0,290.3 Z M 137.3,268.2 L 81.7,262.2 L 81.7,279.8 Z M 137.3,268.2 L 81.7,279.8 L 119.8,283.2 Z M 77.2,217.1 L 135.8,217.1 L 135.8,199.5 Z M 77.2,217.1 L 135.8,199.5 L 88.7,199.5 Z M 135.8,199.5 L 192.4,184.5 L 136.0,164.4 Z M 192.4,184.5 L 192.0,151.7 L 136.0,164.4 Z M 136.0,164.4 L 192.0,151.7 L 169.6,130.8 Z M 261.2,290.3 L 223.1,316.4 L 261.2,342.4 Z M 223.1,316.4 L 203.2,355.1 L 261.2,342.4 Z M 203.2,355.1 L 223.1,316.4 L 188.0,334.2 Z M 223.1,316.4 L 188.0,290.3 L 188.0,334.2 Z M 66.9,361.8 L 119.7,350.0 L 79.7,313.9 Z M 119.7,350.0 L 119.8,283.2 L 79.7,313.9 Z M 79.7,313.9 L 119.8,283.2 L 81.7,279.8 Z M 81.7,279.8 L 37.6,295.8 L 79.7,313.9 Z M 37.6,295.8 L 37.6,326.3 L 79.7,313.9 Z M 79.7,313.9 L 37.6,326.3 L 66.9,361.8 Z M 69.0,158.4 L 136.0,164.4 L 87.3,130.9 Z M 136.0,164.4 L 128.4,130.8 L 87.3,130.9 Z M 135.8,199.5 L 136.0,164.4 L 88.7,199.5 Z M 136.0,164.4 L 69.0,158.4 L 88.7,199.5 Z M 261.2,290.3 L 223.1,271.4 L 188.0,290.3 Z M 261.2,290.3 L 188.0,290.3 L 223.1,316.4 Z M 136.0,164.4 L 169.6,130.8 L 128.4,130.8 Z" fill="#2a2a4e" stroke="none"/>
  <path d="M 92.2,119.3 L 128.3,119.3 M 128.3,119.3 L 128.3,72.7 M 92.2,72.7 L 92.2,119.3 M 128.3,72.7 L 128.3,20.0 M 128.3,20.0 L 92.2,20.0 M 92.2,20.0 L 92.2,72.7 M 203.5,161.4 L 203.5,197.5 M 203.5,197.5 L 239.6,197.5 M 239.6,161.4 L 203.5,161.4 M 239.6,197.5 L 323.9,197.5 M 323.9,197.5 L 323.9,161.4 M 323.9,161.4 L 239.6,161.4 M 176.6,342.2 L 196.6,330.7 M 164.9,322.2 L 176.6,342.2 M 196.6,330.7 L 185.0,310.6 M 185.0,310.6 L 164.9,322.2 M 88.4,258.9 L 100.0,279.0 M 108.5,247.3 L 88.4,258.9 M 100.0,279.0 L 120.1,267.4 M 120.1,267.4 L 108.5,247.3 M 205.0,297.8 L 239.2,297.8 M 239.2,297.8 L 239.2,282.3 M 239.2,282.3 L 205.0,282.3 M 205.0,282.3 L 205.0,297.8 M 125.3,163.8 L 90.2,163.8 M 90.2,163.8 L 90.2,198.8 M 125.3,172.5 L 125.3,163.8 M 258.5,340.4 L 258.5,305.3 M 258.5,305.3 L 239.4,305.3 M 82.6,312.8 L 82.6,316.8 M 117.6,347.9 L 117.6,312.8 M 117.6,312.8 L 82.6,312.8 M 125.3,198.8 L 125.3,172.5 M 90.2,198.8 L 125.3,198.8 M 82.6,316.8 L 82.6,347.9 M 82.6,347.9 L 117.6,347.9 M 223.4,316.5 L 223.4,340.4 M 223.4,340.4 L 258.5,340.4 M 239.4,305.3 L 223.4,305.3 M 223.4,305.3 L 223.4,316.5 M 126.9,113.3 L 77.2,113.3 M 176.5,113.3 L 126.9,113.3 M 135.8,217.1 L 209.6,199.0 M 209.6,199.0 L 209.6,146.4 M 77.2,113.3 L 49.4,158.4 M 194.5,375.0 L 278.8,357.0 M 278.8,279.2 L 222.9,251.8 M 278.8,357.0 L 278.8,279.2 M 170.4,341.9 L 194.5,375.0 M 20.0,329.7 L 61.0,380.0 M 81.7,262.2 L 20.0,283.3 M 137.3,364.7 L 137.3,268.2 M 20.0,283.3 L 20.0,329.7 M 222.9,251.8 L 170.4,279.2 M 49.4,158.4 L 77.2,217.1 M 61.0,380.0 L 137.3,364.7 M 209.6,146.4 L 176.5,113.3 M 170.4,279.2 L 170.4,341.9 M 137.3,268.2 L 81.7,262.2 M 77.2,217.1 L 135.8,217.1" fill="none" stroke="white" stroke-width="2" stroke-linecap="round"/>
  <polygon points="214.19085490045467,171.5165190494806 222.19085490045467,179.5165190494806 214.19085490045467,187.5165190494806 206.19085490045467,179.5165190494806" fill="#4a9eff" stroke="white" stroke-width="1"/>
<polygon points="108.716182365924,90.64374017694011 116.716182365924,98.64374017694011 108.716182365924,106.64374017694011 100.716182365924,98.64374017694011" fill="#4a9eff" stroke="white" stroke-width="1"/>
</svg>