<svg xmlns="http://www.w3.org/2000/svg" viewBox="0 0 400 400">
  <rect width="400" height="400" fill="#1a1a2e"/>
  <path d="M 232.6,301.0 L 197.5,301.0 L 197.5,340.5 Z M 232.6,301.0 L 197.5,340.5 L 232.6,340.5 Z M 232.6,340.5 L 197.5,340.5 L 197.5,380.0 Z M 232.6,340.5 L 197.5,380.0 L 232.6,380.0 Z M 153.6,78.5 L 188.7,78.5 L 188.7,49.3 Z M 153.6,78.5 L 188.7,49.3 L 153.6,49.3 Z M 153.6,49.3 L 188.7,49.3 L 188.7,20.0 Z M 153.6,49.3 L 188.7,20.0 L 153.6,20.0 Z M 192.4,287.0 L 156.1,254.8 L 124.0,254.8 Z M 192.4,287.0 L 124.0,254.8 L 97.9,278.5 Z M 97.9,278.5 L 124.0,254.8 L 124.0,222.8 Z M 97.9,278.5 L 124.0,222.8 L 114.3,221.4 Z M 114.3,221.4 L 124.0,222.8 L 137.6,164.9 Z M 114.3,221.4 L 137.6,164.9 L 90.8,152.1 Z M 90.8,152.1 L 137.6,164.9 L 137.6,132.8 Z M 90.8,152.1 L 137.6,132.8 L 111.5,109.0 Z M 111.5,109.0 L 137.6,132.8 L 169.7,132.8 Z M 111.5,109.0 L 169.7,132.8 L 155.5,93.4 Z M 228.7,107.6 L 194.8,93.2 L 169.7,132.8 Z M 228.7,107.6 L 169.7,132.8 L 228.3,162.3 Z M 228.3,162.3 L 169.7,132.8 L 169.7,164.9 Z M 228.3,162.3 L 169.7,164.9 L 215.2,187.5 Z M 215.2,187.5 L 169.7,164.9 L 156.1,222.8 Z M 215.2,187.5 L 156.1,222.8 L 182.6,220.0 Z M 182.6,220.0 L 156.1,222.8 L 156.1,254.8 Z M 182.6,220.0 L 156.1,254.8 L 205.3,242.6 Z M 97.9,278.5 L 114.3,221.4 L 72.8,265.1 Z M 114.3,221.4 L 70.9,226.8 L 72.8,265.1 Z M 265.8,264.8 L 263.7,220.3 L 205.3,242.6 Z M 263.7,220.3 L 237.8,210.1 L 205.3,242.6 Z M 228.7,107.6 L 228.3,162.3 L 265.2,115.4 Z M 228.3,162.3 L 281.0,145.3 L 265.2,115.4 Z M 111.5,109.0 L 62.3,109.3 L 90.8,152.1 Z M 62.3,109.3 L 45.1,142.5 L 90.8,152.1 Z M 156.1,254.8 L 192.4,287.0 L 205.3,242.6 Z M 192.4,287.0 L 234.5,285.7 L 205.3,242.6 Z M 205.3,242.6 L 234.5,285.7 L 265.8,264.8 Z M 45.1,142.5 L 62.1,190.7 L 114.3,221.4 Z M 45.1,142.5 L 114.3,221.4 L 90.8,152.1 Z M 228.3,162.3 L 237.8,210.1 L 263.7,220.3 Z M 228.3,162.3 L 263.7,220.3 L 282.6,181.8 Z M 169.7,164.9 L 137.6,164.9 L 124.0,222.8 Z M 169.7,164.9 L 124.0,222.8 L 156.1,222.8 Z M 282.6,181.8 L 281.0,145.3 L 228.3,162.3 Z M 114.3,221.4 L 62.1,190.7 L 70.9,226.8 Z M 169.7,132.8 L 194.8,93.2 L 155.5,93.4 Z M 228.3,162.3 L 215.2,187.5 L 237.8,210.1 Z M 111.5,109.0 L 155.5,93.4 L 106.2,90.5 Z M 155.5,93.4 L 154.0,73.6 L 106.2,90.5 Z M 20.0,141.1 L 45.1,142.5 L 35.9,115.0 Z M 45.1,142.5 L 62.3,109.3 L 35.9,115.0 Z M 35.9,115.0 L 62.3,109.3 L 51.8,88.9 Z M 50.8,234.1 L 70.9,226.8 L 62.1,190.7 Z M 50.8,234.1 L 62.1,190.7 L 43.1,193.8 Z M 62.1,190.7 L 45.1,142.5 L 20.0,141.1 Z M 62.1,190.7 L 20.0,141.1 L 43.1,193.8 Z M 62.3,109.3 L 111.5,109.0 L 106.2,90.5 Z M 62.3,109.3 L 106.2,90.5 L 51.8,88.9 Z M 155.5,93.4 L 194.8,93.2 L 199.5,73.6 Z M 155.5,93.4 L 199.5,73.6 L 154.0,73.6 Z M 194.8,93.2 L 228.7,107.6 L 235.2,88.8 Z M 194.8,93.2 L 235.2,88.8 L 199.5,73.6 Z M 235.2,88.8 L 228.7,107.6 L 265.2,115.4 Z M 235.2,88.8 L 265.2,115.4 L 282.1,98.6 Z M 53.7,275.3 L 91.8,298.2 L 97.9,278.5 Z M 53.7,275.3 L 97.9,278.5 L 72.8,265.1 Z M 192.3,305.1 L 192.4,287.0 L 97.9,278.5 Z M 192.3,305.1 L 97.9,278.5 L 91.8,298.2 Z M 237.0,305.1 L 234.5,285.7 L 192.4,287.0 Z M 237.0,305.1 L 192.4,287.0 L 192.3,305.1 Z M 282.9,224.0 L 263.7,220.3 L 265.8,264.8 Z M 282.9,224.0 L 265.8,264.8 L 283.3,276.4 Z M 282.6,181.8 L 302.5,189.3 L 304.1,140.8 Z M 282.6,181.8 L 304.1,140.8 L 281.0,145.3 Z M 265.8,264.8 L 234.5,285.7 L 237.0,305.1 Z M 265.8,264.8 L 237.0,305.1 L 283.3,276.4 Z M 265.2,115.4 L 281.0,145.3 L 304.1,140.8 Z M 265.2,115.4 L 304.1,140.8 L 282.1,98.6 Z M 53.7,275.3 L 72.8,265.1 L 70.9,226.8 Z M 53.7,275.3 L 70.9,226.8 L 50.8,234.1 Z M 263.7,220.3 L 282.9,224.0 L 302.5,189.3 Z M 263.7,220.3 L 302.5,189.3 L 282.6,181.8 Z" fill="#2a2a4e" stroke="none"/>
  <path d="M 232.6,301.0 L 197.5,301.0 M 197.5,301.0 L 197.5,340.5 M 232.6,340.5 L 232.6,301.0 M 197.5,340.5 L 197.5,380.0 M 197.5,380.0 L 232.6,380.0 M 232.6,380.0 L 232.6,340.5 M 153.6,78.5 L 188.7,78.5 M 188.7,78.5 L 188.7,49.3 M 153.6,49.3 L 153.6,78.5 M 188.7,49.3 L 188.7,20.0 M 188.7,20.0 L 153.6,20.0 M 153.6,20.0 L 153.6,49.3 M 156.1,254.8 L 124.0,254.8 M 124.0,254.8 L 124.0,222.8 M 137.6,164.9 L 137.6,132.8 M 137.6,132.8 L 169.7,132.8 M 169.7,132.8 L 169.7,164.9 M 182.6,220.0 L 215.2,187.5 M 156.1,222.8 L 156.1,254.8 M 205.3,242.6 L 182.6,220.0 M 237.8,210.1 L 205.3,242.6 M 169.7,164.9 L 137.6,164.9 M 124.0,222.8 L 156.1,222.8 M 215.2,187.5 L 237.8,210.1 M 154.0,73.6 L 106.2,90.5 M 35.9,115.0 L 20.0,141.1 M 51.8,88.9 L 35.9,115.0 M 43.1,193.8 L 50.8,234.1 M 20.0,141.1 L 43.1,193.8 M 106.2,90.5 L 51.8,88.9 M 199.5,73.6 L 154.0,73.6 M 235.2,88.8 L 199.5,73.6 M 282.1,98.6 L 235.2,88.8 M 53.7,275.3 L 91.8,298.2 M 91.8,298.2 L 192.3,305.1 M 192.3,305.1 L 237.0,305.1 M 283.3,276.4 L 282.9,224.0 M 302.5,189.3 L 304.1,140.8 M 237.0,305.1 L 283.3,276.4 M 304.1,140.8 L 282.1,98.6 M 50.8,234.1 L 53.7,275.3 M 282.9,224.0 L 302.5,189.3" fill="none" stroke="white" stroke-width="2" stroke-linecap="round"/>
  <polygon points="170.62753312175556,62.321760001950594 178.62753312175556,70.3217600019506 170.62753312175556,78.3217600019506 162.62753312175556,70.3217600019506" fill="#4a9eff" stroke="white" stroke-width="1"/>
<polygon points="214.72234403901393,303.7128739004374 222.72234403901393,311.7128739004374 214.72234403901393,319.7128739004374 206.72234403901393,311.7128739004374" fill="#4a9eff" stroke="white" stroke-width="1"/>
</svg>