<svg xmlns="http://www.w3.org/2000/svg" viewBox="0 0 400 400">
  <rect width="400" height="400" fill="#1a1a2e"/>
  <path d="M 207.5,100.9 L 185.9,85.8 L 155.7,129.0 Z M 207.5,100.9 L 155.7,129.0 L 177.2,144.1 Z M 207.5,100.9 L 185.9,85.8 L 155.7,129.0 Z M 207.5,100.9 L 155.7,129.0 L 177.2,144.1 Z M 201.4,167.3 L 166.8,173.4 L 176.0,225.3 Z M 201.4,167.3 L 176.0,225.3 L 210.5,219.2 Z M 201.4,167.3 L 166.8,173.4 L 176.0,225.3 Z M 201.4,167.3 L 176.0,225.3 L 210.5,219.2 Z M 191.6,78.5 L 226.7,78.5 L 226.7,49.3 Z M 191.6,78.5 L 226.7,49.3 L 191.6,49.3 Z M 191.6,49.3 L 226.7,49.3 L 226.7,20.0 Z M 191.6,49.3 L 226.7,20.0 L 191.6,20.0 Z M 256.0,301.0 L 220.9,301.0 L 220.9,340.5 Z M 256.0,301.0 L 220.9,340.5 L 256.0,340.5 Z M 256.0,340.5 L 220.9,340.5 L 220.9,380.0 Z M 256.0,340.5 L 220.9,380.0 L 256.0,380.0 Z M 171.0,136.6 L 160.7,124.3 L 148.4,134.6 Z M 171.0,136.6 L 148.4,134.6 L 158.7,146.9 Z M 217.7,99.1 L 206.3,85.5 L 192.7,96.9 Z M 217.7,99.1 L 192.7,96.9 L 204.1,110.5 Z M 198.5,226.3 L 182.9,207.7 L 164.2,223.3 Z M 198.5,226.3 L 164.2,223.3 L 179.9,241.9 Z M 193.7,167.8 L 173.2,153.4 L 158.8,174.0 Z M 193.7,167.8 L 158.8,174.0 L 179.3,188.4 Z M 79.5,206.7 L 76.7,174.8 L 44.8,177.6 Z M 79.5,206.7 L 44.8,177.6 L 47.6,209.5 Z M 147.0,142.6 L 147.0,110.5 L 114.9,110.5 Z M 147.0,142.6 L 114.9,110.5 L 114.9,142.6 Z M 240.6,235.9 L 243.5,267.8 L 275.4,264.9 Z M 240.6,235.9 L 275.4,264.9 L 272.6,233.0 Z M 177.2,144.1 L 155.7,129.0 L 151.5,135.0 Z M 177.2,144.1 L 151.5,135.0 L 173.0,150.1 Z M 177.2,144.1 L 155.7,129.0 L 151.5,135.0 Z M 177.2,144.1 L 151.5,135.0 L 173.0,150.1 Z M 185.9,85.8 L 207.5,100.9 L 211.7,94.9 Z M 185.9,85.8 L 211.7,94.9 L 190.1,79.8 Z M 185.9,85.8 L 207.5,100.9 L 211.7,94.9 Z M 185.9,85.8 L 211.7,94.9 L 190.1,79.8 Z M 210.5,219.2 L 176.0,225.3 L 177.2,232.5 Z M 210.5,219.2 L 177.2,232.5 L 211.8,226.4 Z M 210.5,219.2 L 176.0,225.3 L 177.2,232.5 Z M 210.5,219.2 L 177.2,232.5 L 211.8,226.4 Z M 166.8,173.4 L 201.4,167.3 L 200.1,160.1 Z M 166.8,173.4 L 200.1,160.1 L 165.5,166.2 Z M 166.8,173.4 L 201.4,167.3 L 200.1,160.1 Z M 166.8,173.4 L 200.1,160.1 L 165.5,166.2 Z M 40.2,133.2 L 44.8,177.6 L 76.7,174.8 Z M 40.2,133.2 L 76.7,174.8 L 86.9,145.1 Z M 86.9,145.1 L 76.7,174.8 L 79.5,206.7 Z M 86.9,145.1 L 79.5,206.7 L 114.5,174.0 Z M 272.6,233.0 L 238.6,217.8 L 240.6,235.9 Z M 238.6,217.8 L 154.4,235.0 L 240.6,235.9 Z M 114.5,174.0 L 79.5,206.7 L 78.5,220.0 Z M 79.5,206.7 L 47.6,209.5 L 78.5,220.0 Z M 187.0,93.4 L 186.7,127.4 L 235.6,93.2 Z M 186.7,127.4 L 231.5,150.7 L 235.6,93.2 Z M 147.0,110.5 L 147.0,142.6 L 186.7,127.4 Z M 147.0,142.6 L 231.5,150.7 L 186.7,127.4 Z M 86.9,145.1 L 114.5,174.0 L 114.9,142.6 Z M 114.5,174.0 L 147.0,142.6 L 114.9,142.6 Z M 275.4,264.9 L 243.5,267.8 L 250.5,287.7 Z M 243.5,267.8 L 213.3,287.7 L 250.5,287.7 Z M 154.4,235.0 L 213.3,287.7 L 243.5,267.8 Z M 154.4,235.0 L 243.5,267.8 L 240.6,235.9 Z M 114.9,142.6 L 114.9,110.5 L 63.2,107.0 Z M 114.9,142.6 L 63.2,107.0 L 86.9,145.1 Z M 272.4,106.2 L 235.6,93.2 L 231.5,150.7 Z M 272.4,106.2 L 231.5,150.7 L 274.9,125.3 Z M 187.0,93.4 L 151.0,102.0 L 147.0,110.5 Z M 187.0,93.4 L 147.0,110.5 L 186.7,127.4 Z M 63.2,107.0 L 40.2,133.2 L 86.9,145.1 Z M 151.0,102.0 L 114.9,110.5 L 147.0,110.5 Z M 147.0,142.6 L 114.5,174.0 L 231.5,150.7 Z M 154.4,235.0 L 150.8,258.0 L 213.3,287.7 Z M 238.6,217.8 L 272.6,233.0 L 290.6,222.8 Z M 238.6,217.8 L 290.6,222.8 L 244.9,200.7 Z M 40.2,133.2 L 20.0,129.5 L 44.8,177.6 Z M 20.0,129.5 L 30.9,225.2 L 44.8,177.6 Z M 44.8,177.6 L 30.9,225.2 L 47.6,209.5 Z M 238.6,217.8 L 244.9,200.7 L 136.8,221.8 Z M 238.6,217.8 L 136.8,221.8 L 154.4,235.0 Z M 209.2,305.1 L 213.3,287.7 L 150.8,258.0 Z M 209.2,305.1 L 150.8,258.0 L 129.2,268.0 Z M 258.0,305.1 L 250.5,287.7 L 213.3,287.7 Z M 258.0,305.1 L 213.3,287.7 L 209.2,305.1 Z M 290.6,222.8 L 272.6,233.0 L 275.4,264.9 Z M 290.6,222.8 L 275.4,264.9 L 293.7,273.1 Z M 275.4,264.9 L 250.5,287.7 L 258.0,305.1 Z M 275.4,264.9 L 258.0,305.1 L 293.7,273.1 Z M 129.2,268.0 L 150.8,258.0 L 154.4,235.0 Z M 129.2,268.0 L 154.4,235.0 L 136.8,221.8 Z M 86.6,241.5 L 78.5,220.0 L 47.6,209.5 Z M 86.6,241.5 L 47.6,209.5 L 30.9,225.2 Z M 63.2,107.0 L 114.9,110.5 L 109.1,93.7 Z M 63.2,107.0 L 109.1,93.7 L 55.4,90.8 Z M 151.0,102.0 L 187.0,93.4 L 185.5,75.6 Z M 151.0,102.0 L 185.5,75.6 L 109.1,93.7 Z M 187.0,93.4 L 235.6,93.2 L 240.2,75.6 Z M 187.0,93.4 L 240.2,75.6 L 185.5,75.6 Z M 291.0,93.9 L 240.2,75.6 L 235.6,93.2 Z M 291.0,93.9 L 235.6,93.2 L 272.4,106.2 Z M 55.4,90.8 L 20.0,129.5 L 40.2,133.2 Z M 55.4,90.8 L 40.2,133.2 L 63.2,107.0 Z M 122.6,189.7 L 114.5,174.0 L 78.5,220.0 Z M 122.6,189.7 L 78.5,220.0 L 86.6,241.5 Z M 297.3,135.7 L 274.9,125.3 L 231.5,150.7 Z M 297.3,135.7 L 231.5,150.7 L 242.1,168.6 Z M 242.1,168.6 L 231.5,150.7 L 114.5,174.0 Z M 242.1,168.6 L 114.5,174.0 L 122.6,189.7 Z M 291.0,93.9 L 272.4,106.2 L 274.9,125.3 Z M 291.0,93.9 L 274.9,125.3 L 297.3,135.7 Z M 109.1,93.7 L 114.9,110.5 L 151.0,102.0 Z" fill="#2a2a4e" stroke="none"/>
  <path d="M 191.6,78.5 L 226.7,78.5 M 226.7,78.5 L 226.7,49.3 M 191.6,49.3 L 191.6,78.5 M 226.7,49.3 L 226.7,20.0 M 226.7,20.0 L 191.6,20.0 M 191.6,20.0 L 191.6,49.3 M 256.0,301.0 L 220.9,301.0 M 220.9,301.0 L 220.9,340.5 M 256.0,340.5 L 256.0,301.0 M 220.9,340.5 L 220.9,380.0 M 220.9,380.0 L 256.0,380.0 M 256.0,380.0 L 256.0,340.5 M 171.0,136.6 L 160.7,124.3 M 160.7,124.3 L 148.4,134.6 M 148.4,134.6 L 158.7,146.9 M 158.7,146.9 L 171.0,136.6 M 217.7,99.1 L 206.3,85.5 M 206.3,85.5 L 192.7,96.9 M 192.7,96.9 L 204.1,110.5 M 204.1,110.5 L 217.7,99.1 M 198.5,226.3 L 182.9,207.7 M 182.9,207.7 L 164.2,223.3 M 164.2,223.3 L 179.9,241.9 M 179.9,241.9 L 198.5,226.3 M 193.7,167.8 L 173.2,153.4 M 173.2,153.4 L 158.8,174.0 M 158.8,174.0 L 179.3,188.4 M 179.3,188.4 L 193.7,167.8 M 290.6,222.8 L 244.9,200.7 M 20.0,129.5 L 30.9,225.2 M 244.9,200.7 L 136.8,221.8 M 129.2,268.0 L 209.2,305.1 M 209.2,305.1 L 258.0,305.1 M 293.7,273.1 L 290.6,222.8 M 258.0,305.1 L 293.7,273.1 M 136.8,221.8 L 129.2,268.0 M 30.9,225.2 L 86.6,241.5 M 109.1,93.7 L 55.4,90.8 M 185.5,75.6 L 109.1,93.7 M 240.2,75.6 L 185.5,75.6 M 291.0,93.9 L 240.2,75.6 M 55.4,90.8 L 20.0,129.5 M 86.6,241.5 L 122.6,189.7 M 242.1,168.6 L 297.3,135.7 M 122.6,189.7 L 242.1,168.6 M 297.3,135.7 L 291.0,93.9" fill="none" stroke="white" stroke-width="2" stroke-linecap="round"/>
  <polygon points="238.09552600817685,305.251826314654 246.09552600817685,313.251826314654 238.09552600817685,321.251826314654 230.09552600817685,313.251826314654" fill="#4a9eff" stroke="white" stroke-width="1"/>
<polygon points="209.10280801468036,60.43786830879577 217.10280801468036,68.43786830879577 209.10280801468036,76.43786830879577 201.10280801468036,68.43786830879577" fill="#4a9eff" stroke="white" stroke-width="1"/>
</svg>