<svg xmlns="http://www.w3.org/2000/svg" viewBox="0 0 400 400">
  <rect width="400" height="400" fill="#1a1a2e"/>
  <path d="M 128.2,279.0 L 147.5,255.9 L 101.4,217.2 Z M 128.2,279.0 L 101.4,217.2 L 82.0,240.3 Z M 128.2,279.0 L 147.5,255.9 L 101.4,217.2 Z M 128.2,279.0 L 101.4,217.2 L 82.0,240.3 Z M 283.0,247.4 L 283.0,287.6 L 346.6,287.6 Z M 283.0,247.4 L 346.6,287.6 L 346.6,247.4 Z M 346.6,247.4 L 346.6,287.6 L 380.0,287.6 Z M 346.6,247.4 L 380.0,287.6 L 380.0,247.4 Z M 62.3,107.0 L 102.4,107.0 L 102.4,53.4 Z M 62.3,107.0 L 102.4,53.4 L 62.3,53.4 Z M 62.3,53.4 L 102.4,53.4 L 102.4,20.0 Z M 62.3,53.4 L 102.4,20.0 L 62.3,20.0 Z M 92.4,231.0 L 108.5,219.7 L 97.2,203.7 Z M 92.4,231.0 L 97.2,203.7 L 81.2,214.9 Z M 129.8,292.3 L 147.5,279.9 L 135.1,262.2 Z M 129.8,292.3 L 135.1,262.2 L 117.4,274.6 Z M 87.3,200.4 L 78.8,164.8 L 43.2,173.3 Z M 87.3,200.4 L 43.2,173.3 L 51.7,208.9 Z M 145.5,206.2 L 141.4,242.6 L 177.8,246.7 Z M 145.5,206.2 L 177.8,246.7 L 181.9,210.3 Z M 128.8,306.6 L 165.4,306.6 L 165.4,270.0 Z M 128.8,306.6 L 165.4,270.0 L 128.8,270.0 Z M 82.0,240.3 L 101.4,217.2 L 95.0,211.8 Z M 82.0,240.3 L 95.0,211.8 L 75.6,234.9 Z M 82.0,240.3 L 101.4,217.2 L 95.0,211.8 Z M 82.0,240.3 L 95.0,211.8 L 75.6,234.9 Z M 147.5,255.9 L 128.2,279.0 L 134.6,284.3 Z M 147.5,255.9 L 134.6,284.3 L 153.9,261.3 Z M 147.5,255.9 L 128.2,279.0 L 134.6,284.3 Z M 147.5,255.9 L 134.6,284.3 L 153.9,261.3 Z M 87.3,200.4 L 100.5,273.2 L 128.8,270.0 Z M 87.3,200.4 L 128.8,270.0 L 141.4,242.6 Z M 141.4,242.6 L 128.8,270.0 L 165.4,270.0 Z M 141.4,242.6 L 165.4,270.0 L 177.8,246.7 Z M 43.2,173.3 L 78.8,164.8 L 69.3,124.5 Z M 78.8,164.8 L 108.3,124.5 L 69.3,124.5 Z M 231.0,215.4 L 216.1,253.2 L 263.7,238.8 Z M 216.1,253.2 L 263.7,277.4 L 263.7,238.8 Z M 51.7,208.9 L 58.5,239.2 L 87.3,200.4 Z M 58.5,239.2 L 100.5,273.2 L 87.3,200.4 Z M 263.7,277.4 L 216.1,253.2 L 165.4,306.6 Z M 216.1,253.2 L 165.4,270.0 L 165.4,306.6 Z M 58.5,239.2 L 53.7,308.7 L 100.5,273.2 Z M 53.7,308.7 L 86.9,342.1 L 100.5,273.2 Z M 100.5,273.2 L 86.9,342.1 L 128.8,306.6 Z M 86.9,342.1 L 137.3,340.8 L 128.8,306.6 Z M 128.8,306.6 L 137.3,340.8 L 165.4,306.6 Z M 145.5,206.2 L 108.3,124.5 L 78.8,164.8 Z M 145.5,206.2 L 78.8,164.8 L 87.3,200.4 Z M 231.0,215.4 L 181.9,210.3 L 177.8,246.7 Z M 231.0,215.4 L 177.8,246.7 L 216.1,253.2 Z M 216.1,253.2 L 177.8,246.7 L 165.4,270.0 Z M 100.5,273.2 L 128.8,306.6 L 128.8,270.0 Z M 141.4,242.6 L 145.5,206.2 L 87.3,200.4 Z M 79.6,363.6 L 86.9,342.1 L 53.7,308.7 Z M 79.6,363.6 L 53.7,308.7 L 32.5,320.8 Z M 20.0,169.0 L 36.8,244.9 L 51.7,208.9 Z M 20.0,169.0 L 51.7,208.9 L 43.2,173.3 Z M 69.3,124.5 L 108.3,124.5 L 119.6,105.5 Z M 69.3,124.5 L 119.6,105.5 L 60.5,105.5 Z M 158.1,188.6 L 119.6,105.5 L 108.3,124.5 Z M 158.1,188.6 L 108.3,124.5 L 145.5,206.2 Z M 239.1,197.9 L 158.1,188.6 L 181.9,210.3 Z M 239.1,197.9 L 181.9,210.3 L 231.0,215.4 Z M 284.7,230.7 L 239.1,197.9 L 231.0,215.4 Z M 284.7,230.7 L 231.0,215.4 L 263.7,238.8 Z M 60.5,105.5 L 20.0,169.0 L 43.2,173.3 Z M 60.5,105.5 L 43.2,173.3 L 69.3,124.5 Z M 149.5,361.3 L 137.3,340.8 L 86.9,342.1 Z M 149.5,361.3 L 86.9,342.1 L 79.6,363.6 Z M 284.7,293.4 L 263.7,277.4 L 165.4,306.6 Z M 284.7,293.4 L 165.4,306.6 L 178.6,324.5 Z M 178.6,324.5 L 165.4,306.6 L 137.3,340.8 Z M 178.6,324.5 L 137.3,340.8 L 149.5,361.3 Z M 284.7,230.7 L 263.7,238.8 L 263.7,277.4 Z M 284.7,230.7 L 263.7,277.4 L 284.7,293.4 Z M 32.5,320.8 L 53.7,308.7 L 58.5,239.2 Z M 32.5,320.8 L 58.5,239.2 L 36.8,244.9 Z M 36.8,244.9 L 58.5,239.2 L 51.7,208.9 Z M 158.1,188.6 L 145.5,206.2 L 181.9,210.3 Z" fill="#2a2a4e" stroke="none"/>
  <path d="M 283.0,247.4 L 283.0,287.6 M 283.0,287.6 L 346.6,287.6 M 346.6,247.4 L 283.0,247.4 M 346.6,287.6 L 380.0,287.6 M 380.0,287.6 L 380.0,247.4 M 380.0,247.4 L 346.6,247.4 M 62.3,107.0 L 102.4,107.0 M 102.4,107.0 L 102.4,53.4 M 62.3,53.4 L 62.3,107.0 M 102.4,53.4 L 102.4,20.0 M 102.4,20.0 L 62.3,20.0 M 62.3,20.0 L 62.3,53.4 M 92.4,231.0 L 108.5,219.7 M 108.5,219.7 L 97.2,203.7 M 97.2,203.7 L 81.2,214.9 M 81.2,214.9 L 92.4,231.0 M 129.8,292.3 L 147.5,279.9 M 147.5,279.9 L 135.1,262.2 M 135.1,262.2 L 117.4,274.6 M 117.4,274.6 L 129.8,292.3 M 32.5,320.8 L 79.6,363.6 M 20.0,169.0 L 36.8,244.9 M 119.6,105.5 L 60.5,105.5 M 158.1,188.6 L 119.6,105.5 M 239.1,197.9 L 158.1,188.6 M 284.7,230.7 L 239.1,197.9 M 60.5,105.5 L 20.0,169.0 M 79.6,363.6 L 149.5,361.3 M 178.6,324.5 L 284.7,293.4 M 149.5,361.3 L 178.6,324.5 M 284.7,293.4 L 284.7,230.7 M 36.8,244.9 L 32.5,320.8" fill="none" stroke="white" stroke-width="2" stroke-linecap="round"/>
  <polygon points="82.3344560257398,89.6393959230016 90.3344560257398,97.6393959230016 82.3344560257398,105.6393959230016 74.3344560257398,97.6393959230016" fill="#4a9eff" stroke="white" stroke-width="1"/>
<polygon points="293.8998862296934,260.92735708639475 301.8998862296934,268.92735708639475 293.8998862296934,276.92735708639475 285.8998862296934,268.92735708639475" fill="#4a9eff" stroke="white" stroke-width="1"/>
</svg>