<svg xmlns="http://www.w3.org/2000/svg" viewBox="0 0 400 400">
  <rect width="400" height="400" fill="#1a1a2e"/>
  <path d="M 178.1,156.6 L 146.8,156.6 L 146.8,203.5 Z M 178.1,156.6 L 146.8,203.5 L 178.1,203.5 Z M 178.1,156.6 L 146.8,156.6 L 146.8,203.5 Z M 178.1,156.6 L 146.8,203.5 L 178.1,203.5 Z M 182.0,157.2 L 173.0,141.5 L 166.4,166.2 Z M 173.0,141.5 L 157.3,150.5 L 166.4,166.2 Z M 152.2,194.4 L 142.2,211.8 L 169.7,204.4 Z M 142.2,211.8 L 159.6,221.8 L 169.7,204.4 Z M 79.6,166.0 L 52.6,153.7 L 35.2,160.4 Z M 79.6,166.0 L 35.2,160.4 L 74.0,178.3 Z M 87.4,116.0 L 87.4,144.7 L 116.1,144.7 Z M 87.4,116.0 L 116.1,144.7 L 116.1,116.0 Z M 168.7,239.7 L 154.6,266.5 L 181.5,280.6 Z M 168.7,239.7 L 181.5,280.6 L 195.6,253.8 Z M 219.8,159.5 L 247.5,147.0 L 235.0,119.1 Z M 219.8,159.5 L 235.0,119.1 L 207.2,131.9 Z M 180.4,293.9 L 149.1,293.9 L 149.1,334.3 Z M 180.4,293.9 L 149.1,334.3 L 180.4,334.3 Z M 180.4,334.3 L 149.1,334.3 L 149.1,380.0 Z M 180.4,334.3 L 149.1,380.0 L 180.4,380.0 Z M 162.2,100.9 L 193.5,100.9 L 193.5,69.6 Z M 162.2,100.9 L 193.5,69.6 L 162.2,69.6 Z M 162.2,69.6 L 193.5,69.6 L 193.5,20.0 Z M 162.2,69.6 L 193.5,20.0 L 162.2,20.0 Z M 178.1,203.5 L 146.8,203.5 L 146.8,210.0 Z M 178.1,203.5 L 146.8,210.0 L 178.1,210.0 Z M 178.1,203.5 L 146.8,203.5 L 146.8,210.0 Z M 178.1,203.5 L 146.8,210.0 L 178.1,210.0 Z M 146.8,156.6 L 178.1,156.6 L 178.1,150.0 Z M 146.8,156.6 L 178.1,150.0 L 146.8,150.0 Z M 146.8,156.6 L 178.1,156.6 L 178.1,150.0 Z M 146.8,156.6 L 178.1,150.0 L 146.8,150.0 Z M 138.6,212.8 L 134.1,197.6 L 107.9,220.6 Z M 138.6,212.8 L 107.9,220.6 L 122.9,225.9 Z M 190.8,296.9 L 181.5,280.6 L 132.6,281.7 Z M 190.8,296.9 L 132.6,281.7 L 123.4,296.9 Z M 107.9,220.6 L 107.9,267.0 L 122.9,264.1 Z M 107.9,220.6 L 122.9,264.1 L 122.9,225.9 Z M 190.8,296.9 L 215.1,252.2 L 195.6,253.8 Z M 190.8,296.9 L 195.6,253.8 L 181.5,280.6 Z M 35.3,96.4 L 49.0,105.2 L 88.8,86.0 Z M 35.3,96.4 L 88.8,86.0 L 87.6,68.4 Z M 74.0,178.3 L 54.6,225.2 L 63.8,243.1 Z M 74.0,178.3 L 63.8,243.1 L 84.0,188.4 Z M 35.2,160.4 L 20.0,159.2 L 24.8,231.0 Z M 35.2,160.4 L 24.8,231.0 L 38.5,220.7 Z M 124.7,106.2 L 131.5,91.3 L 87.6,68.4 Z M 124.7,106.2 L 87.6,68.4 L 88.8,86.0 Z M 247.6,108.0 L 212.0,91.3 L 207.0,106.2 Z M 247.6,108.0 L 207.0,106.2 L 235.0,119.1 Z M 210.3,184.6 L 222.4,176.6 L 183.3,144.7 Z M 210.3,184.6 L 183.3,144.7 L 178.9,158.0 Z M 119.8,158.0 L 116.1,144.7 L 74.0,178.3 Z M 119.8,158.0 L 74.0,178.3 L 84.0,188.4 Z M 176.5,197.6 L 166.5,212.9 L 195.6,253.8 Z M 176.5,197.6 L 195.6,253.8 L 215.1,252.2 Z M 212.0,91.3 L 131.5,91.3 L 124.7,106.2 Z M 212.0,91.3 L 124.7,106.2 L 207.0,106.2 Z M 123.4,296.9 L 132.6,281.7 L 122.9,264.1 Z M 123.4,296.9 L 122.9,264.1 L 107.9,267.0 Z M 119.8,158.0 L 178.9,158.0 L 183.3,144.7 Z M 119.8,158.0 L 183.3,144.7 L 116.1,144.7 Z M 176.5,197.6 L 134.1,197.6 L 138.6,212.8 Z M 176.5,197.6 L 138.6,212.8 L 166.5,212.9 Z M 24.8,231.0 L 63.8,243.1 L 54.6,225.2 Z M 24.8,231.0 L 54.6,225.2 L 38.5,220.7 Z M 35.3,96.4 L 20.0,159.2 L 35.2,160.4 Z M 35.3,96.4 L 35.2,160.4 L 49.0,105.2 Z M 235.6,232.2 L 271.4,220.4 L 254.8,213.0 Z M 235.6,232.2 L 254.8,213.0 L 242.4,216.6 Z M 271.4,220.4 L 271.4,164.2 L 256.6,166.1 Z M 271.4,220.4 L 256.6,166.1 L 254.8,213.0 Z M 235.6,232.2 L 242.4,216.6 L 222.4,176.6 Z M 235.6,232.2 L 222.4,176.6 L 210.3,184.6 Z M 256.6,166.1 L 271.4,164.2 L 247.6,108.0 Z M 256.6,166.1 L 247.6,108.0 L 247.5,147.0 Z M 235.0,119.1 L 247.5,147.0 L 247.6,108.0 Z M 242.4,216.6 L 254.8,213.0 L 256.6,166.1 Z M 242.4,216.6 L 256.6,166.1 L 222.4,176.6 Z M 222.4,176.6 L 256.6,166.1 L 247.5,147.0 Z M 222.4,176.6 L 247.5,147.0 L 219.8,159.5 Z M 222.4,176.6 L 219.8,159.5 L 207.2,131.9 Z M 222.4,176.6 L 207.2,131.9 L 183.3,144.7 Z M 183.3,144.7 L 207.2,131.9 L 207.0,106.2 Z M 183.3,144.7 L 207.0,106.2 L 164.0,123.1 Z M 122.9,225.9 L 146.6,240.9 L 138.6,212.8 Z M 146.6,240.9 L 166.5,212.9 L 138.6,212.8 Z M 181.5,280.6 L 154.6,266.5 L 132.6,281.7 Z M 154.6,266.5 L 146.6,240.9 L 132.6,281.7 Z M 132.6,281.7 L 146.6,240.9 L 122.9,264.1 Z M 146.6,240.9 L 122.9,225.9 L 122.9,264.1 Z M 195.6,253.8 L 166.5,212.9 L 168.7,239.7 Z M 166.5,212.9 L 146.6,240.9 L 168.7,239.7 Z M 168.7,239.7 L 146.6,240.9 L 154.6,266.5 Z M 207.0,106.2 L 124.7,106.2 L 164.0,123.1 Z M 124.7,106.2 L 116.1,144.7 L 164.0,123.1 Z M 164.0,123.1 L 116.1,144.7 L 183.3,144.7 Z M 74.0,178.3 L 116.1,144.7 L 79.6,166.0 Z M 116.1,144.7 L 87.4,144.7 L 79.6,166.0 Z M 79.6,166.0 L 87.4,144.7 L 52.6,153.7 Z M 35.2,160.4 L 38.5,220.7 L 54.6,225.2 Z M 35.2,160.4 L 54.6,225.2 L 74.0,178.3 Z M 116.1,116.0 L 124.7,106.2 L 88.8,86.0 Z M 116.1,116.0 L 88.8,86.0 L 87.4,116.0 Z M 49.0,105.2 L 52.6,153.7 L 87.4,144.7 Z M 49.0,105.2 L 87.4,144.7 L 87.4,116.0 Z M 49.0,105.2 L 87.4,116.0 L 88.8,86.0 Z M 116.1,144.7 L 124.7,106.2 L 116.1,116.0 Z M 49.0,105.2 L 35.2,160.4 L 52.6,153.7 Z M 235.0,119.1 L 207.0,106.2 L 207.2,131.9 Z" fill="#2a2a4e" stroke="none"/>
  <path d="M 182.0,157.2 L 173.0,141.5 M 166.4,166.2 L 182.0,157.2 M 173.0,141.5 L 157.3,150.5 M 157.3,150.5 L 166.4,166.2 M 152.2,194.4 L 142.2,211.8 M 169.7,204.4 L 152.2,194.4 M 142.2,211.8 L 159.6,221.8 M 159.6,221.8 L 169.7,204.4 M 180.4,293.9 L 149.1,293.9 M 149.1,293.9 L 149.1,334.3 M 180.4,334.3 L 180.4,293.9 M 149.1,334.3 L 149.1,380.0 M 149.1,380.0 L 180.4,380.0 M 180.4,380.0 L 180.4,334.3 M 162.2,100.9 L 193.5,100.9 M 193.5,100.9 L 193.5,69.6 M 162.2,69.6 L 162.2,100.9 M 193.5,69.6 L 193.5,20.0 M 193.5,20.0 L 162.2,20.0 M 162.2,20.0 L 162.2,69.6 M 134.1,197.6 L 107.9,220.6 M 123.4,296.9 L 190.8,296.9 M 107.9,220.6 L 107.9,267.0 M 190.8,296.9 L 215.1,252.2 M 87.6,68.4 L 35.3,96.4 M 63.8,243.1 L 84.0,188.4 M 20.0,159.2 L 24.8,231.0 M 131.5,91.3 L 87.6,68.4 M 247.6,108.0 L 212.0,91.3 M 178.9,158.0 L 210.3,184.6 M 84.0,188.4 L 119.8,158.0 M 215.1,252.2 L 176.5,197.6 M 212.0,91.3 L 131.5,91.3 M 107.9,267.0 L 123.4,296.9 M 119.8,158.0 L 178.9,158.0 M 176.5,197.6 L 134.1,197.6 M 24.8,231.0 L 63.8,243.1 M 35.3,96.4 L 20.0,159.2 M 235.6,232.2 L 271.4,220.4 M 271.4,220.4 L 271.4,164.2 M 210.3,184.6 L 235.6,232.2 M 271.4,164.2 L 247.6,108.0" fill="none" stroke="white" stroke-width="2" stroke-linecap="round"/>
  <polygon points="165.20105743894635,302.4389970252552 173.20105743894635,310.4389970252552 165.20105743894635,318.4389970252552 157.20105743894635,310.4389970252552" fill="#4a9eff" stroke="white" stroke-width="1"/>
<polygon points="177.84021012496584,80.14277192041442 185.84021012496584,88.14277192041442 177.84021012496584,96.14277192041442 169.84021012496584,88.14277192041442" fill="#4a9eff" stroke="white" stroke-width="1"/>
</svg>