<svg xmlns="http://www.w3.org/2000/svg" viewBox="0 0 400 400">
  <rect width="400" height="400" fill="#1a1a2e"/>
  <path d="M 142.2,106.8 L 132.4,133.8 L 186.3,153.4 Z M 142.2,106.8 L 186.3,153.4 L 196.1,126.4 Z M 142.2,106.8 L 132.4,133.8 L 186.3,153.4 Z M 142.2,106.8 L 186.3,153.4 L 196.1,126.4 Z M 79.6,255.7 L 67.4,281.8 L 119.5,306.0 Z M 79.6,255.7 L 119.5,306.0 L 131.6,280.0 Z M 79.6,255.7 L 67.4,281.8 L 119.5,306.0 Z M 79.6,255.7 L 119.5,306.0 L 131.6,280.0 Z M 237.6,210.6 L 211.6,198.5 L 187.4,250.5 Z M 237.6,210.6 L 187.4,250.5 L 213.4,262.6 Z M 237.6,210.6 L 211.6,198.5 L 187.4,250.5 Z M 237.6,210.6 L 187.4,250.5 L 213.4,262.6 Z M 108.9,83.8 L 147.2,83.8 L 147.2,51.9 Z M 108.9,83.8 L 147.2,51.9 L 108.9,51.9 Z M 108.9,51.9 L 147.2,51.9 L 147.2,20.0 Z M 108.9,51.9 L 147.2,20.0 L 108.9,20.0 Z M 293.9,160.3 L 293.9,198.6 L 336.9,198.6 Z M 293.9,160.3 L 336.9,198.6 L 336.9,160.3 Z M 336.9,160.3 L 336.9,198.6 L 380.0,198.6 Z M 336.9,160.3 L 380.0,198.6 L 380.0,160.3 Z M 204.5,239.1 L 194.0,226.6 L 181.5,237.1 Z M 204.5,239.1 L 181.5,237.1 L 192.0,249.6 Z M 210.6,136.4 L 199.0,122.5 L 185.2,134.1 Z M 210.6,136.4 L 185.2,134.1 L 196.8,148.0 Z M 86.4,275.4 L 86.4,250.6 L 61.7,250.6 Z M 86.4,275.4 L 61.7,250.6 L 61.7,275.4 Z M 228.9,189.4 L 203.5,191.6 L 205.7,217.1 Z M 228.9,189.4 L 205.7,217.1 L 231.2,214.8 Z M 122.0,288.6 L 133.7,302.6 L 147.6,290.9 Z M 122.0,288.6 L 147.6,290.9 L 135.9,276.9 Z M 187.7,225.2 L 152.8,225.2 L 152.8,260.1 Z M 187.7,225.2 L 152.8,260.1 L 187.7,260.1 Z M 145.5,179.4 L 128.0,149.2 L 97.8,166.7 Z M 145.5,179.4 L 97.8,166.7 L 115.3,196.9 Z M 236.5,267.3 L 285.2,255.7 L 277.2,221.7 Z M 236.5,267.3 L 277.2,221.7 L 228.4,233.3 Z M 196.1,126.4 L 186.3,153.4 L 193.8,156.1 Z M 196.1,126.4 L 193.8,156.1 L 203.6,129.2 Z M 196.1,126.4 L 186.3,153.4 L 193.8,156.1 Z M 196.1,126.4 L 193.8,156.1 L 203.6,129.2 Z M 132.4,133.8 L 142.2,106.8 L 134.7,104.1 Z M 132.4,133.8 L 134.7,104.1 L 124.9,131.0 Z M 132.4,133.8 L 142.2,106.8 L 134.7,104.1 Z M 132.4,133.8 L 134.7,104.1 L 124.9,131.0 Z M 131.6,280.0 L 119.5,306.0 L 126.7,309.4 Z M 131.6,280.0 L 126.7,309.4 L 138.8,283.4 Z M 131.6,280.0 L 119.5,306.0 L 126.7,309.4 Z M 131.6,280.0 L 126.7,309.4 L 138.8,283.4 Z M 67.4,281.8 L 79.6,255.7 L 72.3,252.4 Z M 67.4,281.8 L 72.3,252.4 L 60.2,278.4 Z M 67.4,281.8 L 79.6,255.7 L 72.3,252.4 Z M 67.4,281.8 L 72.3,252.4 L 60.2,278.4 Z M 213.4,262.6 L 187.4,250.5 L 184.0,257.7 Z M 213.4,262.6 L 184.0,257.7 L 210.0,269.9 Z M 213.4,262.6 L 187.4,250.5 L 184.0,257.7 Z M 213.4,262.6 L 184.0,257.7 L 210.0,269.9 Z M 211.6,198.5 L 237.6,210.6 L 241.0,203.4 Z M 211.6,198.5 L 241.0,203.4 L 215.0,191.3 Z M 211.6,198.5 L 237.6,210.6 L 241.0,203.4 Z M 211.6,198.5 L 241.0,203.4 L 215.0,191.3 Z M 68.7,291.6 L 116.5,310.1 L 152.8,260.1 Z M 68.7,291.6 L 152.8,260.1 L 100.9,238.1 Z M 100.9,238.1 L 152.8,260.1 L 152.8,225.2 Z M 100.9,238.1 L 152.8,225.2 L 115.3,196.9 Z M 115.3,196.9 L 152.8,225.2 L 171.7,189.4 Z M 115.3,196.9 L 171.7,189.4 L 145.5,179.4 Z M 145.5,179.4 L 171.7,189.4 L 175.8,135.1 Z M 145.5,179.4 L 175.8,135.1 L 128.0,149.2 Z M 228.4,233.3 L 223.7,171.8 L 187.7,225.2 Z M 223.7,171.8 L 171.7,189.4 L 187.7,225.2 Z M 187.7,225.2 L 171.7,189.4 L 152.8,225.2 Z M 275.5,162.2 L 223.7,171.8 L 277.2,221.7 Z M 223.7,171.8 L 228.4,233.3 L 277.2,221.7 Z M 106.4,102.9 L 128.0,149.2 L 152.2,102.9 Z M 128.0,149.2 L 175.8,135.1 L 152.2,102.9 Z M 152.2,102.9 L 175.8,135.1 L 234.4,111.5 Z M 175.8,135.1 L 223.7,171.8 L 234.4,111.5 Z M 234.4,111.5 L 223.7,171.8 L 270.3,126.1 Z M 223.7,171.8 L 275.5,162.2 L 270.3,126.1 Z M 68.9,175.6 L 41.7,216.9 L 100.9,238.1 Z M 41.7,216.9 L 44.7,257.1 L 100.9,238.1 Z M 100.9,238.1 L 44.7,257.1 L 68.7,291.6 Z M 285.2,255.7 L 236.5,267.3 L 266.5,292.2 Z M 236.5,267.3 L 204.7,287.6 L 266.5,292.2 Z M 106.4,102.9 L 76.1,131.2 L 97.8,166.7 Z M 106.4,102.9 L 97.8,166.7 L 128.0,149.2 Z M 159.3,309.9 L 204.7,287.6 L 187.7,260.1 Z M 159.3,309.9 L 187.7,260.1 L 152.8,260.1 Z M 187.7,260.1 L 236.5,267.3 L 228.4,233.3 Z M 187.7,260.1 L 228.4,233.3 L 187.7,225.2 Z M 115.3,196.9 L 97.8,166.7 L 68.9,175.6 Z M 115.3,196.9 L 68.9,175.6 L 100.9,238.1 Z M 152.8,260.1 L 116.5,310.1 L 159.3,309.9 Z M 187.7,260.1 L 204.7,287.6 L 236.5,267.3 Z M 76.1,131.2 L 68.9,175.6 L 97.8,166.7 Z M 223.7,171.8 L 175.8,135.1 L 171.7,189.4 Z M 277.2,221.7 L 296.8,212.6 L 296.8,159.8 Z M 277.2,221.7 L 296.8,159.8 L 275.5,162.2 Z M 275.5,162.2 L 296.8,159.8 L 291.1,115.0 Z M 275.5,162.2 L 291.1,115.0 L 270.3,126.1 Z M 234.4,111.5 L 241.0,90.0 L 158.8,82.5 Z M 234.4,111.5 L 158.8,82.5 L 152.2,102.9 Z M 152.2,102.9 L 158.8,82.5 L 98.4,82.5 Z M 152.2,102.9 L 98.4,82.5 L 106.4,102.9 Z M 312.5,257.6 L 285.2,255.7 L 295.2,285.9 Z M 285.2,255.7 L 266.5,292.2 L 295.2,285.9 Z M 295.2,285.9 L 266.5,292.2 L 277.8,314.3 Z M 312.5,257.6 L 296.8,212.6 L 277.2,221.7 Z M 312.5,257.6 L 277.2,221.7 L 285.2,255.7 Z M 210.5,307.7 L 277.8,314.3 L 266.5,292.2 Z M 210.5,307.7 L 266.5,292.2 L 204.7,287.6 Z M 204.7,287.6 L 159.3,309.9 L 160.9,331.5 Z M 204.7,287.6 L 160.9,331.5 L 210.5,307.7 Z M 111.4,331.5 L 160.9,331.5 L 159.3,309.9 Z M 111.4,331.5 L 159.3,309.9 L 116.5,310.1 Z M 116.5,310.1 L 68.7,291.6 L 55.5,309.9 Z M 116.5,310.1 L 55.5,309.9 L 111.4,331.5 Z M 234.4,111.5 L 270.3,126.1 L 291.1,115.0 Z M 234.4,111.5 L 291.1,115.0 L 241.0,90.0 Z M 76.1,131.2 L 57.7,119.4 L 48.0,171.6 Z M 76.1,131.2 L 48.0,171.6 L 68.9,175.6 Z M 23.6,262.0 L 44.7,257.1 L 41.7,216.9 Z M 23.6,262.0 L 41.7,216.9 L 20.0,208.6 Z M 98.4,82.5 L 57.7,119.4 L 76.1,131.2 Z M 98.4,82.5 L 76.1,131.2 L 106.4,102.9 Z M 23.6,262.0 L 55.5,309.9 L 68.7,291.6 Z M 23.6,262.0 L 68.7,291.6 L 44.7,257.1 Z M 20.0,208.6 L 41.7,216.9 L 68.9,175.6 Z M 20.0,208.6 L 68.9,175.6 L 48.0,171.6 Z" fill="#2a2a4e" stroke="none"/>
  <path d="M 131.6,280.0 L 79.6,255.7 M 131.6,280.0 L 79.6,255.7 M 108.9,83.8 L 147.2,83.8 M 147.2,83.8 L 147.2,51.9 M 108.9,51.9 L 108.9,83.8 M 147.2,51.9 L 147.2,20.0 M 147.2,20.0 L 108.9,20.0 M 108.9,20.0 L 108.9,51.9 M 293.9,160.3 L 293.9,198.6 M 293.9,198.6 L 336.9,198.6 M 336.9,160.3 L 293.9,160.3 M 336.9,198.6 L 380.0,198.6 M 380.0,198.6 L 380.0,160.3 M 380.0,160.3 L 336.9,160.3 M 204.5,239.1 L 194.0,226.6 M 194.0,226.6 L 181.5,237.1 M 181.5,237.1 L 192.0,249.6 M 192.0,249.6 L 204.5,239.1 M 210.6,136.4 L 199.0,122.5 M 199.0,122.5 L 185.2,134.1 M 185.2,134.1 L 196.8,148.0 M 196.8,148.0 L 210.6,136.4 M 86.4,275.4 L 86.4,250.6 M 86.4,250.6 L 61.7,250.6 M 61.7,250.6 L 61.7,275.4 M 61.7,275.4 L 86.4,275.4 M 228.9,189.4 L 203.5,191.6 M 203.5,191.6 L 205.7,217.1 M 205.7,217.1 L 231.2,214.8 M 231.2,214.8 L 228.9,189.4 M 122.0,288.6 L 133.7,302.6 M 133.7,302.6 L 147.6,290.9 M 147.6,290.9 L 135.9,276.9 M 135.9,276.9 L 122.0,288.6 M 119.5,306.0 L 126.7,309.4 M 126.7,309.4 L 138.8,283.4 M 138.8,283.4 L 131.6,280.0 M 119.5,306.0 L 126.7,309.4 M 126.7,309.4 L 138.8,283.4 M 138.8,283.4 L 131.6,280.0 M 296.8,212.6 L 296.8,159.8 M 296.8,159.8 L 291.1,115.0 M 241.0,90.0 L 158.8,82.5 M 158.8,82.5 L 98.4,82.5 M 295.2,285.9 L 312.5,257.6 M 277.8,314.3 L 295.2,285.9 M 312.5,257.6 L 296.8,212.6 M 210.5,307.7 L 277.8,314.3 M 160.9,331.5 L 210.5,307.7 M 111.4,331.5 L 160.9,331.5 M 55.5,309.9 L 111.4,331.5 M 291.1,115.0 L 241.0,90.0 M 57.7,119.4 L 48.0,171.6 M 20.0,208.6 L 23.6,262.0 M 98.4,82.5 L 57.7,119.4 M 23.6,262.0 L 55.5,309.9 M 48.0,171.6 L 20.0,208.6" fill="none" stroke="white" stroke-width="2" stroke-linecap="round"/>
  <polygon points="304.60636803912894,171.9724475185916 312.60636803912894,179.9724475185916 304.60636803912894,187.9724475185916 296.60636803912894,179.9724475185916" fill="#4a9eff" stroke="white" stroke-width="1"/>
<polygon points="127.33984210395364,65.17509382617222 135.33984210395363,73.17509382617222 127.33984210395364,81.17509382617222 119.33984210395364,73.17509382617222" fill="#4a9eff" stroke="white" stroke-width="1"/>
</svg>