<svg xmlns="http://www.w3.org/2000/svg" viewBox="0 0 400 400">
  <rect width="400" height="400" fill="#1a1a2e"/>
  <path d="M 218.7,172.7 L 144.9,142.2 L 189.8,188.3 Z M 144.9,142.2 L 150.8,172.8 L 189.8,188.3 Z M 276.6,132.3 L 218.7,172.7 L 284.8,192.0 Z M 218.7,172.7 L 266.8,207.1 L 284.8,192.0 Z M 216.9,34.7 L 194.1,88.1 L 241.6,69.2 Z M 216.9,34.7 L 241.6,69.2 L 251.4,42.2 Z M 115.7,126.1 L 144.9,142.2 L 133.9,86.8 Z M 235.8,85.8 L 246.1,103.6 L 263.9,93.3 Z M 235.8,85.8 L 263.9,93.3 L 253.6,75.5 Z M 193.3,162.6 L 184.1,144.2 L 165.7,153.5 Z M 193.3,162.6 L 165.7,153.5 L 175.0,171.8 Z M 240.6,174.6 L 231.4,156.3 L 213.0,165.5 Z M 240.6,174.6 L 213.0,165.5 L 222.2,183.9 Z M 115.1,120.9 L 111.8,141.1 L 132.0,144.5 Z M 115.1,120.9 L 132.0,144.5 L 135.4,124.3 Z M 204.8,47.3 L 224.8,51.8 L 229.3,31.7 Z M 204.8,47.3 L 229.3,31.7 L 209.3,27.2 Z M 170.7,76.3 L 167.3,96.6 L 187.5,100.0 Z M 170.7,76.3 L 187.5,100.0 L 191.0,79.8 Z M 264.1,124.1 L 260.7,144.4 L 281.0,147.8 Z M 264.1,124.1 L 281.0,147.8 L 284.4,127.5 Z M 251.6,133.0 L 233.7,143.1 L 243.8,161.0 Z M 251.6,133.0 L 243.8,161.0 L 261.7,150.9 Z M 163.0,185.3 L 160.8,164.8 L 140.4,167.0 Z M 163.0,185.3 L 140.4,167.0 L 142.6,187.5 Z M 278.5,209.8 L 269.2,191.5 L 250.9,200.7 Z M 278.5,209.8 L 250.9,200.7 L 260.1,219.0 Z M 193.9,101.6 L 194.1,88.1 L 151.2,100.8 Z M 194.1,88.1 L 133.9,86.8 L 151.2,100.8 Z M 144.9,142.2 L 218.7,172.7 L 216.6,156.9 Z M 144.9,142.2 L 216.6,156.9 L 156.7,132.0 Z M 218.7,172.7 L 276.6,132.3 L 257.2,127.8 Z M 218.7,172.7 L 257.2,127.8 L 216.6,156.9 Z M 241.6,69.2 L 194.1,88.1 L 193.9,101.6 Z M 241.6,69.2 L 193.9,101.6 L 233.7,84.9 Z M 276.6,132.3 L 292.2,127.9 L 255.4,63.4 Z M 276.6,132.3 L 255.4,63.4 L 241.6,69.2 Z M 133.9,86.8 L 122.9,72.0 L 96.3,133.1 Z M 133.9,86.8 L 96.3,133.1 L 115.7,126.1 Z M 151.2,100.8 L 133.9,86.8 L 144.9,142.2 Z M 151.2,100.8 L 144.9,142.2 L 156.7,132.0 Z M 300.2,198.3 L 292.2,127.9 L 276.6,132.3 Z M 300.2,198.3 L 276.6,132.3 L 284.8,192.0 Z M 276.6,132.3 L 241.6,69.2 L 233.7,84.9 Z M 276.6,132.3 L 233.7,84.9 L 257.2,127.8 Z M 284.8,192.0 L 266.8,207.1 L 266.6,225.5 Z M 284.8,192.0 L 266.6,225.5 L 300.2,198.3 Z M 133.9,86.8 L 194.1,88.1 L 184.8,73.3 Z M 133.9,86.8 L 184.8,73.3 L 122.9,72.0 Z M 144.9,142.2 L 115.7,126.1 L 96.3,133.1 Z M 144.9,142.2 L 96.3,133.1 L 132.4,150.1 Z M 269.0,32.1 L 208.5,20.0 L 216.9,34.7 Z M 269.0,32.1 L 216.9,34.7 L 251.4,42.2 Z M 251.4,42.2 L 241.6,69.2 L 255.4,63.4 Z M 251.4,42.2 L 255.4,63.4 L 269.0,32.1 Z M 189.8,188.3 L 150.8,172.8 L 136.5,182.8 Z M 189.8,188.3 L 136.5,182.8 L 187.6,203.3 Z M 189.8,188.3 L 187.6,203.3 L 217.8,187.5 Z M 189.8,188.3 L 217.8,187.5 L 218.7,172.7 Z M 266.8,207.1 L 218.7,172.7 L 217.8,187.5 Z M 266.8,207.1 L 217.8,187.5 L 266.6,225.5 Z M 144.9,142.2 L 132.4,150.1 L 136.5,182.8 Z M 144.9,142.2 L 136.5,182.8 L 150.8,172.8 Z M 194.1,88.1 L 216.9,34.7 L 208.5,20.0 Z M 194.1,88.1 L 208.5,20.0 L 184.8,73.3 Z M 185.3,232.9 L 187.6,203.3 L 136.5,182.8 Z M 185.3,232.9 L 136.5,182.8 L 120.2,210.8 Z M 120.2,210.8 L 136.5,182.8 L 132.4,150.1 Z M 120.2,210.8 L 132.4,150.1 L 96.3,165.1 Z M 217.3,301.1 L 217.3,232.9 L 201.3,232.9 Z M 217.3,301.1 L 201.3,232.9 L 201.3,301.1 Z M 201.3,301.1 L 201.3,232.9 L 185.3,232.9 Z M 201.3,301.1 L 185.3,232.9 L 185.3,301.1 Z M 303.8,93.1 L 380.0,93.1 L 380.0,77.1 Z M 303.8,93.1 L 380.0,77.1 L 303.8,77.1 Z M 303.8,77.1 L 380.0,77.1 L 380.0,61.1 Z M 303.8,77.1 L 380.0,61.1 L 303.8,61.1 Z M 96.3,133.1 L 20.0,133.1 L 20.0,149.1 Z M 96.3,133.1 L 20.0,149.1 L 96.3,149.1 Z M 96.3,149.1 L 20.0,149.1 L 20.0,165.1 Z M 96.3,149.1 L 20.0,165.1 L 96.3,165.1 Z M 185.3,232.9 L 201.3,232.9 L 187.6,203.3 Z M 201.3,232.9 L 217.8,187.5 L 187.6,203.3 Z M 266.6,225.5 L 217.8,187.5 L 217.3,232.9 Z M 217.8,187.5 L 201.3,232.9 L 217.3,232.9 Z M 269.0,32.1 L 255.4,63.4 L 303.8,61.1 Z M 255.4,63.4 L 303.8,77.1 L 303.8,61.1 Z M 303.8,77.1 L 255.4,63.4 L 303.8,93.1 Z M 255.4,63.4 L 292.2,127.9 L 303.8,93.1 Z M 96.3,165.1 L 132.4,150.1 L 96.3,149.1 Z M 132.4,150.1 L 96.3,133.1 L 96.3,149.1 Z M 122.9,72.0 L 184.8,73.3 L 159.5,35.6 Z M 184.8,73.3 L 208.5,20.0 L 159.5,35.6 Z M 151.2,100.8 L 156.7,132.0 L 193.9,101.6 Z M 156.7,132.0 L 216.6,156.9 L 193.9,101.6 Z M 193.9,101.6 L 216.6,156.9 L 257.2,127.8 Z M 193.9,101.6 L 257.2,127.8 L 233.7,84.9 Z M 196.1,116.5 L 196.1,145.1 L 206.5,145.1 Z M 196.1,116.5 L 206.5,145.1 L 206.5,116.5 Z M 196.1,116.5 L 196.1,145.1 L 206.5,145.1 Z M 196.1,116.5 L 206.5,145.1 L 206.5,116.5 Z M 191.3,156.6 L 205.6,181.4 L 214.6,176.1 Z M 191.3,156.6 L 214.6,176.1 L 200.3,151.4 Z M 191.3,156.6 L 205.6,181.4 L 214.6,176.1 Z M 191.3,156.6 L 214.6,176.1 L 200.3,151.4 Z M 254.6,56.0 L 244.8,29.1 L 235.0,32.7 Z M 254.6,56.0 L 235.0,32.7 L 244.9,59.6 Z M 254.6,56.0 L 244.8,29.1 L 235.0,32.7 Z M 254.6,56.0 L 235.0,32.7 L 244.9,59.6 Z M 142.4,205.2 L 120.5,186.8 L 113.8,194.8 Z M 142.4,205.2 L 113.8,194.8 L 135.7,213.2 Z M 142.4,205.2 L 120.5,186.8 L 113.8,194.8 Z M 142.4,205.2 L 113.8,194.8 L 135.7,213.2 Z" fill="#2a2a4e" stroke="none"/>
  <path d="M 235.8,85.8 L 246.1,103.6 M 246.1,103.6 L 263.9,93.3 M 263.9,93.3 L 253.6,75.5 M 253.6,75.5 L 235.8,85.8 M 193.3,162.6 L 184.1,144.2 M 184.1,144.2 L 165.7,153.5 M 165.7,153.5 L 175.0,171.8 M 175.0,171.8 L 193.3,162.6 M 240.6,174.6 L 231.4,156.3 M 231.4,156.3 L 213.0,165.5 M 213.0,165.5 L 222.2,183.9 M 222.2,183.9 L 240.6,174.6 M 115.1,120.9 L 111.8,141.1 M 111.8,141.1 L 132.0,144.5 M 132.0,144.5 L 135.4,124.3 M 135.4,124.3 L 115.1,120.9 M 204.8,47.3 L 224.8,51.8 M 224.8,51.8 L 229.3,31.7 M 229.3,31.7 L 209.3,27.2 M 209.3,27.2 L 204.8,47.3 M 170.7,76.3 L 167.3,96.6 M 167.3,96.6 L 187.5,100.0 M 187.5,100.0 L 191.0,79.8 M 191.0,79.8 L 170.7,76.3 M 264.1,124.1 L 260.7,144.4 M 260.7,144.4 L 281.0,147.8 M 281.0,147.8 L 284.4,127.5 M 284.4,127.5 L 264.1,124.1 M 251.6,133.0 L 233.7,143.1 M 233.7,143.1 L 243.8,161.0 M 243.8,161.0 L 261.7,150.9 M 261.7,150.9 L 251.6,133.0 M 163.0,185.3 L 160.8,164.8 M 160.8,164.8 L 140.4,167.0 M 140.4,167.0 L 142.6,187.5 M 142.6,187.5 L 163.0,185.3 M 278.5,209.8 L 269.2,191.5 M 269.2,191.5 L 250.9,200.7 M 250.9,200.7 L 260.1,219.0 M 260.1,219.0 L 278.5,209.8 M 122.9,72.0 L 96.3,133.1 M 300.2,198.3 L 292.2,127.9 M 266.6,225.5 L 300.2,198.3 M 269.0,32.1 L 208.5,20.0 M 120.2,210.8 L 185.3,232.9 M 96.3,165.1 L 120.2,210.8 M 217.3,301.1 L 217.3,232.9 M 201.3,301.1 L 217.3,301.1 M 185.3,232.9 L 185.3,301.1 M 185.3,301.1 L 201.3,301.1 M 303.8,93.1 L 380.0,93.1 M 380.0,93.1 L 380.0,77.1 M 380.0,77.1 L 380.0,61.1 M 380.0,61.1 L 303.8,61.1 M 96.3,133.1 L 20.0,133.1 M 20.0,133.1 L 20.0,149.1 M 20.0,149.1 L 20.0,165.1 M 20.0,165.1 L 96.3,165.1 M 217.3,232.9 L 266.6,225.5 M 303.8,61.1 L 269.0,32.1 M 292.2,127.9 L 303.8,93.1 M 159.5,35.6 L 122.9,72.0 M 208.5,20.0 L 159.5,35.6" fill="none" stroke="white" stroke-width="2" stroke-linecap="round"/>
  <polygon points="83.51363178366421,141.49146293892656 91.51363178366421,149.49146293892656 83.51363178366421,157.49146293892656 75.51363178366421,149.49146293892656" fill="#4a9eff" stroke="white" stroke-width="1"/>
<polygon points="201.61703807969013,238.21935347945674 209.61703807969013,246.21935347945674 201.61703807969013,254.21935347945674 193.61703807969013,246.21935347945674" fill="#4a9eff" stroke="white" stroke-width="1"/>
<polygon points="312.1105862175057,69.11086191446051 320.1105862175057,77.11086191446051 312.1105862175057,85.11086191446051 304.1105862175057,77.11086191446051" fill="#4a9eff" stroke="white" stroke-width="1"/>
</svg>