<svg xmlns="http://www.w3.org/2000/svg" viewBox="0 0 400 400">
  <rect width="400" height="400" fill="#1a1a2e"/>
  <path d="M 196.1,119.6 L 176.1,105.5 L 147.9,145.7 Z M 196.1,119.6 L 147.9,145.7 L 168.0,159.8 Z M 196.1,119.6 L 176.1,105.5 L 147.9,145.7 Z M 196.1,119.6 L 147.9,145.7 L 168.0,159.8 Z M 251.5,190.9 L 219.3,196.5 L 227.8,244.9 Z M 251.5,190.9 L 227.8,244.9 L 260.1,239.2 Z M 251.5,190.9 L 219.3,196.5 L 227.8,244.9 Z M 251.5,190.9 L 227.8,244.9 L 260.1,239.2 Z M 166.4,148.6 L 153.5,133.3 L 138.2,146.2 Z M 166.4,148.6 L 138.2,146.2 L 151.1,161.5 Z M 207.4,117.9 L 196.8,105.2 L 184.1,115.8 Z M 207.4,117.9 L 184.1,115.8 L 194.7,128.5 Z M 254.5,251.5 L 239.9,234.2 L 222.6,248.7 Z M 254.5,251.5 L 222.6,248.7 L 237.1,266.1 Z M 243.7,188.7 L 224.5,175.3 L 211.1,194.5 Z M 243.7,188.7 L 211.1,194.5 L 230.3,207.9 Z M 123.7,291.5 L 153.5,291.5 L 153.5,261.6 Z M 123.7,291.5 L 153.5,261.6 L 123.7,261.6 Z M 261.7,233.2 L 291.6,233.2 L 291.6,203.3 Z M 261.7,233.2 L 291.6,203.3 L 261.7,203.3 Z M 164.5,306.4 L 131.8,306.4 L 131.8,343.2 Z M 164.5,306.4 L 131.8,343.2 L 164.5,343.2 Z M 164.5,343.2 L 131.8,343.2 L 131.8,380.0 Z M 164.5,343.2 L 131.8,380.0 L 164.5,380.0 Z M 93.6,279.1 L 93.6,246.4 L 56.8,246.4 Z M 93.6,279.1 L 56.8,246.4 L 56.8,279.1 Z M 56.8,279.1 L 56.8,246.4 L 20.0,246.4 Z M 56.8,279.1 L 20.0,246.4 L 20.0,279.1 Z M 145.5,93.6 L 178.2,93.6 L 178.2,56.8 Z M 145.5,93.6 L 178.2,56.8 L 145.5,56.8 Z M 145.5,56.8 L 178.2,56.8 L 178.2,20.0 Z M 145.5,56.8 L 178.2,20.0 L 145.5,20.0 Z M 306.4,205.5 L 306.4,238.2 L 343.2,238.2 Z M 306.4,205.5 L 343.2,238.2 L 343.2,205.5 Z M 343.2,205.5 L 343.2,238.2 L 380.0,238.2 Z M 343.2,205.5 L 380.0,238.2 L 380.0,205.5 Z M 121.2,121.2 L 121.2,145.4 L 160.7,147.0 Z M 121.2,145.4 L 154.3,168.2 L 160.7,147.0 Z M 160.7,147.0 L 154.3,168.2 L 225.6,177.2 Z M 225.6,177.2 L 206.0,143.8 L 160.7,147.0 Z M 206.0,143.8 L 187.4,108.7 L 160.7,147.0 Z M 160.7,147.0 L 187.4,108.7 L 140.8,108.7 Z M 153.5,261.6 L 197.2,262.7 L 231.8,220.7 Z M 197.2,262.7 L 223.1,273.7 L 231.8,220.7 Z M 231.8,220.7 L 223.1,273.7 L 261.7,233.2 Z M 223.1,273.7 L 275.4,274.8 L 261.7,233.2 Z M 261.7,233.2 L 275.4,274.8 L 291.7,251.3 Z M 261.7,233.2 L 261.7,203.3 L 231.8,220.7 Z M 261.7,203.3 L 225.6,177.2 L 231.8,220.7 Z M 153.5,291.5 L 168.9,291.5 L 197.2,262.7 Z M 153.5,291.5 L 197.2,262.7 L 153.5,261.6 Z M 261.7,203.3 L 268.2,194.6 L 206.0,143.8 Z M 261.7,203.3 L 206.0,143.8 L 225.6,177.2 Z M 108.8,282.4 L 123.7,291.5 L 123.7,261.6 Z M 108.8,282.4 L 123.7,261.6 L 108.8,258.2 Z M 160.7,147.0 L 140.8,108.7 L 121.2,121.2 Z M 197.2,262.7 L 168.9,291.5 L 223.1,273.7 Z M 108.8,258.2 L 123.7,261.6 L 153.5,261.6 Z M 261.7,233.2 L 291.7,251.3 L 291.6,233.2 Z M 291.6,203.3 L 268.2,194.6 L 261.7,203.3 Z M 168.0,159.8 L 147.9,145.7 L 144.0,151.3 Z M 168.0,159.8 L 144.0,151.3 L 164.1,165.4 Z M 168.0,159.8 L 147.9,145.7 L 144.0,151.3 Z M 168.0,159.8 L 144.0,151.3 L 164.1,165.4 Z M 176.1,105.5 L 196.1,119.6 L 200.1,114.0 Z M 176.1,105.5 L 200.1,114.0 L 180.0,99.9 Z M 176.1,105.5 L 196.1,119.6 L 200.1,114.0 Z M 176.1,105.5 L 200.1,114.0 L 180.0,99.9 Z M 260.1,239.2 L 227.8,244.9 L 229.0,251.6 Z M 260.1,239.2 L 229.0,251.6 L 261.2,245.9 Z M 260.1,239.2 L 227.8,244.9 L 229.0,251.6 Z M 260.1,239.2 L 229.0,251.6 L 261.2,245.9 Z M 219.3,196.5 L 251.5,190.9 L 250.3,184.1 Z M 219.3,196.5 L 250.3,184.1 L 218.1,189.8 Z M 219.3,196.5 L 251.5,190.9 L 250.3,184.1 Z M 219.3,196.5 L 250.3,184.1 L 218.1,189.8 Z M 154.3,168.2 L 121.2,145.4 L 104.4,155.0 Z M 154.3,168.2 L 104.4,155.0 L 148.4,184.1 Z M 212.0,190.9 L 225.6,177.2 L 154.3,168.2 Z M 212.0,190.9 L 154.3,168.2 L 148.4,184.1 Z M 206.0,143.8 L 217.8,131.6 L 195.7,92.5 Z M 206.0,143.8 L 195.7,92.5 L 187.4,108.7 Z M 187.4,108.7 L 195.7,92.5 L 133.8,92.5 Z M 187.4,108.7 L 133.8,92.5 L 140.8,108.7 Z M 121.2,121.2 L 104.1,113.6 L 104.4,155.0 Z M 121.2,121.2 L 104.4,155.0 L 121.2,145.4 Z M 133.8,92.5 L 104.1,113.6 L 121.2,121.2 Z M 133.8,92.5 L 121.2,121.2 L 140.8,108.7 Z M 291.6,203.3 L 308.8,191.7 L 277.3,180.5 Z M 291.6,203.3 L 277.3,180.5 L 268.2,194.6 Z M 291.6,203.3 L 291.6,233.2 L 308.8,256.7 Z M 291.6,203.3 L 308.8,256.7 L 308.8,191.7 Z M 228.5,289.5 L 284.9,289.9 L 275.4,274.8 Z M 228.5,289.5 L 275.4,274.8 L 223.1,273.7 Z M 223.1,273.7 L 168.9,291.5 L 170.3,308.0 Z M 223.1,273.7 L 170.3,308.0 L 228.5,289.5 Z M 153.5,291.5 L 123.7,291.5 L 119.2,308.0 Z M 153.5,291.5 L 119.2,308.0 L 170.3,308.0 Z M 123.7,291.5 L 108.8,282.4 L 92.1,293.8 Z M 123.7,291.5 L 92.1,293.8 L 119.2,308.0 Z M 291.7,251.3 L 275.4,274.8 L 284.9,289.9 Z M 291.7,251.3 L 284.9,289.9 L 308.8,256.7 Z M 153.5,261.6 L 150.7,246.4 L 92.1,243.4 Z M 153.5,261.6 L 92.1,243.4 L 108.8,258.2 Z M 231.8,220.7 L 214.3,212.6 L 150.7,246.4 Z M 231.8,220.7 L 150.7,246.4 L 153.5,261.6 Z M 108.8,258.2 L 92.1,243.4 L 92.1,293.8 Z M 108.8,258.2 L 92.1,293.8 L 108.8,282.4 Z M 212.0,190.9 L 214.3,212.6 L 231.8,220.7 Z M 212.0,190.9 L 231.8,220.7 L 225.6,177.2 Z M 277.3,180.5 L 217.8,131.6 L 206.0,143.8 Z M 277.3,180.5 L 206.0,143.8 L 268.2,194.6 Z M 170.3,308.0 L 168.9,291.5 L 153.5,291.5 Z M 291.6,233.2 L 291.7,251.3 L 308.8,256.7 Z" fill="#2a2a4e" stroke="none"/>
  <path d="M 166.4,148.6 L 153.5,133.3 M 153.5,133.3 L 138.2,146.2 M 138.2,146.2 L 151.1,161.5 M 151.1,161.5 L 166.4,148.6 M 207.4,117.9 L 196.8,105.2 M 196.8,105.2 L 184.1,115.8 M 184.1,115.8 L 194.7,128.5 M 194.7,128.5 L 207.4,117.9 M 254.5,251.5 L 239.9,234.2 M 239.9,234.2 L 222.6,248.7 M 222.6,248.7 L 237.1,266.1 M 237.1,266.1 L 254.5,251.5 M 243.7,188.7 L 224.5,175.3 M 224.5,175.3 L 211.1,194.5 M 211.1,194.5 L 230.3,207.9 M 230.3,207.9 L 243.7,188.7 M 164.5,306.4 L 131.8,306.4 M 131.8,306.4 L 131.8,343.2 M 164.5,343.2 L 164.5,306.4 M 131.8,343.2 L 131.8,380.0 M 131.8,380.0 L 164.5,380.0 M 164.5,380.0 L 164.5,343.2 M 93.6,279.1 L 93.6,246.4 M 93.6,246.4 L 56.8,246.4 M 56.8,279.1 L 93.6,279.1 M 56.8,246.4 L 20.0,246.4 M 20.0,246.4 L 20.0,279.1 M 20.0,279.1 L 56.8,279.1 M 145.5,93.6 L 178.2,93.6 M 178.2,93.6 L 178.2,56.8 M 145.5,56.8 L 145.5,93.6 M 178.2,56.8 L 178.2,20.0 M 178.2,20.0 L 145.5,20.0 M 145.5,20.0 L 145.5,56.8 M 306.4,205.5 L 306.4,238.2 M 306.4,238.2 L 343.2,238.2 M 343.2,205.5 L 306.4,205.5 M 343.2,238.2 L 380.0,238.2 M 380.0,238.2 L 380.0,205.5 M 380.0,205.5 L 343.2,205.5 M 104.4,155.0 L 148.4,184.1 M 148.4,184.1 L 212.0,190.9 M 217.8,131.6 L 195.7,92.5 M 195.7,92.5 L 133.8,92.5 M 104.1,113.6 L 104.4,155.0 M 133.8,92.5 L 104.1,113.6 M 308.8,191.7 L 277.3,180.5 M 308.8,256.7 L 308.8,191.7 M 228.5,289.5 L 284.9,289.9 M 170.3,308.0 L 228.5,289.5 M 119.2,308.0 L 170.3,308.0 M 92.1,293.8 L 119.2,308.0 M 284.9,289.9 L 308.8,256.7 M 150.7,246.4 L 92.1,243.4 M 214.3,212.6 L 150.7,246.4 M 92.1,243.4 L 92.1,293.8 M 212.0,190.9 L 214.3,212.6 M 277.3,180.5 L 217.8,131.6" fill="none" stroke="white" stroke-width="2" stroke-linecap="round"/>
  <polygon points="315.30562087350904,213.724421350086 323.30562087350904,221.724421350086 315.30562087350904,229.724421350086 307.30562087350904,221.724421350086" fill="#4a9eff" stroke="white" stroke-width="1"/>
<polygon points="148.4519469522132,306.0074109325238 156.4519469522132,314.0074109325238 148.4519469522132,322.0074109325238 140.4519469522132,314.0074109325238" fill="#4a9eff" stroke="white" stroke-width="1"/>
<polygon points="84.51224181838234,254.75458906695928 92.51224181838234,262.7545890669593 84.51224181838234,270.7545890669593 76.51224181838234,262.7545890669593" fill="#4a9eff" stroke="white" stroke-width="1"/>
<polygon points="161.13474785729582,77.36709544204564 169.13474785729582,85.36709544204564 161.13474785729582,93.36709544204564 153.13474785729582,85.36709544204564" fill="#4a9eff" stroke="white" stroke-width="1"/>
</svg>