<svg xmlns="http://www.w3.org/2000/svg" viewBox="0 0 400 400">
  <rect width="400" height="400" fill="#1a1a2e"/>
  <path d="M 184.0,108.7 L 163.7,132.9 L 212.0,173.4 Z M 184.0,108.7 L 212.0,173.4 L 232.3,149.3 Z M 184.0,108.7 L 163.7,132.9 L 212.0,173.4 Z M 184.0,108.7 L 212.0,173.4 L 232.3,149.3 Z M 253.0,288.9 L 211.0,288.9 L 211.0,345.0 Z M 253.0,288.9 L 211.0,345.0 L 253.0,345.0 Z M 253.0,345.0 L 211.0,345.0 L 211.0,380.0 Z M 253.0,345.0 L 211.0,380.0 L 253.0,380.0 Z M 221.7,152.5 L 204.9,164.3 L 216.7,181.1 Z M 221.7,152.5 L 216.7,181.1 L 233.5,169.3 Z M 184.5,96.0 L 166.0,109.0 L 179.0,127.6 Z M 184.5,96.0 L 179.0,127.6 L 197.6,114.6 Z M 226.6,191.1 L 235.5,228.5 L 272.8,219.6 Z M 226.6,191.1 L 272.8,219.6 L 263.9,182.2 Z M 114.8,175.2 L 114.8,136.8 L 76.4,136.8 Z M 114.8,175.2 L 76.4,136.8 L 76.4,175.2 Z M 183.0,80.2 L 144.7,80.2 L 144.7,118.6 Z M 183.0,80.2 L 144.7,118.6 L 183.0,118.6 Z M 232.3,149.3 L 212.0,173.4 L 218.7,179.0 Z M 232.3,149.3 L 218.7,179.0 L 239.0,154.9 Z M 232.3,149.3 L 212.0,173.4 L 218.7,179.0 Z M 232.3,149.3 L 218.7,179.0 L 239.0,154.9 Z M 163.7,132.9 L 184.0,108.7 L 177.3,103.1 Z M 163.7,132.9 L 177.3,103.1 L 157.0,127.3 Z M 163.7,132.9 L 184.0,108.7 L 177.3,103.1 Z M 163.7,132.9 L 177.3,103.1 L 157.0,127.3 Z M 227.2,42.6 L 183.0,80.2 L 183.0,118.6 Z M 227.2,42.6 L 183.0,118.6 L 204.6,133.2 Z M 204.6,133.2 L 183.0,118.6 L 144.7,118.6 Z M 204.6,133.2 L 144.7,118.6 L 165.7,185.0 Z M 165.7,185.0 L 144.7,118.6 L 114.8,136.8 Z M 165.7,185.0 L 114.8,136.8 L 114.8,175.2 Z M 204.8,270.5 L 245.6,270.5 L 235.5,228.5 Z M 245.6,270.5 L 272.8,219.6 L 235.5,228.5 Z M 76.4,175.2 L 76.4,136.8 L 41.9,150.8 Z M 76.4,136.8 L 41.9,110.4 L 41.9,150.8 Z M 256.9,150.4 L 262.0,77.5 L 204.6,133.2 Z M 262.0,77.5 L 227.2,42.6 L 204.6,133.2 Z M 144.7,80.2 L 183.0,80.2 L 174.4,44.0 Z M 183.0,80.2 L 227.2,42.6 L 174.4,44.0 Z M 263.9,182.2 L 256.9,150.4 L 204.6,133.2 Z M 263.9,182.2 L 204.6,133.2 L 226.6,191.1 Z M 144.7,80.2 L 41.9,110.4 L 76.4,136.8 Z M 144.7,80.2 L 76.4,136.8 L 114.8,136.8 Z M 204.8,270.5 L 235.5,228.5 L 226.6,191.1 Z M 204.8,270.5 L 226.6,191.1 L 165.7,185.0 Z M 204.6,133.2 L 165.7,185.0 L 226.6,191.1 Z M 76.4,175.2 L 165.7,185.0 L 114.8,175.2 Z M 114.8,136.8 L 144.7,118.6 L 144.7,80.2 Z M 234.8,20.0 L 227.2,42.6 L 262.0,77.5 Z M 234.8,20.0 L 262.0,77.5 L 284.2,64.9 Z M 297.3,223.9 L 279.6,144.4 L 263.9,182.2 Z M 297.3,223.9 L 263.9,182.2 L 272.8,219.6 Z M 245.6,270.5 L 204.8,270.5 L 193.0,290.4 Z M 245.6,270.5 L 193.0,290.4 L 254.9,290.4 Z M 152.6,203.4 L 193.0,290.4 L 204.8,270.5 Z M 152.6,203.4 L 204.8,270.5 L 165.7,185.0 Z M 165.7,185.0 L 76.4,175.2 L 67.8,193.7 Z M 165.7,185.0 L 67.8,193.7 L 152.6,203.4 Z M 20.0,159.3 L 67.8,193.7 L 76.4,175.2 Z M 20.0,159.3 L 76.4,175.2 L 41.9,150.8 Z M 254.9,290.4 L 297.3,223.9 L 272.8,219.6 Z M 254.9,290.4 L 272.8,219.6 L 245.6,270.5 Z M 161.6,22.5 L 174.4,44.0 L 227.2,42.6 Z M 161.6,22.5 L 227.2,42.6 L 234.8,20.0 Z M 20.0,93.6 L 41.9,110.4 L 144.7,80.2 Z M 20.0,93.6 L 144.7,80.2 L 131.2,61.0 Z M 131.2,61.0 L 144.7,80.2 L 174.4,44.0 Z M 131.2,61.0 L 174.4,44.0 L 161.6,22.5 Z M 20.0,159.3 L 41.9,150.8 L 41.9,110.4 Z M 20.0,159.3 L 41.9,110.4 L 20.0,93.6 Z M 284.2,64.9 L 262.0,77.5 L 256.9,150.4 Z M 284.2,64.9 L 256.9,150.4 L 279.6,144.4 Z M 279.6,144.4 L 256.9,150.4 L 263.9,182.2 Z" fill="#2a2a4e" stroke="none"/>
  <path d="M 253.0,288.9 L 211.0,288.9 M 211.0,288.9 L 211.0,345.0 M 253.0,345.0 L 253.0,288.9 M 211.0,345.0 L 211.0,380.0 M 211.0,380.0 L 253.0,380.0 M 253.0,380.0 L 253.0,345.0 M 221.7,152.5 L 204.9,164.3 M 204.9,164.3 L 216.7,181.1 M 216.7,181.1 L 233.5,169.3 M 233.5,169.3 L 221.7,152.5 M 184.5,96.0 L 166.0,109.0 M 166.0,109.0 L 179.0,127.6 M 179.0,127.6 L 197.6,114.6 M 197.6,114.6 L 184.5,96.0 M 284.2,64.9 L 234.8,20.0 M 297.3,223.9 L 279.6,144.4 M 193.0,290.4 L 254.9,290.4 M 152.6,203.4 L 193.0,290.4 M 67.8,193.7 L 152.6,203.4 M 20.0,159.3 L 67.8,193.7 M 254.9,290.4 L 297.3,223.9 M 234.8,20.0 L 161.6,22.5 M 131.2,61.0 L 20.0,93.6 M 161.6,22.5 L 131.2,61.0 M 20.0,93.6 L 20.0,159.3 M 279.6,144.4 L 284.2,64.9" fill="none" stroke="white" stroke-width="2" stroke-linecap="round"/>
  <polygon points="231.3753576532661,301.0896979637444 239.3753576532661,309.0896979637444 231.3753576532661,317.0896979637444 223.3753576532661,309.0896979637444" fill="#4a9eff" stroke="white" stroke-width="1"/>
</svg>