<svg xmlns="http://www.w3.org/2000/svg" viewBox="0 0 400 400">
  <rect width="400" height="400" fill="#1a1a2e"/>
  <path d="M 97.6,221.3 L 130.7,221.3 L 130.8,188.1 Z M 97.6,221.3 L 130.8,188.1 L 97.6,188.1 Z M 130.7,221.3 L 130.7,256.4 L 165.8,256.4 Z M 130.7,221.3 L 165.8,256.4 L 165.8,221.3 Z M 213.1,288.2 L 207.9,322.9 L 242.6,328.0 Z M 213.1,288.2 L 242.6,328.0 L 247.8,293.3 Z M 209.8,108.5 L 203.9,142.6 L 219.5,144.8 Z M 209.8,108.5 L 219.5,144.8 L 225.1,111.0 Z M 57.7,113.4 L 93.9,113.4 L 93.9,77.2 Z M 57.7,113.4 L 93.9,77.2 L 57.7,77.2 Z M 57.7,77.2 L 93.9,77.2 L 93.9,20.0 Z M 57.7,77.2 L 93.9,20.0 L 57.7,20.0 Z M 280.6,303.1 L 280.6,339.3 L 327.3,339.3 Z M 280.6,303.1 L 327.3,339.3 L 327.3,303.1 Z M 327.3,303.1 L 327.3,339.3 L 380.0,339.3 Z M 327.3,303.1 L 380.0,339.3 L 380.0,303.1 Z M 108.5,109.8 L 101.0,127.0 L 172.3,143.4 Z M 108.5,109.8 L 172.3,143.4 L 161.6,127.8 Z M 57.7,127.4 L 101.0,127.0 L 108.5,109.8 Z M 57.7,127.4 L 108.5,109.8 L 49.4,109.8 Z M 213.0,347.2 L 209.0,364.8 L 285.2,343.8 Z M 213.0,347.2 L 285.2,343.8 L 268.6,330.3 Z M 287.1,127.7 L 311.5,126.6 L 277.9,83.0 Z M 287.1,127.7 L 277.9,83.0 L 263.4,100.6 Z M 172.3,143.4 L 211.1,100.6 L 200.1,83.0 Z M 172.3,143.4 L 200.1,83.0 L 161.6,127.8 Z M 263.4,100.6 L 277.9,83.0 L 200.1,83.0 Z M 263.4,100.6 L 200.1,83.0 L 211.1,100.6 Z M 311.5,126.6 L 287.1,127.7 L 276.2,153.0 Z M 311.5,126.6 L 276.2,153.0 L 288.9,174.0 Z M 122.9,303.9 L 79.2,354.7 L 87.3,372.3 Z M 122.9,303.9 L 87.3,372.3 L 126.8,326.7 Z M 20.0,311.0 L 34.8,372.3 L 47.3,354.7 Z M 20.0,311.0 L 47.3,354.7 L 40.6,319.8 Z M 110.2,292.7 L 91.5,283.0 L 20.0,311.0 Z M 110.2,292.7 L 20.0,311.0 L 40.6,319.8 Z M 47.3,354.7 L 34.8,372.3 L 87.3,372.3 Z M 47.3,354.7 L 87.3,372.3 L 79.2,354.7 Z M 285.2,343.8 L 285.2,269.5 L 268.6,283.7 Z M 285.2,343.8 L 268.6,283.7 L 268.6,330.3 Z M 57.7,127.4 L 49.4,109.8 L 26.0,158.0 Z M 57.7,127.4 L 26.0,158.0 L 44.4,156.9 Z M 219.5,144.8 L 211.3,161.7 L 288.9,174.0 Z M 219.5,144.8 L 288.9,174.0 L 276.2,153.0 Z M 110.2,292.7 L 97.6,221.3 L 80.8,226.0 Z M 110.2,292.7 L 80.8,226.0 L 91.5,283.0 Z M 209.0,364.8 L 213.0,347.2 L 122.9,303.9 Z M 209.0,364.8 L 122.9,303.9 L 126.8,326.7 Z M 159.7,172.4 L 177.0,226.6 L 195.5,217.0 Z M 159.7,172.4 L 195.5,217.0 L 181.6,181.6 Z M 177.0,226.6 L 215.5,265.9 L 228.5,250.0 Z M 177.0,226.6 L 228.5,250.0 L 195.5,217.0 Z M 211.3,161.7 L 203.9,142.6 L 159.7,172.4 Z M 211.3,161.7 L 159.7,172.4 L 181.6,181.6 Z M 215.5,265.9 L 268.6,283.7 L 285.2,269.5 Z M 215.5,265.9 L 285.2,269.5 L 228.5,250.0 Z M 97.6,221.3 L 44.4,156.9 L 26.0,158.0 Z M 97.6,221.3 L 26.0,158.0 L 80.8,226.0 Z M 219.5,144.8 L 203.9,142.6 L 211.3,161.7 Z M 242.6,328.0 L 268.6,330.3 L 268.6,283.7 Z M 242.6,328.0 L 268.6,283.7 L 247.8,293.3 Z M 247.8,293.3 L 268.6,283.7 L 215.5,265.9 Z M 247.8,293.3 L 215.5,265.9 L 213.1,288.2 Z M 211.1,100.6 L 209.8,108.5 L 225.1,111.0 Z M 211.1,100.6 L 225.1,111.0 L 263.4,100.6 Z M 263.4,100.6 L 225.1,111.0 L 219.5,144.8 Z M 263.4,100.6 L 219.5,144.8 L 252.9,128.3 Z M 99.6,166.9 L 97.6,188.1 L 130.8,188.1 Z M 99.6,166.9 L 130.8,188.1 L 159.7,172.4 Z M 159.7,172.4 L 130.8,188.1 L 130.7,221.3 Z M 159.7,172.4 L 130.7,221.3 L 165.8,221.3 Z M 207.9,322.9 L 213.1,288.2 L 165.8,256.4 Z M 207.9,322.9 L 165.8,256.4 L 122.9,303.9 Z M 122.9,303.9 L 165.8,256.4 L 130.7,256.4 Z M 122.9,303.9 L 130.7,256.4 L 110.2,292.7 Z M 110.2,292.7 L 130.7,256.4 L 130.7,221.3 Z M 110.2,292.7 L 130.7,221.3 L 97.6,221.3 Z M 172.3,143.4 L 101.0,127.0 L 99.6,166.9 Z M 101.0,127.0 L 57.7,127.4 L 99.6,166.9 Z M 99.6,166.9 L 57.7,127.4 L 44.4,156.9 Z M 263.4,100.6 L 252.9,128.3 L 287.1,127.7 Z M 252.9,128.3 L 276.2,153.0 L 287.1,127.7 Z M 211.1,100.6 L 172.3,143.4 L 209.8,108.5 Z M 172.3,143.4 L 203.9,142.6 L 209.8,108.5 Z M 122.9,303.9 L 110.2,292.7 L 76.3,329.2 Z M 110.2,292.7 L 40.6,319.8 L 76.3,329.2 Z M 76.3,329.2 L 40.6,319.8 L 47.3,354.7 Z M 47.3,354.7 L 79.2,354.7 L 76.3,329.2 Z M 79.2,354.7 L 122.9,303.9 L 76.3,329.2 Z M 203.9,142.6 L 172.3,143.4 L 159.7,172.4 Z M 172.3,143.4 L 99.6,166.9 L 159.7,172.4 Z M 99.6,166.9 L 44.4,156.9 L 97.6,188.1 Z M 44.4,156.9 L 97.6,221.3 L 97.6,188.1 Z M 213.1,288.2 L 215.5,265.9 L 165.8,256.4 Z M 215.5,265.9 L 177.0,226.6 L 165.8,256.4 Z M 165.8,256.4 L 177.0,226.6 L 165.8,221.3 Z M 177.0,226.6 L 159.7,172.4 L 165.8,221.3 Z M 268.6,330.3 L 242.6,328.0 L 213.0,347.2 Z M 242.6,328.0 L 207.9,322.9 L 213.0,347.2 Z M 213.0,347.2 L 207.9,322.9 L 122.9,303.9 Z M 219.5,144.8 L 276.2,153.0 L 252.9,128.3 Z" fill="#2a2a4e" stroke="none"/>
  <path d="M 57.7,113.4 L 93.9,113.4 M 93.9,113.4 L 93.9,77.2 M 57.7,77.2 L 57.7,113.4 M 93.9,77.2 L 93.9,20.0 M 93.9,20.0 L 57.7,20.0 M 57.7,20.0 L 57.7,77.2 M 280.6,303.1 L 280.6,339.3 M 280.6,339.3 L 327.3,339.3 M 327.3,303.1 L 280.6,303.1 M 327.3,339.3 L 380.0,339.3 M 380.0,339.3 L 380.0,303.1 M 380.0,303.1 L 327.3,303.1 M 161.6,127.8 L 108.5,109.8 M 108.5,109.8 L 49.4,109.8 M 209.0,364.8 L 285.2,343.8 M 311.5,126.6 L 277.9,83.0 M 200.1,83.0 L 161.6,127.8 M 277.9,83.0 L 200.1,83.0 M 288.9,174.0 L 311.5,126.6 M 87.3,372.3 L 126.8,326.7 M 20.0,311.0 L 34.8,372.3 M 91.5,283.0 L 20.0,311.0 M 34.8,372.3 L 87.3,372.3 M 285.2,343.8 L 285.2,269.5 M 49.4,109.8 L 26.0,158.0 M 211.3,161.7 L 288.9,174.0 M 80.8,226.0 L 91.5,283.0 M 126.8,326.7 L 209.0,364.8 M 195.5,217.0 L 181.6,181.6 M 228.5,250.0 L 195.5,217.0 M 181.6,181.6 L 211.3,161.7 M 285.2,269.5 L 228.5,250.0 M 26.0,158.0 L 80.8,226.0" fill="none" stroke="white" stroke-width="2" stroke-linecap="round"/>
  <polygon points="304.95322928612023,311.76105911069317 312.95322928612023,319.76105911069317 304.95322928612023,327.76105911069317 296.95322928612023,319.76105911069317" fill="#4a9eff" stroke="white" stroke-width="1"/>
<polygon points="75.25001978385004,88.06033954997723 83.25001978385004,96.06033954997723 75.25001978385004,104.06033954997723 67.25001978385004,96.06033954997723" fill="#4a9eff" stroke="white" stroke-width="1"/>
</svg>