<svg xmlns="http://www.w3.org/2000/svg" viewBox="0 0 400 400">
  <rect width="400" height="400" fill="#1a1a2e"/>
  <path d="M 212.0,94.1 L 211.9,127.3 L 245.1,127.3 Z M 212.0,94.1 L 245.1,127.3 L 245.1,94.1 Z M 211.9,127.3 L 176.6,127.3 L 176.6,162.4 Z M 211.9,127.3 L 176.6,162.4 L 211.8,162.4 Z M 126.2,180.4 L 91.2,180.4 L 91.2,215.5 Z M 126.2,180.4 L 91.2,215.5 L 126.2,215.5 Z M 211.8,162.4 L 245.7,162.6 L 245.1,127.3 Z M 211.8,162.4 L 245.1,127.3 L 211.9,127.3 Z M 89.1,280.6 L 53.0,280.6 L 53.0,327.3 Z M 89.1,280.6 L 53.0,327.3 L 89.1,327.3 Z M 89.1,327.3 L 53.0,327.3 L 53.0,380.0 Z M 89.1,327.3 L 53.0,380.0 L 89.1,380.0 Z M 291.7,108.5 L 271.8,105.2 L 245.7,162.6 Z M 291.7,108.5 L 245.7,162.6 L 256.4,181.5 Z M 264.9,57.7 L 271.8,105.2 L 291.7,108.5 Z M 264.9,57.7 L 291.7,108.5 L 282.4,49.4 Z M 48.4,285.2 L 62.0,268.6 L 45.1,213.0 Z M 48.4,285.2 L 45.1,213.0 L 27.5,209.0 Z M 88.3,122.9 L 37.6,79.2 L 20.0,87.3 Z M 88.3,122.9 L 20.0,87.3 L 65.5,126.8 Z M 81.2,20.0 L 20.0,34.8 L 37.6,47.3 Z M 81.2,20.0 L 37.6,47.3 L 72.5,40.6 Z M 99.6,110.2 L 109.2,91.5 L 81.2,20.0 Z M 99.6,110.2 L 81.2,20.0 L 72.5,40.6 Z M 37.6,47.3 L 20.0,34.8 L 20.0,87.3 Z M 37.6,47.3 L 20.0,87.3 L 37.6,79.2 Z M 48.4,285.2 L 122.8,285.2 L 108.5,268.6 Z M 48.4,285.2 L 108.5,268.6 L 62.0,268.6 Z M 264.9,57.7 L 282.4,49.4 L 234.2,26.0 Z M 264.9,57.7 L 234.2,26.0 L 235.4,44.4 Z M 99.6,110.2 L 170.9,97.4 L 166.3,80.8 Z M 99.6,110.2 L 166.3,80.8 L 109.2,91.5 Z M 27.5,209.0 L 45.1,213.0 L 88.3,122.9 Z M 27.5,209.0 L 88.3,122.9 L 65.5,126.8 Z M 211.8,162.4 L 165.6,177.0 L 175.3,195.5 Z M 211.8,162.4 L 175.3,195.5 L 210.7,181.5 Z M 165.6,177.0 L 126.2,215.5 L 142.3,228.5 Z M 165.6,177.0 L 142.3,228.5 L 175.3,195.5 Z M 256.4,181.5 L 245.7,162.6 L 211.8,162.4 Z M 256.4,181.5 L 211.8,162.4 L 210.7,181.5 Z M 126.2,215.5 L 108.5,268.6 L 122.8,285.2 Z M 126.2,215.5 L 122.8,285.2 L 142.3,228.5 Z M 170.9,97.4 L 235.4,44.4 L 234.2,26.0 Z M 170.9,97.4 L 234.2,26.0 L 166.3,80.8 Z M 88.3,122.9 L 91.2,180.4 L 124.4,155.7 Z M 88.3,122.9 L 124.4,155.7 L 99.6,110.2 Z M 99.6,110.2 L 124.4,155.7 L 176.6,127.3 Z M 99.6,110.2 L 176.6,127.3 L 170.9,97.4 Z M 170.9,97.4 L 176.6,127.3 L 211.9,127.3 Z M 170.9,97.4 L 211.9,127.3 L 212.0,94.1 Z M 245.7,162.6 L 271.8,105.2 L 245.1,127.3 Z M 271.8,105.2 L 245.1,94.1 L 245.1,127.3 Z M 271.8,105.2 L 264.9,57.7 L 245.1,94.1 Z M 264.9,57.7 L 212.0,94.1 L 245.1,94.1 Z M 88.3,122.9 L 99.6,110.2 L 63.1,76.3 Z M 99.6,110.2 L 72.5,40.6 L 63.1,76.3 Z M 63.1,76.3 L 72.5,40.6 L 37.6,47.3 Z M 37.6,47.3 L 37.6,79.2 L 63.1,76.3 Z M 37.6,79.2 L 88.3,122.9 L 63.1,76.3 Z M 264.9,57.7 L 235.4,44.4 L 212.0,94.1 Z M 235.4,44.4 L 170.9,97.4 L 212.0,94.1 Z M 62.0,268.6 L 91.2,215.5 L 45.1,213.0 Z M 91.2,215.5 L 91.2,180.4 L 45.1,213.0 Z M 45.1,213.0 L 91.2,180.4 L 88.3,122.9 Z M 126.2,215.5 L 91.2,215.5 L 108.5,268.6 Z M 91.2,215.5 L 62.0,268.6 L 108.5,268.6 Z M 176.6,162.4 L 124.4,155.7 L 126.2,180.4 Z M 176.6,162.4 L 126.2,180.4 L 165.6,177.0 Z M 126.2,180.4 L 126.2,215.5 L 165.6,177.0 Z M 176.6,162.4 L 165.6,177.0 L 211.8,162.4 Z M 91.2,180.4 L 126.2,180.4 L 124.4,155.7 Z M 124.4,155.7 L 176.6,162.4 L 176.6,127.3 Z" fill="#2a2a4e" stroke="none"/>
  <path d="M 89.1,280.6 L 53.0,280.6 M 53.0,280.6 L 53.0,327.3 M 89.1,327.3 L 89.1,280.6 M 53.0,327.3 L 53.0,380.0 M 53.0,380.0 L 89.1,380.0 M 89.1,380.0 L 89.1,327.3 M 256.4,181.5 L 291.7,108.5 M 291.7,108.5 L 282.4,49.4 M 27.5,209.0 L 48.4,285.2 M 20.0,87.3 L 65.5,126.8 M 81.2,20.0 L 20.0,34.8 M 109.2,91.5 L 81.2,20.0 M 20.0,34.8 L 20.0,87.3 M 48.4,285.2 L 122.8,285.2 M 282.4,49.4 L 234.2,26.0 M 166.3,80.8 L 109.2,91.5 M 65.5,126.8 L 27.5,209.0 M 175.3,195.5 L 210.7,181.5 M 142.3,228.5 L 175.3,195.5 M 210.7,181.5 L 256.4,181.5 M 122.8,285.2 L 142.3,228.5 M 234.2,26.0 L 166.3,80.8" fill="none" stroke="white" stroke-width="2" stroke-linecap="round"/>
  <polygon points="71.86876844221428,300.52331430963807 79.86876844221428,308.52331430963807 71.86876844221428,316.52331430963807 63.868768442214275,308.52331430963807" fill="#4a9eff" stroke="white" stroke-width="1"/>
</svg>