<svg xmlns="http://www.w3.org/2000/svg" viewBox="0 0 400 400">
  <rect width="400" height="400" fill="#1a1a2e"/>
  <path d="M 39.1,114.2 L 75.5,144.7 L 107.8,108.3 Z M 39.1,114.2 L 107.8,108.3 L 72.8,73.8 Z M 154.2,128.2 L 169.6,80.0 L 123.0,61.1 Z M 154.2,128.2 L 123.0,61.1 L 107.8,108.3 Z M 139.9,111.8 L 149.1,116.1 L 153.4,106.5 Z M 139.9,111.8 L 153.4,106.5 L 144.3,102.3 Z M 157.8,116.7 L 156.4,108.0 L 147.4,109.6 Z M 157.8,116.7 L 147.4,109.6 L 148.9,118.4 Z M 132.1,99.5 L 134.1,107.0 L 141.9,104.8 Z M 132.1,99.5 L 141.9,104.8 L 139.9,97.3 Z M 138.1,112.5 L 142.5,107.3 L 137.1,102.9 Z M 138.1,112.5 L 137.1,102.9 L 132.7,108.1 Z M 142.3,108.9 L 147.7,103.7 L 142.2,98.1 Z M 142.3,108.9 L 142.2,98.1 L 136.9,103.3 Z M 83.0,123.4 L 73.9,118.9 L 69.3,128.3 Z M 83.0,123.4 L 69.3,128.3 L 78.4,132.8 Z M 68.7,113.5 L 65.6,107.8 L 59.7,111.0 Z M 68.7,113.5 L 59.7,111.0 L 62.8,116.8 Z M 61.3,104.0 L 58.7,109.1 L 63.9,111.7 Z M 61.3,104.0 L 63.9,111.7 L 66.5,106.6 Z M 58.5,107.8 L 55.2,113.1 L 60.7,116.6 Z M 58.5,107.8 L 60.7,116.6 L 64.0,111.3 Z M 31.5,367.3 L 82.4,380.0 L 82.4,260.9 Z M 31.5,367.3 L 82.4,260.9 L 31.5,260.9 Z M 31.5,260.9 L 82.4,260.9 L 103.7,227.9 Z M 31.5,260.9 L 103.7,227.9 L 38.1,223.7 Z M 38.1,223.7 L 103.7,227.9 L 141.0,198.7 Z M 38.1,223.7 L 141.0,198.7 L 58.5,178.6 Z M 63.8,26.7 L 72.8,73.8 L 123.0,61.1 Z M 63.8,26.7 L 123.0,61.1 L 130.7,20.0 Z M 130.7,20.0 L 123.0,61.1 L 169.6,80.0 Z M 130.7,20.0 L 169.6,80.0 L 162.8,60.7 Z M 154.2,128.2 L 107.8,108.3 L 110.0,156.6 Z M 107.8,108.3 L 75.5,144.7 L 110.0,156.6 Z M 110.0,156.6 L 75.5,144.7 L 58.5,178.6 Z M 21.9,139.7 L 39.1,114.2 L 20.0,73.0 Z M 39.1,114.2 L 72.8,73.8 L 20.0,73.0 Z M 20.0,73.0 L 72.8,73.8 L 63.8,26.7 Z M 162.8,60.7 L 169.6,80.0 L 193.2,67.7 Z M 169.6,80.0 L 206.1,132.4 L 193.2,67.7 Z M 169.6,80.0 L 154.2,128.2 L 206.1,132.4 Z M 154.2,128.2 L 186.6,175.8 L 206.1,132.4 Z M 75.5,144.7 L 39.1,114.2 L 21.9,139.7 Z M 75.5,144.7 L 21.9,139.7 L 58.5,178.6 Z M 186.6,175.8 L 154.2,128.2 L 110.0,156.6 Z M 186.6,175.8 L 110.0,156.6 L 141.0,198.7 Z M 107.8,108.3 L 123.0,61.1 L 72.8,73.8 Z M 58.5,178.6 L 141.0,198.7 L 110.0,156.6 Z" fill="#2a2a4e" stroke="none"/>
  <path d="M 139.9,111.8 L 149.1,116.1 M 149.1,116.1 L 153.4,106.5 M 153.4,106.5 L 144.3,102.3 M 144.3,102.3 L 139.9,111.8 M 157.8,116.7 L 156.4,108.0 M 156.4,108.0 L 147.4,109.6 M 147.4,109.6 L 148.9,118.4 M 148.9,118.4 L 157.8,116.7 M 132.1,99.5 L 134.1,107.0 M 134.1,107.0 L 141.9,104.8 M 141.9,104.8 L 139.9,97.3 M 139.9,97.3 L 132.1,99.5 M 138.1,112.5 L 142.5,107.3 M 142.5,107.3 L 137.1,102.9 M 137.1,102.9 L 132.7,108.1 M 132.7,108.1 L 138.1,112.5 M 142.3,108.9 L 147.7,103.7 M 147.7,103.7 L 142.2,98.1 M 142.2,98.1 L 136.9,103.3 M 136.9,103.3 L 142.3,108.9 M 83.0,123.4 L 73.9,118.9 M 73.9,118.9 L 69.3,128.3 M 69.3,128.3 L 78.4,132.8 M 78.4,132.8 L 83.0,123.4 M 68.7,113.5 L 65.6,107.8 M 65.6,107.8 L 59.7,111.0 M 59.7,111.0 L 62.8,116.8 M 62.8,116.8 L 68.7,113.5 M 61.3,104.0 L 58.7,109.1 M 58.7,109.1 L 63.9,111.7 M 63.9,111.7 L 66.5,106.6 M 66.5,106.6 L 61.3,104.0 M 58.5,107.8 L 55.2,113.1 M 55.2,113.1 L 60.7,116.6 M 60.7,116.6 L 64.0,111.3 M 64.0,111.3 L 58.5,107.8 M 31.5,367.3 L 82.4,380.0 M 82.4,380.0 L 82.4,260.9 M 31.5,260.9 L 31.5,367.3 M 82.4,260.9 L 103.7,227.9 M 38.1,223.7 L 31.5,260.9 M 103.7,227.9 L 141.0,198.7 M 58.5,178.6 L 38.1,223.7 M 130.7,20.0 L 63.8,26.7 M 162.8,60.7 L 130.7,20.0 M 20.0,73.0 L 21.9,139.7 M 63.8,26.7 L 20.0,73.0 M 193.2,67.7 L 162.8,60.7 M 206.1,132.4 L 193.2,67.7 M 186.6,175.8 L 206.1,132.4 M 21.9,139.7 L 58.5,178.6 M 141.0,198.7 L 186.6,175.8" fill="none" stroke="white" stroke-width="2" stroke-linecap="round"/>
  <polygon points="56.58428683981572,285.70904745567304 64.58428683981572,293.70904745567304 56.58428683981572,301.70904745567304 48.58428683981572,293.70904745567304" fill="#4a9eff" stroke="white" stroke-width="1"/>
</svg>