<svg xmlns="http://www.w3.org/2000/svg" viewBox="0 0 400 400">
  <rect width="400" height="400" fill="#1a1a2e"/>
  <path d="M 120.1,120.5 L 99.3,135.4 L 125.1,151.5 Z M 99.3,135.4 L 107.0,162.3 L 125.1,151.5 Z M 219.6,110.7 L 195.5,108.2 L 194.1,136.3 Z M 219.6,110.7 L 194.1,136.3 L 218.1,134.5 Z M 86.6,220.7 L 107.2,248.1 L 125.6,217.7 Z M 195.5,108.2 L 184.4,116.5 L 194.1,136.3 Z M 121.8,27.7 L 119.5,30.5 L 117.9,27.4 Z M 102.6,29.5 L 106.4,28.2 L 105.6,31.6 Z M 35.4,162.0 L 38.2,164.3 L 35.1,165.9 Z M 37.2,181.2 L 36.0,177.5 L 39.3,178.2 Z M 209.2,292.8 L 211.0,289.6 L 213.1,292.4 Z M 227.8,287.7 L 224.3,289.6 L 224.5,286.1 Z M 82.9,183.5 L 86.6,220.7 L 125.6,217.7 Z M 82.9,183.5 L 125.6,217.7 L 107.0,162.3 Z M 107.0,162.3 L 125.6,217.7 L 165.8,176.9 Z M 107.0,162.3 L 165.8,176.9 L 125.1,151.5 Z M 20.0,158.2 L 20.0,183.5 L 82.9,183.5 Z M 20.0,158.2 L 82.9,183.5 L 76.5,158.2 Z M 76.5,158.2 L 82.9,183.5 L 107.0,162.3 Z M 76.5,158.2 L 107.0,162.3 L 99.3,135.4 Z M 316.1,130.8 L 316.1,105.5 L 273.8,105.5 Z M 316.1,130.8 L 273.8,105.5 L 273.8,130.8 Z M 273.8,130.8 L 273.8,105.5 L 235.2,105.5 Z M 273.8,130.8 L 235.2,105.5 L 235.9,130.8 Z M 235.9,130.8 L 235.2,105.5 L 219.6,110.7 Z M 235.9,130.8 L 219.6,110.7 L 218.1,134.5 Z M 150.0,151.4 L 165.8,176.9 L 181.8,160.4 Z M 150.0,151.4 L 181.8,160.4 L 169.1,133.7 Z M 169.1,133.7 L 181.8,160.4 L 194.1,136.3 Z M 169.1,133.7 L 194.1,136.3 L 184.4,116.5 Z M 219.6,110.7 L 235.2,105.5 L 206.3,68.7 Z M 219.6,110.7 L 206.3,68.7 L 195.5,108.2 Z M 195.5,108.2 L 206.3,68.7 L 172.6,68.3 Z M 195.5,108.2 L 172.6,68.3 L 184.4,116.5 Z M 184.4,116.5 L 172.6,68.3 L 164.6,91.5 Z M 184.4,116.5 L 164.6,91.5 L 169.1,133.7 Z M 215.2,189.9 L 238.9,160.3 L 218.1,134.5 Z M 215.2,189.9 L 218.1,134.5 L 189.4,197.7 Z M 189.4,197.7 L 218.1,134.5 L 194.1,136.3 Z M 189.4,197.7 L 194.1,136.3 L 181.8,160.4 Z M 85.4,110.5 L 99.3,135.4 L 120.1,120.5 Z M 85.4,110.5 L 120.1,120.5 L 99.9,89.6 Z M 99.9,89.6 L 120.1,120.5 L 143.4,121.8 Z M 99.9,89.6 L 143.4,121.8 L 125.2,88.7 Z M 208.3,293.9 L 233.5,294.4 L 233.5,230.6 Z M 208.3,293.9 L 233.5,230.6 L 208.3,234.3 Z M 208.3,234.3 L 233.5,230.6 L 215.2,189.9 Z M 208.3,234.3 L 215.2,189.9 L 189.4,197.7 Z M 328.7,215.2 L 299.2,229.8 L 379.4,300.0 Z M 299.2,229.8 L 277.6,261.3 L 379.4,300.0 Z M 379.4,300.0 L 277.6,261.3 L 273.7,294.6 Z M 125.6,217.7 L 141.8,250.9 L 163.4,223.4 Z M 125.6,217.7 L 163.4,223.4 L 165.8,176.9 Z M 143.4,121.8 L 120.1,120.5 L 125.1,151.5 Z M 143.4,121.8 L 125.1,151.5 L 150.0,151.4 Z M 125.1,20.0 L 99.4,20.0 L 99.9,89.6 Z M 125.1,20.0 L 99.9,89.6 L 125.2,88.7 Z M 273.7,294.6 L 288.2,380.0 L 379.4,300.0 Z M 141.8,250.9 L 125.6,217.7 L 107.2,248.1 Z M 150.0,151.4 L 125.1,151.5 L 165.8,176.9 Z M 99.3,135.4 L 85.4,110.5 L 76.5,158.2 Z M 238.9,160.3 L 235.9,130.8 L 218.1,134.5 Z" fill="#2a2a4e" stroke="none"/>
  <path d="M 86.6,220.7 L 107.2,248.1 M 121.8,27.7 L 119.5,30.5 M 119.5,30.5 L 117.9,27.4 M 117.9,27.4 L 121.8,27.7 M 102.6,29.5 L 106.4,28.2 M 106.4,28.2 L 105.6,31.6 M 105.6,31.6 L 102.6,29.5 M 35.4,162.0 L 38.2,164.3 M 38.2,164.3 L 35.1,165.9 M 35.1,165.9 L 35.4,162.0 M 37.2,181.2 L 36.0,177.5 M 36.0,177.5 L 39.3,178.2 M 39.3,178.2 L 37.2,181.2 M 209.2,292.8 L 211.0,289.6 M 211.0,289.6 L 213.1,292.4 M 213.1,292.4 L 209.2,292.8 M 227.8,287.7 L 224.3,289.6 M 224.3,289.6 L 224.5,286.1 M 224.5,286.1 L 227.8,287.7 M 82.9,183.5 L 86.6,220.7 M 20.0,158.2 L 20.0,183.5 M 20.0,183.5 L 82.9,183.5 M 76.5,158.2 L 20.0,158.2 M 316.1,130.8 L 316.1,105.5 M 316.1,105.5 L 273.8,105.5 M 273.8,130.8 L 316.1,130.8 M 273.8,105.5 L 235.2,105.5 M 235.9,130.8 L 273.8,130.8 M 165.8,176.9 L 181.8,160.4 M 169.1,133.7 L 150.0,151.4 M 235.2,105.5 L 206.3,68.7 M 206.3,68.7 L 172.6,68.3 M 172.6,68.3 L 164.6,91.5 M 164.6,91.5 L 169.1,133.7 M 215.2,189.9 L 238.9,160.3 M 181.8,160.4 L 189.4,197.7 M 99.9,89.6 L 85.4,110.5 M 143.4,121.8 L 125.2,88.7 M 208.3,293.9 L 233.5,294.4 M 233.5,294.4 L 233.5,230.6 M 208.3,234.3 L 208.3,293.9 M 233.5,230.6 L 215.2,189.9 M 189.4,197.7 L 208.3,234.3 M 328.7,215.2 L 299.2,229.8 M 379.4,300.0 L 328.7,215.2 M 299.2,229.8 L 277.6,261.3 M 277.6,261.3 L 273.7,294.6 M 141.8,250.9 L 163.4,223.4 M 163.4,223.4 L 165.8,176.9 M 150.0,151.4 L 143.4,121.8 M 125.1,20.0 L 99.4,20.0 M 99.4,20.0 L 99.9,89.6 M 125.2,88.7 L 125.1,20.0 M 273.7,294.6 L 288.2,380.0 M 288.2,380.0 L 379.4,300.0 M 107.2,248.1 L 141.8,250.9 M 85.4,110.5 L 76.5,158.2 M 238.9,160.3 L 235.9,130.8" fill="none" stroke="white" stroke-width="2" stroke-linecap="round"/>
  <polygon points="113.14406202237718,59.553926109574974 121.14406202237718,67.55392610957497 113.14406202237718,75.55392610957497 105.14406202237718,67.55392610957497" fill="#4a9eff" stroke="white" stroke-width="1"/>
<polygon points="68.26947770735313,163.02233089811315 76.26947770735313,171.02233089811315 68.26947770735313,179.02233089811315 60.26947770735313,171.02233089811315" fill="#4a9eff" stroke="white" stroke-width="1"/>
<polygon points="220.59429190651363,244.79494305737867 228.59429190651363,252.79494305737867 220.59429190651363,260.79494305737865 212.59429190651363,252.79494305737867" fill="#4a9eff" stroke="white" stroke-width="1"/>
<polygon points="251.75621757729365,110.53234700094816 259.7562175772937,118.53234700094816 251.75621757729365,126.53234700094816 243.75621757729365,118.53234700094816" fill="#4a9eff" stroke="white" stroke-width="1"/>
</svg>