<svg xmlns="http://www.w3.org/2000/svg" viewBox="0 0 400 400">
  <rect width="400" height="400" fill="#1a1a2e"/>
  <path d="M 126.3,175.5 L 135.0,234.4 L 168.3,201.3 Z M 126.3,175.5 L 168.3,201.3 L 159.7,169.7 Z M 190.9,229.1 L 205.3,277.0 L 252.1,240.2 Z M 199.9,139.9 L 163.3,123.3 L 159.7,169.7 Z M 58.5,87.6 L 23.5,113.8 L 62.3,137.3 Z M 133.3,22.3 L 130.4,25.9 L 128.3,22.0 Z M 108.8,24.5 L 113.6,23.0 L 112.6,27.3 Z M 173.0,380.0 L 205.3,380.0 L 205.3,326.1 Z M 173.0,380.0 L 205.3,326.1 L 173.0,326.1 Z M 173.0,326.1 L 205.3,326.1 L 205.3,277.0 Z M 173.0,326.1 L 205.3,277.0 L 173.0,277.8 Z M 173.0,277.8 L 135.0,234.4 L 82.7,272.9 Z M 135.0,234.4 L 45.9,248.5 L 82.7,272.9 Z M 159.7,169.7 L 168.3,201.3 L 199.9,139.9 Z M 168.3,201.3 L 190.9,229.1 L 199.9,139.9 Z M 199.9,139.9 L 190.9,229.1 L 252.1,240.2 Z M 23.5,113.8 L 20.0,157.8 L 62.3,137.3 Z M 20.0,157.8 L 126.3,175.5 L 62.3,137.3 Z M 62.3,137.3 L 126.3,175.5 L 163.3,123.3 Z M 126.3,175.5 L 159.7,169.7 L 163.3,123.3 Z M 20.0,157.8 L 40.6,198.5 L 126.3,175.5 Z M 40.6,198.5 L 135.0,234.4 L 126.3,175.5 Z M 252.1,240.2 L 254.4,144.9 L 199.9,139.9 Z M 254.4,144.9 L 228.7,122.5 L 199.9,139.9 Z M 199.9,139.9 L 228.7,122.5 L 198.9,86.0 Z M 163.3,123.3 L 199.9,139.9 L 198.9,86.0 Z M 163.3,123.3 L 198.9,86.0 L 138.1,74.7 Z M 105.8,20.0 L 105.8,82.8 L 138.1,74.7 Z M 105.8,20.0 L 138.1,74.7 L 138.1,20.0 Z M 168.3,201.3 L 135.0,234.4 L 173.0,277.8 Z M 168.3,201.3 L 173.0,277.8 L 190.9,229.1 Z M 105.8,82.8 L 58.5,87.6 L 62.3,137.3 Z M 163.3,123.3 L 105.8,82.8 L 62.3,137.3 Z M 205.3,277.0 L 190.9,229.1 L 173.0,277.8 Z M 138.1,74.7 L 105.8,82.8 L 163.3,123.3 Z M 40.6,198.5 L 45.9,248.5 L 135.0,234.4 Z" fill="#2a2a4e" stroke="none"/>
  <path d="M 205.3,277.0 L 252.1,240.2 M 58.5,87.6 L 23.5,113.8 M 133.3,22.3 L 130.4,25.9 M 130.4,25.9 L 128.3,22.0 M 128.3,22.0 L 133.3,22.3 M 108.8,24.5 L 113.6,23.0 M 113.6,23.0 L 112.6,27.3 M 112.6,27.3 L 108.8,24.5 M 173.0,380.0 L 205.3,380.0 M 205.3,380.0 L 205.3,326.1 M 173.0,326.1 L 173.0,380.0 M 205.3,326.1 L 205.3,277.0 M 173.0,277.8 L 173.0,326.1 M 82.7,272.9 L 173.0,277.8 M 45.9,248.5 L 82.7,272.9 M 23.5,113.8 L 20.0,157.8 M 20.0,157.8 L 40.6,198.5 M 252.1,240.2 L 254.4,144.9 M 254.4,144.9 L 228.7,122.5 M 228.7,122.5 L 198.9,86.0 M 198.9,86.0 L 138.1,74.7 M 105.8,20.0 L 105.8,82.8 M 138.1,74.7 L 138.1,20.0 M 138.1,20.0 L 105.8,20.0 M 105.8,82.8 L 58.5,87.6 M 40.6,198.5 L 45.9,248.5" fill="none" stroke="white" stroke-width="2" stroke-linecap="round"/>
  <polygon points="188.3911473157263,286.42278916452483 196.3911473157263,294.42278916452483 188.3911473157263,302.42278916452483 180.3911473157263,294.42278916452483" fill="#4a9eff" stroke="white" stroke-width="1"/>
<polygon points="121.16504686385079,58.99790519896564 129.1650468638508,66.99790519896564 121.16504686385079,74.99790519896564 113.16504686385079,66.99790519896564" fill="#4a9eff" stroke="white" stroke-width="1"/>
</svg>