<svg xmlns="http://www.w3.org/2000/svg" viewBox="0 0 400 400">
  <rect width="400" height="400" fill="#1a1a2e"/>
  <path d="M 174.6,251.8 L 179.6,237.9 L 154.3,235.0 Z M 174.6,251.8 L 154.3,235.0 L 161.7,250.7 Z M 196.7,160.2 L 196.2,153.1 L 177.9,148.0 Z M 196.7,160.2 L 177.9,148.0 L 178.1,165.6 Z M 154.3,235.0 L 179.6,237.9 L 163.4,219.6 Z M 179.6,237.9 L 170.7,219.6 L 163.4,219.6 Z M 181.9,186.6 L 189.2,184.9 L 196.7,160.2 Z M 181.9,186.6 L 196.7,160.2 L 178.1,165.6 Z M 238.1,235.6 L 245.9,216.1 L 221.8,215.0 Z M 238.1,235.6 L 221.8,215.0 L 231.2,235.8 Z M 177.9,148.0 L 166.9,157.0 L 178.1,165.6 Z M 245.9,216.1 L 234.7,206.1 L 221.8,215.0 Z M 160.0,196.0 L 160.0,210.7 L 176.0,210.7 Z M 160.0,196.0 L 176.0,210.7 L 176.0,196.0 Z M 202.7,164.0 L 217.3,164.0 L 217.3,148.0 Z M 202.7,164.0 L 217.3,148.0 L 202.7,148.0 Z M 250.9,215.8 L 242.2,207.2 L 233.6,215.8 Z M 250.9,215.8 L 233.6,215.8 L 242.2,224.4 Z M 173.7,183.6 L 183.0,191.4 L 190.9,182.1 Z M 173.7,183.6 L 190.9,182.1 L 181.5,174.3 Z M 316.9,121.5 L 315.7,20.0 L 200.0,20.0 Z M 316.9,121.5 L 200.0,20.0 L 201.6,72.7 Z M 201.6,72.7 L 200.0,20.0 L 20.0,20.0 Z M 201.6,72.7 L 20.0,20.0 L 96.9,99.2 Z M 315.7,20.0 L 316.9,121.5 L 380.0,20.0 Z M 316.9,121.5 L 380.0,231.7 L 380.0,20.0 Z M 316.9,121.5 L 316.9,184.7 L 380.0,231.7 Z M 316.9,184.7 L 316.9,235.5 L 380.0,231.7 Z M 380.0,231.7 L 316.9,235.5 L 380.0,380.0 Z M 316.9,235.5 L 283.8,311.2 L 380.0,380.0 Z M 380.0,380.0 L 283.8,311.2 L 200.0,380.0 Z M 283.8,311.2 L 210.5,311.2 L 200.0,380.0 Z M 200.0,380.0 L 210.5,311.2 L 20.0,380.0 Z M 210.5,311.2 L 129.6,303.5 L 20.0,380.0 Z M 20.0,380.0 L 129.6,303.5 L 20.0,223.3 Z M 129.6,303.5 L 96.9,230.9 L 20.0,223.3 Z M 20.0,223.3 L 96.9,230.9 L 20.0,121.6 Z M 96.9,230.9 L 96.9,99.2 L 20.0,121.6 Z M 20.0,121.6 L 96.9,99.2 L 20.0,20.0 Z M 179.8,261.1 L 198.5,250.6 L 189.0,236.3 Z M 198.5,250.6 L 198.5,231.9 L 189.0,236.3 Z M 189.0,236.3 L 198.5,231.9 L 176.0,210.7 Z M 217.3,148.0 L 217.3,164.0 L 232.1,135.8 Z M 217.3,164.0 L 247.2,141.5 L 232.1,135.8 Z M 247.2,141.5 L 217.3,164.0 L 255.3,176.3 Z M 217.3,164.0 L 234.7,196.0 L 255.3,176.3 Z M 255.3,176.3 L 234.7,196.0 L 255.3,197.3 Z M 234.7,196.0 L 255.3,213.3 L 255.3,197.3 Z M 154.7,173.3 L 154.7,157.3 L 124.0,157.3 Z M 154.7,173.3 L 124.0,157.3 L 124.0,173.3 Z M 284.0,197.3 L 255.3,197.3 L 255.3,213.3 Z M 284.0,197.3 L 255.3,213.3 L 284.0,213.3 Z M 242.7,280.0 L 242.7,244.7 L 226.7,244.7 Z M 242.7,280.0 L 226.7,244.7 L 226.7,280.0 Z M 154.7,173.3 L 160.0,196.0 L 176.0,196.0 Z M 154.7,173.3 L 176.0,196.0 L 170.0,169.2 Z M 154.7,173.3 L 170.0,169.2 L 154.7,157.3 Z M 217.3,164.0 L 211.0,212.7 L 234.7,196.0 Z M 234.7,196.0 L 211.0,212.7 L 234.7,206.1 Z M 211.0,212.7 L 221.8,215.0 L 234.7,206.1 Z M 154.3,235.0 L 163.4,219.6 L 160.0,210.7 Z M 154.3,235.0 L 160.0,210.7 L 145.3,234.7 Z M 170.7,219.6 L 176.0,210.7 L 160.0,210.7 Z M 170.7,219.6 L 160.0,210.7 L 163.4,219.6 Z M 154.3,235.0 L 145.3,234.7 L 156.1,258.6 Z M 154.3,235.0 L 156.1,258.6 L 161.7,250.7 Z M 161.7,250.7 L 156.1,258.6 L 179.8,261.1 Z M 161.7,250.7 L 179.8,261.1 L 174.6,251.8 Z M 179.8,261.1 L 189.0,236.3 L 179.6,237.9 Z M 179.8,261.1 L 179.6,237.9 L 174.6,251.8 Z M 179.6,237.9 L 189.0,236.3 L 176.0,210.7 Z M 179.6,237.9 L 176.0,210.7 L 170.7,219.6 Z M 177.9,148.0 L 196.2,153.1 L 202.7,148.0 Z M 177.9,148.0 L 202.7,148.0 L 174.3,139.3 Z M 154.7,157.3 L 166.9,157.0 L 177.9,148.0 Z M 154.7,157.3 L 177.9,148.0 L 174.3,139.3 Z M 181.9,186.6 L 176.0,196.0 L 194.0,191.4 Z M 181.9,186.6 L 194.0,191.4 L 189.2,184.9 Z M 194.0,191.4 L 202.7,164.0 L 196.7,160.2 Z M 194.0,191.4 L 196.7,160.2 L 189.2,184.9 Z M 196.7,160.2 L 202.7,164.0 L 202.7,148.0 Z M 196.7,160.2 L 202.7,148.0 L 196.2,153.1 Z M 178.1,165.6 L 170.0,169.2 L 176.0,196.0 Z M 178.1,165.6 L 176.0,196.0 L 181.9,186.6 Z M 178.1,165.6 L 166.9,157.0 L 154.7,157.3 Z M 178.1,165.6 L 154.7,157.3 L 170.0,169.2 Z M 226.7,244.7 L 242.7,244.7 L 238.1,235.6 Z M 226.7,244.7 L 238.1,235.6 L 231.2,235.8 Z M 255.3,213.3 L 234.7,196.0 L 234.7,206.1 Z M 255.3,213.3 L 234.7,206.1 L 245.9,216.1 Z M 221.8,215.0 L 211.0,212.7 L 226.7,244.7 Z M 221.8,215.0 L 226.7,244.7 L 231.2,235.8 Z M 245.9,216.1 L 238.1,235.6 L 242.7,244.7 Z M 245.9,216.1 L 242.7,244.7 L 255.3,213.3 Z" fill="#2a2a4e" stroke="none"/>
  <path d="M 160.0,196.0 L 160.0,210.7 M 176.0,210.7 L 176.0,196.0 M 202.7,164.0 L 217.3,164.0 M 217.3,148.0 L 202.7,148.0 M 250.9,215.8 L 242.2,207.2 M 242.2,207.2 L 233.6,215.8 M 233.6,215.8 L 242.2,224.4 M 242.2,224.4 L 250.9,215.8 M 173.7,183.6 L 183.0,191.4 M 183.0,191.4 L 190.9,182.1 M 190.9,182.1 L 181.5,174.3 M 181.5,174.3 L 173.7,183.6 M 315.7,20.0 L 200.0,20.0 M 201.6,72.7 L 316.9,121.5 M 200.0,20.0 L 20.0,20.0 M 96.9,99.2 L 201.6,72.7 M 380.0,20.0 L 315.7,20.0 M 380.0,231.7 L 380.0,20.0 M 316.9,121.5 L 316.9,184.7 M 316.9,184.7 L 316.9,235.5 M 380.0,380.0 L 380.0,231.7 M 316.9,235.5 L 283.8,311.2 M 200.0,380.0 L 380.0,380.0 M 283.8,311.2 L 210.5,311.2 M 20.0,380.0 L 200.0,380.0 M 210.5,311.2 L 129.6,303.5 M 20.0,223.3 L 20.0,380.0 M 129.6,303.5 L 96.9,230.9 M 20.0,121.6 L 20.0,223.3 M 96.9,230.9 L 96.9,99.2 M 20.0,20.0 L 20.0,121.6 M 179.8,261.1 L 198.5,250.6 M 198.5,250.6 L 198.5,231.9 M 198.5,231.9 L 176.0,210.7 M 232.1,135.8 L 217.3,148.0 M 247.2,141.5 L 232.1,135.8 M 255.3,176.3 L 247.2,141.5 M 255.3,197.3 L 255.3,176.3 M 154.7,157.3 L 124.0,157.3 M 124.0,157.3 L 124.0,173.3 M 124.0,173.3 L 154.7,173.3 M 284.0,197.3 L 255.3,197.3 M 255.3,213.3 L 284.0,213.3 M 284.0,213.3 L 284.0,197.3 M 242.7,280.0 L 242.7,244.7 M 226.7,244.7 L 226.7,280.0 M 226.7,280.0 L 242.7,280.0 M 154.7,173.3 L 160.0,196.0 M 217.3,164.0 L 211.0,212.7 M 160.0,210.7 L 145.3,234.7 M 145.3,234.7 L 156.1,258.6 M 156.1,258.6 L 179.8,261.1 M 202.7,148.0 L 174.3,139.3 M 174.3,139.3 L 154.7,157.3 M 176.0,196.0 L 194.0,191.4 M 194.0,191.4 L 202.7,164.0 M 211.0,212.7 L 226.7,244.7 M 242.7,244.7 L 255.3,213.3" fill="none" stroke="white" stroke-width="2" stroke-linecap="round"/>
  <polygon points="147.35124314372064,157.77556269343899 155.35124314372064,165.77556269343899 147.35124314372064,173.77556269343899 139.35124314372064,165.77556269343899" fill="#4a9eff" stroke="white" stroke-width="1"/>
<polygon points="264.44004814393475,197.37015614255438 272.44004814393475,205.37015614255438 264.44004814393475,213.37015614255438 256.44004814393475,205.37015614255438" fill="#4a9eff" stroke="white" stroke-width="1"/>
<polygon points="234.35229322402336,242.4049321359746 242.35229322402336,250.4049321359746 234.35229322402336,258.4049321359746 226.35229322402336,250.4049321359746" fill="#4a9eff" stroke="white" stroke-width="1"/>
</svg>