<svg xmlns="http://www.w3.org/2000/svg" viewBox="0 0 400 400">
  <rect width="400" height="400" fill="#1a1a2e"/>
  <path d="M 73.1,113.5 L 70.6,85.7 L 42.9,117.9 Z M 70.6,85.7 L 38.8,88.3 L 42.9,117.9 Z M 160.9,142.7 L 180.2,160.4 L 196.8,139.7 Z M 160.9,142.7 L 196.8,139.7 L 177.9,122.7 Z M 183.7,96.5 L 179.8,69.3 L 151.9,71.1 Z M 183.7,96.5 L 151.9,71.1 L 155.4,97.3 Z M 97.2,81.8 L 70.6,85.7 L 73.1,113.5 Z M 97.2,81.8 L 73.1,113.5 L 104.8,116.1 Z M 31.7,196.0 L 55.4,227.7 L 67.2,191.8 Z M 66.6,151.7 L 67.2,191.8 L 98.6,169.7 Z M 150.3,169.5 L 180.2,160.4 L 160.9,142.7 Z M 177.9,122.7 L 183.7,96.5 L 155.4,97.3 Z M 42.9,117.9 L 27.3,153.1 L 66.6,151.7 Z M 173.2,279.3 L 175.3,275.6 L 177.8,278.8 Z M 194.7,273.5 L 190.7,275.6 L 190.9,271.6 Z M 70.1,102.2 L 64.9,99.6 L 62.2,105.0 Z M 70.1,102.2 L 62.2,105.0 L 67.4,107.6 Z M 60.1,96.9 L 58.3,93.7 L 54.9,95.5 Z M 60.1,96.9 L 54.9,95.5 L 56.7,98.8 Z M 55.8,91.5 L 54.3,94.5 L 57.3,95.9 Z M 55.8,91.5 L 57.3,95.9 L 58.8,93.0 Z M 54.2,93.7 L 52.3,96.7 L 55.5,98.7 Z M 54.2,93.7 L 55.5,98.7 L 57.4,95.7 Z M 77.3,91.0 L 74.7,96.2 L 80.1,98.8 Z M 77.3,91.0 L 80.1,98.8 L 82.7,93.6 Z M 93.9,94.7 L 92.1,91.4 L 88.7,93.3 Z M 93.9,94.7 L 88.7,93.3 L 90.5,96.6 Z M 89.7,89.3 L 88.2,92.2 L 91.2,93.7 Z M 89.7,89.3 L 91.2,93.7 L 92.7,90.8 Z M 88.1,91.4 L 86.2,94.5 L 89.3,96.5 Z M 88.1,91.4 L 89.3,96.5 L 91.2,93.5 Z M 194.8,139.4 L 189.2,137.7 L 187.6,143.5 Z M 194.8,139.4 L 187.6,143.5 L 193.1,145.2 Z M 186.2,146.4 L 181.3,148.0 L 183.0,153.1 Z M 186.2,146.4 L 183.0,153.1 L 188.0,151.5 Z M 178.0,150.5 L 181.7,153.3 L 184.2,149.9 Z M 178.0,150.5 L 184.2,149.9 L 180.5,147.1 Z M 180.3,153.6 L 184.2,156.6 L 187.5,153.1 Z M 180.3,153.6 L 187.5,153.1 L 183.9,149.8 Z M 167.4,84.4 L 161.7,86.9 L 164.3,92.8 Z M 167.4,84.4 L 164.3,92.8 L 170.0,90.3 Z M 94.9,170.4 L 93.1,167.1 L 89.7,169.0 Z M 94.9,170.4 L 89.7,169.0 L 91.4,172.3 Z M 90.6,165.0 L 89.1,167.9 L 92.1,169.4 Z M 90.6,165.0 L 92.1,169.4 L 93.6,166.5 Z M 89.0,167.2 L 87.1,170.2 L 90.2,172.2 Z M 89.0,167.2 L 90.2,172.2 L 92.1,169.2 Z M 66.6,151.7 L 98.6,169.7 L 123.1,145.5 Z M 66.6,151.7 L 123.1,145.5 L 104.8,116.1 Z M 104.8,116.1 L 123.1,145.5 L 141.6,126.4 Z M 104.8,116.1 L 141.6,126.4 L 126.9,95.6 Z M 126.9,95.6 L 141.6,126.4 L 155.4,97.3 Z M 126.9,95.6 L 155.4,97.3 L 151.9,71.1 Z M 311.2,189.7 L 277.1,206.6 L 369.7,287.7 Z M 277.1,206.6 L 252.2,243.0 L 369.7,287.7 Z M 369.7,287.7 L 252.2,243.0 L 247.7,281.3 Z M 104.8,116.1 L 73.1,113.5 L 66.6,151.7 Z M 73.1,113.5 L 42.9,117.9 L 66.6,151.7 Z M 126.9,95.6 L 151.9,71.1 L 121.7,46.8 Z M 151.9,71.1 L 131.0,20.0 L 121.7,46.8 Z M 47.0,44.7 L 70.6,85.7 L 76.2,43.5 Z M 70.6,85.7 L 97.2,81.8 L 76.2,43.5 Z M 30.2,68.8 L 20.0,123.9 L 38.8,88.3 Z M 20.0,123.9 L 42.9,117.9 L 38.8,88.3 Z M 203.3,63.0 L 169.9,20.6 L 179.8,69.3 Z M 169.9,20.6 L 151.9,71.1 L 179.8,69.3 Z M 203.3,63.0 L 179.8,69.3 L 183.7,96.5 Z M 203.3,63.0 L 183.7,96.5 L 204.1,92.2 Z M 30.2,68.8 L 38.8,88.3 L 70.6,85.7 Z M 30.2,68.8 L 70.6,85.7 L 47.0,44.7 Z M 98.6,169.7 L 67.2,191.8 L 95.3,230.9 Z M 98.6,169.7 L 95.3,230.9 L 120.4,199.1 Z M 172.2,211.7 L 201.3,207.5 L 180.2,160.4 Z M 172.2,211.7 L 180.2,160.4 L 150.3,169.5 Z M 172.2,295.2 L 201.3,295.7 L 201.3,207.5 Z M 172.2,295.2 L 201.3,207.5 L 172.2,211.7 Z M 66.6,151.7 L 27.3,153.1 L 31.7,196.0 Z M 66.6,151.7 L 31.7,196.0 L 67.2,191.8 Z M 183.7,96.5 L 177.9,122.7 L 196.8,139.7 Z M 183.7,96.5 L 196.8,139.7 L 207.5,126.3 Z M 160.9,142.7 L 177.9,122.7 L 155.4,97.3 Z M 160.9,142.7 L 155.4,97.3 L 141.6,126.4 Z M 247.7,281.3 L 264.5,380.0 L 369.7,287.7 Z M 95.3,230.9 L 67.2,191.8 L 55.4,227.7 Z M 207.5,126.3 L 204.1,92.2 L 183.7,96.5 Z M 120.4,199.1 L 123.1,145.5 L 98.6,169.7 Z M 160.9,142.7 L 141.6,126.4 L 150.3,169.5 Z M 151.9,71.1 L 169.9,20.6 L 131.0,20.0 Z M 20.0,123.9 L 27.3,153.1 L 42.9,117.9 Z" fill="#2a2a4e" stroke="none"/>
  <path d="M 180.2,160.4 L 196.8,139.7 M 104.8,116.1 L 97.2,81.8 M 31.7,196.0 L 55.4,227.7 M 173.2,279.3 L 175.3,275.6 M 175.3,275.6 L 177.8,278.8 M 177.8,278.8 L 173.2,279.3 M 194.7,273.5 L 190.7,275.6 M 190.7,275.6 L 190.9,271.6 M 190.9,271.6 L 194.7,273.5 M 70.1,102.2 L 64.9,99.6 M 64.9,99.6 L 62.2,105.0 M 62.2,105.0 L 67.4,107.6 M 67.4,107.6 L 70.1,102.2 M 60.1,96.9 L 58.3,93.7 M 58.3,93.7 L 54.9,95.5 M 54.9,95.5 L 56.7,98.8 M 56.7,98.8 L 60.1,96.9 M 55.8,91.5 L 54.3,94.5 M 54.3,94.5 L 57.3,95.9 M 57.3,95.9 L 58.8,93.0 M 58.8,93.0 L 55.8,91.5 M 54.2,93.7 L 52.3,96.7 M 52.3,96.7 L 55.5,98.7 M 55.5,98.7 L 57.4,95.7 M 57.4,95.7 L 54.2,93.7 M 77.3,91.0 L 74.7,96.2 M 74.7,96.2 L 80.1,98.8 M 80.1,98.8 L 82.7,93.6 M 82.7,93.6 L 77.3,91.0 M 93.9,94.7 L 92.1,91.4 M 92.1,91.4 L 88.7,93.3 M 88.7,93.3 L 90.5,96.6 M 90.5,96.6 L 93.9,94.7 M 89.7,89.3 L 88.2,92.2 M 88.2,92.2 L 91.2,93.7 M 91.2,93.7 L 92.7,90.8 M 92.7,90.8 L 89.7,89.3 M 88.1,91.4 L 86.2,94.5 M 86.2,94.5 L 89.3,96.5 M 89.3,96.5 L 91.2,93.5 M 91.2,93.5 L 88.1,91.4 M 194.8,139.4 L 189.2,137.7 M 189.2,137.7 L 187.6,143.5 M 187.6,143.5 L 193.1,145.2 M 193.1,145.2 L 194.8,139.4 M 186.2,146.4 L 181.3,148.0 M 181.3,148.0 L 183.0,153.1 M 183.0,153.1 L 188.0,151.5 M 188.0,151.5 L 186.2,146.4 M 178.0,150.5 L 181.7,153.3 M 181.7,153.3 L 184.2,149.9 M 184.2,149.9 L 180.5,147.1 M 180.5,147.1 L 178.0,150.5 M 180.3,153.6 L 184.2,156.6 M 184.2,156.6 L 187.5,153.1 M 187.5,153.1 L 183.9,149.8 M 183.9,149.8 L 180.3,153.6 M 167.4,84.4 L 161.7,86.9 M 161.7,86.9 L 164.3,92.8 M 164.3,92.8 L 170.0,90.3 M 170.0,90.3 L 167.4,84.4 M 94.9,170.4 L 93.1,167.1 M 93.1,167.1 L 89.7,169.0 M 89.7,169.0 L 91.4,172.3 M 91.4,172.3 L 94.9,170.4 M 90.6,165.0 L 89.1,167.9 M 89.1,167.9 L 92.1,169.4 M 92.1,169.4 L 93.6,166.5 M 93.6,166.5 L 90.6,165.0 M 89.0,167.2 L 87.1,170.2 M 87.1,170.2 L 90.2,172.2 M 90.2,172.2 L 92.1,169.2 M 92.1,169.2 L 89.0,167.2 M 123.1,145.5 L 141.6,126.4 M 126.9,95.6 L 104.8,116.1 M 311.2,189.7 L 277.1,206.6 M 369.7,287.7 L 311.2,189.7 M 277.1,206.6 L 252.2,243.0 M 252.2,243.0 L 247.7,281.3 M 121.7,46.8 L 126.9,95.6 M 131.0,20.0 L 121.7,46.8 M 76.2,43.5 L 47.0,44.7 M 97.2,81.8 L 76.2,43.5 M 30.2,68.8 L 20.0,123.9 M 203.3,63.0 L 169.9,20.6 M 204.1,92.2 L 203.3,63.0 M 47.0,44.7 L 30.2,68.8 M 95.3,230.9 L 120.4,199.1 M 201.3,207.5 L 180.2,160.4 M 150.3,169.5 L 172.2,211.7 M 172.2,295.2 L 201.3,295.7 M 201.3,295.7 L 201.3,207.5 M 172.2,211.7 L 172.2,295.2 M 27.3,153.1 L 31.7,196.0 M 196.8,139.7 L 207.5,126.3 M 247.7,281.3 L 264.5,380.0 M 264.5,380.0 L 369.7,287.7 M 55.4,227.7 L 95.3,230.9 M 207.5,126.3 L 204.1,92.2 M 120.4,199.1 L 123.1,145.5 M 141.6,126.4 L 150.3,169.5 M 169.9,20.6 L 131.0,20.0 M 20.0,123.9 L 27.3,153.1" fill="none" stroke="white" stroke-width="2" stroke-linecap="round"/>
  <polygon points="186.98189018772592,218.262005899916 194.98189018772592,226.262005899916 186.98189018772592,234.262005899916 178.98189018772592,226.262005899916" fill="#4a9eff" stroke="white" stroke-width="1"/>
</svg>