<svg xmlns="http://www.w3.org/2000/svg" viewBox="0 0 400 400">
  <rect width="400" height="400" fill="#1a1a2e"/>
  <path d="M 240.4,225.5 L 211.3,225.4 L 230.1,252.0 Z M 240.4,225.5 L 230.1,252.0 L 243.6,240.8 Z M 243.2,180.4 L 247.9,169.2 L 247.9,161.5 Z M 243.2,180.4 L 247.9,161.5 L 234.6,149.4 Z M 151.8,175.7 L 149.2,209.5 L 163.8,178.9 Z M 149.2,209.5 L 157.7,233.4 L 172.1,226.6 Z M 248.0,217.3 L 248.0,189.3 L 232.0,189.3 Z M 248.0,217.3 L 232.0,189.3 L 232.0,217.3 Z M 190.3,252.0 L 230.1,252.0 L 192.0,237.4 Z M 230.1,252.0 L 211.3,225.4 L 192.0,237.4 Z M 234.3,180.4 L 234.6,149.4 L 222.8,147.7 Z M 234.3,180.4 L 222.8,147.7 L 216.8,162.1 Z M 163.8,178.9 L 149.2,209.5 L 172.1,226.6 Z M 234.6,149.4 L 234.3,180.4 L 243.2,180.4 Z M 163.3,226.4 L 175.5,226.4 L 175.5,214.2 Z M 163.3,226.4 L 175.5,214.2 L 163.3,214.2 Z M 215.1,237.2 L 222.1,227.2 L 212.1,220.2 Z M 215.1,237.2 L 212.1,220.2 L 205.1,230.2 Z M 219.5,174.3 L 226.5,164.3 L 216.5,157.3 Z M 219.5,174.3 L 216.5,157.3 L 209.5,167.3 Z M 20.0,380.0 L 114.1,280.4 L 20.0,185.5 Z M 114.1,280.4 L 79.1,187.6 L 20.0,185.5 Z M 20.0,185.5 L 79.1,187.6 L 114.1,98.9 Z M 201.6,82.3 L 309.6,124.9 L 315.7,20.0 Z M 309.6,124.9 L 380.0,127.7 L 315.7,20.0 Z M 114.1,280.4 L 20.0,380.0 L 207.0,297.2 Z M 20.0,380.0 L 380.0,380.0 L 207.0,297.2 Z M 207.0,297.2 L 380.0,380.0 L 279.8,274.3 Z M 380.0,380.0 L 309.6,210.4 L 279.8,274.3 Z M 20.0,185.5 L 114.1,98.9 L 20.0,20.0 Z M 114.1,98.9 L 201.6,82.3 L 20.0,20.0 Z M 20.0,20.0 L 201.6,82.3 L 171.1,20.0 Z M 201.6,82.3 L 315.7,20.0 L 171.1,20.0 Z M 380.0,380.0 L 380.0,127.7 L 309.6,210.4 Z M 380.0,127.7 L 309.6,124.9 L 309.6,210.4 Z M 217.5,138.9 L 197.5,149.4 L 207.0,163.7 Z M 197.5,149.4 L 197.5,168.1 L 207.0,163.7 Z M 207.0,163.7 L 197.5,168.1 L 232.0,189.3 Z M 284.0,157.3 L 256.0,157.3 L 256.0,173.3 Z M 284.0,157.3 L 256.0,173.3 L 284.0,173.3 Z M 173.3,149.3 L 157.3,149.3 L 143.4,163.1 Z M 173.3,149.3 L 143.4,163.1 L 173.3,172.0 Z M 157.3,149.3 L 173.3,149.3 L 173.3,120.0 Z M 157.3,149.3 L 173.3,120.0 L 157.3,120.0 Z M 151.6,246.8 L 179.8,260.8 L 183.2,232.3 Z M 183.2,232.3 L 207.4,217.3 L 173.3,172.0 Z M 143.4,163.1 L 139.4,210.7 L 149.2,209.5 Z M 143.4,163.1 L 149.2,209.5 L 151.8,175.7 Z M 247.9,169.2 L 243.2,180.4 L 248.0,189.3 Z M 247.9,169.2 L 248.0,189.3 L 256.0,173.3 Z M 234.3,180.4 L 232.0,189.3 L 248.0,189.3 Z M 234.3,180.4 L 248.0,189.3 L 243.2,180.4 Z M 179.8,260.8 L 233.7,260.8 L 230.1,252.0 Z M 179.8,260.8 L 230.1,252.0 L 190.3,252.0 Z M 230.1,252.0 L 233.7,260.8 L 253.6,244.1 Z M 230.1,252.0 L 253.6,244.1 L 243.6,240.8 Z M 243.6,240.8 L 253.6,244.1 L 248.0,217.3 Z M 243.6,240.8 L 248.0,217.3 L 240.4,225.5 Z M 163.8,178.9 L 172.1,226.6 L 183.2,232.3 Z M 163.8,178.9 L 183.2,232.3 L 173.3,172.0 Z M 207.4,217.3 L 211.3,225.4 L 240.4,225.5 Z M 207.4,217.3 L 240.4,225.5 L 232.0,217.3 Z M 247.9,161.5 L 256.0,157.3 L 238.9,141.4 Z M 247.9,161.5 L 238.9,141.4 L 234.6,149.4 Z M 234.6,149.4 L 238.9,141.4 L 217.5,138.9 Z M 234.6,149.4 L 217.5,138.9 L 222.8,147.7 Z M 192.0,237.4 L 211.3,225.4 L 207.4,217.3 Z M 192.0,237.4 L 207.4,217.3 L 183.2,232.3 Z M 179.8,260.8 L 190.3,252.0 L 192.0,237.4 Z M 179.8,260.8 L 192.0,237.4 L 183.2,232.3 Z M 157.7,233.4 L 149.2,209.5 L 139.4,210.7 Z M 157.7,233.4 L 139.4,210.7 L 151.6,246.8 Z M 256.0,157.3 L 247.9,161.5 L 247.9,169.2 Z M 256.0,157.3 L 247.9,169.2 L 256.0,173.3 Z M 151.8,175.7 L 163.8,178.9 L 173.3,172.0 Z M 151.8,175.7 L 173.3,172.0 L 143.4,163.1 Z M 183.2,232.3 L 172.1,226.6 L 157.7,233.4 Z M 183.2,232.3 L 157.7,233.4 L 151.6,246.8 Z M 217.5,138.9 L 207.0,163.7 L 216.8,162.1 Z M 217.5,138.9 L 216.8,162.1 L 222.8,147.7 Z M 216.8,162.1 L 207.0,163.7 L 232.0,189.3 Z M 216.8,162.1 L 232.0,189.3 L 234.3,180.4 Z M 240.4,225.5 L 248.0,217.3 L 232.0,217.3 Z" fill="#2a2a4e" stroke="none"/>
  <path d="M 248.0,217.3 L 248.0,189.3 M 232.0,189.3 L 232.0,217.3 M 163.3,226.4 L 175.5,226.4 M 175.5,226.4 L 175.5,214.2 M 175.5,214.2 L 163.3,214.2 M 163.3,214.2 L 163.3,226.4 M 215.1,237.2 L 222.1,227.2 M 222.1,227.2 L 212.1,220.2 M 212.1,220.2 L 205.1,230.2 M 205.1,230.2 L 215.1,237.2 M 219.5,174.3 L 226.5,164.3 M 226.5,164.3 L 216.5,157.3 M 216.5,157.3 L 209.5,167.3 M 209.5,167.3 L 219.5,174.3 M 20.0,185.5 L 20.0,380.0 M 114.1,280.4 L 79.1,187.6 M 79.1,187.6 L 114.1,98.9 M 201.6,82.3 L 309.6,124.9 M 380.0,127.7 L 315.7,20.0 M 207.0,297.2 L 114.1,280.4 M 20.0,380.0 L 380.0,380.0 M 279.8,274.3 L 207.0,297.2 M 309.6,210.4 L 279.8,274.3 M 20.0,20.0 L 20.0,185.5 M 114.1,98.9 L 201.6,82.3 M 171.1,20.0 L 20.0,20.0 M 315.7,20.0 L 171.1,20.0 M 380.0,380.0 L 380.0,127.7 M 309.6,124.9 L 309.6,210.4 M 217.5,138.9 L 197.5,149.4 M 197.5,149.4 L 197.5,168.1 M 197.5,168.1 L 232.0,189.3 M 284.0,157.3 L 256.0,157.3 M 256.0,173.3 L 284.0,173.3 M 284.0,173.3 L 284.0,157.3 M 157.3,149.3 L 143.4,163.1 M 173.3,172.0 L 173.3,149.3 M 173.3,149.3 L 173.3,120.0 M 173.3,120.0 L 157.3,120.0 M 157.3,120.0 L 157.3,149.3 M 151.6,246.8 L 179.8,260.8 M 207.4,217.3 L 173.3,172.0 M 143.4,163.1 L 139.4,210.7 M 248.0,189.3 L 256.0,173.3 M 179.8,260.8 L 233.7,260.8 M 233.7,260.8 L 253.6,244.1 M 253.6,244.1 L 248.0,217.3 M 232.0,217.3 L 207.4,217.3 M 256.0,157.3 L 238.9,141.4 M 238.9,141.4 L 217.5,138.9 M 139.4,210.7 L 151.6,246.8" fill="none" stroke="white" stroke-width="2" stroke-linecap="round"/>
  <polygon points="260.63259376734993,157.291448758081 268.63259376734993,165.291448758081 260.63259376734993,173.291448758081 252.63259376734993,165.291448758081" fill="#4a9eff" stroke="white" stroke-width="1"/>
<polygon points="165.24370523378838,136.31523436209272 173.24370523378838,144.31523436209272 165.24370523378838,152.31523436209272 157.24370523378838,144.31523436209272" fill="#4a9eff" stroke="white" stroke-width="1"/>
</svg>