<svg xmlns="http://www.w3.org/2000/svg" viewBox="0 0 400 400">
  <rect width="400" height="400" fill="#1a1a2e"/>
  <path d="M 182.7,248.0 L 210.7,248.0 L 210.7,232.0 Z M 182.7,248.0 L 210.7,232.0 L 182.7,232.0 Z M 174.5,240.4 L 174.6,211.3 L 148.0,230.1 Z M 174.5,240.4 L 148.0,230.1 L 159.2,243.6 Z M 219.6,243.2 L 230.8,247.9 L 238.5,247.9 Z M 219.6,243.2 L 238.5,247.9 L 250.6,234.6 Z M 224.3,151.8 L 190.5,149.2 L 221.1,163.8 Z M 190.5,149.2 L 166.6,157.7 L 173.4,172.1 Z M 148.0,190.3 L 148.0,230.1 L 162.6,192.0 Z M 148.0,230.1 L 174.6,211.3 L 162.6,192.0 Z M 219.6,234.3 L 250.6,234.6 L 252.3,222.8 Z M 219.6,234.3 L 252.3,222.8 L 237.9,216.8 Z M 221.1,163.8 L 190.5,149.2 L 173.4,172.1 Z M 250.6,234.6 L 219.6,234.3 L 219.6,243.2 Z M 172.9,163.0 L 172.9,175.2 L 185.1,175.2 Z M 172.9,163.0 L 185.1,175.2 L 185.1,163.0 Z M 176.9,210.4 L 164.9,212.3 L 166.8,224.3 Z M 176.9,210.4 L 166.8,224.3 L 178.8,222.4 Z M 227.2,218.8 L 237.2,225.8 L 244.2,215.8 Z M 227.2,218.8 L 244.2,215.8 L 234.2,208.8 Z M 159.8,230.3 L 153.7,219.8 L 143.2,226.0 Z M 159.8,230.3 L 143.2,226.0 L 149.3,236.5 Z M 209.2,163.8 L 219.0,171.1 L 226.2,161.2 Z M 209.2,163.8 L 226.2,161.2 L 216.4,154.0 Z M 243.2,246.8 L 253.9,240.9 L 248.0,230.2 Z M 243.2,246.8 L 248.0,230.2 L 237.3,236.1 Z M 20.0,20.0 L 119.6,114.1 L 214.5,20.0 Z M 119.6,114.1 L 212.4,79.1 L 214.5,20.0 Z M 214.5,20.0 L 212.4,79.1 L 301.1,114.1 Z M 317.7,201.6 L 275.1,309.6 L 380.0,315.7 Z M 275.1,309.6 L 272.3,380.0 L 380.0,315.7 Z M 119.6,114.1 L 20.0,20.0 L 102.8,207.0 Z M 20.0,20.0 L 20.0,380.0 L 102.8,207.0 Z M 102.8,207.0 L 20.0,380.0 L 125.7,279.8 Z M 20.0,380.0 L 189.6,309.6 L 125.7,279.8 Z M 214.5,20.0 L 301.1,114.1 L 380.0,20.0 Z M 301.1,114.1 L 317.7,201.6 L 380.0,20.0 Z M 380.0,20.0 L 317.7,201.6 L 380.0,171.1 Z M 317.7,201.6 L 380.0,315.7 L 380.0,171.1 Z M 20.0,380.0 L 272.3,380.0 L 189.6,309.6 Z M 272.3,380.0 L 275.1,309.6 L 189.6,309.6 Z M 261.1,217.5 L 250.6,197.5 L 236.3,207.0 Z M 250.6,197.5 L 231.9,197.5 L 236.3,207.0 Z M 236.3,207.0 L 231.9,197.5 L 210.7,232.0 Z M 242.7,284.0 L 242.7,256.0 L 226.7,256.0 Z M 242.7,284.0 L 226.7,256.0 L 226.7,284.0 Z M 247.6,173.3 L 254.2,157.3 L 236.9,143.4 Z M 247.6,173.3 L 236.9,143.4 L 228.0,173.3 Z M 153.2,151.6 L 139.3,179.8 L 167.7,183.2 Z M 167.7,183.2 L 182.7,207.4 L 228.0,173.3 Z M 236.9,143.4 L 189.3,139.4 L 190.5,149.2 Z M 236.9,143.4 L 190.5,149.2 L 224.3,151.8 Z M 230.8,247.9 L 219.6,243.2 L 210.7,248.0 Z M 230.8,247.9 L 210.7,248.0 L 226.7,256.0 Z M 219.6,234.3 L 210.7,232.0 L 210.7,248.0 Z M 219.6,234.3 L 210.7,248.0 L 219.6,243.2 Z M 139.3,179.8 L 139.3,233.7 L 148.0,230.1 Z M 139.3,179.8 L 148.0,230.1 L 148.0,190.3 Z M 148.0,230.1 L 139.3,233.7 L 155.9,253.6 Z M 148.0,230.1 L 155.9,253.6 L 159.2,243.6 Z M 159.2,243.6 L 155.9,253.6 L 182.7,248.0 Z M 159.2,243.6 L 182.7,248.0 L 174.5,240.4 Z M 221.1,163.8 L 173.4,172.1 L 167.7,183.2 Z M 221.1,163.8 L 167.7,183.2 L 228.0,173.3 Z M 182.7,207.4 L 174.6,211.3 L 174.5,240.4 Z M 182.7,207.4 L 174.5,240.4 L 182.7,232.0 Z M 238.5,247.9 L 242.7,256.0 L 258.6,238.9 Z M 238.5,247.9 L 258.6,238.9 L 250.6,234.6 Z M 250.6,234.6 L 258.6,238.9 L 261.1,217.5 Z M 250.6,234.6 L 261.1,217.5 L 252.3,222.8 Z M 162.6,192.0 L 174.6,211.3 L 182.7,207.4 Z M 162.6,192.0 L 182.7,207.4 L 167.7,183.2 Z M 139.3,179.8 L 148.0,190.3 L 162.6,192.0 Z M 139.3,179.8 L 162.6,192.0 L 167.7,183.2 Z M 166.6,157.7 L 190.5,149.2 L 189.3,139.4 Z M 166.6,157.7 L 189.3,139.4 L 153.2,151.6 Z M 242.7,256.0 L 238.5,247.9 L 230.8,247.9 Z M 242.7,256.0 L 230.8,247.9 L 226.7,256.0 Z M 224.3,151.8 L 221.1,163.8 L 228.0,173.3 Z M 224.3,151.8 L 228.0,173.3 L 236.9,143.4 Z M 167.7,183.2 L 173.4,172.1 L 166.6,157.7 Z M 167.7,183.2 L 166.6,157.7 L 153.2,151.6 Z M 261.1,217.5 L 236.3,207.0 L 237.9,216.8 Z M 261.1,217.5 L 237.9,216.8 L 252.3,222.8 Z M 237.9,216.8 L 236.3,207.0 L 210.7,232.0 Z M 237.9,216.8 L 210.7,232.0 L 219.6,234.3 Z M 174.5,240.4 L 182.7,248.0 L 182.7,232.0 Z" fill="#2a2a4e" stroke="none"/>
  <path d="M 182.7,248.0 L 210.7,248.0 M 210.7,232.0 L 182.7,232.0 M 172.9,163.0 L 172.9,175.2 M 172.9,175.2 L 185.1,175.2 M 185.1,175.2 L 185.1,163.0 M 185.1,163.0 L 172.9,163.0 M 176.9,210.4 L 164.9,212.3 M 164.9,212.3 L 166.8,224.3 M 166.8,224.3 L 178.8,222.4 M 178.8,222.4 L 176.9,210.4 M 227.2,218.8 L 237.2,225.8 M 237.2,225.8 L 244.2,215.8 M 244.2,215.8 L 234.2,208.8 M 234.2,208.8 L 227.2,218.8 M 159.8,230.3 L 153.7,219.8 M 153.7,219.8 L 143.2,226.0 M 143.2,226.0 L 149.3,236.5 M 149.3,236.5 L 159.8,230.3 M 209.2,163.8 L 219.0,171.1 M 219.0,171.1 L 226.2,161.2 M 226.2,161.2 L 216.4,154.0 M 216.4,154.0 L 209.2,163.8 M 243.2,246.8 L 253.9,240.9 M 253.9,240.9 L 248.0,230.2 M 248.0,230.2 L 237.3,236.1 M 237.3,236.1 L 243.2,246.8 M 214.5,20.0 L 20.0,20.0 M 119.6,114.1 L 212.4,79.1 M 212.4,79.1 L 301.1,114.1 M 317.7,201.6 L 275.1,309.6 M 272.3,380.0 L 380.0,315.7 M 102.8,207.0 L 119.6,114.1 M 20.0,20.0 L 20.0,380.0 M 125.7,279.8 L 102.8,207.0 M 189.6,309.6 L 125.7,279.8 M 380.0,20.0 L 214.5,20.0 M 301.1,114.1 L 317.7,201.6 M 380.0,171.1 L 380.0,20.0 M 380.0,315.7 L 380.0,171.1 M 20.0,380.0 L 272.3,380.0 M 275.1,309.6 L 189.6,309.6 M 261.1,217.5 L 250.6,197.5 M 250.6,197.5 L 231.9,197.5 M 231.9,197.5 L 210.7,232.0 M 242.7,284.0 L 242.7,256.0 M 226.7,256.0 L 226.7,284.0 M 226.7,284.0 L 242.7,284.0 M 247.6,173.3 L 254.2,157.3 M 254.2,157.3 L 236.9,143.4 M 228.0,173.3 L 247.6,173.3 M 153.2,151.6 L 139.3,179.8 M 182.7,207.4 L 228.0,173.3 M 236.9,143.4 L 189.3,139.4 M 210.7,248.0 L 226.7,256.0 M 139.3,179.8 L 139.3,233.7 M 139.3,233.7 L 155.9,253.6 M 155.9,253.6 L 182.7,248.0 M 182.7,232.0 L 182.7,207.4 M 242.7,256.0 L 258.6,238.9 M 258.6,238.9 L 261.1,217.5 M 189.3,139.4 L 153.2,151.6" fill="none" stroke="white" stroke-width="2" stroke-linecap="round"/>
  <polygon points="234.83645626392766,253.95704564872642 242.83645626392766,261.9570456487264 234.83645626392766,269.9570456487264 226.83645626392766,261.9570456487264" fill="#4a9eff" stroke="white" stroke-width="1"/>
</svg>