<svg xmlns="http://www.w3.org/2000/svg" viewBox="0 0 400 400">
  <rect width="400" height="400" fill="#1a1a2e"/>
  <path d="M 273.4,88.4 L 289.1,76.5 L 293.0,56.9 Z M 273.4,88.4 L 293.0,56.9 L 251.7,82.8 Z M 251.7,82.8 L 293.0,56.9 L 260.7,38.9 Z M 251.7,82.8 L 260.7,38.9 L 232.7,61.2 Z M 236.2,184.4 L 256.2,184.8 L 261.3,171.2 Z M 236.2,184.4 L 261.3,171.2 L 225.8,168.3 Z M 225.8,168.3 L 261.3,171.2 L 255.5,150.8 Z M 225.8,168.3 L 255.5,150.8 L 219.4,142.1 Z M 129.2,127.0 L 142.9,133.6 L 157.5,105.4 Z M 129.2,127.0 L 157.5,105.4 L 133.9,101.9 Z M 251.7,82.8 L 232.7,61.2 L 223.3,97.5 Z M 181.5,121.0 L 219.4,142.1 L 223.3,97.5 Z M 142.9,133.6 L 181.5,121.0 L 157.5,105.4 Z M 142.9,133.6 L 129.2,127.0 L 110.8,135.7 Z M 142.9,133.6 L 110.8,135.7 L 142.5,150.3 Z M 142.9,133.6 L 142.5,150.3 L 180.0,137.9 Z M 142.9,133.6 L 180.0,137.9 L 181.5,121.0 Z M 181.5,121.0 L 180.0,137.9 L 204.0,151.0 Z M 181.5,121.0 L 204.0,151.0 L 219.4,142.1 Z M 219.4,142.1 L 204.0,151.0 L 209.8,174.6 Z M 219.4,142.1 L 209.8,174.6 L 225.8,168.3 Z M 225.8,168.3 L 209.8,174.6 L 225.8,200.3 Z M 225.8,168.3 L 225.8,200.3 L 236.2,184.4 Z M 255.5,150.8 L 269.8,140.3 L 234.5,132.8 Z M 255.5,150.8 L 234.5,132.8 L 219.4,142.1 Z M 219.4,142.1 L 234.5,132.8 L 235.0,109.4 Z M 219.4,142.1 L 235.0,109.4 L 223.3,97.5 Z M 223.3,97.5 L 235.0,109.4 L 254.0,99.1 Z M 223.3,97.5 L 254.0,99.1 L 251.7,82.8 Z M 251.7,82.8 L 254.0,99.1 L 278.5,104.5 Z M 251.7,82.8 L 278.5,104.5 L 273.4,88.4 Z M 260.7,38.9 L 260.0,20.0 L 218.6,52.7 Z M 260.7,38.9 L 218.6,52.7 L 232.7,61.2 Z M 232.7,61.2 L 218.6,52.7 L 210.8,86.2 Z M 232.7,61.2 L 210.8,86.2 L 223.3,97.5 Z M 223.3,97.5 L 210.8,86.2 L 184.5,103.5 Z M 223.3,97.5 L 184.5,103.5 L 181.5,121.0 Z M 181.5,121.0 L 184.5,103.5 L 161.5,90.5 Z M 181.5,121.0 L 161.5,90.5 L 157.5,105.4 Z M 157.5,105.4 L 161.5,90.5 L 122.5,84.5 Z M 157.5,105.4 L 122.5,84.5 L 133.9,101.9 Z M 256.2,184.8 L 236.2,184.4 L 225.8,200.3 Z M 256.2,184.8 L 225.8,200.3 L 268.9,203.1 Z M 261.3,171.2 L 256.2,184.8 L 268.9,203.1 Z M 261.3,171.2 L 268.9,203.1 L 281.2,171.7 Z M 261.3,171.2 L 281.2,171.7 L 269.8,140.3 Z M 261.3,171.2 L 269.8,140.3 L 255.5,150.8 Z M 309.3,48.1 L 260.0,20.0 L 260.7,38.9 Z M 309.3,48.1 L 260.7,38.9 L 293.0,56.9 Z M 305.0,81.0 L 289.1,76.5 L 273.4,88.4 Z M 305.0,81.0 L 273.4,88.4 L 278.5,104.5 Z M 293.0,56.9 L 289.1,76.5 L 305.0,81.0 Z M 293.0,56.9 L 305.0,81.0 L 309.3,48.1 Z M 129.2,127.0 L 133.9,101.9 L 122.5,84.5 Z M 129.2,127.0 L 122.5,84.5 L 110.8,135.7 Z M 227.1,275.8 L 260.0,275.8 L 260.0,231.9 Z M 227.1,275.8 L 260.0,231.9 L 227.1,231.9 Z M 227.1,231.9 L 260.0,231.9 L 268.9,203.1 Z M 227.1,231.9 L 268.9,203.1 L 219.4,211.5 Z M 98.6,127.6 L 110.8,135.7 L 122.5,84.5 Z M 98.6,127.6 L 122.5,84.5 L 119.6,66.4 Z M 119.6,66.4 L 122.5,84.5 L 161.5,90.5 Z M 119.6,66.4 L 161.5,90.5 L 156.7,68.7 Z M 20.0,127.6 L 20.0,160.5 L 101.1,160.5 Z M 20.0,127.6 L 101.1,160.5 L 98.6,127.6 Z M 380.0,81.0 L 380.0,48.1 L 309.3,48.1 Z M 380.0,81.0 L 309.3,48.1 L 305.0,81.0 Z M 209.8,174.6 L 198.1,191.5 L 219.4,211.5 Z M 209.8,174.6 L 219.4,211.5 L 225.8,200.3 Z M 281.2,171.7 L 297.8,173.0 L 292.4,157.9 Z M 281.2,171.7 L 292.4,157.9 L 269.8,140.3 Z M 110.8,135.7 L 101.1,160.5 L 112.5,182.6 Z M 110.8,135.7 L 112.5,182.6 L 142.5,150.3 Z M 268.9,203.1 L 225.8,200.3 L 219.4,211.5 Z M 281.2,171.7 L 268.9,203.1 L 297.8,173.0 Z M 110.8,135.7 L 98.6,127.6 L 101.1,160.5 Z" fill="#2a2a4e" stroke="none"/>
  <path d="M 142.5,150.3 L 180.0,137.9 M 180.0,137.9 L 204.0,151.0 M 204.0,151.0 L 209.8,174.6 M 269.8,140.3 L 234.5,132.8 M 234.5,132.8 L 235.0,109.4 M 235.0,109.4 L 254.0,99.1 M 254.0,99.1 L 278.5,104.5 M 260.0,20.0 L 218.6,52.7 M 218.6,52.7 L 210.8,86.2 M 210.8,86.2 L 184.5,103.5 M 184.5,103.5 L 161.5,90.5 M 309.3,48.1 L 260.0,20.0 M 278.5,104.5 L 305.0,81.0 M 227.1,275.8 L 260.0,275.8 M 260.0,275.8 L 260.0,231.9 M 227.1,231.9 L 227.1,275.8 M 260.0,231.9 L 268.9,203.1 M 219.4,211.5 L 227.1,231.9 M 119.6,66.4 L 98.6,127.6 M 161.5,90.5 L 156.7,68.7 M 156.7,68.7 L 119.6,66.4 M 20.0,127.6 L 20.0,160.5 M 20.0,160.5 L 101.1,160.5 M 98.6,127.6 L 20.0,127.6 M 380.0,81.0 L 380.0,48.1 M 380.0,48.1 L 309.3,48.1 M 305.0,81.0 L 380.0,81.0 M 209.8,174.6 L 198.1,191.5 M 198.1,191.5 L 219.4,211.5 M 297.8,173.0 L 292.4,157.9 M 292.4,157.9 L 269.8,140.3 M 101.1,160.5 L 112.5,182.6 M 112.5,182.6 L 142.5,150.3 M 268.9,203.1 L 297.8,173.0" fill="none" stroke="white" stroke-width="2" stroke-linecap="round"/>
  <polygon points="85.2861972901864,136.034641914252 93.2861972901864,144.034641914252 85.2861972901864,152.034641914252 77.2861972901864,144.034641914252" fill="#4a9eff" stroke="white" stroke-width="1"/>
<polygon points="242.95290506051637,248.23620844175298 250.95290506051637,256.236208441753 242.95290506051637,264.236208441753 234.95290506051637,256.236208441753" fill="#4a9eff" stroke="white" stroke-width="1"/>
<polygon points="313.2526430016344,58.39524239363257 321.2526430016344,66.39524239363257 313.2526430016344,74.39524239363257 305.2526430016344,66.39524239363257" fill="#4a9eff" stroke="white" stroke-width="1"/>
</svg>