<svg xmlns="http://www.w3.org/2000/svg" viewBox="0 0 400 400">
  <rect width="400" height="400" fill="#1a1a2e"/>
  <path d="M 214.9,69.3 L 179.4,69.7 L 216.3,96.8 Z M 214.9,69.3 L 216.3,96.8 L 225.9,80.3 Z M 225.9,80.3 L 216.3,96.8 L 225.7,139.9 Z M 225.9,80.3 L 225.7,139.9 L 237.2,103.1 Z M 94.5,138.3 L 133.2,148.4 L 144.2,131.2 Z M 94.5,138.3 L 144.2,131.2 L 94.0,117.5 Z M 94.0,117.5 L 144.2,131.2 L 139.6,103.9 Z M 94.0,117.5 L 139.6,103.9 L 131.5,99.2 Z M 131.5,99.2 L 139.6,103.9 L 179.4,69.7 Z M 131.5,99.2 L 179.4,69.7 L 134.8,68.5 Z M 252.5,132.0 L 225.7,139.9 L 222.9,166.3 Z M 252.5,132.0 L 222.9,166.3 L 254.3,161.9 Z M 254.3,161.9 L 222.9,166.3 L 232.7,181.3 Z M 254.3,161.9 L 232.7,181.3 L 250.6,174.9 Z M 134.8,68.5 L 179.4,69.7 L 147.1,56.3 Z M 94.5,138.3 L 109.6,151.9 L 133.2,148.4 Z M 252.5,132.0 L 237.2,103.1 L 225.7,139.9 Z M 118.9,90.7 L 131.5,99.2 L 134.8,68.5 Z M 118.9,90.7 L 134.8,68.5 L 121.3,61.8 Z M 121.3,61.8 L 134.8,68.5 L 147.1,56.3 Z M 121.3,61.8 L 147.1,56.3 L 145.6,39.8 Z M 238.4,73.7 L 225.9,80.3 L 237.2,103.1 Z M 238.4,73.7 L 237.2,103.1 L 249.9,95.2 Z M 249.9,95.2 L 237.2,103.1 L 252.5,132.0 Z M 249.9,95.2 L 252.5,132.0 L 266.7,129.1 Z M 266.7,129.1 L 252.5,132.0 L 254.3,161.9 Z M 266.7,129.1 L 254.3,161.9 L 268.5,163.5 Z M 154.0,108.5 L 139.6,103.9 L 144.2,131.2 Z M 154.0,108.5 L 144.2,131.2 L 159.2,133.7 Z M 159.2,133.7 L 144.2,131.2 L 133.2,148.4 Z M 159.2,133.7 L 133.2,148.4 L 143.5,160.1 Z M 145.6,39.8 L 147.1,56.3 L 179.4,69.7 Z M 145.6,39.8 L 179.4,69.7 L 184.0,54.8 Z M 184.0,54.8 L 179.4,69.7 L 214.9,69.3 Z M 184.0,54.8 L 214.9,69.3 L 220.0,53.6 Z M 220.0,53.6 L 214.9,69.3 L 225.9,80.3 Z M 220.0,53.6 L 225.9,80.3 L 238.4,73.7 Z M 81.6,145.3 L 94.5,138.3 L 94.0,117.5 Z M 81.6,145.3 L 94.0,117.5 L 80.7,108.9 Z M 131.5,99.2 L 118.9,90.7 L 80.7,108.9 Z M 131.5,99.2 L 80.7,108.9 L 94.0,117.5 Z M 203.4,104.8 L 210.9,136.6 L 225.7,139.9 Z M 203.4,104.8 L 225.7,139.9 L 216.3,96.8 Z M 179.8,84.8 L 203.4,104.8 L 216.3,96.8 Z M 179.8,84.8 L 216.3,96.8 L 179.4,69.7 Z M 154.0,108.5 L 179.8,84.8 L 179.4,69.7 Z M 154.0,108.5 L 179.4,69.7 L 139.6,103.9 Z M 81.6,145.3 L 103.7,166.7 L 109.6,151.9 Z M 81.6,145.3 L 109.6,151.9 L 94.5,138.3 Z M 103.7,166.7 L 143.5,160.1 L 133.2,148.4 Z M 103.7,166.7 L 133.2,148.4 L 109.6,151.9 Z M 262.2,186.5 L 268.5,163.5 L 254.3,161.9 Z M 262.2,186.5 L 254.3,161.9 L 250.6,174.9 Z M 208.0,170.5 L 226.5,197.0 L 232.7,181.3 Z M 208.0,170.5 L 232.7,181.3 L 222.9,166.3 Z M 210.9,136.6 L 208.0,170.5 L 222.9,166.3 Z M 210.9,136.6 L 222.9,166.3 L 225.7,139.9 Z M 250.6,174.9 L 232.7,181.3 L 226.5,197.0 Z M 250.6,174.9 L 226.5,197.0 L 262.2,186.5 Z M 281.4,86.8 L 289.6,142.4 L 316.0,130.2 Z M 281.4,86.8 L 316.0,130.2 L 316.0,93.8 Z M 316.0,93.8 L 316.0,130.2 L 367.1,130.2 Z M 316.0,93.8 L 367.1,130.2 L 380.0,93.8 Z M 234.1,364.1 L 270.4,364.1 L 261.5,315.0 Z M 234.1,364.1 L 261.5,315.0 L 225.2,315.0 Z M 225.2,315.0 L 261.5,315.0 L 261.5,248.0 Z M 225.2,315.0 L 261.5,248.0 L 225.2,262.7 Z M 208.0,170.5 L 192.5,159.6 L 196.6,197.8 Z M 208.0,170.5 L 196.6,197.8 L 226.5,197.0 Z M 226.5,197.0 L 196.6,197.8 L 199.4,239.9 Z M 226.5,197.0 L 199.4,239.9 L 242.2,223.3 Z M 191.1,20.0 L 184.0,54.8 L 220.0,53.6 Z M 191.1,20.0 L 220.0,53.6 L 259.0,32.2 Z M 259.0,32.2 L 220.0,53.6 L 238.4,73.7 Z M 259.0,32.2 L 238.4,73.7 L 249.8,57.9 Z M 285.0,206.6 L 242.2,223.3 L 261.5,248.0 Z M 242.2,223.3 L 199.4,239.9 L 261.5,248.0 Z M 261.5,248.0 L 199.4,239.9 L 225.2,262.7 Z M 249.9,95.2 L 266.7,129.1 L 281.4,86.8 Z M 266.7,129.1 L 289.6,142.4 L 281.4,86.8 Z M 33.7,108.9 L 20.0,145.3 L 81.6,145.3 Z M 33.7,108.9 L 81.6,145.3 L 80.7,108.9 Z M 143.3,190.8 L 143.5,160.1 L 103.7,166.7 Z M 143.3,190.8 L 103.7,166.7 L 99.2,191.9 Z M 226.5,197.0 L 242.2,223.3 L 285.0,206.6 Z M 226.5,197.0 L 285.0,206.6 L 262.2,186.5 Z M 196.6,197.8 L 172.9,225.4 L 199.4,239.9 Z M 103.7,166.7 L 81.6,145.3 L 99.2,191.9 Z M 208.0,170.5 L 210.9,136.6 L 192.5,159.6 Z M 262.2,186.5 L 285.0,206.6 L 268.5,163.5 Z M 266.7,129.1 L 268.5,163.5 L 289.6,142.4 Z M 145.6,39.8 L 184.0,54.8 L 191.1,20.0 Z" fill="#2a2a4e" stroke="none"/>
  <path d="M 121.3,61.8 L 118.9,90.7 M 145.6,39.8 L 121.3,61.8 M 249.9,95.2 L 238.4,73.7 M 159.2,133.7 L 154.0,108.5 M 143.5,160.1 L 159.2,133.7 M 118.9,90.7 L 80.7,108.9 M 203.4,104.8 L 210.9,136.6 M 179.8,84.8 L 203.4,104.8 M 154.0,108.5 L 179.8,84.8 M 289.6,142.4 L 316.0,130.2 M 316.0,93.8 L 281.4,86.8 M 316.0,130.2 L 367.1,130.2 M 367.1,130.2 L 380.0,93.8 M 380.0,93.8 L 316.0,93.8 M 234.1,364.1 L 270.4,364.1 M 270.4,364.1 L 261.5,315.0 M 225.2,315.0 L 234.1,364.1 M 261.5,315.0 L 261.5,248.0 M 225.2,262.7 L 225.2,315.0 M 192.5,159.6 L 196.6,197.8 M 259.0,32.2 L 191.1,20.0 M 238.4,73.7 L 249.8,57.9 M 249.8,57.9 L 259.0,32.2 M 261.5,248.0 L 285.0,206.6 M 199.4,239.9 L 225.2,262.7 M 281.4,86.8 L 249.9,95.2 M 33.7,108.9 L 20.0,145.3 M 20.0,145.3 L 81.6,145.3 M 80.7,108.9 L 33.7,108.9 M 143.3,190.8 L 143.5,160.1 M 99.2,191.9 L 143.3,190.8 M 196.6,197.8 L 172.9,225.4 M 172.9,225.4 L 199.4,239.9 M 81.6,145.3 L 99.2,191.9 M 210.9,136.6 L 192.5,159.6 M 285.0,206.6 L 268.5,163.5 M 268.5,163.5 L 289.6,142.4 M 191.1,20.0 L 145.6,39.8" fill="none" stroke="white" stroke-width="2" stroke-linecap="round"/>
  <polygon points="68.14868399043422,119.92774416813229 76.14868399043422,127.92774416813229 68.14868399043422,135.92774416813228 60.14868399043422,127.92774416813229" fill="#4a9eff" stroke="white" stroke-width="1"/>
<polygon points="315.4733796847669,105.59960006186671 323.4733796847669,113.59960006186671 315.4733796847669,121.59960006186671 307.4733796847669,113.59960006186671" fill="#4a9eff" stroke="white" stroke-width="1"/>
<polygon points="242.57992828334685,257.5551478145193 250.57992828334685,265.5551478145193 242.57992828334685,273.5551478145193 234.57992828334685,265.5551478145193" fill="#4a9eff" stroke="white" stroke-width="1"/>
</svg>