<svg xmlns="http://www.w3.org/2000/svg" viewBox="0 0 400 400">
  <rect width="400" height="400" fill="#1a1a2e"/>
  <path d="M 254.6,244.6 L 234.2,206.4 L 197.7,220.0 Z M 254.6,244.6 L 197.7,220.0 L 197.7,250.0 Z M 75.6,234.6 L 107.5,197.4 L 83.3,159.6 Z M 75.6,234.6 L 83.3,159.6 L 43.7,222.3 Z M 254.6,244.6 L 271.2,208.1 L 234.2,206.4 Z M 131.2,251.0 L 173.2,251.0 L 173.2,215.0 Z M 131.2,251.0 L 173.2,215.0 L 131.2,215.0 Z M 197.7,250.0 L 212.9,277.4 L 254.6,244.6 Z M 212.9,277.4 L 243.4,291.3 L 254.6,244.6 Z M 254.6,244.6 L 243.4,291.3 L 250.0,291.3 Z M 234.2,206.4 L 271.2,208.1 L 256.9,173.8 Z M 234.2,206.4 L 256.9,173.8 L 239.8,173.8 Z M 89.3,280.7 L 107.5,246.9 L 75.6,234.6 Z M 89.3,280.7 L 75.6,234.6 L 74.9,282.5 Z M 45.4,166.1 L 43.7,222.3 L 83.3,159.6 Z M 74.9,282.5 L 75.6,234.6 L 43.7,222.3 Z M 239.8,173.8 L 197.7,220.0 L 234.2,206.4 Z M 75.6,234.6 L 107.5,246.9 L 107.5,197.4 Z M 87.0,168.6 L 87.0,196.0 L 114.5,196.0 Z M 87.0,168.6 L 114.5,196.0 L 114.5,168.6 Z M 194.0,203.0 L 174.6,222.4 L 194.0,241.8 Z M 194.0,203.0 L 194.0,241.8 L 213.4,222.4 Z M 51.0,283.0 L 77.4,301.6 L 96.0,275.1 Z M 51.0,283.0 L 96.0,275.1 L 69.5,256.6 Z M 233.9,298.7 L 256.4,314.4 L 272.1,291.9 Z M 233.9,298.7 L 272.1,291.9 L 249.6,276.2 Z M 61.6,238.1 L 88.9,241.1 L 91.9,213.8 Z M 61.6,238.1 L 91.9,213.8 L 64.6,210.8 Z M 228.4,230.9 L 222.6,257.7 L 249.5,263.5 Z M 228.4,230.9 L 249.5,263.5 L 255.2,236.6 Z M 23.0,145.6 L 92.8,132.5 L 71.0,98.0 Z M 92.8,132.5 L 134.2,86.0 L 71.0,98.0 Z M 272.2,380.0 L 272.2,314.0 L 236.2,314.0 Z M 272.2,380.0 L 236.2,314.0 L 236.2,380.0 Z M 134.2,86.0 L 170.2,86.0 L 170.2,20.0 Z M 134.2,86.0 L 170.2,20.0 L 134.2,20.0 Z M 134.2,86.0 L 92.8,132.5 L 131.2,192.9 Z M 134.2,86.0 L 131.2,192.9 L 185.0,127.6 Z M 185.0,127.6 L 170.2,86.0 L 134.2,86.0 Z M 272.0,152.4 L 230.0,152.4 L 239.8,173.8 Z M 272.0,152.4 L 239.8,173.8 L 256.9,173.8 Z M 173.2,251.0 L 195.1,293.9 L 212.9,277.4 Z M 173.2,251.0 L 212.9,277.4 L 197.7,250.0 Z M 197.7,220.0 L 173.2,215.0 L 173.2,251.0 Z M 197.7,220.0 L 173.2,251.0 L 197.7,250.0 Z M 23.0,145.6 L 20.0,227.9 L 43.7,222.3 Z M 23.0,145.6 L 43.7,222.3 L 45.4,166.1 Z M 43.7,222.3 L 20.0,227.9 L 60.5,311.7 Z M 43.7,222.3 L 60.5,311.7 L 74.9,282.5 Z M 60.5,311.7 L 102.7,306.1 L 89.3,280.7 Z M 60.5,311.7 L 89.3,280.7 L 74.9,282.5 Z M 89.3,280.7 L 102.7,306.1 L 131.2,251.0 Z M 89.3,280.7 L 131.2,251.0 L 107.5,246.9 Z M 107.5,197.4 L 107.5,246.9 L 131.2,251.0 Z M 107.5,197.4 L 131.2,251.0 L 131.2,215.0 Z M 195.1,293.9 L 236.2,314.0 L 243.4,291.3 Z M 195.1,293.9 L 243.4,291.3 L 212.9,277.4 Z M 236.2,314.0 L 272.2,314.0 L 250.0,291.3 Z M 236.2,314.0 L 250.0,291.3 L 243.4,291.3 Z M 250.0,291.3 L 272.2,314.0 L 278.0,248.8 Z M 250.0,291.3 L 278.0,248.8 L 254.6,244.6 Z M 239.8,173.8 L 230.0,152.4 L 173.2,215.0 Z M 239.8,173.8 L 173.2,215.0 L 197.7,220.0 Z M 254.6,244.6 L 278.0,248.8 L 295.7,209.8 Z M 254.6,244.6 L 295.7,209.8 L 271.2,208.1 Z M 295.7,209.8 L 272.0,152.4 L 256.9,173.8 Z M 295.7,209.8 L 256.9,173.8 L 271.2,208.1 Z M 83.3,159.6 L 107.5,197.4 L 131.2,192.9 Z M 83.3,159.6 L 131.2,192.9 L 92.8,132.5 Z M 23.0,145.6 L 45.4,166.1 L 83.3,159.6 Z M 23.0,145.6 L 83.3,159.6 L 92.8,132.5 Z M 131.2,215.0 L 131.2,192.9 L 107.5,197.4 Z" fill="#2a2a4e" stroke="none"/>
  <path d="M 131.2,251.0 L 173.2,251.0 M 173.2,215.0 L 131.2,215.0 M 87.0,168.6 L 87.0,196.0 M 87.0,196.0 L 114.5,196.0 M 114.5,196.0 L 114.5,168.6 M 114.5,168.6 L 87.0,168.6 M 194.0,203.0 L 174.6,222.4 M 174.6,222.4 L 194.0,241.8 M 194.0,241.8 L 213.4,222.4 M 213.4,222.4 L 194.0,203.0 M 51.0,283.0 L 77.4,301.6 M 77.4,301.6 L 96.0,275.1 M 96.0,275.1 L 69.5,256.6 M 69.5,256.6 L 51.0,283.0 M 233.9,298.7 L 256.4,314.4 M 256.4,314.4 L 272.1,291.9 M 272.1,291.9 L 249.6,276.2 M 249.6,276.2 L 233.9,298.7 M 61.6,238.1 L 88.9,241.1 M 88.9,241.1 L 91.9,213.8 M 91.9,213.8 L 64.6,210.8 M 64.6,210.8 L 61.6,238.1 M 228.4,230.9 L 222.6,257.7 M 222.6,257.7 L 249.5,263.5 M 249.5,263.5 L 255.2,236.6 M 255.2,236.6 L 228.4,230.9 M 71.0,98.0 L 23.0,145.6 M 134.2,86.0 L 71.0,98.0 M 272.2,380.0 L 272.2,314.0 M 236.2,314.0 L 236.2,380.0 M 236.2,380.0 L 272.2,380.0 M 170.2,86.0 L 170.2,20.0 M 170.2,20.0 L 134.2,20.0 M 134.2,20.0 L 134.2,86.0 M 131.2,192.9 L 185.0,127.6 M 185.0,127.6 L 170.2,86.0 M 272.0,152.4 L 230.0,152.4 M 173.2,251.0 L 195.1,293.9 M 23.0,145.6 L 20.0,227.9 M 20.0,227.9 L 60.5,311.7 M 60.5,311.7 L 102.7,306.1 M 102.7,306.1 L 131.2,251.0 M 195.1,293.9 L 236.2,314.0 M 272.2,314.0 L 278.0,248.8 M 230.0,152.4 L 173.2,215.0 M 278.0,248.8 L 295.7,209.8 M 295.7,209.8 L 272.0,152.4 M 131.2,215.0 L 131.2,192.9" fill="none" stroke="white" stroke-width="2" stroke-linecap="round"/>
  <polygon points="152.9251115434506,68.97808121373126 160.9251115434506,76.97808121373126 152.9251115434506,84.97808121373126 144.9251115434506,76.97808121373126" fill="#4a9eff" stroke="white" stroke-width="1"/>
<polygon points="254.44734286580044,313.06330703469644 262.44734286580047,321.06330703469644 254.44734286580044,329.06330703469644 246.44734286580044,321.06330703469644" fill="#4a9eff" stroke="white" stroke-width="1"/>
</svg>