<svg xmlns="http://www.w3.org/2000/svg" viewBox="0 0 400 400">
  <rect width="400" height="400" fill="#1a1a2e"/>
  <path d="M 135.9,197.6 L 113.8,222.3 L 138.1,226.2 Z M 113.8,222.3 L 125.2,237.6 L 138.1,226.2 Z M 135.9,197.6 L 150.6,215.6 L 159.9,201.8 Z M 135.9,197.6 L 159.9,201.8 L 156.2,186.6 Z M 135.3,187.4 L 112.2,189.1 L 113.8,222.3 Z M 135.3,187.4 L 113.8,222.3 L 135.9,197.6 Z M 175.3,359.3 L 175.4,356.1 L 178.1,357.7 Z M 187.5,349.4 L 185.6,352.0 L 184.4,349.0 Z M 133.3,194.4 L 132.0,192.1 L 129.6,193.4 Z M 133.3,194.4 L 129.6,193.4 L 130.9,195.8 Z M 130.3,190.6 L 129.2,192.7 L 131.4,193.7 Z M 130.3,190.6 L 131.4,193.7 L 132.4,191.6 Z M 129.1,192.1 L 130.0,195.7 L 131.4,193.6 Z M 135.3,187.4 L 156.2,186.6 L 158.9,155.3 Z M 135.3,187.4 L 158.9,155.3 L 138.1,155.8 Z M 138.1,155.8 L 158.9,155.3 L 158.9,85.2 Z M 138.1,155.8 L 158.9,85.2 L 138.1,88.7 Z M 138.1,88.7 L 158.9,85.2 L 130.5,47.3 Z M 138.1,88.7 L 130.5,47.3 L 119.5,64.5 Z M 119.5,64.5 L 130.5,47.3 L 31.1,20.0 Z M 119.5,64.5 L 31.1,20.0 L 20.0,34.4 Z M 260.9,380.0 L 262.5,358.0 L 186.4,346.7 Z M 260.9,380.0 L 186.4,346.7 L 180.3,366.5 Z M 180.3,366.5 L 186.4,346.7 L 162.7,323.8 Z M 180.3,366.5 L 162.7,323.8 L 141.9,329.0 Z M 141.9,329.0 L 162.7,323.8 L 162.7,262.8 Z M 141.9,329.0 L 162.7,262.8 L 141.9,263.3 Z M 141.9,263.3 L 162.7,262.8 L 160.2,247.8 Z M 141.9,263.3 L 160.2,247.8 L 130.7,249.6 Z M 130.7,249.6 L 160.2,247.8 L 171.0,226.7 Z M 130.7,249.6 L 171.0,226.7 L 138.1,226.2 Z M 171.0,226.7 L 150.6,215.6 L 138.1,226.2 Z M 150.6,215.6 L 135.9,197.6 L 138.1,226.2 Z M 167.3,211.2 L 173.3,186.3 L 159.9,201.8 Z M 173.3,186.3 L 156.2,186.6 L 159.9,201.8 Z M 138.1,155.8 L 121.7,175.6 L 135.3,187.4 Z M 121.7,175.6 L 112.2,189.1 L 135.3,187.4 Z M 121.7,175.6 L 104.3,182.8 L 112.2,189.1 Z M 104.3,182.8 L 96.7,203.5 L 112.2,189.1 Z M 112.2,189.1 L 96.7,203.5 L 113.8,222.3 Z M 96.7,203.5 L 105.2,228.3 L 113.8,222.3 Z M 113.8,222.3 L 105.2,228.3 L 125.2,237.6 Z M 171.0,226.7 L 167.3,211.2 L 159.9,201.8 Z M 171.0,226.7 L 159.9,201.8 L 150.6,215.6 Z M 125.2,237.6 L 130.7,249.6 L 138.1,226.2 Z M 135.9,197.6 L 156.2,186.6 L 135.3,187.4 Z M 156.2,186.6 L 173.3,186.3 L 158.9,155.3 Z" fill="#2a2a4e" stroke="none"/>
  <path d="M 175.3,359.3 L 175.4,356.1 M 175.4,356.1 L 178.1,357.7 M 178.1,357.7 L 175.3,359.3 M 187.5,349.4 L 185.6,352.0 M 185.6,352.0 L 184.4,349.0 M 184.4,349.0 L 187.5,349.4 M 133.3,194.4 L 132.0,192.1 M 132.0,192.1 L 129.6,193.4 M 129.6,193.4 L 130.9,195.8 M 130.9,195.8 L 133.3,194.4 M 130.3,190.6 L 129.2,192.7 M 129.2,192.7 L 131.4,193.7 M 131.4,193.7 L 132.4,191.6 M 132.4,191.6 L 130.3,190.6 M 129.1,192.1 L 130.0,195.7 M 130.0,195.7 L 131.4,193.6 M 131.4,193.6 L 129.1,192.1 M 158.9,155.3 L 158.9,85.2 M 138.1,88.7 L 138.1,155.8 M 158.9,85.2 L 130.5,47.3 M 119.5,64.5 L 138.1,88.7 M 130.5,47.3 L 31.1,20.0 M 31.1,20.0 L 20.0,34.4 M 20.0,34.4 L 119.5,64.5 M 260.9,380.0 L 262.5,358.0 M 262.5,358.0 L 186.4,346.7 M 180.3,366.5 L 260.9,380.0 M 186.4,346.7 L 162.7,323.8 M 141.9,329.0 L 180.3,366.5 M 162.7,323.8 L 162.7,262.8 M 141.9,263.3 L 141.9,329.0 M 162.7,262.8 L 160.2,247.8 M 130.7,249.6 L 141.9,263.3 M 160.2,247.8 L 171.0,226.7 M 167.3,211.2 L 173.3,186.3 M 138.1,155.8 L 121.7,175.6 M 121.7,175.6 L 104.3,182.8 M 104.3,182.8 L 96.7,203.5 M 96.7,203.5 L 105.2,228.3 M 105.2,228.3 L 125.2,237.6 M 171.0,226.7 L 167.3,211.2 M 125.2,237.6 L 130.7,249.6 M 173.3,186.3 L 158.9,155.3" fill="none" stroke="white" stroke-width="2" stroke-linecap="round"/>
  <polygon points="152.52869994393188,266.57535489897356 160.52869994393188,274.57535489897356 152.52869994393188,282.57535489897356 144.52869994393188,274.57535489897356" fill="#4a9eff" stroke="white" stroke-width="1"/>
<polygon points="148.5345720200504,118.46341154270056 156.5345720200504,126.46341154270056 148.5345720200504,134.46341154270056 140.5345720200504,126.46341154270056" fill="#4a9eff" stroke="white" stroke-width="1"/>
</svg>