<svg xmlns="http://www.w3.org/2000/svg" viewBox="0 0 400 400">
  <rect width="400" height="400" fill="#1a1a2e"/>
  <path d="M 105.0,230.1 L 126.5,274.7 L 138.8,241.3 Z M 53.9,174.7 L 60.0,207.9 L 93.2,199.9 Z M 53.9,174.7 L 93.2,199.9 L 84.5,168.9 Z M 129.8,308.4 L 126.5,274.7 L 85.0,306.1 Z M 126.5,274.7 L 91.4,263.7 L 85.0,306.1 Z M 141.2,216.2 L 138.8,241.3 L 174.8,224.9 Z M 138.8,241.3 L 174.2,267.4 L 174.8,224.9 Z M 84.5,168.9 L 126.2,182.0 L 106.3,133.9 Z M 126.2,182.0 L 141.7,139.9 L 106.3,133.9 Z M 141.2,216.2 L 126.2,182.0 L 93.2,199.9 Z M 141.2,216.2 L 93.2,199.9 L 105.0,230.1 Z M 105.0,230.1 L 93.2,199.9 L 67.3,247.0 Z M 129.6,43.3 L 126.1,47.5 L 123.7,42.9 Z M 102.9,45.9 L 108.5,44.1 L 107.4,49.2 Z M 114.0,252.1 L 120.6,251.7 L 120.2,244.8 Z M 114.0,252.1 L 120.2,244.8 L 113.6,245.2 Z M 125.8,249.4 L 122.3,244.8 L 117.7,248.5 Z M 125.8,249.4 L 117.7,248.5 L 121.2,253.1 Z M 123.6,245.2 L 114.6,243.4 L 118.0,248.7 Z M 111.2,173.5 L 115.6,170.2 L 112.1,165.6 Z M 111.2,173.5 L 112.1,165.6 L 107.7,168.9 Z M 118.2,166.1 L 113.6,164.6 L 112.1,169.3 Z M 118.2,166.1 L 112.1,169.3 L 116.6,170.9 Z M 114.7,164.2 L 109.9,162.1 L 107.6,167.1 Z M 114.7,164.2 L 107.6,167.1 L 112.4,169.3 Z M 96.7,160.9 L 103.5,164.1 L 106.8,156.9 Z M 96.7,160.9 L 106.8,156.9 L 99.9,153.8 Z M 110.1,164.6 L 109.0,158.0 L 102.3,159.2 Z M 110.1,164.6 L 102.3,159.2 L 103.4,165.8 Z M 74.9,192.3 L 79.3,189.0 L 75.9,184.4 Z M 74.9,192.3 L 75.9,184.4 L 71.4,187.7 Z M 81.9,184.9 L 77.3,183.4 L 75.8,188.1 Z M 81.9,184.9 L 75.8,188.1 L 80.4,189.7 Z M 78.4,183.0 L 73.6,180.9 L 71.3,185.9 Z M 78.4,183.0 L 71.3,185.9 L 76.1,188.1 Z M 147.2,238.0 L 153.3,233.4 L 148.5,227.2 Z M 147.2,238.0 L 148.5,227.2 L 142.5,231.7 Z M 156.8,227.9 L 150.5,225.8 L 148.4,232.2 Z M 156.8,227.9 L 148.4,232.2 L 154.7,234.4 Z M 159.1,237.0 L 157.0,243.1 L 163.3,245.3 Z M 159.1,237.0 L 163.3,245.3 L 165.4,239.2 Z M 157.1,248.7 L 162.6,247.2 L 161.0,241.7 Z M 157.1,248.7 L 161.0,241.7 L 155.5,243.2 Z M 161.7,248.3 L 166.7,240.8 L 160.6,241.9 Z M 102.0,211.0 L 107.3,213.3 L 109.7,207.7 Z M 102.0,211.0 L 109.7,207.7 L 104.4,205.4 Z M 112.4,213.6 L 111.4,208.6 L 106.3,209.6 Z M 112.4,213.6 L 106.3,209.6 L 107.3,214.6 Z M 112.3,209.4 L 111.8,203.9 L 106.0,204.4 Z M 112.3,209.4 L 106.0,204.4 L 106.5,209.9 Z M 380.0,181.1 L 380.0,143.0 L 316.5,143.0 Z M 380.0,181.1 L 316.5,143.0 L 316.5,181.1 Z M 316.5,181.1 L 316.5,143.0 L 259.6,143.0 Z M 316.5,181.1 L 259.6,143.0 L 259.5,181.1 Z M 259.5,181.1 L 259.6,143.0 L 215.2,150.8 Z M 259.5,181.1 L 215.2,150.8 L 218.4,204.3 Z M 218.4,204.3 L 215.2,150.8 L 176.5,159.7 Z M 218.4,204.3 L 176.5,159.7 L 194.3,229.9 Z M 85.0,306.1 L 76.0,341.7 L 163.7,358.6 Z M 85.0,306.1 L 163.7,358.6 L 129.8,308.4 Z M 129.8,308.4 L 163.7,358.6 L 203.2,305.4 Z M 129.8,308.4 L 203.2,305.4 L 174.2,267.4 Z M 174.2,267.4 L 203.2,305.4 L 194.3,229.9 Z M 174.2,267.4 L 194.3,229.9 L 174.8,224.9 Z M 138.4,33.5 L 100.4,20.0 L 100.4,102.5 Z M 138.4,33.5 L 100.4,102.5 L 138.4,102.5 Z M 138.4,102.5 L 100.4,102.5 L 106.3,133.9 Z M 138.4,102.5 L 106.3,133.9 L 141.7,139.9 Z M 141.2,216.2 L 174.8,224.9 L 176.5,159.7 Z M 174.8,224.9 L 194.3,229.9 L 176.5,159.7 Z M 105.0,230.1 L 67.3,247.0 L 91.4,263.7 Z M 67.3,247.0 L 26.7,262.9 L 91.4,263.7 Z M 60.0,207.9 L 53.9,174.7 L 20.0,223.2 Z M 53.9,174.7 L 37.8,146.6 L 20.0,223.2 Z M 84.5,168.9 L 106.3,133.9 L 89.9,123.1 Z M 106.3,133.9 L 100.4,102.5 L 89.9,123.1 Z M 141.2,216.2 L 176.5,159.7 L 141.7,139.9 Z M 141.2,216.2 L 141.7,139.9 L 126.2,182.0 Z M 89.9,123.1 L 37.8,146.6 L 53.9,174.7 Z M 89.9,123.1 L 53.9,174.7 L 84.5,168.9 Z M 60.0,207.9 L 20.0,223.2 L 26.7,262.9 Z M 60.0,207.9 L 26.7,262.9 L 67.3,247.0 Z M 41.3,300.5 L 85.0,306.1 L 91.4,263.7 Z M 41.3,300.5 L 91.4,263.7 L 26.7,262.9 Z M 138.8,241.3 L 126.5,274.7 L 129.8,308.4 Z M 138.8,241.3 L 129.8,308.4 L 174.2,267.4 Z M 126.2,182.0 L 84.5,168.9 L 93.2,199.9 Z M 41.3,300.5 L 76.0,341.7 L 85.0,306.1 Z M 138.8,241.3 L 141.2,216.2 L 105.0,230.1 Z M 93.2,199.9 L 60.0,207.9 L 67.3,247.0 Z" fill="#2a2a4e" stroke="none"/>
  <path d="M 105.0,230.1 L 126.5,274.7 M 126.5,274.7 L 91.4,263.7 M 129.6,43.3 L 126.1,47.5 M 126.1,47.5 L 123.7,42.9 M 123.7,42.9 L 129.6,43.3 M 102.9,45.9 L 108.5,44.1 M 108.5,44.1 L 107.4,49.2 M 107.4,49.2 L 102.9,45.9 M 114.0,252.1 L 120.6,251.7 M 120.6,251.7 L 120.2,244.8 M 120.2,244.8 L 113.6,245.2 M 113.6,245.2 L 114.0,252.1 M 125.8,249.4 L 122.3,244.8 M 122.3,244.8 L 117.7,248.5 M 117.7,248.5 L 121.2,253.1 M 121.2,253.1 L 125.8,249.4 M 123.6,245.2 L 114.6,243.4 M 114.6,243.4 L 118.0,248.7 M 118.0,248.7 L 123.6,245.2 M 111.2,173.5 L 115.6,170.2 M 115.6,170.2 L 112.1,165.6 M 112.1,165.6 L 107.7,168.9 M 107.7,168.9 L 111.2,173.5 M 118.2,166.1 L 113.6,164.6 M 113.6,164.6 L 112.1,169.3 M 112.1,169.3 L 116.6,170.9 M 116.6,170.9 L 118.2,166.1 M 114.7,164.2 L 109.9,162.1 M 109.9,162.1 L 107.6,167.1 M 107.6,167.1 L 112.4,169.3 M 112.4,169.3 L 114.7,164.2 M 96.7,160.9 L 103.5,164.1 M 103.5,164.1 L 106.8,156.9 M 106.8,156.9 L 99.9,153.8 M 99.9,153.8 L 96.7,160.9 M 110.1,164.6 L 109.0,158.0 M 109.0,158.0 L 102.3,159.2 M 102.3,159.2 L 103.4,165.8 M 103.4,165.8 L 110.1,164.6 M 74.9,192.3 L 79.3,189.0 M 79.3,189.0 L 75.9,184.4 M 75.9,184.4 L 71.4,187.7 M 71.4,187.7 L 74.9,192.3 M 81.9,184.9 L 77.3,183.4 M 77.3,183.4 L 75.8,188.1 M 75.8,188.1 L 80.4,189.7 M 80.4,189.7 L 81.9,184.9 M 78.4,183.0 L 73.6,180.9 M 73.6,180.9 L 71.3,185.9 M 71.3,185.9 L 76.1,188.1 M 76.1,188.1 L 78.4,183.0 M 147.2,238.0 L 153.3,233.4 M 153.3,233.4 L 148.5,227.2 M 148.5,227.2 L 142.5,231.7 M 142.5,231.7 L 147.2,238.0 M 156.8,227.9 L 150.5,225.8 M 150.5,225.8 L 148.4,232.2 M 148.4,232.2 L 154.7,234.4 M 154.7,234.4 L 156.8,227.9 M 159.1,237.0 L 157.0,243.1 M 157.0,243.1 L 163.3,245.3 M 163.3,245.3 L 165.4,239.2 M 165.4,239.2 L 159.1,237.0 M 157.1,248.7 L 162.6,247.2 M 162.6,247.2 L 161.0,241.7 M 161.0,241.7 L 155.5,243.2 M 155.5,243.2 L 157.1,248.7 M 161.7,248.3 L 166.7,240.8 M 166.7,240.8 L 160.6,241.9 M 160.6,241.9 L 161.7,248.3 M 102.0,211.0 L 107.3,213.3 M 107.3,213.3 L 109.7,207.7 M 109.7,207.7 L 104.4,205.4 M 104.4,205.4 L 102.0,211.0 M 112.4,213.6 L 111.4,208.6 M 111.4,208.6 L 106.3,209.6 M 106.3,209.6 L 107.3,214.6 M 107.3,214.6 L 112.4,213.6 M 112.3,209.4 L 111.8,203.9 M 111.8,203.9 L 106.0,204.4 M 106.0,204.4 L 106.5,209.9 M 106.5,209.9 L 112.3,209.4 M 380.0,181.1 L 380.0,143.0 M 380.0,143.0 L 316.5,143.0 M 316.5,181.1 L 380.0,181.1 M 316.5,143.0 L 259.6,143.0 M 259.5,181.1 L 316.5,181.1 M 259.6,143.0 L 215.2,150.8 M 218.4,204.3 L 259.5,181.1 M 215.2,150.8 L 176.5,159.7 M 194.3,229.9 L 218.4,204.3 M 76.0,341.7 L 163.7,358.6 M 163.7,358.6 L 203.2,305.4 M 203.2,305.4 L 194.3,229.9 M 138.4,33.5 L 100.4,20.0 M 100.4,20.0 L 100.4,102.5 M 138.4,102.5 L 138.4,33.5 M 141.7,139.9 L 138.4,102.5 M 91.4,263.7 L 105.0,230.1 M 37.8,146.6 L 20.0,223.2 M 100.4,102.5 L 89.9,123.1 M 176.5,159.7 L 141.7,139.9 M 89.9,123.1 L 37.8,146.6 M 20.0,223.2 L 26.7,262.9 M 26.7,262.9 L 41.3,300.5 M 41.3,300.5 L 76.0,341.7" fill="none" stroke="white" stroke-width="2" stroke-linecap="round"/>
  <polygon points="119.58980071180622,88.29557107594057 127.58980071180622,96.29557107594057 119.58980071180622,104.29557107594057 111.58980071180622,96.29557107594057" fill="#4a9eff" stroke="white" stroke-width="1"/>
<polygon points="279.40553646380516,154.1618106435435 287.40553646380516,162.1618106435435 279.40553646380516,170.1618106435435 271.40553646380516,162.1618106435435" fill="#4a9eff" stroke="white" stroke-width="1"/>
</svg>