<svg xmlns="http://www.w3.org/2000/svg" viewBox="0 0 400 400">
  <rect width="400" height="400" fill="#1a1a2e"/>
  <path d="M 139.2,309.1 L 123.8,288.5 L 110.7,322.6 Z M 123.8,288.5 L 101.5,298.7 L 110.7,322.6 Z M 157.7,207.1 L 165.9,250.6 L 188.4,190.7 Z M 165.9,250.6 L 202.5,230.3 L 188.4,190.7 Z M 185.7,331.0 L 214.6,326.4 L 181.3,303.0 Z M 214.6,326.4 L 209.0,298.0 L 181.3,303.0 Z M 209.0,298.0 L 214.6,326.4 L 259.7,318.7 Z M 214.6,326.4 L 220.5,348.1 L 259.7,318.7 Z M 157.7,207.1 L 116.7,220.6 L 126.3,256.0 Z M 157.7,207.1 L 126.3,256.0 L 165.9,250.6 Z M 126.3,256.0 L 81.2,289.5 L 101.5,298.7 Z M 126.3,256.0 L 101.5,298.7 L 123.8,288.5 Z M 91.3,189.3 L 75.2,135.6 L 22.6,176.9 Z M 139.2,309.1 L 181.3,303.0 L 165.9,250.6 Z M 157.7,207.1 L 154.0,183.4 L 116.7,220.6 Z M 147.4,235.8 L 149.0,241.8 L 155.3,240.1 Z M 147.4,235.8 L 155.3,240.1 L 153.6,234.1 Z M 152.2,246.2 L 155.7,242.0 L 151.4,238.5 Z M 152.2,246.2 L 151.4,238.5 L 147.9,242.6 Z M 155.6,243.3 L 155.5,234.7 L 151.3,238.8 Z M 139.0,235.5 L 141.7,239.3 L 145.6,236.5 Z M 139.0,235.5 L 145.6,236.5 L 143.0,232.7 Z M 145.0,241.6 L 146.5,237.8 L 142.5,236.4 Z M 145.0,241.6 L 142.5,236.4 L 141.1,240.2 Z M 146.7,238.7 L 148.6,234.7 L 144.4,232.7 Z M 146.7,238.7 L 144.4,232.7 L 142.5,236.7 Z M 143.8,204.8 L 150.4,207.8 L 153.5,201.0 Z M 143.8,204.8 L 153.5,201.0 L 146.9,198.0 Z M 156.6,208.3 L 155.5,202.1 L 149.2,203.2 Z M 156.6,208.3 L 149.2,203.2 L 150.2,209.5 Z M 167.2,221.5 L 163.1,227.4 L 169.2,231.6 Z M 167.2,221.5 L 169.2,231.6 L 173.3,225.7 Z M 161.5,233.5 L 167.9,233.5 L 167.8,227.1 Z M 161.5,233.5 L 167.8,227.1 L 161.5,227.0 Z M 120.6,287.1 L 116.5,293.0 L 122.6,297.2 Z M 120.6,287.1 L 122.6,297.2 L 126.8,291.3 Z M 115.0,298.9 L 121.2,299.2 L 121.3,292.5 Z M 115.0,298.9 L 121.3,292.5 L 114.9,292.7 Z M 162.0,200.4 L 162.7,207.5 L 170.1,206.8 Z M 162.0,200.4 L 170.1,206.8 L 169.5,199.6 Z M 171.3,203.8 L 176.5,206.3 L 179.0,200.8 Z M 171.3,203.8 L 179.0,200.8 L 173.8,198.4 Z M 181.5,206.6 L 180.7,201.6 L 175.6,202.6 Z M 181.5,206.6 L 175.6,202.6 L 176.4,207.5 Z M 181.5,202.5 L 181.1,197.0 L 175.3,197.4 Z M 181.5,202.5 L 175.3,197.4 L 175.7,202.9 Z M 128.2,310.9 L 131.7,306.8 L 127.4,303.2 Z M 128.2,310.9 L 127.4,303.2 L 123.8,307.4 Z M 131.6,308.1 L 131.5,299.4 L 127.3,303.6 Z M 159.3,301.6 L 165.8,304.6 L 168.9,297.7 Z M 159.3,301.6 L 168.9,297.7 L 162.4,294.7 Z M 172.1,305.0 L 171.0,298.8 L 164.7,300.0 Z M 172.1,305.0 L 164.7,300.0 L 165.7,306.2 Z M 196.2,310.1 L 202.8,313.1 L 205.8,306.3 Z M 196.2,310.1 L 205.8,306.3 L 199.3,303.3 Z M 209.0,313.6 L 207.9,307.3 L 201.6,308.5 Z M 209.0,313.6 L 201.6,308.5 L 202.6,314.7 Z M 187.1,304.3 L 188.6,309.6 L 194.1,308.1 Z M 187.1,304.3 L 194.1,308.1 L 192.7,302.7 Z M 191.4,313.5 L 194.5,309.8 L 190.7,306.7 Z M 191.4,313.5 L 190.7,306.7 L 187.6,310.4 Z M 194.4,311.0 L 198.2,307.3 L 194.4,303.3 Z M 194.4,311.0 L 194.4,303.3 L 190.6,307.0 Z M 67.4,185.0 L 73.2,182.8 L 70.9,176.7 Z M 67.4,185.0 L 70.9,176.7 L 65.1,178.9 Z M 77.3,179.3 L 72.8,176.1 L 69.7,180.7 Z M 77.3,179.3 L 69.7,180.7 L 74.1,183.9 Z M 74.1,176.1 L 65.5,176.9 L 70.0,180.8 Z M 81.2,289.5 L 126.3,256.0 L 116.7,220.6 Z M 81.2,289.5 L 116.7,220.6 L 91.3,189.3 Z M 91.3,189.3 L 116.7,220.6 L 154.0,183.4 Z M 91.3,189.3 L 154.0,183.4 L 111.4,134.6 Z M 111.4,20.0 L 75.2,20.0 L 75.2,80.4 Z M 111.4,20.0 L 75.2,80.4 L 111.4,80.4 Z M 111.4,80.4 L 75.2,80.4 L 75.2,135.6 Z M 111.4,80.4 L 75.2,135.6 L 111.4,134.6 Z M 154.0,183.4 L 157.7,207.1 L 188.4,190.7 Z M 154.0,183.4 L 188.4,190.7 L 212.8,140.1 Z M 212.8,140.1 L 188.4,190.7 L 202.5,230.3 Z M 212.8,140.1 L 202.5,230.3 L 235.1,214.0 Z M 91.3,189.3 L 22.6,176.9 L 81.2,289.5 Z M 22.6,176.9 L 20.0,283.8 L 81.2,289.5 Z M 81.2,289.5 L 20.0,283.8 L 48.9,308.9 Z M 259.9,216.7 L 254.0,180.5 L 235.1,214.0 Z M 254.0,180.5 L 212.8,140.1 L 235.1,214.0 Z M 139.2,309.1 L 110.7,322.6 L 141.3,380.0 Z M 110.7,322.6 L 92.9,331.0 L 141.3,380.0 Z M 214.6,326.4 L 185.7,331.0 L 186.6,376.2 Z M 214.6,326.4 L 186.6,376.2 L 220.5,348.1 Z M 254.0,180.5 L 259.9,216.7 L 362.9,216.7 Z M 254.0,180.5 L 362.9,216.7 L 361.0,180.5 Z M 259.9,216.7 L 235.1,214.0 L 209.0,298.0 Z M 259.9,216.7 L 209.0,298.0 L 246.7,269.3 Z M 202.5,230.3 L 165.9,250.6 L 181.3,303.0 Z M 202.5,230.3 L 181.3,303.0 L 209.0,298.0 Z M 123.8,288.5 L 139.2,309.1 L 165.9,250.6 Z M 123.8,288.5 L 165.9,250.6 L 126.3,256.0 Z M 110.7,322.6 L 101.5,298.7 L 81.2,289.5 Z M 110.7,322.6 L 81.2,289.5 L 92.9,331.0 Z M 139.2,309.1 L 141.3,380.0 L 185.7,331.0 Z M 139.2,309.1 L 185.7,331.0 L 181.3,303.0 Z M 111.4,134.6 L 75.2,135.6 L 91.3,189.3 Z M 246.7,269.3 L 209.0,298.0 L 259.7,318.7 Z M 209.0,298.0 L 235.1,214.0 L 202.5,230.3 Z M 154.0,183.4 L 212.8,140.1 L 111.4,134.6 Z M 141.3,380.0 L 186.6,376.2 L 185.7,331.0 Z M 48.9,308.9 L 92.9,331.0 L 81.2,289.5 Z" fill="#2a2a4e" stroke="none"/>
  <path d="M 220.5,348.1 L 259.7,318.7 M 75.2,135.6 L 22.6,176.9 M 147.4,235.8 L 149.0,241.8 M 149.0,241.8 L 155.3,240.1 M 155.3,240.1 L 153.6,234.1 M 153.6,234.1 L 147.4,235.8 M 152.2,246.2 L 155.7,242.0 M 155.7,242.0 L 151.4,238.5 M 151.4,238.5 L 147.9,242.6 M 147.9,242.6 L 152.2,246.2 M 155.6,243.3 L 155.5,234.7 M 155.5,234.7 L 151.3,238.8 M 151.3,238.8 L 155.6,243.3 M 139.0,235.5 L 141.7,239.3 M 141.7,239.3 L 145.6,236.5 M 145.6,236.5 L 143.0,232.7 M 143.0,232.7 L 139.0,235.5 M 145.0,241.6 L 146.5,237.8 M 146.5,237.8 L 142.5,236.4 M 142.5,236.4 L 141.1,240.2 M 141.1,240.2 L 145.0,241.6 M 146.7,238.7 L 148.6,234.7 M 148.6,234.7 L 144.4,232.7 M 144.4,232.7 L 142.5,236.7 M 142.5,236.7 L 146.7,238.7 M 143.8,204.8 L 150.4,207.8 M 150.4,207.8 L 153.5,201.0 M 153.5,201.0 L 146.9,198.0 M 146.9,198.0 L 143.8,204.8 M 156.6,208.3 L 155.5,202.1 M 155.5,202.1 L 149.2,203.2 M 149.2,203.2 L 150.2,209.5 M 150.2,209.5 L 156.6,208.3 M 167.2,221.5 L 163.1,227.4 M 163.1,227.4 L 169.2,231.6 M 169.2,231.6 L 173.3,225.7 M 173.3,225.7 L 167.2,221.5 M 161.5,233.5 L 167.9,233.5 M 167.9,233.5 L 167.8,227.1 M 167.8,227.1 L 161.5,227.0 M 161.5,227.0 L 161.5,233.5 M 120.6,287.1 L 116.5,293.0 M 116.5,293.0 L 122.6,297.2 M 122.6,297.2 L 126.8,291.3 M 126.8,291.3 L 120.6,287.1 M 115.0,298.9 L 121.2,299.2 M 121.2,299.2 L 121.3,292.5 M 121.3,292.5 L 114.9,292.7 M 114.9,292.7 L 115.0,298.9 M 162.0,200.4 L 162.7,207.5 M 162.7,207.5 L 170.1,206.8 M 170.1,206.8 L 169.5,199.6 M 169.5,199.6 L 162.0,200.4 M 171.3,203.8 L 176.5,206.3 M 176.5,206.3 L 179.0,200.8 M 179.0,200.8 L 173.8,198.4 M 173.8,198.4 L 171.3,203.8 M 181.5,206.6 L 180.7,201.6 M 180.7,201.6 L 175.6,202.6 M 175.6,202.6 L 176.4,207.5 M 176.4,207.5 L 181.5,206.6 M 181.5,202.5 L 181.1,197.0 M 181.1,197.0 L 175.3,197.4 M 175.3,197.4 L 175.7,202.9 M 175.7,202.9 L 181.5,202.5 M 128.2,310.9 L 131.7,306.8 M 131.7,306.8 L 127.4,303.2 M 127.4,303.2 L 123.8,307.4 M 123.8,307.4 L 128.2,310.9 M 131.6,308.1 L 131.5,299.4 M 131.5,299.4 L 127.3,303.6 M 127.3,303.6 L 131.6,308.1 M 159.3,301.6 L 165.8,304.6 M 165.8,304.6 L 168.9,297.7 M 168.9,297.7 L 162.4,294.7 M 162.4,294.7 L 159.3,301.6 M 172.1,305.0 L 171.0,298.8 M 171.0,298.8 L 164.7,300.0 M 164.7,300.0 L 165.7,306.2 M 165.7,306.2 L 172.1,305.0 M 196.2,310.1 L 202.8,313.1 M 202.8,313.1 L 205.8,306.3 M 205.8,306.3 L 199.3,303.3 M 199.3,303.3 L 196.2,310.1 M 209.0,313.6 L 207.9,307.3 M 207.9,307.3 L 201.6,308.5 M 201.6,308.5 L 202.6,314.7 M 202.6,314.7 L 209.0,313.6 M 187.1,304.3 L 188.6,309.6 M 188.6,309.6 L 194.1,308.1 M 194.1,308.1 L 192.7,302.7 M 192.7,302.7 L 187.1,304.3 M 191.4,313.5 L 194.5,309.8 M 194.5,309.8 L 190.7,306.7 M 190.7,306.7 L 187.6,310.4 M 187.6,310.4 L 191.4,313.5 M 194.4,311.0 L 198.2,307.3 M 198.2,307.3 L 194.4,303.3 M 194.4,303.3 L 190.6,307.0 M 190.6,307.0 L 194.4,311.0 M 67.4,185.0 L 73.2,182.8 M 73.2,182.8 L 70.9,176.7 M 70.9,176.7 L 65.1,178.9 M 65.1,178.9 L 67.4,185.0 M 77.3,179.3 L 72.8,176.1 M 72.8,176.1 L 69.7,180.7 M 69.7,180.7 L 74.1,183.9 M 74.1,183.9 L 77.3,179.3 M 74.1,176.1 L 65.5,176.9 M 65.5,176.9 L 70.0,180.8 M 70.0,180.8 L 74.1,176.1 M 111.4,20.0 L 75.2,20.0 M 75.2,20.0 L 75.2,80.4 M 111.4,80.4 L 111.4,20.0 M 75.2,80.4 L 75.2,135.6 M 111.4,134.6 L 111.4,80.4 M 22.6,176.9 L 20.0,283.8 M 20.0,283.8 L 48.9,308.9 M 254.0,180.5 L 212.8,140.1 M 92.9,331.0 L 141.3,380.0 M 186.6,376.2 L 220.5,348.1 M 259.9,216.7 L 362.9,216.7 M 362.9,216.7 L 361.0,180.5 M 361.0,180.5 L 254.0,180.5 M 246.7,269.3 L 259.9,216.7 M 259.7,318.7 L 246.7,269.3 M 212.8,140.1 L 111.4,134.6 M 141.3,380.0 L 186.6,376.2 M 48.9,308.9 L 92.9,331.0" fill="none" stroke="white" stroke-width="2" stroke-linecap="round"/>
  <polygon points="92.93003008730723,116.63262580175909 100.93003008730723,124.63262580175909 92.93003008730723,132.6326258017591 84.93003008730723,124.63262580175909" fill="#4a9eff" stroke="white" stroke-width="1"/>
<polygon points="270.3921073102515,191.014389407005 278.3921073102515,199.014389407005 270.3921073102515,207.014389407005 262.3921073102515,199.014389407005" fill="#4a9eff" stroke="white" stroke-width="1"/>
</svg>