<svg xmlns="http://www.w3.org/2000/svg" viewBox="0 0 400 400">
  <rect width="400" height="400" fill="#1a1a2e"/>
  <path d="M 186.8,174.6 L 200.3,184.1 L 212.7,173.8 Z M 186.8,174.6 L 212.7,173.8 L 204.9,161.5 Z M 172.3,245.4 L 190.9,239.5 L 191.1,225.6 Z M 172.3,245.4 L 191.1,225.6 L 177.8,225.6 Z M 172.3,245.4 L 196.4,257.2 L 190.9,239.5 Z M 204.9,161.5 L 176.8,161.5 L 186.8,174.6 Z M 177.3,194.7 L 177.3,214.7 L 193.3,214.7 Z M 177.3,194.7 L 193.3,214.7 L 193.3,194.7 Z M 177.8,225.6 L 163.4,231.6 L 172.3,245.4 Z M 163.4,231.6 L 162.1,243.1 L 172.3,245.4 Z M 190.9,239.5 L 196.4,257.2 L 211.6,247.9 Z M 190.9,239.5 L 211.6,247.9 L 211.6,240.3 Z M 162.7,175.3 L 179.2,184.1 L 186.8,174.6 Z M 162.7,175.3 L 186.8,174.6 L 161.7,169.0 Z M 161.7,169.0 L 186.8,174.6 L 176.8,161.5 Z M 211.6,240.3 L 191.1,225.6 L 190.9,239.5 Z M 186.8,174.6 L 179.2,184.1 L 200.3,184.1 Z M 218.9,169.2 L 206.7,169.2 L 206.7,181.4 Z M 218.9,169.2 L 206.7,181.4 L 218.9,181.4 Z M 196.3,227.1 L 187.7,218.5 L 179.0,227.1 Z M 196.3,227.1 L 179.0,227.1 L 187.7,235.8 Z M 168.2,154.9 L 168.3,167.1 L 180.5,166.9 Z M 168.2,154.9 L 180.5,166.9 L 180.4,154.8 Z M 182.0,259.6 L 194.0,257.4 L 191.9,245.4 Z M 182.0,259.6 L 191.9,245.4 L 179.9,247.6 Z M 266.0,309.6 L 380.0,380.0 L 311.0,237.1 Z M 380.0,380.0 L 380.0,200.0 L 311.0,237.1 Z M 311.0,237.1 L 380.0,200.0 L 311.0,139.3 Z M 380.0,200.0 L 380.0,20.0 L 311.0,139.3 Z M 311.0,139.3 L 380.0,20.0 L 242.7,95.9 Z M 380.0,20.0 L 186.6,20.0 L 242.7,95.9 Z M 242.7,95.9 L 186.6,20.0 L 134.6,95.9 Z M 186.6,20.0 L 20.0,20.0 L 134.6,95.9 Z M 134.6,95.9 L 20.0,20.0 L 86.6,171.6 Z M 20.0,20.0 L 20.0,380.0 L 86.6,171.6 Z M 86.6,171.6 L 20.0,380.0 L 104.9,260.7 Z M 20.0,380.0 L 170.1,309.6 L 104.9,260.7 Z M 208.0,151.3 L 225.4,175.2 L 241.4,165.6 Z M 225.4,175.2 L 252.0,188.0 L 241.4,165.6 Z M 266.0,309.6 L 170.1,309.6 L 20.0,380.0 Z M 266.0,309.6 L 20.0,380.0 L 380.0,380.0 Z M 192.0,124.0 L 192.0,151.3 L 208.0,151.3 Z M 192.0,124.0 L 208.0,151.3 L 208.0,124.0 Z M 252.0,188.0 L 252.0,204.0 L 281.3,204.0 Z M 252.0,188.0 L 281.3,204.0 L 281.3,188.0 Z M 252.0,188.0 L 225.4,175.2 L 203.2,194.7 Z M 252.0,188.0 L 203.2,194.7 L 232.2,210.6 Z M 232.2,210.6 L 252.0,204.0 L 252.0,188.0 Z M 221.2,254.6 L 221.2,235.9 L 211.6,240.3 Z M 221.2,254.6 L 211.6,240.3 L 211.6,247.9 Z M 177.3,214.7 L 153.9,224.4 L 163.4,231.6 Z M 177.3,214.7 L 163.4,231.6 L 177.8,225.6 Z M 191.1,225.6 L 193.3,214.7 L 177.3,214.7 Z M 191.1,225.6 L 177.3,214.7 L 177.8,225.6 Z M 176.8,161.5 L 204.9,161.5 L 192.0,151.3 Z M 176.8,161.5 L 192.0,151.3 L 174.3,151.3 Z M 176.8,161.5 L 174.3,151.3 L 150.4,163.3 Z M 176.8,161.5 L 150.4,163.3 L 161.7,169.0 Z M 150.4,163.3 L 152.8,182.0 L 162.7,175.3 Z M 150.4,163.3 L 162.7,175.3 L 161.7,169.0 Z M 162.7,175.3 L 152.8,182.0 L 177.3,194.7 Z M 162.7,175.3 L 177.3,194.7 L 179.2,184.1 Z M 200.3,184.1 L 179.2,184.1 L 177.3,194.7 Z M 200.3,184.1 L 177.3,194.7 L 193.3,194.7 Z M 153.9,224.4 L 151.2,250.1 L 162.1,243.1 Z M 153.9,224.4 L 162.1,243.1 L 163.4,231.6 Z M 162.1,243.1 L 151.2,250.1 L 168.8,254.6 Z M 162.1,243.1 L 168.8,254.6 L 172.3,245.4 Z M 211.6,240.3 L 221.2,235.9 L 193.3,214.7 Z M 211.6,240.3 L 193.3,214.7 L 191.1,225.6 Z M 172.3,245.4 L 168.8,254.6 L 195.7,268.1 Z M 172.3,245.4 L 195.7,268.1 L 196.4,257.2 Z M 195.7,268.1 L 221.2,254.6 L 211.6,247.9 Z M 195.7,268.1 L 211.6,247.9 L 196.4,257.2 Z M 212.7,173.8 L 200.3,184.1 L 203.2,194.7 Z M 212.7,173.8 L 203.2,194.7 L 225.4,175.2 Z M 208.0,151.3 L 204.9,161.5 L 212.7,173.8 Z M 208.0,151.3 L 212.7,173.8 L 225.4,175.2 Z M 193.3,194.7 L 203.2,194.7 L 200.3,184.1 Z M 204.9,161.5 L 208.0,151.3 L 192.0,151.3 Z" fill="#2a2a4e" stroke="none"/>
  <path d="M 177.3,194.7 L 177.3,214.7 M 193.3,214.7 L 193.3,194.7 M 218.9,169.2 L 206.7,169.2 M 206.7,169.2 L 206.7,181.4 M 206.7,181.4 L 218.9,181.4 M 218.9,181.4 L 218.9,169.2 M 196.3,227.1 L 187.7,218.5 M 187.7,218.5 L 179.0,227.1 M 179.0,227.1 L 187.7,235.8 M 187.7,235.8 L 196.3,227.1 M 168.2,154.9 L 168.3,167.1 M 168.3,167.1 L 180.5,166.9 M 180.5,166.9 L 180.4,154.8 M 180.4,154.8 L 168.2,154.9 M 182.0,259.6 L 194.0,257.4 M 194.0,257.4 L 191.9,245.4 M 191.9,245.4 L 179.9,247.6 M 179.9,247.6 L 182.0,259.6 M 311.0,237.1 L 266.0,309.6 M 380.0,380.0 L 380.0,200.0 M 311.0,139.3 L 311.0,237.1 M 380.0,200.0 L 380.0,20.0 M 242.7,95.9 L 311.0,139.3 M 380.0,20.0 L 186.6,20.0 M 134.6,95.9 L 242.7,95.9 M 186.6,20.0 L 20.0,20.0 M 86.6,171.6 L 134.6,95.9 M 20.0,20.0 L 20.0,380.0 M 104.9,260.7 L 86.6,171.6 M 170.1,309.6 L 104.9,260.7 M 241.4,165.6 L 208.0,151.3 M 252.0,188.0 L 241.4,165.6 M 266.0,309.6 L 170.1,309.6 M 20.0,380.0 L 380.0,380.0 M 192.0,124.0 L 192.0,151.3 M 208.0,151.3 L 208.0,124.0 M 208.0,124.0 L 192.0,124.0 M 252.0,204.0 L 281.3,204.0 M 281.3,204.0 L 281.3,188.0 M 281.3,188.0 L 252.0,188.0 M 203.2,194.7 L 232.2,210.6 M 232.2,210.6 L 252.0,204.0 M 221.2,254.6 L 221.2,235.9 M 177.3,214.7 L 153.9,224.4 M 192.0,151.3 L 174.3,151.3 M 174.3,151.3 L 150.4,163.3 M 150.4,163.3 L 152.8,182.0 M 152.8,182.0 L 177.3,194.7 M 153.9,224.4 L 151.2,250.1 M 151.2,250.1 L 168.8,254.6 M 221.2,235.9 L 193.3,214.7 M 168.8,254.6 L 195.7,268.1 M 195.7,268.1 L 221.2,254.6 M 193.3,194.7 L 203.2,194.7" fill="none" stroke="white" stroke-width="2" stroke-linecap="round"/>
  <polygon points="200.14983921148237,137.0265670651301 208.14983921148237,145.0265670651301 200.14983921148237,153.0265670651301 192.14983921148237,145.0265670651301" fill="#4a9eff" stroke="white" stroke-width="1"/>
<polygon points="258.0480222835757,188.20866747634915 266.0480222835757,196.20866747634915 258.0480222835757,204.20866747634915 250.04802228357568,196.20866747634915" fill="#4a9eff" stroke="white" stroke-width="1"/>
</svg>