<svg xmlns="http://www.w3.org/2000/svg" viewBox="0 0 400 400">
  <rect width="400" height="400" fill="#1a1a2e"/>
  <path d="M 182.1,124.6 L 172.4,99.8 L 144.7,104.7 Z M 182.1,124.6 L 144.7,104.7 L 152.3,135.4 Z M 66.9,159.4 L 57.0,185.2 L 83.3,196.2 Z M 66.9,159.4 L 83.3,196.2 L 93.3,173.0 Z M 198.7,257.0 L 201.9,226.4 L 166.0,224.6 Z M 198.7,257.0 L 166.0,224.6 L 168.3,255.1 Z M 93.3,173.0 L 108.4,147.4 L 63.8,129.7 Z M 93.3,173.0 L 63.8,129.7 L 66.9,159.4 Z M 182.1,124.6 L 226.8,120.6 L 198.9,86.0 Z M 58.5,87.6 L 23.5,113.8 L 63.8,129.7 Z M 177.4,231.4 L 176.0,236.8 L 181.6,238.2 Z M 177.4,231.4 L 181.6,238.2 L 183.0,232.8 Z M 176.5,241.6 L 181.1,239.9 L 179.4,235.3 Z M 176.5,241.6 L 179.4,235.3 L 174.8,236.9 Z M 180.4,240.9 L 184.2,234.2 L 179.1,235.5 Z M 171.1,227.5 L 171.5,231.6 L 175.7,231.2 Z M 171.1,227.5 L 175.7,231.2 L 175.4,227.1 Z M 173.0,234.8 L 175.8,232.5 L 173.4,229.7 Z M 173.0,234.8 L 173.4,229.7 L 170.6,232.0 Z M 175.6,233.3 L 178.8,231.1 L 176.5,227.7 Z M 175.6,233.3 L 176.5,227.7 L 173.3,229.9 Z M 147.6,114.7 L 151.8,119.6 L 156.8,115.3 Z M 147.6,114.7 L 156.8,115.3 L 152.7,110.4 Z M 185.8,110.3 L 183.6,104.3 L 177.4,106.6 Z M 185.8,110.3 L 177.4,106.6 L 179.6,112.6 Z M 179.9,100.1 L 176.7,104.6 L 181.4,107.9 Z M 179.9,100.1 L 181.4,107.9 L 184.7,103.3 Z M 155.5,124.4 L 155.9,128.5 L 160.1,128.1 Z M 155.5,124.4 L 160.1,128.1 L 159.7,124.0 Z M 157.4,131.8 L 160.2,129.5 L 157.8,126.7 Z M 157.4,131.8 L 157.8,126.7 L 155.0,128.9 Z M 160.0,130.3 L 163.2,128.1 L 160.9,124.6 Z M 160.0,130.3 L 160.9,124.6 L 157.7,126.9 Z M 87.4,161.4 L 85.2,155.4 L 78.9,157.8 Z M 87.4,161.4 L 78.9,157.8 L 81.2,163.8 Z M 81.5,151.2 L 78.3,155.8 L 83.0,159.0 Z M 81.5,151.2 L 83.0,159.0 L 86.3,154.5 Z M 67.2,183.5 L 72.2,184.4 L 73.1,179.1 Z M 67.2,183.5 L 73.1,179.1 L 68.0,178.3 Z M 55.7,126.4 L 53.5,120.4 L 47.3,122.7 Z M 55.7,126.4 L 47.3,122.7 L 49.5,128.8 Z M 49.9,116.2 L 46.6,120.8 L 51.4,124.0 Z M 49.9,116.2 L 51.4,124.0 L 54.6,119.4 Z M 133.3,22.3 L 130.4,25.9 L 128.3,22.0 Z M 108.8,24.5 L 113.6,23.0 L 112.6,27.3 Z M 138.1,20.0 L 105.8,20.0 L 105.8,82.8 Z M 138.1,20.0 L 105.8,82.8 L 138.1,74.7 Z M 138.1,74.7 L 105.8,82.8 L 144.7,104.7 Z M 138.1,74.7 L 144.7,104.7 L 172.4,99.8 Z M 173.0,380.0 L 205.3,380.0 L 205.3,326.1 Z M 173.0,380.0 L 205.3,326.1 L 173.0,326.1 Z M 173.0,326.1 L 205.3,326.1 L 205.3,277.0 Z M 173.0,326.1 L 205.3,277.0 L 173.0,277.8 Z M 173.0,277.8 L 205.3,277.0 L 198.7,257.0 Z M 173.0,277.8 L 198.7,257.0 L 168.3,255.1 Z M 124.9,215.8 L 154.1,196.1 L 138.6,185.7 Z M 124.9,215.8 L 138.6,185.7 L 103.9,195.4 Z M 103.9,195.4 L 138.6,185.7 L 108.4,147.4 Z M 103.9,195.4 L 108.4,147.4 L 93.3,173.0 Z M 97.8,273.1 L 173.0,277.8 L 168.3,255.1 Z M 97.8,273.1 L 168.3,255.1 L 87.8,250.2 Z M 87.8,250.2 L 168.3,255.1 L 166.0,224.6 Z M 87.8,250.2 L 166.0,224.6 L 124.9,215.8 Z M 217.4,147.3 L 226.8,120.6 L 182.1,124.6 Z M 217.4,147.3 L 182.1,124.6 L 184.5,160.0 Z M 184.5,160.0 L 182.1,124.6 L 152.3,135.4 Z M 184.5,160.0 L 152.3,135.4 L 149.0,157.2 Z M 149.0,157.2 L 152.3,135.4 L 144.7,104.7 Z M 149.0,157.2 L 144.7,104.7 L 108.4,147.4 Z M 103.9,195.4 L 93.3,173.0 L 83.3,196.2 Z M 103.9,195.4 L 83.3,196.2 L 78.2,211.7 Z M 78.2,211.7 L 83.3,196.2 L 57.0,185.2 Z M 78.2,211.7 L 57.0,185.2 L 54.3,199.9 Z M 252.1,240.2 L 252.7,197.2 L 201.9,226.4 Z M 252.7,197.2 L 223.1,186.9 L 201.9,226.4 Z M 182.1,124.6 L 198.9,86.0 L 172.4,99.8 Z M 198.9,86.0 L 138.1,74.7 L 172.4,99.8 Z M 66.9,159.4 L 20.0,157.8 L 57.0,185.2 Z M 20.0,157.8 L 54.3,199.9 L 57.0,185.2 Z M 108.4,147.4 L 105.8,82.8 L 58.5,87.6 Z M 108.4,147.4 L 58.5,87.6 L 63.8,129.7 Z M 66.9,159.4 L 63.8,129.7 L 23.5,113.8 Z M 66.9,159.4 L 23.5,113.8 L 20.0,157.8 Z M 201.9,226.4 L 198.7,257.0 L 205.3,277.0 Z M 201.9,226.4 L 205.3,277.0 L 252.1,240.2 Z M 223.1,186.9 L 154.1,196.1 L 166.0,224.6 Z M 223.1,186.9 L 166.0,224.6 L 201.9,226.4 Z M 166.0,224.6 L 154.1,196.1 L 124.9,215.8 Z M 108.4,147.4 L 138.6,185.7 L 149.0,157.2 Z M 108.4,147.4 L 144.7,104.7 L 105.8,82.8 Z" fill="#2a2a4e" stroke="none"/>
  <path d="M 226.8,120.6 L 198.9,86.0 M 58.5,87.6 L 23.5,113.8 M 177.4,231.4 L 176.0,236.8 M 176.0,236.8 L 181.6,238.2 M 181.6,238.2 L 183.0,232.8 M 183.0,232.8 L 177.4,231.4 M 176.5,241.6 L 181.1,239.9 M 181.1,239.9 L 179.4,235.3 M 179.4,235.3 L 174.8,236.9 M 174.8,236.9 L 176.5,241.6 M 180.4,240.9 L 184.2,234.2 M 184.2,234.2 L 179.1,235.5 M 179.1,235.5 L 180.4,240.9 M 171.1,227.5 L 171.5,231.6 M 171.5,231.6 L 175.7,231.2 M 175.7,231.2 L 175.4,227.1 M 175.4,227.1 L 171.1,227.5 M 173.0,234.8 L 175.8,232.5 M 175.8,232.5 L 173.4,229.7 M 173.4,229.7 L 170.6,232.0 M 170.6,232.0 L 173.0,234.8 M 175.6,233.3 L 178.8,231.1 M 178.8,231.1 L 176.5,227.7 M 176.5,227.7 L 173.3,229.9 M 173.3,229.9 L 175.6,233.3 M 147.6,114.7 L 151.8,119.6 M 151.8,119.6 L 156.8,115.3 M 156.8,115.3 L 152.7,110.4 M 152.7,110.4 L 147.6,114.7 M 185.8,110.3 L 183.6,104.3 M 183.6,104.3 L 177.4,106.6 M 177.4,106.6 L 179.6,112.6 M 179.6,112.6 L 185.8,110.3 M 179.9,100.1 L 176.7,104.6 M 176.7,104.6 L 181.4,107.9 M 181.4,107.9 L 184.7,103.3 M 184.7,103.3 L 179.9,100.1 M 155.5,124.4 L 155.9,128.5 M 155.9,128.5 L 160.1,128.1 M 160.1,128.1 L 159.7,124.0 M 159.7,124.0 L 155.5,124.4 M 157.4,131.8 L 160.2,129.5 M 160.2,129.5 L 157.8,126.7 M 157.8,126.7 L 155.0,128.9 M 155.0,128.9 L 157.4,131.8 M 160.0,130.3 L 163.2,128.1 M 163.2,128.1 L 160.9,124.6 M 160.9,124.6 L 157.7,126.9 M 157.7,126.9 L 160.0,130.3 M 87.4,161.4 L 85.2,155.4 M 85.2,155.4 L 78.9,157.8 M 78.9,157.8 L 81.2,163.8 M 81.2,163.8 L 87.4,161.4 M 81.5,151.2 L 78.3,155.8 M 78.3,155.8 L 83.0,159.0 M 83.0,159.0 L 86.3,154.5 M 86.3,154.5 L 81.5,151.2 M 67.2,183.5 L 72.2,184.4 M 72.2,184.4 L 73.1,179.1 M 73.1,179.1 L 68.0,178.3 M 68.0,178.3 L 67.2,183.5 M 55.7,126.4 L 53.5,120.4 M 53.5,120.4 L 47.3,122.7 M 47.3,122.7 L 49.5,128.8 M 49.5,128.8 L 55.7,126.4 M 49.9,116.2 L 46.6,120.8 M 46.6,120.8 L 51.4,124.0 M 51.4,124.0 L 54.6,119.4 M 54.6,119.4 L 49.9,116.2 M 133.3,22.3 L 130.4,25.9 M 130.4,25.9 L 128.3,22.0 M 128.3,22.0 L 133.3,22.3 M 108.8,24.5 L 113.6,23.0 M 113.6,23.0 L 112.6,27.3 M 112.6,27.3 L 108.8,24.5 M 138.1,20.0 L 105.8,20.0 M 105.8,20.0 L 105.8,82.8 M 138.1,74.7 L 138.1,20.0 M 173.0,380.0 L 205.3,380.0 M 205.3,380.0 L 205.3,326.1 M 173.0,326.1 L 173.0,380.0 M 205.3,326.1 L 205.3,277.0 M 173.0,277.8 L 173.0,326.1 M 154.1,196.1 L 138.6,185.7 M 103.9,195.4 L 124.9,215.8 M 97.8,273.1 L 173.0,277.8 M 87.8,250.2 L 97.8,273.1 M 124.9,215.8 L 87.8,250.2 M 217.4,147.3 L 226.8,120.6 M 184.5,160.0 L 217.4,147.3 M 149.0,157.2 L 184.5,160.0 M 78.2,211.7 L 103.9,195.4 M 54.3,199.9 L 78.2,211.7 M 252.1,240.2 L 252.7,197.2 M 252.7,197.2 L 223.1,186.9 M 198.9,86.0 L 138.1,74.7 M 20.0,157.8 L 54.3,199.9 M 105.8,82.8 L 58.5,87.6 M 23.5,113.8 L 20.0,157.8 M 205.3,277.0 L 252.1,240.2 M 223.1,186.9 L 154.1,196.1 M 138.6,185.7 L 149.0,157.2" fill="none" stroke="white" stroke-width="2" stroke-linecap="round"/>
  <polygon points="121.75623813056549,59.01098749517081 129.7562381305655,67.01098749517081 121.75623813056549,75.01098749517081 113.75623813056549,67.01098749517081" fill="#4a9eff" stroke="white" stroke-width="1"/>
<polygon points="189.45359602023413,286.51975545940127 197.45359602023413,294.51975545940127 189.45359602023413,302.51975545940127 181.45359602023413,294.51975545940127" fill="#4a9eff" stroke="white" stroke-width="1"/>
</svg>