<svg xmlns="http://www.w3.org/2000/svg" viewBox="0 0 400 400">
  <rect width="400" height="400" fill="#1a1a2e"/>
  <path d="M 160.6,207.8 L 153.8,207.6 L 148.0,230.1 Z M 160.6,207.8 L 148.0,230.1 L 165.6,229.9 Z M 235.0,253.7 L 250.6,244.0 L 251.8,233.4 Z M 235.0,253.7 L 251.8,233.4 L 237.9,228.4 Z M 210.7,232.0 L 196.0,232.0 L 196.0,248.0 Z M 210.7,232.0 L 196.0,248.0 L 210.7,248.0 Z M 148.0,185.3 L 148.0,200.0 L 164.0,200.0 Z M 148.0,185.3 L 164.0,200.0 L 164.0,185.3 Z M 232.7,166.8 L 216.1,162.1 L 234.5,179.5 Z M 216.1,162.1 L 201.8,175.3 L 234.5,179.5 Z M 234.5,179.5 L 201.8,175.3 L 205.0,186.6 Z M 219.6,244.6 L 235.0,253.7 L 237.9,228.4 Z M 219.6,244.6 L 237.9,228.4 L 219.6,237.3 Z M 188.0,226.1 L 187.9,220.1 L 160.6,207.8 Z M 188.0,226.1 L 160.6,207.8 L 165.6,229.9 Z M 148.0,230.1 L 157.0,241.1 L 165.6,229.9 Z M 204.4,175.8 L 195.8,184.4 L 204.4,193.1 Z M 204.4,175.8 L 204.4,193.1 L 213.0,184.4 Z M 178.2,222.6 L 188.2,229.6 L 195.2,219.6 Z M 178.2,222.6 L 195.2,219.6 L 185.2,212.6 Z M 239.0,240.6 L 246.8,231.3 L 237.5,223.4 Z M 239.0,240.6 L 237.5,223.4 L 229.6,232.8 Z M 20.0,20.0 L 113.7,101.4 L 186.6,20.0 Z M 113.7,101.4 L 184.5,81.4 L 186.6,20.0 Z M 186.6,20.0 L 184.5,81.4 L 276.8,101.1 Z M 316.2,201.6 L 266.1,309.6 L 380.0,315.7 Z M 266.1,309.6 L 380.0,380.0 L 380.0,315.7 Z M 113.7,101.4 L 20.0,20.0 L 77.3,192.8 Z M 20.0,20.0 L 20.0,380.0 L 77.3,192.8 Z M 77.3,192.8 L 20.0,380.0 L 100.3,265.6 Z M 20.0,380.0 L 164.5,309.6 L 100.3,265.6 Z M 186.6,20.0 L 276.8,101.1 L 380.0,20.0 Z M 276.8,101.1 L 316.2,201.6 L 380.0,20.0 Z M 380.0,20.0 L 316.2,201.6 L 380.0,200.0 Z M 316.2,201.6 L 380.0,315.7 L 380.0,200.0 Z M 20.0,380.0 L 168.3,380.0 L 164.5,309.6 Z M 168.3,380.0 L 215.3,309.6 L 164.5,309.6 Z M 215.3,309.6 L 168.3,380.0 L 266.1,309.6 Z M 168.3,380.0 L 380.0,380.0 L 266.1,309.6 Z M 261.1,228.2 L 250.6,209.5 L 236.3,219.0 Z M 250.6,209.5 L 231.9,209.5 L 236.3,219.0 Z M 236.3,219.0 L 231.9,209.5 L 210.7,232.0 Z M 135.8,175.9 L 148.0,185.3 L 141.5,160.8 Z M 148.0,185.3 L 164.0,185.3 L 141.5,160.8 Z M 141.5,160.8 L 164.0,185.3 L 176.3,152.7 Z M 164.0,185.3 L 190.5,173.5 L 176.3,152.7 Z M 176.3,152.7 L 190.5,173.5 L 197.3,152.7 Z M 190.5,173.5 L 213.3,152.7 L 197.3,152.7 Z M 157.3,284.0 L 173.3,284.0 L 173.3,253.3 Z M 157.3,284.0 L 173.3,253.3 L 157.3,253.3 Z M 213.3,152.7 L 213.3,124.0 L 197.3,124.0 Z M 213.3,152.7 L 197.3,124.0 L 197.3,152.7 Z M 173.3,253.3 L 196.0,248.0 L 196.0,232.0 Z M 173.3,253.3 L 196.0,232.0 L 169.2,238.0 Z M 173.3,253.3 L 169.2,238.0 L 157.3,253.3 Z M 240.9,159.3 L 244.8,186.7 L 250.7,171.5 Z M 164.0,185.3 L 198.2,197.0 L 190.5,173.5 Z M 210.7,248.0 L 234.7,262.7 L 235.0,253.7 Z M 210.7,248.0 L 235.0,253.7 L 219.6,244.6 Z M 210.7,248.0 L 219.6,244.6 L 219.6,237.3 Z M 210.7,248.0 L 219.6,237.3 L 210.7,232.0 Z M 148.0,230.1 L 153.8,207.6 L 148.0,200.0 Z M 148.0,230.1 L 148.0,200.0 L 139.3,233.7 Z M 157.3,253.3 L 157.0,241.1 L 148.0,230.1 Z M 157.3,253.3 L 148.0,230.1 L 139.3,233.7 Z M 188.0,226.1 L 196.0,232.0 L 196.0,214.0 Z M 188.0,226.1 L 196.0,214.0 L 187.9,220.1 Z M 258.6,248.2 L 250.6,244.0 L 235.0,253.7 Z M 258.6,248.2 L 235.0,253.7 L 234.7,262.7 Z M 261.1,228.2 L 251.8,233.4 L 250.6,244.0 Z M 261.1,228.2 L 250.6,244.0 L 258.6,248.2 Z M 196.0,214.0 L 164.0,200.0 L 160.6,207.8 Z M 196.0,214.0 L 160.6,207.8 L 187.9,220.1 Z M 160.6,207.8 L 164.0,200.0 L 148.0,200.0 Z M 160.6,207.8 L 148.0,200.0 L 153.8,207.6 Z M 165.6,229.9 L 169.2,238.0 L 196.0,232.0 Z M 165.6,229.9 L 196.0,232.0 L 188.0,226.1 Z M 237.9,228.4 L 251.8,233.4 L 261.1,228.2 Z M 237.9,228.4 L 261.1,228.2 L 236.3,219.0 Z M 210.7,232.0 L 219.6,237.3 L 237.9,228.4 Z M 210.7,232.0 L 237.9,228.4 L 236.3,219.0 Z M 244.8,186.7 L 240.9,159.3 L 232.7,166.8 Z M 244.8,186.7 L 232.7,166.8 L 234.5,179.5 Z M 213.3,152.7 L 190.5,173.5 L 201.8,175.3 Z M 213.3,152.7 L 201.8,175.3 L 216.1,162.1 Z M 205.0,186.6 L 198.2,197.0 L 244.8,186.7 Z M 205.0,186.6 L 244.8,186.7 L 234.5,179.5 Z M 216.1,162.1 L 232.7,166.8 L 240.9,159.3 Z M 216.1,162.1 L 240.9,159.3 L 213.3,152.7 Z M 201.8,175.3 L 190.5,173.5 L 198.2,197.0 Z M 201.8,175.3 L 198.2,197.0 L 205.0,186.6 Z M 165.6,229.9 L 157.0,241.1 L 157.3,253.3 Z M 165.6,229.9 L 157.3,253.3 L 169.2,238.0 Z" fill="#2a2a4e" stroke="none"/>
  <path d="M 210.7,232.0 L 196.0,232.0 M 196.0,248.0 L 210.7,248.0 M 148.0,185.3 L 148.0,200.0 M 164.0,200.0 L 164.0,185.3 M 204.4,175.8 L 195.8,184.4 M 195.8,184.4 L 204.4,193.1 M 204.4,193.1 L 213.0,184.4 M 213.0,184.4 L 204.4,175.8 M 178.2,222.6 L 188.2,229.6 M 188.2,229.6 L 195.2,219.6 M 195.2,219.6 L 185.2,212.6 M 185.2,212.6 L 178.2,222.6 M 239.0,240.6 L 246.8,231.3 M 246.8,231.3 L 237.5,223.4 M 237.5,223.4 L 229.6,232.8 M 229.6,232.8 L 239.0,240.6 M 186.6,20.0 L 20.0,20.0 M 113.7,101.4 L 184.5,81.4 M 184.5,81.4 L 276.8,101.1 M 316.2,201.6 L 266.1,309.6 M 380.0,380.0 L 380.0,315.7 M 77.3,192.8 L 113.7,101.4 M 20.0,20.0 L 20.0,380.0 M 100.3,265.6 L 77.3,192.8 M 164.5,309.6 L 100.3,265.6 M 380.0,20.0 L 186.6,20.0 M 276.8,101.1 L 316.2,201.6 M 380.0,200.0 L 380.0,20.0 M 380.0,315.7 L 380.0,200.0 M 20.0,380.0 L 168.3,380.0 M 215.3,309.6 L 164.5,309.6 M 266.1,309.6 L 215.3,309.6 M 168.3,380.0 L 380.0,380.0 M 261.1,228.2 L 250.6,209.5 M 250.6,209.5 L 231.9,209.5 M 231.9,209.5 L 210.7,232.0 M 135.8,175.9 L 148.0,185.3 M 141.5,160.8 L 135.8,175.9 M 176.3,152.7 L 141.5,160.8 M 197.3,152.7 L 176.3,152.7 M 157.3,284.0 L 173.3,284.0 M 173.3,284.0 L 173.3,253.3 M 157.3,253.3 L 157.3,284.0 M 213.3,152.7 L 213.3,124.0 M 213.3,124.0 L 197.3,124.0 M 197.3,124.0 L 197.3,152.7 M 173.3,253.3 L 196.0,248.0 M 244.8,186.7 L 250.7,171.5 M 250.7,171.5 L 240.9,159.3 M 164.0,185.3 L 198.2,197.0 M 210.7,248.0 L 234.7,262.7 M 148.0,200.0 L 139.3,233.7 M 139.3,233.7 L 157.3,253.3 M 196.0,232.0 L 196.0,214.0 M 234.7,262.7 L 258.6,248.2 M 258.6,248.2 L 261.1,228.2 M 196.0,214.0 L 164.0,200.0 M 198.2,197.0 L 244.8,186.7 M 240.9,159.3 L 213.3,152.7" fill="none" stroke="white" stroke-width="2" stroke-linecap="round"/>
  <polygon points="165.40003455058854,250.74922911041443 173.40003455058854,258.74922911041443 165.40003455058854,266.74922911041443 157.40003455058854,258.74922911041443" fill="#4a9eff" stroke="white" stroke-width="1"/>
<polygon points="204.39154185333044,138.49186968340553 212.39154185333044,146.49186968340553 204.39154185333044,154.49186968340553 196.39154185333044,146.49186968340553" fill="#4a9eff" stroke="white" stroke-width="1"/>
</svg>