<svg xmlns="http://www.w3.org/2000/svg" viewBox="0 0 400 400">
  <rect width="400" height="400" fill="#1a1a2e"/>
  <path d="M 51.9,180.3 L 80.5,202.7 L 103.0,174.2 Z M 51.9,180.3 L 103.0,174.2 L 74.4,151.7 Z M 223.8,86.4 L 243.3,62.4 L 219.2,42.9 Z M 223.8,86.4 L 219.2,42.9 L 199.7,67.0 Z M 182.6,146.5 L 146.9,139.9 L 140.3,175.6 Z M 182.6,146.5 L 140.3,175.6 L 176.0,182.2 Z M 106.3,49.2 L 89.6,81.5 L 121.9,98.2 Z M 106.3,49.2 L 121.9,98.2 L 138.6,65.9 Z M 181.2,109.0 L 217.6,110.3 L 218.9,74.0 Z M 181.2,109.0 L 218.9,74.0 L 182.5,72.7 Z M 124.9,90.6 L 105.1,142.0 L 161.7,166.3 Z M 124.9,90.6 L 161.7,166.3 L 160.7,80.4 Z M 160.7,80.4 L 161.7,166.3 L 223.0,110.7 Z M 160.7,80.4 L 223.0,110.7 L 213.7,86.5 Z M 92.7,70.9 L 59.1,70.8 L 50.0,99.4 Z M 92.7,70.9 L 50.0,99.4 L 124.9,90.6 Z M 124.9,90.6 L 50.0,99.4 L 69.3,137.2 Z M 124.9,90.6 L 69.3,137.2 L 105.1,142.0 Z M 69.3,137.2 L 72.5,175.4 L 105.1,142.0 Z M 72.5,175.4 L 116.7,178.3 L 105.1,142.0 Z M 105.1,142.0 L 116.7,178.3 L 161.7,166.3 Z M 72.5,175.4 L 51.7,193.0 L 123.7,198.8 Z M 72.5,175.4 L 123.7,198.8 L 116.7,178.3 Z M 161.7,166.3 L 179.2,181.7 L 245.2,117.3 Z M 161.7,166.3 L 245.2,117.3 L 223.0,110.7 Z M 92.7,70.9 L 102.6,50.7 L 43.8,50.2 Z M 92.7,70.9 L 43.8,50.2 L 59.1,70.8 Z M 43.8,50.2 L 22.7,103.1 L 50.0,99.4 Z M 43.8,50.2 L 50.0,99.4 L 59.1,70.8 Z M 22.7,103.1 L 48.4,143.2 L 69.3,137.2 Z M 22.7,103.1 L 69.3,137.2 L 50.0,99.4 Z M 48.4,143.2 L 51.7,193.0 L 72.5,175.4 Z M 48.4,143.2 L 72.5,175.4 L 69.3,137.2 Z M 123.7,198.8 L 179.2,181.7 L 161.7,166.3 Z M 123.7,198.8 L 161.7,166.3 L 116.7,178.3 Z M 92.7,70.9 L 124.9,90.6 L 129.3,67.4 Z M 92.7,70.9 L 129.3,67.4 L 102.6,50.7 Z M 124.9,90.6 L 160.7,80.4 L 161.2,57.4 Z M 124.9,90.6 L 161.2,57.4 L 129.3,67.4 Z M 161.2,57.4 L 160.7,80.4 L 213.7,86.5 Z M 161.2,57.4 L 213.7,86.5 L 230.2,67.5 Z M 245.2,117.3 L 230.2,67.5 L 213.7,86.5 Z M 245.2,117.3 L 213.7,86.5 L 223.0,110.7 Z M 230.2,67.5 L 239.3,55.2 L 166.3,20.0 Z M 230.2,67.5 L 166.3,20.0 L 161.2,57.4 Z M 161.2,57.4 L 166.3,20.0 L 102.6,50.7 Z M 161.2,57.4 L 102.6,50.7 L 129.3,67.4 Z M 179.2,181.7 L 123.7,198.8 L 179.2,227.7 Z M 123.7,198.8 L 127.0,263.9 L 179.2,227.7 Z M 179.2,227.7 L 127.0,263.9 L 195.9,243.6 Z M 127.0,263.9 L 78.5,263.9 L 78.5,380.0 Z M 127.0,263.9 L 78.5,380.0 L 127.0,380.0 Z M 20.0,231.1 L 78.5,263.9 L 123.7,198.8 Z M 20.0,231.1 L 123.7,198.8 L 51.7,193.0 Z M 78.5,263.9 L 127.0,263.9 L 123.7,198.8 Z M 245.2,117.3 L 239.3,55.2 L 230.2,67.5 Z" fill="#2a2a4e" stroke="none"/>
  <path d="M 51.9,180.3 L 80.5,202.7 M 80.5,202.7 L 103.0,174.2 M 103.0,174.2 L 74.4,151.7 M 74.4,151.7 L 51.9,180.3 M 223.8,86.4 L 243.3,62.4 M 243.3,62.4 L 219.2,42.9 M 219.2,42.9 L 199.7,67.0 M 199.7,67.0 L 223.8,86.4 M 182.6,146.5 L 146.9,139.9 M 146.9,139.9 L 140.3,175.6 M 140.3,175.6 L 176.0,182.2 M 176.0,182.2 L 182.6,146.5 M 106.3,49.2 L 89.6,81.5 M 89.6,81.5 L 121.9,98.2 M 121.9,98.2 L 138.6,65.9 M 138.6,65.9 L 106.3,49.2 M 181.2,109.0 L 217.6,110.3 M 217.6,110.3 L 218.9,74.0 M 218.9,74.0 L 182.5,72.7 M 182.5,72.7 L 181.2,109.0 M 179.2,181.7 L 245.2,117.3 M 102.6,50.7 L 43.8,50.2 M 43.8,50.2 L 22.7,103.1 M 22.7,103.1 L 48.4,143.2 M 48.4,143.2 L 51.7,193.0 M 239.3,55.2 L 166.3,20.0 M 166.3,20.0 L 102.6,50.7 M 179.2,227.7 L 179.2,181.7 M 127.0,263.9 L 195.9,243.6 M 195.9,243.6 L 179.2,227.7 M 78.5,263.9 L 78.5,380.0 M 78.5,380.0 L 127.0,380.0 M 127.0,380.0 L 127.0,263.9 M 20.0,231.1 L 78.5,263.9 M 51.7,193.0 L 20.0,231.1 M 245.2,117.3 L 239.3,55.2" fill="none" stroke="white" stroke-width="2" stroke-linecap="round"/>
  <polygon points="104.90088452367037,289.2012992948416 112.90088452367037,297.2012992948416 104.90088452367037,305.2012992948416 96.90088452367037,297.2012992948416" fill="#4a9eff" stroke="white" stroke-width="1"/>
</svg>