<svg xmlns="http://www.w3.org/2000/svg" viewBox="0 0 400 400">
  <rect width="400" height="400" fill="#1a1a2e"/>
  <path d="M 227.8,97.5 L 231.1,66.7 L 199.3,63.5 Z M 227.8,97.5 L 199.3,63.5 L 196.6,93.3 Z M 188.5,133.2 L 153.4,131.9 L 151.1,165.7 Z M 188.5,133.2 L 151.1,165.7 L 186.5,167.3 Z M 173.0,109.9 L 188.5,133.2 L 220.3,115.6 Z M 173.0,109.9 L 220.3,115.6 L 196.6,93.3 Z M 153.4,131.9 L 151.4,107.2 L 123.9,101.0 Z M 153.4,131.9 L 123.9,101.0 L 117.2,130.7 Z M 123.9,101.0 L 151.4,107.2 L 150.0,74.1 Z M 231.1,66.7 L 227.8,97.5 L 263.8,89.5 Z M 192.7,110.0 L 199.3,113.0 L 202.4,106.2 Z M 192.7,110.0 L 202.4,106.2 L 195.8,103.2 Z M 205.5,113.5 L 204.5,107.2 L 198.1,108.4 Z M 205.5,113.5 L 198.1,108.4 L 199.2,114.6 Z M 187.1,101.2 L 188.6,106.6 L 194.1,105.0 Z M 187.1,101.2 L 194.1,105.0 L 192.7,99.6 Z M 191.4,110.5 L 194.5,106.8 L 190.7,103.6 Z M 191.4,110.5 L 190.7,103.6 L 187.5,107.3 Z M 194.4,107.9 L 198.3,104.2 L 194.4,100.2 Z M 194.4,107.9 L 194.4,100.2 L 190.6,103.9 Z M 189.5,148.7 L 183.0,145.5 L 179.7,152.2 Z M 189.5,148.7 L 179.7,152.2 L 186.2,155.5 Z M 177.0,142.2 L 174.8,138.1 L 170.6,140.4 Z M 177.0,142.2 L 170.6,140.4 L 172.8,144.5 Z M 171.8,135.5 L 169.9,139.1 L 173.7,140.9 Z M 171.8,135.5 L 173.7,140.9 L 175.5,137.3 Z M 169.8,138.2 L 167.4,141.9 L 171.3,144.4 Z M 169.8,138.2 L 171.3,144.4 L 173.7,140.7 Z M 130.1,121.3 L 124.4,116.7 L 119.7,122.6 Z M 130.1,121.3 L 119.7,122.6 L 125.3,127.1 Z M 118.5,114.7 L 118.0,121.0 L 124.4,121.5 Z M 118.5,114.7 L 124.4,121.5 L 125.0,115.2 Z M 357.8,122.0 L 353.7,118.7 L 358.1,116.4 Z M 355.2,96.0 L 357.0,101.4 L 352.1,100.3 Z M 225.2,361.4 L 261.5,361.4 L 261.5,300.7 Z M 225.2,361.4 L 261.5,300.7 L 225.2,300.7 Z M 225.2,300.7 L 261.5,300.7 L 261.5,245.3 Z M 225.2,300.7 L 261.5,245.3 L 225.2,246.2 Z M 225.2,246.2 L 261.5,245.3 L 255.0,203.9 Z M 225.2,246.2 L 255.0,203.9 L 203.9,206.9 Z M 203.9,206.9 L 255.0,203.9 L 240.4,160.8 Z M 203.9,206.9 L 240.4,160.8 L 179.4,183.9 Z M 188.5,133.2 L 240.4,160.8 L 265.4,127.6 Z M 188.5,133.2 L 265.4,127.6 L 220.3,115.6 Z M 220.3,115.6 L 265.4,127.6 L 263.8,89.5 Z M 220.3,115.6 L 263.8,89.5 L 227.8,97.5 Z M 263.8,89.5 L 281.4,84.1 L 259.0,34.3 Z M 263.8,89.5 L 259.0,34.3 L 231.1,66.7 Z M 231.1,66.7 L 259.0,34.3 L 191.1,20.0 Z M 231.1,66.7 L 191.1,20.0 L 199.3,63.5 Z M 199.3,63.5 L 191.1,20.0 L 145.6,27.2 Z M 199.3,63.5 L 145.6,27.2 L 150.0,74.1 Z M 150.0,74.1 L 145.6,27.2 L 111.6,38.4 Z M 150.0,74.1 L 111.6,38.4 L 123.9,101.0 Z M 123.9,101.0 L 111.6,38.4 L 79.1,70.9 Z M 123.9,101.0 L 79.1,70.9 L 80.7,106.2 Z M 188.5,133.2 L 186.5,167.3 L 240.4,160.8 Z M 186.5,167.3 L 179.4,183.9 L 240.4,160.8 Z M 199.3,63.5 L 150.0,74.1 L 173.0,109.9 Z M 199.3,63.5 L 173.0,109.9 L 196.6,93.3 Z M 151.4,107.2 L 153.4,131.9 L 188.5,133.2 Z M 151.4,107.2 L 188.5,133.2 L 173.0,109.9 Z M 265.4,127.6 L 316.0,127.5 L 316.0,91.1 Z M 265.4,127.6 L 316.0,91.1 L 281.4,84.1 Z M 380.0,91.1 L 316.0,91.1 L 316.0,127.5 Z M 380.0,91.1 L 316.0,127.5 L 367.1,127.5 Z M 33.7,106.2 L 20.0,142.6 L 81.6,142.6 Z M 33.7,106.2 L 81.6,142.6 L 80.7,106.2 Z M 186.5,167.3 L 151.1,165.7 L 143.3,188.1 Z M 186.5,167.3 L 143.3,188.1 L 179.4,183.9 Z M 80.7,106.2 L 81.6,142.6 L 117.2,130.7 Z M 80.7,106.2 L 117.2,130.7 L 123.9,101.0 Z M 151.1,165.7 L 153.4,131.9 L 117.2,130.7 Z M 151.1,165.7 L 117.2,130.7 L 106.8,177.1 Z M 151.4,107.2 L 173.0,109.9 L 150.0,74.1 Z M 117.2,130.7 L 81.6,142.6 L 106.8,177.1 Z M 106.8,177.1 L 143.3,188.1 L 151.1,165.7 Z M 263.8,89.5 L 265.4,127.6 L 281.4,84.1 Z M 196.6,93.3 L 220.3,115.6 L 227.8,97.5 Z" fill="#2a2a4e" stroke="none"/>
  <path d="M 192.7,110.0 L 199.3,113.0 M 199.3,113.0 L 202.4,106.2 M 202.4,106.2 L 195.8,103.2 M 195.8,103.2 L 192.7,110.0 M 205.5,113.5 L 204.5,107.2 M 204.5,107.2 L 198.1,108.4 M 198.1,108.4 L 199.2,114.6 M 199.2,114.6 L 205.5,113.5 M 187.1,101.2 L 188.6,106.6 M 188.6,106.6 L 194.1,105.0 M 194.1,105.0 L 192.7,99.6 M 192.7,99.6 L 187.1,101.2 M 191.4,110.5 L 194.5,106.8 M 194.5,106.8 L 190.7,103.6 M 190.7,103.6 L 187.5,107.3 M 187.5,107.3 L 191.4,110.5 M 194.4,107.9 L 198.3,104.2 M 198.3,104.2 L 194.4,100.2 M 194.4,100.2 L 190.6,103.9 M 190.6,103.9 L 194.4,107.9 M 189.5,148.7 L 183.0,145.5 M 183.0,145.5 L 179.7,152.2 M 179.7,152.2 L 186.2,155.5 M 186.2,155.5 L 189.5,148.7 M 177.0,142.2 L 174.8,138.1 M 174.8,138.1 L 170.6,140.4 M 170.6,140.4 L 172.8,144.5 M 172.8,144.5 L 177.0,142.2 M 171.8,135.5 L 169.9,139.1 M 169.9,139.1 L 173.7,140.9 M 173.7,140.9 L 175.5,137.3 M 175.5,137.3 L 171.8,135.5 M 169.8,138.2 L 167.4,141.9 M 167.4,141.9 L 171.3,144.4 M 171.3,144.4 L 173.7,140.7 M 173.7,140.7 L 169.8,138.2 M 130.1,121.3 L 124.4,116.7 M 124.4,116.7 L 119.7,122.6 M 119.7,122.6 L 125.3,127.1 M 125.3,127.1 L 130.1,121.3 M 118.5,114.7 L 118.0,121.0 M 118.0,121.0 L 124.4,121.5 M 124.4,121.5 L 125.0,115.2 M 125.0,115.2 L 118.5,114.7 M 357.8,122.0 L 353.7,118.7 M 353.7,118.7 L 358.1,116.4 M 358.1,116.4 L 357.8,122.0 M 355.2,96.0 L 357.0,101.4 M 357.0,101.4 L 352.1,100.3 M 352.1,100.3 L 355.2,96.0 M 225.2,361.4 L 261.5,361.4 M 261.5,361.4 L 261.5,300.7 M 225.2,300.7 L 225.2,361.4 M 261.5,300.7 L 261.5,245.3 M 225.2,246.2 L 225.2,300.7 M 261.5,245.3 L 255.0,203.9 M 203.9,206.9 L 225.2,246.2 M 255.0,203.9 L 240.4,160.8 M 179.4,183.9 L 203.9,206.9 M 240.4,160.8 L 265.4,127.6 M 281.4,84.1 L 259.0,34.3 M 259.0,34.3 L 191.1,20.0 M 191.1,20.0 L 145.6,27.2 M 145.6,27.2 L 111.6,38.4 M 111.6,38.4 L 79.1,70.9 M 79.1,70.9 L 80.7,106.2 M 265.4,127.6 L 316.0,127.5 M 316.0,91.1 L 281.4,84.1 M 380.0,91.1 L 316.0,91.1 M 316.0,127.5 L 367.1,127.5 M 367.1,127.5 L 380.0,91.1 M 33.7,106.2 L 20.0,142.6 M 20.0,142.6 L 81.6,142.6 M 80.7,106.2 L 33.7,106.2 M 143.3,188.1 L 179.4,183.9 M 81.6,142.6 L 106.8,177.1 M 106.8,177.1 L 143.3,188.1" fill="none" stroke="white" stroke-width="2" stroke-linecap="round"/>
  <polygon points="70.71653395424406,115.34159367230507 78.71653395424406,123.34159367230507 70.71653395424406,131.34159367230507 62.716533954244056,123.34159367230507" fill="#4a9eff" stroke="white" stroke-width="1"/>
<polygon points="298.2278339838409,101.20570317637718 306.2278339838409,109.20570317637718 298.2278339838409,117.20570317637718 290.2278339838409,109.20570317637718" fill="#4a9eff" stroke="white" stroke-width="1"/>
<polygon points="243.42510136023537,260.0445812582017 251.42510136023537,268.0445812582017 243.42510136023537,276.0445812582017 235.42510136023537,268.0445812582017" fill="#4a9eff" stroke="white" stroke-width="1"/>
</svg>