<svg xmlns="http://www.w3.org/2000/svg" viewBox="0 0 400 400">
  <rect width="400" height="400" fill="#1a1a2e"/>
  <path d="M 138.0,102.6 L 110.1,135.2 L 137.1,161.1 Z M 138.0,102.6 L 137.1,161.1 L 178.7,146.1 Z M 178.7,146.1 L 137.1,161.1 L 121.8,193.4 Z M 178.7,146.1 L 121.8,193.4 L 168.1,196.1 Z M 168.1,196.1 L 121.8,193.4 L 124.8,217.8 Z M 168.1,196.1 L 124.8,217.8 L 149.4,221.9 Z M 138.0,102.6 L 111.0,111.2 L 110.1,135.2 Z M 109.0,229.4 L 134.5,197.2 L 102.4,171.7 Z M 109.0,229.4 L 102.4,171.7 L 76.8,203.9 Z M 136.1,111.8 L 154.9,88.1 L 131.3,69.3 Z M 136.1,111.8 L 131.3,69.3 L 112.4,93.0 Z M 181.1,231.9 L 158.5,210.5 L 137.1,233.1 Z M 181.1,231.9 L 137.1,233.1 L 159.7,254.5 Z M 111.0,111.2 L 87.6,96.3 L 84.8,142.9 Z M 111.0,111.2 L 84.8,142.9 L 110.1,135.2 Z M 110.1,135.2 L 84.8,142.9 L 113.7,165.9 Z M 110.1,135.2 L 113.7,165.9 L 137.1,161.1 Z M 104.8,234.6 L 124.8,217.8 L 121.8,193.4 Z M 104.8,234.6 L 121.8,193.4 L 97.3,194.1 Z M 97.3,194.1 L 121.8,193.4 L 137.1,161.1 Z M 97.3,194.1 L 137.1,161.1 L 113.7,165.9 Z M 154.4,246.0 L 149.4,221.9 L 124.8,217.8 Z M 154.4,246.0 L 124.8,217.8 L 104.8,234.6 Z M 168.1,196.1 L 149.4,221.9 L 154.4,246.0 Z M 168.1,196.1 L 154.4,246.0 L 185.4,211.5 Z M 178.7,146.1 L 168.1,196.1 L 185.4,211.5 Z M 178.7,146.1 L 185.4,211.5 L 201.2,140.1 Z M 201.2,140.1 L 143.1,78.6 L 138.0,102.6 Z M 201.2,140.1 L 138.0,102.6 L 178.7,146.1 Z M 87.6,96.3 L 111.0,111.2 L 138.0,102.6 Z M 87.6,96.3 L 138.0,102.6 L 143.1,78.6 Z M 123.6,133.6 L 127.5,136.4 L 131.4,130.7 Z M 123.6,133.6 L 131.4,130.7 L 127.4,128.0 Z M 126.8,133.5 L 122.1,134.5 L 123.6,141.1 Z M 126.8,133.5 L 123.6,141.1 L 128.3,140.1 Z M 125.1,135.7 L 126.9,131.3 L 120.5,128.8 Z M 125.1,135.7 L 120.5,128.8 L 118.7,133.2 Z M 162.6,188.0 L 160.7,185.5 L 157.3,188.4 Z M 162.6,188.0 L 157.3,188.4 L 159.2,190.9 Z M 144.0,202.8 L 148.7,203.2 L 149.2,196.4 Z M 144.0,202.8 L 149.2,196.4 L 144.5,196.0 Z M 146.7,201.1 L 143.1,204.3 L 147.7,209.3 Z M 146.7,201.1 L 147.7,209.3 L 151.3,206.1 Z M 146.3,203.9 L 145.6,199.1 L 138.8,200.2 Z M 146.3,203.9 L 138.8,200.2 L 139.5,204.9 Z M 45.8,75.2 L 79.5,66.8 L 79.5,20.0 Z M 45.8,75.2 L 79.5,20.0 L 45.8,20.0 Z M 149.8,278.1 L 116.1,279.0 L 116.1,334.6 Z M 149.8,278.1 L 116.1,334.6 L 149.8,334.6 Z M 149.8,334.6 L 116.1,334.6 L 105.7,380.0 Z M 149.8,334.6 L 105.7,380.0 L 139.5,380.0 Z M 50.4,230.1 L 104.8,234.6 L 97.3,194.1 Z M 50.4,230.1 L 97.3,194.1 L 56.1,190.5 Z M 56.1,190.5 L 97.3,194.1 L 84.8,142.9 Z M 56.1,190.5 L 84.8,142.9 L 41.2,153.6 Z M 41.2,153.6 L 84.8,142.9 L 49.8,94.6 Z M 41.2,153.6 L 49.8,94.6 L 20.0,122.5 Z M 116.1,279.0 L 104.8,234.6 L 74.8,268.5 Z M 104.8,234.6 L 50.4,230.1 L 74.8,268.5 Z M 84.8,142.9 L 87.6,96.3 L 49.8,94.6 Z M 87.6,96.3 L 79.5,66.8 L 49.8,94.6 Z M 104.8,234.6 L 116.1,279.0 L 149.8,278.1 Z M 104.8,234.6 L 149.8,278.1 L 154.4,246.0 Z M 49.8,94.6 L 45.8,75.2 L 21.1,94.9 Z M 49.8,94.6 L 21.1,94.9 L 20.0,122.5 Z M 154.4,246.0 L 149.8,278.1 L 198.7,239.6 Z M 154.4,246.0 L 198.7,239.6 L 185.4,211.5 Z M 45.8,75.2 L 49.8,94.6 L 79.5,66.8 Z M 79.5,66.8 L 87.6,96.3 L 143.1,78.6 Z M 97.3,194.1 L 113.7,165.9 L 84.8,142.9 Z M 198.7,239.6 L 201.2,140.1 L 185.4,211.5 Z" fill="#2a2a4e" stroke="none"/>
  <path d="M 109.0,229.4 L 134.5,197.2 M 134.5,197.2 L 102.4,171.7 M 102.4,171.7 L 76.8,203.9 M 76.8,203.9 L 109.0,229.4 M 136.1,111.8 L 154.9,88.1 M 154.9,88.1 L 131.3,69.3 M 131.3,69.3 L 112.4,93.0 M 112.4,93.0 L 136.1,111.8 M 181.1,231.9 L 158.5,210.5 M 158.5,210.5 L 137.1,233.1 M 137.1,233.1 L 159.7,254.5 M 159.7,254.5 L 181.1,231.9 M 201.2,140.1 L 143.1,78.6 M 123.6,133.6 L 127.5,136.4 M 127.5,136.4 L 131.4,130.7 M 131.4,130.7 L 127.4,128.0 M 127.4,128.0 L 123.6,133.6 M 126.8,133.5 L 122.1,134.5 M 122.1,134.5 L 123.6,141.1 M 123.6,141.1 L 128.3,140.1 M 128.3,140.1 L 126.8,133.5 M 125.1,135.7 L 126.9,131.3 M 126.9,131.3 L 120.5,128.8 M 120.5,128.8 L 118.7,133.2 M 118.7,133.2 L 125.1,135.7 M 162.6,188.0 L 160.7,185.5 M 160.7,185.5 L 157.3,188.4 M 157.3,188.4 L 159.2,190.9 M 159.2,190.9 L 162.6,188.0 M 144.0,202.8 L 148.7,203.2 M 148.7,203.2 L 149.2,196.4 M 149.2,196.4 L 144.5,196.0 M 144.5,196.0 L 144.0,202.8 M 146.7,201.1 L 143.1,204.3 M 143.1,204.3 L 147.7,209.3 M 147.7,209.3 L 151.3,206.1 M 151.3,206.1 L 146.7,201.1 M 146.3,203.9 L 145.6,199.1 M 145.6,199.1 L 138.8,200.2 M 138.8,200.2 L 139.5,204.9 M 139.5,204.9 L 146.3,203.9 M 79.5,66.8 L 79.5,20.0 M 79.5,20.0 L 45.8,20.0 M 45.8,20.0 L 45.8,75.2 M 116.1,279.0 L 116.1,334.6 M 149.8,334.6 L 149.8,278.1 M 116.1,334.6 L 105.7,380.0 M 105.7,380.0 L 139.5,380.0 M 139.5,380.0 L 149.8,334.6 M 56.1,190.5 L 50.4,230.1 M 41.2,153.6 L 56.1,190.5 M 20.0,122.5 L 41.2,153.6 M 74.8,268.5 L 116.1,279.0 M 50.4,230.1 L 74.8,268.5 M 45.8,75.2 L 21.1,94.9 M 21.1,94.9 L 20.0,122.5 M 149.8,278.1 L 198.7,239.6 M 143.1,78.6 L 79.5,66.8 M 198.7,239.6 L 201.2,140.1" fill="none" stroke="white" stroke-width="2" stroke-linecap="round"/>
  <polygon points="134.19565553539996,294.5619143594527 142.19565553539996,302.5619143594527 134.19565553539996,310.5619143594527 126.19565553539996,302.5619143594527" fill="#4a9eff" stroke="white" stroke-width="1"/>
<polygon points="62.11989119473607,49.37879323725659 70.11989119473607,57.37879323725659 62.11989119473607,65.37879323725659 54.11989119473607,57.37879323725659" fill="#4a9eff" stroke="white" stroke-width="1"/>
</svg>