<svg xmlns="http://www.w3.org/2000/svg" viewBox="0 0 400 400">
  <rect width="400" height="400" fill="#1a1a2e"/>
  <path d="M 249.5,214.5 L 244.1,157.9 L 186.1,182.8 Z M 249.5,214.5 L 186.1,182.8 L 222.4,261.4 Z M 222.4,261.4 L 186.1,182.8 L 164.4,277.4 Z M 222.4,261.4 L 164.4,277.4 L 193.3,276.6 Z M 137.8,220.4 L 138.7,246.8 L 186.1,182.8 Z M 137.8,220.4 L 186.1,182.8 L 157.6,187.1 Z M 157.6,187.1 L 186.1,182.8 L 175.5,128.0 Z M 157.6,187.1 L 175.5,128.0 L 161.9,145.2 Z M 175.5,128.0 L 186.1,182.8 L 200.8,124.9 Z M 186.1,182.8 L 244.1,157.9 L 200.8,124.9 Z M 138.7,246.8 L 164.4,277.4 L 186.1,182.8 Z M 259.3,287.8 L 237.3,242.8 L 192.4,264.9 Z M 259.3,287.8 L 192.4,264.9 L 214.4,309.8 Z M 208.0,175.8 L 248.0,194.2 L 266.5,154.2 Z M 208.0,175.8 L 266.5,154.2 L 226.5,135.8 Z M 148.1,187.8 L 179.5,150.5 L 142.1,119.1 Z M 148.1,187.8 L 142.1,119.1 L 110.7,156.5 Z M 104.9,253.0 L 67.0,306.7 L 148.5,319.1 Z M 104.9,253.0 L 148.5,319.1 L 159.6,299.6 Z M 159.6,299.6 L 148.5,319.1 L 231.9,351.5 Z M 159.6,299.6 L 231.9,351.5 L 198.0,301.0 Z M 198.0,301.0 L 231.9,351.5 L 308.7,327.8 Z M 198.0,301.0 L 308.7,327.8 L 245.8,281.5 Z M 245.8,281.5 L 308.7,327.8 L 360.3,265.4 Z M 245.8,281.5 L 360.3,265.4 L 274.1,217.7 Z M 274.1,217.7 L 360.3,265.4 L 353.3,152.1 Z M 274.1,217.7 L 353.3,152.1 L 269.8,144.1 Z M 104.9,253.0 L 117.8,210.7 L 38.5,243.4 Z M 117.8,210.7 L 45.7,128.3 L 38.5,243.4 Z M 246.3,35.7 L 162.5,42.6 L 205.5,98.0 Z M 162.5,42.6 L 163.6,103.4 L 205.5,98.0 Z M 138.2,132.3 L 163.6,103.4 L 111.8,89.3 Z M 163.6,103.4 L 162.5,42.6 L 111.8,89.3 Z M 319.5,69.5 L 246.3,35.7 L 205.5,98.0 Z M 319.5,69.5 L 205.5,98.0 L 269.8,144.1 Z M 45.7,128.3 L 138.2,184.6 L 138.2,132.3 Z M 45.7,128.3 L 138.2,132.3 L 111.8,89.3 Z M 104.9,253.0 L 38.5,243.4 L 67.0,306.7 Z M 269.8,144.1 L 353.3,152.1 L 319.5,69.5 Z M 117.8,210.7 L 138.2,184.6 L 45.7,128.3 Z M 138.2,132.3 L 161.9,145.2 L 175.5,128.0 Z M 138.2,132.3 L 175.5,128.0 L 163.6,103.4 Z M 163.6,103.4 L 175.5,128.0 L 200.8,124.9 Z M 163.6,103.4 L 200.8,124.9 L 205.5,98.0 Z M 38.5,243.4 L 45.7,128.3 L 20.0,248.0 Z M 45.7,128.3 L 27.4,117.4 L 20.0,248.0 Z M 111.8,89.3 L 162.5,42.6 L 96.8,75.2 Z M 162.5,42.6 L 157.6,21.0 L 96.8,75.2 Z M 157.6,21.0 L 162.5,42.6 L 253.5,20.0 Z M 162.5,42.6 L 246.3,35.7 L 253.5,20.0 Z M 336.6,55.2 L 253.5,20.0 L 319.5,69.5 Z M 253.5,20.0 L 246.3,35.7 L 319.5,69.5 Z M 53.8,321.4 L 144.4,337.0 L 67.0,306.7 Z M 144.4,337.0 L 148.5,319.1 L 67.0,306.7 Z M 111.8,89.3 L 96.8,75.2 L 45.7,128.3 Z M 96.8,75.2 L 27.4,117.4 L 45.7,128.3 Z M 232.3,370.1 L 231.9,351.5 L 144.4,337.0 Z M 231.9,351.5 L 148.5,319.1 L 144.4,337.0 Z M 232.3,370.1 L 320.4,341.9 L 231.9,351.5 Z M 320.4,341.9 L 308.7,327.8 L 231.9,351.5 Z M 308.7,327.8 L 320.4,341.9 L 360.3,265.4 Z M 320.4,341.9 L 380.0,272.0 L 360.3,265.4 Z M 380.0,272.0 L 374.3,148.5 L 360.3,265.4 Z M 374.3,148.5 L 353.3,152.1 L 360.3,265.4 Z M 336.6,55.2 L 319.5,69.5 L 374.3,148.5 Z M 319.5,69.5 L 353.3,152.1 L 374.3,148.5 Z M 38.5,243.4 L 20.0,248.0 L 67.0,306.7 Z M 20.0,248.0 L 53.8,321.4 L 67.0,306.7 Z M 138.2,184.6 L 157.6,187.1 L 138.2,132.3 Z M 157.6,187.1 L 161.9,145.2 L 138.2,132.3 Z M 200.8,124.9 L 244.1,157.9 L 205.5,98.0 Z M 244.1,157.9 L 269.8,144.1 L 205.5,98.0 Z M 249.5,214.5 L 274.1,217.7 L 244.1,157.9 Z M 274.1,217.7 L 269.8,144.1 L 244.1,157.9 Z M 245.8,281.5 L 274.1,217.7 L 222.4,261.4 Z M 274.1,217.7 L 249.5,214.5 L 222.4,261.4 Z M 117.8,210.7 L 137.8,220.4 L 138.2,184.6 Z M 137.8,220.4 L 157.6,187.1 L 138.2,184.6 Z M 245.8,281.5 L 222.4,261.4 L 198.0,301.0 Z M 222.4,261.4 L 193.3,276.6 L 198.0,301.0 Z M 159.6,299.6 L 164.4,277.4 L 104.9,253.0 Z M 164.4,277.4 L 138.7,246.8 L 104.9,253.0 Z M 159.6,299.6 L 198.0,301.0 L 164.4,277.4 Z M 198.0,301.0 L 193.3,276.6 L 164.4,277.4 Z M 138.7,246.8 L 137.8,220.4 L 104.9,253.0 Z M 137.8,220.4 L 117.8,210.7 L 104.9,253.0 Z" fill="#2a2a4e" stroke="none"/>
  <path d="M 259.3,287.8 L 237.3,242.8 M 237.3,242.8 L 192.4,264.9 M 192.4,264.9 L 214.4,309.8 M 214.4,309.8 L 259.3,287.8 M 208.0,175.8 L 248.0,194.2 M 248.0,194.2 L 266.5,154.2 M 266.5,154.2 L 226.5,135.8 M 226.5,135.8 L 208.0,175.8 M 148.1,187.8 L 179.5,150.5 M 179.5,150.5 L 142.1,119.1 M 142.1,119.1 L 110.7,156.5 M 110.7,156.5 L 148.1,187.8 M 27.4,117.4 L 20.0,248.0 M 157.6,21.0 L 96.8,75.2 M 253.5,20.0 L 157.6,21.0 M 336.6,55.2 L 253.5,20.0 M 53.8,321.4 L 144.4,337.0 M 96.8,75.2 L 27.4,117.4 M 144.4,337.0 L 232.3,370.1 M 232.3,370.1 L 320.4,341.9 M 320.4,341.9 L 380.0,272.0 M 380.0,272.0 L 374.3,148.5 M 374.3,148.5 L 336.6,55.2 M 20.0,248.0 L 53.8,321.4" fill="none" stroke="white" stroke-width="2" stroke-linecap="round"/>
  
</svg>